<svg xmlns="http://www.w3.org/2000/svg" width="240" height="197.287" viewBox="0 0 240 197.287">
  <g id="Group_455" data-name="Group 455" transform="translate(0 -3420)">
    <g id="Group_321" data-name="Group 321" transform="translate(5.346 3420)">
      <path id="Path_554" data-name="Path 554" d="M254.066,74.706a2.738,2.738,0,1,1,2.736-2.738A2.742,2.742,0,0,1,254.066,74.706Z" transform="translate(-251.322 122.582)" fill="#1cab8f"/>
      <path id="Path_555" data-name="Path 555" d="M261.249,74.706a2.738,2.738,0,1,1,2.735-2.738A2.741,2.741,0,0,1,261.249,74.706Z" transform="translate(-246.915 122.582)" fill="#1cab8f"/>
      <path id="Path_556" data-name="Path 556" d="M268.431,74.706a2.738,2.738,0,1,1,2.738-2.738A2.741,2.741,0,0,1,268.431,74.706Z" transform="translate(-242.509 122.582)" fill="#1cab8f"/>
      <path id="Path_557" data-name="Path 557" d="M275.617,74.706a2.738,2.738,0,1,1,2.735-2.738A2.738,2.738,0,0,1,275.617,74.706Z" transform="translate(-238.104 122.582)" fill="#1cab8f"/>
      <path id="Path_558" data-name="Path 558" d="M282.794,74.706a2.738,2.738,0,1,1,2.741-2.738A2.732,2.732,0,0,1,282.794,74.706Z" transform="translate(-233.697 122.582)" fill="#1cab8f"/>
      <path id="Path_559" data-name="Path 559" d="M289.979,74.706a2.738,2.738,0,1,1,2.743-2.738A2.738,2.738,0,0,1,289.979,74.706Z" transform="translate(-229.293 122.582)" fill="#1cab8f"/>
      <path id="Path_560" data-name="Path 560" d="M297.163,74.706a2.738,2.738,0,1,1,2.743-2.738A2.74,2.74,0,0,1,297.163,74.706Z" transform="translate(-224.889 122.582)" fill="#1cab8f"/>
      <path id="Path_561" data-name="Path 561" d="M304.348,74.706a2.738,2.738,0,1,1,2.733-2.738A2.741,2.741,0,0,1,304.348,74.706Z" transform="translate(-220.485 122.582)" fill="#1cab8f"/>
      <path id="Path_562" data-name="Path 562" d="M311.526,74.706a2.738,2.738,0,1,1,2.736-2.738A2.737,2.737,0,0,1,311.526,74.706Z" transform="translate(-216.077 122.582)" fill="#1cab8f"/>
      <path id="Path_563" data-name="Path 563" d="M318.706,74.706a2.738,2.738,0,1,1,2.739-2.738A2.735,2.735,0,0,1,318.706,74.706Z" transform="translate(-211.671 122.582)" fill="#1cab8f"/>
      <path id="Path_564" data-name="Path 564" d="M325.893,74.706a2.738,2.738,0,1,1,2.734-2.738A2.739,2.739,0,0,1,325.893,74.706Z" transform="translate(-207.268 122.582)" fill="#1cab8f"/>
      <path id="Path_565" data-name="Path 565" d="M333.073,74.706a2.738,2.738,0,1,1,2.739-2.738A2.743,2.743,0,0,1,333.073,74.706Z" transform="translate(-202.863 122.582)" fill="#1cab8f"/>
      <path id="Path_566" data-name="Path 566" d="M340.258,74.706a2.738,2.738,0,1,1,2.736-2.738A2.737,2.737,0,0,1,340.258,74.706Z" transform="translate(-198.457 122.582)" fill="#1cab8f"/>
      <path id="Path_567" data-name="Path 567" d="M347.436,74.706a2.738,2.738,0,1,1,2.738-2.738A2.73,2.73,0,0,1,347.436,74.706Z" transform="translate(-194.048 122.582)" fill="#1cab8f"/>
      <path id="Path_568" data-name="Path 568" d="M354.621,74.706a2.738,2.738,0,1,1,2.73-2.738A2.732,2.732,0,0,1,354.621,74.706Z" transform="translate(-189.643 122.582)" fill="#1cab8f"/>
      <path id="Path_569" data-name="Path 569" d="M361.809,74.706a2.738,2.738,0,1,1,2.736-2.738A2.741,2.741,0,0,1,361.809,74.706Z" transform="translate(-185.241 122.582)" fill="#1cab8f"/>
      <path id="Path_570" data-name="Path 570" d="M368.988,74.706a2.738,2.738,0,1,1,2.743-2.738A2.736,2.736,0,0,1,368.988,74.706Z" transform="translate(-180.836 122.582)" fill="#1cab8f"/>
      <path id="Path_571" data-name="Path 571" d="M376.173,74.706a2.738,2.738,0,1,1,2.736-2.738A2.737,2.737,0,0,1,376.173,74.706Z" transform="translate(-176.43 122.582)" fill="#1cab8f"/>
      <path id="Path_572" data-name="Path 572" d="M383.353,74.706a2.738,2.738,0,1,1,2.746-2.738A2.735,2.735,0,0,1,383.353,74.706Z" transform="translate(-172.024 122.582)" fill="#1cab8f"/>
      <path id="Path_573" data-name="Path 573" d="M390.542,69.23a2.738,2.738,0,1,1-2.741,2.738A2.734,2.734,0,0,1,390.542,69.23Z" transform="translate(-167.619 122.582)" fill="#1cab8f"/>
      <path id="Path_574" data-name="Path 574" d="M256.249,77.847a2.735,2.735,0,0,1-4.024,2.417l2.735-4.737A2.725,2.725,0,0,1,256.249,77.847Z" transform="translate(-250.768 106.542)" fill="#1cab8f"/>
      <path id="Path_575" data-name="Path 575" d="M261.249,81a2.739,2.739,0,1,1,2.735-2.739A2.742,2.742,0,0,1,261.249,81Z" transform="translate(-246.915 106.124)" fill="#1cab8f"/>
      <path id="Path_576" data-name="Path 576" d="M268.431,81a2.739,2.739,0,1,1,2.738-2.739A2.742,2.742,0,0,1,268.431,81Z" transform="translate(-242.509 106.124)" fill="#1cab8f"/>
      <path id="Path_577" data-name="Path 577" d="M275.617,81a2.739,2.739,0,1,1,2.735-2.739A2.74,2.74,0,0,1,275.617,81Z" transform="translate(-238.104 106.124)" fill="#1cab8f"/>
      <path id="Path_578" data-name="Path 578" d="M282.794,81a2.739,2.739,0,1,1,2.741-2.739A2.734,2.734,0,0,1,282.794,81Z" transform="translate(-233.697 106.124)" fill="#1cab8f"/>
      <path id="Path_579" data-name="Path 579" d="M289.979,81a2.739,2.739,0,1,1,2.743-2.739A2.739,2.739,0,0,1,289.979,81Z" transform="translate(-229.293 106.124)" fill="#1cab8f"/>
      <path id="Path_580" data-name="Path 580" d="M297.163,81a2.739,2.739,0,1,1,2.743-2.739A2.741,2.741,0,0,1,297.163,81Z" transform="translate(-224.889 106.124)" fill="#1cab8f"/>
      <path id="Path_581" data-name="Path 581" d="M304.348,81a2.739,2.739,0,1,1,2.733-2.739A2.742,2.742,0,0,1,304.348,81Z" transform="translate(-220.485 106.124)" fill="#1cab8f"/>
      <path id="Path_582" data-name="Path 582" d="M311.526,81a2.739,2.739,0,1,1,2.736-2.739A2.738,2.738,0,0,1,311.526,81Z" transform="translate(-216.077 106.124)" fill="#1cab8f"/>
      <path id="Path_583" data-name="Path 583" d="M318.706,81a2.739,2.739,0,1,1,2.739-2.739A2.737,2.737,0,0,1,318.706,81Z" transform="translate(-211.671 106.124)" fill="#1cab8f"/>
      <path id="Path_584" data-name="Path 584" d="M325.893,81a2.739,2.739,0,1,1,2.734-2.739A2.74,2.74,0,0,1,325.893,81Z" transform="translate(-207.268 106.124)" fill="#1cab8f"/>
      <path id="Path_585" data-name="Path 585" d="M333.073,81a2.739,2.739,0,1,1,2.739-2.739A2.745,2.745,0,0,1,333.073,81Z" transform="translate(-202.863 106.124)" fill="#1cab8f"/>
      <path id="Path_586" data-name="Path 586" d="M340.258,81a2.739,2.739,0,1,1,2.736-2.739A2.739,2.739,0,0,1,340.258,81Z" transform="translate(-198.457 106.124)" fill="#1cab8f"/>
      <path id="Path_587" data-name="Path 587" d="M347.436,81a2.739,2.739,0,1,1,2.738-2.739A2.731,2.731,0,0,1,347.436,81Z" transform="translate(-194.048 106.124)" fill="#1cab8f"/>
      <path id="Path_588" data-name="Path 588" d="M354.621,81a2.739,2.739,0,1,1,2.73-2.739A2.733,2.733,0,0,1,354.621,81Z" transform="translate(-189.643 106.124)" fill="#1cab8f"/>
      <path id="Path_589" data-name="Path 589" d="M361.809,81a2.739,2.739,0,1,1,2.736-2.739A2.742,2.742,0,0,1,361.809,81Z" transform="translate(-185.241 106.124)" fill="#1cab8f"/>
      <path id="Path_590" data-name="Path 590" d="M368.988,81a2.739,2.739,0,1,1,2.743-2.739A2.738,2.738,0,0,1,368.988,81Z" transform="translate(-180.836 106.124)" fill="#1cab8f"/>
      <path id="Path_591" data-name="Path 591" d="M376.173,81a2.739,2.739,0,1,1,2.736-2.739A2.738,2.738,0,0,1,376.173,81Z" transform="translate(-176.43 106.124)" fill="#1cab8f"/>
      <path id="Path_592" data-name="Path 592" d="M383.353,81a2.739,2.739,0,1,1,2.746-2.739A2.737,2.737,0,0,1,383.353,81Z" transform="translate(-172.024 106.124)" fill="#1cab8f"/>
      <path id="Path_593" data-name="Path 593" d="M390.542,80.586a2.736,2.736,0,0,1-1.45-5.059l2.738,4.738A2.748,2.748,0,0,1,390.542,80.586Z" transform="translate(-167.619 106.542)" fill="#1cab8f"/>
      <path id="Path_594" data-name="Path 594" d="M261.249,87.3a2.737,2.737,0,1,1,2.735-2.735A2.74,2.74,0,0,1,261.249,87.3Z" transform="translate(-246.915 89.669)" fill="#1cab8f"/>
      <path id="Path_595" data-name="Path 595" d="M268.431,87.3a2.737,2.737,0,1,1,2.738-2.735A2.74,2.74,0,0,1,268.431,87.3Z" transform="translate(-242.509 89.669)" fill="#1cab8f"/>
      <path id="Path_596" data-name="Path 596" d="M275.617,87.3a2.737,2.737,0,1,1,2.735-2.735A2.738,2.738,0,0,1,275.617,87.3Z" transform="translate(-238.104 89.669)" fill="#1cab8f"/>
      <path id="Path_597" data-name="Path 597" d="M282.794,87.3a2.737,2.737,0,1,1,2.741-2.735A2.732,2.732,0,0,1,282.794,87.3Z" transform="translate(-233.697 89.669)" fill="#1cab8f"/>
      <path id="Path_598" data-name="Path 598" d="M289.979,87.3a2.737,2.737,0,1,1,2.743-2.735A2.737,2.737,0,0,1,289.979,87.3Z" transform="translate(-229.293 89.669)" fill="#1cab8f"/>
      <path id="Path_599" data-name="Path 599" d="M297.163,87.3a2.737,2.737,0,1,1,2.743-2.735A2.739,2.739,0,0,1,297.163,87.3Z" transform="translate(-224.889 89.669)" fill="#1cab8f"/>
      <path id="Path_600" data-name="Path 600" d="M304.348,87.3a2.737,2.737,0,1,1,2.733-2.735A2.74,2.74,0,0,1,304.348,87.3Z" transform="translate(-220.485 89.669)" fill="#1cab8f"/>
      <path id="Path_601" data-name="Path 601" d="M311.526,87.3a2.737,2.737,0,1,1,2.736-2.735A2.736,2.736,0,0,1,311.526,87.3Z" transform="translate(-216.077 89.669)" fill="#1cab8f"/>
      <path id="Path_602" data-name="Path 602" d="M318.706,87.3a2.737,2.737,0,1,1,2.739-2.735A2.734,2.734,0,0,1,318.706,87.3Z" transform="translate(-211.671 89.669)" fill="#1cab8f"/>
      <path id="Path_603" data-name="Path 603" d="M325.893,87.3a2.737,2.737,0,1,1,2.734-2.735A2.738,2.738,0,0,1,325.893,87.3Z" transform="translate(-207.268 89.669)" fill="#1cab8f"/>
      <path id="Path_604" data-name="Path 604" d="M333.073,87.3a2.737,2.737,0,1,1,2.739-2.735A2.743,2.743,0,0,1,333.073,87.3Z" transform="translate(-202.863 89.669)" fill="#1cab8f"/>
      <path id="Path_605" data-name="Path 605" d="M340.258,87.3a2.737,2.737,0,1,1,2.736-2.735A2.737,2.737,0,0,1,340.258,87.3Z" transform="translate(-198.457 89.669)" fill="#1cab8f"/>
      <path id="Path_606" data-name="Path 606" d="M347.436,87.3a2.737,2.737,0,1,1,2.738-2.735A2.729,2.729,0,0,1,347.436,87.3Z" transform="translate(-194.048 89.669)" fill="#1cab8f"/>
      <path id="Path_607" data-name="Path 607" d="M354.621,87.3a2.737,2.737,0,1,1,2.73-2.735A2.731,2.731,0,0,1,354.621,87.3Z" transform="translate(-189.643 89.669)" fill="#1cab8f"/>
      <path id="Path_608" data-name="Path 608" d="M361.809,87.3a2.737,2.737,0,1,1,2.736-2.735A2.74,2.74,0,0,1,361.809,87.3Z" transform="translate(-185.241 89.669)" fill="#1cab8f"/>
      <path id="Path_609" data-name="Path 609" d="M368.988,87.3a2.737,2.737,0,1,1,2.743-2.735A2.736,2.736,0,0,1,368.988,87.3Z" transform="translate(-180.836 89.669)" fill="#1cab8f"/>
      <path id="Path_610" data-name="Path 610" d="M376.173,87.3a2.737,2.737,0,1,1,2.736-2.735A2.736,2.736,0,0,1,376.173,87.3Z" transform="translate(-176.43 89.669)" fill="#1cab8f"/>
      <path id="Path_611" data-name="Path 611" d="M383.353,87.3a2.737,2.737,0,1,1,2.746-2.735A2.735,2.735,0,0,1,383.353,87.3Z" transform="translate(-172.024 89.669)" fill="#1cab8f"/>
      <path id="Path_612" data-name="Path 612" d="M263.389,90.377a2.737,2.737,0,0,1-2.735,2.739,2.7,2.7,0,0,1-1.178-.273L262.2,88.12A2.724,2.724,0,0,1,263.389,90.377Z" transform="translate(-246.321 73.695)" fill="#1cab8f"/>
      <path id="Path_613" data-name="Path 613" d="M268.431,93.6a2.739,2.739,0,1,1,2.738-2.739A2.743,2.743,0,0,1,268.431,93.6Z" transform="translate(-242.509 73.215)" fill="#1cab8f"/>
      <path id="Path_614" data-name="Path 614" d="M275.617,93.6a2.739,2.739,0,1,1,2.735-2.739A2.741,2.741,0,0,1,275.617,93.6Z" transform="translate(-238.104 73.215)" fill="#1cab8f"/>
      <path id="Path_615" data-name="Path 615" d="M282.794,93.6a2.739,2.739,0,1,1,2.741-2.739A2.735,2.735,0,0,1,282.794,93.6Z" transform="translate(-233.697 73.215)" fill="#1cab8f"/>
      <path id="Path_616" data-name="Path 616" d="M289.979,93.6a2.739,2.739,0,1,1,2.743-2.739A2.74,2.74,0,0,1,289.979,93.6Z" transform="translate(-229.293 73.215)" fill="#1cab8f"/>
      <path id="Path_617" data-name="Path 617" d="M297.163,93.6a2.739,2.739,0,1,1,2.743-2.739A2.742,2.742,0,0,1,297.163,93.6Z" transform="translate(-224.889 73.215)" fill="#1cab8f"/>
      <path id="Path_618" data-name="Path 618" d="M304.348,93.6a2.739,2.739,0,1,1,2.733-2.739A2.743,2.743,0,0,1,304.348,93.6Z" transform="translate(-220.485 73.215)" fill="#1cab8f"/>
      <path id="Path_619" data-name="Path 619" d="M311.526,93.6a2.739,2.739,0,1,1,2.736-2.739A2.739,2.739,0,0,1,311.526,93.6Z" transform="translate(-216.077 73.215)" fill="#1cab8f"/>
      <path id="Path_620" data-name="Path 620" d="M318.706,93.6a2.739,2.739,0,1,1,2.739-2.739A2.738,2.738,0,0,1,318.706,93.6Z" transform="translate(-211.671 73.215)" fill="#1cab8f"/>
      <path id="Path_621" data-name="Path 621" d="M325.893,93.6a2.739,2.739,0,1,1,2.734-2.739A2.741,2.741,0,0,1,325.893,93.6Z" transform="translate(-207.268 73.215)" fill="#1cab8f"/>
      <path id="Path_622" data-name="Path 622" d="M333.073,93.6a2.739,2.739,0,1,1,2.739-2.739A2.746,2.746,0,0,1,333.073,93.6Z" transform="translate(-202.863 73.215)" fill="#1cab8f"/>
      <path id="Path_623" data-name="Path 623" d="M340.258,93.6a2.739,2.739,0,1,1,2.736-2.739A2.74,2.74,0,0,1,340.258,93.6Z" transform="translate(-198.457 73.215)" fill="#1cab8f"/>
      <path id="Path_624" data-name="Path 624" d="M347.436,93.6a2.739,2.739,0,1,1,2.738-2.739A2.732,2.732,0,0,1,347.436,93.6Z" transform="translate(-194.048 73.215)" fill="#1cab8f"/>
      <path id="Path_625" data-name="Path 625" d="M354.621,93.6a2.739,2.739,0,1,1,2.73-2.739A2.734,2.734,0,0,1,354.621,93.6Z" transform="translate(-189.643 73.215)" fill="#1cab8f"/>
      <path id="Path_626" data-name="Path 626" d="M361.809,93.6a2.739,2.739,0,1,1,2.736-2.739A2.743,2.743,0,0,1,361.809,93.6Z" transform="translate(-185.241 73.215)" fill="#1cab8f"/>
      <path id="Path_627" data-name="Path 627" d="M368.988,93.6a2.739,2.739,0,1,1,2.743-2.739A2.739,2.739,0,0,1,368.988,93.6Z" transform="translate(-180.836 73.215)" fill="#1cab8f"/>
      <path id="Path_628" data-name="Path 628" d="M376.173,93.6a2.739,2.739,0,1,1,2.736-2.739A2.739,2.739,0,0,1,376.173,93.6Z" transform="translate(-176.43 73.215)" fill="#1cab8f"/>
      <path id="Path_629" data-name="Path 629" d="M380.618,90.377A2.74,2.74,0,0,1,381.8,88.12l2.736,4.725a2.732,2.732,0,0,1-3.919-2.468Z" transform="translate(-172.024 73.695)" fill="#1cab8f"/>
      <path id="Path_630" data-name="Path 630" d="M268.431,99.9a2.739,2.739,0,1,1,2.738-2.741A2.744,2.744,0,0,1,268.431,99.9Z" transform="translate(-242.509 56.757)" fill="#1cab8f"/>
      <path id="Path_631" data-name="Path 631" d="M275.617,99.9a2.739,2.739,0,1,1,2.735-2.741A2.742,2.742,0,0,1,275.617,99.9Z" transform="translate(-238.104 56.757)" fill="#1cab8f"/>
      <path id="Path_632" data-name="Path 632" d="M282.794,99.9a2.739,2.739,0,1,1,2.741-2.741A2.736,2.736,0,0,1,282.794,99.9Z" transform="translate(-233.697 56.757)" fill="#1cab8f"/>
      <path id="Path_633" data-name="Path 633" d="M289.979,99.9a2.739,2.739,0,1,1,2.743-2.741A2.741,2.741,0,0,1,289.979,99.9Z" transform="translate(-229.293 56.757)" fill="#1cab8f"/>
      <path id="Path_634" data-name="Path 634" d="M297.163,99.9a2.739,2.739,0,1,1,2.743-2.741A2.744,2.744,0,0,1,297.163,99.9Z" transform="translate(-224.889 56.757)" fill="#1cab8f"/>
      <path id="Path_635" data-name="Path 635" d="M304.348,99.9a2.739,2.739,0,1,1,2.733-2.741A2.745,2.745,0,0,1,304.348,99.9Z" transform="translate(-220.485 56.757)" fill="#1cab8f"/>
      <path id="Path_636" data-name="Path 636" d="M311.526,99.9a2.739,2.739,0,1,1,2.736-2.741A2.741,2.741,0,0,1,311.526,99.9Z" transform="translate(-216.077 56.757)" fill="#1cab8f"/>
      <path id="Path_637" data-name="Path 637" d="M318.706,99.9a2.739,2.739,0,1,1,2.739-2.741A2.739,2.739,0,0,1,318.706,99.9Z" transform="translate(-211.671 56.757)" fill="#1cab8f"/>
      <path id="Path_638" data-name="Path 638" d="M325.893,99.9a2.739,2.739,0,1,1,2.734-2.741A2.743,2.743,0,0,1,325.893,99.9Z" transform="translate(-207.268 56.757)" fill="#1cab8f"/>
      <path id="Path_639" data-name="Path 639" d="M333.073,99.9a2.739,2.739,0,1,1,2.739-2.741A2.747,2.747,0,0,1,333.073,99.9Z" transform="translate(-202.863 56.757)" fill="#1cab8f"/>
      <path id="Path_640" data-name="Path 640" d="M340.258,99.9a2.739,2.739,0,1,1,2.736-2.741A2.741,2.741,0,0,1,340.258,99.9Z" transform="translate(-198.457 56.757)" fill="#1cab8f"/>
      <path id="Path_641" data-name="Path 641" d="M347.436,99.9a2.739,2.739,0,1,1,2.738-2.741A2.734,2.734,0,0,1,347.436,99.9Z" transform="translate(-194.048 56.757)" fill="#1cab8f"/>
      <path id="Path_642" data-name="Path 642" d="M354.621,99.9a2.739,2.739,0,1,1,2.73-2.741A2.736,2.736,0,0,1,354.621,99.9Z" transform="translate(-189.643 56.757)" fill="#1cab8f"/>
      <path id="Path_643" data-name="Path 643" d="M361.809,99.9a2.739,2.739,0,1,1,2.736-2.741A2.745,2.745,0,0,1,361.809,99.9Z" transform="translate(-185.241 56.757)" fill="#1cab8f"/>
      <path id="Path_644" data-name="Path 644" d="M368.988,99.9a2.739,2.739,0,1,1,2.743-2.741A2.74,2.74,0,0,1,368.988,99.9Z" transform="translate(-180.836 56.757)" fill="#1cab8f"/>
      <path id="Path_645" data-name="Path 645" d="M376.173,99.9a2.739,2.739,0,1,1,2.736-2.741A2.74,2.74,0,0,1,376.173,99.9Z" transform="translate(-176.43 56.757)" fill="#1cab8f"/>
      <path id="Path_646" data-name="Path 646" d="M270.534,102.9a2.736,2.736,0,0,1-2.738,2.736,2.774,2.774,0,0,1-1.07-.211l2.718-4.7A2.721,2.721,0,0,1,270.534,102.9Z" transform="translate(-241.874 40.856)" fill="#1cab8f"/>
      <path id="Path_647" data-name="Path 647" d="M275.617,106.189a2.736,2.736,0,1,1,2.735-2.736A2.737,2.737,0,0,1,275.617,106.189Z" transform="translate(-238.104 40.3)" fill="#1cab8f"/>
      <path id="Path_648" data-name="Path 648" d="M282.794,106.189a2.736,2.736,0,1,1,2.741-2.736A2.731,2.731,0,0,1,282.794,106.189Z" transform="translate(-233.697 40.3)" fill="#1cab8f"/>
      <path id="Path_649" data-name="Path 649" d="M289.979,106.189a2.736,2.736,0,1,1,2.743-2.736A2.736,2.736,0,0,1,289.979,106.189Z" transform="translate(-229.293 40.3)" fill="#1cab8f"/>
      <path id="Path_650" data-name="Path 650" d="M297.163,106.189a2.736,2.736,0,1,1,2.743-2.736A2.739,2.739,0,0,1,297.163,106.189Z" transform="translate(-224.889 40.3)" fill="#1cab8f"/>
      <path id="Path_651" data-name="Path 651" d="M304.348,106.189a2.736,2.736,0,1,1,2.733-2.736A2.74,2.74,0,0,1,304.348,106.189Z" transform="translate(-220.485 40.3)" fill="#1cab8f"/>
      <path id="Path_652" data-name="Path 652" d="M311.526,106.189a2.736,2.736,0,1,1,2.736-2.736A2.735,2.735,0,0,1,311.526,106.189Z" transform="translate(-216.077 40.3)" fill="#1cab8f"/>
      <path id="Path_653" data-name="Path 653" d="M318.706,106.189a2.736,2.736,0,1,1,2.739-2.736A2.734,2.734,0,0,1,318.706,106.189Z" transform="translate(-211.671 40.3)" fill="#1cab8f"/>
      <path id="Path_654" data-name="Path 654" d="M325.893,106.189a2.736,2.736,0,1,1,2.734-2.736A2.738,2.738,0,0,1,325.893,106.189Z" transform="translate(-207.268 40.3)" fill="#1cab8f"/>
      <path id="Path_655" data-name="Path 655" d="M333.073,106.189a2.736,2.736,0,1,1,2.739-2.736A2.742,2.742,0,0,1,333.073,106.189Z" transform="translate(-202.863 40.3)" fill="#1cab8f"/>
      <path id="Path_656" data-name="Path 656" d="M340.258,106.189a2.736,2.736,0,1,1,2.736-2.736A2.736,2.736,0,0,1,340.258,106.189Z" transform="translate(-198.457 40.3)" fill="#1cab8f"/>
      <path id="Path_657" data-name="Path 657" d="M347.436,106.189a2.736,2.736,0,1,1,2.738-2.736A2.729,2.729,0,0,1,347.436,106.189Z" transform="translate(-194.048 40.3)" fill="#1cab8f"/>
      <path id="Path_658" data-name="Path 658" d="M354.621,106.189a2.736,2.736,0,1,1,2.73-2.736A2.73,2.73,0,0,1,354.621,106.189Z" transform="translate(-189.643 40.3)" fill="#1cab8f"/>
      <path id="Path_659" data-name="Path 659" d="M361.809,106.189a2.736,2.736,0,1,1,2.736-2.736A2.74,2.74,0,0,1,361.809,106.189Z" transform="translate(-185.241 40.3)" fill="#1cab8f"/>
      <path id="Path_660" data-name="Path 660" d="M368.988,106.189a2.736,2.736,0,1,1,2.743-2.736A2.735,2.735,0,0,1,368.988,106.189Z" transform="translate(-180.836 40.3)" fill="#1cab8f"/>
      <path id="Path_661" data-name="Path 661" d="M373.434,102.9a2.724,2.724,0,0,1,1.087-2.18l2.712,4.7a2.743,2.743,0,0,1-3.8-2.525Z" transform="translate(-176.43 40.856)" fill="#1cab8f"/>
      <path id="Path_662" data-name="Path 662" d="M275.617,112.484a2.736,2.736,0,1,1,2.735-2.739A2.74,2.74,0,0,1,275.617,112.484Z" transform="translate(-238.104 23.849)" fill="#1cab8f"/>
      <path id="Path_663" data-name="Path 663" d="M282.794,112.484a2.736,2.736,0,1,1,2.741-2.739A2.734,2.734,0,0,1,282.794,112.484Z" transform="translate(-233.697 23.849)" fill="#1cab8f"/>
      <path id="Path_664" data-name="Path 664" d="M289.979,112.484a2.736,2.736,0,1,1,2.743-2.739A2.739,2.739,0,0,1,289.979,112.484Z" transform="translate(-229.293 23.849)" fill="#1cab8f"/>
      <path id="Path_665" data-name="Path 665" d="M297.163,112.484a2.736,2.736,0,1,1,2.743-2.739A2.741,2.741,0,0,1,297.163,112.484Z" transform="translate(-224.889 23.849)" fill="#1cab8f"/>
      <path id="Path_666" data-name="Path 666" d="M304.348,112.484a2.736,2.736,0,1,1,2.733-2.739A2.742,2.742,0,0,1,304.348,112.484Z" transform="translate(-220.485 23.849)" fill="#1cab8f"/>
      <path id="Path_667" data-name="Path 667" d="M311.526,112.484a2.736,2.736,0,1,1,2.736-2.739A2.738,2.738,0,0,1,311.526,112.484Z" transform="translate(-216.077 23.849)" fill="#1cab8f"/>
      <path id="Path_668" data-name="Path 668" d="M318.706,112.484a2.736,2.736,0,1,1,2.739-2.739A2.737,2.737,0,0,1,318.706,112.484Z" transform="translate(-211.671 23.849)" fill="#1cab8f"/>
      <path id="Path_669" data-name="Path 669" d="M325.893,112.484a2.736,2.736,0,1,1,2.734-2.739A2.74,2.74,0,0,1,325.893,112.484Z" transform="translate(-207.268 23.849)" fill="#1cab8f"/>
      <path id="Path_670" data-name="Path 670" d="M333.073,112.484a2.736,2.736,0,1,1,2.739-2.739A2.745,2.745,0,0,1,333.073,112.484Z" transform="translate(-202.863 23.849)" fill="#1cab8f"/>
      <path id="Path_671" data-name="Path 671" d="M340.258,112.484a2.736,2.736,0,1,1,2.736-2.739A2.739,2.739,0,0,1,340.258,112.484Z" transform="translate(-198.457 23.849)" fill="#1cab8f"/>
      <path id="Path_672" data-name="Path 672" d="M347.436,112.484a2.736,2.736,0,1,1,2.738-2.739A2.731,2.731,0,0,1,347.436,112.484Z" transform="translate(-194.048 23.849)" fill="#1cab8f"/>
      <path id="Path_673" data-name="Path 673" d="M354.621,112.484a2.736,2.736,0,1,1,2.73-2.739A2.733,2.733,0,0,1,354.621,112.484Z" transform="translate(-189.643 23.849)" fill="#1cab8f"/>
      <path id="Path_674" data-name="Path 674" d="M361.809,112.484a2.736,2.736,0,1,1,2.736-2.739A2.742,2.742,0,0,1,361.809,112.484Z" transform="translate(-185.241 23.849)" fill="#1cab8f"/>
      <path id="Path_675" data-name="Path 675" d="M368.988,112.484a2.736,2.736,0,1,1,2.743-2.739A2.738,2.738,0,0,1,368.988,112.484Z" transform="translate(-180.836 23.849)" fill="#1cab8f"/>
      <path id="Path_676" data-name="Path 676" d="M277.672,115.419a2.741,2.741,0,0,1-3.69,2.567l2.7-4.675A2.727,2.727,0,0,1,277.672,115.419Z" transform="translate(-237.425 8.018)" fill="#1cab8f"/>
      <path id="Path_677" data-name="Path 677" d="M282.794,118.786a2.738,2.738,0,1,1,2.741-2.736A2.732,2.732,0,0,1,282.794,118.786Z" transform="translate(-233.697 7.387)" fill="#1cab8f"/>
      <path id="Path_678" data-name="Path 678" d="M289.979,118.786a2.738,2.738,0,1,1,2.743-2.736A2.737,2.737,0,0,1,289.979,118.786Z" transform="translate(-229.293 7.387)" fill="#1cab8f"/>
      <path id="Path_679" data-name="Path 679" d="M297.163,118.786a2.738,2.738,0,1,1,2.743-2.736A2.74,2.74,0,0,1,297.163,118.786Z" transform="translate(-224.889 7.387)" fill="#1cab8f"/>
      <path id="Path_680" data-name="Path 680" d="M304.348,118.786a2.738,2.738,0,1,1,2.733-2.736A2.741,2.741,0,0,1,304.348,118.786Z" transform="translate(-220.485 7.387)" fill="#1cab8f"/>
      <path id="Path_681" data-name="Path 681" d="M311.526,118.786a2.738,2.738,0,1,1,2.736-2.736A2.736,2.736,0,0,1,311.526,118.786Z" transform="translate(-216.077 7.387)" fill="#1cab8f"/>
      <path id="Path_682" data-name="Path 682" d="M318.706,118.786a2.738,2.738,0,1,1,2.739-2.736A2.735,2.735,0,0,1,318.706,118.786Z" transform="translate(-211.671 7.387)" fill="#1cab8f"/>
      <path id="Path_683" data-name="Path 683" d="M325.893,118.786a2.738,2.738,0,1,1,2.734-2.736A2.739,2.739,0,0,1,325.893,118.786Z" transform="translate(-207.268 7.387)" fill="#1cab8f"/>
      <path id="Path_684" data-name="Path 684" d="M333.073,118.786a2.738,2.738,0,1,1,2.739-2.736A2.743,2.743,0,0,1,333.073,118.786Z" transform="translate(-202.863 7.387)" fill="#1cab8f"/>
      <path id="Path_685" data-name="Path 685" d="M340.258,118.786a2.738,2.738,0,1,1,2.736-2.736A2.737,2.737,0,0,1,340.258,118.786Z" transform="translate(-198.457 7.387)" fill="#1cab8f"/>
      <path id="Path_686" data-name="Path 686" d="M347.436,118.786a2.738,2.738,0,1,1,2.738-2.736A2.73,2.73,0,0,1,347.436,118.786Z" transform="translate(-194.048 7.387)" fill="#1cab8f"/>
      <path id="Path_687" data-name="Path 687" d="M354.621,118.786a2.738,2.738,0,1,1,2.73-2.736A2.731,2.731,0,0,1,354.621,118.786Z" transform="translate(-189.643 7.387)" fill="#1cab8f"/>
      <path id="Path_688" data-name="Path 688" d="M361.809,118.786a2.738,2.738,0,1,1,2.736-2.736A2.741,2.741,0,0,1,361.809,118.786Z" transform="translate(-185.241 7.387)" fill="#1cab8f"/>
      <path id="Path_689" data-name="Path 689" d="M366.25,115.419a2.738,2.738,0,0,1,.991-2.109l2.7,4.675a2.764,2.764,0,0,1-.95.169A2.736,2.736,0,0,1,366.25,115.419Z" transform="translate(-180.836 8.018)" fill="#1cab8f"/>
      <path id="Path_690" data-name="Path 690" d="M282.794,125.082a2.739,2.739,0,1,1,2.741-2.739A2.735,2.735,0,0,1,282.794,125.082Z" transform="translate(-233.697 -9.065)" fill="#1cab8f"/>
      <path id="Path_691" data-name="Path 691" d="M289.979,125.082a2.739,2.739,0,1,1,2.743-2.739A2.74,2.74,0,0,1,289.979,125.082Z" transform="translate(-229.293 -9.065)" fill="#1cab8f"/>
      <path id="Path_692" data-name="Path 692" d="M297.163,125.082a2.739,2.739,0,1,1,2.743-2.739A2.742,2.742,0,0,1,297.163,125.082Z" transform="translate(-224.889 -9.065)" fill="#1cab8f"/>
      <path id="Path_693" data-name="Path 693" d="M304.348,125.082a2.739,2.739,0,1,1,2.733-2.739A2.743,2.743,0,0,1,304.348,125.082Z" transform="translate(-220.485 -9.065)" fill="#1cab8f"/>
      <path id="Path_694" data-name="Path 694" d="M311.526,125.082a2.739,2.739,0,1,1,2.736-2.739A2.739,2.739,0,0,1,311.526,125.082Z" transform="translate(-216.077 -9.065)" fill="#1cab8f"/>
      <path id="Path_695" data-name="Path 695" d="M318.706,125.082a2.739,2.739,0,1,1,2.739-2.739A2.738,2.738,0,0,1,318.706,125.082Z" transform="translate(-211.671 -9.065)" fill="#1cab8f"/>
      <path id="Path_696" data-name="Path 696" d="M325.893,125.082a2.739,2.739,0,1,1,2.734-2.739A2.741,2.741,0,0,1,325.893,125.082Z" transform="translate(-207.268 -9.065)" fill="#1cab8f"/>
      <path id="Path_697" data-name="Path 697" d="M333.073,125.082a2.739,2.739,0,1,1,2.739-2.739A2.746,2.746,0,0,1,333.073,125.082Z" transform="translate(-202.863 -9.065)" fill="#1cab8f"/>
      <path id="Path_698" data-name="Path 698" d="M340.258,125.082a2.739,2.739,0,1,1,2.736-2.739A2.74,2.74,0,0,1,340.258,125.082Z" transform="translate(-198.457 -9.065)" fill="#1cab8f"/>
      <path id="Path_699" data-name="Path 699" d="M347.436,125.082a2.739,2.739,0,1,1,2.738-2.739A2.732,2.732,0,0,1,347.436,125.082Z" transform="translate(-194.048 -9.065)" fill="#1cab8f"/>
      <path id="Path_700" data-name="Path 700" d="M354.621,125.082a2.739,2.739,0,1,1,2.73-2.739A2.734,2.734,0,0,1,354.621,125.082Z" transform="translate(-189.643 -9.065)" fill="#1cab8f"/>
      <path id="Path_701" data-name="Path 701" d="M361.809,125.082a2.739,2.739,0,1,1,2.736-2.739A2.743,2.743,0,0,1,361.809,125.082Z" transform="translate(-185.241 -9.065)" fill="#1cab8f"/>
      <path id="Path_702" data-name="Path 702" d="M284.813,127.926a2.741,2.741,0,0,1-2.741,2.741,2.808,2.808,0,0,1-.836-.129l2.683-4.635A2.739,2.739,0,0,1,284.813,127.926Z" transform="translate(-232.976 -24.81)" fill="#1cab8f"/>
      <path id="Path_703" data-name="Path 703" d="M289.979,131.382a2.739,2.739,0,1,1,2.743-2.741A2.739,2.739,0,0,1,289.979,131.382Z" transform="translate(-229.293 -25.525)" fill="#1cab8f"/>
      <path id="Path_704" data-name="Path 704" d="M297.163,131.382a2.739,2.739,0,1,1,2.743-2.741A2.742,2.742,0,0,1,297.163,131.382Z" transform="translate(-224.889 -25.525)" fill="#1cab8f"/>
      <path id="Path_705" data-name="Path 705" d="M304.348,131.382a2.739,2.739,0,1,1,2.733-2.741A2.743,2.743,0,0,1,304.348,131.382Z" transform="translate(-220.485 -25.525)" fill="#1cab8f"/>
      <path id="Path_706" data-name="Path 706" d="M311.526,131.382a2.739,2.739,0,1,1,2.736-2.741A2.739,2.739,0,0,1,311.526,131.382Z" transform="translate(-216.077 -25.525)" fill="#1cab8f"/>
      <path id="Path_707" data-name="Path 707" d="M318.706,131.382a2.739,2.739,0,1,1,2.739-2.741A2.737,2.737,0,0,1,318.706,131.382Z" transform="translate(-211.671 -25.525)" fill="#1cab8f"/>
      <path id="Path_708" data-name="Path 708" d="M325.893,131.382a2.739,2.739,0,1,1,2.734-2.741A2.741,2.741,0,0,1,325.893,131.382Z" transform="translate(-207.268 -25.525)" fill="#1cab8f"/>
      <path id="Path_709" data-name="Path 709" d="M333.073,131.382a2.739,2.739,0,1,1,2.739-2.741A2.745,2.745,0,0,1,333.073,131.382Z" transform="translate(-202.863 -25.525)" fill="#1cab8f"/>
      <path id="Path_710" data-name="Path 710" d="M340.258,131.382a2.739,2.739,0,1,1,2.736-2.741A2.739,2.739,0,0,1,340.258,131.382Z" transform="translate(-198.457 -25.525)" fill="#1cab8f"/>
      <path id="Path_711" data-name="Path 711" d="M347.436,131.382a2.739,2.739,0,1,1,2.738-2.741A2.732,2.732,0,0,1,347.436,131.382Z" transform="translate(-194.048 -25.525)" fill="#1cab8f"/>
      <path id="Path_712" data-name="Path 712" d="M354.621,131.382a2.739,2.739,0,1,1,2.73-2.741A2.733,2.733,0,0,1,354.621,131.382Z" transform="translate(-189.643 -25.525)" fill="#1cab8f"/>
      <path id="Path_713" data-name="Path 713" d="M359.068,127.926a2.751,2.751,0,0,1,.894-2.023l2.676,4.635a2.739,2.739,0,0,1-3.57-2.612Z" transform="translate(-185.241 -24.81)" fill="#1cab8f"/>
      <path id="Path_714" data-name="Path 714" d="M289.979,137.676a2.737,2.737,0,1,1,2.743-2.736A2.737,2.737,0,0,1,289.979,137.676Z" transform="translate(-229.293 -41.981)" fill="#1cab8f"/>
      <path id="Path_715" data-name="Path 715" d="M297.163,137.676a2.737,2.737,0,1,1,2.743-2.736A2.74,2.74,0,0,1,297.163,137.676Z" transform="translate(-224.889 -41.981)" fill="#1cab8f"/>
      <path id="Path_716" data-name="Path 716" d="M304.348,137.676a2.737,2.737,0,1,1,2.733-2.736A2.741,2.741,0,0,1,304.348,137.676Z" transform="translate(-220.485 -41.981)" fill="#1cab8f"/>
      <path id="Path_717" data-name="Path 717" d="M311.526,137.676a2.737,2.737,0,1,1,2.736-2.736A2.736,2.736,0,0,1,311.526,137.676Z" transform="translate(-216.077 -41.981)" fill="#1cab8f"/>
      <path id="Path_718" data-name="Path 718" d="M318.706,137.676a2.737,2.737,0,1,1,2.739-2.736A2.735,2.735,0,0,1,318.706,137.676Z" transform="translate(-211.671 -41.981)" fill="#1cab8f"/>
      <path id="Path_719" data-name="Path 719" d="M325.893,137.676a2.737,2.737,0,1,1,2.734-2.736A2.739,2.739,0,0,1,325.893,137.676Z" transform="translate(-207.268 -41.981)" fill="#1cab8f"/>
      <path id="Path_720" data-name="Path 720" d="M333.073,137.676a2.737,2.737,0,1,1,2.739-2.736A2.743,2.743,0,0,1,333.073,137.676Z" transform="translate(-202.863 -41.981)" fill="#1cab8f"/>
      <path id="Path_721" data-name="Path 721" d="M340.258,137.676a2.737,2.737,0,1,1,2.736-2.736A2.737,2.737,0,0,1,340.258,137.676Z" transform="translate(-198.457 -41.981)" fill="#1cab8f"/>
      <path id="Path_722" data-name="Path 722" d="M347.436,137.676a2.737,2.737,0,1,1,2.738-2.736A2.73,2.73,0,0,1,347.436,137.676Z" transform="translate(-194.048 -41.981)" fill="#1cab8f"/>
      <path id="Path_723" data-name="Path 723" d="M354.621,137.676a2.737,2.737,0,1,1,2.73-2.736A2.731,2.731,0,0,1,354.621,137.676Z" transform="translate(-189.643 -41.981)" fill="#1cab8f"/>
      <path id="Path_724" data-name="Path 724" d="M291.95,140.434a2.746,2.746,0,0,1-2.743,2.739,2.591,2.591,0,0,1-.708-.1l2.643-4.575A2.728,2.728,0,0,1,291.95,140.434Z" transform="translate(-228.521 -57.633)" fill="#1cab8f"/>
      <path id="Path_725" data-name="Path 725" d="M297.163,143.973a2.739,2.739,0,1,1,2.743-2.739A2.743,2.743,0,0,1,297.163,143.973Z" transform="translate(-224.889 -58.433)" fill="#1cab8f"/>
      <path id="Path_726" data-name="Path 726" d="M304.348,143.973a2.739,2.739,0,1,1,2.733-2.739A2.744,2.744,0,0,1,304.348,143.973Z" transform="translate(-220.485 -58.433)" fill="#1cab8f"/>
      <path id="Path_727" data-name="Path 727" d="M311.526,143.973a2.739,2.739,0,1,1,2.736-2.739A2.74,2.74,0,0,1,311.526,143.973Z" transform="translate(-216.077 -58.433)" fill="#1cab8f"/>
      <path id="Path_728" data-name="Path 728" d="M318.706,143.973a2.739,2.739,0,1,1,2.739-2.739A2.739,2.739,0,0,1,318.706,143.973Z" transform="translate(-211.671 -58.433)" fill="#1cab8f"/>
      <path id="Path_729" data-name="Path 729" d="M325.893,143.973a2.739,2.739,0,1,1,2.734-2.739A2.742,2.742,0,0,1,325.893,143.973Z" transform="translate(-207.268 -58.433)" fill="#1cab8f"/>
      <path id="Path_730" data-name="Path 730" d="M333.073,143.973a2.739,2.739,0,1,1,2.739-2.739A2.747,2.747,0,0,1,333.073,143.973Z" transform="translate(-202.863 -58.433)" fill="#1cab8f"/>
      <path id="Path_731" data-name="Path 731" d="M340.258,143.973a2.739,2.739,0,1,1,2.736-2.739A2.741,2.741,0,0,1,340.258,143.973Z" transform="translate(-198.457 -58.433)" fill="#1cab8f"/>
      <path id="Path_732" data-name="Path 732" d="M347.436,143.973a2.739,2.739,0,1,1,2.738-2.739A2.733,2.733,0,0,1,347.436,143.973Z" transform="translate(-194.048 -58.433)" fill="#1cab8f"/>
      <path id="Path_733" data-name="Path 733" d="M351.89,140.434a2.713,2.713,0,0,1,.8-1.938l2.636,4.575a2.576,2.576,0,0,1-.7.1A2.735,2.735,0,0,1,351.89,140.434Z" transform="translate(-189.643 -57.633)" fill="#1cab8f"/>
      <path id="Path_734" data-name="Path 734" d="M297.163,150.272a2.74,2.74,0,1,1,2.743-2.739A2.744,2.744,0,0,1,297.163,150.272Z" transform="translate(-224.889 -74.889)" fill="#1cab8f"/>
      <path id="Path_735" data-name="Path 735" d="M304.348,150.272a2.74,2.74,0,1,1,2.733-2.739A2.745,2.745,0,0,1,304.348,150.272Z" transform="translate(-220.485 -74.889)" fill="#1cab8f"/>
      <path id="Path_736" data-name="Path 736" d="M311.526,150.272a2.74,2.74,0,1,1,2.736-2.739A2.741,2.741,0,0,1,311.526,150.272Z" transform="translate(-216.077 -74.889)" fill="#1cab8f"/>
      <path id="Path_737" data-name="Path 737" d="M318.706,150.272a2.74,2.74,0,1,1,2.739-2.739A2.74,2.74,0,0,1,318.706,150.272Z" transform="translate(-211.671 -74.889)" fill="#1cab8f"/>
      <path id="Path_738" data-name="Path 738" d="M325.893,150.272a2.74,2.74,0,1,1,2.734-2.739A2.743,2.743,0,0,1,325.893,150.272Z" transform="translate(-207.268 -74.889)" fill="#1cab8f"/>
      <path id="Path_739" data-name="Path 739" d="M333.073,150.272a2.74,2.74,0,1,1,2.739-2.739A2.748,2.748,0,0,1,333.073,150.272Z" transform="translate(-202.863 -74.889)" fill="#1cab8f"/>
      <path id="Path_740" data-name="Path 740" d="M340.258,150.272a2.74,2.74,0,1,1,2.736-2.739A2.742,2.742,0,0,1,340.258,150.272Z" transform="translate(-198.457 -74.889)" fill="#1cab8f"/>
      <path id="Path_741" data-name="Path 741" d="M347.436,150.272a2.74,2.74,0,1,1,2.738-2.739A2.734,2.734,0,0,1,347.436,150.272Z" transform="translate(-194.048 -74.889)" fill="#1cab8f"/>
      <path id="Path_742" data-name="Path 742" d="M296.343,155.672a2.615,2.615,0,0,1-.584-.069l2.61-4.514a2.737,2.737,0,0,1-2.026,4.583Z" transform="translate(-224.069 -90.448)" fill="#1cab8f"/>
      <path id="Path_743" data-name="Path 743" d="M304.348,156.568a2.739,2.739,0,1,1,2.733-2.738A2.741,2.741,0,0,1,304.348,156.568Z" transform="translate(-220.485 -91.344)" fill="#1cab8f"/>
      <path id="Path_744" data-name="Path 744" d="M311.526,156.568a2.739,2.739,0,1,1,2.736-2.738A2.737,2.737,0,0,1,311.526,156.568Z" transform="translate(-216.077 -91.344)" fill="#1cab8f"/>
      <path id="Path_745" data-name="Path 745" d="M318.706,156.568a2.739,2.739,0,1,1,2.739-2.738A2.735,2.735,0,0,1,318.706,156.568Z" transform="translate(-211.671 -91.344)" fill="#1cab8f"/>
      <path id="Path_746" data-name="Path 746" d="M325.893,156.568a2.739,2.739,0,1,1,2.734-2.738A2.739,2.739,0,0,1,325.893,156.568Z" transform="translate(-207.268 -91.344)" fill="#1cab8f"/>
      <path id="Path_747" data-name="Path 747" d="M333.073,156.568a2.739,2.739,0,1,1,2.739-2.738A2.743,2.743,0,0,1,333.073,156.568Z" transform="translate(-202.863 -91.344)" fill="#1cab8f"/>
      <path id="Path_748" data-name="Path 748" d="M340.258,156.568a2.739,2.739,0,1,1,2.736-2.738A2.737,2.737,0,0,1,340.258,156.568Z" transform="translate(-198.457 -91.344)" fill="#1cab8f"/>
      <path id="Path_749" data-name="Path 749" d="M344.708,152.935a2.753,2.753,0,0,1,.7-1.846l2.61,4.514a2.574,2.574,0,0,1-.586.069A2.73,2.73,0,0,1,344.708,152.935Z" transform="translate(-194.048 -90.448)" fill="#1cab8f"/>
      <path id="Path_750" data-name="Path 750" d="M304.348,162.868a2.739,2.739,0,1,1,2.733-2.738A2.741,2.741,0,0,1,304.348,162.868Z" transform="translate(-220.485 -107.808)" fill="#1cab8f"/>
      <path id="Path_751" data-name="Path 751" d="M311.526,162.868a2.739,2.739,0,1,1,2.736-2.738A2.737,2.737,0,0,1,311.526,162.868Z" transform="translate(-216.077 -107.808)" fill="#1cab8f"/>
      <path id="Path_752" data-name="Path 752" d="M318.706,162.868a2.739,2.739,0,1,1,2.739-2.738A2.735,2.735,0,0,1,318.706,162.868Z" transform="translate(-211.671 -107.808)" fill="#1cab8f"/>
      <path id="Path_753" data-name="Path 753" d="M325.893,162.868a2.739,2.739,0,1,1,2.734-2.738A2.739,2.739,0,0,1,325.893,162.868Z" transform="translate(-207.268 -107.808)" fill="#1cab8f"/>
      <path id="Path_754" data-name="Path 754" d="M333.073,162.868a2.739,2.739,0,1,1,2.739-2.738A2.743,2.743,0,0,1,333.073,162.868Z" transform="translate(-202.863 -107.808)" fill="#1cab8f"/>
      <path id="Path_755" data-name="Path 755" d="M340.258,162.868a2.739,2.739,0,1,1,2.736-2.738A2.737,2.737,0,0,1,340.258,162.868Z" transform="translate(-198.457 -107.808)" fill="#1cab8f"/>
      <path id="Path_756" data-name="Path 756" d="M303.478,168.171a2.8,2.8,0,0,1-.457-.039l2.57-4.446a2.782,2.782,0,0,1,.62,1.75A2.733,2.733,0,0,1,303.478,168.171Z" transform="translate(-219.615 -123.27)" fill="#1cab8f"/>
      <path id="Path_757" data-name="Path 757" d="M311.526,169.162a2.738,2.738,0,1,1,2.736-2.735A2.736,2.736,0,0,1,311.526,169.162Z" transform="translate(-216.077 -124.26)" fill="#1cab8f"/>
      <path id="Path_758" data-name="Path 758" d="M318.706,169.162a2.738,2.738,0,1,1,2.739-2.735A2.734,2.734,0,0,1,318.706,169.162Z" transform="translate(-211.671 -124.26)" fill="#1cab8f"/>
      <path id="Path_759" data-name="Path 759" d="M325.893,169.162a2.738,2.738,0,1,1,2.734-2.735A2.738,2.738,0,0,1,325.893,169.162Z" transform="translate(-207.268 -124.26)" fill="#1cab8f"/>
      <path id="Path_760" data-name="Path 760" d="M333.073,169.162a2.738,2.738,0,1,1,2.739-2.735A2.743,2.743,0,0,1,333.073,169.162Z" transform="translate(-202.863 -124.26)" fill="#1cab8f"/>
      <path id="Path_761" data-name="Path 761" d="M337.52,165.436a2.735,2.735,0,0,1,.629-1.75l2.562,4.446a2.8,2.8,0,0,1-.453.039A2.737,2.737,0,0,1,337.52,165.436Z" transform="translate(-198.457 -123.27)" fill="#1cab8f"/>
      <path id="Path_762" data-name="Path 762" d="M311.526,175.458a2.738,2.738,0,1,1,2.736-2.739A2.738,2.738,0,0,1,311.526,175.458Z" transform="translate(-216.077 -140.714)" fill="#1cab8f"/>
      <path id="Path_763" data-name="Path 763" d="M318.706,175.458a2.738,2.738,0,1,1,2.739-2.739A2.737,2.737,0,0,1,318.706,175.458Z" transform="translate(-211.671 -140.714)" fill="#1cab8f"/>
      <path id="Path_764" data-name="Path 764" d="M325.893,175.458a2.738,2.738,0,1,1,2.734-2.739A2.74,2.74,0,0,1,325.893,175.458Z" transform="translate(-207.268 -140.714)" fill="#1cab8f"/>
      <path id="Path_765" data-name="Path 765" d="M333.073,175.458a2.738,2.738,0,1,1,2.739-2.739A2.745,2.745,0,0,1,333.073,175.458Z" transform="translate(-202.863 -140.714)" fill="#1cab8f"/>
      <path id="Path_766" data-name="Path 766" d="M310.609,180.653a2.749,2.749,0,0,1-.324-.018l2.509-4.354a2.673,2.673,0,0,1,.552,1.631A2.734,2.734,0,0,1,310.609,180.653Z" transform="translate(-215.16 -156.071)" fill="#1cab8f"/>
      <path id="Path_767" data-name="Path 767" d="M318.706,181.76a2.739,2.739,0,1,1,2.739-2.741A2.736,2.736,0,0,1,318.706,181.76Z" transform="translate(-211.671 -157.178)" fill="#1cab8f"/>
      <path id="Path_768" data-name="Path 768" d="M325.893,181.76a2.739,2.739,0,1,1,2.734-2.741A2.74,2.74,0,0,1,325.893,181.76Z" transform="translate(-207.268 -157.178)" fill="#1cab8f"/>
      <path id="Path_769" data-name="Path 769" d="M330.335,177.912a2.734,2.734,0,0,1,.55-1.631l2.51,4.354a2.561,2.561,0,0,1-.323.018A2.744,2.744,0,0,1,330.335,177.912Z" transform="translate(-202.863 -156.071)" fill="#1cab8f"/>
      <path id="Path_770" data-name="Path 770" d="M318.706,188.055a2.739,2.739,0,1,1,2.739-2.741A2.734,2.734,0,0,1,318.706,188.055Z" transform="translate(-211.671 -173.629)" fill="#1cab8f"/>
      <path id="Path_771" data-name="Path 771" d="M325.893,188.055a2.739,2.739,0,1,1,2.734-2.741A2.738,2.738,0,0,1,325.893,188.055Z" transform="translate(-207.268 -173.629)" fill="#1cab8f"/>
      <path id="Path_772" data-name="Path 772" d="M317.739,193.138c-.066,0-.126,0-.19-.008l2.465-4.254a2.737,2.737,0,0,1-2.275,4.262Z" transform="translate(-210.705 -188.876)" fill="#1cab8f"/>
      <path id="Path_773" data-name="Path 773" d="M323.152,190.4a2.749,2.749,0,0,1,.469-1.528l2.459,4.254c-.065,0-.121.008-.187.008A2.738,2.738,0,0,1,323.152,190.4Z" transform="translate(-207.268 -188.876)" fill="#1cab8f"/>
    </g>
    <g id="Group_317" data-name="Group 317" transform="translate(-64.473 3311.779)">
      <g id="Group_316" data-name="Group 316" transform="translate(64.473 120.159)">
        <g id="Group_314" data-name="Group 314">
          <path id="Path_776" data-name="Path 776" d="M268.373,162.656l-42.767-42.5-43.625,43.408L142.5,124.251l-40.452,40.184L64.49,127.089l-.017,12.649,37.571,37.387L142.5,136.91l39.465,39.306,43.654-43.4,42.75,42.507L304.473,139.4l-.009-12.634Z" transform="translate(-64.473 -120.159)" fill="#3eb7a0"/>
        </g>
        <g id="Group_315" data-name="Group 315" transform="translate(0 33.799)">
          <path id="Path_777" data-name="Path 777" d="M268.373,172.391l-42.767-42.5L181.981,173.3,142.5,133.988l-40.452,40.182L64.49,136.821l-.017,12.654,37.565,37.386L142.5,146.646l39.465,39.3,43.654-43.4,42.75,42.5,36.108-35.922-.009-12.637Z" transform="translate(-64.473 -129.889)" fill="#3eb7a0"/>
        </g>
      </g>
    </g>
  </g>
</svg>
