<svg xmlns="http://www.w3.org/2000/svg" width="240" height="197.288" viewBox="0 0 240 197.288">
  <g id="Group_456" data-name="Group 456" transform="translate(-1691 -3420)">
    <g id="Group_319" data-name="Group 319" transform="translate(1439.678 3350.77)">
      <path id="Path_554" data-name="Path 554" d="M254.066,69.23a2.738,2.738,0,1,0,2.736,2.738A2.742,2.742,0,0,0,254.066,69.23Z" transform="translate(0)" fill="#1cab8f"/>
      <path id="Path_555" data-name="Path 555" d="M261.249,69.23a2.738,2.738,0,1,0,2.735,2.738A2.741,2.741,0,0,0,261.249,69.23Z" transform="translate(4.407)" fill="#1cab8f"/>
      <path id="Path_556" data-name="Path 556" d="M268.431,69.23a2.738,2.738,0,1,0,2.738,2.738A2.741,2.741,0,0,0,268.431,69.23Z" transform="translate(8.813)" fill="#1cab8f"/>
      <path id="Path_557" data-name="Path 557" d="M275.617,69.23a2.738,2.738,0,1,0,2.735,2.738A2.738,2.738,0,0,0,275.617,69.23Z" transform="translate(13.218)" fill="#1cab8f"/>
      <path id="Path_558" data-name="Path 558" d="M282.794,69.23a2.738,2.738,0,1,0,2.741,2.738A2.732,2.732,0,0,0,282.794,69.23Z" transform="translate(17.624)" fill="#1cab8f"/>
      <path id="Path_559" data-name="Path 559" d="M289.979,69.23a2.738,2.738,0,1,0,2.743,2.738A2.738,2.738,0,0,0,289.979,69.23Z" transform="translate(22.029)" fill="#1cab8f"/>
      <path id="Path_560" data-name="Path 560" d="M297.163,69.23a2.738,2.738,0,1,0,2.743,2.738A2.74,2.74,0,0,0,297.163,69.23Z" transform="translate(26.433)" fill="#1cab8f"/>
      <path id="Path_561" data-name="Path 561" d="M304.348,69.23a2.738,2.738,0,1,0,2.733,2.738A2.741,2.741,0,0,0,304.348,69.23Z" transform="translate(30.837)" fill="#1cab8f"/>
      <path id="Path_562" data-name="Path 562" d="M311.526,69.23a2.738,2.738,0,1,0,2.736,2.738A2.737,2.737,0,0,0,311.526,69.23Z" transform="translate(35.245)" fill="#1cab8f"/>
      <path id="Path_563" data-name="Path 563" d="M318.706,69.23a2.738,2.738,0,1,0,2.739,2.738A2.735,2.735,0,0,0,318.706,69.23Z" transform="translate(39.651)" fill="#1cab8f"/>
      <path id="Path_564" data-name="Path 564" d="M325.893,69.23a2.738,2.738,0,1,0,2.734,2.738A2.739,2.739,0,0,0,325.893,69.23Z" transform="translate(44.054)" fill="#1cab8f"/>
      <path id="Path_565" data-name="Path 565" d="M333.073,69.23a2.738,2.738,0,1,0,2.739,2.738A2.743,2.743,0,0,0,333.073,69.23Z" transform="translate(48.459)" fill="#1cab8f"/>
      <path id="Path_566" data-name="Path 566" d="M340.258,69.23a2.738,2.738,0,1,0,2.736,2.738A2.737,2.737,0,0,0,340.258,69.23Z" transform="translate(52.865)" fill="#1cab8f"/>
      <path id="Path_567" data-name="Path 567" d="M347.436,69.23a2.738,2.738,0,1,0,2.738,2.738A2.73,2.73,0,0,0,347.436,69.23Z" transform="translate(57.274)" fill="#1cab8f"/>
      <path id="Path_568" data-name="Path 568" d="M354.621,69.23a2.738,2.738,0,1,0,2.73,2.738A2.732,2.732,0,0,0,354.621,69.23Z" transform="translate(61.679)" fill="#1cab8f"/>
      <path id="Path_569" data-name="Path 569" d="M361.809,69.23a2.738,2.738,0,1,0,2.736,2.738A2.741,2.741,0,0,0,361.809,69.23Z" transform="translate(66.081)" fill="#1cab8f"/>
      <path id="Path_570" data-name="Path 570" d="M368.988,69.23a2.738,2.738,0,1,0,2.743,2.738A2.736,2.736,0,0,0,368.988,69.23Z" transform="translate(70.486)" fill="#1cab8f"/>
      <path id="Path_571" data-name="Path 571" d="M376.173,69.23a2.738,2.738,0,1,0,2.736,2.738A2.737,2.737,0,0,0,376.173,69.23Z" transform="translate(74.892)" fill="#1cab8f"/>
      <path id="Path_572" data-name="Path 572" d="M383.353,69.23a2.738,2.738,0,1,0,2.746,2.738A2.735,2.735,0,0,0,383.353,69.23Z" transform="translate(79.298)" fill="#1cab8f"/>
      <path id="Path_573" data-name="Path 573" d="M390.542,74.706a2.738,2.738,0,1,0-2.741-2.738A2.734,2.734,0,0,0,390.542,74.706Z" transform="translate(83.703)" fill="#1cab8f"/>
      <path id="Path_574" data-name="Path 574" d="M256.249,78.266a2.735,2.735,0,0,0-4.024-2.417l2.735,4.737A2.725,2.725,0,0,0,256.249,78.266Z" transform="translate(0.554 3.862)" fill="#1cab8f"/>
      <path id="Path_575" data-name="Path 575" d="M261.249,75.527a2.739,2.739,0,1,0,2.735,2.739A2.742,2.742,0,0,0,261.249,75.527Z" transform="translate(4.407 3.862)" fill="#1cab8f"/>
      <path id="Path_576" data-name="Path 576" d="M268.431,75.527a2.739,2.739,0,1,0,2.738,2.739A2.742,2.742,0,0,0,268.431,75.527Z" transform="translate(8.813 3.862)" fill="#1cab8f"/>
      <path id="Path_577" data-name="Path 577" d="M275.617,75.527a2.739,2.739,0,1,0,2.735,2.739A2.74,2.74,0,0,0,275.617,75.527Z" transform="translate(13.218 3.862)" fill="#1cab8f"/>
      <path id="Path_578" data-name="Path 578" d="M282.794,75.527a2.739,2.739,0,1,0,2.741,2.739A2.734,2.734,0,0,0,282.794,75.527Z" transform="translate(17.624 3.862)" fill="#1cab8f"/>
      <path id="Path_579" data-name="Path 579" d="M289.979,75.527a2.739,2.739,0,1,0,2.743,2.739A2.739,2.739,0,0,0,289.979,75.527Z" transform="translate(22.029 3.862)" fill="#1cab8f"/>
      <path id="Path_580" data-name="Path 580" d="M297.163,75.527a2.739,2.739,0,1,0,2.743,2.739A2.741,2.741,0,0,0,297.163,75.527Z" transform="translate(26.433 3.862)" fill="#1cab8f"/>
      <path id="Path_581" data-name="Path 581" d="M304.348,75.527a2.739,2.739,0,1,0,2.733,2.739A2.742,2.742,0,0,0,304.348,75.527Z" transform="translate(30.837 3.862)" fill="#1cab8f"/>
      <path id="Path_582" data-name="Path 582" d="M311.526,75.527a2.739,2.739,0,1,0,2.736,2.739A2.738,2.738,0,0,0,311.526,75.527Z" transform="translate(35.245 3.862)" fill="#1cab8f"/>
      <path id="Path_583" data-name="Path 583" d="M318.706,75.527a2.739,2.739,0,1,0,2.739,2.739A2.737,2.737,0,0,0,318.706,75.527Z" transform="translate(39.651 3.862)" fill="#1cab8f"/>
      <path id="Path_584" data-name="Path 584" d="M325.893,75.527a2.739,2.739,0,1,0,2.734,2.739A2.74,2.74,0,0,0,325.893,75.527Z" transform="translate(44.054 3.862)" fill="#1cab8f"/>
      <path id="Path_585" data-name="Path 585" d="M333.073,75.527a2.739,2.739,0,1,0,2.739,2.739A2.745,2.745,0,0,0,333.073,75.527Z" transform="translate(48.459 3.862)" fill="#1cab8f"/>
      <path id="Path_586" data-name="Path 586" d="M340.258,75.527a2.739,2.739,0,1,0,2.736,2.739A2.739,2.739,0,0,0,340.258,75.527Z" transform="translate(52.865 3.862)" fill="#1cab8f"/>
      <path id="Path_587" data-name="Path 587" d="M347.436,75.527a2.739,2.739,0,1,0,2.738,2.739A2.731,2.731,0,0,0,347.436,75.527Z" transform="translate(57.274 3.862)" fill="#1cab8f"/>
      <path id="Path_588" data-name="Path 588" d="M354.621,75.527a2.739,2.739,0,1,0,2.73,2.739A2.733,2.733,0,0,0,354.621,75.527Z" transform="translate(61.679 3.862)" fill="#1cab8f"/>
      <path id="Path_589" data-name="Path 589" d="M361.809,75.527a2.739,2.739,0,1,0,2.736,2.739A2.742,2.742,0,0,0,361.809,75.527Z" transform="translate(66.081 3.862)" fill="#1cab8f"/>
      <path id="Path_590" data-name="Path 590" d="M368.988,75.527a2.739,2.739,0,1,0,2.743,2.739A2.738,2.738,0,0,0,368.988,75.527Z" transform="translate(70.486 3.862)" fill="#1cab8f"/>
      <path id="Path_591" data-name="Path 591" d="M376.173,75.527a2.739,2.739,0,1,0,2.736,2.739A2.738,2.738,0,0,0,376.173,75.527Z" transform="translate(74.892 3.862)" fill="#1cab8f"/>
      <path id="Path_592" data-name="Path 592" d="M383.353,75.527a2.739,2.739,0,1,0,2.746,2.739A2.737,2.737,0,0,0,383.353,75.527Z" transform="translate(79.298 3.862)" fill="#1cab8f"/>
      <path id="Path_593" data-name="Path 593" d="M390.542,75.527a2.736,2.736,0,0,0-1.45,5.059l2.738-4.738A2.748,2.748,0,0,0,390.542,75.527Z" transform="translate(83.703 3.862)" fill="#1cab8f"/>
      <path id="Path_594" data-name="Path 594" d="M261.249,81.825a2.737,2.737,0,1,0,2.735,2.735A2.74,2.74,0,0,0,261.249,81.825Z" transform="translate(4.407 7.725)" fill="#1cab8f"/>
      <path id="Path_595" data-name="Path 595" d="M268.431,81.825a2.737,2.737,0,1,0,2.738,2.735A2.74,2.74,0,0,0,268.431,81.825Z" transform="translate(8.813 7.725)" fill="#1cab8f"/>
      <path id="Path_596" data-name="Path 596" d="M275.617,81.825a2.737,2.737,0,1,0,2.735,2.735A2.738,2.738,0,0,0,275.617,81.825Z" transform="translate(13.218 7.725)" fill="#1cab8f"/>
      <path id="Path_597" data-name="Path 597" d="M282.794,81.825a2.737,2.737,0,1,0,2.741,2.735A2.732,2.732,0,0,0,282.794,81.825Z" transform="translate(17.624 7.725)" fill="#1cab8f"/>
      <path id="Path_598" data-name="Path 598" d="M289.979,81.825a2.737,2.737,0,1,0,2.743,2.735A2.737,2.737,0,0,0,289.979,81.825Z" transform="translate(22.029 7.725)" fill="#1cab8f"/>
      <path id="Path_599" data-name="Path 599" d="M297.163,81.825a2.737,2.737,0,1,0,2.743,2.735A2.739,2.739,0,0,0,297.163,81.825Z" transform="translate(26.433 7.725)" fill="#1cab8f"/>
      <path id="Path_600" data-name="Path 600" d="M304.348,81.825a2.737,2.737,0,1,0,2.733,2.735A2.74,2.74,0,0,0,304.348,81.825Z" transform="translate(30.837 7.725)" fill="#1cab8f"/>
      <path id="Path_601" data-name="Path 601" d="M311.526,81.825a2.737,2.737,0,1,0,2.736,2.735A2.736,2.736,0,0,0,311.526,81.825Z" transform="translate(35.245 7.725)" fill="#1cab8f"/>
      <path id="Path_602" data-name="Path 602" d="M318.706,81.825a2.737,2.737,0,1,0,2.739,2.735A2.734,2.734,0,0,0,318.706,81.825Z" transform="translate(39.651 7.725)" fill="#1cab8f"/>
      <path id="Path_603" data-name="Path 603" d="M325.893,81.825a2.737,2.737,0,1,0,2.734,2.735A2.738,2.738,0,0,0,325.893,81.825Z" transform="translate(44.054 7.725)" fill="#1cab8f"/>
      <path id="Path_604" data-name="Path 604" d="M333.073,81.825a2.737,2.737,0,1,0,2.739,2.735A2.743,2.743,0,0,0,333.073,81.825Z" transform="translate(48.459 7.725)" fill="#1cab8f"/>
      <path id="Path_605" data-name="Path 605" d="M340.258,81.825a2.737,2.737,0,1,0,2.736,2.735A2.737,2.737,0,0,0,340.258,81.825Z" transform="translate(52.865 7.725)" fill="#1cab8f"/>
      <path id="Path_606" data-name="Path 606" d="M347.436,81.825a2.737,2.737,0,1,0,2.738,2.735A2.729,2.729,0,0,0,347.436,81.825Z" transform="translate(57.274 7.725)" fill="#1cab8f"/>
      <path id="Path_607" data-name="Path 607" d="M354.621,81.825a2.737,2.737,0,1,0,2.73,2.735A2.731,2.731,0,0,0,354.621,81.825Z" transform="translate(61.679 7.725)" fill="#1cab8f"/>
      <path id="Path_608" data-name="Path 608" d="M361.809,81.825a2.737,2.737,0,1,0,2.736,2.735A2.74,2.74,0,0,0,361.809,81.825Z" transform="translate(66.081 7.725)" fill="#1cab8f"/>
      <path id="Path_609" data-name="Path 609" d="M368.988,81.825a2.737,2.737,0,1,0,2.743,2.735A2.736,2.736,0,0,0,368.988,81.825Z" transform="translate(70.486 7.725)" fill="#1cab8f"/>
      <path id="Path_610" data-name="Path 610" d="M376.173,81.825a2.737,2.737,0,1,0,2.736,2.735A2.736,2.736,0,0,0,376.173,81.825Z" transform="translate(74.892 7.725)" fill="#1cab8f"/>
      <path id="Path_611" data-name="Path 611" d="M383.353,81.825A2.737,2.737,0,1,0,386.1,84.56,2.735,2.735,0,0,0,383.353,81.825Z" transform="translate(79.298 7.725)" fill="#1cab8f"/>
      <path id="Path_612" data-name="Path 612" d="M263.389,90.859a2.737,2.737,0,0,0-2.735-2.739,2.7,2.7,0,0,0-1.178.273l2.726,4.724A2.725,2.725,0,0,0,263.389,90.859Z" transform="translate(5.001 11.585)" fill="#1cab8f"/>
      <path id="Path_613" data-name="Path 613" d="M268.431,88.12a2.739,2.739,0,1,0,2.738,2.739A2.743,2.743,0,0,0,268.431,88.12Z" transform="translate(8.813 11.585)" fill="#1cab8f"/>
      <path id="Path_614" data-name="Path 614" d="M275.617,88.12a2.739,2.739,0,1,0,2.735,2.739A2.741,2.741,0,0,0,275.617,88.12Z" transform="translate(13.218 11.585)" fill="#1cab8f"/>
      <path id="Path_615" data-name="Path 615" d="M282.794,88.12a2.739,2.739,0,1,0,2.741,2.739A2.735,2.735,0,0,0,282.794,88.12Z" transform="translate(17.624 11.585)" fill="#1cab8f"/>
      <path id="Path_616" data-name="Path 616" d="M289.979,88.12a2.739,2.739,0,1,0,2.743,2.739A2.74,2.74,0,0,0,289.979,88.12Z" transform="translate(22.029 11.585)" fill="#1cab8f"/>
      <path id="Path_617" data-name="Path 617" d="M297.163,88.12a2.739,2.739,0,1,0,2.743,2.739A2.742,2.742,0,0,0,297.163,88.12Z" transform="translate(26.433 11.585)" fill="#1cab8f"/>
      <path id="Path_618" data-name="Path 618" d="M304.348,88.12a2.739,2.739,0,1,0,2.733,2.739A2.743,2.743,0,0,0,304.348,88.12Z" transform="translate(30.837 11.585)" fill="#1cab8f"/>
      <path id="Path_619" data-name="Path 619" d="M311.526,88.12a2.739,2.739,0,1,0,2.736,2.739A2.739,2.739,0,0,0,311.526,88.12Z" transform="translate(35.245 11.585)" fill="#1cab8f"/>
      <path id="Path_620" data-name="Path 620" d="M318.706,88.12a2.739,2.739,0,1,0,2.739,2.739A2.738,2.738,0,0,0,318.706,88.12Z" transform="translate(39.651 11.585)" fill="#1cab8f"/>
      <path id="Path_621" data-name="Path 621" d="M325.893,88.12a2.739,2.739,0,1,0,2.734,2.739A2.741,2.741,0,0,0,325.893,88.12Z" transform="translate(44.054 11.585)" fill="#1cab8f"/>
      <path id="Path_622" data-name="Path 622" d="M333.073,88.12a2.739,2.739,0,1,0,2.739,2.739A2.746,2.746,0,0,0,333.073,88.12Z" transform="translate(48.459 11.585)" fill="#1cab8f"/>
      <path id="Path_623" data-name="Path 623" d="M340.258,88.12a2.739,2.739,0,1,0,2.736,2.739A2.74,2.74,0,0,0,340.258,88.12Z" transform="translate(52.865 11.585)" fill="#1cab8f"/>
      <path id="Path_624" data-name="Path 624" d="M347.436,88.12a2.739,2.739,0,1,0,2.738,2.739A2.732,2.732,0,0,0,347.436,88.12Z" transform="translate(57.274 11.585)" fill="#1cab8f"/>
      <path id="Path_625" data-name="Path 625" d="M354.621,88.12a2.739,2.739,0,1,0,2.73,2.739A2.734,2.734,0,0,0,354.621,88.12Z" transform="translate(61.679 11.585)" fill="#1cab8f"/>
      <path id="Path_626" data-name="Path 626" d="M361.809,88.12a2.739,2.739,0,1,0,2.736,2.739A2.743,2.743,0,0,0,361.809,88.12Z" transform="translate(66.081 11.585)" fill="#1cab8f"/>
      <path id="Path_627" data-name="Path 627" d="M368.988,88.12a2.739,2.739,0,1,0,2.743,2.739A2.739,2.739,0,0,0,368.988,88.12Z" transform="translate(70.486 11.585)" fill="#1cab8f"/>
      <path id="Path_628" data-name="Path 628" d="M376.173,88.12a2.739,2.739,0,1,0,2.736,2.739A2.739,2.739,0,0,0,376.173,88.12Z" transform="translate(74.892 11.585)" fill="#1cab8f"/>
      <path id="Path_629" data-name="Path 629" d="M380.618,90.859a2.74,2.74,0,0,0,1.183,2.257l2.736-4.725a2.732,2.732,0,0,0-3.919,2.468Z" transform="translate(79.298 11.585)" fill="#1cab8f"/>
      <path id="Path_630" data-name="Path 630" d="M268.431,94.417a2.739,2.739,0,1,0,2.738,2.741A2.744,2.744,0,0,0,268.431,94.417Z" transform="translate(8.813 15.447)" fill="#1cab8f"/>
      <path id="Path_631" data-name="Path 631" d="M275.617,94.417a2.739,2.739,0,1,0,2.735,2.741A2.742,2.742,0,0,0,275.617,94.417Z" transform="translate(13.218 15.447)" fill="#1cab8f"/>
      <path id="Path_632" data-name="Path 632" d="M282.794,94.417a2.739,2.739,0,1,0,2.741,2.741A2.736,2.736,0,0,0,282.794,94.417Z" transform="translate(17.624 15.447)" fill="#1cab8f"/>
      <path id="Path_633" data-name="Path 633" d="M289.979,94.417a2.739,2.739,0,1,0,2.743,2.741A2.741,2.741,0,0,0,289.979,94.417Z" transform="translate(22.029 15.447)" fill="#1cab8f"/>
      <path id="Path_634" data-name="Path 634" d="M297.163,94.417a2.739,2.739,0,1,0,2.743,2.741A2.744,2.744,0,0,0,297.163,94.417Z" transform="translate(26.433 15.447)" fill="#1cab8f"/>
      <path id="Path_635" data-name="Path 635" d="M304.348,94.417a2.739,2.739,0,1,0,2.733,2.741A2.745,2.745,0,0,0,304.348,94.417Z" transform="translate(30.837 15.447)" fill="#1cab8f"/>
      <path id="Path_636" data-name="Path 636" d="M311.526,94.417a2.739,2.739,0,1,0,2.736,2.741A2.741,2.741,0,0,0,311.526,94.417Z" transform="translate(35.245 15.447)" fill="#1cab8f"/>
      <path id="Path_637" data-name="Path 637" d="M318.706,94.417a2.739,2.739,0,1,0,2.739,2.741A2.739,2.739,0,0,0,318.706,94.417Z" transform="translate(39.651 15.447)" fill="#1cab8f"/>
      <path id="Path_638" data-name="Path 638" d="M325.893,94.417a2.739,2.739,0,1,0,2.734,2.741A2.743,2.743,0,0,0,325.893,94.417Z" transform="translate(44.054 15.447)" fill="#1cab8f"/>
      <path id="Path_639" data-name="Path 639" d="M333.073,94.417a2.739,2.739,0,1,0,2.739,2.741A2.747,2.747,0,0,0,333.073,94.417Z" transform="translate(48.459 15.447)" fill="#1cab8f"/>
      <path id="Path_640" data-name="Path 640" d="M340.258,94.417a2.739,2.739,0,1,0,2.736,2.741A2.741,2.741,0,0,0,340.258,94.417Z" transform="translate(52.865 15.447)" fill="#1cab8f"/>
      <path id="Path_641" data-name="Path 641" d="M347.436,94.417a2.739,2.739,0,1,0,2.738,2.741A2.734,2.734,0,0,0,347.436,94.417Z" transform="translate(57.274 15.447)" fill="#1cab8f"/>
      <path id="Path_642" data-name="Path 642" d="M354.621,94.417a2.739,2.739,0,1,0,2.73,2.741A2.736,2.736,0,0,0,354.621,94.417Z" transform="translate(61.679 15.447)" fill="#1cab8f"/>
      <path id="Path_643" data-name="Path 643" d="M361.809,94.417a2.739,2.739,0,1,0,2.736,2.741A2.745,2.745,0,0,0,361.809,94.417Z" transform="translate(66.081 15.447)" fill="#1cab8f"/>
      <path id="Path_644" data-name="Path 644" d="M368.988,94.417a2.739,2.739,0,1,0,2.743,2.741A2.74,2.74,0,0,0,368.988,94.417Z" transform="translate(70.486 15.447)" fill="#1cab8f"/>
      <path id="Path_645" data-name="Path 645" d="M376.173,94.417a2.739,2.739,0,1,0,2.736,2.741A2.74,2.74,0,0,0,376.173,94.417Z" transform="translate(74.892 15.447)" fill="#1cab8f"/>
      <path id="Path_646" data-name="Path 646" d="M270.534,103.453a2.736,2.736,0,0,0-2.738-2.736,2.774,2.774,0,0,0-1.07.211l2.718,4.7A2.721,2.721,0,0,0,270.534,103.453Z" transform="translate(9.448 19.311)" fill="#1cab8f"/>
      <path id="Path_647" data-name="Path 647" d="M275.617,100.717a2.736,2.736,0,1,0,2.735,2.736A2.737,2.737,0,0,0,275.617,100.717Z" transform="translate(13.218 19.311)" fill="#1cab8f"/>
      <path id="Path_648" data-name="Path 648" d="M282.794,100.717a2.736,2.736,0,1,0,2.741,2.736A2.731,2.731,0,0,0,282.794,100.717Z" transform="translate(17.624 19.311)" fill="#1cab8f"/>
      <path id="Path_649" data-name="Path 649" d="M289.979,100.717a2.736,2.736,0,1,0,2.743,2.736A2.736,2.736,0,0,0,289.979,100.717Z" transform="translate(22.029 19.311)" fill="#1cab8f"/>
      <path id="Path_650" data-name="Path 650" d="M297.163,100.717a2.736,2.736,0,1,0,2.743,2.736A2.739,2.739,0,0,0,297.163,100.717Z" transform="translate(26.433 19.311)" fill="#1cab8f"/>
      <path id="Path_651" data-name="Path 651" d="M304.348,100.717a2.736,2.736,0,1,0,2.733,2.736A2.74,2.74,0,0,0,304.348,100.717Z" transform="translate(30.837 19.311)" fill="#1cab8f"/>
      <path id="Path_652" data-name="Path 652" d="M311.526,100.717a2.736,2.736,0,1,0,2.736,2.736A2.735,2.735,0,0,0,311.526,100.717Z" transform="translate(35.245 19.311)" fill="#1cab8f"/>
      <path id="Path_653" data-name="Path 653" d="M318.706,100.717a2.736,2.736,0,1,0,2.739,2.736A2.734,2.734,0,0,0,318.706,100.717Z" transform="translate(39.651 19.311)" fill="#1cab8f"/>
      <path id="Path_654" data-name="Path 654" d="M325.893,100.717a2.736,2.736,0,1,0,2.734,2.736A2.738,2.738,0,0,0,325.893,100.717Z" transform="translate(44.054 19.311)" fill="#1cab8f"/>
      <path id="Path_655" data-name="Path 655" d="M333.073,100.717a2.736,2.736,0,1,0,2.739,2.736A2.742,2.742,0,0,0,333.073,100.717Z" transform="translate(48.459 19.311)" fill="#1cab8f"/>
      <path id="Path_656" data-name="Path 656" d="M340.258,100.717a2.736,2.736,0,1,0,2.736,2.736A2.736,2.736,0,0,0,340.258,100.717Z" transform="translate(52.865 19.311)" fill="#1cab8f"/>
      <path id="Path_657" data-name="Path 657" d="M347.436,100.717a2.736,2.736,0,1,0,2.738,2.736A2.729,2.729,0,0,0,347.436,100.717Z" transform="translate(57.274 19.311)" fill="#1cab8f"/>
      <path id="Path_658" data-name="Path 658" d="M354.621,100.717a2.736,2.736,0,1,0,2.73,2.736A2.73,2.73,0,0,0,354.621,100.717Z" transform="translate(61.679 19.311)" fill="#1cab8f"/>
      <path id="Path_659" data-name="Path 659" d="M361.809,100.717a2.736,2.736,0,1,0,2.736,2.736A2.74,2.74,0,0,0,361.809,100.717Z" transform="translate(66.081 19.311)" fill="#1cab8f"/>
      <path id="Path_660" data-name="Path 660" d="M368.988,100.717a2.736,2.736,0,1,0,2.743,2.736A2.735,2.735,0,0,0,368.988,100.717Z" transform="translate(70.486 19.311)" fill="#1cab8f"/>
      <path id="Path_661" data-name="Path 661" d="M373.434,103.453a2.724,2.724,0,0,0,1.087,2.18l2.712-4.7a2.743,2.743,0,0,0-3.8,2.525Z" transform="translate(74.892 19.311)" fill="#1cab8f"/>
      <path id="Path_662" data-name="Path 662" d="M275.617,107.012a2.736,2.736,0,1,0,2.735,2.739A2.74,2.74,0,0,0,275.617,107.012Z" transform="translate(13.218 23.172)" fill="#1cab8f"/>
      <path id="Path_663" data-name="Path 663" d="M282.794,107.012a2.736,2.736,0,1,0,2.741,2.739A2.734,2.734,0,0,0,282.794,107.012Z" transform="translate(17.624 23.172)" fill="#1cab8f"/>
      <path id="Path_664" data-name="Path 664" d="M289.979,107.012a2.736,2.736,0,1,0,2.743,2.739A2.739,2.739,0,0,0,289.979,107.012Z" transform="translate(22.029 23.172)" fill="#1cab8f"/>
      <path id="Path_665" data-name="Path 665" d="M297.163,107.012a2.736,2.736,0,1,0,2.743,2.739A2.741,2.741,0,0,0,297.163,107.012Z" transform="translate(26.433 23.172)" fill="#1cab8f"/>
      <path id="Path_666" data-name="Path 666" d="M304.348,107.012a2.736,2.736,0,1,0,2.733,2.739A2.742,2.742,0,0,0,304.348,107.012Z" transform="translate(30.837 23.172)" fill="#1cab8f"/>
      <path id="Path_667" data-name="Path 667" d="M311.526,107.012a2.736,2.736,0,1,0,2.736,2.739A2.738,2.738,0,0,0,311.526,107.012Z" transform="translate(35.245 23.172)" fill="#1cab8f"/>
      <path id="Path_668" data-name="Path 668" d="M318.706,107.012a2.736,2.736,0,1,0,2.739,2.739A2.737,2.737,0,0,0,318.706,107.012Z" transform="translate(39.651 23.172)" fill="#1cab8f"/>
      <path id="Path_669" data-name="Path 669" d="M325.893,107.012a2.736,2.736,0,1,0,2.734,2.739A2.74,2.74,0,0,0,325.893,107.012Z" transform="translate(44.054 23.172)" fill="#1cab8f"/>
      <path id="Path_670" data-name="Path 670" d="M333.073,107.012a2.736,2.736,0,1,0,2.739,2.739A2.745,2.745,0,0,0,333.073,107.012Z" transform="translate(48.459 23.172)" fill="#1cab8f"/>
      <path id="Path_671" data-name="Path 671" d="M340.258,107.012a2.736,2.736,0,1,0,2.736,2.739A2.739,2.739,0,0,0,340.258,107.012Z" transform="translate(52.865 23.172)" fill="#1cab8f"/>
      <path id="Path_672" data-name="Path 672" d="M347.436,107.012a2.736,2.736,0,1,0,2.738,2.739A2.731,2.731,0,0,0,347.436,107.012Z" transform="translate(57.274 23.172)" fill="#1cab8f"/>
      <path id="Path_673" data-name="Path 673" d="M354.621,107.012a2.736,2.736,0,1,0,2.73,2.739A2.733,2.733,0,0,0,354.621,107.012Z" transform="translate(61.679 23.172)" fill="#1cab8f"/>
      <path id="Path_674" data-name="Path 674" d="M361.809,107.012a2.736,2.736,0,1,0,2.736,2.739A2.742,2.742,0,0,0,361.809,107.012Z" transform="translate(66.081 23.172)" fill="#1cab8f"/>
      <path id="Path_675" data-name="Path 675" d="M368.988,107.012a2.736,2.736,0,1,0,2.743,2.739A2.738,2.738,0,0,0,368.988,107.012Z" transform="translate(70.486 23.172)" fill="#1cab8f"/>
      <path id="Path_676" data-name="Path 676" d="M277.672,116.046a2.741,2.741,0,0,0-3.69-2.567l2.7,4.675A2.727,2.727,0,0,0,277.672,116.046Z" transform="translate(13.897 27.034)" fill="#1cab8f"/>
      <path id="Path_677" data-name="Path 677" d="M282.794,113.31a2.738,2.738,0,1,0,2.741,2.736A2.732,2.732,0,0,0,282.794,113.31Z" transform="translate(17.624 27.034)" fill="#1cab8f"/>
      <path id="Path_678" data-name="Path 678" d="M289.979,113.31a2.738,2.738,0,1,0,2.743,2.736A2.737,2.737,0,0,0,289.979,113.31Z" transform="translate(22.029 27.034)" fill="#1cab8f"/>
      <path id="Path_679" data-name="Path 679" d="M297.163,113.31a2.738,2.738,0,1,0,2.743,2.736A2.74,2.74,0,0,0,297.163,113.31Z" transform="translate(26.433 27.034)" fill="#1cab8f"/>
      <path id="Path_680" data-name="Path 680" d="M304.348,113.31a2.738,2.738,0,1,0,2.733,2.736A2.741,2.741,0,0,0,304.348,113.31Z" transform="translate(30.837 27.034)" fill="#1cab8f"/>
      <path id="Path_681" data-name="Path 681" d="M311.526,113.31a2.738,2.738,0,1,0,2.736,2.736A2.736,2.736,0,0,0,311.526,113.31Z" transform="translate(35.245 27.034)" fill="#1cab8f"/>
      <path id="Path_682" data-name="Path 682" d="M318.706,113.31a2.738,2.738,0,1,0,2.739,2.736A2.735,2.735,0,0,0,318.706,113.31Z" transform="translate(39.651 27.034)" fill="#1cab8f"/>
      <path id="Path_683" data-name="Path 683" d="M325.893,113.31a2.738,2.738,0,1,0,2.734,2.736A2.739,2.739,0,0,0,325.893,113.31Z" transform="translate(44.054 27.034)" fill="#1cab8f"/>
      <path id="Path_684" data-name="Path 684" d="M333.073,113.31a2.738,2.738,0,1,0,2.739,2.736A2.743,2.743,0,0,0,333.073,113.31Z" transform="translate(48.459 27.034)" fill="#1cab8f"/>
      <path id="Path_685" data-name="Path 685" d="M340.258,113.31a2.738,2.738,0,1,0,2.736,2.736A2.737,2.737,0,0,0,340.258,113.31Z" transform="translate(52.865 27.034)" fill="#1cab8f"/>
      <path id="Path_686" data-name="Path 686" d="M347.436,113.31a2.738,2.738,0,1,0,2.738,2.736A2.73,2.73,0,0,0,347.436,113.31Z" transform="translate(57.274 27.034)" fill="#1cab8f"/>
      <path id="Path_687" data-name="Path 687" d="M354.621,113.31a2.738,2.738,0,1,0,2.73,2.736A2.731,2.731,0,0,0,354.621,113.31Z" transform="translate(61.679 27.034)" fill="#1cab8f"/>
      <path id="Path_688" data-name="Path 688" d="M361.809,113.31a2.738,2.738,0,1,0,2.736,2.736A2.741,2.741,0,0,0,361.809,113.31Z" transform="translate(66.081 27.034)" fill="#1cab8f"/>
      <path id="Path_689" data-name="Path 689" d="M366.25,116.046a2.738,2.738,0,0,0,.991,2.109l2.7-4.675a2.764,2.764,0,0,0-.95-.169A2.736,2.736,0,0,0,366.25,116.046Z" transform="translate(70.486 27.034)" fill="#1cab8f"/>
      <path id="Path_690" data-name="Path 690" d="M282.794,119.605a2.739,2.739,0,1,0,2.741,2.739A2.735,2.735,0,0,0,282.794,119.605Z" transform="translate(17.624 30.895)" fill="#1cab8f"/>
      <path id="Path_691" data-name="Path 691" d="M289.979,119.605a2.739,2.739,0,1,0,2.743,2.739A2.74,2.74,0,0,0,289.979,119.605Z" transform="translate(22.029 30.895)" fill="#1cab8f"/>
      <path id="Path_692" data-name="Path 692" d="M297.163,119.605a2.739,2.739,0,1,0,2.743,2.739A2.742,2.742,0,0,0,297.163,119.605Z" transform="translate(26.433 30.895)" fill="#1cab8f"/>
      <path id="Path_693" data-name="Path 693" d="M304.348,119.605a2.739,2.739,0,1,0,2.733,2.739A2.743,2.743,0,0,0,304.348,119.605Z" transform="translate(30.837 30.895)" fill="#1cab8f"/>
      <path id="Path_694" data-name="Path 694" d="M311.526,119.605a2.739,2.739,0,1,0,2.736,2.739A2.739,2.739,0,0,0,311.526,119.605Z" transform="translate(35.245 30.895)" fill="#1cab8f"/>
      <path id="Path_695" data-name="Path 695" d="M318.706,119.605a2.739,2.739,0,1,0,2.739,2.739A2.738,2.738,0,0,0,318.706,119.605Z" transform="translate(39.651 30.895)" fill="#1cab8f"/>
      <path id="Path_696" data-name="Path 696" d="M325.893,119.605a2.739,2.739,0,1,0,2.734,2.739A2.741,2.741,0,0,0,325.893,119.605Z" transform="translate(44.054 30.895)" fill="#1cab8f"/>
      <path id="Path_697" data-name="Path 697" d="M333.073,119.605a2.739,2.739,0,1,0,2.739,2.739A2.746,2.746,0,0,0,333.073,119.605Z" transform="translate(48.459 30.895)" fill="#1cab8f"/>
      <path id="Path_698" data-name="Path 698" d="M340.258,119.605a2.739,2.739,0,1,0,2.736,2.739A2.74,2.74,0,0,0,340.258,119.605Z" transform="translate(52.865 30.895)" fill="#1cab8f"/>
      <path id="Path_699" data-name="Path 699" d="M347.436,119.605a2.739,2.739,0,1,0,2.738,2.739A2.732,2.732,0,0,0,347.436,119.605Z" transform="translate(57.274 30.895)" fill="#1cab8f"/>
      <path id="Path_700" data-name="Path 700" d="M354.621,119.605a2.739,2.739,0,1,0,2.73,2.739A2.734,2.734,0,0,0,354.621,119.605Z" transform="translate(61.679 30.895)" fill="#1cab8f"/>
      <path id="Path_701" data-name="Path 701" d="M361.809,119.605a2.739,2.739,0,1,0,2.736,2.739A2.743,2.743,0,0,0,361.809,119.605Z" transform="translate(66.081 30.895)" fill="#1cab8f"/>
      <path id="Path_702" data-name="Path 702" d="M284.813,128.644a2.741,2.741,0,0,0-2.741-2.741,2.808,2.808,0,0,0-.836.129l2.683,4.635A2.739,2.739,0,0,0,284.813,128.644Z" transform="translate(18.346 34.758)" fill="#1cab8f"/>
      <path id="Path_703" data-name="Path 703" d="M289.979,125.9a2.739,2.739,0,1,0,2.743,2.741A2.739,2.739,0,0,0,289.979,125.9Z" transform="translate(22.029 34.758)" fill="#1cab8f"/>
      <path id="Path_704" data-name="Path 704" d="M297.163,125.9a2.739,2.739,0,1,0,2.743,2.741A2.742,2.742,0,0,0,297.163,125.9Z" transform="translate(26.433 34.758)" fill="#1cab8f"/>
      <path id="Path_705" data-name="Path 705" d="M304.348,125.9a2.739,2.739,0,1,0,2.733,2.741A2.743,2.743,0,0,0,304.348,125.9Z" transform="translate(30.837 34.758)" fill="#1cab8f"/>
      <path id="Path_706" data-name="Path 706" d="M311.526,125.9a2.739,2.739,0,1,0,2.736,2.741A2.739,2.739,0,0,0,311.526,125.9Z" transform="translate(35.245 34.758)" fill="#1cab8f"/>
      <path id="Path_707" data-name="Path 707" d="M318.706,125.9a2.739,2.739,0,1,0,2.739,2.741A2.737,2.737,0,0,0,318.706,125.9Z" transform="translate(39.651 34.758)" fill="#1cab8f"/>
      <path id="Path_708" data-name="Path 708" d="M325.893,125.9a2.739,2.739,0,1,0,2.734,2.741A2.741,2.741,0,0,0,325.893,125.9Z" transform="translate(44.054 34.758)" fill="#1cab8f"/>
      <path id="Path_709" data-name="Path 709" d="M333.073,125.9a2.739,2.739,0,1,0,2.739,2.741A2.745,2.745,0,0,0,333.073,125.9Z" transform="translate(48.459 34.758)" fill="#1cab8f"/>
      <path id="Path_710" data-name="Path 710" d="M340.258,125.9a2.739,2.739,0,1,0,2.736,2.741A2.739,2.739,0,0,0,340.258,125.9Z" transform="translate(52.865 34.758)" fill="#1cab8f"/>
      <path id="Path_711" data-name="Path 711" d="M347.436,125.9a2.739,2.739,0,1,0,2.738,2.741A2.732,2.732,0,0,0,347.436,125.9Z" transform="translate(57.274 34.758)" fill="#1cab8f"/>
      <path id="Path_712" data-name="Path 712" d="M354.621,125.9a2.739,2.739,0,1,0,2.73,2.741A2.733,2.733,0,0,0,354.621,125.9Z" transform="translate(61.679 34.758)" fill="#1cab8f"/>
      <path id="Path_713" data-name="Path 713" d="M359.068,128.644a2.751,2.751,0,0,0,.894,2.023l2.676-4.635a2.739,2.739,0,0,0-3.57,2.612Z" transform="translate(66.081 34.758)" fill="#1cab8f"/>
      <path id="Path_714" data-name="Path 714" d="M289.979,132.2a2.737,2.737,0,1,0,2.743,2.736A2.737,2.737,0,0,0,289.979,132.2Z" transform="translate(22.029 38.621)" fill="#1cab8f"/>
      <path id="Path_715" data-name="Path 715" d="M297.163,132.2a2.737,2.737,0,1,0,2.743,2.736A2.74,2.74,0,0,0,297.163,132.2Z" transform="translate(26.433 38.621)" fill="#1cab8f"/>
      <path id="Path_716" data-name="Path 716" d="M304.348,132.2a2.737,2.737,0,1,0,2.733,2.736A2.741,2.741,0,0,0,304.348,132.2Z" transform="translate(30.837 38.621)" fill="#1cab8f"/>
      <path id="Path_717" data-name="Path 717" d="M311.526,132.2a2.737,2.737,0,1,0,2.736,2.736A2.736,2.736,0,0,0,311.526,132.2Z" transform="translate(35.245 38.621)" fill="#1cab8f"/>
      <path id="Path_718" data-name="Path 718" d="M318.706,132.2a2.737,2.737,0,1,0,2.739,2.736A2.735,2.735,0,0,0,318.706,132.2Z" transform="translate(39.651 38.621)" fill="#1cab8f"/>
      <path id="Path_719" data-name="Path 719" d="M325.893,132.2a2.737,2.737,0,1,0,2.734,2.736A2.739,2.739,0,0,0,325.893,132.2Z" transform="translate(44.054 38.621)" fill="#1cab8f"/>
      <path id="Path_720" data-name="Path 720" d="M333.073,132.2a2.737,2.737,0,1,0,2.739,2.736A2.743,2.743,0,0,0,333.073,132.2Z" transform="translate(48.459 38.621)" fill="#1cab8f"/>
      <path id="Path_721" data-name="Path 721" d="M340.258,132.2a2.737,2.737,0,1,0,2.736,2.736A2.737,2.737,0,0,0,340.258,132.2Z" transform="translate(52.865 38.621)" fill="#1cab8f"/>
      <path id="Path_722" data-name="Path 722" d="M347.436,132.2a2.737,2.737,0,1,0,2.738,2.736A2.73,2.73,0,0,0,347.436,132.2Z" transform="translate(57.274 38.621)" fill="#1cab8f"/>
      <path id="Path_723" data-name="Path 723" d="M354.621,132.2a2.737,2.737,0,1,0,2.73,2.736A2.731,2.731,0,0,0,354.621,132.2Z" transform="translate(61.679 38.621)" fill="#1cab8f"/>
      <path id="Path_724" data-name="Path 724" d="M291.95,141.235a2.746,2.746,0,0,0-2.743-2.739,2.591,2.591,0,0,0-.708.1l2.643,4.575A2.728,2.728,0,0,0,291.95,141.235Z" transform="translate(22.801 42.481)" fill="#1cab8f"/>
      <path id="Path_725" data-name="Path 725" d="M297.163,138.5a2.739,2.739,0,1,0,2.743,2.739A2.743,2.743,0,0,0,297.163,138.5Z" transform="translate(26.433 42.481)" fill="#1cab8f"/>
      <path id="Path_726" data-name="Path 726" d="M304.348,138.5a2.739,2.739,0,1,0,2.733,2.739A2.744,2.744,0,0,0,304.348,138.5Z" transform="translate(30.837 42.481)" fill="#1cab8f"/>
      <path id="Path_727" data-name="Path 727" d="M311.526,138.5a2.739,2.739,0,1,0,2.736,2.739A2.74,2.74,0,0,0,311.526,138.5Z" transform="translate(35.245 42.481)" fill="#1cab8f"/>
      <path id="Path_728" data-name="Path 728" d="M318.706,138.5a2.739,2.739,0,1,0,2.739,2.739A2.739,2.739,0,0,0,318.706,138.5Z" transform="translate(39.651 42.481)" fill="#1cab8f"/>
      <path id="Path_729" data-name="Path 729" d="M325.893,138.5a2.739,2.739,0,1,0,2.734,2.739A2.742,2.742,0,0,0,325.893,138.5Z" transform="translate(44.054 42.481)" fill="#1cab8f"/>
      <path id="Path_730" data-name="Path 730" d="M333.073,138.5a2.739,2.739,0,1,0,2.739,2.739A2.747,2.747,0,0,0,333.073,138.5Z" transform="translate(48.459 42.481)" fill="#1cab8f"/>
      <path id="Path_731" data-name="Path 731" d="M340.258,138.5a2.739,2.739,0,1,0,2.736,2.739A2.741,2.741,0,0,0,340.258,138.5Z" transform="translate(52.865 42.481)" fill="#1cab8f"/>
      <path id="Path_732" data-name="Path 732" d="M347.436,138.5a2.739,2.739,0,1,0,2.738,2.739A2.733,2.733,0,0,0,347.436,138.5Z" transform="translate(57.274 42.481)" fill="#1cab8f"/>
      <path id="Path_733" data-name="Path 733" d="M351.89,141.235a2.713,2.713,0,0,0,.8,1.938l2.636-4.575a2.576,2.576,0,0,0-.7-.1A2.735,2.735,0,0,0,351.89,141.235Z" transform="translate(61.679 42.481)" fill="#1cab8f"/>
      <path id="Path_734" data-name="Path 734" d="M297.163,144.792a2.74,2.74,0,1,0,2.743,2.739A2.744,2.744,0,0,0,297.163,144.792Z" transform="translate(26.433 46.342)" fill="#1cab8f"/>
      <path id="Path_735" data-name="Path 735" d="M304.348,144.792a2.74,2.74,0,1,0,2.733,2.739A2.745,2.745,0,0,0,304.348,144.792Z" transform="translate(30.837 46.342)" fill="#1cab8f"/>
      <path id="Path_736" data-name="Path 736" d="M311.526,144.792a2.74,2.74,0,1,0,2.736,2.739A2.741,2.741,0,0,0,311.526,144.792Z" transform="translate(35.245 46.342)" fill="#1cab8f"/>
      <path id="Path_737" data-name="Path 737" d="M318.706,144.792a2.74,2.74,0,1,0,2.739,2.739A2.74,2.74,0,0,0,318.706,144.792Z" transform="translate(39.651 46.342)" fill="#1cab8f"/>
      <path id="Path_738" data-name="Path 738" d="M325.893,144.792a2.74,2.74,0,1,0,2.734,2.739A2.743,2.743,0,0,0,325.893,144.792Z" transform="translate(44.054 46.342)" fill="#1cab8f"/>
      <path id="Path_739" data-name="Path 739" d="M333.073,144.792a2.74,2.74,0,1,0,2.739,2.739A2.748,2.748,0,0,0,333.073,144.792Z" transform="translate(48.459 46.342)" fill="#1cab8f"/>
      <path id="Path_740" data-name="Path 740" d="M340.258,144.792a2.74,2.74,0,1,0,2.736,2.739A2.742,2.742,0,0,0,340.258,144.792Z" transform="translate(52.865 46.342)" fill="#1cab8f"/>
      <path id="Path_741" data-name="Path 741" d="M347.436,144.792a2.74,2.74,0,1,0,2.738,2.739A2.734,2.734,0,0,0,347.436,144.792Z" transform="translate(57.274 46.342)" fill="#1cab8f"/>
      <path id="Path_742" data-name="Path 742" d="M296.343,151.089a2.615,2.615,0,0,0-.584.069l2.61,4.514a2.737,2.737,0,0,0-2.026-4.583Z" transform="translate(27.253 50.204)" fill="#1cab8f"/>
      <path id="Path_743" data-name="Path 743" d="M304.348,151.089a2.739,2.739,0,1,0,2.733,2.738A2.741,2.741,0,0,0,304.348,151.089Z" transform="translate(30.837 50.204)" fill="#1cab8f"/>
      <path id="Path_744" data-name="Path 744" d="M311.526,151.089a2.739,2.739,0,1,0,2.736,2.738A2.737,2.737,0,0,0,311.526,151.089Z" transform="translate(35.245 50.204)" fill="#1cab8f"/>
      <path id="Path_745" data-name="Path 745" d="M318.706,151.089a2.739,2.739,0,1,0,2.739,2.738A2.735,2.735,0,0,0,318.706,151.089Z" transform="translate(39.651 50.204)" fill="#1cab8f"/>
      <path id="Path_746" data-name="Path 746" d="M325.893,151.089a2.739,2.739,0,1,0,2.734,2.738A2.739,2.739,0,0,0,325.893,151.089Z" transform="translate(44.054 50.204)" fill="#1cab8f"/>
      <path id="Path_747" data-name="Path 747" d="M333.073,151.089a2.739,2.739,0,1,0,2.739,2.738A2.743,2.743,0,0,0,333.073,151.089Z" transform="translate(48.459 50.204)" fill="#1cab8f"/>
      <path id="Path_748" data-name="Path 748" d="M340.258,151.089a2.739,2.739,0,1,0,2.736,2.738A2.737,2.737,0,0,0,340.258,151.089Z" transform="translate(52.865 50.204)" fill="#1cab8f"/>
      <path id="Path_749" data-name="Path 749" d="M344.708,153.827a2.753,2.753,0,0,0,.7,1.846l2.61-4.514a2.574,2.574,0,0,0-.586-.069A2.73,2.73,0,0,0,344.708,153.827Z" transform="translate(57.274 50.204)" fill="#1cab8f"/>
      <path id="Path_750" data-name="Path 750" d="M304.348,157.389a2.739,2.739,0,1,0,2.733,2.738A2.741,2.741,0,0,0,304.348,157.389Z" transform="translate(30.837 54.068)" fill="#1cab8f"/>
      <path id="Path_751" data-name="Path 751" d="M311.526,157.389a2.739,2.739,0,1,0,2.736,2.738A2.737,2.737,0,0,0,311.526,157.389Z" transform="translate(35.245 54.068)" fill="#1cab8f"/>
      <path id="Path_752" data-name="Path 752" d="M318.706,157.389a2.739,2.739,0,1,0,2.739,2.738A2.735,2.735,0,0,0,318.706,157.389Z" transform="translate(39.651 54.068)" fill="#1cab8f"/>
      <path id="Path_753" data-name="Path 753" d="M325.893,157.389a2.739,2.739,0,1,0,2.734,2.738A2.739,2.739,0,0,0,325.893,157.389Z" transform="translate(44.054 54.068)" fill="#1cab8f"/>
      <path id="Path_754" data-name="Path 754" d="M333.073,157.389a2.739,2.739,0,1,0,2.739,2.738A2.743,2.743,0,0,0,333.073,157.389Z" transform="translate(48.459 54.068)" fill="#1cab8f"/>
      <path id="Path_755" data-name="Path 755" d="M340.258,157.389a2.739,2.739,0,1,0,2.736,2.738A2.737,2.737,0,0,0,340.258,157.389Z" transform="translate(52.865 54.068)" fill="#1cab8f"/>
      <path id="Path_756" data-name="Path 756" d="M303.478,163.686a2.8,2.8,0,0,0-.457.039l2.57,4.446a2.782,2.782,0,0,0,.62-1.75A2.733,2.733,0,0,0,303.478,163.686Z" transform="translate(31.707 57.93)" fill="#1cab8f"/>
      <path id="Path_757" data-name="Path 757" d="M311.526,163.686a2.738,2.738,0,1,0,2.736,2.735A2.736,2.736,0,0,0,311.526,163.686Z" transform="translate(35.245 57.93)" fill="#1cab8f"/>
      <path id="Path_758" data-name="Path 758" d="M318.706,163.686a2.738,2.738,0,1,0,2.739,2.735A2.734,2.734,0,0,0,318.706,163.686Z" transform="translate(39.651 57.93)" fill="#1cab8f"/>
      <path id="Path_759" data-name="Path 759" d="M325.893,163.686a2.738,2.738,0,1,0,2.734,2.735A2.738,2.738,0,0,0,325.893,163.686Z" transform="translate(44.054 57.93)" fill="#1cab8f"/>
      <path id="Path_760" data-name="Path 760" d="M333.073,163.686a2.738,2.738,0,1,0,2.739,2.735A2.743,2.743,0,0,0,333.073,163.686Z" transform="translate(48.459 57.93)" fill="#1cab8f"/>
      <path id="Path_761" data-name="Path 761" d="M337.52,166.421a2.735,2.735,0,0,0,.629,1.75l2.562-4.446a2.8,2.8,0,0,0-.453-.039A2.737,2.737,0,0,0,337.52,166.421Z" transform="translate(52.865 57.93)" fill="#1cab8f"/>
      <path id="Path_762" data-name="Path 762" d="M311.526,169.982a2.738,2.738,0,1,0,2.736,2.739A2.738,2.738,0,0,0,311.526,169.982Z" transform="translate(35.245 61.791)" fill="#1cab8f"/>
      <path id="Path_763" data-name="Path 763" d="M318.706,169.982a2.738,2.738,0,1,0,2.739,2.739A2.737,2.737,0,0,0,318.706,169.982Z" transform="translate(39.651 61.791)" fill="#1cab8f"/>
      <path id="Path_764" data-name="Path 764" d="M325.893,169.982a2.738,2.738,0,1,0,2.734,2.739A2.74,2.74,0,0,0,325.893,169.982Z" transform="translate(44.054 61.791)" fill="#1cab8f"/>
      <path id="Path_765" data-name="Path 765" d="M333.073,169.982a2.738,2.738,0,1,0,2.739,2.739A2.745,2.745,0,0,0,333.073,169.982Z" transform="translate(48.459 61.791)" fill="#1cab8f"/>
      <path id="Path_766" data-name="Path 766" d="M310.609,176.281a2.749,2.749,0,0,0-.324.018l2.509,4.354a2.673,2.673,0,0,0,.552-1.631A2.734,2.734,0,0,0,310.609,176.281Z" transform="translate(36.162 65.655)" fill="#1cab8f"/>
      <path id="Path_767" data-name="Path 767" d="M318.706,176.281a2.739,2.739,0,1,0,2.739,2.741A2.736,2.736,0,0,0,318.706,176.281Z" transform="translate(39.651 65.655)" fill="#1cab8f"/>
      <path id="Path_768" data-name="Path 768" d="M325.893,176.281a2.739,2.739,0,1,0,2.734,2.741A2.74,2.74,0,0,0,325.893,176.281Z" transform="translate(44.054 65.655)" fill="#1cab8f"/>
      <path id="Path_769" data-name="Path 769" d="M330.335,179.022a2.734,2.734,0,0,0,.55,1.631l2.51-4.354a2.561,2.561,0,0,0-.323-.018A2.744,2.744,0,0,0,330.335,179.022Z" transform="translate(48.459 65.655)" fill="#1cab8f"/>
      <path id="Path_770" data-name="Path 770" d="M318.706,182.576a2.739,2.739,0,1,0,2.739,2.741A2.734,2.734,0,0,0,318.706,182.576Z" transform="translate(39.651 69.515)" fill="#1cab8f"/>
      <path id="Path_771" data-name="Path 771" d="M325.893,182.576a2.739,2.739,0,1,0,2.734,2.741A2.738,2.738,0,0,0,325.893,182.576Z" transform="translate(44.054 69.515)" fill="#1cab8f"/>
      <path id="Path_772" data-name="Path 772" d="M317.739,188.876c-.066,0-.126,0-.19.008l2.465,4.254a2.737,2.737,0,0,0-2.275-4.262Z" transform="translate(40.617 73.379)" fill="#1cab8f"/>
      <path id="Path_773" data-name="Path 773" d="M323.152,191.611a2.749,2.749,0,0,0,.469,1.528l2.459-4.254c-.065,0-.121-.008-.187-.008A2.738,2.738,0,0,0,323.152,191.611Z" transform="translate(44.054 73.379)" fill="#1cab8f"/>
    </g>
    <g id="Group_320" data-name="Group 320" transform="translate(1626.527 3371.395)">
      <g id="Group_316" data-name="Group 316" transform="translate(64.473 120.159)">
        <g id="Group_314" data-name="Group 314">
          <path id="Path_776" data-name="Path 776" d="M268.373,162.656l-42.767-42.5-43.625,43.408L142.5,124.251l-40.452,40.184L64.49,127.089l-.017,12.649,37.571,37.387L142.5,136.91l39.465,39.306,43.654-43.4,42.75,42.507L304.473,139.4l-.009-12.634Z" transform="translate(-64.473 -120.159)" fill="#3eb7a0"/>
        </g>
        <g id="Group_315" data-name="Group 315" transform="translate(0 33.799)">
          <path id="Path_777" data-name="Path 777" d="M268.373,172.391l-42.767-42.5L181.981,173.3,142.5,133.988l-40.452,40.182L64.49,136.821l-.017,12.654,37.565,37.386L142.5,146.646l39.465,39.3,43.654-43.4,42.75,42.5,36.108-35.922-.009-12.637Z" transform="translate(-64.473 -129.889)" fill="#3eb7a0"/>
        </g>
      </g>
    </g>
  </g>
</svg>
