<svg xmlns="http://www.w3.org/2000/svg" width="358.934" height="403.784" viewBox="0 0 358.934 403.784">
  <g id="Group_327" data-name="Group 327" transform="translate(-366.814 -230.657)">
    <g id="Group_322" data-name="Group 322" transform="translate(366.814 362.725)">
      <path id="Path_778" data-name="Path 778" d="M367.8,499.2a3.365,3.365,0,0,1,0-4.752L481.54,380.709a3.355,3.355,0,0,1,4.75,0h0a3.357,3.357,0,0,1,0,4.748L372.558,499.2a3.383,3.383,0,0,1-4.761,0Z" transform="translate(-366.814 -228.461)" fill="#2c5daa"/>
      <path id="Path_779" data-name="Path 779" d="M437.872,397.954a3.359,3.359,0,0,1,0-4.75l47.958-47.962a3.366,3.366,0,0,1,4.756,0h0a3.37,3.37,0,0,1,0,4.754l-47.96,47.958a3.374,3.374,0,0,1-4.754,0Z" transform="translate(-303.699 -260.405)" fill="#2c5daa"/>
      <path id="Path_780" data-name="Path 780" d="M474.9,345.2a3.358,3.358,0,0,1,0-4.752l14.768-14.774a3.375,3.375,0,0,1,4.757,0h0a3.376,3.376,0,0,1,0,4.75L479.654,345.2a3.359,3.359,0,0,1-4.75,0Z" transform="translate(-270.346 -278.029)" fill="#2c5daa"/>
      <path id="Path_781" data-name="Path 781" d="M491.28,324.451a3.371,3.371,0,0,1,0-4.748l5.573-5.571a3.361,3.361,0,0,1,4.752,0h0a3.355,3.355,0,0,1,0,4.75l-5.569,5.569a3.362,3.362,0,0,1-4.756,0Z" transform="translate(-255.589 -288.425)" fill="#2c5daa"/>
      <path id="Path_782" data-name="Path 782" d="M504.3,311.444a3.349,3.349,0,0,1,0-4.75l5.569-5.567a3.354,3.354,0,0,1,4.752,0h0a3.347,3.347,0,0,1,0,4.746l-5.575,5.571a3.351,3.351,0,0,1-4.746,0Z" transform="translate(-243.874 -300.141)" fill="#2c5daa"/>
    </g>
    <g id="Group_323" data-name="Group 323" transform="translate(454.035 230.657)">
      <path id="Path_783" data-name="Path 783" d="M413.685,429.717a3.365,3.365,0,0,1,0-4.752L527.421,311.223a3.361,3.361,0,0,1,4.75,0h0a3.351,3.351,0,0,1,0,4.752L418.439,429.717a3.377,3.377,0,0,1-4.754,0Z" transform="translate(-412.703 -158.976)" fill="#2c5daa"/>
      <path id="Path_784" data-name="Path 784" d="M483.755,328.47a3.375,3.375,0,0,1,0-4.757l47.96-47.955a3.362,3.362,0,0,1,4.75,0h0a3.359,3.359,0,0,1,0,4.75L488.508,328.47a3.363,3.363,0,0,1-4.754,0Z" transform="translate(-349.591 -190.919)" fill="#2c5daa"/>
      <path id="Path_785" data-name="Path 785" d="M520.787,275.715a3.363,3.363,0,0,1,0-4.754l14.767-14.772a3.369,3.369,0,0,1,4.755,0h0a3.367,3.367,0,0,1,0,4.754l-14.77,14.772a3.361,3.361,0,0,1-4.752,0Z" transform="translate(-316.239 -208.545)" fill="#2c5daa"/>
      <path id="Path_786" data-name="Path 786" d="M537.176,254.965a3.349,3.349,0,0,1,0-4.75l5.563-5.569a3.365,3.365,0,0,1,4.752,0h0a3.363,3.363,0,0,1,0,4.75l-5.569,5.569a3.348,3.348,0,0,1-4.746,0Z" transform="translate(-301.481 -218.942)" fill="#2c5daa"/>
      <path id="Path_787" data-name="Path 787" d="M550.177,241.962a3.361,3.361,0,0,1,0-4.752l5.565-5.571a3.369,3.369,0,0,1,4.755,0h0a3.369,3.369,0,0,1,0,4.756l-5.573,5.567a3.363,3.363,0,0,1-4.748,0Z" transform="translate(-289.767 -230.657)" fill="#2c5daa"/>
    </g>
    <g id="Group_324" data-name="Group 324" transform="translate(399.211 238.133)">
      <path id="Path_788" data-name="Path 788" d="M384.849,433.648a3.344,3.344,0,0,1,0-4.752L498.581,315.155a3.354,3.354,0,0,1,4.752.008h0a3.356,3.356,0,0,1,0,4.75L389.59,433.648a3.347,3.347,0,0,1-4.74,0Z" transform="translate(-383.859 -162.911)" fill="#2c5daa"/>
      <path id="Path_789" data-name="Path 789" d="M454.916,332.4a3.36,3.36,0,0,1,0-4.754l47.964-47.96a3.368,3.368,0,0,1,4.752,0h0a3.365,3.365,0,0,1,0,4.752L459.671,332.4a3.369,3.369,0,0,1-4.756,0Z" transform="translate(-320.745 -194.853)" fill="#2c5daa"/>
      <path id="Path_790" data-name="Path 790" d="M491.945,279.646a3.352,3.352,0,0,1,0-4.75l14.768-14.774a3.359,3.359,0,0,1,4.75,0h0a3.349,3.349,0,0,1,0,4.755L496.7,279.646a3.345,3.345,0,0,1-4.75,0Z" transform="translate(-287.394 -212.48)" fill="#2c5daa"/>
      <path id="Path_791" data-name="Path 791" d="M508.329,258.9a3.367,3.367,0,0,1,0-4.754l5.573-5.567a3.357,3.357,0,0,1,4.742,0h0a3.358,3.358,0,0,1,0,4.752l-5.565,5.569a3.355,3.355,0,0,1-4.75,0Z" transform="translate(-272.633 -222.874)" fill="#2c5daa"/>
      <path id="Path_792" data-name="Path 792" d="M521.333,245.9a3.372,3.372,0,0,1,0-4.752l5.569-5.573a3.369,3.369,0,0,1,4.756,0h0a3.367,3.367,0,0,1,0,4.754l-5.571,5.571a3.37,3.37,0,0,1-4.754,0Z" transform="translate(-260.918 -234.59)" fill="#2c5daa"/>
    </g>
  </g>
</svg>
