<svg xmlns="http://www.w3.org/2000/svg" width="48" height="73" viewBox="0 0 48 73">
  <g id="Group_261" data-name="Group 261" transform="translate(-599 -2330)">
    <path id="Rectangle_479" data-name="Rectangle 479" d="M0,0H25A23,23,0,0,1,48,23v0A23,23,0,0,1,25,46H23A23,23,0,0,1,0,23V0A0,0,0,0,1,0,0Z" transform="translate(599 2357)" fill="#1cab8f"/>
    <path id="Rectangle_480" data-name="Rectangle 480" d="M11.5,0h1A11.5,11.5,0,0,1,24,11.5v0A11.5,11.5,0,0,1,12.5,23H0a0,0,0,0,1,0,0V11.5A11.5,11.5,0,0,1,11.5,0Z" transform="translate(599 2330)" fill="#2c5daa"/>
  </g>
</svg>
