<svg xmlns="http://www.w3.org/2000/svg" xmlns:xlink="http://www.w3.org/1999/xlink" width="51" height="51" viewBox="0 0 51 51">
  <defs>
    <clipPath id="clip-path">
      <rect id="Rectangle_573" data-name="Rectangle 573" width="51" height="51" transform="translate(1228 1029)" fill="#fff" stroke="#707070" stroke-width="1"/>
    </clipPath>
  </defs>
  <g id="whatsup" transform="translate(-1228 -1029)" clip-path="url(#clip-path)">
    <g id="Layer_2" data-name="Layer 2" transform="translate(1228 1029)">
      <g id="Layer_1" data-name="Layer 1">
        <rect id="Rectangle_584" data-name="Rectangle 584" width="51" height="51" rx="10.983" fill="#53ba63"/>
        <g id="logo">
          <path id="Path_808" data-name="Path 808" d="M36.274,15.016a14.7,14.7,0,0,0-23.135,17.7l-2.091,7.615,7.8-2.049a14.683,14.683,0,0,0,7.025,1.791h0a14.694,14.694,0,0,0,10.4-25.055ZM25.87,37.625h0a12.163,12.163,0,0,1-6.221-1.705l-.45-.268-4.623,1.212,1.233-4.5-.29-.461a12.216,12.216,0,1,1,10.35,5.727Zm6.7-9.149c-.365-.182-2.145-1.073-2.51-1.191s-.579-.193-.826.182-.955,1.191-1.169,1.437-.418.279-.794.086a10.093,10.093,0,0,1-2.95-1.813,10.961,10.961,0,0,1-2.049-2.553c-.215-.365,0-.558.161-.74s.375-.429.558-.644a2.563,2.563,0,0,0,.365-.611.676.676,0,0,0,0-.644c-.086-.193-.826-1.995-1.126-2.735s-.6-.611-.826-.622H20.7a1.351,1.351,0,0,0-.976.461,4.108,4.108,0,0,0-1.287,3.068,7.079,7.079,0,0,0,1.5,3.8A16.271,16.271,0,0,0,26.213,31.5a21.452,21.452,0,0,0,2.091.772,4.977,4.977,0,0,0,2.306.139A3.765,3.765,0,0,0,33.1,30.675a3.218,3.218,0,0,0,.215-1.748c-.129-.2-.375-.3-.74-.483Z" fill="#fff"/>
        </g>
      </g>
    </g>
  </g>
</svg>
