<svg xmlns="http://www.w3.org/2000/svg" xmlns:xlink="http://www.w3.org/1999/xlink" width="25" height="25" viewBox="0 0 25 25">
  <defs>
    <clipPath id="clip-path">
      <rect id="Rectangle_699" data-name="Rectangle 699" width="25" height="25" transform="translate(-14080 -16799)" fill="#707b9b" stroke="#707070" stroke-width="1"/>
    </clipPath>
  </defs>
  <g id="Mask_Group_137" data-name="Mask Group 137" transform="translate(14080 16799)" clip-path="url(#clip-path)">
    <g id="Scaner" transform="translate(-14080.524 -16799.809)">
      <path id="Path_945" data-name="Path 945" d="M25.511,20.574a2.869,2.869,0,0,0-.636-1.848c-.708-1.008-1.42-2.036-2.112-3.034s-1.4-2.021-2.107-3.029c-.173-.244-.366-.478-.56-.708-.092-.107-.183-.219-.275-.331l-.041-.051.046-.051A16.861,16.861,0,0,0,21.658,9.1c.26-.392.529-.794.809-1.186.55-.764,1.094-1.552,1.619-2.311.321-.468.657-.952.993-1.43A1.963,1.963,0,0,0,25.415,2.3,2.132,2.132,0,0,0,23.674.86a3.022,3.022,0,0,0-.6-.046H2.967A2.436,2.436,0,0,0,.982,1.67,2.274,2.274,0,0,0,.534,2.713v.473a3.8,3.8,0,0,0,.652,1.3c.036.051.071.107.107.158.555.789,1.11,1.588,1.659,2.382C3.7,8.1,4.469,9.208,5.227,10.3c.214.3.448.6.672.881.107.132.214.27.316.4l.041.051-.046.046A17.986,17.986,0,0,0,4.362,14.13c-.26.392-.529.794-.809,1.186C2.774,16.4,1.965,17.566.926,19.1a2.766,2.766,0,0,0-.285.606c-.036.1-.076.2-.117.3v3.8a2.516,2.516,0,0,0,.5,1.171,2.159,2.159,0,0,0,1.379.789.307.307,0,0,1,.081.025.072.072,0,0,0,.031.01H23.521a2.578,2.578,0,0,0,1.1-.448,2.158,2.158,0,0,0,.881-1.756c.005-.392-.005-.794-.015-1.176C25.491,21.816,25.476,21.19,25.511,20.574ZM3.3,5.762c-.484-.7-.967-1.39-1.451-2.087a1.231,1.231,0,0,1-.209-1.211,1.235,1.235,0,0,1,1.049-.646A2.7,2.7,0,0,1,3.039,1.8H23.073a1.647,1.647,0,0,1,1.038.3.987.987,0,0,1,.28,1.3,2.614,2.614,0,0,1-.178.28l-.84,1.206c-1.211,1.741-2.469,3.543-3.69,5.324a1.926,1.926,0,0,1-1.67.9c-1.654,0-3.319.005-4.983.005s-3.329,0-4.983-.005a1.92,1.92,0,0,1-1.67-.9C5.355,8.719,4.306,7.213,3.3,5.762ZM1.675,19.785a2.294,2.294,0,0,1,.153-.239c1.5-2.153,3.044-4.377,4.561-6.571a1.921,1.921,0,0,1,1.654-.881h9.992a1.9,1.9,0,0,1,1.634.865c.326.473.657.947.982,1.42,1.171,1.695,2.382,3.451,3.6,5.166a1.157,1.157,0,0,1,.188,1.135,1.224,1.224,0,0,1-.977.682,2.661,2.661,0,0,1-.4.02H13.015c-3.293,0-6.7,0-10.048.01a1.622,1.622,0,0,1-1-.275A1,1,0,0,1,1.675,19.785Zm22.854,3.838a1.208,1.208,0,0,1-1.191,1.186,1.064,1.064,0,0,1-.127.005h-.122c-6.6,0-13.417,0-20.121-.005a1.872,1.872,0,0,1-.7-.112,1.039,1.039,0,0,1-.708-.911c-.025-.377-.02-.753-.015-1.15,0-.163.005-.331.005-.5V22l.117.066a3.127,3.127,0,0,0,1.771.3c.122-.005.249-.005.372-.005,6.3.005,12.7.005,18.9.005H22.8a2.875,2.875,0,0,0,1.619-.321l.117-.071v.137c0,.158,0,.316.005.463C24.544,22.941,24.549,23.287,24.529,23.623Z" fill="#707b9b"/>
      <path id="Path_946" data-name="Path 946" d="M3.868,20.065a1.61,1.61,0,0,0,.351.025h8.785c2.912,0,5.925,0,8.882-.005.3,0,.5-.046.626-.275.127-.249.01-.448-.143-.662-1.359-1.924-2.606-3.7-3.812-5.416a.741.741,0,0,0-.672-.356c-2.906.005-6.1,0-9.742-.01a.781.781,0,0,0-.718.366c-.83,1.206-1.68,2.433-2.5,3.614q-.626.9-1.252,1.807l-.025.036a1.358,1.358,0,0,0-.112.183.48.48,0,0,0-.005.433A.471.471,0,0,0,3.868,20.065Zm1.161-1.084c.01-.02.02-.036.031-.056a1.1,1.1,0,0,1,.092-.153c.982-1.41,1.965-2.835,2.922-4.215a.413.413,0,0,1,.382-.193c1.008,0,2.011.005,3.018.005,1.99,0,4.047.005,6.067.01a.5.5,0,0,1,.366.163c.789,1.11,1.588,2.24,2.357,3.334l.692.982a.3.3,0,0,1,.02.041c.01.02.02.041.041.076l.066.117h-.132c-5.192,0-10.557,0-15.855.005H4.963Z" fill="#707b9b"/>
      <path id="Path_947" data-name="Path 947" d="M21.622,23.1h-.015a.491.491,0,0,0-.341.143.483.483,0,0,0-.153.346.509.509,0,0,0,.484.489.485.485,0,0,0,.341-.137.486.486,0,0,0-.316-.84Z" fill="#707b9b"/>
      <path id="Path_948" data-name="Path 948" d="M19.317,23.1a.486.486,0,0,0-.351.153.463.463,0,0,0-.132.351.506.506,0,0,0,.5.473.494.494,0,0,0,.468-.5h0A.5.5,0,0,0,19.317,23.1Z" fill="#707b9b"/>
    </g>
  </g>
</svg>
