<svg xmlns="http://www.w3.org/2000/svg" width="30.71" height="22.619" viewBox="0 0 30.71 22.619">
  <g id="Group_765" data-name="Group 765" transform="translate(-1888.08 -2162.781)">
    <path id="Path_2131" data-name="Path 2131" d="M1916.209,2168.511c-.385,0-.769,0-1.154,0l-.605,0h-1.8v-5.1c0-.568-.064-.633-.628-.633h-17.387c-.6,0-.718.117-.719.735q0,1.645,0,3.289v1.695h-.013c-.064,0-.117.009-.169.009h-1.072c-.666,0-1.331,0-2,0a2.494,2.494,0,0,0-2.583,2.585c0,.427,0,.853,0,1.28v.639q0,.887,0,1.774c0,1.327,0,2.654,0,3.98a2.475,2.475,0,0,0,2.538,2.531h3.453v1.157q0,1.162,0,2.325c0,.5.118.619.6.619h17.515c.479,0,.6-.127.6-.62l0-3.228c0-.074,0-.149.008-.23v-.022h1.153q1.112,0,2.224,0a2.494,2.494,0,0,0,2.608-2.591q.007-3.8,0-7.608A2.491,2.491,0,0,0,1916.209,2168.511Zm-4.3,10.869v5.134h-16.96v-5.134Zm.88-.321c0-.426-.116-.543-.533-.543h-17.646c-.4,0-.532.139-.535.552,0,.331,0,.661,0,1.009v.367h-2.714c-.245,0-.49,0-.734,0a1.613,1.613,0,0,1-1.683-1.688q-.007-2.118,0-4.236v-2.334c0-.378,0-.756,0-1.134a1.6,1.6,0,0,1,1.66-1.678c.518-.006,1.04-.007,1.561-.007.588,0,1.175,0,1.75,0h.043l5.826.024q6.161.026,12.321.046c.764,0,1.537-.017,2.286-.035.588-.014,1.176-.028,1.764-.033a1.756,1.756,0,0,1,1.3.456,1.822,1.822,0,0,1,.477,1.329q0,3.757,0,7.513a1.627,1.627,0,0,1-1.761,1.771q-1.257,0-2.512,0H1913c-.06,0-.119,0-.189-.009h-.023v-.335C1912.792,2179.748,1912.792,2179.4,1912.791,2179.06Zm-17.951-10.487v-4.929h16.93v4.929Z" fill="#707b9b"/>
    <path id="Path_2132" data-name="Path 2132" d="M1925.366,2208.529h.064a1.115,1.115,0,0,0,.181-.012.494.494,0,0,0,.455-.556.487.487,0,0,0-.5-.476c-.083-.005-.167,0-.25,0h-23.091c-.357,0-.769.057-.785.5a.468.468,0,0,0,.122.356.9.9,0,0,0,.666.19h23.139Z" transform="translate(-10.458 -34.992)" fill="#707b9b"/>
    <path id="Path_2133" data-name="Path 2133" d="M1970.754,2219.91a16.3,16.3,0,0,1-1.075-1.626.825.825,0,0,0-1.051-.443l-.081.021v3.081h.68v-2.1a15.888,15.888,0,0,1,1.117,1.678.743.743,0,0,0,.683.44,1.338,1.338,0,0,0,.322-.044l.082-.021v-3.079h-.679Z" transform="translate(-62.994 -43.067)" fill="#707b9b"/>
    <path id="Path_2134" data-name="Path 2134" d="M1953.867,2219.915a15.938,15.938,0,0,1-1.088-1.646.806.806,0,0,0-1.02-.429l-.082.021v3.083h.663v-2.1c.4.546.758,1.105,1.109,1.648l.015.023c.222.342.326.462.566.462a2.209,2.209,0,0,0,.428-.063l.086-.018v-3.07h-.678Z" transform="translate(-49.787 -43.069)" fill="#707b9b"/>
    <path id="Path_2135" data-name="Path 2135" d="M2000.385,2219.788a.942.942,0,0,1,1.22.556l.2.328c.154.253.239.343.413.343a1.9,1.9,0,0,0,.391-.068l.155-.036-.961-1.394a.814.814,0,0,0,.4-.907.947.947,0,0,0-.974-.738c-.324-.021-.655-.016-.973-.011-.142,0-.283,0-.424,0h-.108v3.12h.661Zm.787-.605a4.08,4.08,0,0,1-.585.012l-.186,0v-.8l.174.006a5.771,5.771,0,0,1,.621.043.329.329,0,0,1,.294.365A.341.341,0,0,1,2001.172,2219.183Z" transform="translate(-87.4 -43.116)" fill="#707b9b"/>
    <path id="Path_2136" data-name="Path 2136" d="M1937.891,2220.577q-.18-.389-.362-.778c-.262-.561-.532-1.14-.787-1.715a.47.47,0,0,0-.5-.278.434.434,0,0,0-.466.294c-.247.547-.5,1.092-.754,1.636q-.193.414-.385.827a1.132,1.132,0,0,0-.058.168c-.007.023-.013.046-.021.068l-.016.051.137.2.082-.035a1.655,1.655,0,0,1,.162-.054c.168-.051.327-.1.355-.227.114-.519.426-.585.927-.526a1.5,1.5,0,0,0,.413,0c.313-.052.464.046.524.332a.54.54,0,0,0,.238.378.624.624,0,0,0,.509.013l.1-.033-.053-.166A1.12,1.12,0,0,0,1937.891,2220.577Zm-1.151-.936h-.95l.472-1.065Z" transform="translate(-36.376 -43.076)" fill="#707b9b"/>
    <path id="Path_2137" data-name="Path 2137" d="M1907.289,2219a4.66,4.66,0,0,0-.563-.134c-.105-.02-.211-.041-.315-.065l-.1-.022c-.26-.053-.395-.093-.395-.332,0-.192.2-.32.539-.344a2.338,2.338,0,0,1,.515.028c.126.02.252.052.411.092l.271.068.221.052-.1-.2c-.028-.058-.049-.118-.069-.172-.048-.132-.089-.245-.194-.275a2.642,2.642,0,0,0-1.666-.019.863.863,0,0,0-.642.829.8.8,0,0,0,.67.8c.175.052.356.086.531.119.136.026.273.052.407.086.306.077.415.182.4.388a.388.388,0,0,1-.421.349c-.321,0-.648-.033-.995-.066-.156-.014-.318-.03-.488-.043l-.2-.016.1.178a.887.887,0,0,1,.041.092c.045.112.1.238.21.274a3.44,3.44,0,0,0,1.026.171,2.544,2.544,0,0,0,.765-.115.878.878,0,0,0,.7-.857A.855.855,0,0,0,1907.289,2219Z" transform="translate(-13.326 -42.871)" fill="#707b9b"/>
    <path id="Path_2138" data-name="Path 2138" d="M1986.279,2220.5v-.851h1.531a.152.152,0,0,0,.105-.052l.042-.033v-.455h-1.675v-.659h1.762l-.026-.519H1985.6v3.116h2.5l-.034-.547Z" transform="translate(-76.341 -43.171)" fill="#707b9b"/>
    <path id="Path_2139" data-name="Path 2139" d="M1922.421,2218.414l.105.045.039-.108a.479.479,0,0,0,0-.384.573.573,0,0,0-.365-.257,2.7,2.7,0,0,0-1.507-.061,1.608,1.608,0,0,0-.025,3.1,2.587,2.587,0,0,0,.676.091,2.528,2.528,0,0,0,.895-.165c.366-.138.4-.212.306-.608l-.031-.127-.119.054c-.887.4-1.6.379-1.961-.067a1.338,1.338,0,0,1-.018-1.429C1920.859,2217.918,1921.75,2218.132,1922.421,2218.414Z" transform="translate(-24.596 -42.891)" fill="#707b9b"/>
    <rect id="Rectangle_1367" data-name="Rectangle 1367" width="13.727" height="0.599" transform="translate(1896.569 2180.573)" fill="#707b9b"/>
    <path id="Path_2140" data-name="Path 2140" d="M1940.9,2250.95h-13.735v.6h13.762Z" transform="translate(-30.598 -69.023)" fill="#707b9b"/>
    <rect id="Rectangle_1368" data-name="Rectangle 1368" width="13.736" height="0.603" transform="translate(1896.573 2183.288)" fill="#707b9b"/>
    <path id="Path_2141" data-name="Path 2141" d="M1940.208,2170.926h-13.715v.607h13.732l.017-.174a1.476,1.476,0,0,0,.012-.167.588.588,0,0,0-.019-.13Z" transform="translate(-30.072 -6.376)" fill="#707b9b"/>
    <rect id="Rectangle_1369" data-name="Rectangle 1369" width="13.74" height="0.598" transform="translate(1896.423 2165.907)" fill="#707b9b"/>
    <rect id="Rectangle_1370" data-name="Rectangle 1370" width="13.739" height="0.586" transform="translate(1896.421 2167.274)" fill="#707b9b"/>
  </g>
</svg>
