<svg xmlns="http://www.w3.org/2000/svg" width="28.977" height="30.477" viewBox="0 0 28.977 30.477">
  <g id="Group_768" data-name="Group 768" transform="translate(-1602.28 -2307.938)">
    <path id="Path_2161" data-name="Path 2161" d="M1643.445,2332.572l-10.612-.021q-3.418.011-6.836.02c-1.682,0-3.364.009-5.045,0-.564,0-.888.178-.863.8.021.53.027,1.063,0,1.593-.033.594.2.847.808.829.973-.03,1.948.011,2.92-.017.415-.012.521.128.518.528q-.026,3.186,0,6.373c0,.414-.123.53-.528.519-.973-.027-1.947.005-2.921-.014-.557-.011-.826.2-.8.781.022.464,0,.929,0,1.394,0,.992.049,1.039,1.058,1.041l11.682.02c2.211-.007,4.421-.024,6.632-.014.565,0,.8-.209.791-.782-.02-1.371,0-2.742-.007-4.113,0-1.45-.112-1.482,1.424-1.476a2.654,2.654,0,0,0,2.828-2.883q0-1.757,0-3.516C1644.5,2332.664,1644.41,2332.574,1643.445,2332.572Zm-21.793,2.112c-.548.138-.472-.222-.508-.561-.058-.548.294-.441.617-.478.575-.064.4.336.445.632C1622.274,2334.78,1621.956,2334.732,1621.651,2334.684Zm.025,10.645c-.456,0-.519-.167-.54-.571-.026-.5.208-.549.6-.483.448-.125.466.135.479.5C1622.229,2345.19,1622.12,2345.328,1621.676,2345.329Zm19.115-11.694c.538-.027.464.282.492.619.04.475-.214.508-.551.427-.5.143-.476-.158-.5-.5C1640.2,2333.729,1640.378,2333.655,1640.791,2333.635Zm-2.13,0c.445,0,.535.15.545.566.012.473-.166.589-.557.479-.47.127-.515-.106-.52-.481C1638.123,2333.79,1638.206,2333.63,1638.661,2333.635Zm-2.654.6c.041-.325-.068-.715.482-.57.411-.08.6.027.591.5-.008.419-.1.574-.544.55C1636.187,2334.7,1635.949,2334.695,1636.007,2334.235Zm-1.552-.594c.53-.049.454.271.493.607.065.571-.316.421-.621.458-.478.058-.5-.209-.417-.531C1633.773,2333.637,1634.1,2333.673,1634.455,2333.641Zm-2.7.592c.036-.339-.035-.657.5-.591.35.043.728-.037.543.49.114.477-.078.6-.508.581C1631.929,2334.7,1631.7,2334.69,1631.752,2334.233Zm-1.607-.594c.449,0,.548.144.551.568s-.132.567-.534.478c-.423.1-.526-.087-.514-.492C1629.661,2333.827,1629.7,2333.639,1630.146,2333.64Zm-2.057,0c.506-.029.542.217.48.6.128.455-.145.457-.5.473-.424.019-.552-.1-.554-.54C1627.512,2333.713,1627.689,2333.659,1628.089,2333.636Zm-2.087.006c.571-.065.421.316.458.622.058.478-.209.5-.531.416-.538.137-.5-.188-.534-.545C1625.346,2333.606,1625.665,2333.681,1626,2333.643Zm-2.186,1.038c-.521.132-.522-.159-.549-.534-.037-.512.248-.467.6-.505.563-.062.436.3.47.613C1624.383,2334.713,1624.154,2334.778,1623.815,2334.68Zm-.052,10.643c-.528.048-.455-.269-.494-.606-.066-.571.315-.423.621-.459.476-.057.5.207.417.531C1624.445,2345.325,1624.121,2345.291,1623.763,2345.323Zm2.127,0c-.528.048-.455-.268-.494-.606-.066-.571.315-.418.62-.461.5-.07.46.239.43.579C1626.57,2345.324,1626.249,2345.291,1625.89,2345.323Zm2.144,0c-.5.028-.479-.227-.516-.59-.056-.551.283-.443.606-.481.466-.054.5.193.445.551C1628.685,2345.271,1628.425,2345.3,1628.034,2345.326Zm2.073-.026c-.505.1-.411-.249-.455-.559-.078-.56.284-.448.609-.482.535-.056.388.31.424.595C1630.748,2345.344,1630.446,2345.335,1630.107,2345.3Zm2.15.027c-.486.018-.573-.185-.473-.566-.134-.48.125-.5.488-.51.419-.015.556.094.557.538S1632.663,2345.312,1632.258,2345.327Zm1.093-2.118c-1.26-.016-2.52-.006-3.78-.006-1.215,0-2.431-.012-3.647.007-.376.006-.551-.059-.546-.5.022-2.166.016-4.332,0-6.5,0-.341.1-.461.449-.459q3.813.019,7.626,0c.362,0,.444.133.442.466-.011,2.166-.018,4.333,0,6.5C1633.908,2343.167,1633.718,2343.214,1633.35,2343.209Zm1.038,2.119c-.49.021-.559-.2-.486-.593-.121-.441.12-.478.492-.485.411-.008.565.081.562.534S1634.8,2345.31,1634.388,2345.328Zm2.118,0c-.517.036-.475-.24-.5-.591-.034-.435.143-.544.527-.462.441-.1.541.09.549.517C1637.089,2345.256,1636.9,2345.3,1636.506,2345.328Zm2.079-.009c-.572.064-.4-.332-.448-.628-.077-.516.264-.435.6-.422.5-.125.428.228.464.57C1639.257,2345.382,1638.911,2345.282,1638.585,2345.319Zm4.811-9.023a2.9,2.9,0,0,0,0,.4c0,1.806-.453,2.257-2.274,2.258-1.4,0-1.932.526-1.933,1.9,0,.619-.011,1.239,0,1.857.008.312-.037.488-.421.48-1.15-.023-2.3-.018-3.45,0-.3,0-.369-.11-.368-.386.008-2.211.011-4.423,0-6.634,0-.345.142-.391.433-.388,1.26.012,2.521.006,3.781.006,1.239,0,2.477.016,3.715-.01C1643.289,2335.765,1643.453,2335.887,1643.4,2336.3Zm-.492-1.579c-.425.006-.567-.1-.548-.542.016-.371.06-.546.5-.539s.63.108.534.556C1643.487,2334.608,1643.308,2334.711,1642.9,2334.717Z" transform="translate(-13.246 -18.313)" fill="#707b9b"/>
    <path id="Path_2162" data-name="Path 2162" d="M1635.129,2416.49a3.5,3.5,0,0,1,.4,0,4.068,4.068,0,0,1,.593,0c.452.068.535-.135.545-.551.012-.469-.136-.627-.593-.575a5.648,5.648,0,0,1-.922,0c-.4-.02-.684-.032-.68.553C1634.472,2416.478,1634.7,2416.54,1635.129,2416.49Z" transform="translate(-23.949 -79.923)" fill="#707b9b"/>
    <path id="Path_2163" data-name="Path 2163" d="M1624.886,2321.952v-1.076a.94.94,0,0,0-.939-.939h-12.591a.941.941,0,0,0-.939.939v20.063a.94.94,0,0,0,.939.939h12.591a.94.94,0,0,0,.939-.939V2338.1h-.665v2.843a.274.274,0,0,1-.274.274h-12.591a.275.275,0,0,1-.274-.274v-20.063a.275.275,0,0,1,.274-.274h12.591a.275.275,0,0,1,.274.274v1.076Z" transform="translate(-6.053 -8.928)" fill="#707b9b"/>
    <path id="Path_2164" data-name="Path 2164" d="M1620.915,2313.281v-3.988a1.357,1.357,0,0,0-1.356-1.356h-15.923a1.357,1.357,0,0,0-1.356,1.356v25.373a1.338,1.338,0,0,0,.057.387l0,2.2a1.243,1.243,0,0,0,.263.915.928.928,0,0,0,.682.239h16.753a.646.646,0,0,0,.093-.006.815.815,0,0,0,.777-.866q0-.819,0-1.638v-1.076a1.379,1.379,0,0,0,.01-.161v-5.754h-1.177v4.63a1.586,1.586,0,0,1-.589.059h-15.016c-.62,0-.651-.033-.677-.188v-24.121a.179.179,0,0,1,.179-.179h15.923a.179.179,0,0,1,.179.179v3.988Zm-7.433,23.6a.48.48,0,0,1-.091.347.453.453,0,0,1-.324.092h-1.876c-.33,0-.66,0-.99,0a.454.454,0,0,1-.339-.094.474.474,0,0,1-.1-.34c0-.311,0-.622,0-.933q0-.4,0-.794a.532.532,0,0,1,.1-.379.48.48,0,0,1,.34-.1h.018c.848.012,1.763.012,2.8,0a.54.54,0,0,1,.371.1.505.505,0,0,1,.092.364C1613.473,2335.657,1613.473,2336.192,1613.482,2336.886Z" transform="translate(0 0)" fill="#707b9b"/>
  </g>
</svg>
