<svg xmlns="http://www.w3.org/2000/svg" width="44.241" height="30" viewBox="0 0 44.241 30">
  <g id="Group_771" data-name="Group 771" transform="translate(-1856.605 -2296.863)">
    <path id="Path_2186" data-name="Path 2186" d="M1900.6,2314.73l-.721-.417q-1.1-.636-2.2-1.272l-1.5-.865q-.928-.532-1.855-1.067-.991-.573-1.98-1.149t-1.98-1.149q-1.181-.683-2.364-1.363l-1.971-1.136-1.829-1.06-1.663-.964-2.251-1.3-1.429-.824-.995-.575-7.259-4.2q-.375-.218-.751-.434a.466.466,0,0,0-.717.2,1.073,1.073,0,0,0-.984-.165.377.377,0,0,1-.047,0l-1.61.1c-.194.012-.387.025-.581.041l-1.842.146-.453.035c-.271.02-.542.041-.813.064a.485.485,0,0,0-.485.552,3.271,3.271,0,0,0,.085.481l.017.077c.012.052.022.1.033.157a1.877,1.877,0,0,0,.245.7,1.193,1.193,0,0,0-.249.027,2.009,2.009,0,0,0-1.113.691c-.161.184-.314.379-.463.566-.07.089-.139.177-.21.265l-.646.8c-.543.676-1.106,1.375-1.667,2.055a3.05,3.05,0,0,0-.631,1.187c-.105.4-.232.8-.355,1.19-.047.15-.094.3-.141.449q-.1.328-.2.654c-.129.411-.262.837-.387,1.258a.769.769,0,0,0,.358.869c.5.271.993.563,1.474.845l.429.252a1.048,1.048,0,0,1,.168.135.963.963,0,0,1,.07.073.843.843,0,0,0,.164.152c.1.062.2.115.292.166.064.034.128.068.19.1.155.091.31.183.464.276.324.193.658.394,1,.575.153.082.173.138.153.254a.462.462,0,0,0,.266.509c.758.429,1.507.861,2.209,1.266q2.031,1.173,4.06,2.348l1.513.877q1,.578,1.991,1.154t1.975,1.138l1.522.877.853.492c1.262.728,2.567,1.48,3.846,2.229a.578.578,0,0,0,.65.005c.108-.065.151-.06.207-.026.17.105.346.205.516.3s.361.206.537.315a4.542,4.542,0,0,0,1.845.733.644.644,0,0,1,.053.058l.029.034a.966.966,0,0,1,.069.094.661.661,0,0,0,.2.216c1.031.606,2.084,1.213,3.1,1.8l.309.178a.452.452,0,0,0,.217.065h.009l.223-.007c.364-.01.741-.021,1.112-.046s.726-.055,1.079-.085c.213-.019.425-.037.638-.054.188-.015.376-.028.564-.042.276-.02.552-.04.827-.064a.522.522,0,0,0,.278-.12c.546-.458,1.189-1,1.817-1.54a.2.2,0,0,1,.047-.034.112.112,0,0,1,.04.017.42.42,0,0,0,.348.028c.493-.213.984-.43,1.475-.648l.539-.239a1.593,1.593,0,0,1,.729-.195,1.06,1.06,0,0,0,.533-.17,2.775,2.775,0,0,0,1.092-1.123,2.461,2.461,0,0,0,.384-1.787c0-.008.007-.017.01-.025l.015-.036c.013-.035.029-.069.045-.1a.908.908,0,0,0,.092-.281c.031-.3.047-.61.062-.908l.006-.131q.033-.647.064-1.295l.043-.882v-.015a.474.474,0,0,1,.014-.115.18.18,0,0,1,.04-.071c.1-.082.2-.162.3-.242s.223-.179.331-.271a2.2,2.2,0,0,0,.688-.952A.564.564,0,0,0,1900.6,2314.73Zm-2.445,7.164a3.1,3.1,0,0,1-.042-.338l-.01-.114a.68.68,0,0,0-.335-.57l0-.015-.007.01-.042-.02a.446.446,0,0,1,.431-.068.368.368,0,0,1,.243.34,1.953,1.953,0,0,1-.247,1.1A.644.644,0,0,0,1898.157,2321.895Zm-4.062-.222c-.013.325-.029.651-.045.976-.011.222-.021.444-.031.666s-.018.435-.026.652l-.012.306c-.131-.076-.256-.148-.378-.225a.161.161,0,0,1,0-.028c0-.058,0-.115.009-.173s.007-.088.009-.132l.094-2.282c.132.075.259.147.381.223A.075.075,0,0,1,1894.1,2321.673Zm-.691,2.971c-.158.134-.31.263-.461.393l-.109.093c-.3.261-.608.522-.91.787a.427.427,0,0,1-.171.1l.013-.036c.072-.2.143-.4.219-.6a.3.3,0,0,0-.019-.283.271.271,0,0,0-.234-.11h-.009a2.232,2.232,0,0,0-.262.027c-.055.008-.11.017-.165.021-.089.008-.178.011-.267.016s-.155.008-.233.013l-.68.052-.589.045c.033-.111.065-.217.1-.322a.316.316,0,0,0-.1-.38.972.972,0,0,0,.32-.247.935.935,0,0,0,.25-.85.465.465,0,0,0-.222-.3.38.38,0,0,0-.3-.028.881.881,0,0,0-.093.039,1.656,1.656,0,0,0,.566-1.187.676.676,0,0,0-.244-.615.605.605,0,0,0-.584-.042c.227-.254.437-.523.641-.785.106-.137.212-.274.321-.409q.262-.325.522-.652c.413-.519.841-1.055,1.278-1.567a1.133,1.133,0,0,1,.975-.478.387.387,0,0,1,.366.237.318.318,0,0,0,.414.2,2.861,2.861,0,0,1,.628-.045.468.468,0,0,0-.121.027,1.059,1.059,0,0,0-.655.956.534.534,0,0,0,.158.437.4.4,0,0,0,.264.089.668.668,0,0,0,.119-.011.494.494,0,0,0,.186-.078,1.109,1.109,0,0,0,.513-.776l.036.537q.044.643.089,1.288c0,.062.014.123.024.184a1.711,1.711,0,0,1,.022.17.121.121,0,0,1-.03.1.1.1,0,0,1-.079.02c-.1-.012-.194-.03-.291-.047s-.206-.038-.31-.05a.7.7,0,0,0-.326.039,4.611,4.611,0,0,0-.48.227.357.357,0,0,0-.174.22,2.1,2.1,0,0,0-.051.385c-.008.2-.014.406-.019.609-.007.272-.015.544-.028.816-.011.231-.027.462-.043.693-.015.211-.03.421-.041.633a.357.357,0,0,0,.144.278c.063.045.128.084.2.123Zm-9.968-.752c-.181-.041-.361-.087-.551-.135l-.023-.006.7-1.528.3-.656c.26-.568.528-1.156.784-1.739a2.509,2.509,0,0,1,.4-.582c.065-.078.129-.156.19-.237.181-.24.378-.477.568-.706l.156-.188a.521.521,0,0,0,.139-.527,3.09,3.09,0,0,1-.09-.483c-.01-.079-.021-.158-.034-.237-.019-.113-.039-.225-.058-.337-.039-.221-.08-.45-.11-.674a.627.627,0,0,1,.126-.491.818.818,0,0,1,.558-.285,6.333,6.333,0,0,0,.645-.106c.092-.019.184-.037.276-.054a.992.992,0,0,1,.2-.027.923.923,0,0,1,.116.165c.1.153.2.316.317.477.04.055.047.071-.013.142-.248.3-.493.6-.729.895l-2.043,2.535c-.049.061-.1.12-.149.18a5.08,5.08,0,0,0-.317.4,1.57,1.57,0,0,0-.182.425l0,.014q-.2.625-.386,1.25l-.231.751C1883.8,2322.729,1883.622,2323.314,1883.436,2323.893Zm-3.7-1.624v.275l-1-.583q-.859-.5-1.72-1-.683-.394-1.369-.786-.656-.376-1.311-.753-.987-.569-1.971-1.142l-1.391-.807q-1.546-.9-3.094-1.789l-1.944-1.119-1.87-1.076c-.784-.452-1.442-.833-2.1-1.222a.118.118,0,0,1-.027-.048c-.006-.287-.005-.574,0-.861,0-.141,0-.282,0-.424a.168.168,0,0,1,.1-.169l.041-.021a5.846,5.846,0,0,1,.552-.256.23.23,0,0,1,.077-.012.171.171,0,0,1,.072.012c.7.4,1.4.8,2.093,1.205l.774.448.867.5.867.5q2.177,1.258,4.354,2.518l1.576.915q1.119.65,2.239,1.3,1.241.717,2.485,1.429l1.677.963c.225.13.449.262.673.395l.1.058-.376.186a.63.63,0,0,0-.367.616C1879.742,2321.77,1879.742,2322.019,1879.741,2322.269Zm.424-.756a.364.364,0,0,1,.136-.217,1.2,1.2,0,0,1,.211-.115l-.24.534-.122.272C1880.152,2321.828,1880.155,2321.669,1880.165,2321.513Zm.265.9c.1-.213.194-.425.292-.636l.21-.457c.021-.046.041-.094.06-.141a1.571,1.571,0,0,1,.106-.228.332.332,0,0,0,.054-.264.35.35,0,0,0-.184-.208q-.428-.24-.852-.485l-1.3-.754q-1.039-.6-2.078-1.2-.935-.539-1.871-1.076-.994-.571-1.986-1.143-.778-.449-1.553-.9l-1.268-.738q-.65-.376-1.3-.75l-.986-.568-.944-.547-1-.578-1.009-.581q-.829-.477-1.657-.956a1.782,1.782,0,0,1-.163-.113,2.069,2.069,0,0,0-.179-.125.339.339,0,0,0-.291-.012c-.136.061-.27.126-.4.19l-.275.131a.74.74,0,0,0-.456.682c0,.112,0,.224,0,.337,0,.043,0,.086,0,.129l-.033-.019c-.165-.092-.321-.179-.476-.269s-.3-.177-.454-.267c-.262-.155-.533-.314-.8-.466a.2.2,0,0,1-.026-.017.285.285,0,0,1,.012-.03l.162-.35q.32-.691.637-1.383.26-.569.516-1.14l.276-.612c.063-.14.128-.281.2-.428l.026-.059,0,0c.1.054.195.106.289.161q1.2.69,2.392,1.383l1.09.633,1.422.825q.585.338,1.171.674t1.17.673l1.387.8q.745.434,1.491.865.828.479,1.658.955l1.511.869q.854.493,1.707.988l.945.548,2.855,1.653,3.08,1.781c.22.129.448.261.676.386l0,0,0,0q-.68,1.485-1.359,2.972c-.121.265-.24.53-.363.8l-.1.225-.039-.022c-.133-.074-.262-.146-.391-.22l-.517-.3c-.359-.208-.718-.417-1.08-.621Zm-23.186-13.515c-.1-.054-.089-.1-.085-.125a4.612,4.612,0,0,1,.126-.618c.157-.525.325-1.057.487-1.572l.143-.455q.21-.672.424-1.342l0-.016.047.026c.14.078.276.154.411.232l.725.42q.664.386,1.33.768c.027.016.04.026.044.027a.263.263,0,0,1-.022.06c-.3.636-.591,1.285-.876,1.912l-.819,1.8-.165-.093c-.235-.133-.465-.264-.694-.4-.142-.082-.284-.166-.425-.25C1857.682,2309.156,1857.465,2309.027,1857.244,2308.9Zm5.59-10.966.63-.05.585-.047.792-.066q.641-.055,1.282-.106c.284-.022.568-.042.853-.061l.677-.047c.144-.011.289-.024.433-.037s.3-.027.455-.039a.246.246,0,0,1,.113.008c.162.089.325.183.485.276h-.017l-.087.005c-.344.02-.688.04-1.033.065a.284.284,0,0,0-.183.1.169.169,0,0,0-.039.135.347.347,0,0,0,.134.244c.175.111.356.216.531.316l.26.151,1.562.9-.431.033c-.467.036-.935.072-1.4.11-.116.009-.232.022-.347.035-.138.016-.276.031-.414.04a.321.321,0,0,1-.167-.035c-.307-.168-.615-.346-.914-.519l-.13-.075c-.157-.091-.314-.183-.477-.279.165-.072.323-.14.48-.21l.067-.03c.307-.135.614-.271.918-.412a.3.3,0,0,0,.125-.123.287.287,0,0,1,.017-.025l.139-.173-.213-.064-.036-.013a.421.421,0,0,0-.153-.035,1.521,1.521,0,0,0-.181.014c-.032,0-.063.008-.094.011l-.412.031c-.419.032-.838.063-1.258.091-.194.013-.388.02-.583.028-.148.006-.3.012-.444.02a.268.268,0,0,0-.232.161.311.311,0,0,0,.043.262.46.46,0,0,0,.154.122l5.077,2.932,2.016,1.163.9.516q.642.369,1.283.739l1.191.691.861.5,1.3.753,1.727,1,1.174.68,2.555,1.475,1.335.773,1.151.667,1.626.94,3.717,2.147c.595.343,1.19.686,1.782,1.035a1.718,1.718,0,0,0,.9.3,1.387,1.387,0,0,0,.2-.015c.468-.068.953-.093,1.423-.117.22-.011.44-.022.66-.037a4.751,4.751,0,0,0,.529-.063.3.3,0,0,0,.174-.122.35.35,0,0,1,.026-.03l.039-.038.154.091a.548.548,0,0,0,.4.048.645.645,0,0,1,.1-.013c.263,0,.527-.025.783-.046l.133-.011c.068-.005.135-.017.2-.028.052-.009.1-.017.155-.023a.648.648,0,0,1,.475.1c.08.057.163.108.249.158-.317.026-.624.052-.93.074-.29.021-.58.04-.871.058l-.738.049c-.251.018-.5.038-.754.058l-.794.061c-.286.021-.572.042-.858.068a.587.587,0,0,0-.465.236.742.742,0,0,0-.031.645c.042.135.075.275.108.423-.129-.072-.251-.14-.372-.209l-1.872-1.084-1.711-.992q-1.159-.673-2.321-1.344-.656-.378-1.313-.754-.685-.392-1.368-.786-.615-.356-1.228-.715-.655-.382-1.311-.762-.932-.538-1.865-1.072-.816-.468-1.632-.937t-1.63-.944l-1.333-.772-2.307-1.331-1.744-1.006-1.238-.716-5.018-2.9c-.17-.1-.339-.2-.507-.3-.419-.245-.852-.5-1.287-.734-.123-.067-.151-.162-.19-.325-.01-.041-.02-.083-.032-.123-.046-.152-.083-.313-.118-.469-.02-.089-.041-.178-.063-.268a.122.122,0,0,1,0-.016Zm28.093,27.99a1.517,1.517,0,0,1,.12-.336l.016-.007c-.034.119-.066.227-.1.332A.243.243,0,0,1,1890.927,2325.926Zm-2.5-17,1.681.968q.818.47,1.635.942l1.449.839q.87.505,1.742,1.009.66.381,1.324.756l.9.514c.072.041.142.082.214.125a1.111,1.111,0,0,1-.329-.143q-.7-.406-1.4-.816l-.985-.574q-.587-.341-1.176-.679l-.975-.562-1.081-.628-1.122-.651-2.442-1.41-1.818-1.048q-1.235-.712-2.47-1.425-.9-.519-1.792-1.042l-1.372-.8c-.216-.125-.432-.248-.648-.372-.191-.109-.382-.218-.573-.329l-1.471-.852-1.832-1.06-1.646-.948-1.568-.9q-1.152-.665-2.3-1.333l-.311-.181-.033-.02.009-.02.095.054.511.3q1.65.958,3.3,1.915,1.141.661,2.283,1.319l.945.544,1.075.619c.162.094.323.189.483.284s.34.2.512.3l1.217.7.84.482q1.1.634,2.205,1.27t2.214,1.283l.975.566Q1887.558,2308.423,1888.428,2308.927Zm-.384,2.291-.011,0-.05.022c-.141.062-.286.126-.43.177a.131.131,0,0,1-.064,0c-.087-.045-.174-.093-.26-.142Zm-3.144-1.819-.508.22a.078.078,0,0,1-.036,0c-.093-.05-.184-.1-.275-.156Zm-3.167-1.812c-.115.052-.229.106-.341.163a.3.3,0,0,1-.357-.044l-.092-.059Zm-9.415-5.452-.517.227c-.1-.054-.192-.109-.29-.166Zm-1.54-2.03a.224.224,0,0,0,.041-.095l.751.435,1.177.678.7.4c-.309.015-.6.035-.862.054l-.7.052c-.377.028-.755.057-1.132.082a.32.32,0,0,1-.152-.046c-.189-.1-.379-.213-.562-.319l-.911-.529.441-.195c.32-.138.639-.276.959-.412a.21.21,0,0,1,.039-.007A.288.288,0,0,0,1870.778,2300.1Zm1.543,2.5c.247-.109.5-.222.756-.326.12-.049.241-.095.363-.14s.242-.091.361-.14a.288.288,0,0,0,.135-.135.27.27,0,0,1,.016-.026l.012-.017.271.156,1.49.864.835.484-.058.006-.277.026c-.162.016-.324.031-.486.043l-.211.016c-.5.039-1.025.079-1.538.109a.52.52,0,0,1-.26-.053c-.3-.162-.594-.336-.882-.5l-.295-.172-.285-.167Zm3.186,1.8c.269-.119.526-.233.784-.343.1-.041.2-.078.294-.115s.212-.079.316-.124a.382.382,0,0,0,.149-.13c.01-.012.019-.025.029-.036l.021-.022.513.3q.763.44,1.527.877l.587.337-.533.041c-.7.053-1.4.107-2.1.156a.36.36,0,0,1-.181-.038c-.3-.162-.6-.334-.884-.5l-.173-.1c-.146-.084-.291-.169-.445-.26Zm3.428,1.7.439-.177c.234-.094.468-.188.7-.286a.3.3,0,0,0,.162-.2l.585.336q.763.441,1.523.885l.519.3-.634.051c-.615.05-1.23.1-1.845.146l-.026,0a.5.5,0,0,1-.323-.042c-.268-.164-.544-.321-.812-.473l-.4-.226c-.088-.051-.175-.1-.268-.159C1878.691,2306.21,1878.813,2306.158,1878.935,2306.107Zm3.238,1.769c.153-.063.306-.124.459-.185.194-.078.388-.155.581-.236a.354.354,0,0,0,.179-.179l.41.239q.808.467,1.617.931l.6.343-.179.015c-.112.01-.225.02-.338.028l-.136.01c-.657.045-1.337.092-2.006.13a.4.4,0,0,1-.2-.048c-.244-.131-.488-.273-.724-.41l-.181-.1-.521-.3-.034-.02C1881.855,2308.013,1882.013,2307.942,1882.173,2307.877Zm2.682,2.02c.2-.088.385-.172.574-.254.3-.132.578-.25.859-.363a.187.187,0,0,1,.032-.007c.148-.029.2-.1.221-.181l.428.246q.842.486,1.681.976l.479.278-.144.012-1.428.122-.3.027c-.209.02-.424.041-.635.05a.607.607,0,0,1-.3-.045c-.3-.162-.609-.34-.9-.512l-.286-.167-.3-.176Zm3.354,1.742c.421-.176.842-.352,1.261-.531a.394.394,0,0,0,.15-.13c.01-.012.02-.025.031-.037l.029-.03.639.371q.926.535,1.854,1.067l.132.076-2.006.134-.212.015c-.147.011-.293.022-.44.028a.261.261,0,0,1-.126-.014c-.291-.156-.584-.323-.867-.484l-.031-.017c-.2-.112-.393-.226-.59-.34l-.035-.02Zm3.2,1.773.543-.22c.238-.1.476-.192.713-.291a.285.285,0,0,0,.154-.183l.834.479.207.119c.523.3,1.06.611,1.593.923l-.092.008c-.188.017-.376.034-.565.048l-.213.016c-.482.037-.981.075-1.472.106l-.059,0a.832.832,0,0,1-.545-.081c-.239-.156-.49-.3-.733-.437l-.309-.177-.332-.194C1891.226,2313.49,1891.316,2313.449,1891.408,2313.412Zm-4.088-4.475-2.87-1.658-2.843-1.645-1.238-.719q-1.018-.591-2.037-1.18t-2.026-1.167q-1.062-.611-2.123-1.223-1.591-.918-3.18-1.841l-1.451-.841-.128-.076c-.106-.063-.216-.13-.332-.185a.231.231,0,0,1-.039-.022.191.191,0,0,1,.01-.019l27.329,15.8a.292.292,0,0,1-.09-.032c-.808-.46-1.626-.935-2.417-1.394l-1.057-.614-1.85-1.068Zm-18.145-8.617c-.154.068-.31.135-.466.2a.174.174,0,0,1-.108-.009c-.077-.039-.154-.082-.23-.125Zm6.3,3.63c-.158.069-.313.136-.47.2a.224.224,0,0,1-.135-.02c-.071-.035-.142-.073-.212-.116Zm3.128,1.82q-.259.112-.519.221l-.281-.158Zm12.581,7.266c-.174.076-.345.15-.517.224a.085.085,0,0,1-.025-.007c-.078-.043-.168-.094-.265-.153Zm-25.056-14.584c-.122.055-.244.112-.363.175a.4.4,0,0,1-.5-.036c-.032-.024-.066-.047-.1-.069Zm22.864,24.42a.118.118,0,0,1-.1-.015.147.147,0,0,1-.07-.1.628.628,0,0,1,0-.095c0-.019,0-.039,0-.058a.975.975,0,0,1,.621-.881.152.152,0,0,1,.132.012.134.134,0,0,1,.053.105A1.121,1.121,0,0,1,1888.989,2322.871Zm-1.333,2.433-.083.009c.005-.017.01-.033.016-.046Zm.517-.468c-.012.043-.026.087-.041.133-.133-.077-.26-.151-.38-.229a.992.992,0,0,1,.035-.128C1887.921,2324.689,1888.047,2324.762,1888.172,2324.837Zm-.421-.094v0Zm.625,1.046c.141-.016.282-.03.431-.045-.036.125-.07.244-.106.362-.142.015-.285.028-.443.042C1888.3,2326.021,1888.336,2325.9,1888.376,2325.789Zm1.01-1.783a.641.641,0,0,1,.269-.44l.006,0a.459.459,0,0,1,.012.11.505.505,0,0,1-.255.363.061.061,0,0,1-.018.009A.054.054,0,0,1,1889.386,2324.006Zm-4.008-7.945c.038.155.062.313.087.479.012.083.025.166.039.249s.029.158.044.237.026.139.039.209c.009.051.018.1.027.155-.133-.078-.263-.154-.391-.233,0-.01-.005-.023-.008-.04l-.057-.331c-.086-.5-.176-1.01-.256-1.515a.642.642,0,0,1,.455-.658.409.409,0,0,0,.168-.114c.012-.012.024-.024.036-.034l.144-.117-.145-.116-.04-.033a.82.82,0,0,0-.125-.094c-.058-.033-.118-.063-.178-.094a1.8,1.8,0,0,1-.27-.155.626.626,0,0,0-.808.064,1.134,1.134,0,0,0-.422,1.193c.049.282.1.564.154.846.03.159.06.319.089.479-.174-.1-.339-.2-.493-.3a.073.073,0,0,1-.011-.025c-.085-.492-.162-.936-.231-1.384l-.019-.119a2.124,2.124,0,0,1-.044-.508.578.578,0,0,1,.453-.5.482.482,0,0,0,.163-.107c.013-.012.027-.024.041-.034l.16-.122-.163-.119-.047-.035a1.078,1.078,0,0,0-.128-.089c-.064-.037-.129-.071-.195-.106a3.416,3.416,0,0,1-.325-.187.484.484,0,0,0-.5-.033,1.173,1.173,0,0,0-.658,1.365c.05.215.087.44.122.657.017.106.034.213.053.319s.036.2.055.305l-.43-.246c-.043-.025-.085-.052-.127-.079a1.691,1.691,0,0,0-.3-.164c-.087-.034-.12-.088-.148-.24q-.053-.294-.1-.589c-.057-.327-.114-.654-.176-.98a.682.682,0,0,1,.1-.549.869.869,0,0,1,.632-.308,7.173,7.173,0,0,0,.774-.138l.1-.022a.336.336,0,0,0,.161-.1l4.39,2.537c-.169.027-.33.054-.49.085l-.1.019a1.511,1.511,0,0,0-.709.261A1.153,1.153,0,0,0,1885.378,2316.062Zm-15.64-9.594q.689.4,1.377.8l1.065.619,1.291.745,1.022.589,1.114.646,1.143.662q.7.407,1.408.812l.926.532c.437.251.874.5,1.308.758l.006.01a1.073,1.073,0,0,0,0,.549c.008.047.017.093.023.14s.014.092.022.14l-11.136-6.433.017-.022C1869.462,2306.829,1869.6,2306.647,1869.738,2306.467Zm-.368-.238c-.15.178-.293.366-.425.56a.192.192,0,0,1-.023.029.211.211,0,0,1-.039-.022,2.7,2.7,0,0,0-.4-.229.381.381,0,0,0-.322.035c-.14.082-.276.171-.42.265l-.02-.114c-.045-.258-.087-.5-.131-.747l-.014-.074c-.04-.219-.08-.445-.13-.667a.631.631,0,0,1,.115-.446.611.611,0,0,1,.354-.283c.271-.055.544-.1.816-.153l.177-.032.029,0h0c.133.5.276,1,.413,1.481l.058.205A.182.182,0,0,1,1869.37,2306.23Zm-1.071.831.021.012.024.014q1.21.7,2.419,1.4l.97.564q.621.363,1.243.723.588.339,1.177.676.752.431,1.5.865t1.515.886q.725.425,1.452.849c.284.165.568.327.854.489.344.2.687.391,1.029.592a.226.226,0,0,1,.082.121,2.429,2.429,0,0,1,.048.265l-12.623-7.3C1868.112,2307.16,1868.2,2307.108,1868.3,2307.061Zm12.322,5.151c-.014.018-.023.027-.024.031a.227.227,0,0,1-.052-.025c-.656-.386-1.326-.773-1.973-1.147l-.514-.3-2.694-1.555-1.119-.646-1.589-.917-.47-.271c-.751-.433-1.528-.882-2.284-1.333a.651.651,0,0,1-.1-.23c-.114-.389-.222-.786-.328-1.171l-.026-.093,12.36,7.144-.035.006c-.166.027-.332.054-.5.086A1.072,1.072,0,0,0,1880.62,2312.212Zm-14.98-6.722h0Zm-.139-.784c.055.258.094.525.132.79-.042.028-.087.054-.136.081l-.028-.159c-.049-.282-.1-.554-.141-.826l-.016-.1c-.034-.206-.069-.419-.082-.626a.578.578,0,0,1,.325-.568l.011.052a.713.713,0,0,1-.025.535A1.1,1.1,0,0,0,1865.5,2304.7Zm-1.765-1.056.01.056c.047.26.094.521.135.775-.043.027-.088.053-.136.08l-.093-.533c-.02-.115-.039-.23-.058-.344-.041-.246-.082-.491-.129-.735a.636.636,0,0,1,.12-.466.653.653,0,0,1,.214-.2.734.734,0,0,1-.016.574A1.134,1.134,0,0,0,1863.736,2303.649Zm18.989,10.09a.905.905,0,0,0-.07.2,1.565,1.565,0,0,0-.03.494c.033.252.082.5.13.747l.039.2c.008.04,0,.042-.026.057l-.1.056-.006-.031c-.03-.155-.058-.3-.085-.454-.031-.17-.06-.34-.09-.51s-.064-.367-.1-.551a.674.674,0,0,1,.333-.729v.006a1.794,1.794,0,0,1,.054.365A.463.463,0,0,1,1882.725,2313.739Zm1.8.885a1.41,1.41,0,0,0-.1,1.1c.042.186.077.377.111.563l.014.073c.012.067,0,.077-.04.094s-.067.034-.1.054l-.021-.122c-.045-.263-.088-.512-.133-.76l-.01-.057c-.04-.225-.082-.457-.132-.684a.753.753,0,0,1,.354-.666c.028.116.051.237.069.361A.094.094,0,0,1,1884.526,2314.624Zm-15.8-10.694c-.284.046-.551.091-.82.148a1.059,1.059,0,0,0-.879,1.083c.028.287.074.574.12.852.016.1.032.2.048.3.024.158.051.317.077.475l-.263-.152-.188-.107c-.155-.088-.316-.179-.468-.275a.156.156,0,0,1-.05-.082c-.045-.237-.086-.476-.127-.713-.055-.316-.111-.643-.176-.963a.653.653,0,0,1,.469-.813.321.321,0,0,0,.216-.213.266.266,0,0,0-.142-.283c-.063-.034-.129-.063-.195-.093a1.509,1.509,0,0,1-.272-.144.671.671,0,0,0-.394-.158.837.837,0,0,0-.487.223,1.068,1.068,0,0,0-.41,1.076c.069.4.14.792.213,1.2l.036.205-.067-.037c-.032-.018-.064-.037-.1-.056a1.9,1.9,0,0,0-.2-.111c-.089-.04-.131-.106-.155-.243q-.066-.379-.133-.758-.072-.4-.142-.81a.66.66,0,0,1,.474-.812.342.342,0,0,0,.225-.225c.042-.164-.169-.283-.171-.285-.075-.042-.152-.08-.229-.118a3.567,3.567,0,0,1-.314-.169.525.525,0,0,0-.5-.041,1.141,1.141,0,0,0-.667,1.335,3.6,3.6,0,0,1,.1.552c.012.092.025.184.04.276.027.161.055.322.084.489-.13-.075-.257-.149-.382-.225a.135.135,0,0,1-.013-.038c-.039-.219-.076-.438-.113-.657q-.043-.256-.088-.513c-.015-.086-.033-.173-.051-.259-.03-.146-.058-.283-.074-.423a.649.649,0,0,1,.525-.662c.255-.039.511-.088.759-.135.177-.034.355-.068.532-.1a.184.184,0,0,1,.106.014q.7.4,1.392.8l.88.509,1.448.832Zm-5.885.8.5.284.363.21.271.158,1.788,1.034,1.264.729q1.168.673,2.336,1.349.8.461,1.592.925.872.507,1.744,1.012.677.391,1.355.779.657.376,1.313.754.936.541,1.87,1.085l1.305.758q1.075.623,2.152,1.243l1.144.658,1.042.6,1.805,1.043.285.168c.195.115.4.235.6.344l.014.008-.009.01c-.2.237-.389.478-.582.719l-.254.316-.081.1c-.055.065-.109.131-.159.2v0l-.006,0-.358-.207-2.115-1.224-.986-.569-1.218-.7-1.005-.585q-.6-.352-1.209-.7-.653-.377-1.307-.751-.686-.394-1.373-.789-.865-.5-1.728-1l-1.461-.848-1.5-.868-1.312-.757-1.248-.723q-.66-.384-1.322-.767l-1.4-.807-.931-.536-2.342-1.352-.024-.014,1.08-1.34Zm20.819,7.223-1.158-.672-1.326-.765-1.232-.71-1.551-.9-1.6-.927-1.358-.783q-.919-.529-1.837-1.06-.673-.389-1.344-.782l-1.157-.673q-.433-.252-.868-.5-.5-.288-1-.578c-.18-.1-.36-.213-.538-.32-.21-.126-.42-.253-.632-.375-.4-.227-.792-.451-1.19-.675l-.551-.311.272-.248,21.491,12.409c-.1.092-.186.174-.276.251l-.013,0c-.256-.142-.51-.288-.764-.435l-.1-.059-2.271-1.312Zm-18.011-10.415c.094-.085.183-.166.273-.245l.183.1c-.1.09-.183.169-.275.241C1865.771,2301.615,1865.713,2301.581,1865.65,2301.543Zm31.692,19.7c-.056.092-.111.181-.169.269-.1.145-.208.315-.323.473l-.011,0-.008,0a2.074,2.074,0,0,1,.446-.766l.017,0a.263.263,0,0,1,.05.027Zm-2.312-3.8a1.321,1.321,0,0,0-.12-.088l.094,0,.02.025v.018Zm3.591-1.221c.009.083,0,.123-.014.134s-.029.015-.079.011a.065.065,0,0,1-.023-.013l-.136-.123C1898.453,2316.228,1898.537,2316.224,1898.621,2316.223Zm-1.122,1.5a.129.129,0,0,1-.136,0,.173.173,0,0,1-.056-.078A.655.655,0,0,0,1897.5,2317.722Zm-1.927-.416c.265-.024.526-.042.8-.06h.017a.558.558,0,0,1-.053.027c-.189.086-.373.185-.551.28l-.2.107c-.008-.121-.015-.237-.016-.35Zm.09,1.253.024-.015.057-.03c.316-.167.642-.339.965-.494a.256.256,0,0,1,.118.019.589.589,0,0,1,.121.071c.026.018.052.036.079.052a.841.841,0,0,0,.086.046l-1.4.524-.053.016C1895.658,2318.68,1895.658,2318.619,1895.663,2318.559Zm2.244-1.953.016-.006a.131.131,0,0,1,.121.01.179.179,0,0,1,.047.16v0A1.179,1.179,0,0,0,1897.907,2316.606Zm-.995-.983h-.026a.483.483,0,0,0-.112.011c-.079.02-.1.012-.1.011a.125.125,0,0,1-.026-.058.311.311,0,0,0-.036-.082l.556-.038A.409.409,0,0,1,1896.912,2315.623Zm-1.086.851a.2.2,0,0,1-.084.021.181.181,0,0,1-.01-.067.856.856,0,0,1,.292-.594.163.163,0,0,1,.09-.045.036.036,0,0,1,.024.009.3.3,0,0,1,.039.076l0,.007A.741.741,0,0,1,1895.826,2316.473Zm-.744.142-.051.008.023-.042Zm-.109-.957a.16.16,0,0,1,.052-.015l.084-.01-.05.078A.762.762,0,0,1,1894.973,2315.658Zm-.335.528a.52.52,0,0,1-.263.392v-.046l.024-.045a2.846,2.846,0,0,1,.2-.34.183.183,0,0,1,.04-.007A.187.187,0,0,1,1894.638,2316.186Zm-.961-.42a1.488,1.488,0,0,1,.18-.033q-.077.095-.156.188A1.248,1.248,0,0,1,1893.677,2315.766Zm2.017,3.447a.085.085,0,0,1,0-.012l.017-.007.109-.04a.882.882,0,0,0-.114.186C1895.7,2319.3,1895.7,2319.255,1895.695,2319.213Zm.168.791a.286.286,0,0,0,.137.031.514.514,0,0,0,.185-.039,3.47,3.47,0,0,1-.4.235l-.028-.329A.329.329,0,0,0,1895.863,2320Zm2.586-1.23a.385.385,0,0,0-.371-.033.8.8,0,0,0-.478.7.455.455,0,0,0,.015.08,1.316,1.316,0,0,0-1.089.242l-.075.053-.048.033a.73.73,0,0,0,.229-.578.611.611,0,0,0-.122-.292.2.2,0,0,0-.06-.058l.519-.192.694-.257q.277-.1.556-.2c.047-.016.133-.039.177-.007a.341.341,0,0,1,.068.262C1898.461,2318.609,1898.455,2318.691,1898.449,2318.773Zm-2.195,1.709c.04-.024.048-.024.086,0,.1.066.207.126.316.188l-.489.248c-.025.013-.05.023-.076.035a.871.871,0,0,0-.182.1c-.1.073-.188.093-.348-.022-.05-.035-.1-.067-.152-.1.088-.038.173-.075.256-.118C1895.869,2320.708,1896.068,2320.592,1896.254,2320.482Zm.843-.07c-.134-.074-.266-.152-.406-.234a1.3,1.3,0,0,1,.562-.246c.134-.025.22.033.362.138l.009.007A2.757,2.757,0,0,0,1897.1,2320.412Zm1.105-.625a.833.833,0,0,0,.161-.123c-.006.066-.013.132-.02.2l0,.016-.153-.086Zm.48-4.336a1.27,1.27,0,0,1-.176.042,2.234,2.234,0,0,1-.274.032.44.44,0,0,1,.4-.164h.051A.563.563,0,0,1,1898.682,2315.452Zm-10.333,6.162q-1.407-.814-2.812-1.633l-.206-.12.16-.2q.3-.37.594-.74l.6-.749q.908-1.13,1.821-2.257a1.541,1.541,0,0,1,.757-.514.651.651,0,0,1,.545.061q.961.561,1.923,1.118l.694.4a2.144,2.144,0,0,0-.824.592c-.121.138-.235.283-.346.424l-.159.2-.538.667q-.556.688-1.11,1.377c-.175.218-.348.437-.521.656l-.373.47C1888.491,2321.45,1888.422,2321.535,1888.349,2321.614Zm.1-7.3c.082.041.165.087.245.133l-.442.442-.154-.241.035-.034C1888.24,2314.51,1888.342,2314.411,1888.448,2314.316Zm.279.772c.12-.123.248-.248.39-.385l.269.151a1.273,1.273,0,0,0-.289.056A1.842,1.842,0,0,0,1888.728,2315.088ZM1887.4,2326.1a.807.807,0,0,1,.062-.242l.013,0C1887.447,2325.938,1887.423,2326.02,1887.4,2326.1Zm2.631-.091c-.141.013-.283.023-.434.033.032-.107.063-.211.093-.315.01-.037.011-.041.065-.043.13-.006.258-.021.393-.037C1890.1,2325.775,1890.067,2325.893,1890.027,2326.009Zm-1.15-2.022v.03c0,.022,0,.044,0,.066l-.134-.076a.394.394,0,0,0-.233-.041c-.175.021-.349.044-.542.071l.119-.4c.027-.089.054-.179.082-.268.05-.161.1-.322.145-.485a.587.587,0,0,0,.268.4.537.537,0,0,0,.271.07.783.783,0,0,0,.259-.047.764.764,0,0,0,.071-.03A1.025,1.025,0,0,0,1888.877,2323.987Zm5.525-5.644a.539.539,0,0,1-.255.394.1.1,0,0,1-.03.007.134.134,0,0,1-.015-.04.574.574,0,0,1,.223-.389.144.144,0,0,1,.061-.016l0,.008C1894.393,2318.319,1894.4,2318.331,1894.4,2318.343Zm.239-.547a.4.4,0,0,0-.159-.062h.025a.279.279,0,0,1,.177.1A.352.352,0,0,0,1894.641,2317.8Zm-.54,3.222c.12.067.239.136.364.209-.037.018-.073.035-.11.051a.068.068,0,0,1-.017,0c-.118-.065-.235-.133-.358-.205Zm4.528-3.121a.581.581,0,0,0-.32-.094.673.673,0,0,0-.085.006,1.685,1.685,0,0,0,.35-.7c.008-.034.016-.048.016-.049a.145.145,0,0,1,.041,0c.09.007.18.006.275,0l-.061,1.087A.576.576,0,0,0,1898.63,2317.9Zm1.083-2.987.115.066a.906.906,0,0,1,.093.059c-.016.023-.04.054-.06.08l-.023.031-.008.01-.073.031a.08.08,0,0,1,0-.025A.447.447,0,0,0,1899.712,2314.91Zm-36.792-14.972q1.07.617,2.136,1.241l.138.082c-.007.008-.009.011-.008.012a.3.3,0,0,1-.107-.063,1.218,1.218,0,0,0-1.088-.21c-.189.049-.38.08-.583.112-.139.022-.283.044-.425.074a1.162,1.162,0,0,0-.929,1.387c.114.636.206,1.163.289,1.659a.246.246,0,0,1,0,.073c-.34.43-.685.857-1.033,1.29l-.214.266-2.553-1.476,0-.005c.073-.094.142-.184.213-.272q1.03-1.278,2.063-2.555.131-.163.262-.327c.242-.3.492-.618.756-.908a1.075,1.075,0,0,1,.955-.4l.023,0A.359.359,0,0,1,1862.92,2299.938Zm21.028,24.117c.09-.291.178-.583.267-.874s.177-.583.266-.873q.317-1.027.64-2.053l.529.305,2.137,1.231c.106.061.215.119.326.173a.161.161,0,0,1,.037.023.11.11,0,0,1-.009.043c-.087.243-.17.487-.246.728-.049.156-.1.314-.144.471-.059.2-.118.393-.181.587-.055.171-.115.341-.175.511s-.11.315-.162.473a1.326,1.326,0,0,0-.044.191,1.038,1.038,0,0,1-.035.154c-.042.125-.087.248-.133.371s-.092.248-.134.373a.892.892,0,0,0-.031.128c-.074-.04-.147-.08-.219-.122l-1.236-.716-1.319-.763C1883.919,2324.322,1883.89,2324.244,1883.948,2324.054Zm10.536-.985q.025-.645.051-1.291a.151.151,0,0,1,.1-.154.907.907,0,0,1,.443-.136.649.649,0,0,1,.224.041,1.137,1.137,0,0,0,.991-.182l.1-.054a2.784,2.784,0,0,0-.177.375,3.532,3.532,0,0,0-.221.946,1.177,1.177,0,0,0,.266.881l-1.83.809Q1894.46,2323.686,1894.484,2323.069Zm2.9-.1a.478.478,0,0,1-.366.057.331.331,0,0,1-.209-.144.657.657,0,0,1-.084-.341,1.21,1.21,0,0,0,.825.052c.023,0,.047-.007.07-.01a.933.933,0,0,0,.143-.025.62.62,0,0,0,.232-.115A2.341,2.341,0,0,1,1897.388,2322.964Z" fill="#707b9b"/>
    <path id="Path_2187" data-name="Path 2187" d="M2007.011,2408.768a.52.52,0,0,0-.511.011,1.233,1.233,0,0,0-.663,1.036v.008a.557.557,0,0,0,.274.556.429.429,0,0,0,.213.058.629.629,0,0,0,.359-.134,1.234,1.234,0,0,0,.571-1.077A.526.526,0,0,0,2007.011,2408.768Zm-.295.888a.577.577,0,0,1-.281.286.049.049,0,0,1-.028,0c-.01-.008-.035-.049-.037-.151a.676.676,0,0,1,.379-.544.056.056,0,0,1,.032-.009.055.055,0,0,1,.017.028A.57.57,0,0,1,2006.716,2409.656Z" transform="translate(-114.291 -85.658)" fill="#707b9b"/>
    <path id="Path_2188" data-name="Path 2188" d="M2004.959,2400.824a.459.459,0,0,0-.224-.325.432.432,0,0,0-.371-.02,1.1,1.1,0,0,0-.654.938.551.551,0,0,0,.2.478.4.4,0,0,0,.234.071.57.57,0,0,0,.2-.039A1.126,1.126,0,0,0,2004.959,2400.824Zm-.68.631a.109.109,0,0,1-.031.013l-.013-.027a.6.6,0,0,1,.24-.42.118.118,0,0,1,.039-.011.215.215,0,0,1,0,.047A.49.49,0,0,1,2004.28,2401.455Z" transform="translate(-112.664 -79.332)" fill="#707b9b"/>
    <path id="Path_2189" data-name="Path 2189" d="M2002.691,2393.558a.933.933,0,0,0,.134-.141l.023-.027a1.34,1.34,0,0,0,.248-.513.532.532,0,0,0-.13-.546.442.442,0,0,0-.561-.046,1.058,1.058,0,0,0-.546.878v.012a.491.491,0,0,0,.242.506.456.456,0,0,0,.193.043A.635.635,0,0,0,2002.691,2393.558Zm-.305-.406a.563.563,0,0,1,.29-.412h0a.585.585,0,0,1-.279.493A.215.215,0,0,1,2002.385,2393.152Z" transform="translate(-111.245 -73.022)" fill="#707b9b"/>
  </g>
</svg>
