<svg xmlns="http://www.w3.org/2000/svg" width="25" height="25" viewBox="0 0 25 25">
  <g id="Group_729" data-name="Group 729" transform="translate(236.808 -647.725)">
    <path id="Path_1994" data-name="Path 1994" d="M-130.49,721.331A.775.775,0,0,0-131.3,721h-.672c-.232.037-.27.153-.27.385v9.2h.941c.362-.026.492.047.776-.344l2.354-3.975a.854.854,0,0,0,0-.889Z" transform="translate(-93.336 -65.597)" fill="#707b9b" fill-rule="evenodd"/>
    <path id="Path_1995" data-name="Path 1995" d="M-224.308,647.725a12.5,12.5,0,0,0-12.5,12.5,12.5,12.5,0,0,0,12.5,12.5,12.5,12.5,0,0,0,12.5-12.5A12.5,12.5,0,0,0-224.308,647.725Zm6.864,13.376c-.405,1.027-1.522,3.518-2.456,4.135a5.612,5.612,0,0,1-3.883.945l0,0c-2.555.008-4.767,0-7.322,0a.235.235,0,0,1-.093-.019.235.235,0,0,1-.124-.308l.47-.9a.72.72,0,0,1,.469-.254c.326-.071.731-.289.731-.648v-8.015c0-.145-.036-.289-.217-.289h-.658s-.433-.036-.361-.4l.469-.865a.816.816,0,0,1,.689-.254h6.479c1.516,0,2.425.072,3.4.976a18.189,18.189,0,0,1,2.41,4.116A2.394,2.394,0,0,1-217.444,661.1Z" transform="translate(0 0)" fill="#707b9b" fill-rule="evenodd"/>
  </g>
</svg>
