<svg xmlns="http://www.w3.org/2000/svg" width="35" height="19.455" viewBox="0 0 35 19.455">
  <g id="Group_741" data-name="Group 741" transform="translate(-2045 -1308.472)">
    <path id="Path_2017" data-name="Path 2017" d="M2045,1319.935a10.341,10.341,0,0,1,2.609-6.826,12.9,12.9,0,0,1,6.252-3.937,18.226,18.226,0,0,1,6.6-.642,30.7,30.7,0,0,1,9.865,2.575,24.875,24.875,0,0,1,5.784,3.424,12.1,12.1,0,0,1,2.446,2.559,7.748,7.748,0,0,1,1.432,4.022,5.837,5.837,0,0,1-1.1,3.917,6.35,6.35,0,0,1-3.29,2.3,8.735,8.735,0,0,1-7.226-.764,5.546,5.546,0,0,0-4.664-.406,38.484,38.484,0,0,1-4.814,1.342,17.886,17.886,0,0,1-7.127.115,8.89,8.89,0,0,1-4.5-2.3,7.321,7.321,0,0,1-2.14-4.136C2045.051,1320.706,2045.029,1320.222,2045,1319.935Zm28.6,2.412.061-.03a2.865,2.865,0,0,0,1.66-2.412,3.279,3.279,0,0,0-1.981-3.5,4.11,4.11,0,0,0-1.8-.247,3.286,3.286,0,0,0-2.378,5.415,3.379,3.379,0,0,0,2.409,1.126.733.733,0,0,1,.39.147,4.225,4.225,0,0,0,3.956.891.267.267,0,0,0,.241-.248c.087-.548.181-1.1.269-1.644a1.6,1.6,0,0,0,0-.22A3.75,3.75,0,0,1,2073.6,1322.346Zm-19.182-3.163.125-.1a1.6,1.6,0,0,0-.974-2.863c-1.329-.01-2.657,0-3.986-.006-.17,0-.222.06-.221.226q.006,2.984,0,5.968c0,.172.065.22.228.219,1.321,0,2.641,0,3.962-.007a1.735,1.735,0,0,0,1.176-.492A1.852,1.852,0,0,0,2054.417,1319.183Zm3.182.73h.283c1.192,0,2.385,0,3.577,0,.158,0,.261-.022.258-.219a4.188,4.188,0,0,0-.523-2.084,2.974,2.974,0,0,0-4.91-.257,3.68,3.68,0,0,0-.675,2.7,2.9,2.9,0,0,0,2.267,2.583,4.982,4.982,0,0,0,3.338-.419.544.544,0,0,0,.365-.614c-.029-.287-.005-.579-.008-.869a1.233,1.233,0,0,0-.028-.182c-.339.164-.648.335-.974.466a2.963,2.963,0,0,1-1.891.163A1.436,1.436,0,0,1,2057.6,1319.914Zm6.394-2.922c0-.119-.01-.238,0-.355.02-.194-.044-.272-.252-.267-.483.012-.966.012-1.449,0-.2,0-.247.073-.244.255.014.8.02,1.594.025,2.391.007,1.119.014,2.239.011,3.359,0,.189.058.254.249.25.459-.011.918-.014,1.377,0,.22.007.289-.058.286-.283-.011-1.063,0-2.127,0-3.19a1.471,1.471,0,0,1,.974-1.436.756.756,0,0,1,1.039.379,1.861,1.861,0,0,1,.187.736c.019,1.144.008,2.288.009,3.432,0,.325,0,.325.336.326h1.208c.331,0,.331,0,.332-.33,0-1.281.007-2.561.017-3.842a2.248,2.248,0,0,0-2.74-2.221A2.816,2.816,0,0,0,2063.993,1316.992Z" transform="translate(0 0)" fill="#929ab3"/>
    <path id="Path_2018" data-name="Path 2018" d="M2130.373,1340.518a1.927,1.927,0,0,1-.549,1.373,1.167,1.167,0,0,1-1.734-.021,2.049,2.049,0,0,1-.024-2.727,1.18,1.18,0,0,1,1.836.038A2,2,0,0,1,2130.373,1340.518Z" transform="translate(-57.15 -20.942)" fill="#929ab3"/>
    <path id="Path_2019" data-name="Path 2019" d="M2064.846,1345.664c.1-.007.178-.016.256-.016.466,0,.933,0,1.4,0,.339,0,.528.214.549.6a.57.57,0,0,1-.506.649c-.513.018-1.029.01-1.543,0a.2.2,0,0,1-.148-.132C2064.841,1346.4,2064.846,1346.044,2064.846,1345.664Z" transform="translate(-13.738 -25.733)" fill="#929ab3"/>
    <path id="Path_2020" data-name="Path 2020" d="M2064.876,1339.506v-.937h.822c.258,0,.516,0,.773,0a.47.47,0,0,1,.508.442.462.462,0,0,1-.462.489C2065.979,1339.519,2065.441,1339.506,2064.876,1339.506Z" transform="translate(-13.759 -20.833)" fill="#929ab3"/>
    <path id="Path_2021" data-name="Path 2021" d="M2085.939,1339.48a1.028,1.028,0,0,1,1.052-.836,1.013,1.013,0,0,1,.95.836Z" transform="translate(-28.339 -20.886)" fill="#929ab3"/>
  </g>
</svg>
