<svg xmlns="http://www.w3.org/2000/svg" width="18.59" height="25" viewBox="0 0 18.59 25">
  <g id="Group_646" data-name="Group 646" transform="translate(-1174.174 -174.24)">
    <path id="Path_1694" data-name="Path 1694" d="M1189.676,192.6a2,2,0,0,1,1.622.9,3.186,3.186,0,0,1,.308,1.87h.3c.854,0,.854,0,.854.865v2.344c0,.581-.077.659-.648.659h-17.351c-.492,0-.591-.1-.591-.595q0-1.378,0-2.755c0-.393.125-.516.522-.518h.639c0-.232,0-.454,0-.676a1.955,1.955,0,0,1,1.915-2.093,1.059,1.059,0,0,1-.1-.185,3.729,3.729,0,0,1-.257-.965q-.024-7.637-.009-15.275a1.916,1.916,0,0,1,1.939-1.934q4.646-.009,9.292,0a1.916,1.916,0,0,1,1.933,1.939q.006,7.637,0,15.275A2.1,2.1,0,0,1,1189.676,192.6Zm-12.006-3.15h10.04V177.4h-10.04Zm12.759,6.709h-15.469v2.29h15.469Zm-14.316-.807h13.166c0-.224,0-.433,0-.641a1.179,1.179,0,0,0-1.323-1.327h-10.113c-.21,0-.42-.006-.629,0a1.149,1.149,0,0,0-1.1,1.058C1176.1,194.744,1176.114,195.042,1176.114,195.356ZM1187.7,176.6a1.26,1.26,0,0,0-1.333-1.6c-2.466.031-4.933.011-7.4.012a1.835,1.835,0,0,0-.384.027,1.232,1.232,0,0,0-.9,1.556Zm.416-1.574a2,2,0,0,1,.384,1.153c0,5.092.005,10.184-.011,15.276a3.719,3.719,0,0,1-.259.965,1.107,1.107,0,0,1-.095.185,1.154,1.154,0,0,0,1.141-1.238q0-7.554,0-15.107c0-.056,0-.113,0-.169A1.159,1.159,0,0,0,1188.119,175.027Zm-5.7,15.236h-4.761c0,.386,0,.756,0,1.125a1.163,1.163,0,0,0,1.228,1.227c.91,0,1.821,0,2.731,0h.8c-.666-.36-.926-.71-.876-1.23A1.237,1.237,0,0,1,1182.421,190.262Zm.6-.009a1.25,1.25,0,0,1,.83,1.133,1.183,1.183,0,0,1-.9,1.224c1.286,0,2.507.015,3.727-.007a1.048,1.048,0,0,0,1.017-.908,11.956,11.956,0,0,0,.012-1.441Zm8.216,5.9v2.29h.745v-2.29Zm-.406-.794c0-.323.015-.621,0-.918a1.126,1.126,0,0,0-1.156-1.037,2.87,2.87,0,0,1,.389,1.954Zm-7.747-3.923a.385.385,0,0,0-.77.023.385.385,0,1,0,.77-.023Z" fill="#707b9b"/>
    <path id="Path_1695" data-name="Path 1695" d="M1205.4,215.84c-.053.774-.053.774-.8.774h-5.639c-.433,0-.543-.11-.543-.541q0-1.2,0-2.393c0-.431.114-.547.54-.547h5.833c.493,0,.593.1.6.591,0,.048,0,.1,0,.182.23,0,.452,0,.674,0,.345,0,.484.14.487.484s0,.661,0,.991c0,.315-.146.454-.462.458C1205.859,215.842,1205.635,215.84,1205.4,215.84Zm-5.453-.012v-1.9h-.745v1.9Zm.8-.009h.752v-1.9h-.752Zm2.3-1.9h-.747v1.9h.747Zm.8,1.9h.744v-1.907h-.744Zm1.551-1.14v.364h.352v-.364Z" transform="translate(-19.595 -31.442)" fill="#707b9b"/>
    <path id="Path_1696" data-name="Path 1696" d="M1217.619,180.3c.186,0,.371-.006.557,0a.384.384,0,1,1,0,.768q-.569.011-1.138,0a.384.384,0,1,1,0-.768C1217.231,180.3,1217.425,180.3,1217.619,180.3Z" transform="translate(-34.332 -4.901)" fill="#707b9b"/>
    <path id="Path_1697" data-name="Path 1697" d="M1211,180.32a.385.385,0,0,1,.012.77.385.385,0,1,1-.012-.77Z" transform="translate(-29.462 -4.915)" fill="#707b9b"/>
  </g>
</svg>
