<svg xmlns="http://www.w3.org/2000/svg" width="25" height="15.371" viewBox="0 0 25 15.371">
  <g id="Group_651" data-name="Group 651" transform="translate(-910.919 -719.277)">
    <path id="Path_1743" data-name="Path 1743" d="M923.233,723.433c0-.36,0-.7,0-1.049a.815.815,0,0,1,.93-.831.926.926,0,0,1,.3.1c.438.221.873.449,1.31.673a.722.722,0,0,0,.928-.162,3.778,3.778,0,0,0,1.031-2.654V719.3l.173-.014.177-.009c.005.043.013.081.014.12a4.114,4.114,0,0,1-1.149,3.042,1.092,1.092,0,0,1-1.325.225c-.433-.221-.864-.447-1.3-.67a.455.455,0,0,0-.716.431c0,.323,0,.646,0,.969a.183.183,0,0,0,.017.039h10.935a1.305,1.305,0,0,1,1.314,1,1.5,1.5,0,0,1,.041.35q0,4.259,0,8.517a1.318,1.318,0,0,1-1.307,1.347c-.086,0-.173,0-.259,0H912.323a1.32,1.32,0,0,1-1.363-1.01,1.448,1.448,0,0,1-.04-.338q0-4.258,0-8.517a1.314,1.314,0,0,1,1.357-1.35h10.956Zm.194.572H912.316a.75.75,0,0,0-.824.819v8.422a.758.758,0,0,0,.83.83h22.2a.757.757,0,0,0,.831-.829q0-4.211,0-8.422a.75.75,0,0,0-.823-.82Z" transform="translate(0)" fill="#707b9b"/>
    <path id="Path_1744" data-name="Path 1744" d="M951.106,787.508H946.86c-.241,0-.309-.067-.309-.307,0-.223,0-.446,0-.669,0-.178.079-.256.26-.256h8.6c.187,0,.259.076.26.269q0,.341,0,.682c0,.205-.073.28-.279.28h-4.286Z" transform="translate(-28.836 -54.221)" fill="#707b9b"/>
    <path id="Path_1745" data-name="Path 1745" d="M920.208,762.383c-.346,0-.691,0-1.037,0-.182,0-.258-.077-.26-.256q0-.375,0-.75c0-.171.081-.254.249-.254q1.058,0,2.115,0a.221.221,0,0,1,.248.244q.007.389,0,.778c0,.161-.086.238-.251.239C920.918,762.384,920.563,762.383,920.208,762.383Z" transform="translate(-6.467 -33.863)" fill="#707b9b"/>
    <path id="Path_1746" data-name="Path 1746" d="M1021.624,762.384H1020.6c-.222,0-.29-.07-.291-.3s0-.455,0-.682c0-.207.077-.283.278-.283h2.06c.2,0,.273.076.274.27q0,.348,0,.7c0,.227-.066.295-.289.3Z" transform="translate(-88.527 -33.864)" fill="#707b9b"/>
    <path id="Path_1747" data-name="Path 1747" d="M973.735,774.86c-.182,0-.363,0-.545,0s-.262-.075-.265-.253q-.007-.382,0-.763a.221.221,0,0,1,.247-.245q.559,0,1.117,0a.221.221,0,0,1,.25.241c.005.259,0,.518,0,.777a.218.218,0,0,1-.247.243c-.186,0-.373,0-.559,0Z" transform="translate(-50.177 -43.96)" fill="#707b9b"/>
    <path id="Path_1748" data-name="Path 1748" d="M987.755,749.79c-.182,0-.363,0-.545,0s-.257-.077-.26-.244q-.007-.388,0-.777a.221.221,0,0,1,.253-.239q.559,0,1.117,0a.216.216,0,0,1,.245.231q.008.4,0,.79c0,.161-.086.236-.252.237C988.128,749.791,987.942,749.79,987.755,749.79Z" transform="translate(-61.527 -23.673)" fill="#707b9b"/>
    <path id="Path_1749" data-name="Path 1749" d="M933.212,774.859c-.186,0-.373,0-.559,0a.222.222,0,0,1-.252-.252q-.005-.382,0-.763a.223.223,0,0,1,.247-.245q.559,0,1.117,0a.224.224,0,0,1,.251.254q0,.375,0,.75c0,.181-.078.255-.259.258S933.393,774.859,933.212,774.859Z" transform="translate(-17.383 -43.959)" fill="#707b9b"/>
    <path id="Path_1750" data-name="Path 1750" d="M1007.932,762.387c-.182,0-.363,0-.545,0-.166,0-.249-.077-.252-.237q-.008-.4,0-.79a.216.216,0,0,1,.244-.232q.565,0,1.131,0a.214.214,0,0,1,.237.237c0,.259,0,.518,0,.777a.216.216,0,0,1-.242.245C1008.314,762.39,1008.123,762.387,1007.932,762.387Z" transform="translate(-77.863 -33.867)" fill="#707b9b"/>
    <path id="Path_1751" data-name="Path 1751" d="M940.6,761.129c.186,0,.372,0,.559,0a.224.224,0,0,1,.251.253q0,.382,0,.763a.217.217,0,0,1-.245.243q-.559,0-1.118,0a.22.22,0,0,1-.25-.251q0-.382,0-.763a.219.219,0,0,1,.244-.245C940.231,761.127,940.417,761.129,940.6,761.129Z" transform="translate(-23.372 -33.869)" fill="#707b9b"/>
    <path id="Path_1752" data-name="Path 1752" d="M954.068,762.388c-.186,0-.372,0-.559,0a.218.218,0,0,1-.243-.245q0-.381,0-.763a.223.223,0,0,1,.253-.251q.552,0,1.1,0c.177,0,.255.081.257.26,0,.25,0,.5,0,.75,0,.17-.081.248-.252.25C954.441,762.39,954.255,762.388,954.068,762.388Z" transform="translate(-34.269 -33.869)" fill="#707b9b"/>
    <path id="Path_1753" data-name="Path 1753" d="M919.71,749.79c-.182,0-.363,0-.545,0s-.253-.078-.254-.247q0-.381,0-.763c0-.17.081-.248.253-.249q.552,0,1.1,0a.222.222,0,0,1,.254.248q0,.382,0,.763c0,.169-.081.246-.253.248S919.9,749.79,919.71,749.79Z" transform="translate(-6.466 -23.673)" fill="#707b9b"/>
    <path id="Path_1754" data-name="Path 1754" d="M933.314,749.79c-.182,0-.364,0-.545,0s-.254-.078-.256-.246q0-.381,0-.763a.223.223,0,0,1,.254-.25q.552,0,1.1,0c.172,0,.253.08.254.248q0,.381,0,.763c0,.171-.078.246-.252.248S933.5,749.79,933.314,749.79Z" transform="translate(-17.473 -23.673)" fill="#707b9b"/>
    <path id="Path_1755" data-name="Path 1755" d="M933.729,786.293c.186,0,.372,0,.559,0a.215.215,0,0,1,.239.236c0,.259,0,.518,0,.777a.221.221,0,0,1-.244.246q-.566,0-1.131,0a.214.214,0,0,1-.237-.237c0-.259,0-.518,0-.777a.215.215,0,0,1,.242-.244C933.348,786.291,933.539,786.293,933.729,786.293Z" transform="translate(-17.799 -54.234)" fill="#707b9b"/>
    <path id="Path_1756" data-name="Path 1756" d="M919.709,787.553c-.182,0-.363,0-.545,0s-.252-.081-.253-.25q0-.382,0-.763a.216.216,0,0,1,.241-.246q.565,0,1.131,0c.161,0,.238.083.24.247q0,.382,0,.763c0,.167-.084.246-.255.248C920.082,787.554,919.9,787.553,919.709,787.553Z" transform="translate(-6.466 -54.234)" fill="#707b9b"/>
    <path id="Path_1757" data-name="Path 1757" d="M1027.771,787.553c-.182,0-.364,0-.545,0a.222.222,0,0,1-.251-.252q0-.382,0-.763a.217.217,0,0,1,.244-.244q.566,0,1.131,0a.214.214,0,0,1,.237.236q0,.389,0,.777a.22.22,0,0,1-.244.246C1028.153,787.555,1027.962,787.553,1027.771,787.553Z" transform="translate(-93.92 -54.233)" fill="#707b9b"/>
    <path id="Path_1758" data-name="Path 1758" d="M946.934,749.789c-.191,0-.382,0-.572,0a.216.216,0,0,1-.239-.236c0-.259,0-.518,0-.777a.221.221,0,0,1,.245-.246q.566,0,1.131,0a.214.214,0,0,1,.237.237q0,.388,0,.777c0,.17-.081.243-.256.245S947.115,749.789,946.934,749.789Z" transform="translate(-28.487 -23.672)" fill="#707b9b"/>
    <path id="Path_1759" data-name="Path 1759" d="M974.153,748.53c.186,0,.372,0,.559,0a.218.218,0,0,1,.248.241q.005.388,0,.776a.215.215,0,0,1-.245.242q-.559,0-1.117,0c-.165,0-.247-.077-.25-.239,0-.259,0-.518,0-.777a.221.221,0,0,1,.247-.244C973.78,748.528,973.966,748.53,974.153,748.53Z" transform="translate(-50.519 -23.673)" fill="#707b9b"/>
    <path id="Path_1760" data-name="Path 1760" d="M1015.009,748.531c.182,0,.364,0,.545,0s.262.081.264.255q0,.375,0,.75c0,.177-.083.254-.263.255q-.545,0-1.09,0c-.183,0-.259-.075-.26-.254q0-.375,0-.75c0-.179.079-.254.26-.256S1014.828,748.531,1015.009,748.531Z" transform="translate(-83.585 -23.674)" fill="#707b9b"/>
    <path id="Path_1761" data-name="Path 1761" d="M1028.614,749.789c-.186,0-.372,0-.558,0a.212.212,0,0,1-.237-.235q0-.4,0-.79a.214.214,0,0,1,.241-.233q.565,0,1.131,0a.216.216,0,0,1,.239.237q.005.395,0,.79a.215.215,0,0,1-.242.232C1029,749.791,1028.8,749.789,1028.614,749.789Z" transform="translate(-94.602 -23.672)" fill="#707b9b"/>
    <path id="Path_1762" data-name="Path 1762" d="M967.534,762.389c-.186,0-.372,0-.559,0a.218.218,0,0,1-.243-.245q0-.382,0-.763a.223.223,0,0,1,.254-.251q.552,0,1.1,0c.172,0,.253.079.255.247q0,.382,0,.763c0,.172-.08.247-.252.249S967.72,762.389,967.534,762.389Z" transform="translate(-45.166 -33.869)" fill="#707b9b"/>
    <path id="Path_1763" data-name="Path 1763" d="M987.267,774.858c-.191,0-.382,0-.572,0a.213.213,0,0,1-.238-.236q0-.4,0-.791a.213.213,0,0,1,.228-.233q.572-.006,1.145,0a.218.218,0,0,1,.24.238q.005.4,0,.79a.217.217,0,0,1-.243.232c-.186,0-.372,0-.559,0Z" transform="translate(-61.129 -43.958)" fill="#707b9b"/>
    <path id="Path_1764" data-name="Path 1764" d="M1000.756,774.859c-.186,0-.372,0-.559,0a.223.223,0,0,1-.252-.252c0-.254,0-.509,0-.763a.223.223,0,0,1,.247-.245q.559,0,1.117,0c.169,0,.247.083.248.255,0,.254,0,.509,0,.763a.216.216,0,0,1-.244.243C1001.129,774.861,1000.942,774.859,1000.756,774.859Z" transform="translate(-72.046 -43.959)" fill="#707b9b"/>
    <path id="Path_1765" data-name="Path 1765" d="M1027.78,774.859c-.182,0-.364,0-.545,0s-.259-.078-.26-.256q0-.375,0-.75a.224.224,0,0,1,.249-.255q.559,0,1.117,0a.22.22,0,0,1,.246.245q0,.388,0,.777a.215.215,0,0,1-.235.239c-.191,0-.382,0-.572,0Z" transform="translate(-93.92 -43.959)" fill="#707b9b"/>
    <path id="Path_1766" data-name="Path 1766" d="M946.75,773.6c.182,0,.363,0,.545,0a.226.226,0,0,1,.254.252q0,.382,0,.763a.219.219,0,0,1-.243.246q-.565,0-1.131,0a.211.211,0,0,1-.237-.235q0-.4,0-.79a.215.215,0,0,1,.24-.234C946.369,773.6,946.56,773.6,946.75,773.6Z" transform="translate(-28.338 -43.961)" fill="#707b9b"/>
    <path id="Path_1767" data-name="Path 1767" d="M1000.762,786.294c.186,0,.372,0,.559,0a.211.211,0,0,1,.236.236q0,.388,0,.777a.217.217,0,0,1-.242.246q-.566,0-1.131,0a.218.218,0,0,1-.239-.238q-.007-.4,0-.791a.217.217,0,0,1,.245-.231C1000.381,786.292,1000.572,786.293,1000.762,786.294Z" transform="translate(-72.044 -54.235)" fill="#707b9b"/>
    <path id="Path_1768" data-name="Path 1768" d="M919.717,774.86c-.182,0-.363,0-.545,0s-.259-.078-.26-.255q0-.375,0-.75c0-.175.082-.256.261-.256q.545,0,1.09,0c.179,0,.259.081.26.257q0,.375,0,.75c0,.173-.077.251-.247.254C920.089,774.862,919.9,774.86,919.717,774.86Z" transform="translate(-6.467 -43.96)" fill="#707b9b"/>
    <path id="Path_1769" data-name="Path 1769" d="M1014.282,774.86c-.182,0-.363,0-.545,0s-.259-.075-.261-.254q0-.374,0-.749c0-.179.08-.257.259-.258q.545,0,1.09,0c.183,0,.264.084.266.27q0,.361,0,.722c0,.193-.081.268-.277.27C1014.636,774.861,1014.459,774.86,1014.282,774.86Z" transform="translate(-82.996 -43.96)" fill="#707b9b"/>
    <path id="Path_1770" data-name="Path 1770" d="M960.536,749.79c-.182,0-.363,0-.545,0s-.257-.08-.258-.259c0-.25,0-.5,0-.749a.224.224,0,0,1,.255-.251q.552,0,1.1,0c.171,0,.253.078.255.248q.006.388,0,.777a.212.212,0,0,1-.238.235C960.918,749.792,960.727,749.79,960.536,749.79Z" transform="translate(-39.503 -23.673)" fill="#707b9b"/>
    <path id="Path_1771" data-name="Path 1771" d="M994.463,762.388c-.186,0-.373,0-.559,0a.217.217,0,0,1-.242-.234q-.008-.4,0-.79a.217.217,0,0,1,.242-.234q.566,0,1.131,0a.214.214,0,0,1,.24.235q.008.4,0,.79a.213.213,0,0,1-.241.233C994.845,762.39,994.654,762.388,994.463,762.388Z" transform="translate(-66.96 -33.868)" fill="#707b9b"/>
    <path id="Path_1772" data-name="Path 1772" d="M1014.287,786.293c.186,0,.373,0,.559,0a.217.217,0,0,1,.241.235q.008.4,0,.79a.22.22,0,0,1-.244.234q-.566,0-1.131,0a.214.214,0,0,1-.238-.237q-.005-.4,0-.79a.212.212,0,0,1,.241-.232C1013.906,786.291,1014.1,786.293,1014.287,786.293Z" transform="translate(-82.993 -54.234)" fill="#707b9b"/>
    <path id="Path_1773" data-name="Path 1773" d="M960.231,774.859c-.186,0-.372,0-.559,0a.218.218,0,0,1-.243-.245q0-.382,0-.763a.224.224,0,0,1,.253-.252q.552,0,1.1,0c.172,0,.254.08.256.248q0,.381,0,.763c0,.171-.08.247-.252.25s-.372,0-.559,0Z" transform="translate(-39.257 -43.96)" fill="#707b9b"/>
    <path id="Path_1774" data-name="Path 1774" d="M1001.383,748.53c.186,0,.373,0,.559,0a.224.224,0,0,1,.253.252q.005.381,0,.763a.218.218,0,0,1-.246.244q-.566,0-1.131,0a.214.214,0,0,1-.237-.237c0-.263,0-.527,0-.79a.215.215,0,0,1,.243-.232C1001.011,748.528,1001.2,748.53,1001.383,748.53Z" transform="translate(-72.559 -23.673)" fill="#707b9b"/>
    <path id="Path_1775" data-name="Path 1775" d="M981.019,761.129c.182,0,.363,0,.545,0a.216.216,0,0,1,.243.244q0,.382,0,.763c0,.175-.076.251-.247.252q-.559,0-1.117,0a.219.219,0,0,1-.247-.242q-.005-.388,0-.777a.223.223,0,0,1,.251-.24C980.637,761.127,980.828,761.128,981.019,761.129Z" transform="translate(-56.062 -33.869)" fill="#707b9b"/>
  </g>
</svg>
