<svg xmlns="http://www.w3.org/2000/svg" width="22.667" height="22.668" viewBox="0 0 22.667 22.668">
  <g id="Group_642" data-name="Group 642" transform="translate(-311.382 -183.25)">
    <path id="Path_1676" data-name="Path 1676" d="M333.074,189.7c.229.227.465.456.7.69a.749.749,0,0,1,0,1.165q-2.494,2.5-4.992,4.994l-3.34,3.339a.783.783,0,0,1-1.309.007c-.206-.207-.412-.415-.6-.6l-1.281,1.276c.194.192.423.416.649.643a.761.761,0,0,1,0,1.213q-1.6,1.6-3.2,3.2a.759.759,0,0,1-1.211,0c-.222-.223-.438-.451-.651-.671-.573.3-.789.266-1.231-.176l-2.624-2.624a.764.764,0,0,1-.192-1.029.717.717,0,0,0-.976-.962.771.771,0,0,1-1.013-.189c-.075-.074-.151-.146-.221-.224a.73.73,0,0,1,0-1.018c.04-.045.084-.086.126-.128l15-15a.787.787,0,0,1,1.308.007.818.818,0,0,1,.235,1.137.7.7,0,0,0,.146.79.717.717,0,0,0,.809.149.8.8,0,0,1,1.1.216l2.608,2.608A.8.8,0,0,1,333.074,189.7Zm-15.762,14.622,15.2-15.152c-.036-.044-.06-.081-.091-.112-.887-.883-1.778-1.763-2.659-2.652-.112-.113-.186-.061-.292-.021a1.4,1.4,0,0,1-1.546-.272,1.351,1.351,0,0,1-.4-1.534c.1-.264.05-.415-.117-.512l-15.25,15.188c.236.248.234.243.54.146a1.6,1.6,0,0,1,.394-.08,1.465,1.465,0,0,1,1.432,2.015c-.037.095-.1.171.012.276C315.467,202.511,316.392,203.419,317.312,204.319Zm8.751-6.168.729-.719-.71-.7-.721.717Zm-1.268-.16-.724.719.705.717.721-.72Zm-5.714,7.1.7-.688-.693-.691-.714.691Zm13.476-14.847-.713.711.685.689.714-.672Zm-1.317,1.314-.7.7.709.717.7-.7Zm-2.587,4,.711-.712-.691-.707-.713.711Zm-6.263,6.273-.675-.723-.721.709.693.706Zm8.258-8.28-.707-.7-.687.683.7.717Zm-3.984,2.561.725.731.7-.7-.725-.727ZM320.4,202.4l-.7.705.71.711.711-.7Z" transform="translate(0)" fill="#707b9b"/>
    <path id="Path_1677" data-name="Path 1677" d="M381.585,200.447a2.4,2.4,0,0,1-.293.533c-.581.606-1.177,1.2-1.776,1.783a.731.731,0,0,1-1.068,0q-1.286-1.273-2.558-2.559a.726.726,0,0,1,0-1.067q.889-.907,1.8-1.8a.721.721,0,0,1,1.05,0q1.3,1.277,2.572,2.578A2.231,2.231,0,0,1,381.585,200.447Zm-.878,0-2.5-2.518-1.735,1.737,2.515,2.512Z" transform="translate(-51.103 -11.023)" fill="#707b9b"/>
    <path id="Path_1678" data-name="Path 1678" d="M332.449,249.608a2.563,2.563,0,0,1-.3.542c-.575.6-1.167,1.185-1.76,1.768a.744.744,0,0,1-1.1-.01q-1.26-1.251-2.511-2.511a.742.742,0,0,1-.009-1.117q.867-.881,1.748-1.748a.741.741,0,0,1,1.116.008c.84.834,1.68,1.668,2.506,2.515A2.612,2.612,0,0,1,332.449,249.608Zm-3.394-2.522-1.724,1.722,2.513,2.514,1.732-1.715Z" transform="translate(-12.031 -50.118)" fill="#707b9b"/>
    <path id="Path_1679" data-name="Path 1679" d="M362.615,219.44a2.371,2.371,0,0,1-.538-.3c-.858-.837-1.7-1.686-2.547-2.538a.742.742,0,0,1,.008-1.1q.868-.88,1.748-1.748a.736.736,0,0,1,1.1,0q1.279,1.264,2.542,2.544a.731.731,0,0,1-.006,1.084c-.583.593-1.168,1.185-1.768,1.76A2.489,2.489,0,0,1,362.615,219.44Zm-2.514-3.4,2.5,2.505,1.728-1.718-2.507-2.508Z" transform="translate(-38.09 -24.059)" fill="#707b9b"/>
    <path id="Path_1680" data-name="Path 1680" d="M348.832,233.23a2.635,2.635,0,0,1-.308.542c-.57.595-1.157,1.174-1.743,1.752a.744.744,0,0,1-1.118,0q-1.26-1.25-2.511-2.511a.742.742,0,0,1,0-1.117q.868-.88,1.748-1.748a.738.738,0,0,1,1.1,0c.846.838,1.691,1.678,2.522,2.531A2.519,2.519,0,0,1,348.832,233.23Zm-.865,0-2.5-2.5-1.733,1.732,2.5,2.5Z" transform="translate(-25.058 -37.092)" fill="#707b9b"/>
  </g>
</svg>
