<svg xmlns="http://www.w3.org/2000/svg" width="26" height="23.68" viewBox="0 0 26 23.68">
  <g id="Group_747" data-name="Group 747" transform="translate(-2086.074 -1418.244)">
    <path id="Path_2042" data-name="Path 2042" d="M2109.161,1438.918h1.389v-7.526h-1.382c-.007.133-.016.259-.019.385a1.325,1.325,0,0,1-1.35,1.226c-.794-.009-1.589,0-2.384,0h-4.266l-11.1,0c-.866,0-1.733.005-2.6,0a1.3,1.3,0,0,1-1.3-.878,1.569,1.569,0,0,1-.077-.49q-.01-1.565,0-3.13a1.3,1.3,0,0,1,1.319-1.318c1.467,0,2.933.008,4.4.007q3.825,0,7.649-.009,2.633,0,5.266,0c1.022,0,2.044.021,3.066-.008a1.348,1.348,0,0,1,1.387,1.367c0,.394,0,.789,0,1.183,0,.049,0,.1.009.16h1.377v-8.627h-1.379c0,.06-.009.123-.01.185-.006.5.012,1-.022,1.5a1.241,1.241,0,0,1-1.131,1.108c-.554.029-1.111.011-1.666.014-.36,0-.72,0-1.081,0h-10.448q-3.648,0-7.3,0a1.391,1.391,0,0,1-1.06-.39,1.268,1.268,0,0,1-.378-.914q-.005-1.616,0-3.232a1.3,1.3,0,0,1,1.308-1.279c.916-.005,1.833,0,2.749,0h7.633c3.333,0,6.665.009,10,0a1.342,1.342,0,0,1,1.395,1.371v.146h2.225a.63.63,0,0,1,.688.68q0,2.533,0,5.066,0,3.324,0,6.648,0,3.774,0,7.549a.641.641,0,0,1-.714.708H2109.2a3.9,3.9,0,0,1-.164.722,1.24,1.24,0,0,1-1.222.785q-3.383,0-6.766-.005-5.424,0-10.849.007c-.938,0-1.877,0-2.815,0a1.286,1.286,0,0,1-1.307-1.311q-.006-1.608,0-3.217a1.29,1.29,0,0,1,1.257-1.281c1.755-.013,3.51-.008,5.266-.009q1.773,0,3.547,0l9.966,0h1.664a1.324,1.324,0,0,1,1.386,1.4C2109.16,1437.968,2109.161,1438.433,2109.161,1438.918Zm-9.855.933h0q1.691,0,3.382,0a.836.836,0,1,0,.009-1.672q-3.391,0-6.781,0a.835.835,0,1,0,.008,1.67Q2097.615,1439.854,2099.306,1439.851Zm-.017-8.928h0c1.127,0,2.254.008,3.381-.007a1.012,1.012,0,0,0,.522-.169.793.793,0,0,0,.3-.93.836.836,0,0,0-.8-.563c-.549,0-1.1,0-1.648,0q-2.572,0-5.145,0a.823.823,0,0,0-.835.85.832.832,0,0,0,.834.821Zm0-8.935v0q1.69,0,3.38,0a.836.836,0,1,0,0-1.672q-3.38,0-6.761,0a.824.824,0,0,0-.849.818.815.815,0,0,0,.849.849C2097.039,1421.99,2098.165,1421.988,2099.292,1421.988Zm-9.565,15.533c-.355,0-.711-.006-1.066,0a.993.993,0,0,0-.988,1c0,.316,0,.633,0,.949a.99.99,0,0,0,1.024,1.033q1.024.008,2.048,0a1,1,0,0,0,1.03-1.047c0-.278-.014-.557,0-.833a1.023,1.023,0,0,0-1.069-1.111C2090.382,1437.53,2090.055,1437.521,2089.727,1437.521Zm-.018-14.869v0c.361,0,.722.005,1.083,0a1,1,0,0,0,.982-.993q0-.492,0-.983a.994.994,0,0,0-1-1.012c-.7-.006-1.41-.006-2.115,0a.988.988,0,0,0-.99,1.016q0,.466,0,.933a1,1,0,0,0,1.037,1.038Zm.008,8.926v0c.35,0,.7,0,1.05,0a1,1,0,0,0,1.006-1c0-.316,0-.633,0-.95a.986.986,0,0,0-1.008-1.031q-1.057-.013-2.114,0a.985.985,0,0,0-.98,1.007q0,.483,0,.966a.99.99,0,0,0,1,1.008C2089.017,1431.583,2089.367,1431.578,2089.717,1431.578Zm17.082,0a1.5,1.5,0,1,0-1.486-1.5A1.5,1.5,0,0,0,2106.8,1431.579Zm.015-8.927a1.5,1.5,0,1,0-1.5-1.486A1.5,1.5,0,0,0,2106.814,1422.652Zm0,14.869a1.494,1.494,0,1,0,1.481,1.508A1.5,1.5,0,0,0,2106.815,1437.521Z" fill="#707b9b"/>
    <path id="Path_2043" data-name="Path 2043" d="M2099.427,1456.97h9.612a.631.631,0,0,1,.715.717,1.3,1.3,0,0,1-.046.393.594.594,0,0,1-.619.41h-19.243a.634.634,0,0,1-.726-.722,1.166,1.166,0,0,1,.075-.468.6.6,0,0,1,.6-.333q3.99,0,7.979,0Z" transform="translate(-1.819 -23.118)" fill="#707b9b"/>
    <path id="Path_2044" data-name="Path 2044" d="M2099.411,1436.028h-4.933c-1.522,0-3.044-.013-4.565.006-.527.006-.872-.254-.807-.83a1.146,1.146,0,0,1,.123-.437.57.57,0,0,1,.527-.263l4.883,0,2.179,0,8.833,0,2.88,0c.188,0,.376,0,.564,0a.632.632,0,0,1,.65.638,2.226,2.226,0,0,1-.005.333.624.624,0,0,1-.63.551c-.527,0-1.055-.006-1.583-.006h-8.115Z" transform="translate(-1.805 -9.706)" fill="#707b9b"/>
    <path id="Path_2045" data-name="Path 2045" d="M2137.113,1446.4a.837.837,0,0,1-1.674,0,.837.837,0,1,1,1.674,0Z" transform="translate(-29.47 -16.307)" fill="#707b9b"/>
    <path id="Path_2046" data-name="Path 2046" d="M2136.266,1425.062a.836.836,0,1,1,.01-1.671.836.836,0,1,1-.01,1.671Z" transform="translate(-29.466 -3.073)" fill="#707b9b"/>
    <path id="Path_2047" data-name="Path 2047" d="M2137.111,1468.362a.839.839,0,1,1-1.678-.009.839.839,0,0,1,1.678.009Z" transform="translate(-29.467 -29.416)" fill="#707b9b"/>
  </g>
</svg>
