<svg xmlns="http://www.w3.org/2000/svg" width="25.709" height="25.514" viewBox="0 0 25.709 25.514">
  <g id="Group_703" data-name="Group 703" transform="translate(-1798 -489.252)">
    <path id="Path_1878" data-name="Path 1878" d="M1798,496.627c.032-.093.062-.186.1-.278a1.654,1.654,0,0,1,1.419-1.127,3.327,3.327,0,0,1,.422-.018h10.49c0-.147,0-.268,0-.389a1.28,1.28,0,0,1,1.329-1.314c.133,0,.266,0,.4-.006a.41.41,0,0,0,.392-.379.415.415,0,0,0-.343-.45,1.233,1.233,0,0,0-.247-.015c-.813,0-1.627.007-2.441-.007a1.266,1.266,0,0,1-.336-2.47,2.981,2.981,0,0,1,.713-.07c.355-.013.466-.1.537-.451a.429.429,0,0,1,.48-.4.435.435,0,0,1,.359.513,1.263,1.263,0,0,1-1.225,1.179c-.141,0-.282,0-.424,0a.428.428,0,0,0-.464.441.42.42,0,0,0,.47.405c.822,0,1.644,0,2.466,0a1.273,1.273,0,0,1,.189,2.537c-.14.014-.282.011-.423.013-.443,0-.578.14-.579.583v.27h.323q5.13,0,10.26,0a1.7,1.7,0,0,1,1.758,1.188,1.971,1.971,0,0,1,.083.562q.006,8.032,0,16.065a1.687,1.687,0,0,1-1.329,1.7,1.015,1.015,0,0,0-.115.044h-22.819a1.8,1.8,0,0,1-1.228-.877,5.3,5.3,0,0,1-.217-.518Zm12.427-.556c-.109-.006-.182-.014-.255-.014q-5.181,0-10.362,0a.86.86,0,0,0-.961.973q0,7.946,0,15.893a.875.875,0,0,0,1,.992h22.019a.876.876,0,0,0,1-.991q0-7.934,0-15.868a.87.87,0,0,0-.986-1q-5.156,0-10.312,0c-.088,0-.175.008-.28.014,0,.284-.009.541.006.8a.273.273,0,0,0,.136.174,1.308,1.308,0,0,1,.709,1.2c0,.122,0,.244,0,.365l.064-.048a4.034,4.034,0,0,1,.585.346c.8.67,1.584,1.361,2.385,2.032a1.12,1.12,0,0,1,.422.932c-.009,2.126,0,4.252-.005,6.377a4.578,4.578,0,0,1-1.528,3.557,4.719,4.719,0,0,1-6.464-.035,4.413,4.413,0,0,1-1.463-3.4c-.01-2.184,0-4.368-.006-6.552a1.053,1.053,0,0,1,.4-.865c.774-.651,1.533-1.319,2.31-1.967a6.507,6.507,0,0,1,.69-.447c.045-.01.054-.067.051-.124a1.355,1.355,0,0,1,.755-1.4.21.21,0,0,0,.093-.153C1810.432,496.612,1810.427,496.356,1810.427,496.072Zm-.851,3.391c-.294.257-.528.466-.766.669-.56.478-1.125.951-1.682,1.434a.409.409,0,0,0-.147.26,27,27,0,0,0,.247,4.444,4.864,4.864,0,0,0,.674,1.923,2.892,2.892,0,0,0,1.666,1.3,4.749,4.749,0,0,0,2.579,0,2.455,2.455,0,0,0,1.566-1.185,6.969,6.969,0,0,0,.668-1.612,21.094,21.094,0,0,0,.358-4.232c.023-.536-.031-.981-.578-1.224a.429.429,0,0,1-.094-.08q-.862-.755-1.723-1.51c-.053-.046-.112-.085-.212-.16v.311q0,2.079,0,4.158a2.61,2.61,0,0,1-.031.421,1.256,1.256,0,0,1-1.155,1.027,1.273,1.273,0,0,1-1.369-1.364c0-1.4,0-2.805,0-4.208ZM1807,508.428a3.858,3.858,0,0,0,6,3.117,3.7,3.7,0,0,0,1.7-3.108,4.6,4.6,0,0,1-7.7-.009Zm4.281-6.835h0q0-.374,0-.747c0-.016,0-.033,0-.05-.014-.3-.168-.481-.422-.484s-.423.174-.427.476q-.01.8,0,1.594a.426.426,0,1,0,.847.007C1811.286,502.125,1811.28,501.859,1811.28,501.593Zm0-2.107q0-.558,0-1.118a1.9,1.9,0,0,0-.005-.2.411.411,0,0,0-.394-.4.383.383,0,0,0-.435.352c-.02.46-.006.922-.006,1.369Zm-.853,4.2c.035.272-.107.589.2.8a.376.376,0,0,0,.484-.021c.265-.225.149-.522.163-.784Z" fill="#707b9b"/>
    <path id="Path_1879" data-name="Path 1879" d="M1807.471,529.033c0,.3,0,.551,0,.807a.411.411,0,0,1-.411.46.421.421,0,0,1-.436-.465c-.006-.4-.007-.795,0-1.192a.414.414,0,0,1,.447-.454q.645-.013,1.291,0a.418.418,0,0,1,.438.413.424.424,0,0,1-.427.429C1808.085,529.043,1807.8,529.033,1807.471,529.033Z" transform="translate(-6.924 -31.274)" fill="#707b9b"/>
  </g>
</svg>
