<svg id="Group_752" data-name="Group 752" xmlns="http://www.w3.org/2000/svg" width="22.993" height="25.367" viewBox="0 0 22.993 25.367">
  <g id="Group_751" data-name="Group 751" transform="translate(0 0)">
    <path id="Path_2063" data-name="Path 2063" d="M1469.266,1845h9.562c.287.191.2.506.239.793h.287q2.8,0,5.6,0a.785.785,0,0,1,.855.842c0,.223,0,.446,0,.668a.776.776,0,0,1-.826.818c-.545,0-1.09,0-1.634,0h-1.1v.844h.309q2.971,0,5.943,0a.792.792,0,0,1,.878.87c0,.33.006.661,0,.99a.247.247,0,0,0,.156.265,1.111,1.111,0,0,1,.638,1.039q.011,1.584,0,3.169a1.086,1.086,0,0,1-.6,1.009.322.322,0,0,0-.19.346q.005,6.153,0,12.306c0,.083,0,.165,0,.248a.777.777,0,0,1-.761.76c-.138.006-.276,0-.341,0l-.331.4h-1.04l-.344-.389H1470.8l-.343.389h-1.04l-.323-.4a.366.366,0,0,0-.076,0c-.636.074-1.049-.263-1.045-1.058.021-4.068.01-8.135.01-12.2v-.3a1.173,1.173,0,0,1-.79-1.106c-.012-1.064-.009-2.129,0-3.193a1.09,1.09,0,0,1,.609-1.005.3.3,0,0,0,.184-.323q-.007-2.092,0-4.183a1.56,1.56,0,0,1,1.176-1.554A.867.867,0,0,0,1469.266,1845Zm19.364,21.8h-17.206c-.074,0-.149,0-.223,0-.267-.008-.437-.152-.44-.37s.166-.366.433-.372c.074,0,.148,0,.223,0h17.2v-5.6h-19.88v5.6c.244,0,.473,0,.7,0,.3,0,.463.124.47.354s-.162.385-.466.388c-.236,0-.471,0-.7,0v2.418h4.4c0-.11,0-.207,0-.3a1.175,1.175,0,0,1,1.264-1.27q4.284,0,8.57,0a1.17,1.17,0,0,1,1.244,1.24c0,.111,0,.222,0,.326h4.411Zm-.006-17.067h-9.558v.43h.28c.685,0,1.37,0,2.055,0a.772.772,0,0,1,.813.649c.011.046.028.09.046.146h.28q1.956,0,3.913,0c.1,0,.226-.016.286.037a.677.677,0,0,1,.24.358.312.312,0,0,1-.295.338,1.664,1.664,0,0,1-.272.01h-4.182v.295c0,.669,0,1.337,0,2.006a.782.782,0,0,1-.869.876q-2.687,0-5.374,0a.777.777,0,0,1-.86-.859c0-.677,0-1.354,0-2.031,0-.088-.008-.176-.013-.287h-6.579a1.755,1.755,0,0,0-.2,0,.415.415,0,0,0-.4.422q-.01,1.585,0,3.17a.4.4,0,0,0,.4.422,2.527,2.527,0,0,0,.272.008h20.159c.074,0,.149,0,.223,0a.418.418,0,0,0,.442-.458q.007-1.548,0-3.1a.425.425,0,0,0-.462-.467c-.231-.008-.462,0-.694,0-.273-.005-.43-.146-.428-.372s.162-.361.436-.369c.112,0,.224,0,.344,0Zm-10.33-3.985h-8.631a.837.837,0,0,0-.94.948q0,2.005,0,4.011v.236h6.381c.17-.619.38-.779,1.005-.779h2.184Zm-2.4,5.168v3.206c.061.007.1.015.141.015,1.748,0,3.5,0,5.245,0,.185,0,.215-.074.214-.234-.006-.923,0-1.847,0-2.771,0-.071-.012-.143-.019-.22Zm-3.185,8.771h11.939v-1.607h-1.606a4.212,4.212,0,0,1-.026.455.34.34,0,0,1-.381.311.336.336,0,0,1-.344-.349c-.007-.136,0-.273,0-.41h-3.216c-.061.3.1.74-.378.75-.513.01-.337-.46-.4-.752h-3.215c0,.134,0,.248,0,.362-.01.254-.151.406-.371.4a.373.373,0,0,1-.368-.387c-.009-.127,0-.255,0-.38h-1.628Zm-.006-2.383h11.954v-.812H1472.7Zm12.349-10.744h-5.984v2.4h2.424c0-.243,0-.472,0-.7a.784.784,0,0,1,.871-.871c.808,0,1.616,0,2.424,0h.265Zm-11.165,22.659h9.591c0-.118,0-.224,0-.329-.009-.347-.159-.5-.5-.5q-4.294,0-8.589,0a.434.434,0,0,0-.5.479C1473.88,1868.97,1473.883,1869.077,1473.883,1869.214Zm-5.151-9.537h1.617v-3.194h-1.617Zm18.282-3.194v3.194h1.608v-3.194Zm-15.08,3.2v-3.2h-.812v3.2Zm13.488-3.2v3.195h.822v-3.195Z" transform="translate(-1467.182 -1845)" fill="#707b9b"/>
    <path id="Path_2064" data-name="Path 2064" d="M1560.934,1885.08a1.639,1.639,0,0,1-.246,0,.336.336,0,0,1-.308-.331.313.313,0,0,1,.253-.37,2.038,2.038,0,0,1,.609,0,.317.317,0,0,1,.265.364.341.341,0,0,1-.327.341,2.273,2.273,0,0,1-.246,0Z" transform="translate(-1542.495 -1876.801)" fill="#707b9b"/>
    <path id="Path_2065" data-name="Path 2065" d="M1571.276,1893.316c-.066,0-.132.005-.2,0a.366.366,0,0,1-.01-.732,2.488,2.488,0,0,1,.394,0,.37.37,0,1,1-.015.738c-.057,0-.115,0-.172,0Z" transform="translate(-1550.849 -1883.444)" fill="#707b9b"/>
    <path id="Path_2066" data-name="Path 2066" d="M1498.818,1885.045c-.38,0-.559-.113-.563-.36s.185-.381.575-.381a1.834,1.834,0,0,1,.2,0,.363.363,0,0,1,.359.389.354.354,0,0,1-.371.348C1498.95,1885.049,1498.884,1885.045,1498.818,1885.045Z" transform="translate(-1492.292 -1876.761)" fill="#707b9b"/>
    <path id="Path_2067" data-name="Path 2067" d="M1550.595,1885.042a1.705,1.705,0,0,1-.246,0,.333.333,0,0,1-.31-.327.324.324,0,0,1,.271-.382,1.869,1.869,0,0,1,.539-.011.337.337,0,0,1,.315.376.343.343,0,0,1-.347.348c-.074.005-.148,0-.222,0Z" transform="translate(-1534.137 -1876.763)" fill="#707b9b"/>
    <path id="Path_2068" data-name="Path 2068" d="M1560.943,1893.334c-.4,0-.574-.114-.568-.379s.171-.364.56-.365.58.127.574.381S1561.322,1893.334,1560.943,1893.334Z" transform="translate(-1542.492 -1883.458)" fill="#707b9b"/>
    <path id="Path_2069" data-name="Path 2069" d="M1571.251,1885.1c-.082,0-.187.022-.242-.019a.775.775,0,0,1-.291-.315.285.285,0,0,1,.231-.375,2,2,0,0,1,.632,0,.314.314,0,0,1,.254.371.339.339,0,0,1-.313.328,2.18,2.18,0,0,1-.271,0Z" transform="translate(-1550.837 -1876.81)" fill="#707b9b"/>
    <path id="Path_2070" data-name="Path 2070" d="M1498.822,1893.331c-.381,0-.56-.112-.568-.358s.182-.384.571-.384c.057,0,.115,0,.173,0a.366.366,0,0,1,.389.385c-.007.213-.145.339-.392.354C1498.937,1893.333,1498.879,1893.331,1498.822,1893.331Z" transform="translate(-1492.291 -1883.456)" fill="#707b9b"/>
    <path id="Path_2071" data-name="Path 2071" d="M1550.586,1893.334a2.157,2.157,0,0,1-.246-.015.333.333,0,0,1-.3-.334.325.325,0,0,1,.28-.376,2.012,2.012,0,0,1,.515-.011.349.349,0,0,1,.333.364.361.361,0,0,1-.359.364c-.073.007-.148,0-.222,0Z" transform="translate(-1534.138 -1883.455)" fill="#707b9b"/>
  </g>
</svg>
