<svg xmlns="http://www.w3.org/2000/svg" width="27.076" height="22.725" viewBox="0 0 27.076 22.725">
  <path id="Path_1997" data-name="Path 1997" d="M-253.4,301.483a7.539,7.539,0,0,0-.294-1.949,10.258,10.258,0,0,0-4.958-5.329,10.083,10.083,0,0,0-4.192-1.042,1.06,1.06,0,0,1-.858-.5,6.8,6.8,0,0,0-.9-1.038,5.559,5.559,0,0,0-3.554-1.538h-1.879a8.815,8.815,0,0,0-1.889.286,6.378,6.378,0,0,0-3.99,5.4,1.219,1.219,0,0,1-.571,1,9.487,9.487,0,0,0-2.058,1.731,6.375,6.375,0,0,0-1.783,3.766,2.677,2.677,0,0,1-.1.864v1.989a11.367,11.367,0,0,0,.34,2.217,8.221,8.221,0,0,0,7.774,5.477c3.4-.066,6.809,0,10.213-.022a7.335,7.335,0,0,0,3.059-.588,9.958,9.958,0,0,0,2.519-1.569,8,8,0,0,0,3.071-5.534,2.159,2.159,0,0,1,.1-.754v-2.321C-253.454,301.85-253.378,301.661-253.4,301.483Zm-8.7,8.922a7.425,7.425,0,0,1-8.254-6.006,7.42,7.42,0,0,1,4.11-7.993,7.5,7.5,0,0,1,8.839,1.911c.285.332.245.5-.114.7-.527.3-1.043.622-1.543.964-.267.182-.422.144-.651-.08a4.588,4.588,0,0,0-7.184.6,4.286,4.286,0,0,0-.319,4.6,4.362,4.362,0,0,0,3.84,2.564,4.445,4.445,0,0,0,4.243-2.171c.1-.16.309-.339.193-.536-.1-.168-.339-.077-.515-.078-.865-.005-1.73-.012-2.6.008-.351.008-.5-.1-.488-.47.021-.607.023-1.215,0-1.822-.014-.374.148-.472.492-.467.994.014,1.988,0,2.982,0v0c.957,0,1.915.015,2.871-.007.385-.009.506.131.527.5A7.459,7.459,0,0,1-262.094,310.4Z" transform="translate(280.42 -290.084)" fill="#707b9b"/>
</svg>
