<svg xmlns="http://www.w3.org/2000/svg" width="24.738" height="24.738" viewBox="0 0 24.738 24.738">
  <path id="Path_2008" data-name="Path 2008" d="M1604.511,1158.63A12.369,12.369,0,1,0,1616.88,1171,12.369,12.369,0,0,0,1604.511,1158.63Zm-8.706,14.285a2.666,2.666,0,0,1-.99-1.34c-.2-.607-.366-1.225-.511-1.846.6.728,1.19,1.466,1.8,2.182s1.255,1.413,1.885,2.118A11.172,11.172,0,0,1,1595.805,1172.915Zm5.767,4a6.528,6.528,0,0,1-2.691-2.335c-.327-.485-.611-1-.9-1.512-.315-.559-.613-1.128-.926-1.708a1.936,1.936,0,0,1,.321.1c.441.225.873.468,1.316.689a8.608,8.608,0,0,0,.918.406.78.78,0,0,0,.848-.2c.892-.849,1.8-1.686,2.684-2.538s1.766-1.733,2.661-2.587a4.986,4.986,0,0,1,2.974-1.665,13.025,13.025,0,0,1,2.671-.448c.926-.049,1.854-.073,2.781-.107l.008.061c-.038.015-.075.032-.113.043a28.455,28.455,0,0,0-7.7,3.783,55.218,55.218,0,0,0-5.7,4.526,5,5,0,0,0-.6.673.677.677,0,0,0-.042.844c.24.352.5.688.776,1.016s.589.665.871,1.023C1601.677,1176.962,1601.624,1176.942,1601.572,1176.918Zm12.5-9.371c-1.106.563-2.217,1.117-3.317,1.693a76.69,76.69,0,0,0-7.884,4.686c-.1.069-.2.144-.326.239.115.041.188.071.262.094a17.493,17.493,0,0,0,2.872.666,4.682,4.682,0,0,0,2.08-.105,2.686,2.686,0,0,0,1.375-.967,12.429,12.429,0,0,0,.816-1.3c.268-.482.5-.986.742-1.481.025-.05.043-.1.065-.155l-.03-.049-6.452,2.748c3.1-1.89,6.246-3.684,9.489-5.309l.038.034c-.057.188-.108.377-.17.562a19.058,19.058,0,0,1-3,5.8,5.486,5.486,0,0,1-1.252,1.2,1.838,1.838,0,0,1-1.132.312,20.3,20.3,0,0,1-5.335-.9c-.742-.233-1.461-.539-2.189-.816a2.484,2.484,0,0,1-.276-.152,67.829,67.829,0,0,1,14.255-8A1.245,1.245,0,0,1,1614.072,1167.547Z" transform="translate(-1592.142 -1158.63)" fill="#fff"/>
</svg>
