<svg xmlns="http://www.w3.org/2000/svg" width="26.477" height="16.797" viewBox="0 0 26.477 16.797">
  <g id="Group_734" data-name="Group 734" transform="translate(-720.048 -969.492)">
    <path id="Path_2004" data-name="Path 2004" d="M803.151,983.245v-.191q0-6.047,0-12.094a1.372,1.372,0,0,1,1.473-1.467q8.811,0,17.622.006a1.883,1.883,0,0,1,.749.135,1.3,1.3,0,0,1,.793,1.276q0,3.309,0,6.617,0,2.756,0,5.511v.206Zm1.508-12.239v10.738h17.616V971.006Z" transform="translate(-80.185 0)" fill="#929ab3"/>
    <path id="Path_2005" data-name="Path 2005" d="M720.051,1383.679h9.773c.007.027.016.058.022.09a.759.759,0,0,0,.8.646q2.036,0,4.072,0h1.141a.788.788,0,0,0,.888-.74h9.776a1.661,1.661,0,0,1-.154.834,2.239,2.239,0,0,1-2.06,1.417c-.146.008-.292,0-.439,0H722.384a2.274,2.274,0,0,1-2.174-1.405A1.881,1.881,0,0,1,720.051,1383.679Z" transform="translate(0 -399.64)" fill="#929ab3"/>
  </g>
</svg>
