<svg xmlns="http://www.w3.org/2000/svg" xmlns:xlink="http://www.w3.org/1999/xlink" width="25" height="25" viewBox="0 0 25 25">
  <defs>
    <clipPath id="clip-path">
      <rect id="Rectangle_700" data-name="Rectangle 700" width="25" height="25" transform="translate(-14080 -16747)" fill="#707b9b" stroke="#707070" stroke-width="1"/>
    </clipPath>
  </defs>
  <g id="Mask_Group_138" data-name="Mask Group 138" transform="translate(14080 16747)" clip-path="url(#clip-path)">
    <g id="Ink-Toner" transform="translate(-14080.291 -16747.768)">
      <path id="Path_949" data-name="Path 949" d="M23.585.772c-6.048,0-12.3,0-18.442-.005a.847.847,0,0,0-.679.283c-.216.242-.448.479-.669.705a17.305,17.305,0,0,0-1.2,1.333,5.99,5.99,0,0,0-1.23,3.438c-.026.494-.031.983-.031,1.395-.005,2.867-.005,5.775-.005,8.591v8.6c0,.314.062.546.371.659h19.07c.051-.041.1-.088.154-.129.093-.072.185-.149.273-.232l1.189-1.189c.52-.52,1.06-1.06,1.59-1.585a.86.86,0,0,0,.278-.659c-.01-6.851-.01-13.815-.01-20.553C24.243.911,24.1.772,23.585.772ZM7.6,24.856H2.249V12.163H7.6Zm.005-13.625H2.254V10.058H7.608Zm.01-2.09H2.27l-.015-.077a.517.517,0,0,1-.021-.124v-.52c0-.515,0-1.045.005-1.565A5.792,5.792,0,0,1,3.974,2.805c.376-.381.69-.695.993-.988a.526.526,0,0,1,.324-.144c1.132-.01,2.28-.005,3.392-.005H9.811a.258.258,0,0,1,.062.01c.01.005.026.005.041.01l.129.031-.088.1-.3.335c-.216.232-.417.453-.607.685A6.652,6.652,0,0,0,7.613,7.124V9.141Zm6.28,15.72H8.539v-12.7H13.9Zm.01-13.635H8.534V10.068h5.374Zm.021-3.994c-.021.438-.015.885-.01,1.313,0,.108.005.221.005.329s0,.288-.263.288c-1.642-.005-3.315-.005-4.931-.005a.457.457,0,0,1-.077-.01c-.021-.005-.041-.005-.072-.01l-.072-.01.005-.072c.021-.386.01-.772.005-1.153A8.969,8.969,0,0,1,8.7,5.508a5.97,5.97,0,0,1,1.554-2.7c.376-.381.69-.695.993-.988a.5.5,0,0,1,.3-.149c1.539-.005,3.068-.005,4.684-.005h.185l-.134.134c-.051.051-.093.093-.129.134s-.077.082-.118.124a6.6,6.6,0,0,0-1.966,3.516A13.754,13.754,0,0,0,13.928,7.232Zm6.259,17.629H14.839v-12.7h5.348v12.7Zm.005-13.63H14.829V10.063h5.363Zm.067-4.983A16.7,16.7,0,0,0,20.208,8c0,.242.005.494,0,.736v.015c-.005.36-.041.4-.407.4h-4.91l-.021-.041a.171.171,0,0,0-.015-.031A.131.131,0,0,1,14.834,9c.005-.3.005-.613.005-.911A19.711,19.711,0,0,1,14.906,6.1,5.466,5.466,0,0,1,16.569,2.79c.376-.381.69-.695.993-.988a.526.526,0,0,1,.324-.144c1.122-.005,2.265-.005,3.366-.005H22.38a.631.631,0,0,1,.1.01l.031.005.021.026c.021.031.041.051.057.077l.051.062-.067.046a.707.707,0,0,1-.1.067,1.52,1.52,0,0,0-.165.118A6.7,6.7,0,0,0,20.259,6.249Zm3.083,15.529a.522.522,0,0,1-.118.335c-.561.571-1.179,1.189-1.889,1.894a.4.4,0,0,1-.093.062l-.134.072V19.559c0-4.082,0-8.3-.005-12.451a5.963,5.963,0,0,1,2.09-4.638l.113-.1.015.149c0,.026.005.046.005.067.005.062.015.108.015.165Z" fill="#707b9b"/>
      <path id="Path_950" data-name="Path 950" d="M4.921,20.517h.01a1.462,1.462,0,0,0,1.41-1.9,6.942,6.942,0,0,0-1.06-1.951.42.42,0,0,0-.35-.175H4.926a.425.425,0,0,0-.35.18,7.389,7.389,0,0,0-1.06,1.951,1.445,1.445,0,0,0,.211,1.292A1.473,1.473,0,0,0,4.921,20.517Zm-.5-1.776c.088-.2.2-.4.3-.618.046-.088.093-.175.139-.273l.067-.134.067.134.093.185c.134.263.247.489.35.721a.571.571,0,0,1-.16.746.578.578,0,0,1-.355.118.607.607,0,0,1-.371-.134A.589.589,0,0,1,4.416,18.741Z" fill="#707b9b"/>
      <path id="Path_951" data-name="Path 951" d="M11.231,20.517h0a1.462,1.462,0,0,0,1.4-1.9,7.29,7.29,0,0,0-1.06-1.951.427.427,0,0,0-.355-.18h-.005a.409.409,0,0,0-.345.18,7.389,7.389,0,0,0-1.06,1.951,1.464,1.464,0,0,0,1.426,1.9Zm-.566-1.637c.1-.257.226-.51.345-.751l.108-.216.021-.041h.17l.021.046c.051.108.108.221.16.324.1.206.206.417.293.638a.524.524,0,0,1-.226.643.6.6,0,0,1-.329.108.555.555,0,0,1-.329-.113A.507.507,0,0,1,10.665,18.88Z" fill="#707b9b"/>
      <path id="Path_952" data-name="Path 952" d="M17.5,20.517h0a1.458,1.458,0,0,0,1.415-1.9,7.134,7.134,0,0,0-1.06-1.951.434.434,0,0,0-.35-.175H17.5a.409.409,0,0,0-.345.18,7.244,7.244,0,0,0-1.06,1.951,1.444,1.444,0,0,0,.216,1.292A1.47,1.47,0,0,0,17.5,20.517Zm-.546-1.668c.088-.216.2-.427.3-.633.051-.1.1-.2.144-.293l.015-.036.036-.005a.142.142,0,0,1,.046-.005.065.065,0,0,0,.031-.005l.057-.01.026.051.139.278c.108.216.216.438.314.664a.53.53,0,0,1-.206.654.564.564,0,0,1-.35.118.584.584,0,0,1-.355-.124A.535.535,0,0,1,16.95,18.849Z" fill="#707b9b"/>
    </g>
  </g>
</svg>
