<svg xmlns="http://www.w3.org/2000/svg" width="25" height="20.09" viewBox="0 0 25 20.09">
  <g id="Group_743" data-name="Group 743" transform="translate(-2164 -1176.603)">
    <path id="Path_2024" data-name="Path 2024" d="M2171.188,1202.709h-5.626c-.139,0-.278,0-.416-.013a1.1,1.1,0,0,1-1.135-1.151c-.01-.165-.01-.331-.01-.5q0-5.2,0-10.394a4.922,4.922,0,0,1,.015-.5,1.106,1.106,0,0,1,1.212-1.115c.852-.023,1.7-.017,2.556-.017q3.776,0,7.553.009c1.094,0,2.187-.008,3.281-.01.746,0,1.492,0,2.239,0a1.171,1.171,0,0,1,1.285,1.246c.006.125.005.251.005.377q0,5.2,0,10.406c0,.126,0,.252,0,.377a1.153,1.153,0,0,1-1.308,1.271c-1.825.008-3.65,0-5.474,0h-.292a3.975,3.975,0,0,0,0,.5,9.511,9.511,0,0,0,.186,1.145,1.019,1.019,0,0,0,.517.6c.256.149.507.3.759.46a.479.479,0,0,1,.169.133.288.288,0,0,1,.036.216.222.222,0,0,1-.171.093c-.218.011-.436,0-.654,0l-6.149,0a.864.864,0,0,1-.158,0c-.141-.026-.191-.127-.112-.245a.7.7,0,0,1,.2-.188q.35-.226.71-.434a1.3,1.3,0,0,0,.687-1.03C2171.13,1203.55,2171.153,1203.149,2171.188,1202.709Zm1.9-12.695v.005q-3.817,0-7.634,0c-.413,0-.469.061-.469.474q0,4.442,0,8.883c0,.383.053.433.435.438H2172l8.606,0c.438,0,.562-.1.566-.5.01-1.043.02-2.087.019-3.131,0-.867-.024-1.735-.029-2.6-.006-.985,0-1.97,0-2.954,0-.608-.013-.621-.619-.621Zm.766,11.28a.79.79,0,0,0-.775-.812.808.808,0,1,0,.775.812Z" transform="translate(0 -9.195)" fill="#707b9b"/>
    <path id="Path_2025" data-name="Path 2025" d="M2230.171,1195.807c-.012.219-.013.371-.029.521a.376.376,0,0,1-.394.364.384.384,0,0,1-.377-.4c-.015-.452-.015-.452-.474-.452h-3.074c-.262,0-.261,0-.269.271a1.761,1.761,0,0,1-.021.276.37.37,0,0,1-.4.3.375.375,0,0,1-.361-.354c-.007-.079,0-.158,0-.238s0-.155,0-.264a1.637,1.637,0,0,1-1.947-1.367c.3,0,.566,0,.835,0,.037,0,.084.055.1.1a.694.694,0,0,0,.681.387q2.866,0,5.731,0c.275,0,.55.013.825.019a.742.742,0,0,0,.647-.684c-.007-.336-.015-.672-.015-1.008q0-6.584,0-13.168c0-.6.025-1.2.008-1.8a1.618,1.618,0,0,0-.17-.594.444.444,0,0,0-.445-.236q-2.875,0-5.749,0c-.3,0-.595,0-.893,0a.655.655,0,0,0-.679.674c-.005.2,0,.407,0,.628-.257,0-.493.006-.728-.005a.189.189,0,0,1-.134-.11,1.667,1.667,0,0,1,.944-1.953,1.745,1.745,0,0,1,.6-.109c2.188-.007,4.376,0,6.564,0a1.448,1.448,0,0,1,1.373.812,1.592,1.592,0,0,1,.164.7q.022,7.722.018,15.445a3.494,3.494,0,0,1-.122,1.313,1.383,1.383,0,0,1-1.139.92A7.388,7.388,0,0,1,2230.171,1195.807Z" transform="translate(-43.511)" fill="#707b9b"/>
    <path id="Path_2026" data-name="Path 2026" d="M2228.879,1184.03a.4.4,0,0,1,.358-.352,1.387,1.387,0,0,1,.238-.007h5.3a2.348,2.348,0,0,1,.276.017c.329.04.47.188.457.477-.011.224-.226.386-.514.386l-3.451,0c-.112,0-.225-.005-.337,0a1.543,1.543,0,0,1-1.1-.267A1.772,1.772,0,0,0,2228.879,1184.03Z" transform="translate(-48.022 -5.231)" fill="#707b9b"/>
    <path id="Path_2027" data-name="Path 2027" d="M2237.547,1191.238l-.1-.847c.042,0,.094-.01.146-.01q1.883,0,3.766,0a.44.44,0,0,1,.449.26.392.392,0,0,1-.084.474.489.489,0,0,1-.292.137c-1.275.008-2.55,0-3.825,0A.249.249,0,0,1,2237.547,1191.238Z" transform="translate(-54.365 -10.198)" fill="#707b9b"/>
    <path id="Path_2028" data-name="Path 2028" d="M2237.737,1197.952c0-.274-.006-.524.007-.772,0-.038.092-.1.143-.1.264-.01.529-.005.793-.005q1.408,0,2.816,0a.973.973,0,0,1,.274.026.438.438,0,0,1-.07.844,1.227,1.227,0,0,1-.2.008h-3.765Z" transform="translate(-54.577 -15.151)" fill="#707b9b"/>
    <path id="Path_2029" data-name="Path 2029" d="M2238.221,1223.548a.875.875,0,1,1,.871.888A.874.874,0,0,1,2238.221,1223.548Z" transform="translate(-54.936 -34.104)" fill="#707b9b"/>
    <path id="Path_2030" data-name="Path 2030" d="M2241.006,1231.811c0,.172,0,.343,0,.515a.306.306,0,0,1-.32.326.3.3,0,0,1-.3-.327q-.008-.515,0-1.029a.3.3,0,0,1,.3-.324.3.3,0,0,1,.32.324c0,.006,0,.013,0,.02Q2241.006,1231.563,2241.006,1231.811Z" transform="translate(-56.536 -40.243)" fill="#707b9b"/>
  </g>
</svg>
