<svg xmlns="http://www.w3.org/2000/svg" width="11.617" height="25" viewBox="0 0 11.617 25">
  <g id="Group_658" data-name="Group 658" transform="translate(-1619.303 -174)">
    <path id="Path_1725" data-name="Path 1725" d="M1628.545,174a.919.919,0,0,1,.586.972c-.017,1.643-.006,3.286-.006,4.93v.291c.192,0,.366,0,.54,0a1.232,1.232,0,0,1,1.248,1.215c.018.555.009,1.111,0,1.667a.364.364,0,0,1-.358.4.372.372,0,0,1-.37-.416c0-.483,0-.967,0-1.45a.6.6,0,0,0-.672-.684H1620.7a.6.6,0,0,0-.661.67q0,4.483,0,8.965c0,.064,0,.129,0,.193,0,.295-.143.464-.377.458s-.354-.166-.354-.453q0-2.924,0-5.848,0-1.643,0-3.287a1.271,1.271,0,0,1,1.424-1.432h.371v-.267c0-1.651.01-3.3-.007-4.954a.918.918,0,0,1,.586-.972Zm-.168.749h-6.528v5.427h6.528Z" transform="translate(-0.004)" fill="#707b9b"/>
    <path id="Path_1726" data-name="Path 1726" d="M1629.521,222.943q0-2.539,0-5.077c0-.651.276-.931.921-.931h5.872c.632,0,.914.281.914.914q0,5.1,0,10.2a.789.789,0,0,1-.9.908q-2.96,0-5.92,0a.786.786,0,0,1-.89-.891Q1629.52,225.506,1629.521,222.943Zm.755,5.265h6.2V217.683h-6.2Z" transform="translate(-8.265 -34.728)" fill="#707b9b"/>
    <path id="Path_1727" data-name="Path 1727" d="M1630.915,234.46c0,1.66.006,3.319,0,4.979a3.772,3.772,0,0,1-3.057,3.737,4.061,4.061,0,0,1-.791.074c-1.3.007-2.609.006-3.913,0a3.789,3.789,0,0,1-3.848-3.839c0-.83,0-1.66,0-2.489,0-.3.132-.471.362-.472s.368.172.368.469c0,.83,0,1.659,0,2.489a3.069,3.069,0,0,0,3.086,3.109q1.993.013,3.986,0a3.064,3.064,0,0,0,3.076-3.094q.006-5.075,0-10.151c0-.383.122-.565.374-.56s.357.178.357.55Q1630.915,231.863,1630.915,234.46Z" transform="translate(0 -44.255)" fill="#707b9b"/>
    <path id="Path_1728" data-name="Path 1728" d="M1638.155,184.765c0,.378,0,.757,0,1.135a.561.561,0,0,1-.579.607c-.4.015-.805.015-1.207,0a.561.561,0,0,1-.574-.613q-.008-1.123,0-2.246a.563.563,0,0,1,.617-.615q.567-.009,1.135,0a.56.56,0,0,1,.609.621C1638.158,184.024,1638.155,184.395,1638.155,184.765Zm-.743-.936h-.871v1.924h.871Z" transform="translate(-13.335 -7.303)" fill="#707b9b"/>
    <path id="Path_1729" data-name="Path 1729" d="M1651.194,184.757c0-.362,0-.725,0-1.087a.564.564,0,0,1,.616-.638q.567-.009,1.135,0a.563.563,0,0,1,.61.622q.007,1.111,0,2.222a.578.578,0,0,1-.631.633c-.37.008-.74.009-1.111,0a.575.575,0,0,1-.62-.642C1651.192,185.5,1651.194,185.127,1651.194,184.757Zm1.609,1v-1.928h-.858v1.928Z" transform="translate(-25.794 -7.302)" fill="#707b9b"/>
    <path id="Path_1730" data-name="Path 1730" d="M1640.914,229.8V224.23c0-.38.125-.567.375-.564s.367.187.367.572q0,1.039,0,2.078v.3c.306-.3.576-.561.833-.832a.368.368,0,0,0,.045-.227c0-.6,0-1.192,0-1.788,0-.285.132-.445.359-.447s.37.159.371.438c0,.677.013,1.354-.008,2.03a.779.779,0,0,1-.2.464c-.406.436-.841.844-1.253,1.275a.535.535,0,0,0-.142.33q-.016,1.547,0,3.093a.424.424,0,0,0,.149.287.933.933,0,0,1,.339,1.052.914.914,0,1,1-1.386-1.049c.2-.141.207-.251.041-.423-.428-.446-.854-.894-1.289-1.334a.683.683,0,0,1-.216-.514c.006-1.176,0-2.352,0-3.529,0-.2.042-.37.25-.448.252-.095.48.088.482.4,0,.733,0,1.466,0,2.2v.483C1640.036,229.077,1640.059,229.124,1640.914,229.8Zm.381,2.458c.082-.14.162-.217.156-.286a.168.168,0,0,0-.334.012C1641.117,232.056,1641.2,232.126,1641.3,232.259Z" transform="translate(-16.176 -39.891)" fill="#707b9b"/>
  </g>
</svg>
