<svg xmlns="http://www.w3.org/2000/svg" width="27.563" height="20.832" viewBox="0 0 27.563 20.832">
  <g id="Group_745" data-name="Group 745" transform="translate(-1702.637 -1415.947)">
    <path id="Path_2032" data-name="Path 2032" d="M1767.222,1448.079a1.3,1.3,0,0,1-.553-1.229c.016-4.5.009-9.006.009-13.509,0-.946.253-1.2,1.2-1.2,1.94,0,3.88.013,5.82-.01a1.278,1.278,0,0,1,1.218.567v15.384Zm3.53-11.751c.87,0,1.74-.022,2.609.009.428.016.587-.129.541-.544-.018-.158.046-.344-.018-.472-.074-.15-.244-.357-.375-.359-1.81-.024-3.62-.012-5.431-.02-.3,0-.42.122-.406.412a3.931,3.931,0,0,1,0,.532c-.031.357.135.455.473.447C1769.013,1436.314,1769.883,1436.326,1770.752,1436.327Zm1.006,9.06a.954.954,0,0,0-.926-.976.976.976,0,0,0-1.022.943,1.016,1.016,0,0,0,.987.995A1,1,0,0,0,1771.758,1445.387Z" transform="translate(-44.715 -11.3)" fill="#707b9b"/>
    <path id="Path_2033" data-name="Path 2033" d="M1726.781,1415.947a1.021,1.021,0,0,1,.44.957c-.033.475-.008.954-.008,1.46h-.848c-.009-.149-.023-.286-.025-.423-.011-.887-.149-1.028-1.014-1.028h-13.279a4.378,4.378,0,0,0,0,.47c.054.45-.1.649-.59.635a.485.485,0,0,0-.364.829c.392.409.126.639-.145.929-.31.332-.529.249-.855-.008-.172-.135-.515-.053-.77-.068-.114.928-.251,1.065-.942.926-.156-.031-.4-.266-.387-.383.058-.516-.29-.616-.631-.748-.652.523-.64.511-1.12.045-.3-.29-.374-.523-.025-.834.241-.214.128-.831-.131-.811-.744.056-.727-.43-.714-.977a6.117,6.117,0,0,0-1.242.023c-.223.048-.427.3-.58.512-.079.107-.033.31-.033.47q0,5.74,0,11.48a1.059,1.059,0,0,0,1.059,1.059h15.094v2.552c-.182.01-.354.026-.526.026q-7.718,0-15.436.009a1.25,1.25,0,0,1-1.073-.435v-15.4a1.269,1.269,0,0,1,1.27-1.27Zm-16.812.966c-.739,0-1.449.021-2.158-.008-.419-.017-.484.185-.438.52a1.372,1.372,0,0,0,1.569,1.179A1.33,1.33,0,0,0,1709.969,1416.913Z" fill="#707b9b"/>
    <path id="Path_2034" data-name="Path 2034" d="M1727.78,1478.629a3.526,3.526,0,0,0,1.618-2.753h6.162a3.354,3.354,0,0,0,1.621,2.753Z" transform="translate(-17.558 -41.85)" fill="#707b9b"/>
    <path id="Path_2035" data-name="Path 2035" d="M1737.743,1429.184c.589.667.562.926-.182,1.416-.111.073-.4.078-.456,0-.348-.47-.727-.38-1.158-.112a1.229,1.229,0,0,1-.034.185c-.072.22-.112.6-.232.627a3.22,3.22,0,0,1-1.04-.015c-.06-.006-.161-.173-.148-.248.106-.577-.255-.777-.738-.919a1.158,1.158,0,0,0-.18.154c-.343.429-.632.3-.967-.037s-.544-.646-.068-1c.3-.22.154-.455.03-.646a.643.643,0,0,0-.444-.3c-.56.023-.534-.33-.528-.7s-.069-.811.528-.744a.472.472,0,0,0,.586-.453.8.8,0,0,0-.173-.559c-.338-.385-.082-.609.172-.848s.489-.592.878-.186c.187.2.33.342.674.215s.385-.322.4-.63c.035-.6.522-.389.857-.42s.64.048.581.476a.489.489,0,0,0,.452.633.846.846,0,0,0,.565-.172.434.434,0,0,1,.652-.005c.691.6.7.655.065,1.428.11.4.2.74.775.72.5-.017.362.466.379.783.016.29.019.675-.363.635C1738.057,1428.406,1737.879,1428.716,1737.743,1429.184Zm-.983-1.546a1.5,1.5,0,0,0-1.51-1.472,1.535,1.535,0,0,0-1.456,1.491,1.489,1.489,0,0,0,1.5,1.476A1.439,1.439,0,0,0,1736.76,1427.638Z" transform="translate(-20.223 -5.593)" fill="#707b9b"/>
    <path id="Path_2036" data-name="Path 2036" d="M1714.85,1458.5q-1.973,0-3.947,0c-.273,0-.581.026-.58-.361,0-.369.292-.384.575-.384q3.974,0,7.947,0c.279,0,.581.01.584.376s-.3.369-.58.369Q1716.851,1458.5,1714.85,1458.5Z" transform="translate(-5.368 -29.2)" fill="#707b9b"/>
    <path id="Path_2037" data-name="Path 2037" d="M1712.474,1444.3c-.568,0-1.139.028-1.7-.018-.166-.014-.315-.239-.472-.367.161-.122.32-.344.484-.349q1.73-.046,3.462,0c.168,0,.331.218.5.335-.17.133-.331.366-.51.381C1713.649,1444.327,1713.06,1444.3,1712.474,1444.3Z" transform="translate(-5.35 -19.268)" fill="#707b9b"/>
    <path id="Path_2038" data-name="Path 2038" d="M1712.532,1451.387c-.586,0-1.174.028-1.756-.017-.162-.013-.308-.24-.461-.369.146-.122.289-.345.438-.349q1.783-.043,3.568,0c.147,0,.289.229.433.352-.154.128-.3.354-.464.366C1713.706,1451.415,1713.118,1451.387,1712.532,1451.387Z" transform="translate(-5.361 -24.22)" fill="#707b9b"/>
  </g>
</svg>
