<svg xmlns="http://www.w3.org/2000/svg" width="23" height="26.696" viewBox="0 0 23 26.696">
  <g id="Group_739" data-name="Group 739" transform="translate(-3006.624 -905.359)">
    <path id="Path_2001" data-name="Path 2001" d="M3028.807,1035.46a5.614,5.614,0,0,0-2.977,5.562,5.83,5.83,0,0,0,3.794,5.1c-.281.566-.546,1.137-.843,1.692a20.16,20.16,0,0,1-2.252,3.367,6.846,6.846,0,0,1-1.67,1.512,3.367,3.367,0,0,1-3.424.1,6.826,6.826,0,0,0-1.872-.631,5.955,5.955,0,0,0-3.433.47,7.629,7.629,0,0,1-1.406.5,3.44,3.44,0,0,1-2.855-.686,9.07,9.07,0,0,1-2-2.15,17.53,17.53,0,0,1-2.769-5.811,14.471,14.471,0,0,1-.456-4.475,7.758,7.758,0,0,1,1.723-4.652,6.958,6.958,0,0,1,4.253-2.558,6.39,6.39,0,0,1,3.174.382c.6.208,1.206.419,1.822.578a4.751,4.751,0,0,0,2.826-.291,15.445,15.445,0,0,1,2.128-.628,5.712,5.712,0,0,1,4.065.721,7.548,7.548,0,0,1,2.1,1.786A1.041,1.041,0,0,1,3028.807,1035.46Z" transform="translate(0 -121.164)" fill="#929ab3"/>
    <path id="Path_2002" data-name="Path 2002" d="M3233.059,911.769c-.521-2.952,2.278-6.268,5.415-6.41C3238.927,908.047,3236.6,911.764,3233.059,911.769Z" transform="translate(-215.325)" fill="#929ab3"/>
  </g>
</svg>
