<svg xmlns="http://www.w3.org/2000/svg" width="35.846" height="17.476" viewBox="0 0 35.846 17.476">
  <g id="Group_779" data-name="Group 779" transform="translate(-478.15 -1573.094)">
    <path id="Path_2249" data-name="Path 2249" d="M494.28,1583.252a.788.788,0,0,0,.186.108c.753.193,1.508.379,2.262.571,1.842.468,3.683.942,5.526,1.408,1.281.324,2.564.639,3.846.959q1.982.494,3.964.989c1.036.257,2.072.508,3.108.765a.233.233,0,0,1,.145.086c.042.087-.051.16-.169.131-.316-.076-.631-.157-.947-.235q-2.012-.5-4.025-1-3.283-.823-6.565-1.651-1.552-.391-3.1-.786-1.766-.447-3.533-.892c-.379-.1-.758-.189-1.139-.272a.367.367,0,0,0-.212.056q-2.3,1.156-4.6,2.316c-.449.226-.9.447-1.348.676-.487.249-.968.508-1.455.755-.258.131-.527.239-.785.369-1.106.557-2.208,1.122-3.314,1.678-.831.418-1.666.827-2.5,1.238a1.058,1.058,0,0,1-.159.05l-.022-.053,14.2-7.12c-.026-.039-.032-.058-.041-.061-.3-.076-.608-.154-.914-.222a.337.337,0,0,0-.2.022c-.321.152-.64.31-.954.476-.053.028-.066.129-.119.159-.421.235-.841.473-1.271.688-1.036.519-2.077,1.028-3.117,1.537-.853.418-1.711.827-2.563,1.246-1.29.634-2.576,1.278-3.869,1.906-.465.226-.946.416-1.42.624-.041.018-.078.043-.136.076a2.056,2.056,0,0,1-.182-.274c-.1-.225-.193-.458-.291-.686-.106-.248-.077-.33.162-.443.018-.009.047-.013.053-.027a.261.261,0,0,0,.039-.134c0-.02-.081-.046-.117-.037a1.263,1.263,0,0,0-.2.083.229.229,0,0,1-.348-.234,3.379,3.379,0,0,1,.064-.453c0-.018.024-.044.018-.052-.155-.195.026-.232.14-.288q2.451-1.2,4.9-2.4,1.684-.826,3.363-1.66l1.983-.978c.049-.024.1-.052.179-.1-.2-.055-.36-.1-.524-.145l-4.285-1.089q-1.16-.3-2.319-.593c-.2-.051-.228-.156-.11-.318s.21-.333.32-.5c.036-.053.086-.12.14-.131.167-.036.232-.163.308-.29.132-.221.178-.235.438-.186a.847.847,0,0,0,.194-.008l0-.051c-.033-.02-.065-.042-.1-.059-.175-.089-.209-.185-.075-.333a.567.567,0,0,0,.145-.611.216.216,0,0,1-.007-.045c-.042-.354.047-.49.441-.393q3.967.979,7.94,1.936c.647.157,1.3.307,1.94.473a.651.651,0,0,0,.48-.072q2-.994,4-1.984l6.3-3.118c1-.5,2-.995,3.007-1.486.1-.047.268-.1.316-.06a2.314,2.314,0,0,1,.356.479c.013.021-.056.093-.084.143s-.087.125-.073.145c.051.071.094.205.214.149.19-.088.262.025.373.146a5.581,5.581,0,0,1,.693.962.566.566,0,0,1,.091.224c-.076-.1-.15-.21-.231-.309a.349.349,0,0,0-.108-.06c0,.045-.018.1,0,.134.1.163.213.322.33.475.026.034.093.036.13.05l-.03.27c-.144-.177-.28-.047-.418.022q-1.725.863-3.448,1.729-1.608.808-3.213,1.619l-3.376,1.7c-.035.018-.069.039-.128.073.156.042.287.08.419.112q3.647.875,7.3,1.749,2.254.539,4.51,1.072c.955.225,1.911.444,2.866.666.054.013.109.024.162.042a.308.308,0,0,1,.236.407c-.015.08-.012.164-.025.244a.641.641,0,0,1-.054.128c-.026-.038-.04-.049-.041-.061-.014-.209-.073-.262-.29-.256-.111,0-.222,0-.333.012a.625.625,0,0,1-.448-.156.706.706,0,0,0-.23-.074l-.541-.162c-.139-.042-.276-.094-.417-.126-.11-.025-.192-.045-.13-.186a.1.1,0,0,0-.031-.095c-.128-.041-.264-.059-.39-.106s-.173-.016-.208.092l.108.091-.009.043c-.133-.011-.266-.018-.4-.032-.115-.012-.229-.04-.344-.043-.036,0-.073.056-.11.086a.491.491,0,0,0,.1.066c.451.156.9.313,1.356.462.2.067.408.122.615.174.507.127,1.014.251,1.523.369a.823.823,0,0,0,.238-.025,1.625,1.625,0,0,1-.042.246c-.026.082-.026.138.065.167a.122.122,0,0,1,.084.19c-.045.086-.05.225-.207.194a2.016,2.016,0,0,0-.285-.05c-.043,0-.087.042-.131.065a.625.625,0,0,0,.088.113.266.266,0,0,0,.1.029c.256.065.325.217.171.44a.294.294,0,0,1-.253.056c-.412-.1-.817-.227-1.228-.332-.625-.16-1.252-.31-1.878-.465l-1.243-.3c-.792-.194-1.585-.385-2.377-.581-.308-.076-.614-.166-.922-.242-.477-.117-.953-.237-1.433-.338-.282-.06-.571-.084-.856-.132-.075-.013-.142-.066-.217-.084-.255-.061-.513-.109-.767-.172-.317-.079-.631-.172-.949-.249-.164-.04-.333-.057-.5-.084l-.012.052c.137.037.274.077.412.112q.643.162,1.287.321l3.338.826,2.839.707c1.139.283,2.277.568,3.417.847.124.03.259.013.386.036.194.035.385.086.577.131.054.013.123.011.159.044a.65.65,0,0,1,.12.185c.009.018-.005.049-.011.074-.062.29-.124.325-.409.253q-1.611-.408-3.222-.811c-1.568-.391-3.137-.777-4.7-1.169-1.6-.4-3.193-.8-4.791-1.2q-2.152-.538-4.305-1.071c-.4-.1-.8-.2-1.2-.3a1.4,1.4,0,0,0-.283-.009c-.024-.018-.057-.057-.07-.051-.168.075-.333.157-.5.237l.017.041Zm-1.624-1.948a.244.244,0,0,0-.3,0c-.031.024-.081.022-.121.036-.15.051-.3.1-.447.158-.017.007-.016.059-.02.08-.058,0-.115-.023-.153,0-.132.062-.257.135-.385.206-.11.061-.215.133-.328.185s-.231.074-.34.124a3.423,3.423,0,0,0-.3.175,1.233,1.233,0,0,1-.159.087c-.046.018-.1.012-.146.034-.263.13-.525.261-.784.4-.087.046-.171.165-.242.155-.14-.021-.152.039-.147.145l-.128-.021-.046.306a.21.21,0,0,1-.072.014,1.014,1.014,0,0,1-.127-.036.681.681,0,0,0,.1-.056.4.4,0,0,0,.061-.081c-.237-.011-.267.015-.351.264l-.046-.188-.3.146.176.052-.089.138-.174.016.088-.112-.016-.03-.274.091.137.11c-.1.11-.359-.106-.371.157a.578.578,0,0,0-.18.087c-.017.018.023.091.045.162-.007,0,.03-.006.039.007.121.182.287.147.449.086.078-.03.141-.1.218-.132.137-.062.21-.147.151-.3l-.084.014-.028-.153.147-.032.075.107.094-.056c.009.058,0,.129.03.166.1.119.158.028.22-.053a1.821,1.821,0,0,1,.139-.148c.061.112.128,0,.193,0a.609.609,0,0,0,.187-.049c.015-.076.2-.181.338-.171l-.022-.131c.15.1.215.059.216-.1.221.094.343,0,.414-.191.178.126.4-.019.4-.261.067.022.142.076.193.059a2.211,2.211,0,0,0,.344-.172,1.573,1.573,0,0,1,.327-.174.758.758,0,0,0,.443-.312l.059.119.257-.176s0-.07.024-.086c.123-.075.26-.128.382-.206a1.416,1.416,0,0,0,.241-.218c.009-.009-.028-.062-.044-.095l.046-.143a.374.374,0,0,0,.148.015,2.25,2.25,0,0,0,.274-.128c.041-.02.079-.046.118-.069l-.022-.043a.534.534,0,0,0-.135.064c-.087.076-.137.05-.189-.041s-.064-.1-.172-.017c.148.073.158.1.063.181-.047-.149-.09-.168-.257-.109C492.551,1581.194,492.692,1581.151,492.656,1581.3Zm.5.844c-.224.111-.429.211-.632.312-.344.171-.686.347-1.031.515-.287.14-.58.268-.866.409s-.553.294-.834.432c-.216.106-.444.191-.66.3-.481.236-.959.48-1.439.719-.267.133-.538.26-.806.391-.469.229-.94.454-1.405.69-.35.178-.7.366-1.038.56-.1.059-.183.158-.323.128-.027-.006-.064.023-.095.041-.18.1-.359.208-.539.31a.251.251,0,0,1-.059.012.918.918,0,0,0-.2.057,4.38,4.38,0,0,1-.711.375c-.068.022-.12.092-.187.124-.168.08-.344.144-.51.229-.072.037-.119.125-.192.161-.122.06-.256.093-.382.145-.22.091-.441.18-.655.283s-.392.208-.586.315c-.345.19-.689.383-1.035.572a.117.117,0,0,0-.053.187,1.29,1.29,0,0,0,.093.157c.062.078.13.075.2,0l-.126-.081.219-.12c.1.105.2.075.316.021.235-.109.457-.242.691-.355.764-.368,1.515-.763,2.274-1.141q2.236-1.117,4.476-2.227,1.82-.908,3.638-1.823l4.644-2.332c.165-.083.328-.17.492-.255l-.006-.042-.211-.069.08.127c-.139.149-.3.043-.457.053-.033.14-.1.223-.247.134-.018-.011-.065-.011-.071,0a.244.244,0,0,1-.341.115c-.022-.008-.072.044-.1.075a.547.547,0,0,0-.061.1c-.158-.06-.167-.049-.3.036a1.209,1.209,0,0,1-.573.289c-.069,0-.138,0-.206.011a.732.732,0,0,0-.125.04l.157.121-.188.051Zm4.5-1.365.009.054c.171.043.34.1.514.125a.517.517,0,0,0,.274-.028c.257-.11.507-.235.757-.36q1.76-.878,3.518-1.76c1.18-.594,2.355-1.2,3.534-1.793.8-.406,1.608-.8,2.411-1.21.055-.028.144-.1.136-.118a.712.712,0,0,0-.155-.234c-.024-.024-.107-.013-.149.009-.175.091-.339.2-.517.287-.32.152-.651.282-.97.438-.351.171-.689.367-1.04.538-.82.4-1.646.794-2.467,1.194q-1.623.791-3.243,1.589-.931.456-1.863.908C498.15,1580.543,497.9,1580.662,497.649,1580.783Zm-16.044-.7c.119.037.2.066.282.087.546.139,1.094.274,1.64.413,1.777.451,3.556.893,5.329,1.361.323.085.526-.075.808-.205-.088-.027-.135-.044-.182-.056-.994-.251-1.987-.508-2.983-.751-.971-.237-1.946-.455-2.917-.69-.429-.1-.853-.226-1.277-.346-.121-.034-.235-.091-.355-.131a.122.122,0,0,0-.1.013C481.767,1579.871,481.7,1579.968,481.606,1580.087Zm31.306,5.771.011-.02c.077.034.152.073.232.1a.494.494,0,0,0,.465-.025c.036-.025.054-.077.081-.116a.5.5,0,0,0-.114-.064c-.113-.029-.229-.047-.342-.073-.586-.136-1.17-.276-1.757-.407-.156-.035-.319-.037-.477-.066-.381-.07-.76-.147-1.14-.222-.119-.023-.237-.051-.356-.071-.137-.023-.274-.039-.411-.057l-.013.054,1.508.456-.264.088a1.962,1.962,0,0,0,.446.157,2.181,2.181,0,0,1,.877.309l.5-.082a.687.687,0,0,0-.169-.085c-.225-.049-.454-.084-.68-.13a.549.549,0,0,1-.135-.071l.028-.065,1.356.35a1.31,1.31,0,0,0-.2.141c-.009.009.049.086.082.14.184-.218.389-.163.624-.112Zm-22.71-3.769a.7.7,0,0,0,.172-.027c.111-.054.215-.121.325-.177a2.972,2.972,0,0,0,1-.52.1.1,0,0,1,.069-.025.446.446,0,0,0,.416-.265.141.141,0,0,1,.1-.055c.017,0,.039.05.064.085l.13-.121c-.075-.127-.16-.1-.254-.049-.127.063-.257.12-.386.177-.342.151-.689.292-1.025.454-.373.18-.738.378-1.105.57-.1.053-.194.123-.3.171-.173.08-.356.139-.527.223-.2.1-.39.212-.584.32a3.184,3.184,0,0,0-.285.165.484.484,0,0,0-.093.131l.041.03c.03-.016.077-.024.087-.048.06-.144.247-.072.333-.206.035-.055.212-.019.324-.026.013,0,.025-.012.043-.021l-.037-.093c.153-.038.3-.065.448-.116.06-.021.1-.094.152-.143l.1.033a1.486,1.486,0,0,1,.173-.14,1.321,1.321,0,0,1,.171-.062c.041-.016.079-.057.117-.057A.384.384,0,0,0,490.2,1582.089Zm2.995.9c.267.068.51.135.755.191a.97.97,0,0,0,.515-.274C494.044,1582.775,493.62,1582.6,493.2,1582.988Zm19.6,2.983-.02.028a.293.293,0,0,0-.1.012c-.046.024-.118.063-.117.1,0,.048.051.1.088.14a.112.112,0,0,0,.083.033,1.862,1.862,0,0,0,.286-.047c.016,0,.035-.091.022-.1A2.83,2.83,0,0,0,512.8,1585.971Zm-33.141,1.692c.1.034.179.068.264.092a.466.466,0,0,0,.219.034.249.249,0,0,0,.163-.137c.021-.081-.13-.168-.227-.138C479.938,1587.557,479.8,1587.61,479.658,1587.663Zm-.263.079c-.154.029-.286.122-.273.215.019.133.14.1.218.1a.2.2,0,0,0,.224-.177C479.567,1587.841,479.454,1587.789,479.395,1587.742Zm32.591-1.509c.089-.086.192-.139.2-.2.011-.125-.122-.146-.208-.136-.067.007-.126.086-.189.132ZM483.377,1579a.311.311,0,0,0,.42.026c.024-.022.032-.11.014-.124A.334.334,0,0,0,483.377,1579Zm9.18,1.738c.16.147.254.109.388-.15Zm-13.735,7.924a1.573,1.573,0,0,0-.206.1c-.013.008.01.07.015.1l.294-.178-.028-.166-.049,0Zm4.834-9.869-.018-.061-.265.083.016.053Z" transform="translate(0 0)" fill="#707b9b"/>
    <path id="Path_2250" data-name="Path 2250" d="M593.209,2062.017l-.177-.077.02-.061.19.049Z" transform="translate(-111.378 -473.877)" fill="#707b9b"/>
    <path id="Path_2251" data-name="Path 2251" d="M784.815,1925.869l-.127.1-.076-.2.033-.023Z" transform="translate(-297.115 -341.897)" fill="#707b9b"/>
  </g>
</svg>
