<svg id="Group_759" data-name="Group 759" xmlns="http://www.w3.org/2000/svg" width="25.367" height="25.367" viewBox="0 0 25.367 25.367">
  <g id="Group_759-2" data-name="Group 759" transform="translate(0 0)">
    <path id="Path_2094" data-name="Path 2094" d="M1461,2055.909a3.517,3.517,0,0,1,.615-1.44,2.983,2.983,0,0,1,2.264-1.2c.083,0,.165,0,.248,0h19.114a3.02,3.02,0,0,1,2.991,2.145c.052.163.09.332.134.5v7.233a.242.242,0,0,0-.039.06,1.726,1.726,0,0,1-1.815,1.364h-2.357c.094.646.18,1.257.274,1.868a1.137,1.137,0,0,1-.719,1.267l-.249.1h-15.557a.669.669,0,0,0-.087-.043,1.143,1.143,0,0,1-.867-1.4c.087-.586.168-1.172.256-1.793h-.277c-.726,0-1.451,0-2.177,0a1.718,1.718,0,0,1-1.7-1.314.774.774,0,0,0-.049-.109Zm20.515,4.264c.169,1.168.336,2.3.5,3.436.022.162.111.171.238.171.768,0,1.536,0,2.3,0a.942.942,0,0,0,1.023-1.039q0-3.17,0-6.34a2.228,2.228,0,0,0-2.332-2.338q-9.56,0-19.12,0a2.229,2.229,0,0,0-2.329,2.341q0,3.157,0,6.315a.947.947,0,0,0,1.05,1.061c.71,0,1.42,0,2.13,0h.33a.992.992,0,0,0,.041-.126c.167-1.15.333-2.3.5-3.479-.367,0-.719,0-1.072,0a.4.4,0,0,0-.439.428c-.009.173,0,.346,0,.52,0,.377.074.463.451.547a.391.391,0,0,1,.334.446.38.38,0,0,1-.415.338,1.158,1.158,0,0,1-1.128-.962,5.219,5.219,0,0,1-.033-.79,1.2,1.2,0,0,1,1.322-1.322h17.708a1.191,1.191,0,0,1,1.264,1.253c0,.223.007.446,0,.669a1.193,1.193,0,0,1-1.063,1.148c-.3.023-.488-.1-.516-.338s.12-.4.417-.449a.385.385,0,0,0,.367-.394,6.065,6.065,0,0,0,0-.718.369.369,0,0,0-.384-.375C1482.284,2060.165,1481.913,2060.173,1481.515,2060.173Zm-.8.014h-14.064c-.036.234-.07.454-.1.674q-.267,1.811-.533,3.622c-.1.685-.2,1.371-.3,2.056a.376.376,0,0,0,.313.456,1.412,1.412,0,0,0,.271.011h14.762c.05,0,.1,0,.148,0a.393.393,0,0,0,.424-.514c-.143-.971-.282-1.943-.423-2.914C1481.048,2062.452,1480.883,2061.326,1480.716,2060.187Z" transform="translate(-1461 -2042.432)" fill="#707b9b"/>
    <path id="Path_2095" data-name="Path 2095" d="M1498.642,1996.811a7.624,7.624,0,0,1,.774.551c.745.678,1.465,1.383,2.21,2.062a1.393,1.393,0,0,1,.483,1.112c-.011,1.916,0,3.831,0,5.747,0,.05,0,.1,0,.149-.009.287-.168.47-.4.465s-.386-.184-.387-.477q0-2.589,0-5.177v-.324c-.413,0-.806,0-1.2,0a7.459,7.459,0,0,1-.963-.034,1.448,1.448,0,0,1-1.3-1.475c-.015-.512-.005-1.024-.007-1.536,0-.081,0-.161,0-.269H1487.8c-.381,0-.445.064-.446.445q0,4.112,0,8.224c0,.083,0,.166,0,.248a.388.388,0,0,1-.386.375.382.382,0,0,1-.393-.342,1.457,1.457,0,0,1-.009-.272c0-2.708.01-5.417-.008-8.125a1.241,1.241,0,0,1,.844-1.346Zm2.564,3.312-2.558-2.407c0,.633-.02,1.207.007,1.779a.642.642,0,0,0,.655.622C1499.916,2000.141,1500.523,2000.123,1501.206,2000.123Z" transform="translate(-1481.648 -1996.811)" fill="#707b9b"/>
    <path id="Path_2096" data-name="Path 2096" d="M1506.632,2024.484H1502.4a1.684,1.684,0,0,1-.247-.007.37.37,0,0,1-.344-.362.362.362,0,0,1,.293-.4,1.023,1.023,0,0,1,.27-.021h8.571a1.675,1.675,0,0,1,.2,0,.4.4,0,0,1,.372.392.386.386,0,0,1-.393.392c-.305.01-.611,0-.917,0Z" transform="translate(-1493.973 -2018.532)" fill="#707b9b"/>
    <path id="Path_2097" data-name="Path 2097" d="M1506.659,2033.769h-4.281a1.421,1.421,0,0,1-.247-.008.367.367,0,0,1-.33-.347.36.36,0,0,1,.259-.4.916.916,0,0,1,.291-.034q4.305,0,8.61,0h.025c.33,0,.517.146.519.4s-.178.394-.516.394Z" transform="translate(-1493.97 -2026.036)" fill="#707b9b"/>
    <path id="Path_2098" data-name="Path 2098" d="M1505.774,2043.074q-1.683,0-3.366,0c-.1,0-.244.01-.307-.049a.6.6,0,0,1-.214-.372c0-.113.135-.244.241-.328a.509.509,0,0,1,.287-.04q3.366,0,6.733,0c.041,0,.083,0,.124,0a.411.411,0,0,1,.419.4.4.4,0,0,1-.426.389c-.668.005-1.337,0-2,0Z" transform="translate(-1494.041 -2033.555)" fill="#707b9b"/>
    <path id="Path_2099" data-name="Path 2099" d="M1503.964,2013.981c-.552,0-1.1,0-1.657,0-.333,0-.516-.147-.514-.4s.179-.39.5-.391c1.129,0,2.259,0,3.388,0a.417.417,0,0,1,.461.292.354.354,0,0,1-.186.44.719.719,0,0,1-.309.058C1505.084,2013.984,1504.524,2013.981,1503.964,2013.981Z" transform="translate(-1493.965 -2010.045)" fill="#707b9b"/>
    <path id="Path_2100" data-name="Path 2100" d="M1564.972,2064.313a1.389,1.389,0,0,1,1.385-1.385,1.4,1.4,0,0,1,1.384,1.393,1.389,1.389,0,0,1-1.393,1.379A1.372,1.372,0,0,1,1564.972,2064.313Zm1.38.594a.592.592,0,0,0,.594-.6.6.6,0,0,0-.6-.591.591.591,0,0,0-.578.587A.582.582,0,0,0,1566.352,2064.907Z" transform="translate(-1545.02 -2050.24)" fill="#707b9b"/>
    <path id="Path_2101" data-name="Path 2101" d="M1496.9,2068.513a.4.4,0,0,1-.4.387.387.387,0,0,1-.387-.4.394.394,0,0,1,.4-.39A.406.406,0,0,1,1496.9,2068.513Z" transform="translate(-1489.376 -2054.431)" fill="#707b9b"/>
    <path id="Path_2102" data-name="Path 2102" d="M1487.433,2068.113a.4.4,0,0,1,.383.406.4.4,0,0,1-.405.381.386.386,0,0,1-.378-.4A.391.391,0,0,1,1487.433,2068.113Z" transform="translate(-1482.037 -2054.43)" fill="#707b9b"/>
    <path id="Path_2103" data-name="Path 2103" d="M1478.332,2068.9a.384.384,0,0,1-.376-.4.389.389,0,0,1,.4-.383.4.4,0,0,1,.38.406A.392.392,0,0,1,1478.332,2068.9Z" transform="translate(-1474.702 -2054.43)" fill="#707b9b"/>
  </g>
</svg>
