<svg xmlns="http://www.w3.org/2000/svg" width="21.667" height="29.967" viewBox="0 0 21.667 29.967">
  <g id="Group_705" data-name="Group 705" transform="translate(-319.104 -700.252)">
    <path id="Path_1898" data-name="Path 1898" d="M329.643,730.218a4.826,4.826,0,0,1-.621-.361,1.143,1.143,0,0,1-.443-.859,7.766,7.766,0,0,1,0-.964,1.182,1.182,0,0,1,.629-1,.465.465,0,0,0,.254-.63c-.7.033-1.448.059-1.671-.893-.607.13-1.2.255-1.784.383s-1.2.279-1.8.387a.622.622,0,0,0-.544.463,1.651,1.651,0,0,1,.6,1.608,1.62,1.62,0,0,1-3.207-.212,1.568,1.568,0,0,1,1.265-1.659.914.914,0,0,0,.793-.555.836.836,0,0,1,.668-.452c1.249-.262,2.493-.547,3.742-.8.228-.047.29-.143.269-.35a2.949,2.949,0,0,1,0-.322,1.074,1.074,0,0,1,.841-1.19v-1.607c-.122,0-.236.009-.348,0a.4.4,0,0,1-.405-.414.411.411,0,0,1,.372-.449,1.436,1.436,0,0,1,.292-.01h5.621a3.048,3.048,0,0,1,.133-1.624c.041-.2-.036-.276-.2-.31a1.856,1.856,0,0,0-.377-.033q-3.789,0-7.579,0a2.029,2.029,0,0,0-.234.008c-.32.036-.365.108-.309.429a2.765,2.765,0,0,1,.1,1.532c.235,0,.437-.007.638,0a.449.449,0,0,1,.477.447.436.436,0,0,1-.492.425c-.437-.008-.873-.038-1.31-.057a.717.717,0,0,0-.172.009A1.4,1.4,0,0,1,322.992,720c-.014-.057-.026-.114-.048-.208-.4,0-.807-.007-1.214.007-.065,0-.144.083-.187.147a1.051,1.051,0,0,1-.913.489,3.683,3.683,0,0,1-.727-.039.965.965,0,0,1-.793-.957q-.01-2.926,0-5.852a.988.988,0,0,1,.968-.982c.643-.016,1.287-.009,1.931,0a.442.442,0,0,1,.477.445.45.45,0,0,1-.465.429c-.1.005-.194,0-.311,0v5.412h1.043c-.1-.461-.168-.921-.295-1.366A1.472,1.472,0,0,1,323.9,715.5c.1-.824.224-1.652.295-2.484a13.952,13.952,0,0,0,.063-2.035,3.7,3.7,0,0,0-.79-1.923,2.186,2.186,0,0,1,.2-3.108,4.936,4.936,0,0,0,1.245-2.043c.24-.771.542-1.523.818-2.282a1.923,1.923,0,0,1,1.959-1.368q2.253,0,4.506,0a1.924,1.924,0,0,1,1.953,1.377c.353.97.687,1.947,1.065,2.907a4.3,4.3,0,0,0,.555.913,7.9,7.9,0,0,0,.553.6,2.188,2.188,0,0,1,.145,2.914,4.163,4.163,0,0,0-.9,2.309,12.23,12.23,0,0,0,.106,1.747c.084.823.2,1.643.3,2.475a4.163,4.163,0,0,1,.471.06,1.4,1.4,0,0,1,1.023,1.69c-.111.542-.23,1.083-.35,1.649h1.04v-5.42a2.73,2.73,0,0,1-.373,0,.413.413,0,0,1-.392-.434.394.394,0,0,1,.394-.428c.7-.014,1.406-.028,2.106.009a.968.968,0,0,1,.871.951c.015.517.01,1.034,0,1.551a.435.435,0,0,1-.427.463.442.442,0,0,1-.446-.475c-.008-.448-.01-.9,0-1.346.005-.219-.078-.3-.292-.286-.164.012-.33,0-.518,0v3.984h.807c0-.123-.006-.245,0-.367a.442.442,0,0,1,.436-.456.431.431,0,0,1,.436.452c.007.79.024,1.581-.012,2.37a1.155,1.155,0,0,1-.3.669,1.554,1.554,0,0,1-2.118-.176.377.377,0,0,0-.241-.155c-.379-.017-.759-.007-1.162-.007-.033.141-.059.271-.094.4a1.4,1.4,0,0,1-1.391,1.036c-.433-.01-.866-.018-1.3-.019-.956,0-1.911,0-2.892,0v1.6a1.088,1.088,0,0,1,.828,1.24c0,.554,0,.552.552.671,1.18.255,2.357.526,3.542.761a.96.96,0,0,1,.692.561.714.714,0,0,0,.594.421A1.575,1.575,0,0,1,338.817,728a1.622,1.622,0,0,1-3.028.854,1.612,1.612,0,0,1,.3-1.983c.049-.047.1-.091.149-.135a.617.617,0,0,0-.547-.449c-1.107-.224-2.209-.474-3.313-.714-.093-.02-.187-.033-.3-.052-.223.939-.948.924-1.68.89-.044.274-.064.468.237.616a1.208,1.208,0,0,1,.657,1.011c.016.145.005.293.018.438a1.528,1.528,0,0,1-1.084,1.746Zm-4.4-17.964,2.055.255a1.252,1.252,0,0,0-.008-.147c-.263-1.773-.535-3.545-.785-5.32a6.982,6.982,0,0,1-.069-1.358,5.2,5.2,0,0,1,.236-.992c.089-.338.29-.489.552-.424s.383.285.3.624a9.706,9.706,0,0,0-.244,1.022c-.039.325-.095.694.228.935a4.163,4.163,0,0,0,4.842,0c.073-.055.163-.139.171-.217a2.75,2.75,0,0,0,.02-.861c-.327-1.393-.687-2.778-1.037-4.166-.094-.373-.223-.47-.622-.471q-.95,0-1.9,0c-.415,0-.533.094-.634.491-.11.434-.2.876-.345,1.3a.558.558,0,0,1-.392.306.551.551,0,0,1-.4-.247.638.638,0,0,1,.006-.421c.105-.469.227-.934.346-1.412a1.034,1.034,0,0,0-1.015.782c-.37,1.015-.719,2.039-1.116,3.043a4.7,4.7,0,0,1-.6.988,7.516,7.516,0,0,1-.593.646,1.33,1.33,0,0,0-.1,1.874,4.838,4.838,0,0,1,.933,2.026C325.172,711.085,325.192,711.68,325.247,712.255Zm2.286-4.346c.415,3.213,1,6.361,1.335,9.555h2.142c.313-3.208.923-6.35,1.323-9.554A5.124,5.124,0,0,1,327.533,707.908Zm7.143,4.34c0-.032,0-.1,0-.164a5.343,5.343,0,0,1,1.1-3.665,1.309,1.309,0,0,0-.094-1.761,7.96,7.96,0,0,1-.927-1.083,9.291,9.291,0,0,1-.652-1.49c-.289-.753-.547-1.519-.833-2.274a.9.9,0,0,0-.961-.632c.37,1.472.743,2.943,1.105,4.417a1.727,1.727,0,0,1,.064.633c-.228,1.62-.474,3.236-.713,4.854-.072.488-.139.976-.2,1.429Zm-9.333,5.328a4.422,4.422,0,0,1,.547-.081c.584-.011,1.168-.017,1.751,0,.219,0,.31-.07.289-.281-.057-.58-.111-1.16-.184-1.738a.369.369,0,0,0-.194-.223,4.358,4.358,0,0,0-2.494-.415c-.069.008-.189.061-.189.091,0,.406-.292.819.055,1.221a1.291,1.291,0,0,1,.212.5C325.217,716.948,325.273,717.253,325.343,717.576Zm9.166-.063a7.533,7.533,0,0,1,.418-1.31,1.137,1.137,0,0,0,.153-.782,1.994,1.994,0,0,0-.059-.373c-.034-.086-.126-.2-.2-.208a4.278,4.278,0,0,0-2.494.408c-.078.039-.182.12-.191.191-.074.607-.131,1.216-.189,1.824-.017.18.084.224.251.225C332.969,717.49,333.742,717.5,334.509,717.513Zm-4.106,8.018a3.672,3.672,0,0,0,.591-.01.3.3,0,0,0,.2-.213c.019-.467.019-.936,0-1.4a.3.3,0,0,0-.2-.2q-1.052-.023-2.105,0a.3.3,0,0,0-.2.2c-.019.467-.017.936,0,1.4a.283.283,0,0,0,.169.212,4.567,4.567,0,0,0,.621.01c.085-.689.174-.834.482-.826S330.318,724.834,330.4,725.531Zm-7.15-8.615a.932.932,0,0,0,.01.116c.206.971.406,1.943.623,2.911a.494.494,0,0,0,.618.392.508.508,0,0,0,.389-.622c-.065-.364-.15-.724-.228-1.086-.131-.609-.254-1.219-.4-1.825a.491.491,0,0,0-.588-.4A.5.5,0,0,0,323.253,716.916Zm13.4-.081a1.71,1.71,0,0,0-.346-.388.422.422,0,0,0-.558.1.919.919,0,0,0-.181.388c-.2.893-.383,1.789-.573,2.684-.079.374.06.646.362.716.327.076.577-.108.659-.492.143-.666.281-1.333.421-2C336.5,717.537,336.566,717.233,336.651,716.835ZM320.8,713.48a4.246,4.246,0,0,1-.475,0c-.28-.033-.346.092-.344.353.012,1.121,0,2.243.006,3.364,0,.085.009.171.015.266h.8Zm6.733.794c.014-.664,0-.713-.567-.868a5.121,5.121,0,0,0-1.2-.207c-.852-.021-.686-.1-.774.752A5.583,5.583,0,0,1,327.53,714.273Zm7.356-.319c-.015-.168-.039-.3-.037-.435,0-.247-.108-.362-.355-.329-.546.073-1.1.111-1.634.234s-.571.252-.507.84A5.572,5.572,0,0,1,334.887,713.954Zm3.051,14.083a.743.743,0,1,0-.741.752A.76.76,0,0,0,337.938,728.037Zm-15.3.75a.747.747,0,0,0,.78-.709.743.743,0,1,0-.78.709Zm7.8-.242c-.007-.153,0-.291-.021-.425a.47.47,0,0,0-.477-.422.455.455,0,0,0-.483.413,4.619,4.619,0,0,0,0,.816.454.454,0,0,0,.486.411.459.459,0,0,0,.468-.4A3.284,3.284,0,0,0,330.439,728.545Zm-.112-5.748v-1.568h-.788V722.8Zm-10.343-4.425v.672c0,.539,0,.539.55.519.039,0,.09.012.114-.007.061-.048.153-.11.156-.17.015-.334.007-.67.007-1.014Zm19.073,0v.652c0,.562,0,.562.561.535.029,0,.069.01.086,0,.064-.057.169-.12.173-.185.018-.327.008-.655.008-1Z" transform="translate(0 0)" fill="#707b9b"/>
    <path id="Path_1899" data-name="Path 1899" d="M361.716,717.03c-.291,0-.583.007-.874,0a.435.435,0,1,1-.014-.869q.918-.018,1.836,0a.434.434,0,1,1-.015.866C362.338,717.037,362.027,717.03,361.716,717.03Z" transform="translate(-31.802 -12.252)" fill="#707b9b"/>
  </g>
</svg>
