<svg xmlns="http://www.w3.org/2000/svg" width="25.05" height="25.088" viewBox="0 0 25.05 25.088">
  <g id="Group_728" data-name="Group 728" transform="translate(11992 17385.999)">
    <g id="g3777" transform="translate(-11992 -17386)">
      <path id="path3775" d="M308.148,1087.269a1.425,1.425,0,0,1-.9-.738l-.107-.207-.023-2.665-.023-2.665-2.688-.023-2.688-.023-.212-.124a1.654,1.654,0,0,1-.58-.6,9.4,9.4,0,0,1-.081-2.492v-2.344H312.7v11.9l-2.205.007C309.278,1087.3,308.223,1087.287,308.148,1087.269Z" transform="translate(-300.842 -1062.209)" fill="#707b9b"/>
      <path id="path3761" d="M320.881,1068c-.013-.035-.019-1.221-.012-2.636l.012-2.573,1.31-.028a5.265,5.265,0,0,0,2.129-.266,4.04,4.04,0,0,0,2.541-4.094,3.737,3.737,0,0,0-2.981-3.613,5.565,5.565,0,0,0-1.812,0,4.134,4.134,0,0,0-3.168,3.067,8.316,8.316,0,0,0-.1,1.574c-.02,1.143-.03,1.276-.1,1.277-.42.012-5.131-.01-5.144-.024-.041-.04,0-2.787.042-3.149a9.3,9.3,0,0,1,5.107-7.117,9.083,9.083,0,0,1,4.239-.984,9.183,9.183,0,0,1,4.136.884,8.692,8.692,0,0,1,4.869,6.348,9.485,9.485,0,0,1-2.7,8.8,9.247,9.247,0,0,1-4.893,2.459,11.519,11.519,0,0,1-2,.119c-1.208.019-1.462.012-1.483-.04Z" transform="translate(-307.096 -1049.424)" fill="#707b9b"/>
    </g>
  </g>
</svg>
