<svg id="Group_713" data-name="Group 713" xmlns="http://www.w3.org/2000/svg" width="23.183" height="26.096" viewBox="0 0 23.183 26.096">
  <path id="Path_1931" data-name="Path 1931" d="M507.668,1096.987a3.93,3.93,0,0,1,.051.454c0,3.9.04,7.809-.027,11.713a9.043,9.043,0,0,1-.625,2.512,8.918,8.918,0,0,1-3.8,5.178,8.266,8.266,0,0,1-3.036,1.1c.034-.271.075-.5.089-.731.038-.658.089-1.317.091-1.975.008-4.382,0-8.764.009-13.145a9.267,9.267,0,0,1,.111-1.509,3.581,3.581,0,0,1,2.16-2.767,9.488,9.488,0,0,1,3.134-.756c.166-.016.33-.048.5-.073Z" transform="translate(-484.549 -1096.987)" fill="#fdfdfd"/>
  <path id="Path_1932" data-name="Path 1932" d="M468.368,1096.987c0,.364-.01.727,0,1.09,0,.227-.082.33-.319.327-1.236-.016-1.017.144-1.04-.957,0-.153.009-.307.014-.461Z" transform="translate(-467.001 -1096.987)" fill="#fdfdfd"/>
  <path id="Path_1933" data-name="Path 1933" d="M478.237,1127.542c-.908-.109-1.828-.166-2.724-.337a10.26,10.26,0,0,1-6.765-4.124,8.824,8.824,0,0,1-1.7-5.034c-.055-4.072-.03-8.145-.042-12.217,0-.281.088-.407.389-.4,1.159.027.964-.147.969.942.011,2.134,0,4.269,0,6.4,0,.571,0,.571.547.573.978,0,1,0,.98-.971-.006-.378.118-.478.483-.471.918.016.919,0,.919.91,0,.618.012,1.236,0,1.854-.008.312.076.449.421.452,1.074.01,1.074.023,1.074-1.06,0-1.264.01-2.528-.007-3.792,0-.352.08-.507.467-.5,1.1.03.925-.1.928.913.008,3.005.034,6.011-.006,9.016a8.736,8.736,0,0,0,3.813,7.485c.1.073.192.149.288.223Z" transform="translate(-467 -1101.445)" fill="#fdfdfd"/>
  <path id="Path_1934" data-name="Path 1934" d="M484.084,1134.388a8.99,8.99,0,0,0,3.3,1.128,13.005,13.005,0,0,0,5.749-.4,8.922,8.922,0,0,0,5.683-5.478c.085-.207.163-.417.249-.638a9.665,9.665,0,0,1-5.932,9.9,13.739,13.739,0,0,1-4.157,1,.7.7,0,0,1-.366-.051,8.377,8.377,0,0,1-4.524-5.269A1,1,0,0,1,484.084,1134.388Z" transform="translate(-476.02 -1113.893)" fill="#fdfdfd"/>
  <path id="Path_1935" data-name="Path 1935" d="M477.583,1100.786c-.009.783.088.689-.745.691-.749,0-.643.062-.647-.745,0-.715-.062-.629.764-.633C477.583,1100.1,477.583,1100.1,477.583,1100.786Z" transform="translate(-471.853 -1098.63)" fill="#fdfdfd"/>
  <path id="Path_1936" data-name="Path 1936" d="M480.636,1105.428c-.005.773.054.659-.77.663-.734,0-.62.058-.623-.805,0-.687-.046-.57.808-.578C480.636,1104.7,480.636,1104.708,480.636,1105.428Z" transform="translate(-473.463 -1101.063)" fill="#fdfdfd"/>
  <path id="Path_1937" data-name="Path 1937" d="M473.823,1114.481c-.763,0-.677.062-.677-.715s-.076-.661.764-.666c.705,0,.616-.048.62.729C474.533,1114.481,474.53,1114.481,473.823,1114.481Z" transform="translate(-470.244 -1105.495)" fill="#fdfdfd"/>
  <path id="Path_1938" data-name="Path 1938" d="M473.813,1104.573c-.749,0-.662.047-.666-.691,0-.654,0-.654.753-.653.629,0,.629,0,.628.739C474.526,1104.574,474.526,1104.574,473.813,1104.573Z" transform="translate(-470.246 -1100.284)" fill="#fdfdfd"/>
  <path id="Path_1939" data-name="Path 1939" d="M476.886,1109.922c-.789-.005-.682.059-.688-.7,0-.642,0-.642.719-.641.79,0,.661,0,.668.735C477.59,1109.922,477.585,1109.922,476.886,1109.922Z" transform="translate(-471.856 -1103.107)" fill="#fdfdfd"/>
</svg>
