<svg id="Group_735" data-name="Group 735" xmlns="http://www.w3.org/2000/svg" width="24.738" height="24.739" viewBox="0 0 24.738 24.739">
  <path id="Path_1983" data-name="Path 1983" d="M-349.886,291.694c-.242-.01-.479-.005-.721-.025-.311-.025-.622-.064-.934-.1a12.8,12.8,0,0,1-1.552-.3A11.9,11.9,0,0,1-355,290.6a11.615,11.615,0,0,1-3-1.928,12.9,12.9,0,0,1-2.312-2.661,12.067,12.067,0,0,1-1.477-3.31,13.446,13.446,0,0,1-.346-1.655c-.044-.3-.079-.6-.094-.9-.025-.386-.04-.773-.03-1.159,0-.322.049-.639.079-.961a12.663,12.663,0,0,1,.321-1.823,11.8,11.8,0,0,1,2.1-4.365,12.8,12.8,0,0,1,2.945-2.785,11.81,11.81,0,0,1,3.182-1.511,12.566,12.566,0,0,1,1.655-.392c.306-.05.617-.084.924-.124a9.686,9.686,0,0,1,1.467-.065c.232,0,.464.03.7.05.262.025.529.055.786.094.38.064.756.129,1.131.218a11.667,11.667,0,0,1,2.727.986,11.593,11.593,0,0,1,2.436,1.65,12.979,12.979,0,0,1,2.312,2.651,11.868,11.868,0,0,1,1.586,3.647,13.263,13.263,0,0,1,.277,1.457c.035.273.069.545.084.818.02.431.03.867.025,1.3,0,.287-.044.575-.074.857a11.966,11.966,0,0,1-.3,1.67,11.77,11.77,0,0,1-1.942,4.172,12.875,12.875,0,0,1-1.295,1.541c-.3.3-.628.57-.954.842a12.129,12.129,0,0,1-2.05,1.368,11.251,11.251,0,0,1-3.009,1.1c-.415.089-.84.153-1.26.213-.277.04-.563.059-.84.079C-349.461,291.684-349.673,291.684-349.886,291.694Zm.074-23.352c-.222.01-.445.02-.667.035-.351.03-.7.055-1.047.1a9.162,9.162,0,0,0-1.413.3,11.147,11.147,0,0,0-2.52,1.09,10.991,10.991,0,0,0-2.2,1.685,10.1,10.1,0,0,0-1.467,1.843,11.087,11.087,0,0,0-1.63,4.271,10.659,10.659,0,0,0-.114,1.372c0,.278.01.555.025.827.015.243.03.491.059.733.034.282.079.565.128.847a9.885,9.885,0,0,0,.573,1.982,11.238,11.238,0,0,0,1.156,2.131,10.682,10.682,0,0,0,1.848,2.071,10.949,10.949,0,0,0,2.2,1.467,10.886,10.886,0,0,0,3.365,1.085,10.459,10.459,0,0,0,1.413.114,9.93,9.93,0,0,0,1.379-.074c.351-.045.7-.089,1.047-.154a9.965,9.965,0,0,0,2.787-.971,12.1,12.1,0,0,0,2.243-1.521,10.3,10.3,0,0,0,2.426-3.052,11.388,11.388,0,0,0,1.215-3.79,8,8,0,0,0,.079-1.085c0-.159,0-.312,0-.471-.015-.312-.02-.629-.059-.941-.049-.406-.109-.813-.183-1.214a10.09,10.09,0,0,0-.87-2.567,11.231,11.231,0,0,0-2.624-3.389,10.482,10.482,0,0,0-3.335-2.012A11.083,11.083,0,0,0-349.812,268.341Z" transform="translate(362.261 -266.954)" fill="#707b9b"/>
  <path id="Path_1984" data-name="Path 1984" d="M-337.621,309.172c-.1.058-.173.1-.25.154-.727.462-1.448.929-2.175,1.4-.188.12-.375.24-.563.366a.088.088,0,0,1-.116,0q-1.285-.866-2.57-1.728l-.428-.284c-.014-.01-.034-.019-.058-.034-.014.034-.029.063-.038.091a2.538,2.538,0,0,1-.78,1.155,2.336,2.336,0,0,1-1.1.486,6.994,6.994,0,0,1-1.347.043q-.62-.014-1.241-.014c-.14,0-.14,0-.14-.14V305.9c0-.1,0-.1.1-.1.231,0,.462.009.688.009.39,0,.775-.034,1.165-.029a3.783,3.783,0,0,1,1.087.125,2.268,2.268,0,0,1,1.405,1.193c.058.106.1.221.144.332.009.019.014.038.029.067.058-.038.111-.067.164-.1l2.9-1.857a.1.1,0,0,1,.125,0c.337.231.678.462,1.016.693.009,0,.014.014.029.024-.8.52-1.607,1.035-2.42,1.554.048.034.077.058.116.082.077.053.154.1.226.154a.1.1,0,0,0,.125,0c.51-.327,1.015-.65,1.525-.972.269-.173.539-.346.813-.515a.075.075,0,0,1,.077,0c.322.212.645.428.967.645.01,0,.015.014.029.029-.8.525-1.593,1.049-2.4,1.578.043.034.077.058.111.082.082.053.168.1.25.154a.094.094,0,0,0,.115,0c.39-.245.784-.491,1.174-.741s.789-.505,1.184-.755a.126.126,0,0,0,.063-.115c0-.515,0-1.035,0-1.55,0-.067.019-.087.087-.087.539,0,1.083,0,1.622,0,.068,0,.082.019.082.087v3.224c0,.106,0,.106.111.106.342,0,.683,0,1.03.01h.4c.053,0,.063.024.063.072v1.439c0,.053-.014.072-.067.072h-3.258c-.058,0-.067-.024-.067-.072v-1.463A.809.809,0,0,0-337.621,309.172Zm-8.869.053v.01c.14-.01.279-.014.414-.034a.741.741,0,0,0,.525-.3,1.057,1.057,0,0,0,.183-.707.809.809,0,0,0-.64-.794,2.06,2.06,0,0,0-.621-.039c-.1.01-.106,0-.106.106v1.7c0,.048.019.067.067.067S-346.547,309.224-346.49,309.224Z" transform="translate(351.627 -296.253)" fill="#707b9b"/>
  <path id="Path_1985" data-name="Path 1985" d="M-285,309.219v-2.4c0-.1,0-.1.1-.1h1.607c.091,0,.091,0,.091.091v3.277c0,.038.014.058.053.058h1.463c.063,0,.087.014.087.082,0,.472,0,.948,0,1.419,0,.063-.014.082-.082.082h-3.229c-.067,0-.087-.019-.087-.087Z" transform="translate(303.528 -297.172)" fill="#707b9b"/>
</svg>
