<svg xmlns="http://www.w3.org/2000/svg" width="25" height="25" viewBox="0 0 25 25">
  <path id="Path_1998" data-name="Path 1998" d="M1398.181,1170.508A12.5,12.5,0,1,1,1410.24,1183,12.5,12.5,0,0,1,1398.181,1170.508Zm19.25,6.941c-.354-.018-.672-.026-.988-.051a11.048,11.048,0,0,1-2.492-.5,14.754,14.754,0,0,1-4.72-2.565,17.234,17.234,0,0,1-1.983-1.865,15.535,15.535,0,0,1-1.52-1.95,14.229,14.229,0,0,1-1.457-2.829,11.141,11.141,0,0,1-.748-3.369c-.009-.171-.023-.342-.035-.512l-.044-.01c-.134.341-.288.675-.4,1.023a8.079,8.079,0,0,0-.294,3.455,10.47,10.47,0,0,0,1.04,3.409,12,12,0,0,0,1.813,2.664,12.738,12.738,0,0,0,2.458,2.13,11.177,11.177,0,0,0,2.247,1.157,9.558,9.558,0,0,0,4.569.608,7.345,7.345,0,0,0,2.391-.7C1417.315,1177.518,1417.358,1177.49,1417.431,1177.449Zm1-3.9c-.367-.025-.7-.035-1.033-.074a9.916,9.916,0,0,1-3.166-.949,12.686,12.686,0,0,1-2.793-1.853,13.385,13.385,0,0,1-2.184-2.412,11,11,0,0,1-1.68-3.517c-.134-.5-.194-1.027-.278-1.544-.031-.2-.034-.4-.053-.632-.033.059-.047.083-.059.109a5.879,5.879,0,0,0-.521,1.811,7.415,7.415,0,0,0,.261,2.94,8.933,8.933,0,0,0,.991,2.211,10.039,10.039,0,0,0,2.01,2.346,9.421,9.421,0,0,0,2.748,1.662,7.7,7.7,0,0,0,3.689.525A5.994,5.994,0,0,0,1418.429,1173.553Z" transform="translate(-1398.182 -1158.008)" fill="#707b9b"/>
</svg>
