<svg xmlns="http://www.w3.org/2000/svg" width="25" height="25" viewBox="0 0 25 25">
  <path id="Path_1996" data-name="Path 1996" d="M231.954,1146.364a12.5,12.5,0,1,0,12.5,12.5A12.5,12.5,0,0,0,231.954,1146.364Zm0,20.491a1.138,1.138,0,0,1-1.14-1.135,1.142,1.142,0,1,1,1.14,1.135Zm8.3-9.541a11.163,11.163,0,0,0-4.2-2.67,11.641,11.641,0,0,0-11.87,2.179c-.042.035-.082.073-.122.112-.013.012-.02.03-.016.024l1.858,1.856a9.442,9.442,0,0,1,2.2-1.434,9.156,9.156,0,0,1,10.217,1.748.582.582,0,0,1,.019.969q-1.237,1.24-2.479,2.475a.572.572,0,0,1-.932.025,4.3,4.3,0,0,0-5.986.011c-.309.274-.619.286-.847.032s-.177-.565.122-.844a5.391,5.391,0,0,1,6.98-.4c.051.037.105.069.133.087l1.887-1.887c-.065-.055-.157-.138-.253-.215a8.072,8.072,0,0,0-10.573.471c-.43.411-.671.408-1.093-.014q-1.18-1.18-2.36-2.36c-.37-.371-.364-.641.013-1.006a12.4,12.4,0,0,1,7.029-3.511,12.658,12.658,0,0,1,11.017,3.565.556.556,0,0,1,.076.827A.537.537,0,0,1,240.257,1157.314Z" transform="translate(-219.454 -1146.363)" fill="#707b9b"/>
</svg>
