<svg xmlns="http://www.w3.org/2000/svg" width="24.739" height="24.74" viewBox="0 0 24.739 24.74">
  <path id="Path_2000" data-name="Path 2000" d="M26.853,15.585H24.884l-2.76,7.57h1.969l2.76-7.57ZM19.37,31.739c-.122,0-.245,0-.367-.005l2.53-6.947h3.474A1.705,1.705,0,0,0,26.5,23.746l2.744-7.539a1.565,1.565,0,0,0-1.571-2.244H22.843l-4.05,11.13h0L16.5,31.4a12.374,12.374,0,0,1-.469-23.949l-2.372,6.514h0L9.724,24.787h2.622L15.7,15.6h1.969l-3.351,9.192h2.622l3.122-8.58a1.565,1.565,0,0,0-1.571-2.244h-2.2l2.53-6.947C19,7.005,19.186,7,19.37,7a12.37,12.37,0,0,1,0,24.739Z" transform="translate(-7 -7)" fill="#fdfdfd" fill-rule="evenodd"/>
</svg>
