<svg xmlns="http://www.w3.org/2000/svg" width="19.999" height="20" viewBox="0 0 19.999 20">
  <g id="Group_650" data-name="Group 650" transform="translate(-729 -700)">
    <path id="Path_1741" data-name="Path 1741" d="M745.367,700c.17.036.342.067.511.108a3.975,3.975,0,0,1,2.574,5.819c-1.177,2.1-2.4,4.169-3.61,6.25a1.086,1.086,0,0,0-.162.783,1.023,1.023,0,0,0,.843.816,1.012,1.012,0,0,0,1.032-.484c.278-.462.543-.933.814-1.4.026-.045.051-.091.078-.135a.4.4,0,0,1,.562-.178.4.4,0,0,1,.111.581c-.147.26-.3.518-.449.777l-.382.658a1.808,1.808,0,1,1-3.122-1.814q1.332-2.306,2.669-4.608c.3-.523.612-1.044.908-1.57a3.189,3.189,0,0,0-2.164-4.748,3.062,3.062,0,0,0-3.185,1.229,11.46,11.46,0,0,0-.661,1.066c.3.254.594.477.857.735a5.984,5.984,0,0,1,.993,7.3q-1.661,2.915-3.364,5.806a5.894,5.894,0,0,1-4.626,2.976.709.709,0,0,0-.11.031h-.938a1.2,1.2,0,0,0-.15-.034,6.006,6.006,0,0,1-5.2-4.5c-.081-.332-.13-.673-.193-1.009v-.977a.782.782,0,0,0,.035-.128,5.441,5.441,0,0,1,.673-2.183c1.185-2.07,2.362-4.146,3.59-6.19a5.946,5.946,0,0,1,6.525-2.636c.418.108.822.271,1.243.412.162-.276.328-.571.505-.858a3.75,3.75,0,0,1,1.874-1.582,11.183,11.183,0,0,1,1.141-.311ZM732.8,707.392c-.029.043-.049.068-.064.1-.759,1.311-1.529,2.616-2.274,3.935a5.093,5.093,0,0,0-.519,3.809,5.225,5.225,0,0,0,5.729,3.937,5.162,5.162,0,0,0,3.9-2.619c.732-1.251,1.454-2.508,2.18-3.763.028-.049.05-.1.08-.161Zm4.586,1.719c.155-.267.3-.511.437-.763a.22.22,0,0,0-.016-.184,1.178,1.178,0,0,1-.017-1.307c.269-.46.539-.919.8-1.384a1.2,1.2,0,0,1,1.164-.67.205.205,0,0,0,.159-.064c.25-.416.491-.838.74-1.267-.054-.029-.092-.054-.132-.071a5.167,5.167,0,0,0-5.568.825,6.1,6.1,0,0,0-1.413,1.872c-.112.2-.229.4-.35.61Zm3.949-5.252c-.252.434-.492.842-.724,1.256a.216.216,0,0,0,.006.185,1.184,1.184,0,0,1,.018,1.325q-.409.7-.811,1.4a1.189,1.189,0,0,1-1.14.644c-.052,0-.132.008-.153.041-.159.257-.307.522-.464.792l4.186,2.425c.239-.416.482-.814.7-1.225a5.13,5.13,0,0,0,.177-4.71A5,5,0,0,0,741.334,703.859Zm-1.293,2.162a.409.409,0,0,0-.285-.418.379.379,0,0,0-.445.194q-.426.721-.841,1.449a.392.392,0,1,0,.672.388q.408-.7.809-1.4A1.634,1.634,0,0,0,740.042,706.022Z" fill="#707b9b"/>
    <path id="Path_1742" data-name="Path 1742" d="M855.642,766.993c-.021.039-.041.08-.065.118a.368.368,0,0,1-.431.18.364.364,0,0,1-.289-.366.386.386,0,0,1,.721-.207c.024.038.043.079.064.118Z" transform="translate(-106.642 -56.368)" fill="#707b9b"/>
  </g>
</svg>
