<svg xmlns="http://www.w3.org/2000/svg" xmlns:xlink="http://www.w3.org/1999/xlink" width="25" height="25" viewBox="0 0 25 25">
  <defs>
    <clipPath id="clip-path">
      <rect id="Rectangle_687" data-name="Rectangle 687" width="25" height="25" transform="translate(6146 193)" fill="#707b9b"/>
    </clipPath>
  </defs>
  <g id="Mask_Group_127" data-name="Mask Group 127" transform="translate(-6146 -193)" clip-path="url(#clip-path)">
    <g id="All_IN_One_PC" data-name="All IN One PC" transform="translate(6148.038 193)">
      <g id="Group_461" data-name="Group 461" transform="translate(9.422 13.21)">
        <path id="Path_891" data-name="Path 891" d="M14.471,17.114h1.392a.367.367,0,0,0,0-.733H14.471a.367.367,0,0,0,0,.733Z" transform="translate(-14.127 -16.381)" fill="#707b9b"/>
      </g>
      <g id="Group_462" data-name="Group 462" transform="translate(0)">
        <path id="Path_892" data-name="Path 892" d="M12.1,5.676a.33.33,0,0,0-.485.041L8.04,10.172a.383.383,0,0,0,.038.517.331.331,0,0,0,.223.088.335.335,0,0,0,.262-.128l3.574-4.455A.383.383,0,0,0,12.1,5.676Z" transform="translate(-3.21 -1.082)" fill="#707b9b"/>
        <path id="Path_893" data-name="Path 893" d="M8.073,8.566a.33.33,0,0,0,.486-.03l.966-1.157A.383.383,0,0,0,9.5,6.861a.33.33,0,0,0-.486.03L8.044,8.048a.383.383,0,0,0,.029.517Z" transform="translate(-3.21 -1.31)" fill="#707b9b"/>
        <path id="Path_894" data-name="Path 894" d="M20.946,25.24a.712.712,0,0,0-.675-.526H8.627a.367.367,0,0,0,0,.733H20.271a.02.02,0,0,1,.019.015l1.061,3.562a.02.02,0,0,1,0,.019.017.017,0,0,1-.016.009H3.513a.017.017,0,0,1-.016-.009.02.02,0,0,1,0-.019l1.061-3.562a.02.02,0,0,1,.019-.015h2.5a.367.367,0,0,0,0-.733h-2.5a.712.712,0,0,0-.675.526L2.838,28.8a.786.786,0,0,0,.1.673.689.689,0,0,0,.571.309H21.332a.688.688,0,0,0,.571-.309.786.786,0,0,0,.1-.673Z" transform="translate(-1.96 -4.783)" fill="#707b9b"/>
        <path id="Path_895" data-name="Path 895" d="M21.238,0H3.067A1.425,1.425,0,0,0,1.69,1.465V13.875A1.425,1.425,0,0,0,3.067,15.34H9.825a18.257,18.257,0,0,1-.24,2.642H8.1a.367.367,0,0,0,0,.733h8.1a.367.367,0,0,0,0-.733H14.719a18.257,18.257,0,0,1-.24-2.642h6.758a1.425,1.425,0,0,0,1.376-1.465V1.465A1.425,1.425,0,0,0,21.238,0ZM10.288,17.982a20.623,20.623,0,0,0,.226-2.642h3.277a20.623,20.623,0,0,0,.226,2.642Zm11.637-4.108a.712.712,0,0,1-.688.732H3.067a.712.712,0,0,1-.688-.732V12.547H21.926v1.328Zm0-2.061h-.9V6.406a.345.345,0,1,0-.688,0v5.408H3.971V2.484a.094.094,0,0,1,.091-.1h16.18a.094.094,0,0,1,.091.1V4.729a.345.345,0,1,0,.688,0V2.484a.807.807,0,0,0-.779-.83H4.062a.807.807,0,0,0-.779.83v9.33h-.9V1.465A.712.712,0,0,1,3.067.733H21.238a.712.712,0,0,1,.688.732Z" transform="translate(-1.69 0)" fill="#707b9b"/>
        <path id="Path_896" data-name="Path 896" d="M8.179,26.59H7.712a.367.367,0,0,0,0,.733h.467a.367.367,0,0,0,0-.733Z" transform="translate(-3.067 -5.146)" fill="#707b9b"/>
        <path id="Path_897" data-name="Path 897" d="M10.178,27.322h.467a.367.367,0,0,0,0-.733h-.467a.367.367,0,0,0,0,.733Z" transform="translate(-3.665 -5.146)" fill="#707b9b"/>
        <path id="Path_898" data-name="Path 898" d="M12.644,27.322h.467a.367.367,0,0,0,0-.733h-.467a.367.367,0,0,0,0,.733Z" transform="translate(-4.262 -5.146)" fill="#707b9b"/>
        <path id="Path_899" data-name="Path 899" d="M15.11,27.322h.467a.367.367,0,0,0,0-.733H15.11a.367.367,0,0,0,0,.733Z" transform="translate(-4.86 -5.146)" fill="#707b9b"/>
        <path id="Path_900" data-name="Path 900" d="M17.576,27.322h.467a.367.367,0,0,0,0-.733h-.467a.367.367,0,0,0,0,.733Z" transform="translate(-5.458 -5.146)" fill="#707b9b"/>
        <path id="Path_901" data-name="Path 901" d="M20.042,27.322h.467a.367.367,0,0,0,0-.733h-.467a.367.367,0,0,0,0,.733Z" transform="translate(-6.056 -5.146)" fill="#707b9b"/>
        <path id="Path_902" data-name="Path 902" d="M22.451,27.322h.467a.367.367,0,0,0,0-.733h-.467a.367.367,0,0,0,0,.733Z" transform="translate(-6.64 -5.146)" fill="#707b9b"/>
        <path id="Path_903" data-name="Path 903" d="M8.179,28.216H7.712a.367.367,0,0,0,0,.733h.467a.367.367,0,0,0,0-.733Z" transform="translate(-3.067 -5.461)" fill="#707b9b"/>
        <path id="Path_904" data-name="Path 904" d="M10.178,28.948h.467a.367.367,0,0,0,0-.733h-.467a.367.367,0,0,0,0,.733Z" transform="translate(-3.665 -5.461)" fill="#707b9b"/>
        <path id="Path_905" data-name="Path 905" d="M12.644,28.948h.467a.367.367,0,0,0,0-.733h-.467a.367.367,0,0,0,0,.733Z" transform="translate(-4.262 -5.461)" fill="#707b9b"/>
        <path id="Path_906" data-name="Path 906" d="M15.11,28.948h.467a.367.367,0,0,0,0-.733H15.11a.367.367,0,0,0,0,.733Z" transform="translate(-4.86 -5.461)" fill="#707b9b"/>
        <path id="Path_907" data-name="Path 907" d="M17.576,28.948h.467a.367.367,0,0,0,0-.733h-.467a.367.367,0,0,0,0,.733Z" transform="translate(-5.458 -5.461)" fill="#707b9b"/>
        <path id="Path_908" data-name="Path 908" d="M20.042,28.948h.467a.367.367,0,0,0,0-.733h-.467a.367.367,0,0,0,0,.733Z" transform="translate(-6.056 -5.461)" fill="#707b9b"/>
        <path id="Path_909" data-name="Path 909" d="M22.451,28.948h.467a.367.367,0,0,0,0-.733h-.467a.367.367,0,0,0,0,.733Z" transform="translate(-6.64 -5.461)" fill="#707b9b"/>
      </g>
    </g>
  </g>
</svg>
