<svg xmlns="http://www.w3.org/2000/svg" width="38.998" height="30.894" viewBox="0 0 38.998 30.894">
  <g id="Group_780" data-name="Group 780" transform="translate(-1235.41 -2327.646)">
    <path id="Path_2252" data-name="Path 2252" d="M1273.589,2337.181a.189.189,0,0,1-.1-.15c.045-.363-.273-.494-.467-.668-.166-.149-.361-.234-.325-.465a4.031,4.031,0,0,1-.59-.227c-.229-.132-.219-.228,0-.365.166-.1.335-.2.481-.287a1.311,1.311,0,0,1,.68-1.582c-.39.3-.917.424-1.1,1.028-.026-.31-.045-.544-.066-.79a4.378,4.378,0,0,1-.7.269.553.553,0,0,1-.593-.356c-.074-.144-.156-.373-.093-.481a4.759,4.759,0,0,1,.6-.7.771.771,0,0,0-.073-.14c-.5-.7-1.007-1.4-1.5-2.1-.241-.341-.47-.692-.7-1.042-.074-.115-.135-.245.059-.322a1.069,1.069,0,0,0,.146-.085c-.043-.057-.074-.135-.131-.167-.229-.131-.471-.24-.7-.372-.19-.109-.364-.2-.57-.027a.306.306,0,0,1-.216.035c-.158-.022-.314-.065-.409-.085-.141-.156-.252-.288-.376-.406-.019-.018-.1.023-.146.037.015.041.019.108.044.117a.32.32,0,0,1,.217.468l-8.183,5.324.249.382,8.183-5.323-.125-.191a2.072,2.072,0,0,1,1.874,2.288,1.175,1.175,0,0,1-.617.862,1.931,1.931,0,0,0-.912-2.3l-.17.424c.853.341.7,1.438.635,1.774a3.628,3.628,0,0,1-.461.518,1.637,1.637,0,0,1-.731.412,1.231,1.231,0,0,0-.578.149c-.457.323-.913.648-1.382.952-1.06.686-2.129,1.357-3.193,2.038-.672.43-1.339.869-2.013,1.3-.833.529-1.675,1.044-2.505,1.578-1.178.757-2.349,1.528-3.524,2.291q-1.037.674-2.078,1.341c-.91.585-1.824,1.164-2.733,1.75-.805.521-1.607,1.047-2.409,1.573-.786.515-1.569,1.034-2.355,1.547-.811.53-1.629,1.05-2.437,1.584-.331.219-.4.421-.278.71-.289.256-.425.684-.879.786a2.484,2.484,0,0,1-.224-.7,1.746,1.746,0,0,0-.316-.928l.127.189,13.792-9.214-.254-.38-13.784,9.21-.056-.091a4.716,4.716,0,0,0-1.472-1.491l28.7-18.652-.249-.383-29.681,19.292.018.028c-.195.143-.39.284-.594.409a1.342,1.342,0,0,0-.62,1.281c0,.36-.062.72-.094,1.079-.03.339.071.7-.2,1-.016.017-.014.055-.014.083,0,.2.015.4,0,.6-.022.269.13.371.353.435a1.212,1.212,0,0,1,.364.144c.521.364,1.029.746,1.547,1.112,1.721,1.217,3.447,2.426,5.16,3.652a.846.846,0,0,1,.281.458c.076.3.077.622.142.928a.343.343,0,0,0,.566.218.443.443,0,0,1,.653.022.488.488,0,0,0,.687.033c.941-.675,1.89-1.341,2.838-2.007.317-.223.632-.45.962-.651.223-.137.493-.2.7-.353.845-.614,1.673-1.253,2.51-1.878q3.152-2.355,6.307-4.707,3.128-2.339,6.251-4.686l5.132-3.85c.745-.559,1.489-1.119,2.242-1.667a.511.511,0,0,1,.379-.1,6.048,6.048,0,0,1,.892.369c.206.1.358.041.408-.147a.638.638,0,0,1,.619-.511C1274.091,2337.851,1274.088,2337.338,1273.589,2337.181ZM1238,2350.134a.138.138,0,0,0-.113.012c-.335.225-.519.037-.691-.23-.154-.239-.33-.465-.483-.705-.115-.181-.184-.357.089-.492.075-.037.109-.181.138-.283.095-.338.24-.379.531-.186a2.505,2.505,0,0,1,.957,1.6C1238.488,2350.074,1238.392,2350.144,1238,2350.134Zm.437,1.89c-.125-.23-.216-.38-.282-.54-.011-.027.09-.1.139-.152a4.754,4.754,0,0,1,.315.422C1238.625,2351.78,1238.537,2351.871,1238.437,2352.024Zm1.862,1.172c-.282-.187-.654-.272-.757-.679-.019-.077-.21-.1-.3-.172a2.889,2.889,0,0,1-.286-.285c.1-.081.207-.165.315-.241a1.051,1.051,0,0,1,.133-.046c.422-.2.422-.2.633.208.155.3.314.6.466.909.048.1.079.2.143.368A1.082,1.082,0,0,1,1240.3,2353.2Zm27.8-21.482Zm-11.1,8.1c.857-.578,1.726-1.139,2.587-1.711.757-.5,1.505-1.021,2.263-1.524.814-.54,1.637-1.067,2.453-1.6.357-.235.7-.483,1.058-.723.47-.318.939-.637,1.414-.948a.307.307,0,0,1,.211-.026c.034.008.053.087.086.146a.636.636,0,0,1-.121.158c-.447.293-.9.573-1.345.872-.324.219-.627.469-.95.691-.3.2-.607.384-.908.58q-.8.518-1.588,1.042-1.079.716-2.154,1.439l-1.8,1.206a1.29,1.29,0,0,1-.163.114,1.768,1.768,0,0,0-.873.534c-.039.059-.2.033-.312.047C1256.9,2340.008,1256.918,2339.869,1256.995,2339.817Zm-.719.5.14.051-.134.356-.125-.044Zm-1,.69c.181-.143.371-.274.608-.445,0,.339-.3.664-.522.656-.041,0-.106-.031-.114-.059A.177.177,0,0,1,1255.281,2341Zm-8.959,5.979q1.59-1.077,3.185-2.144l2.314-1.556q1.43-.959,2.861-1.917a.382.382,0,0,1,.147-.081.22.22,0,0,1,.175.045c.024.03,0,.128-.032.169a.98.98,0,0,1-.218.182c-.792.521-1.587,1.038-2.378,1.562-.378.25-.744.517-1.122.767-.283.187-.583.352-.866.539-.378.25-.74.525-1.122.769-.357.227-.736.419-1.1.64-.143.087-.256.221-.4.311-.519.331-1.044.652-1.568.976a.648.648,0,0,1-.12.045l-.037-.048A2.322,2.322,0,0,1,1246.321,2346.984Zm-4.251,2.745c.069.088.187.172.2.266.019.2-.122.254-.342.271l-.275-.2Zm3.078,8.367c-.1.045-.3-.139-.526-.253a8.278,8.278,0,0,1,.741-.554c.24-.14.361.1.583.256A5.033,5.033,0,0,1,1245.148,2358.1Zm4.795-6.195-.057-.077.891-.659.053.071Zm2.17-1.54-.069-.095,1.647-1.188.063.086Zm3.03-2.177-.069-.1,4.819-3.473.079.1Zm5.644-4.049-.069-.1,3.865-2.83.086.121Zm4.115-3.034-.053-.078.522-.346.059.086Zm1.844-1.425.516-.344-.42.453Zm.575-.386.771-.586.05.073A1.811,1.811,0,0,1,1267.32,2339.29Zm.578-4.507q-3.591,2.427-7.184,4.85-3.575,2.422-7.141,4.856-4.335,2.955-8.667,5.916c-.651.445-1.3.9-1.957,1.33a1.141,1.141,0,0,1-.466.163c-.226.031-.354-.1-.439-.317-.189-.476-.2-.472-.109-.612a1.543,1.543,0,0,0,.392-.062,49.07,49.07,0,0,0,4.991-3.232c2.554-1.684,5.09-3.4,7.631-5.1,1.167-.783,2.328-1.575,3.492-2.363q4.093-2.773,8.187-5.545a2.088,2.088,0,0,1,.469-.267.436.436,0,0,1,.36.032.393.393,0,0,0,.556.053c.022-.017.068,0,.1,0l.043.073A2.6,2.6,0,0,1,1267.9,2334.783Zm.5-1.937a4.762,4.762,0,0,1-.159.661,6.808,6.808,0,0,1-.667-.2.46.46,0,0,1-.225-.218c-.021-.045.056-.159.115-.213a2.13,2.13,0,0,1,.426-.327.514.514,0,0,1,.39-.065C1268.362,2332.53,1268.413,2332.727,1268.4,2332.846Zm.995,7.414c-.089.052-.312-.105-.46-.189-.076-.043-.124-.135-.206-.23.265-.2.514-.407.773-.593s.535-.1.941.255A11.431,11.431,0,0,1,1269.4,2340.26Z" fill="#707b9b"/>
    <path id="Path_2253" data-name="Path 2253" d="M1394.618,2350.907c0,.243.311.568.561.529a.446.446,0,0,0,.306-.255c.052-.189-.3-.6-.474-.6A.4.4,0,0,0,1394.618,2350.907Z" transform="translate(-123.657 -17.811)" fill="#707b9b"/>
    <path id="Path_2254" data-name="Path 2254" d="M1405.009,2356.805c.351,0,.423-.089.414-.467-.544-.143-.949.022-.966.436C1404.639,2356.785,1404.824,2356.806,1405.009,2356.805Z" transform="translate(-131.298 -22.246)" fill="#707b9b"/>
    <path id="Path_2255" data-name="Path 2255" d="M1403.728,2359.951c.592.125.913.048.928-.222C1404.157,2359.676,1403.784,2359.765,1403.728,2359.951Z" transform="translate(-130.733 -24.907)" fill="#707b9b"/>
    <path id="Path_2256" data-name="Path 2256" d="M1402.612,2362.05c.315-.015.632-.023.946-.054.047,0,.083-.123.164-.251a3.058,3.058,0,0,0-1.119.208Z" transform="translate(-129.858 -26.484)" fill="#707b9b"/>
  </g>
</svg>
