<svg xmlns="http://www.w3.org/2000/svg" xmlns:xlink="http://www.w3.org/1999/xlink" width="25" height="25" viewBox="0 0 25 25">
  <defs>
    <clipPath id="clip-path">
      <rect id="Rectangle_689" data-name="Rectangle 689" width="25" height="25" transform="translate(6146 296)" fill="#707b9b"/>
    </clipPath>
  </defs>
  <g id="Mask_Group_129" data-name="Mask Group 129" transform="translate(-6146 -296)" clip-path="url(#clip-path)">
    <g id="_019-pc_tower" data-name="019-pc tower" transform="translate(6146 297.855)">
      <g id="Page-1_18_" transform="translate(0)">
        <g id="_x30_19---Gaming-Setup">
          <path id="Shape_121_" d="M1.667,18.824H7.5v1.543l-3.083,2.3a1.076,1.076,0,0,0-.289,1.356.943.943,0,0,0,1.24.436l3.382-1.6,3.384,1.6a.943.943,0,0,0,1.241-.435,1.076,1.076,0,0,0-.289-1.356L10,20.367V18.824h4.583V23.7a.861.861,0,0,0,.833.887h1.494a.813.813,0,0,0,.589-.26l1.423-1.514h1.738l1.423,1.514a.813.813,0,0,0,.589.26h1.494A.861.861,0,0,0,25,23.7V4.631A1.292,1.292,0,0,0,23.75,3.3H15.833a1.292,1.292,0,0,0-1.25,1.331V7.292H1.667A1.723,1.723,0,0,0,0,9.066V17.05a1.723,1.723,0,0,0,1.667,1.774Zm11,4.711a.138.138,0,0,1-.092.118.127.127,0,0,1-.1-.005L8.921,21.967a.4.4,0,0,0-.338,0L5.028,23.648a.126.126,0,0,1-.1.005.145.145,0,0,1-.093-.118.152.152,0,0,1,.057-.142l3.154-2.352h1.4l3.156,2.351A.145.145,0,0,1,12.667,23.535Zm-3.5-3.38H8.333V18.824h.833Zm6.839,1.774,1.542-1.641a.4.4,0,0,1,.3-.133h3.892a.4.4,0,0,1,.3.133l1.542,1.641Zm.905,1.774H15.417v-.887h2.327Zm5.762,0-.833-.887h2.327V23.7Zm.9-19.516L22.036,5.828a.4.4,0,0,1-.3.133H17.846a.4.4,0,0,1-.3-.133L16.006,4.187Zm-8.161.627,1.542,1.641a1.207,1.207,0,0,0,.887.393h3.892a1.207,1.207,0,0,0,.886-.392l1.542-1.641V8.179H23.75a.444.444,0,0,0,0,.887h.417v.887H23.75a.444.444,0,0,0,0,.887h.417v.887H23.75a.444.444,0,0,0,0,.887h.417V13.5H23.75a.444.444,0,0,0,0,.887h.417v.887H23.75a.444.444,0,0,0,0,.887h.417v.887H23.75a.444.444,0,0,0,0,.887h.417V21.3l-1.542-1.641a1.207,1.207,0,0,0-.887-.393H17.846a1.207,1.207,0,0,0-.886.392L15.418,21.3V18.824h.417A1.723,1.723,0,0,0,17.5,17.05V9.066a1.723,1.723,0,0,0-1.667-1.774h-.418V4.814ZM.833,9.066a.861.861,0,0,1,.833-.887H15.833a.861.861,0,0,1,.833.887V17.05a.861.861,0,0,1-.833.887H1.667a.861.861,0,0,1-.833-.887V9.066Z" transform="translate(0 -3.3)" fill="#707b9b"/>
          <path id="Shape_120_" d="M2.617,12.225a.4.4,0,0,0,.295-.13l.833-.887a.464.464,0,0,0-.005-.622.4.4,0,0,0-.584-.005l-.833.887a.465.465,0,0,0-.09.483.417.417,0,0,0,.385.274Z" transform="translate(-0.533 -4.685)" fill="#707b9b"/>
          <path id="Shape_119_" d="M2.617,14.443a.4.4,0,0,0,.295-.13l2.917-3.1a.464.464,0,0,0-.005-.622.4.4,0,0,0-.584-.005l-2.917,3.1a.465.465,0,0,0-.09.483A.417.417,0,0,0,2.617,14.443Z" transform="translate(-0.533 -4.685)" fill="#707b9b"/>
          <path id="Shape_118_" d="M25.658,15.755a1.461,1.461,0,0,0,1.347-.958,1.626,1.626,0,0,0-.316-1.692,1.394,1.394,0,0,0-1.589-.337,1.557,1.557,0,0,0-.9,1.434,1.508,1.508,0,0,0,1.458,1.552Zm0-2.218a.667.667,0,1,1-.625.665A.646.646,0,0,1,25.658,13.537Z" transform="translate(-5.867 -5.11)" fill="#707b9b"/>
          <path id="Shape_117_" d="M25.167,17.05a.431.431,0,0,0-.417.444v1.331a.417.417,0,1,0,.833,0V17.493A.431.431,0,0,0,25.167,17.05Z" transform="translate(-6 -5.961)" fill="#707b9b"/>
          <path id="Shape_116_" d="M26.817,17.05a.431.431,0,0,0-.417.444v1.331a.417.417,0,1,0,.833,0V17.493A.431.431,0,0,0,26.817,17.05Z" transform="translate(-6.4 -5.961)" fill="#707b9b"/>
        </g>
      </g>
    </g>
  </g>
</svg>
