<svg xmlns="http://www.w3.org/2000/svg" width="33.824" height="27.61" viewBox="0 0 33.824 27.61">
  <g id="Group_774" data-name="Group 774" transform="translate(-79.598 -2712.011) rotate(30)">
    <path id="Path_2210" data-name="Path 2210" d="M1522.608,2368.64a.456.456,0,0,0-.484-.51c-.11-.007-.221,0-.331,0-.845,0-.881.037-.881.887,0,.12,0,.239,0,.359,0,.376.134.518.508.531.239.008.479.01.717,0a.436.436,0,0,0,.473-.489C1522.615,2369.155,1522.613,2368.9,1522.608,2368.64Zm-.549.721h-.6v-.675h.6Z" transform="translate(-74.141 -51.746)" fill="#707b9b"/>
    <path id="Path_2211" data-name="Path 2211" d="M1496.424,2368.59a.433.433,0,0,0-.421-.455,3.125,3.125,0,0,0-.358-.009c-.888,0-.918.029-.919.908,0,.138,0,.276,0,.414a.4.4,0,0,0,.4.441,5.587,5.587,0,0,0,.908,0,.4.4,0,0,0,.394-.444C1496.424,2369.16,1496.431,2368.875,1496.424,2368.59Zm-.558.77h-.594v-.676h.594Z" transform="translate(-52.547 -51.745)" fill="#707b9b"/>
    <path id="Path_2212" data-name="Path 2212" d="M1483.156,2368.626a.453.453,0,0,0-.489-.5c-.183-.01-.368,0-.552,0-.525,0-.658.134-.658.645,0,.083,0,.165,0,.248,0,.138,0,.276,0,.414.008.284.13.439.406.459a6.28,6.28,0,0,0,.881,0,.409.409,0,0,0,.411-.458C1483.162,2369.16,1483.161,2368.893,1483.156,2368.626Zm-.553.729h-.593v-.683h.593Z" transform="translate(-41.605 -51.738)" fill="#707b9b"/>
    <path id="Path_2213" data-name="Path 2213" d="M1469.908,2368.623a.456.456,0,0,0-.5-.5c-.2-.011-.4-.007-.606,0-.451.006-.594.15-.6.593,0,.1,0,.2,0,.3s0,.221,0,.331c0,.407.13.54.544.55.22.006.441.007.661,0,.342-.014.487-.161.493-.5C1469.914,2369.137,1469.914,2368.88,1469.908,2368.623Zm-.55.729h-.6v-.676h.6Z" transform="translate(-30.684 -51.735)" fill="#707b9b"/>
    <path id="Path_2214" data-name="Path 2214" d="M1535.9,2368.618c-.006-.305-.143-.477-.437-.5a5.6,5.6,0,0,0-.827,0,.43.43,0,0,0-.426.48c0,.23,0,.46,0,.69,0,.457.133.59.591.6h.221c.858,0,.879-.021.879-.885C1535.9,2368.876,1535.906,2368.747,1535.9,2368.618Zm-.552.734h-.579v-.688h.579Z" transform="translate(-85.107 -51.73)" fill="#707b9b"/>
    <path id="Path_2215" data-name="Path 2215" d="M1549.177,2368.615a.448.448,0,0,0-.458-.506,6.08,6.08,0,0,0-.772,0,.433.433,0,0,0-.453.481c-.007.248,0,.5,0,.745,0,.378.155.535.531.547.092,0,.184,0,.276,0,.863,0,.88-.016.879-.881C1549.177,2368.873,1549.179,2368.744,1549.177,2368.615Zm-.556.719h-.587v-.671h.587Z" transform="translate(-96.055 -51.722)" fill="#707b9b"/>
    <path id="Path_2216" data-name="Path 2216" d="M1509.769,2368.614a.444.444,0,0,0-.459-.5,6.568,6.568,0,0,0-.772,0,.439.439,0,0,0-.448.485c0,.138,0,.276,0,.414,0,.119,0,.239,0,.359.007.353.147.5.5.511.248.007.5.011.745,0a.412.412,0,0,0,.434-.462C1509.774,2369.148,1509.772,2368.881,1509.769,2368.614Zm-.55.044v.678h-.581v-.678h.581Z" transform="translate(-63.565 -51.724)" fill="#707b9b"/>
    <path id="Path_2217" data-name="Path 2217" d="M1562.048,2368.134a3.3,3.3,0,0,0-.358-.008c-.855,0-.889.032-.891.876,0,.128,0,.257,0,.386,0,.355.142.5.5.515.248.008.5.01.744-.005.313-.019.441-.161.447-.474q.007-.4,0-.8A.435.435,0,0,0,1562.048,2368.134Zm-.1,1.223h-.61v-.671h.61Z" transform="translate(-107.03 -51.745)" fill="#707b9b"/>
    <path id="Path_2218" data-name="Path 2218" d="M1471.388,2316.919c.212,0,.266-.158.264-.345,0-.368,0-.736,0-1.1s0-.755,0-1.132c0-.177-.062-.32-.258-.325-.212,0-.278.144-.278.333q0,1.118,0,2.237C1471.116,2316.769,1471.175,2316.922,1471.388,2316.919Z" transform="translate(-33.078 -7.125)" fill="#707b9b"/>
    <path id="Path_2219" data-name="Path 2219" d="M1573.487,2316.914c.213.005.274-.15.274-.337q0-1.118,0-2.236c0-.187-.063-.342-.276-.334s-.261.165-.259.351c0,.368,0,.736,0,1.1s0,.736,0,1.1C1573.223,2316.753,1573.275,2316.908,1573.487,2316.914Z" transform="translate(-117.277 -7.119)" fill="#707b9b"/>
    <path id="Path_2220" data-name="Path 2220" d="M1564.751,2316.915c.215-.008.259-.167.257-.352,0-.368,0-.737,0-1.1s0-.736,0-1.1c0-.189-.051-.343-.262-.346s-.273.152-.273.339q0,1.119,0,2.237C1564.473,2316.769,1564.535,2316.924,1564.751,2316.915Z" transform="translate(-110.059 -7.12)" fill="#707b9b"/>
    <path id="Path_2221" data-name="Path 2221" d="M1578.936,2316.914c.193-.01.252-.153.251-.331,0-.368,0-.736,0-1.1h0q0-.58,0-1.16c0-.181-.072-.315-.266-.315s-.266.142-.267.317q0,1.132,0,2.264C1578.654,2316.771,1578.721,2316.924,1578.936,2316.914Z" transform="translate(-121.751 -7.117)" fill="#707b9b"/>
    <path id="Path_2222" data-name="Path 2222" d="M1456.888,2315.437q0,.58,0,1.159c0,.181.072.314.266.316s.265-.141.266-.317q0-1.132,0-2.264c0-.189-.071-.339-.282-.33-.193.008-.253.152-.251.331C1456.891,2314.7,1456.888,2315.069,1456.888,2315.437Z" transform="translate(-21.347 -7.116)" fill="#707b9b"/>
    <path id="Path_2223" data-name="Path 2223" d="M1462.672,2316.916c.2-.008.247-.157.247-.332,0-.377,0-.754,0-1.132s0-.754,0-1.131c0-.183-.071-.313-.265-.314s-.264.143-.264.318q0,1.132,0,2.263C1462.39,2316.776,1462.46,2316.924,1462.672,2316.916Z" transform="translate(-25.883 -7.12)" fill="#707b9b"/>
    <path id="Path_2224" data-name="Path 2224" d="M1558.992,2315.458c0,.377,0,.755,0,1.132,0,.179.058.318.256.323s.27-.131.271-.31q0-1.146,0-2.291c0-.178-.073-.317-.271-.31s-.258.144-.256.324C1558.994,2314.7,1558.992,2315.081,1558.992,2315.458Z" transform="translate(-105.539 -7.116)" fill="#707b9b"/>
    <path id="Path_2225" data-name="Path 2225" d="M1476.943,2316.919c.2-.005.252-.15.251-.327,0-.368,0-.736,0-1.1s0-.754,0-1.131c0-.185-.043-.345-.26-.346s-.265.155-.265.342q0,1.117,0,2.234C1476.669,2316.777,1476.728,2316.925,1476.943,2316.919Z" transform="translate(-37.658 -7.124)" fill="#707b9b"/>
    <path id="Path_2226" data-name="Path 2226" d="M1471.188,2338.563q0-1.63,0-3.259a1.131,1.131,0,0,0-1.29-1.282h-23.461a1.114,1.114,0,0,0-1.256,1.232q0,1.658,0,3.315a1.111,1.111,0,0,0,1.235,1.223h23.544A1.109,1.109,0,0,0,1471.188,2338.563Zm-25.118-.778v-.026h24.213c0,.053,0,.106,0,.159a8.206,8.206,0,0,1-.017.854.771.771,0,0,1-.235.144.458.458,0,0,1-.141,0c-.038,0-.076-.006-.113-.006h-23.32c-.361,0-.394-.033-.395-.394C1446.065,2338.274,1446.068,2338.029,1446.07,2337.785Zm.007-2.7c0-.036,0-.146.187-.174a1.419,1.419,0,0,1,.2-.009h23.339c.083,0,.165,0,.247,0,.217.008.245.129.247.219.01.441.008.875.006,1.335q0,.19,0,.382h-24.233v-.367C1446.071,2336.021,1446.07,2335.549,1446.077,2335.088Z" transform="translate(-11.692 -23.624)" fill="#707b9b"/>
    <path id="Path_2227" data-name="Path 2227" d="M1461.032,2311.508a.9.9,0,0,0,.921-.4l.023-.04v-2.137l-.024-.041a.938.938,0,0,0-.948-.407v-.817c0-.194,0-.389,0-.583a1.628,1.628,0,0,0-1.183-1.637.3.3,0,0,1-.051-.026l-.044-.024-.038-.019h-26.4l-.036.017-.058.029a.754.754,0,0,1-.092.043,1.609,1.609,0,0,0-1.13,1.56c-.005.367,0,.735,0,1.112q0,.171,0,.344h-.028a.936.936,0,0,0-.921.409l-.023.041v2.138l.024.041a.938.938,0,0,0,.932.4v.354a.9.9,0,0,0-.942.522l-.014.033v2.729l.018.037a.919.919,0,0,0,.953.505v.011c0,.143,0,.274,0,.4a1.639,1.639,0,0,0,1.752,1.765h1.115a1.963,1.963,0,0,0,1.428,1.491l.028.009h20.424l.03-.011a1.984,1.984,0,0,0,1.386-1.488h1.067a1.655,1.655,0,0,0,1.8-1.8v-.057a2.41,2.41,0,0,1,.008-.294,1.265,1.265,0,0,1,.285-.042.857.857,0,0,0,.652-.482l.027-.043v-2.739l-.014-.033a.879.879,0,0,0-.933-.518v-.358Zm-28.98,3.446h-.526V2312.5h.526Zm0-4.034h-.526v-1.579h.526Zm28.074,5.153c0,.627-.281.908-.911.91l-.329,0c-.317,0-.644.006-.963,0a.535.535,0,0,0-.62.528.977.977,0,0,1-.773.937,1.715,1.715,0,0,1-.421.035h-8.47l-10.718,0h0a1.382,1.382,0,0,1-.844-.21.972.972,0,0,1-.4-.746.559.559,0,0,0-.611-.55h-.05c-.339.015-.686.011-1.022.007l-.294,0a.777.777,0,0,1-.853-.861q0-2.644,0-5.288v-2.445c0-.424,0-.848,0-1.272a.773.773,0,0,1,.858-.851q5.9,0,11.8,0h13.574a3.1,3.1,0,0,1,.425.014.757.757,0,0,1,.624.817q0,1.459,0,2.917Zm1.4-3.574v2.456H1461V2312.5Zm-.526-1.579v-1.579h.526v1.579Z" fill="#707b9b"/>
  </g>
</svg>
