<svg xmlns="http://www.w3.org/2000/svg" xmlns:xlink="http://www.w3.org/1999/xlink" width="25" height="25" viewBox="0 0 25 25">
  <defs>
    <clipPath id="clip-path">
      <rect id="Rectangle_694" data-name="Rectangle 694" width="25" height="25" transform="translate(6146 660)" fill="#707b9b"/>
    </clipPath>
  </defs>
  <g id="Mask_Group_134" data-name="Mask Group 134" transform="translate(-6146 -660)" clip-path="url(#clip-path)">
    <g id="Printing" transform="translate(6146.758 660)">
      <path id="Path_929" data-name="Path 929" d="M21.65,7.813H20.182V3.906a.76.76,0,0,0-.734-.781H17.981V1.172A1.139,1.139,0,0,0,16.88,0H6.605A1.139,1.139,0,0,0,5.5,1.172V3.125H4.036a.76.76,0,0,0-.734.781V7.813H1.835A1.9,1.9,0,0,0,0,9.766v8.594a1.9,1.9,0,0,0,1.835,1.953H5.5v3.516A1.139,1.139,0,0,0,6.605,25H16.88a1.139,1.139,0,0,0,1.1-1.172V20.313h3.67a1.9,1.9,0,0,0,1.835-1.953V9.766A1.9,1.9,0,0,0,21.65,7.813Zm-2.2-3.906V7.813H17.981V3.906ZM6.238,1.172A.38.38,0,0,1,6.605.781H16.88a.38.38,0,0,1,.367.391V7.813H6.238Zm-2.2,2.734H5.5V7.813H4.036Zm13.21,19.922a.38.38,0,0,1-.367.391H6.605a.38.38,0,0,1-.367-.391V17.188H17.247Zm5.5-5.469a1.139,1.139,0,0,1-1.1,1.172h-3.67V17.188h.734a.391.391,0,0,0,0-.781H4.77a.391.391,0,0,0,0,.781H5.5v2.344H1.835a1.139,1.139,0,0,1-1.1-1.172V9.766a1.139,1.139,0,0,1,1.1-1.172H21.65a1.139,1.139,0,0,1,1.1,1.172Z" fill="#707b9b"/>
      <path id="Path_930" data-name="Path 930" d="M27.257,11.625a1.174,1.174,0,1,0,1.1,1.172A1.139,1.139,0,0,0,27.257,11.625Zm0,1.563a.391.391,0,1,1,.367-.391A.38.38,0,0,1,27.257,13.188Z" transform="translate(-6.341 -2.25)" fill="#707b9b"/>
      <path id="Path_931" data-name="Path 931" d="M23.382,11.625a1.174,1.174,0,1,0,1.1,1.172A1.139,1.139,0,0,0,23.382,11.625Zm0,1.563a.391.391,0,1,1,.367-.391A.38.38,0,0,1,23.382,13.188Z" transform="translate(-5.402 -2.25)" fill="#707b9b"/>
      <path id="Path_932" data-name="Path 932" d="M18.245,22.766H10.539a.391.391,0,0,0,0,.781h7.706a.391.391,0,0,0,0-.781Z" transform="translate(-2.466 -4.406)" fill="#707b9b"/>
      <path id="Path_933" data-name="Path 933" d="M18.245,25.188H10.539a.391.391,0,0,0,0,.781h7.706a.391.391,0,0,0,0-.781Z" transform="translate(-2.466 -4.875)" fill="#707b9b"/>
      <path id="Path_934" data-name="Path 934" d="M18.245,27.609H10.539a.391.391,0,0,0,0,.781h7.706a.391.391,0,0,0,0-.781Z" transform="translate(-2.466 -5.344)" fill="#707b9b"/>
    </g>
  </g>
</svg>
