<svg xmlns="http://www.w3.org/2000/svg" width="25" height="17.217" viewBox="0 0 25 17.217">
  <g id="Group_649" data-name="Group 649" transform="translate(-1743.412 -196.893)">
    <path id="Path_1731" data-name="Path 1731" d="M1743.412,198.189c.023-.059.049-.117.069-.177a1.55,1.55,0,0,1,1.419-1.085c.081,0,.163,0,.244,0H1764.7a1.35,1.35,0,0,1,.268.01.345.345,0,0,1,.31.377.341.341,0,0,1-.345.342c-.081.006-.163,0-.244,0q-9.765,0-19.53,0a1.429,1.429,0,0,0-.589.109.754.754,0,0,0-.423.74q0,7.007,0,14.015a.817.817,0,0,0,.918.848q3.345,0,6.689,0h.488a.879.879,0,0,0,.656-.272c.309-.313.622-.621.932-.933a1.165,1.165,0,0,1,.875-.362c.513.006,1.025,0,1.538,0,.291,0,.42.122.426.413.008.373,0,.746,0,1.127.6,0,1.175.016,1.748-.011a.944.944,0,0,0,.448-.226q1.11-.818,2.207-1.653a2.085,2.085,0,0,1,1.314-.438c1.441.007,2.881,0,4.321,0,.667,0,.97-.3.97-.968q0-5.713,0-11.427c0-.668-.3-.971-.966-.973-.081,0-.163,0-.244,0a.34.34,0,0,1-.349-.337.344.344,0,0,1,.3-.383,1.614,1.614,0,0,1,1.987,1.571q.006,5.836,0,11.671a1.539,1.539,0,0,1-1.6,1.579q-2.185.01-4.37,0a1.511,1.511,0,0,0-.971.322c-.71.545-1.434,1.07-2.143,1.616a1.885,1.885,0,0,1-1.243.417c-.439-.012-.879,0-1.318,0a.768.768,0,0,1-.828-.82c0-.235,0-.47,0-.733-.47,0-.921-.009-1.371.008-.089,0-.184.1-.258.169-.3.295-.6.6-.9.9a1.576,1.576,0,0,1-1.162.481q-3.625,0-7.251,0a1.536,1.536,0,0,1-1.536-1.158.794.794,0,0,0-.049-.106Z" transform="translate(0 0)" fill="#707b9b"/>
    <path id="Path_1732" data-name="Path 1732" d="M1759.887,212.257a34.664,34.664,0,0,1-.6,6.552,1.8,1.8,0,0,1-.043.19.362.362,0,0,1-.707-.157c.072-.449.16-.9.229-1.346a34.847,34.847,0,0,0,.359-6.644,31.88,31.88,0,0,0-.56-5.014c-.071-.361.026-.556.275-.6.233-.039.382.119.448.465A34.708,34.708,0,0,1,1759.887,212.257Z" transform="translate(-12.223 -6.742)" fill="#707b9b"/>
    <path id="Path_1733" data-name="Path 1733" d="M1779.244,213.7a1.222,1.222,0,0,1,.988-.275,1.118,1.118,0,0,1,.939,1.089c.015.65.009,1.3,0,1.952,0,.259-.138.4-.359.4a.357.357,0,0,1-.368-.4c-.008-.569,0-1.139,0-1.709a2,2,0,0,0-.009-.268.407.407,0,0,0-.8-.057,1.006,1.006,0,0,0-.028.265c0,.57,0,1.139,0,1.709,0,.3-.121.452-.354.457s-.376-.158-.377-.464c0-.586,0-1.172,0-1.757,0-.315-.152-.5-.4-.511s-.429.19-.431.511c0,.594,0,1.188,0,1.782,0,.289-.137.445-.371.44s-.358-.161-.359-.433c0-.871-.006-1.741,0-2.612,0-.344.243-.49.562-.364a.249.249,0,0,0,.155.026A1.177,1.177,0,0,1,1779.244,213.7Z" transform="translate(-27.398 -13.346)" fill="#707b9b"/>
    <path id="Path_1734" data-name="Path 1734" d="M1796.458,242.241c0-.61,0-1.22,0-1.83,0-.365.118-.468.486-.482a2.277,2.277,0,0,1,2.539,2.816,2.089,2.089,0,0,1-1.592,1.755,4.322,4.322,0,0,1-1.089.067c-.233,0-.341-.167-.343-.447C1796.456,243.494,1796.458,242.867,1796.458,242.241Zm.732,1.589c.08.008.12.015.16.015a1.511,1.511,0,0,0,1.453-1.668,1.49,1.49,0,0,0-1.382-1.517c-.182-.006-.237.049-.235.232.008.893,0,1.786,0,2.679Z" transform="translate(-42.873 -34.779)" fill="#707b9b"/>
    <path id="Path_1735" data-name="Path 1735" d="M1777.571,239.953a1.671,1.671,0,0,1,1.275.511.968.968,0,0,1,.272.734.334.334,0,0,1-.325.335.338.338,0,0,1-.374-.248.924.924,0,0,0-1.4-.451.414.414,0,0,0-.04.74,4.525,4.525,0,0,0,.719.351c.236.107.487.186.713.31a1.2,1.2,0,0,1-.261,2.276,1.808,1.808,0,0,1-1.547-.191,1.132,1.132,0,0,1-.55-.824.391.391,0,0,1,.3-.481c.2-.036.363.1.418.343a.6.6,0,0,0,.625.478,1.736,1.736,0,0,0,.767-.144.4.4,0,0,0,.047-.7,3.32,3.32,0,0,0-.624-.323c-.236-.107-.487-.183-.719-.3a1.276,1.276,0,0,1-.816-1.314,1.347,1.347,0,0,1,1.179-1.074C1777.361,239.962,1777.492,239.96,1777.571,239.953Z" transform="translate(-26.372 -34.802)" fill="#707b9b"/>
    <path id="Path_1736" data-name="Path 1736" d="M1840.631,215.138a1.542,1.542,0,1,1,3.071-.286,3.224,3.224,0,0,1-.008.681,1.537,1.537,0,0,1-3.062-.2C1840.63,215.268,1840.631,215.2,1840.631,215.138Zm.734.011c0,.081,0,.163,0,.244a.806.806,0,0,0,.6.745.78.78,0,0,0,.9-.38,1.32,1.32,0,0,0,0-1.2.77.77,0,0,0-.9-.373C1841.553,214.293,1841.364,214.6,1841.365,215.149Z" transform="translate(-78.575 -13.364)" fill="#707b9b"/>
    <path id="Path_1737" data-name="Path 1737" d="M1808.13,215.135a1.555,1.555,0,0,1,1.372-1.716,1.46,1.46,0,0,1,1.154.351.372.372,0,0,1,.093.518.363.363,0,0,1-.538.058.809.809,0,0,0-.952-.091,1.143,1.143,0,0,0-.347,1.339.746.746,0,0,0,.85.534,1.17,1.17,0,0,0,.418-.175c.236-.144.425-.142.562.033a.386.386,0,0,1-.134.566,1.47,1.47,0,0,1-1.563.187,1.5,1.5,0,0,1-.915-1.36C1808.125,215.3,1808.13,215.216,1808.13,215.135Z" transform="translate(-52.305 -13.346)" fill="#707b9b"/>
    <path id="Path_1738" data-name="Path 1738" d="M1825.808,213.626a1.53,1.53,0,0,1,1.707.065c.267.183.327.4.184.592s-.343.192-.6.014a.8.8,0,0,0-1.281.665c0,.488.012.976-.008,1.462a.57.57,0,0,1-.169.375.339.339,0,0,1-.548-.268q-.018-1.389,0-2.779a.407.407,0,0,1,.217-.306c.111-.038.264.035.4.074C1825.751,213.531,1825.776,213.588,1825.808,213.626Z" transform="translate(-66.012 -13.339)" fill="#707b9b"/>
    <path id="Path_1739" data-name="Path 1739" d="M1848.923,241.86c-.425-.424-.828-.823-1.225-1.228-.072-.073-.175-.174-.168-.253a.62.62,0,0,1,.163-.391.326.326,0,0,1,.459.066l1.086,1.085c.144.144.291.284.429.432a.355.355,0,0,1,.01.558q-.759.774-1.534,1.533a.355.355,0,0,1-.523.02.363.363,0,0,1,.016-.541C1848.051,242.719,1848.475,242.3,1848.923,241.86Z" transform="translate(-84.131 -34.775)" fill="#707b9b"/>
    <path id="Path_1740" data-name="Path 1740" d="M1801.93,215.124c0,.431,0,.863,0,1.294,0,.289-.134.45-.363.452s-.367-.158-.368-.445q0-1.282,0-2.563c0-.286.137-.455.361-.458s.368.169.37.45C1801.933,214.277,1801.93,214.7,1801.93,215.124Z" transform="translate(-46.704 -13.345)" fill="#707b9b"/>
  </g>
</svg>
