<svg xmlns="http://www.w3.org/2000/svg" width="23.904" height="23.904" viewBox="0 0 23.904 23.904">
  <path id="Path_2003" data-name="Path 2003" d="M2062.84,915.7h0a11.952,11.952,0,0,0-11.952,11.952h0a11.952,11.952,0,0,0,11.952,11.952h0a11.952,11.952,0,0,0,11.952-11.952h0A11.952,11.952,0,0,0,2062.84,915.7Zm-.377,18.315q-2.941,0-5.883,0c-.063,0-.084-.011-.084-.081q0-2.948,0-5.9c0-.063.018-.078.079-.078q2.945,0,5.891,0c.073,0,.083.026.083.089q0,1.474,0,2.949t0,2.934C2062.55,934,2062.531,934.019,2062.463,934.019Zm0-6.584q-2.938,0-5.875,0c-.067,0-.088-.015-.088-.085q0-2.942,0-5.883c0-.071.022-.085.088-.085q2.938,0,5.875,0c.072,0,.091.018.091.09q0,1.471,0,2.942c0,.978,0,1.956,0,2.934C2062.55,927.42,2062.529,927.435,2062.458,927.435Zm6.675,6.5c0,.065-.011.088-.083.088q-2.945,0-5.891,0c-.065,0-.083-.015-.083-.082q0-2.946,0-5.891c0-.072.023-.084.089-.084q1.471,0,2.942,0t2.942,0c.069,0,.086.019.086.086Q2069.131,930.99,2069.134,933.931Zm0-6.584c0,.066-.014.088-.085.087q-2.946,0-5.891,0c-.066,0-.082-.016-.082-.082q0-2.946,0-5.891c0-.071.023-.081.085-.081q1.471,0,2.942,0c.98,0,1.961,0,2.942,0,.073,0,.089.021.089.091Q2069.131,924.41,2069.134,927.347Z" transform="translate(-2050.888 -915.703)" fill="#929ab3"/>
</svg>
