<svg id="Group_738" data-name="Group 738" xmlns="http://www.w3.org/2000/svg" width="24.738" height="24.739" viewBox="0 0 24.738 24.739">
  <path id="Path_1989" data-name="Path 1989" d="M-150.108,550.939a12.37,12.37,0,0,0-12.37,12.37,12.369,12.369,0,0,0,12.37,12.37,12.37,12.37,0,0,0,12.37-12.37A12.37,12.37,0,0,0-150.108,550.939Zm10.6,10.773c-.457,0-.914-.012-1.37,0a1.009,1.009,0,0,0-1.094.854c-.306,1.048-.612,2.1-.9,3.148a.354.354,0,0,1-.4.309c-.336-.01-.672,0-1.008,0-.219,0-.289-.073-.222-.3.281-.947.548-1.9.82-2.849.012-.04.018-.082.039-.181a4.787,4.787,0,0,1-3.157,1.139c-.589.079-1.178.156-1.768.22-.2.022-.24.109-.193.287a.751.751,0,0,0,.681.579,12.846,12.846,0,0,0,2.4.026c.267-.01.534-.022.8-.034.145-.006.221.039.15.2a.132.132,0,0,0-.007.025c-.206.764-.278.835-1.071.863a20.446,20.446,0,0,1-2.274.017,2.542,2.542,0,0,1-1.931-.8c-.069.012-.053.055-.058.084-.093.481-.2.593-.686.655a12.621,12.621,0,0,1-2.064.082,4.035,4.035,0,0,1-1.144-.183,1.613,1.613,0,0,1-1.22-1.52c-.1.309-.218.615-.3.93a.674.674,0,0,1-.6.56,13.2,13.2,0,0,1-4.217.073,1.954,1.954,0,0,1-.742-.286.946.946,0,0,1-.4-1.149,1.625,1.625,0,0,1,.8-1,5.681,5.681,0,0,1,2.118-.611c.707-.1,1.413-.213,2.12-.313a.375.375,0,0,0,.362-.309.426.426,0,0,0-.185-.474,1.374,1.374,0,0,0-.712-.2,18.994,18.994,0,0,0-2.785.134c-.335.03-.332.022-.267-.3a.846.846,0,0,1,.9-.741,12.246,12.246,0,0,1,3.448.083,1.256,1.256,0,0,1,1.082.943,4.085,4.085,0,0,1,.04.533,3.967,3.967,0,0,1,3.376-1.627,7.963,7.963,0,0,1,1.084.036.544.544,0,0,1,.58.535c.011.068.014.137.02.206.029.341.005.352-.325.326a6.95,6.95,0,0,0-2.059.038,2.146,2.146,0,0,0-1.7,1.831,2.774,2.774,0,0,0-.06.408c-.035.59.156.838.738.951a8.427,8.427,0,0,0,1.959.034c.231-.009.463-.033.694-.05a3.651,3.651,0,0,1,3.463-4.275,7.907,7.907,0,0,1,2.288.1c.076.016.151.035.225.059a1.1,1.1,0,0,1,.929,1.082,2.678,2.678,0,0,1,1.57-1.1,7.312,7.312,0,0,1,2.643-.127c.327.032.429.236.315.55C-139,561.812-138.926,561.709-139.5,561.712Z" transform="translate(162.478 -550.939)" fill="#929ab3"/>
  <path id="Path_1990" data-name="Path 1990" d="M-98.168,597.49a4.422,4.422,0,0,0-1.3-.057,1.738,1.738,0,0,0-1.789,1.416c-.053.179,0,.2.156.174.577-.086,1.155-.16,1.732-.249a3.716,3.716,0,0,0,1.271-.346.622.622,0,0,0,.382-.53C-97.727,597.62-97.95,597.544-98.168,597.49Z" transform="translate(115.307 -586.79)" fill="#929ab3"/>
  <path id="Path_1991" data-name="Path 1991" d="M-148.125,605.849c-.684.1-1.37.189-2.055.281a1.762,1.762,0,0,0-.786.219.588.588,0,0,0-.313.582c.035.247.251.316.453.372a4.248,4.248,0,0,0,1.238.1,9.573,9.573,0,0,0,1.052-.047.229.229,0,0,0,.242-.195c.1-.368.214-.735.345-1.094C-147.873,605.859-147.929,605.821-148.125,605.849Z" transform="translate(153.758 -593.293)" fill="#929ab3"/>
</svg>
