<svg xmlns="http://www.w3.org/2000/svg" width="26.291" height="18.389" viewBox="0 0 26.291 18.389">
  <g id="Group_708" data-name="Group 708" transform="translate(-513.21 -716)">
    <path id="Path_1909" data-name="Path 1909" d="M539.5,717.625l-6-1.625-20.293,1,.051.021a.173.173,0,0,0-.051.142c-.006.162.11.16.209.189.3.086.24.033.25.314,0,.032,0,.065,0,.1a3.8,3.8,0,0,0,.027.547c.032.172.122.331.169.5q.814,2.942,1.623,5.885.988,3.581,1.975,7.162c.012.044.016.091.026.152a.717.717,0,0,1-.107-.037q-1.3-.723-2.6-1.447a.27.27,0,0,0-.133-.041c-.221.011-.441.03-.661.044-.087.005-.121.044-.119.133,0,.221.005.442,0,.663a.225.225,0,0,0,.117.227c.039.022.089.082.082.115-.033.183.086.207.215.232a1.061,1.061,0,0,1,.339.075q1.745,1.033,3.479,2.083c.049.03.116.068.128.114.035.141.14.165.253.188a1.323,1.323,0,0,0,1.007-.219c-.011-.043-.024-.1-.04-.156q-.579-2.051-1.159-4.1c-.495-1.751-.971-3.508-1.5-5.249a1.244,1.244,0,0,1,.153-1.212.3.3,0,0,1,.254-.152c1.022-.052,2.043-.112,3.065-.17l4.984-.281q1.573-.089,3.145-.182,2.46-.145,4.919-.29a.362.362,0,0,1,.175.061,1.951,1.951,0,0,1,.734.956c.112.226.187.47.278.706l2.362,6.1c.028.072.05.147.083.243a1.4,1.4,0,0,1-.138-.03c-1.178-.414-2.361-.816-3.531-1.251a2.274,2.274,0,0,0-1.167-.133c-.106.016-.136.058-.134.155a3.35,3.35,0,0,1,0,.436c-.02.189.02.325.226.369.009,0,.016.013.034.029-.079.167.023.225.166.243.117.015.236.01.353.02a1.379,1.379,0,0,1,.329.044c.351.122.7.256,1.045.387q1.745.659,3.489,1.321c.059.023.144.046.165.092.071.157.205.158.339.167a1.2,1.2,0,0,0,.892-.223L533.508,718.1c.558,0,1.07-.035,1.576.009.6.053,1.193.176,1.789.267.345.052.689.1,1.055.156-.1.135-.012.152.073.158q.652.045,1.3.081a.13.13,0,0,0,.061-.02.862.862,0,0,1-.016-.189c.042-.266.092-.53.138-.8C539.5,717.723,539.5,717.674,539.5,717.625ZM515.7,719.5c.215-.031.265-.191.3-.364a.589.589,0,0,1,.04-.138c.011-.023.055-.053.064-.048.026.016.059.048.06.075C516.182,719.324,516.023,719.489,515.7,719.5Zm.52-.39c.016-.041.06-.071.092-.105a.423.423,0,0,1,.018.135.791.791,0,0,1-.079.242,1.273,1.273,0,0,1-.188.2C516.13,719.391,516.172,719.25,516.224,719.114Zm-.291.538a.475.475,0,0,0,.46-.448.176.176,0,0,1,.032-.09.385.385,0,0,1,.091-.061c.013.035.041.073.035.1-.074.379-.192.469-.664.507A.354.354,0,0,1,515.933,719.652Zm-1.027-2.292h0l18.008-.762,2.83.759-18.112.637-.775-.178Zm.432,2.03c-.071-.213-.133-.428-.21-.685l.846.2c-.011.07-.016.112-.025.154a.431.431,0,0,1-.518.411A.137.137,0,0,1,515.338,719.39Zm17.794,1.451a2.591,2.591,0,0,1-.187.464.236.236,0,0,1-.161.116c-1.387.082-2.775.157-4.162.233q-2.9.158-5.792.315c-1.371.072-2.743.136-4.115.2-.538.027-1.076.054-1.613.086a.323.323,0,0,1-.259-.088c-.282-.25-.577-.485-.864-.729a.35.35,0,0,1-.115-.149c-.135-.465-.263-.933-.392-1.4a.26.26,0,0,1,0-.057c.236-.047.461-.106.689-.134a.447.447,0,0,0,.405-.353c.085-.265.094-.263.361-.193.495.13.984.3,1.486.379a4.687,4.687,0,0,0,1.027-.02c.033,0,.084-.1.087-.157.011-.208,0-.417,0-.643.118-.008.235-.017.352-.022l5.037-.209,6.232-.26c.307-.013.614-.026.92-.047a.171.171,0,0,1,.205.126c.284.745.579,1.485.86,2.231A.523.523,0,0,1,533.132,720.841Z" fill="#707b9b"/>
  </g>
</svg>
