<svg xmlns="http://www.w3.org/2000/svg" width="24.738" height="24.739" viewBox="0 0 24.738 24.739">
  <path id="Path_2014" data-name="Path 2014" d="M2060.073,1172.407a12.364,12.364,0,1,0-11.976,12.7A12.365,12.365,0,0,0,2060.073,1172.407Zm-18.035-2.473c0-.617,0-1.233,0-1.85a.577.577,0,0,1,.655-.653c1.214,0,2.429,0,3.643,0,.43,0,.68.194.682.631.008,1.252,0,2.5,0,3.755a.571.571,0,0,1-.631.628q-1.85.016-3.7,0a.584.584,0,0,1-.654-.661c0-.308,0-.616,0-.925S2042.038,1170.242,2042.038,1169.933Zm4.98,7.946a.572.572,0,0,1-.644.615q-1.849.013-3.7,0a.583.583,0,0,1-.641-.672c.008-1.233,0-2.466,0-3.7,0-.449.239-.638.667-.636.616,0,1.233,0,1.849,0,.6,0,1.2.006,1.793,0a.579.579,0,0,1,.671.639C2047.026,1175.376,2047.023,1176.628,2047.018,1177.879Zm6.119-.085a.622.622,0,0,1-.688.7q-1.823.01-3.646,0a.614.614,0,0,1-.686-.7q.006-1.795,0-3.59c0-.483.214-.725.71-.723q1.8.009,3.59,0a.63.63,0,0,1,.72.719q0,.9,0,1.795T2053.137,1177.794Zm-.062-7.165c-.68.693-1.371,1.376-2.056,2.064a.573.573,0,0,1-.921.019c-.7-.7-1.4-1.4-2.1-2.1a.576.576,0,0,1-.018-.923q1.044-1.056,2.1-2.1a.575.575,0,0,1,.923-.012c.71.716,1.428,1.424,2.133,2.145a2.34,2.34,0,0,1,.27.439A3.428,3.428,0,0,1,2053.075,1170.63Z" transform="translate(-2035.344 -1160.383)" fill="#929ab3"/>
</svg>
