<svg xmlns="http://www.w3.org/2000/svg" width="28.029" height="28.035" viewBox="0 0 28.029 28.035">
  <path id="Path_1977" data-name="Path 1977" d="M2032.8,706.222a10.091,10.091,0,0,0,2.6-3.08,10.691,10.691,0,0,0,1.346-5.223c0-.913,0-1.826,0-2.758-.1-.006-.187-.014-.271-.015-.536,0-.66-.132-.661-.679q0-.554,0-1.109a.261.261,0,0,0-.02-.064,1.417,1.417,0,0,1-1.349-1.155,1.6,1.6,0,0,1-.026-.348q0-1.956,0-3.911c0-.536.131-.67.669-.676h.267c0-.619,0-1.219,0-1.818,0-.965.018-.983.971-.984q1.094,0,2.189,0c.417,0,.576.164.576.588,0,.727,0,1.455,0,2.215.161,0,.294,0,.427,0a.465.465,0,0,1,.5.513c.005,1.4.012,2.8,0,4.2-.006.734-.519,1.229-1.4,1.378,0,.392,0,.789,0,1.187,0,.519-.139.657-.655.658h-.28c0,.911-.005,1.794,0,2.677a11.677,11.677,0,0,1-22.722,3.914,12.045,12.045,0,0,1-.633-3.924q.005-2.613,0-5.225v-.242c-.136,0-.257,0-.379,0-.38-.006-.553-.176-.556-.554,0-.427,0-.854,0-1.287-.137-.031-.259-.053-.377-.086a1.36,1.36,0,0,1-1.017-1.278c-.012-1.411-.008-2.822,0-4.233a.464.464,0,0,1,.513-.5c.125,0,.251,0,.42,0v-.293c0-.652,0-1.3,0-1.956,0-.378.172-.55.555-.553q1.314-.008,2.627,0a.485.485,0,0,1,.556.552c0,.738,0,1.475,0,2.25.162,0,.3-.006.446,0a.457.457,0,0,1,.482.478c.007,1.43.02,2.861,0,4.291-.012.715-.554,1.2-1.391,1.319,0,.391,0,.787,0,1.184,0,.536-.133.663-.676.669-.076,0-.151.006-.259.011v.589c0,1.713-.031,3.426.007,5.137a10.612,10.612,0,0,0,3.774,8.039.529.529,0,0,0,.177.1,8.454,8.454,0,0,1-1.522-6.291,8.2,8.2,0,0,1,3.364-5.531,8.393,8.393,0,0,1,10.31.331,8.215,8.215,0,0,1,2.975,5.476A8.5,8.5,0,0,1,2032.8,706.222Zm-1.188-3.124a5.6,5.6,0,1,0-5.615,5.59A5.6,5.6,0,0,0,2031.616,703.1Zm-11.739,2.3a6.585,6.585,0,0,1-.1-4.261,6.518,6.518,0,0,1,9.6-3.625c2.951,1.844,3.718,4.594,2.812,7.868a7.453,7.453,0,1,0-12.307.018Zm15.49-17.246c0,.079-.01.135-.01.191,0,1.138,0,2.276,0,3.413,0,.434.162.587.607.588q1.255,0,2.509,0c.457,0,.614-.152.615-.609q0-1.692,0-3.384a1.659,1.659,0,0,0-.024-.2Zm-22.431-2.8c0,1.223,0,2.417,0,3.611,0,.413.166.579.586.581.845,0,1.69,0,2.535,0,.452,0,.614-.159.614-.611q0-1.7,0-3.41a1.676,1.676,0,0,0-.018-.173Zm25.207,0h-1.837v1.834h1.837Zm-22.418-2.795h-1.831v1.829h1.831Zm21.051,10.734v.9h.9v-.9Zm-22.427-1.9h.9v-.9h-.9Z" transform="translate(-2012 -681.598)" fill="#707b9b"/>
</svg>
