<svg xmlns="http://www.w3.org/2000/svg" width="23.25" height="23.467" viewBox="0 0 23.25 23.467">
  <g id="Group_647" data-name="Group 647" transform="translate(-1382.132 -185)">
    <path id="Path_1698" data-name="Path 1698" d="M1382.132,201.294v-2.859a2.085,2.085,0,0,1,.771-1.277,5.338,5.338,0,0,1-.487-.63,5.108,5.108,0,0,1-.284-.726V191.49a.856.856,0,0,0,.05-.121c.425-1.71.861-3.416,1.265-5.131a1.468,1.468,0,0,1,1-1.239h18.613a1.438,1.438,0,0,1,.99,1.2c.332,1.441.7,2.874,1.054,4.311a5.961,5.961,0,0,1,.259,1.214c.034,1.269.014,2.54.011,3.811a1.9,1.9,0,0,1-.563,1.368c-.074.076-.137.164-.208.25a2.038,2.038,0,0,1,.776,1.751c-.016.673,0,1.346,0,2.019a2.582,2.582,0,0,1-.027.383,1.916,1.916,0,0,1-.758,1.3,2.11,2.11,0,0,1,.791,1.883c-.022.634.017,1.271-.013,1.9a2.63,2.63,0,0,1-.2.963,1.856,1.856,0,0,1-1.805,1.1c-1.346.007-2.692,0-4.039,0q-7.556,0-15.111,0a2.059,2.059,0,0,1-1.472-.538,2.144,2.144,0,0,1-.606-1.188v-2.859a2.1,2.1,0,0,1,.771-1.255,2.172,2.172,0,0,1-.358-.4C1382.387,201.929,1382.267,201.607,1382.132,201.294Zm22.344-10.061c-.012-.076-.017-.12-.027-.162q-.6-2.441-1.209-4.881c-.082-.332-.192-.416-.544-.416h-17.883c-.36,0-.461.082-.549.438l-1.049,4.244c-.062.253-.127.506-.195.777Zm-21.571.8v.229q0,1.577,0,3.154a1.18,1.18,0,0,0,1.294,1.3h19.107a1.18,1.18,0,0,0,1.295-1.3q0-1.577,0-3.154v-.23Zm10.848,10.191c3.163,0,6.325-.016,9.488.01a1.275,1.275,0,0,0,1.364-1.383c-.015-.643,0-1.286,0-1.929a1.21,1.21,0,0,0-1.384-1.392h-18.929c-.083,0-.167,0-.25,0a1.144,1.144,0,0,0-1.125,1.117c-.022.8-.019,1.6,0,2.405a1.177,1.177,0,0,0,.859,1.122,2.189,2.189,0,0,0,.517.044Q1389.021,202.223,1393.754,202.221Zm0,.777h-9.417c-.1,0-.2,0-.295.006a1.148,1.148,0,0,0-1.13,1.18c-.01.764-.012,1.528,0,2.291a1.158,1.158,0,0,0,1.238,1.215q9.61,0,19.22,0a1.153,1.153,0,0,0,1.23-1.2c.016-.779.014-1.558,0-2.337a1.081,1.081,0,0,0-.7-1.049,1.808,1.808,0,0,0-.664-.1Q1398.493,202.993,1393.75,203Z" transform="translate(0)" fill="#707b9b"/>
    <path id="Path_1699" data-name="Path 1699" d="M1400.663,192.943h-7.171c-.389,0-.58-.128-.579-.386s.2-.388.583-.388q7.171,0,14.342,0a1.028,1.028,0,0,1,.312.037.342.342,0,0,1,.244.387.349.349,0,0,1-.312.338,1.494,1.494,0,0,1-.271.01Z" transform="translate(-8.456 -5.623)" fill="#707b9b"/>
    <path id="Path_1700" data-name="Path 1700" d="M1469.528,192.931c-.249,0-.5.006-.746,0a.382.382,0,1,1-.014-.764q.768-.018,1.537,0a.387.387,0,0,1,.392.388.391.391,0,0,1-.423.378C1470.026,192.936,1469.777,192.932,1469.528,192.931Z" transform="translate(-67.649 -5.612)" fill="#707b9b"/>
    <path id="Path_1701" data-name="Path 1701" d="M1392.406,222.911a1.546,1.546,0,1,1-1.531-1.549A1.553,1.553,0,0,1,1392.406,222.911Zm-1.554-.774a.775.775,0,0,0-.765.768.79.79,0,0,0,.786.776.774.774,0,0,0,.758-.8A.76.76,0,0,0,1390.852,222.137Z" transform="translate(-5.632 -28.519)" fill="#707b9b"/>
    <path id="Path_1702" data-name="Path 1702" d="M1410.019,227.479h-2.13a1.253,1.253,0,0,1-.27-.016.376.376,0,0,1-.047-.719.993.993,0,0,1,.312-.038q2.141,0,4.282,0c.381,0,.577.138.57.4s-.188.375-.564.375Z" transform="translate(-19.76 -32.709)" fill="#707b9b"/>
    <path id="Path_1703" data-name="Path 1703" d="M1461.219,225h.743v1.526h-.743Z" transform="translate(-62.029 -31.373)" fill="#707b9b"/>
    <path id="Path_1704" data-name="Path 1704" d="M1440.407,224.992v1.522h-.752v-1.522Z" transform="translate(-45.116 -31.366)" fill="#707b9b"/>
    <path id="Path_1705" data-name="Path 1705" d="M1446.827,224.99h.748v1.523h-.748Z" transform="translate(-50.741 -31.365)" fill="#707b9b"/>
    <path id="Path_1706" data-name="Path 1706" d="M1454.021,225h.744v1.521h-.744Z" transform="translate(-56.383 -31.37)" fill="#707b9b"/>
    <path id="Path_1707" data-name="Path 1707" d="M1469.164,226.528h-.741V225h.741Z" transform="translate(-67.679 -31.376)" fill="#707b9b"/>
    <path id="Path_1708" data-name="Path 1708" d="M1476.371,226.547h-.741v-1.525h.741Z" transform="translate(-73.331 -31.39)" fill="#707b9b"/>
    <path id="Path_1709" data-name="Path 1709" d="M1390.861,249.771a1.546,1.546,0,1,1,1.545-1.536A1.555,1.555,0,0,1,1390.861,249.771Zm.77-1.538a.775.775,0,0,0-.775-.78.791.791,0,0,0-.769.771.775.775,0,0,0,.782.774A.761.761,0,0,0,1391.631,248.233Z" transform="translate(-5.631 -48.375)" fill="#707b9b"/>
    <path id="Path_1710" data-name="Path 1710" d="M1410.016,252.083h2.153a1.442,1.442,0,0,1,.248.012.356.356,0,0,1,.311.341.344.344,0,0,1-.251.384,1.055,1.055,0,0,1-.312.037q-2.142,0-4.283,0a1.151,1.151,0,0,1-.247-.019.378.378,0,0,1,.047-.75c.09-.009.181-.006.271-.006Z" transform="translate(-19.759 -52.614)" fill="#707b9b"/>
    <path id="Path_1711" data-name="Path 1711" d="M1461.224,251.827V250.3h.746v1.526Z" transform="translate(-62.033 -51.216)" fill="#707b9b"/>
    <path id="Path_1712" data-name="Path 1712" d="M1440.406,251.848h-.738v-1.524h.738Z" transform="translate(-45.126 -51.234)" fill="#707b9b"/>
    <path id="Path_1713" data-name="Path 1713" d="M1447.592,250.325v1.516h-.748v-1.516Z" transform="translate(-50.754 -51.235)" fill="#707b9b"/>
    <path id="Path_1714" data-name="Path 1714" d="M1454.781,250.331v1.514h-.746v-1.514Z" transform="translate(-56.394 -51.24)" fill="#707b9b"/>
    <path id="Path_1715" data-name="Path 1715" d="M1469.176,251.85h-.744v-1.522h.744Z" transform="translate(-67.686 -51.238)" fill="#707b9b"/>
    <path id="Path_1716" data-name="Path 1716" d="M1476.362,251.85h-.746v-1.523h.746Z" transform="translate(-73.321 -51.237)" fill="#707b9b"/>
    <path id="Path_1717" data-name="Path 1717" d="M1392.405,273.61a1.619,1.619,0,0,1-1.556,1.591,1.646,1.646,0,0,1-1.537-1.594,1.547,1.547,0,1,1,3.093,0Zm-.775,0a.759.759,0,0,0-.749-.777.775.775,0,0,0-.8.76.792.792,0,0,0,.779.784A.774.774,0,0,0,1391.63,273.612Z" transform="translate(-5.631 -68.283)" fill="#707b9b"/>
    <path id="Path_1718" data-name="Path 1718" d="M1410.017,278.173h-2.13a1.34,1.34,0,0,1-.249-.012.349.349,0,0,1-.309-.339.342.342,0,0,1,.246-.385,1.049,1.049,0,0,1,.312-.037q2.142,0,4.283,0c.053,0,.106,0,.158,0a.4.4,0,0,1,.407.4.388.388,0,0,1-.431.37C1411.542,278.175,1410.78,278.172,1410.017,278.173Z" transform="translate(-19.761 -72.468)" fill="#707b9b"/>
    <path id="Path_1719" data-name="Path 1719" d="M1461.99,275.686v1.525h-.745v-1.525Z" transform="translate(-62.049 -71.126)" fill="#707b9b"/>
    <path id="Path_1720" data-name="Path 1720" d="M1440.421,277.236h-.744v-1.521h.744Z" transform="translate(-45.133 -71.149)" fill="#707b9b"/>
    <path id="Path_1721" data-name="Path 1721" d="M1447.586,275.7v1.521h-.752V275.7Z" transform="translate(-50.746 -71.134)" fill="#707b9b"/>
    <path id="Path_1722" data-name="Path 1722" d="M1454.785,277.249h-.742v-1.524h.742Z" transform="translate(-56.401 -71.157)" fill="#707b9b"/>
    <path id="Path_1723" data-name="Path 1723" d="M1468.414,275.7h.745v1.521h-.745Z" transform="translate(-67.672 -71.134)" fill="#707b9b"/>
    <path id="Path_1724" data-name="Path 1724" d="M1475.592,277.222V275.7h.753v1.517Z" transform="translate(-73.302 -71.141)" fill="#707b9b"/>
  </g>
</svg>
