<svg xmlns="http://www.w3.org/2000/svg" width="25.261" height="25.262" viewBox="0 0 25.261 25.262">
  <g id="Group_742" data-name="Group 742" transform="translate(-2072.938 -1390.714)">
    <path id="Path_2022" data-name="Path 2022" d="M2085.568,1390.714a12.631,12.631,0,1,0,12.63,12.63A12.631,12.631,0,0,0,2085.568,1390.714Zm-3.377,15.908h-1.676v-5.045a1.06,1.06,0,0,0-1.179.768c-.6,1.3-1.211,2.6-1.793,3.911a.551.551,0,0,1-.623.409c-.41-.032-.825-.008-1.282-.008a2.689,2.689,0,0,1,.1-.333c.7-1.528,1.434-3.043,2.1-4.585a2.511,2.511,0,0,1,2.708-1.7c.524.038,1.054.007,1.64.007Zm6.773-2.325c-.015,1.476-.593,2.191-2.047,2.335a10.163,10.163,0,0,1-2.363-.081,1.728,1.728,0,0,1-1.61-1.677,18.938,18.938,0,0,1,.005-3.066c.091-1.033.713-1.6,1.91-1.724a10.175,10.175,0,0,1,2.557.084,1.772,1.772,0,0,1,1.533,1.851c.019.445,0,.892,0,1.337h.011C2088.964,1403.67,2088.967,1403.984,2088.963,1404.3Zm4.322,2.372a14.055,14.055,0,0,1-2.071-.1,1.515,1.515,0,0,1-1.434-1.468,20.4,20.4,0,0,1-.037-3.114,1.721,1.721,0,0,1,1.771-1.882,10.846,10.846,0,0,1,2.518-.015c.917.094,1.255.529,1.379,1.471.034.258.055.518.085.81h-1.717a1.279,1.279,0,0,0-1.889-.75.767.767,0,0,0-.365.528,21.006,21.006,0,0,0,.011,2.417.763.763,0,0,0,.465.541,2.2,2.2,0,0,0,1.206.019c.279-.1.442-.517.743-.9h1.507C2095.587,1405.9,2094.91,1406.661,2093.285,1406.669Z" transform="translate(0 0)" fill="#929ab3"/>
    <path id="Path_2023" data-name="Path 2023" d="M2098.712,1412.906a.711.711,0,0,0-.7-.8c-.971-.056-1.571-.1-1.743.506a1.144,1.144,0,0,0-.064.288c-.005.693-.018,1.387,0,2.08.014.422.235.768.68.772.594.006,1.279.283,1.721-.385a.865.865,0,0,0,.1-.426c.013-.33,0-.661,0-.99C2098.712,1413.6,2098.714,1413.253,2098.712,1412.906Z" transform="translate(-11.524 -10.581)" fill="#929ab3"/>
  </g>
</svg>
