<svg xmlns="http://www.w3.org/2000/svg" width="25" height="30.046" viewBox="0 0 25 30.046">
  <g id="Group_740" data-name="Group 740" transform="translate(-1924.948 -1130.498)">
    <path id="Path_2009" data-name="Path 2009" d="M1949.948,1135.947a.438.438,0,0,0-.213-.417c-.172-.115-.344-.23-.519-.34a37.289,37.289,0,0,0-6.557-3.243,31.813,31.813,0,0,0-4.6-1.388,3.331,3.331,0,0,0-1.467.052,27.767,27.767,0,0,0-3.121.891,39.632,39.632,0,0,0-4.152,1.71,34.125,34.125,0,0,0-4.142,2.306.472.472,0,0,0-.227.435c0,1.052.038,2.1.094,3.152.058,1.083.183,2.158.325,3.231a31.856,31.856,0,0,0,.659,3.453,27.912,27.912,0,0,0,2.388,6.5,18.386,18.386,0,0,0,4,5.241,16.344,16.344,0,0,0,4.789,2.962.6.6,0,0,0,.458.007,16.083,16.083,0,0,0,5.184-3.3,16.613,16.613,0,0,0,2.492-3.019,23.006,23.006,0,0,0,2.012-3.734,31.776,31.776,0,0,0,1.88-6.359c.212-1.1.385-2.215.5-3.332a38.879,38.879,0,0,0,.215-3.913C1949.944,1136.544,1949.933,1136.244,1949.948,1135.947Zm-1.429,1.315c0,.179,0,.358,0,.537-.041.723-.073,1.445-.127,2.167a35.2,35.2,0,0,1-.706,4.886,26.821,26.821,0,0,1-1.77,5.491,18.414,18.414,0,0,1-3.244,5.014,14.65,14.65,0,0,1-4.866,3.438.8.8,0,0,1-.7,0,15.052,15.052,0,0,1-6.881-6.091,24.775,24.775,0,0,1-2.955-7.567,35.729,35.729,0,0,1-.761-5.373c-.066-.948-.093-1.9-.1-2.845a.448.448,0,0,1,.242-.432,35.554,35.554,0,0,1,6.885-3.357,26.6,26.6,0,0,1,3.671-1.051,1.831,1.831,0,0,1,.8.078,32.8,32.8,0,0,1,9.975,4.125C1948.641,1136.685,1948.505,1136.479,1948.519,1137.261Z" transform="translate(0)" fill="#929ab3"/>
    <path id="Path_2010" data-name="Path 2010" d="M1975.2,1219.99a1.33,1.33,0,0,1-.885-.569.615.615,0,0,1-.089-.376c0-.2-.073-.248-.242-.142a2.515,2.515,0,0,0-.413.317,1.361,1.361,0,0,1-1.459.436c-.179-.059-.274.057-.221.212a.632.632,0,0,1-.2.649,1.061,1.061,0,0,0-.273.678,1.214,1.214,0,0,1-.108-1.3,1.7,1.7,0,0,0,.1-.17c.057-.137.013-.215-.142-.186s-.323.071-.482.117a.586.586,0,0,1-.8-.293c-.048-.074-.081-.19-.19-.167s-.116.149-.109.247c.017.226-.157.314-.3.421a4.686,4.686,0,0,0-.45.308,2.589,2.589,0,0,0-.314.422,1.465,1.465,0,0,1,.534-1.52c.052-.038.13-.07.115-.147s-.108-.088-.18-.1c-.131-.018-.263-.03-.394-.05a.558.558,0,0,1-.555-.507c-.019-.079-.014-.19-.109-.2s-.133.092-.151.168c-.057.249-.272.3-.461.364a1.762,1.762,0,0,0-.884.544,1.493,1.493,0,0,1,.82-1.365c.039-.014.078-.027.117-.043.084-.036.189-.07.206-.164s-.1-.138-.17-.187-.169-.1-.252-.159a.8.8,0,0,1-.4-1.095.333.333,0,0,0,.026-.07c0-.085.07-.205-.035-.243s-.143.078-.168.167a.365.365,0,0,1-.229.244c-.069.028-.136.063-.207.085a1.933,1.933,0,0,0-1.163.728,1.686,1.686,0,0,1,1.387-1.743c-.1-.2-.29-.217-.5-.271a2.647,2.647,0,0,0,.529-1.3,1.366,1.366,0,0,1,1.891-.78.836.836,0,0,1,.4.894.943.943,0,0,1-.679.807.992.992,0,0,1-.466.052c-.335-.044-.465-.213-.425-.584.128.114.236.241.417.243a.318.318,0,0,0,.345-.225.305.305,0,0,0-.16-.358.824.824,0,0,0-.824.075.646.646,0,0,0-.293.687.681.681,0,0,0,.6.514,1.678,1.678,0,0,0,1.2-.393c.106-.075.2-.163.332-.27a1.8,1.8,0,0,0-.054.573.554.554,0,0,0,.651.55.627.627,0,0,0,.485-.68c-.009-.077-.054-.106-.11-.147a.354.354,0,0,1,.018-.63,1.687,1.687,0,0,1,.938-.245,1.562,1.562,0,0,0-.524.255.221.221,0,0,0-.1.191c.014.092.1.1.172.107.2.018.243.128.185.31a2.234,2.234,0,0,1-.263.531.484.484,0,0,0-.1.269,2.864,2.864,0,0,0,.821-.655c.053-.066.108-.146-.013-.2s-.065-.112-.02-.174a.95.95,0,0,1,1.3-.038c-.15-.035-.283-.075-.419-.1s-.233.02-.244.195a1.168,1.168,0,0,1-.786,1.051.711.711,0,0,0-.369.239c-.056.089-.06.147.076.157a1.238,1.238,0,0,0,.993-.252.97.97,0,0,1,1.343.308l-.187-.1a.586.586,0,0,0-.919.238c-.091.142-.186.225-.364.159a.424.424,0,0,0-.38.063.78.78,0,0,1-.712.072,2.013,2.013,0,0,0-.437-.086c-.729-.078-.806.448-.618.9a1.849,1.849,0,0,0,1.547,1.175,6.154,6.154,0,0,0,4.678-1.222,3.554,3.554,0,0,0,.877-1.195,8.576,8.576,0,0,0,1.119-3,2.708,2.708,0,0,0,.019-.571,1.019,1.019,0,0,0-.736-.961,2.347,2.347,0,0,0-1.2-.12,3.224,3.224,0,0,1-.6.022c-.178,0-.356-.021-.4.225a.459.459,0,0,0,.25.54,1.84,1.84,0,0,0,.657.115c.1,0,.2,0,.313,0a2.5,2.5,0,0,1-3.46-1.249,4.977,4.977,0,0,0,.528.615,1.342,1.342,0,0,0,1.058.4.315.315,0,0,0,.318-.363c0-.18.008-.347-.253-.4a1.247,1.247,0,0,1-.976-1.467c.094.076.08.184.11.266a1.15,1.15,0,0,0,1.011.823.972.972,0,0,0,.708-.737.486.486,0,0,0-.315-.413,4.785,4.785,0,0,0-1.237-.414,2.481,2.481,0,0,1,2.83,1.352c-.108-.055-.193-.107-.286-.143a.735.735,0,0,0-.819.188c-.066.077-.135.163-.093.268s.166.1.261.087c.321-.031.641-.084.963-.1a1.8,1.8,0,0,1,1.692.615c.074.1.158.066.194-.019a.685.685,0,0,1,.436-.341,1.108,1.108,0,0,0,.37-.284.74.74,0,0,1-.569.881.191.191,0,0,0-.153.3,1.018,1.018,0,0,1-.121,1.054.608.608,0,0,0-.083.205c-.015.1-.083.225.028.3.091.062.166-.036.24-.083a.465.465,0,0,1,.312-.051.969.969,0,0,0,.589-.087.78.78,0,0,1-.879.466c-.283-.063-.366-.008-.413.289a2.132,2.132,0,0,1-.608,1.275.817.817,0,0,0-.127.153c-.051.08-.166.152-.115.256s.179.046.272.045a1.166,1.166,0,0,1,.431.106.882.882,0,0,0,.64.055.958.958,0,0,1-1.3.315c-.226-.148-.3-.121-.388.14a4.479,4.479,0,0,0-.19.744,1.175,1.175,0,0,1-.875,1.033c-.247.069-.5.129-.745.193a.263.263,0,0,0-.21.155c-.034.109.055.163.132.214a.524.524,0,0,1,.2.387A1.306,1.306,0,0,0,1975.2,1219.99Z" transform="translate(-33.384 -65.511)" fill="#929ab3"/>
    <path id="Path_2011" data-name="Path 2011" d="M1968.413,1192.2a3.986,3.986,0,0,1-3.435-2.442,3.055,3.055,0,0,0,.51,1.513,5.637,5.637,0,0,0,1.072,1.267c.049.041.124.077.106.154s-.112.094-.18.11c-.241.057-.484.111-.729.153a.851.851,0,0,0-.734.676,3.812,3.812,0,0,1-.4,1.1,5.934,5.934,0,0,1-.563-1.166,6.949,6.949,0,0,1-.432-4.064,5.528,5.528,0,0,1,3.038-3.923.608.608,0,0,1,.295-.1,5.589,5.589,0,0,0-1.253,1.451,1.392,1.392,0,0,0-.2.478c-.015.1-.028.205.077.267a.225.225,0,0,0,.29-.066c.114-.119.215-.251.33-.388a1.834,1.834,0,0,0,1.859.823,8.463,8.463,0,0,0,3.661-.894,3.312,3.312,0,0,0,1.08-.863c.024-.03.045-.072.116-.058a1.391,1.391,0,0,1-.414.624,5.245,5.245,0,0,1-2.373,1.291,11.245,11.245,0,0,1-2.721.4.651.651,0,0,0-.124.005c-.057.014-.156-.034-.162.062-.005.08.092.084.151.1a4.156,4.156,0,0,0,1,.175,6.887,6.887,0,0,0,4.884-1.531c.026-.02.055-.035.116-.073a.568.568,0,0,1-.226.324,6.706,6.706,0,0,1-3.925,1.683,5.928,5.928,0,0,1-2-.173c-.1-.025-.252-.145-.3,0-.039.113.14.159.237.211a4.327,4.327,0,0,0,3.184.328,8.4,8.4,0,0,0,1.87-.788.342.342,0,0,1,.22-.081.746.746,0,0,1-.253.228,5.455,5.455,0,0,1-3.375,1.206,4.658,4.658,0,0,1-2.046-.545c-.107-.054-.256-.207-.338-.095s.07.257.167.355a4.015,4.015,0,0,0,2.318,1.141,10.075,10.075,0,0,0,1.282.069,4.373,4.373,0,0,1-4.01-1.009,2.485,2.485,0,0,0-.2-.19c-.061-.046-.125-.139-.213-.078s-.02.159.012.224a3.342,3.342,0,0,0,.735.993,4.755,4.755,0,0,0,1.79,1.04C1968.276,1192.15,1968.344,1192.174,1968.413,1192.2Z" transform="translate(-32.052 -45.72)" fill="#929ab3"/>
    <path id="Path_2012" data-name="Path 2012" d="M1957.35,1155.787a.6.6,0,0,1-.29-.26c-.07-.154-.175-.175-.322-.1a.319.319,0,0,1-.5-.173.116.116,0,0,0-.125-.087c-.507-.019-.663-.152-.768-.646-.021-.1-.024-.2-.121-.259a.971.971,0,0,0-.82-.186,1.874,1.874,0,0,1-1.461-.194,8.735,8.735,0,0,1-1.552-1.024,14.4,14.4,0,0,1-1.26-1.216,5.814,5.814,0,0,0,2.163,2.62,8.373,8.373,0,0,1-2.95-1.474,7.74,7.74,0,0,0,1.421,1.465,28.5,28.5,0,0,1-2.906.662,8.87,8.87,0,0,1,1.354.224,10.732,10.732,0,0,0-2.642.534,5.935,5.935,0,0,0-2.279,1.378,4.9,4.9,0,0,1,.853-.281c-.122.116-.213.2-.3.287-.259.257-.51.521-.776.77-.113.105-.249.208-.418.076a.763.763,0,0,1-.214-.835c.033-.078.066-.138.17-.152.336-.045.452-.276.3-.582a1.173,1.173,0,0,0-.551-.495,1.3,1.3,0,0,1,.222.376c.039.191-.047.28-.216.2-.194-.092-.266.013-.3.162a2.33,2.33,0,0,0-.062.591c0,.082.038.174-.054.267a2.04,2.04,0,0,1-.2-.441c-.044-.232-.308-.5.054-.7.017-.01.005-.079,0-.119a.844.844,0,0,0-1-.6c.14.04.269.066.391.114s.185.123.113.252a1.118,1.118,0,0,0,.177,1.311.449.449,0,0,1,.125.289c0,.065-.009.149-.112.1a1.086,1.086,0,0,1-.671-.514.952.952,0,0,0-1.277-.569c.114.019.192.033.27.044.338.049.455.137.51.475.039.238.056.455.365.478.044,0,.092.07.122.118a1.283,1.283,0,0,0,.685.5c.663.247.769.478.558,1.158-.024.079-.056.156-.08.235a2.492,2.492,0,0,0-.135.858,4.17,4.17,0,0,1,.827-.7,13.8,13.8,0,0,0-.531,1.328,6.5,6.5,0,0,0-.437,2.3,1.245,1.245,0,0,0,.225.692c.046-.208.015-.383.172-.518a7.241,7.241,0,0,0,.818,1.6,5.783,5.783,0,0,0,1.207,1.339.227.227,0,0,0-.058-.217,6.18,6.18,0,0,1-.6-6.121,5.219,5.219,0,0,1,2.57-2.849,6.966,6.966,0,0,1,4.778-.378c.161.038.221.029.255-.154a.84.84,0,0,1,1.022-.658,1.865,1.865,0,0,0-.491.251.7.7,0,0,0-.184.914,1.029,1.029,0,0,0,1.331.411.731.731,0,0,1,.69-.042.229.229,0,0,0,.19.017,1.212,1.212,0,0,1,1,.22c.11.059.083.146.013.227a1.939,1.939,0,0,1-.456.347.318.318,0,0,0,.2,0c.22-.038.44-.088.661-.106.331-.027.444.115.368.43a.676.676,0,0,0-.008.1.919.919,0,0,0,.627-1.021c-.011-.157-.03-.255-.188-.079-.052-.166.005-.337-.119-.472a.786.786,0,0,1-.123.369c-.149.2-.215.2-.349-.008a3.606,3.606,0,0,0-.514-.666c-.068.066,0,.164-.068.218-.228-.226-.24-.234-.552-.23a.772.772,0,0,1-.476-.1c-.192-.133-.186-.281.015-.4.365-.22.423-.2.554.213,0,.007.009.011.021.026.074-.048.148-.1.225-.146a1.145,1.145,0,0,1,.778-.193c.206.034.25.136.132.309-.051.075-.115.142-.207.255a1.822,1.822,0,0,0,.667-.387c.092-.082.128-.065.174.041a1.725,1.725,0,0,1,.1.63,1.781,1.781,0,0,0,.287-1.188,1.6,1.6,0,0,1,.536.321A1.342,1.342,0,0,0,1957.35,1155.787Zm-2.886-1.143c.276.111.715-.049.752.484C1954.822,1155.184,1954.638,1154.922,1954.464,1154.644Z" transform="translate(-12.962 -17.586)" fill="#929ab3"/>
  </g>
</svg>
