<svg xmlns="http://www.w3.org/2000/svg" width="23.25" height="25" viewBox="0 0 23.25 25">
  <g id="Group_644" data-name="Group 644" transform="translate(-733 -174.059)">
    <path id="Path_1681" data-name="Path 1681" d="M750.168,199.059a.61.61,0,0,0-.151-.1,1.48,1.48,0,0,1-1.033-1.352c-.008-.113-.007-.227-.007-.341q0-8.112-.006-16.224a1.888,1.888,0,0,1,.47-1.373,1.237,1.237,0,0,1,.848-.385c.194-.013.39,0,.617,0,0-.305,0-.583,0-.86,0-.235-.006-.47,0-.7a.49.49,0,0,1,.531-.521c.136,0,.272,0,.425,0v-2.061H748v.3q0,8.067,0,16.134a1.516,1.516,0,0,1-.021.339.476.476,0,0,1-.525.341c-.923,0-1.846,0-2.769,0-.341,0-.681.005-1.021,0a.46.46,0,0,1-.5-.5c-.006-.818,0-1.636,0-2.454a.932.932,0,0,1,.017-.121h.938v2.047h2.914v-.278q0-8.1,0-16.2c0-.3.056-.556.366-.683h5.085a.6.6,0,0,1,.365.638c-.006.742,0,1.485,0,2.227v.272c.158,0,.3,0,.441,0a.478.478,0,0,1,.522.524c.006.506,0,1.012,0,1.555h.3q4.37,0,8.74,0a2.209,2.209,0,0,1,.5.04,1.443,1.443,0,0,1,1.108,1.38c.026,1.248.007,2.5.007,3.765h-.951V183.44H749.941v.234q0,6.817,0,13.635c0,.546.15.693.7.694h.749v1.057Zm-.227-16.648H763.27a.359.359,0,0,1,.045,0c.137.016.192-.046.191-.181,0-.469.008-.94-.006-1.409a.541.541,0,0,0-.574-.535H750.51a.544.544,0,0,0-.568.564c0,.2,0,.394,0,.591Zm1.953-3.155h.94v-1.035h-.94Z" transform="translate(-8.223 0)" fill="#707b9b"/>
    <path id="Path_1682" data-name="Path 1682" d="M791.265,247.617v-1.043c.122-.006.217-.014.311-.014h10.146c.546,0,.7-.154.7-.7q0-5.738,0-11.476v-.306h.965v11.766a1.5,1.5,0,0,1-1.149,1.7c-.031.012-.051.051-.076.078Z" transform="translate(-47.141 -48.558)" fill="#707b9b"/>
    <path id="Path_1683" data-name="Path 1683" d="M733,202.075a.593.593,0,0,1,.488-.378c0-.8,0-1.593,0-2.387a2.145,2.145,0,0,1,.014-.317.447.447,0,0,1,.46-.415c.975-.006,1.951-.008,2.926,0,.3,0,.468.22.47.577,0,.757,0,1.514,0,2.271v.267c.421.069.5.361.492.732-.014.583-.008,1.166,0,1.748a2.679,2.679,0,0,1-.851,2.094,3.635,3.635,0,0,1-.943.515c-.108.05-.153.086-.151.2.007.308,0,.617,0,.938h-.965c0-.314,0-.621,0-.929a.175.175,0,0,0-.149-.207,2.423,2.423,0,0,1-1.75-2.019c-.01-.051-.029-.1-.044-.15Zm.984.676c0,.6-.017,1.176.005,1.749a1.423,1.423,0,0,0,2.778.351,8.843,8.843,0,0,0,.111-2.1Zm.477-1.054h1.916v-2.049h-1.916Z" transform="translate(0 -19.834)" fill="#707b9b"/>
    <path id="Path_1684" data-name="Path 1684" d="M787.645,244.787H786.7v-2.1h-1.945v2.094h-.96V239.6h.955v2.051h1.926V239.6h.966Z" transform="translate(-41.098 -53.023)" fill="#707b9b"/>
    <path id="Path_1685" data-name="Path 1685" d="M806.541,242.1c0-.659,0-1.317,0-1.976,0-.43.179-.6.608-.6s.832.011,1.248,0a1.465,1.465,0,0,1,1.53,1.48c.025.749.028,1.5,0,2.248a1.389,1.389,0,0,1-.939,1.343,2.542,2.542,0,0,1-.713.14c-.369.023-.741.007-1.111.006a.564.564,0,0,1-.618-.613C806.537,243.444,806.541,242.77,806.541,242.1Zm.99,1.546a.426.426,0,0,0,.079.019c.264,0,.529,0,.793,0,.366,0,.548-.146.558-.507.019-.7.013-1.405,0-2.108a.5.5,0,0,0-.406-.5c-.336-.02-.675-.005-1.025-.005Z" transform="translate(-59.499 -52.956)" fill="#707b9b"/>
    <path id="Path_1686" data-name="Path 1686" d="M826.875,242.1c0-.666,0-1.332,0-2,0-.413.17-.581.578-.582.439,0,.877.006,1.316,0a1.428,1.428,0,0,1,1.47,1.388c.04.815.032,1.635,0,2.451a1.31,1.31,0,0,1-.623,1.079,1.626,1.626,0,0,1-.97.3c-.392-.019-.786,0-1.179,0a.544.544,0,0,1-.589-.591C826.872,243.467,826.875,242.785,826.875,242.1Zm.977,1.546a.376.376,0,0,0,.075.019c.272,0,.544.005.817,0,.355,0,.54-.169.545-.523.01-.7.007-1.393,0-2.089a.506.506,0,0,0-.382-.5c-.35-.022-.7-.006-1.055-.006Z" transform="translate(-75.951 -52.964)" fill="#707b9b"/>
    <path id="Path_1687" data-name="Path 1687" d="M784.747,210.6H783.8v-1.026h.946Z" transform="translate(-41.102 -28.732)" fill="#707b9b"/>
    <path id="Path_1688" data-name="Path 1688" d="M793.918,210.591v-1.027h.938v1.027Z" transform="translate(-49.287 -28.726)" fill="#707b9b"/>
  </g>
</svg>
