<svg xmlns="http://www.w3.org/2000/svg" width="23.407" height="24.65" viewBox="0 0 23.407 24.65">
  <g id="Group_702" data-name="Group 702" transform="translate(-1587.646 -488.4)">
    <path id="Path_1877" data-name="Path 1877" d="M1600.122,488.4c.451.064.9.119,1.352.194a11.8,11.8,0,0,1,9.39,9.336,14.291,14.291,0,0,1-.024,4.764,34.029,34.029,0,0,1-2.232,7.715,1.23,1.23,0,0,1-1.024.835,3.635,3.635,0,0,1-.654-.041c-.03.083-.075.2-.115.317a1.481,1.481,0,0,1-1.01.983c-.535.165-1.074.321-1.612.478a1.632,1.632,0,0,1-1.017-.027c-.446-.155-.895-.3-1.339-.465a2.06,2.06,0,0,1-1.3-2.677q1.118-3.262,2.26-6.515a2.063,2.063,0,0,1,2.7-1.324c.441.144.879.3,1.317.454a1.7,1.7,0,0,1,.846.647c.151.216.3.431.495.7.079-.42.153-.783.215-1.147a14.892,14.892,0,0,0,.229-2.945,7.3,7.3,0,0,0-2.618-5.452,9.765,9.765,0,0,0-7.545-2.421,9.517,9.517,0,0,0-6.108,2.777,7.36,7.36,0,0,0-2.248,5.5,18.556,18.556,0,0,0,.423,3.528.99.99,0,0,0,.051.133,7.144,7.144,0,0,1,.49-.678,2.032,2.032,0,0,1,.629-.54,11.859,11.859,0,0,1,1.812-.631,2.028,2.028,0,0,1,2.4,1.368c.473,1.328.928,2.662,1.39,3.993.294.848.585,1.7.881,2.543a2.1,2.1,0,0,1-.253,1.927,1.672,1.672,0,0,1-.843.686c-.519.188-1.042.367-1.565.547a1.618,1.618,0,0,1-1.017.011c-.522-.156-1.045-.307-1.567-.464a1.489,1.489,0,0,1-1.023-.97l-.125-.349a3.167,3.167,0,0,1-.559.063,1.2,1.2,0,0,1-1.088-.783,34.8,34.8,0,0,1-2.035-6.528,18.428,18.428,0,0,1-.44-4.105,11.536,11.536,0,0,1,2.083-6.4c.161-.234.363-.291.548-.164s.209.335.047.57a10.918,10.918,0,0,0-1.828,4.531,12.362,12.362,0,0,0-.009,3.6,32.308,32.308,0,0,0,2.258,8.127c.166.4.384.513.764.366-.023-.078-.044-.159-.072-.239-.5-1.438-.993-2.877-1.5-4.312a1.668,1.668,0,0,1,0-1.241.586.586,0,0,0-.005-.324,20,20,0,0,1-.563-4.38,8.194,8.194,0,0,1,3.042-6.437,10.136,10.136,0,0,1,5.543-2.4,10.667,10.667,0,0,1,7.724,1.915,8.4,8.4,0,0,1,3.6,8.086c-.126,1.1-.351,2.181-.527,3.272a.544.544,0,0,0,.015.278,1.626,1.626,0,0,1,.006,1.2q-.753,2.154-1.5,4.312c-.029.083-.056.166-.082.246a.455.455,0,0,0,.725-.261c.3-.752.6-1.5.862-2.268a31.306,31.306,0,0,0,1.383-5.542,11.33,11.33,0,0,0-1.09-7.358,11,11,0,0,0-17.63-2.525c-.029.028-.055.058-.084.086a.358.358,0,0,1-.533.044.363.363,0,0,1,.027-.552c.326-.32.648-.648,1-.939a11.546,11.546,0,0,1,6.544-2.685,1.36,1.36,0,0,0,.184-.041Zm-4.488,23.758c.347-.121.672-.23.994-.348a1.337,1.337,0,0,0,.855-1.759q-1.128-3.283-2.274-6.559a1.34,1.34,0,0,0-1.746-.845c-.441.145-.887.282-1.314.462a1.361,1.361,0,0,0-.522.4c-.331.422-.625.873-.936,1.311a.783.783,0,0,0-.1.753q.992,2.86,1.982,5.719a.783.783,0,0,0,.548.526c.523.153,1.044.31,1.566.464.067.019.136.028.233.047-.031-.1-.052-.173-.077-.245l-2.155-6.219c-.16-.462-.323-.922-.476-1.386a.346.346,0,0,1,.21-.45.351.351,0,0,1,.456.2,1.9,1.9,0,0,1,.074.2l2.592,7.466C1595.57,511.976,1595.6,512.057,1595.634,512.158Zm11.29-8.874c-.05.129-.078.194-.1.261l-1.692,4.879c-.081.235-.157.471-.247.7a.351.351,0,0,1-.458.237.356.356,0,0,1-.218-.467c.013-.046.03-.091.046-.137q.933-2.689,1.865-5.379c.043-.125.082-.252.126-.39-.355-.122-.686-.243-1.02-.35a1.347,1.347,0,0,0-1.728.844c-.111.3-.21.6-.315.908q-.969,2.791-1.939,5.582a1.308,1.308,0,0,0,.471,1.639,10.436,10.436,0,0,0,1.35.565c.217-.62.412-1.187.614-1.752a.359.359,0,0,1,.482-.265.363.363,0,0,1,.195.5c-.134.4-.279.8-.418,1.2-.05.145-.1.292-.164.5.692-.212,1.332-.387,1.954-.613a.764.764,0,0,0,.386-.427c.683-1.924,1.346-3.855,2.014-5.785a.745.745,0,0,0-.106-.708c-.162-.229-.322-.46-.484-.689C1607.342,503.868,1607.146,503.6,1606.924,503.284Z" transform="translate(0 0)" fill="#707b9b"/>
  </g>
</svg>
