<svg id="Group_732" data-name="Group 732" xmlns="http://www.w3.org/2000/svg" width="24.738" height="24.74" viewBox="0 0 24.738 24.74">
  <path id="Path_1978" data-name="Path 1978" d="M348.673,263.612a.957.957,0,0,0-.962,1.024.992.992,0,0,0,.973,1.024.963.963,0,0,0,.962-1.024A.989.989,0,0,0,348.673,263.612Z" transform="translate(-326.753 -251.873)" fill="#929ab3"/>
  <path id="Path_1979" data-name="Path 1979" d="M145.378,262.817a.935.935,0,0,0-.769.362,1.167,1.167,0,0,0-.2.871l1.743-.724A.832.832,0,0,0,145.378,262.817Z" transform="translate(-139.355 -251.14)" fill="#929ab3"/>
  <path id="Path_1980" data-name="Path 1980" d="M92.369,113.661a12.369,12.369,0,1,0,12.369,12.369A12.369,12.369,0,0,0,92.369,113.661ZM83.986,128.24H80.7v-4.718h1.013v3.8h2.269Zm2.144-.73a1.515,1.515,0,0,0,1.041-.385l.639.487a2.418,2.418,0,0,1-1.692.7,1.879,1.879,0,0,1-2.037-1.878,1.86,1.86,0,0,1,1.923-1.878,1.818,1.818,0,0,1,1.437.594,1.944,1.944,0,0,1,.436,1.013l-2.552,1.058A1.1,1.1,0,0,0,86.13,127.51Zm5.765.736h-1v-2.071a.8.8,0,0,0-.843-.769.778.778,0,0,0-.82.769v2.071h-1v-3.638h1v.521a1.5,1.5,0,0,1,1.182-.583,1.4,1.4,0,0,1,1.477,1.448Zm2.342.057a1.88,1.88,0,1,1,1.957-1.878A1.886,1.886,0,0,1,94.237,128.3Zm3.3-.062-1.494-3.632h1.143l.9,2.472.905-2.472h1.137l-1.494,3.632Zm4.385.062a1.88,1.88,0,1,1,1.957-1.878A1.886,1.886,0,0,1,101.92,128.3Z" transform="translate(-80 -113.661)" fill="#929ab3"/>
  <path id="Path_1981" data-name="Path 1981" d="M250.536,263.612a.957.957,0,0,0-.962,1.024.992.992,0,0,0,.973,1.024.963.963,0,0,0,.962-1.024A.992.992,0,0,0,250.536,263.612Z" transform="translate(-236.299 -251.873)" fill="#929ab3"/>
</svg>
