<svg xmlns="http://www.w3.org/2000/svg" width="27.266" height="27.259" viewBox="0 0 27.266 27.259">
  <g id="Group_770" data-name="Group 770" transform="translate(-1757.048 -2599.841)">
    <path id="Path_2165" data-name="Path 2165" d="M1760.661,2609.813a1.435,1.435,0,0,1,1.385-1.358v-.331q0-3.393,0-6.786a1.372,1.372,0,0,1,1.5-1.5H1777.8a1.374,1.374,0,0,1,1.511,1.515q0,4.06,0,8.12v.359h.333c1.079,0,2.158,0,3.237,0a1.357,1.357,0,0,1,1.428,1.427q.005,2.214,0,4.429a1.355,1.355,0,0,1-1.415,1.411c-1.079,0-2.158,0-3.237,0h-.344v.347q0,4.06,0,8.12a1.378,1.378,0,0,1-1.528,1.528h-14.227a1.376,1.376,0,0,1-1.512-1.515q0-3.393,0-6.785v-.3a1.445,1.445,0,0,1-1.38-1.391h-2.034a1.4,1.4,0,0,1-1.584-1.585q0-2.1,0-4.2a1.37,1.37,0,0,1,1.487-1.482l2.073,0A.188.188,0,0,0,1760.661,2609.813Zm2.294,8.654v.315q0,3.379,0,6.757c0,.52.132.651.655.651h14.141c.521,0,.653-.133.653-.653q0-4.06,0-8.119v-.3h-1.363v.318q0,1.8,0,3.605c0,.459-.149.6-.616.605q-2.57,0-5.14,0c-.46,0-.605-.148-.605-.615q0-1.8,0-3.606v-.3h-3.623a1.391,1.391,0,0,1-1.539,1.346Zm7.725-8.642v-.333q0-3.151,0-6.3c0-.482.141-.622.627-.622h5.083c.52,0,.651.132.651.655q0,3.137,0,6.275v.325h1.363v-.291q0-4.074,0-8.148c0-.5-.139-.632-.646-.632h-14.17c-.5,0-.633.137-.633.645q0,3.393,0,6.785c0,.091.008.183.014.294.871,0,1.721,0,2.571,0a1.857,1.857,0,0,1,.422.033,1.384,1.384,0,0,1,1.1,1.318Zm-3.624,6.359c.068.005.105.011.142.011q7.834,0,15.668,0c.376,0,.535-.172.536-.57q0-2.114,0-4.229c0-.52-.132-.652-.654-.652h-15.693Zm4.545-6.369h4.509v-6.34H1771.6Zm-5.465,3.684q0-1.761,0-3.521c0-.445-.151-.6-.6-.6q-1.676,0-3.351,0c-.446,0-.6.15-.6.6q0,3.493,0,6.985c0,.445.151.6.6.6q1.675,0,3.351,0c.445,0,.6-.151.6-.6Q1766.137,2615.231,1766.136,2613.5Zm9.973,7.234v-3.61h-4.5v3.61Zm-15.437-9.988c-.775,0-1.521-.007-2.268,0a.439.439,0,0,0-.445.485c-.007.3-.007.605,0,.908a2.292,2.292,0,0,0,2.714,2.2Zm-2.715,3.59c0,.5-.005.925,0,1.355a.457.457,0,0,0,.512.5c.462.006.925,0,1.387,0h.8v-.916A3.376,3.376,0,0,1,1757.957,2614.335Z" transform="translate(0 0)" fill="#707b9b"/>
    <path id="Path_2166" data-name="Path 2166" d="M1815.094,2697.4v-.875h6.326v.875Z" transform="translate(-44.401 -73.958)" fill="#707b9b"/>
    <path id="Path_2167" data-name="Path 2167" d="M1793.489,2696.552v.875h-5.416v-.875Z" transform="translate(-23.732 -73.976)" fill="#707b9b"/>
    <path id="Path_2168" data-name="Path 2168" d="M1790.765,2688.824v.874h-2.691v-.874Z" transform="translate(-23.733 -68.065)" fill="#707b9b"/>
    <path id="Path_2169" data-name="Path 2169" d="M1805.3,2689.7h-1.772v-.884h1.772Z" transform="translate(-35.557 -68.062)" fill="#707b9b"/>
    <path id="Path_2170" data-name="Path 2170" d="M1788.029,2612.375v-.873h5.427v.873Z" transform="translate(-23.698 -8.919)" fill="#707b9b"/>
    <path id="Path_2171" data-name="Path 2171" d="M1788.036,2620.128v-.872h5.419v.872Z" transform="translate(-23.704 -14.851)" fill="#707b9b"/>
    <path id="Path_2172" data-name="Path 2172" d="M1793.481,2627.851h-5.416v-.879h5.416Z" transform="translate(-23.726 -20.752)" fill="#707b9b"/>
    <path id="Path_2173" data-name="Path 2173" d="M1824.351,2652.813h-4.827c-.483,0-.624-.142-.625-.625,0-.521,0-1.041,0-1.562,0-.372.167-.539.538-.539q4.913,0,9.826,0c.371,0,.537.167.539.538q.006.809,0,1.618c0,.407-.161.567-.568.568Q1826.793,2652.814,1824.351,2652.813Zm4.531-1.8h-9.051v.874h9.051Z" transform="translate(-47.31 -38.434)" fill="#707b9b"/>
    <path id="Path_2174" data-name="Path 2174" d="M1804.813,2652.814a1.361,1.361,0,1,1,1.356-1.381A1.368,1.368,0,0,1,1804.813,2652.814Zm.447-1.356a.453.453,0,1,0-.451.448A.457.457,0,0,0,1805.259,2651.458Z" transform="translate(-35.491 -38.438)" fill="#707b9b"/>
    <path id="Path_2175" data-name="Path 2175" d="M1852.7,2664.586h-.873v-.874h.873Z" transform="translate(-72.499 -48.857)" fill="#707b9b"/>
    <path id="Path_2176" data-name="Path 2176" d="M1859.577,2663.671h.875v.874h-.875Z" transform="translate(-78.427 -48.824)" fill="#707b9b"/>
    <g id="Group_769" data-name="Group 769" transform="translate(1762.499 2610.287)">
      <path id="Path_2177" data-name="Path 2177" d="M1780.34,2660.719h.869v-.884h-.869Z" transform="translate(-1780.315 -2656.178)" fill="#707b9b"/>
      <path id="Path_2178" data-name="Path 2178" d="M1782.483,2644.284q-.88-.012-1.76,0a.445.445,0,0,0-.482.478c-.009.293,0,.587,0,.88s-.006.587,0,.88a.446.446,0,0,0,.478.483q.88.012,1.76,0a.444.444,0,0,0,.483-.478q.012-.88,0-1.76A.443.443,0,0,0,1782.483,2644.284Zm-.448,1.8h-.875v-.874h.875Z" transform="translate(-1780.236 -2644.278)" fill="#707b9b"/>
      <path id="Path_2179" data-name="Path 2179" d="M1788.04,2668.445h.883v-.869h-.883Z" transform="translate(-1786.205 -2662.1)" fill="#707b9b"/>
      <path id="Path_2180" data-name="Path 2180" d="M1780.312,2668.415h.872v-.877h-.872Z" transform="translate(-1780.294 -2662.07)" fill="#707b9b"/>
      <path id="Path_2181" data-name="Path 2181" d="M1788.912,2659.845h-.875v.874h.875Z" transform="translate(-1786.204 -2656.186)" fill="#707b9b"/>
    </g>
    <path id="Path_2182" data-name="Path 2182" d="M1781.208,2660.719h-.869v-.884h.869Z" transform="translate(-17.817 -45.891)" fill="#707b9b"/>
    <path id="Path_2183" data-name="Path 2183" d="M1788.912,2660.719h-.875v-.874h.875Z" transform="translate(-23.705 -45.898)" fill="#707b9b"/>
    <path id="Path_2184" data-name="Path 2184" d="M1780.311,2667.538h.872v.877h-.872Z" transform="translate(-17.794 -51.783)" fill="#707b9b"/>
    <path id="Path_2185" data-name="Path 2185" d="M1788.923,2667.577v.869h-.883v-.869Z" transform="translate(-23.707 -51.812)" fill="#707b9b"/>
  </g>
</svg>
