<svg xmlns="http://www.w3.org/2000/svg" xmlns:xlink="http://www.w3.org/1999/xlink" width="25" height="25" viewBox="0 0 25 25">
  <defs>
    <clipPath id="clip-path">
      <rect id="Rectangle_692" data-name="Rectangle 692" width="25" height="25" transform="translate(6146 556)" fill="#707b9b"/>
    </clipPath>
  </defs>
  <g id="Mask_Group_132" data-name="Mask Group 132" transform="translate(-6146 -556)" clip-path="url(#clip-path)">
    <g id="Device_Storage" data-name="Device &amp; Storage" transform="translate(6146.758 556)">
      <path id="Path_926" data-name="Path 926" d="M22.3,13.766a1.269,1.269,0,0,0,0-2.533H21.249V9.659H22.3a1.268,1.268,0,0,0,0-2.531H21.249V4.269a1.837,1.837,0,0,0-1.775-1.89H16.789V1.266a1.192,1.192,0,1,0-2.379,0V2.38H12.932V1.266a1.192,1.192,0,1,0-2.379,0V2.38H9.073V1.266A1.23,1.23,0,0,0,7.885,0,1.231,1.231,0,0,0,6.7,1.266V2.38H4.01a1.837,1.837,0,0,0-1.775,1.89V7.128H1.189a1.268,1.268,0,0,0,0,2.531H2.235v1.575H1.189a1.269,1.269,0,0,0,0,2.532H2.235V15.34H1.189a1.269,1.269,0,0,0,0,2.532H2.235v2.859a1.837,1.837,0,0,0,1.775,1.89H6.7v1.114A1.231,1.231,0,0,0,7.885,25a1.231,1.231,0,0,0,1.189-1.266V22.62h1.479v1.114a1.192,1.192,0,1,0,2.379,0V22.62H14.41v1.114a1.192,1.192,0,1,0,2.379,0V22.62h2.685a1.837,1.837,0,0,0,1.775-1.89V17.872H22.3a1.269,1.269,0,0,0,0-2.532H21.249V13.766Zm0-1.8a.532.532,0,0,1,0,1.062H21.249V11.969Zm0-4.106a.531.531,0,0,1,0,1.06H21.249V7.863Zm-7.2-6.6a.5.5,0,1,1,1,0V2.38h-1Zm-3.857,0a.5.5,0,1,1,1,0V2.38h-1Zm-3.857,0a.5.5,0,1,1,1,0V2.38h-1Zm-6.2,7.658a.531.531,0,0,1,0-1.06H2.235v1.06Zm0,4.107a.532.532,0,0,1,0-1.062H2.235v1.062Zm0,4.106a.532.532,0,0,1,0-1.062H2.235v1.062Zm7.194,6.6a.5.5,0,1,1-1,0V22.62h1Zm3.858,0a.5.5,0,1,1-1,0V22.62h1Zm3.857,0a.5.5,0,1,1-1,0V22.62h1Zm4.46-3a1.122,1.122,0,0,1-1.084,1.154H4.01a1.122,1.122,0,0,1-1.084-1.154V4.269A1.122,1.122,0,0,1,4.01,3.115H19.474a1.122,1.122,0,0,1,1.085,1.155ZM22.3,16.075a.532.532,0,0,1,0,1.062H21.249V16.075Zm0,0" transform="translate(0 0)" fill="#707b9b"/>
      <path id="Path_927" data-name="Path 927" d="M17.25,10.355h-2.5a.368.368,0,0,0,0,.735h2.5a.219.219,0,0,1,.208.223v6.381a.218.218,0,0,1-.208.222H11.255a.219.219,0,0,1-.21-.222V11.314a.217.217,0,0,1,.21-.223h2.122a.368.368,0,0,0,0-.735H11.255a.932.932,0,0,0-.9.958v6.381a.931.931,0,0,0,.9.957H17.25a.93.93,0,0,0,.9-.957V11.314a.931.931,0,0,0-.9-.958Zm0,0" transform="translate(-2.51 -2.004)" fill="#707b9b"/>
      <path id="Path_928" data-name="Path 928" d="M20.362,9.513a.368.368,0,0,0,0-.735h-1.1v-.5A1.305,1.305,0,0,0,18,6.931h-.473V5.759a.346.346,0,1,0-.691,0V6.931H15.5V5.759a.346.346,0,1,0-.691,0V6.931H13.394V5.759a.346.346,0,1,0-.691,0V6.931H11.284V5.759a.346.346,0,1,0-.691,0V6.931H9.263V5.759a.346.346,0,1,0-.691,0V6.931H8.1A1.3,1.3,0,0,0,6.838,8.273v.5h-1.1a.368.368,0,0,0,0,.735h1.1v1.416h-1.1a.368.368,0,0,0,0,.735h1.1v1.511h-1.1a.368.368,0,0,0,0,.735h1.1v1.511h-1.1a.368.368,0,0,0,0,.735h1.1v1.416h-1.1a.368.368,0,0,0,0,.735h1.1v.5A1.305,1.305,0,0,0,8.1,20.155h.473v1.172a.346.346,0,1,0,.691,0V20.155h1.331v1.172a.346.346,0,1,0,.691,0V20.155H12.7v1.172a.346.346,0,1,0,.691,0V20.155h1.419v1.172a.346.346,0,1,0,.691,0V20.155h1.331v1.172a.346.346,0,1,0,.691,0V20.155H18a1.306,1.306,0,0,0,1.262-1.343v-.5h1.1a.368.368,0,0,0,0-.735h-1.1V16.156h1.1a.368.368,0,0,0,0-.735h-1.1V13.91h1.1a.368.368,0,0,0,0-.735h-1.1V11.664h1.1a.368.368,0,0,0,0-.735h-1.1V9.513ZM18,19.42H8.1a.591.591,0,0,1-.57-.608V8.273a.59.59,0,0,1,.57-.607H18a.59.59,0,0,1,.571.607v.844c0,.009,0,.018,0,.027s0,.018,0,.027v2.1c0,.009,0,.018,0,.027s0,.018,0,.027v2.191c0,.009,0,.018,0,.027s0,.018,0,.027v2.191c0,.009,0,.018,0,.027s0,.018,0,.027v2.1c0,.009,0,.018,0,.027s0,.018,0,.027v.844A.591.591,0,0,1,18,19.42Zm0,0" transform="translate(-1.307 -1.044)" fill="#707b9b"/>
    </g>
  </g>
</svg>
