<svg xmlns="http://www.w3.org/2000/svg" width="24.135" height="22.961" viewBox="0 0 24.135 22.961">
  <g id="Group_762" data-name="Group 762" transform="translate(-1470.969 -2157.641)">
    <path id="Path_2116" data-name="Path 2116" d="M1475.08,2177.238h-3.486c-.46,0-.623-.162-.623-.623q0-4.645,0-9.29c0-.486.145-.628.635-.628h3.456v-.313q0-4.019,0-8.038c0-.563.133-.7.693-.7q5.607,0,11.213-.008a.849.849,0,0,1,.64.258q1.555,1.507,3.128,3a.8.8,0,0,1,.268.636c-.006,1.613,0,3.225,0,4.837v.323h3.495c.445,0,.607.163.607.612q0,3.586,0,7.172a2.66,2.66,0,0,1-2.765,2.757c-.432,0-.864,0-1.322,0,0,.1-.013.184-.013.268,0,.818,0,1.636,0,2.455,0,.488-.158.642-.653.642l-14.63,0c-.486,0-.638-.148-.639-.627q0-1.227,0-2.455Zm-3.147-9.58,0,8.609h3.1a.28.28,0,0,0,.019-.061q0-1,.005-2c0-.48.153-.628.637-.628l12.126,0a2,2,0,0,1,.216,0,.472.472,0,0,1,.425.448.462.462,0,0,1-.366.471,1.642,1.642,0,0,1-.334.024l-11.429,0c-.1,0-.2.01-.3.015l0,5.087,14.018,0v-.282q0-2.527,0-5.053c0-.072,0-.145,0-.217a.467.467,0,0,1,.448-.5.459.459,0,0,1,.491.478c.013.642.006,1.283.007,1.925,0,.093,0,.186,0,.3h1.329a1.7,1.7,0,0,0,1.82-1.817q0-3.272,0-6.545v-.264Zm18.106-5.826c-.63,0-1.231.008-1.832,0a1.542,1.542,0,0,1-1.529-1.512c-.008-.257,0-.513,0-.77,0-.31,0-.62,0-.936l-10.645,0,0,8.064,14.008,0Zm-2.4-2.579c0,.419-.018.792.007,1.162a.452.452,0,0,0,.4.429c.406.036.818.01,1.268.01Z" fill="#707b9b"/>
    <path id="Path_2117" data-name="Path 2117" d="M1512.3,2258.04q-2.128,0-4.255,0c-.357,0-.555-.162-.567-.448a.455.455,0,0,1,.427-.486c.048,0,.1,0,.144,0l8.51,0c.337,0,.529.139.562.4a.452.452,0,0,1-.447.534c-.3.014-.609.006-.913.006Z" transform="translate(-29.457 -80.258)" fill="#707b9b"/>
    <path id="Path_2118" data-name="Path 2118" d="M1570.775,2220.565a.469.469,0,1,1-.476-.472A.469.469,0,0,1,1570.775,2220.565Z" transform="translate(-79.781 -50.395)" fill="#707b9b"/>
    <path id="Path_2119" data-name="Path 2119" d="M1548.609,2220.574a.476.476,0,0,1-.474.47.471.471,0,0,1,0-.942A.477.477,0,0,1,1548.609,2220.574Z" transform="translate(-61.89 -50.403)" fill="#707b9b"/>
    <path id="Path_2120" data-name="Path 2120" d="M1559.213,2220.1a.474.474,0,0,1,.47.473.469.469,0,0,1-.47.47.471.471,0,1,1,0-.943Z" transform="translate(-70.827 -50.399)" fill="#707b9b"/>
  </g>
</svg>
