<svg xmlns="http://www.w3.org/2000/svg" width="35" height="19.371" viewBox="0 0 35 19.371">
  <path id="Path_2015" data-name="Path 2015" d="M1770.013,1294.119c-.068.323-.143.587-.175.856a2.285,2.285,0,0,0,.776,2.067c.239.217.467.447.685.685a.888.888,0,0,1,.164.911.429.429,0,0,1-.291.247c-.081.011-.245-.128-.267-.224a7.023,7.023,0,0,1-.1-.845h-.969a2.915,2.915,0,0,0,.141,1.478,1.2,1.2,0,0,0,1.3.76,1.115,1.115,0,0,0,1.076-.856,2.593,2.593,0,0,0-.707-2.923,8.243,8.243,0,0,1-.6-.569.794.794,0,0,1-.179-.835.375.375,0,0,1,.264-.23c.092,0,.183.146.268.235.02.021.011.069.016.1.023.175,0,.477.076.5a2.066,2.066,0,0,0,.741.046.273.273,0,0,0,.167-.207,4.22,4.22,0,0,0-.084-.927c-.164-.646-.623-.906-1.449-.907.812-.5,1.608-1.021,2.438-1.484a39.226,39.226,0,0,1,13.224-4.535,23.919,23.919,0,0,1,7.522-.093,9.713,9.713,0,0,1,3.933,1.4,3.985,3.985,0,0,1,1.677,4.889,9.119,9.119,0,0,1-2.2,3.461c-.7.722-1.48,1.364-2.226,2.04a1.879,1.879,0,0,1-.2.136,8.345,8.345,0,0,0,.195-2.716c0-.07-.129-.2-.2-.2-.358-.022-.718-.01-1.11-.01v.916l.328.061a7.541,7.541,0,0,1-.015,1.042c-.021.149-.205.275-.316.412-.11-.136-.312-.269-.316-.407q-.038-1.637,0-3.275c0-.137.2-.269.307-.4a1.582,1.582,0,0,1,.318.408,2.032,2.032,0,0,1,.012.589c.29,0,.551.014.808-.01a.271.271,0,0,0,.178-.2,5.234,5.234,0,0,0-.127-1.065,1.237,1.237,0,0,0-2.358-.024,3.113,3.113,0,0,0-.141.882c-.017,1-.007,1.992,0,2.988a2.379,2.379,0,0,0,.029.358c.144.93.564,1.289,1.567,1.283-.12.093-.193.155-.272.209a37.765,37.765,0,0,1-13.028,5.524,28.88,28.88,0,0,1-8.172.791,12.413,12.413,0,0,1-5.461-1.373,4.225,4.225,0,0,1-2.215-2.7,4.641,4.641,0,0,1,.422-3.109,12.293,12.293,0,0,1,3.125-3.951C1769.033,1294.912,1769.512,1294.536,1770.013,1294.119Zm7.655.9.044,0,.544,4.808c.248,0,.474-.011.7,0s.288-.075.3-.288c.031-.442.093-.883.142-1.324q.184-1.661.367-3.321l.071,0v4.9h.935c0-.145,0-.262,0-.38-.02-1.5-.037-3-.064-4.5-.007-.39.1-.934-.112-1.125s-.75-.052-1.142-.081c-.25-.018-.31.108-.327.315q-.073.86-.155,1.719c-.069.723-.141,1.445-.211,2.167-.178-1.3-.3-2.6-.439-3.895-.011-.106-.128-.282-.2-.287-.428-.028-.859-.014-1.356-.014v6.105c.2,0,.422-.009.646,0s.266-.083.263-.279c-.009-.528,0-1.056,0-1.584Q1777.668,1296.493,1777.668,1295.021Zm11.854,4.713v-4.513l.836,4.546c.4,0,.769.014,1.137-.011.076-.005.2-.15.2-.238.025-.31.008-.623.008-.934,0-1.511,0-3.022-.007-4.532,0-.112-.086-.309-.155-.32a5.167,5.167,0,0,0-.778-.015v4.165c-.03-.042-.051-.059-.055-.079-.22-1.261-.436-2.524-.664-3.784-.02-.108-.114-.284-.182-.288-.413-.027-.829-.013-1.271-.013v.446q0,2.41,0,4.82C1788.594,1299.85,1788.594,1299.85,1789.521,1299.734Zm-3.5-6.021a4.615,4.615,0,0,1-.557,0c-.355-.048-.44.1-.435.442.019,1.32,0,2.64.014,3.96a4.194,4.194,0,0,0,.13,1.029,1.083,1.083,0,0,0,1.141.853,1.109,1.109,0,0,0,1.2-.824,2.578,2.578,0,0,0,.112-.742c.013-1.452.011-2.9.012-4.356,0-.1-.015-.21-.026-.36a4.01,4.01,0,0,1-.512,0c-.347-.046-.445.087-.44.435.021,1.332.013,2.664.007,4,0,.275.069.682-.313.691s-.33-.4-.332-.674c-.009-1.116,0-2.232,0-3.348Zm-10.011,6.117c0-.128.008-.211,0-.291q-.293-2.663-.591-5.326c-.056-.5-.063-.5-.584-.5a7.187,7.187,0,0,1-.756,0c-.309-.032-.41.077-.44.389-.12,1.266-.272,2.528-.409,3.792-.068.629-.129,1.258-.2,1.938a5.728,5.728,0,0,0,.79-.012.37.37,0,0,0,.248-.246c.09-.811.155-1.624.229-2.436s.149-1.617.224-2.425a8.858,8.858,0,0,1,.119.97c.106,1.255.206,2.511.325,3.765.013.133.119.348.212.366A4.563,4.563,0,0,0,1776.006,1299.831Zm6.633-2.06c-.317,0-.579-.014-.839.009a.27.27,0,0,0-.182.192,5.559,5.559,0,0,0,.094,1.1,1.209,1.209,0,0,0,1.228.966,1.186,1.186,0,0,0,1.215-.974,2.558,2.558,0,0,0-.784-2.836,2.637,2.637,0,0,1-.474-.439,1.348,1.348,0,0,1-.262-.567c-.035-.221-.062-.554.267-.563s.323.313.306.547c-.021.294.092.367.369.361.629-.014.631,0,.588-.636a2.442,2.442,0,0,0-.07-.46,1.077,1.077,0,0,0-1.057-.907,1.136,1.136,0,0,0-1.266.792,2.363,2.363,0,0,0,.54,2.591,4.233,4.233,0,0,1,.706.713,1.763,1.763,0,0,1,.242.825c.008.127-.2.268-.311.4-.1-.139-.259-.265-.3-.421A3.044,3.044,0,0,1,1782.639,1297.77Z" transform="translate(-1764.921 -1287.12)" fill="#707b9b"/>
</svg>
