<svg xmlns="http://www.w3.org/2000/svg" width="24.752" height="24.746" viewBox="0 0 24.752 24.746">
  <g id="Group_701" data-name="Group 701" transform="translate(-1159.744 -491.469)">
    <path id="Path_1870" data-name="Path 1870" d="M1179.662,512.09c-.3,1.2-.6,2.382-.891,3.563-.128.514-.186.561-.72.561h-11.86c-.536,0-.6-.048-.722-.558-.294-1.182-.59-2.363-.891-3.567H1160.3c-.423,0-.556-.132-.556-.552q0-9.757,0-19.513c0-.423.131-.556.552-.556h23.642c.423,0,.557.132.557.552q0,9.756,0,19.513c0,.423-.133.557-.552.557Zm-17.018-.843h18.944v-18.94h-18.944Zm14.109,2.482.4-1.625h-10.07l.405,1.617h1.669c.027-.152.051-.286.074-.421a.411.411,0,0,1,.439-.384q2.448,0,4.9,0a.414.414,0,0,1,.441.382l.078.431Zm-6.759.02-.269,1.628h4.793l-.272-1.628Zm5.226.816.141.815h2.628l.819-3.279h-.8c-.165.664-.328,1.32-.493,1.975-.105.419-.2.488-.62.488Zm-6.2,0h-1.593c-.533,0-.593-.048-.72-.558-.158-.637-.318-1.273-.477-1.907h-.8l.819,3.274h2.632Zm-7.232-21.458v-.793h-1.2v.793Zm21.861.006v-.8h-1.2v.8Zm-21.853.843h-1.211v.794h1.211Zm21.86,7.4v-.8h-1.2v.8Zm-21.864,0v-.8h-1.2v.8Zm-1.208,2.5v.795h1.2v-.795Zm21.86.793h1.214v-.792h-1.214Zm-20.649-2.442h-1.21V503h1.21Zm0-3.3h-1.205v.795h1.205Zm20.651-.86h1.205v-.794h-1.205ZM1160.58,506.3h1.215v-.791h-1.215Zm23.077.008v-.8h-1.206v.8Zm-23.074.847v.8h1.206v-.8Zm21.862.8h1.205v-.793h-1.205Zm-21.856-10.7v.8h1.2v-.8Zm23.073,4.96h-1.214V503h1.214Zm-21.864,6.6h-1.215v.789h1.215Zm21.853.8v-.8h-1.2v.8Zm.009-10.7h-1.205v.793h1.205Zm.006,11.547h-1.213v.787h1.213Zm-.007-14.85h-1.209v.792h1.209Zm-23.076.8h1.207v-.791h-1.207Zm21.873-2.454v.8h1.2v-.8Zm-21.873,17.3h1.206v-.795h-1.206Z" fill="#707b9b"/>
    <path id="Path_1871" data-name="Path 1871" d="M1178.37,508.388a8.663,8.663,0,1,1,8.639,8.679A8.676,8.676,0,0,1,1178.37,508.388Zm8.665-7.818a7.836,7.836,0,1,0,7.836,7.838A7.849,7.849,0,0,0,1187.035,500.57Z" transform="translate(-14.912 -6.626)" fill="#707b9b"/>
    <path id="Path_1872" data-name="Path 1872" d="M1180.849,575.459a1.236,1.236,0,1,1-1.23-1.229A1.241,1.241,0,0,1,1180.849,575.459Zm-1.245.418a.411.411,0,1,0-.4-.413A.417.417,0,0,0,1179.6,575.877Z" transform="translate(-14.918 -66.263)" fill="#707b9b"/>
    <path id="Path_1873" data-name="Path 1873" d="M1255.347,575.469a1.236,1.236,0,1,1-1.219-1.24A1.241,1.241,0,0,1,1255.347,575.469Zm-1.249.407a.411.411,0,1,0-.4-.416A.417.417,0,0,0,1254.1,575.877Z" transform="translate(-74.565 -66.263)" fill="#707b9b"/>
    <path id="Path_1874" data-name="Path 1874" d="M1180.846,501a1.236,1.236,0,1,1-1.214-1.244A1.242,1.242,0,0,1,1180.846,501Zm-1.255.4a.411.411,0,1,0-.391-.424A.416.416,0,0,0,1179.59,501.4Z" transform="translate(-14.916 -6.632)" fill="#707b9b"/>
    <path id="Path_1875" data-name="Path 1875" d="M1255.343,500.994a1.236,1.236,0,1,1-1.217-1.242A1.242,1.242,0,0,1,1255.343,500.994Zm-.825-.009a.411.411,0,1,0-.4.413A.413.413,0,0,0,1254.518,500.985Z" transform="translate(-74.562 -6.632)" fill="#707b9b"/>
    <path id="Path_1876" data-name="Path 1876" d="M1190.21,513.6c-.469-.071-.936-.175-1.407-.2a6.51,6.51,0,0,0-1.2.078c-.562.074-.769-.154-.587-.689a7.085,7.085,0,0,1,1.573-2.6.524.524,0,0,1,.553-.168,6.43,6.43,0,0,1,2.852,1.474,1.168,1.168,0,0,0,.2.15,5,5,0,0,0-1.331-1.7c-.164-.138-.345-.256-.512-.39a.409.409,0,0,1,.063-.731,7.027,7.027,0,0,1,3.14-.8.514.514,0,0,1,.472.3,6.493,6.493,0,0,1,.964,3.062.652.652,0,0,0,.037.2,4.94,4.94,0,0,0,.258-2.092c-.022-.23-.067-.459-.087-.69a.4.4,0,0,1,.534-.456,6.675,6.675,0,0,1,2.84,1.707.566.566,0,0,1,.095.445,6.177,6.177,0,0,1-1.469,2.879l-.152.175s0,.012,0,.043a4.824,4.824,0,0,0,1.37-.993,10.411,10.411,0,0,0,.693-.829c.264-.337.593-.317.788.063a7.262,7.262,0,0,1,.778,2.965.635.635,0,0,1-.36.645,6.616,6.616,0,0,1-3.024.925c-.058,0-.116.01-.173.014l-.011.085c.477.07.952.173,1.432.2a6.309,6.309,0,0,0,1.179-.078c.563-.075.77.154.588.688a7.11,7.11,0,0,1-1.573,2.6.523.523,0,0,1-.552.169,6.444,6.444,0,0,1-2.853-1.473l-.174-.152s-.012,0-.046-.006a4.936,4.936,0,0,0,1.066,1.448c.237.223.5.419.757.619.339.263.318.592-.065.788a7.157,7.157,0,0,1-3.018.776.561.561,0,0,1-.552-.3,6.528,6.528,0,0,1-.964-3.063c0-.065-.011-.131-.016-.2l-.083-.011c-.071.468-.175.935-.2,1.406a6.488,6.488,0,0,0,.078,1.2c.074.561-.155.768-.691.585a7.143,7.143,0,0,1-2.584-1.555.556.556,0,0,1-.181-.6,6.455,6.455,0,0,1,1.47-2.826,1.207,1.207,0,0,0,.15-.2,4.554,4.554,0,0,0-1.443,1.045c-.223.236-.419.5-.618.757-.262.338-.591.314-.787-.068a7.132,7.132,0,0,1-.776-3.017.56.56,0,0,1,.3-.55,6.518,6.518,0,0,1,3.089-.965c.057,0,.114-.01.171-.015Zm5.1,1.414a1.65,1.65,0,1,0-1.644,1.663A1.652,1.652,0,0,0,1195.306,515.018Zm-4.123-.411a1.043,1.043,0,0,0-.134-.035,5.521,5.521,0,0,0-3.083.477c-.506.233-.527.24-.437.794.079.488.215.967.336,1.491a7.417,7.417,0,0,1,3.206-2.062.206.206,0,0,0,.107-.142C1191.191,514.961,1191.183,514.791,1191.183,514.607Zm2.68,2.895h-.631a.738.738,0,0,0-.033.114,5.523,5.523,0,0,0,.466,3.084c.241.528.247.549.806.458.487-.079.966-.216,1.448-.327A7.019,7.019,0,0,1,1193.863,517.5Zm5.548-4.727a6.848,6.848,0,0,1-3.287,2.075v.6a5.346,5.346,0,0,0,3.618-.646.21.21,0,0,0,.088-.16A5.894,5.894,0,0,0,1199.411,512.775Zm-5.339-.212a5.382,5.382,0,0,0-.655-3.634.23.23,0,0,0-.17-.069,5.957,5.957,0,0,0-1.872.428,6.5,6.5,0,0,1,2.075,3.275Zm-2.317.867.436-.5a5.591,5.591,0,0,0-2.858-2.014.309.309,0,0,0-.412.124c-.194.293-.413.569-.6.865-.129.2-.224.426-.351.672A6.529,6.529,0,0,1,1191.755,513.43Zm-.127,3.042a5.388,5.388,0,0,0-2.11,3.013.222.222,0,0,0,.043.176,5.8,5.8,0,0,0,1.573,1.015,17,17,0,0,1,.226-1.933,17.474,17.474,0,0,1,.641-1.869Zm3.467.59a5.422,5.422,0,0,0,3.022,2.108.221.221,0,0,0,.175-.048,5.867,5.867,0,0,0,1.04-1.639,6.532,6.532,0,0,1-3.775-.85Zm.6-3.457a5.5,5.5,0,0,0,2.1-3.052.183.183,0,0,0-.047-.152,5.943,5.943,0,0,0-1.644-1.046,6.535,6.535,0,0,1-.852,3.774Z" transform="translate(-21.536 -13.252)" fill="#707b9b"/>
  </g>
</svg>
