<svg xmlns="http://www.w3.org/2000/svg" xmlns:xlink="http://www.w3.org/1999/xlink" width="25" height="25" viewBox="0 0 25 25">
  <defs>
    <clipPath id="clip-path">
      <rect id="Rectangle_727" data-name="Rectangle 727" width="25" height="25" transform="translate(6146 245)" fill="#707b9b"/>
    </clipPath>
  </defs>
  <g id="Mask_Group_140" data-name="Mask Group 140" transform="translate(-6146 -245)" clip-path="url(#clip-path)">
    <g id="_011-ssd" data-name="011-ssd" transform="translate(6149.106 245)">
      <g id="Page-1_10_" transform="translate(0)">
        <g id="_x30_11---SSD">
          <path id="Shape_82_" d="M5.84,0A2.836,2.836,0,0,0,3.1,2.917V22.083A2.836,2.836,0,0,0,5.84,25H19.148a2.836,2.836,0,0,0,2.74-2.917V2.917A2.836,2.836,0,0,0,19.148,0ZM21.105,18.333H8.188A4.456,4.456,0,0,1,3.883,13.75V6.667H16.8a4.456,4.456,0,0,1,4.306,4.583ZM10.537,22.5v1.667H9.754V22.5Zm1.566,0v1.667H11.32V22.5Zm1.566,0v1.667h-.783V22.5Zm1.566,0v1.667h-.783V22.5ZM8.971,24.167H8.188v-1.25A.4.4,0,0,1,8.58,22.5h.391v1.667Zm7.045,0V22.5h.391a.4.4,0,0,1,.391.417v1.25Zm3.131,0H17.582v-1.25a1.214,1.214,0,0,0-1.174-1.25H8.58a1.214,1.214,0,0,0-1.174,1.25v1.25H5.84a2.026,2.026,0,0,1-1.957-2.083V16.625a5.022,5.022,0,0,0,4.306,2.542H21.105v2.917A2.026,2.026,0,0,1,19.148,24.167Zm1.957-21.25V8.375A5.022,5.022,0,0,0,16.8,5.833H3.883V2.917A2.026,2.026,0,0,1,5.84.833H19.148A2.026,2.026,0,0,1,21.105,2.917Z" transform="translate(-3.1)" fill="#707b9b"/>
          <path id="Shape_81_" d="M6.341,2.067a1.214,1.214,0,0,0-1.174,1.25,1.214,1.214,0,0,0,1.174,1.25,1.214,1.214,0,0,0,1.174-1.25,1.214,1.214,0,0,0-1.174-1.25Zm0,1.667a.417.417,0,1,1,.391-.417A.4.4,0,0,1,6.341,3.733Z" transform="translate(-3.601 -0.4)" fill="#707b9b"/>
          <path id="Shape_80_" d="M22.733,3.317a1.177,1.177,0,1,0,2.348,0,1.177,1.177,0,1,0-2.348,0Zm1.566,0a.392.392,0,1,1-.391-.417.4.4,0,0,1,.391.417Z" transform="translate(-7.86 -0.4)" fill="#707b9b"/>
          <path id="Shape_79_" d="M6.341,25.833a1.252,1.252,0,0,0,0,2.5,1.252,1.252,0,0,0,0-2.5Zm0,1.667a.417.417,0,1,1,.391-.417A.4.4,0,0,1,6.341,27.5Z" transform="translate(-3.601 -5)" fill="#707b9b"/>
          <path id="Shape_78_" d="M23.908,25.833a1.176,1.176,0,0,0-1.085.772,1.31,1.31,0,0,0,.255,1.362,1.123,1.123,0,0,0,1.28.271,1.253,1.253,0,0,0,.725-1.155A1.214,1.214,0,0,0,23.908,25.833Zm0,1.667a.417.417,0,1,1,.391-.417A.4.4,0,0,1,23.908,27.5Z" transform="translate(-7.86 -5)" fill="#707b9b"/>
          <path id="Shape_77_" d="M8.674,12.717c.636,0,1.174.382,1.174.833a.392.392,0,1,0,.783,0,1.831,1.831,0,0,0-1.957-1.667A1.831,1.831,0,0,0,6.717,13.55a1.831,1.831,0,0,0,1.957,1.667c.636,0,1.174.382,1.174.833s-.538.833-1.174.833S7.5,16.5,7.5,16.05a.392.392,0,1,0-.783,0,1.831,1.831,0,0,0,1.957,1.667,1.831,1.831,0,0,0,1.957-1.667,1.831,1.831,0,0,0-1.957-1.667C8.037,14.383,7.5,14,7.5,13.55s.538-.833,1.174-.833Z" transform="translate(-3.977 -2.3)" fill="#707b9b"/>
          <path id="Shape_76_" d="M14.874,12.717c.636,0,1.174.382,1.174.833a.392.392,0,1,0,.783,0,1.831,1.831,0,0,0-1.957-1.667,1.831,1.831,0,0,0-1.957,1.667,1.831,1.831,0,0,0,1.957,1.667c.636,0,1.174.382,1.174.833s-.538.833-1.174.833S13.7,16.5,13.7,16.05a.392.392,0,1,0-.783,0,1.831,1.831,0,0,0,1.957,1.667,1.831,1.831,0,0,0,1.957-1.667,1.831,1.831,0,0,0-1.957-1.667c-.636,0-1.174-.382-1.174-.833s.538-.833,1.174-.833Z" transform="translate(-5.48 -2.3)" fill="#707b9b"/>
          <path id="Shape_75_" d="M20.291,11.883h-.783a.4.4,0,0,0-.391.417v5a.4.4,0,0,0,.391.417h.783a2.832,2.832,0,0,0,2.74-2.917A2.832,2.832,0,0,0,20.291,11.883Zm0,5H19.9V12.717h.391a2.087,2.087,0,0,1,0,4.167Z" transform="translate(-6.983 -2.3)" fill="#707b9b"/>
        </g>
      </g>
    </g>
  </g>
</svg>
