<svg xmlns="http://www.w3.org/2000/svg" width="28.693" height="29.176" viewBox="0 0 28.693 29.176">
  <g id="Group_777" data-name="Group 777" transform="translate(-1801.808 -2300.707)">
    <g id="Group_776" data-name="Group 776" transform="translate(1801.808 2300.707)">
      <path id="Path_2238" data-name="Path 2238" d="M1823.666,2329.883h-.006q-5.771-.013-11.543-.015l-3.175,0h-.188c-.11,0-.22,0-.331,0a1.524,1.524,0,0,1-1.427-.919c-.058-.125-.116-.25-.174-.374-.115-.245-.23-.491-.339-.739-.37.006-.741.006-1.112.005h-.514c0,.031,0,.061-.007.092-.009.11-.017.22-.028.331a.908.908,0,0,1-.788.869.952.952,0,0,1-1.032-.627l-.012-.029h-.015a1,1,0,0,1-1.12-.966,4.256,4.256,0,0,1,.018-1.381.988.988,0,0,1,1.005-.909c0-.207,0-.414,0-.621.005-.56.011-1.14-.011-1.7a1.412,1.412,0,0,1,1.411-1.475h0q0-1.239,0-2.478c0-1.931.007-3.929-.022-5.89-.012-.751-.016-1.5-.02-2.254-.005-.84-.01-1.681-.025-2.521a2.559,2.559,0,0,1,.427-1.44l.04-.063c.567-.9,1.153-1.833,1.682-2.771.222-.394.461-.779.693-1.151.125-.2.25-.4.373-.605.063-.1.12-.211.178-.318l.089-.164a1.624,1.624,0,0,1,1.592-.887,22.642,22.642,0,0,0,2.827-.026,18.217,18.217,0,0,1,2.722-.048,1.238,1.238,0,0,0,.289-.031l.132-.021a3.851,3.851,0,0,1,1.221.008,7.2,7.2,0,0,0,2.119.062,6.952,6.952,0,0,1,1.482.013l.367.031a3.93,3.93,0,0,0,.459.026c.245-.007.489,0,.734,0a9.915,9.915,0,0,0,1.282-.04,1.315,1.315,0,0,1,1.107.431,4.347,4.347,0,0,1,.669.926l.087.146q.5.833,1,1.667l.937,1.562c.286.479.573.958.865,1.433a2.031,2.031,0,0,1,.3,1.065c.013.9-.01,1.809-.032,2.689-.019.75-.038,1.525-.035,2.284.009,2.221,0,4.478,0,6.66l0,1.72a2.688,2.688,0,0,1,.534.043,1.192,1.192,0,0,1,1.05,1.2c.01.143.008.277.007.407v.525l0,.54v.422q0,.349,0,.7a1.062,1.062,0,0,1,1.068,1.025,10.69,10.69,0,0,1-.007,1.242.986.986,0,0,1-1.1,1.01h-.046a.885.885,0,0,1-.892.677h-.013a.93.93,0,0,1-.939-.925,3.177,3.177,0,0,1,.027-.367l0-.03c-.236,0-.473,0-.71,0-.4,0-.792,0-1.188,0-.1.224-.21.442-.315.652-.073.146-.147.292-.217.439A1.489,1.489,0,0,1,1823.666,2329.883Zm-14.722-1.122,3.174,0q5.772,0,11.545.014h0a.393.393,0,0,0,.429-.265c.074-.155.151-.308.227-.461.111-.221.215-.429.31-.642a.964.964,0,0,1,.931-.62h.066a.606.606,0,0,1-.264-.226.792.792,0,0,1,.02-.787c.132-.3.271-.6.41-.9l.811-1.741a1.676,1.676,0,0,0,.07-.178,1.05,1.05,0,0,1,.331-.55.725.725,0,0,1-.064-.054.975.975,0,0,1-.221-.762l0-1.881c0-2.181.009-4.436,0-6.654,0-.775.017-1.558.035-2.315.022-.869.044-1.768.032-2.647a.935.935,0,0,0-.14-.5c-.294-.479-.582-.961-.871-1.443l-.936-1.561-1-1.666-.091-.153a3.466,3.466,0,0,0-.5-.7c-.085-.084-.15-.123-.2-.119a11,11,0,0,1-1.425.048c-.231,0-.463-.006-.694,0a5.409,5.409,0,0,1-.587-.03l-.358-.03-.2-.016c.017.034.034.071.05.111s.032.084.2.086c.232,0,.5.006.758-.008a.842.842,0,0,1,.811.432q.709,1.174,1.426,2.343l.393.645c.059.1.119.2.185.293a1.785,1.785,0,0,1,.315,1.066q0,2.918.01,5.835l0,.531c0,.121.008.242.015.363,0,.073.009.146.012.219l0,.051a1.732,1.732,0,0,1,0,.284,1.232,1.232,0,0,1-1.381,1.283h-.009q-4.683-.016-9.366-.013h-3.248a3.119,3.119,0,0,1-.646-.048.949.949,0,0,1-.8-.831,2.233,2.233,0,0,1-.021-.375v-.031c0-.255,0-.511,0-.766,0-.6-.009-1.221.02-1.837.045-.969.041-1.962.037-2.921,0-.591,0-1.181,0-1.772a1.59,1.59,0,0,1,.12-.671l0-.017a1.24,1.24,0,0,1,.226-1.106c.088-.117.17-.239.253-.36l.059-.087a.975.975,0,0,1,.632-.429c.031-.006.078-.058.138-.155.255-.411.518-.836.754-1.262a1.043,1.043,0,0,1,1.011-.585c.249.01.5,0,.769-.006l.053,0h.03c0-.013-.006-.028-.01-.044a.727.727,0,0,1-.017-.209l-.353.027a23.767,23.767,0,0,1-2.965.029.523.523,0,0,0-.581.317l-.083.153c-.066.124-.133.247-.206.367-.125.206-.252.411-.38.616-.225.363-.459.738-.669,1.11-.542.961-1.136,1.9-1.709,2.817l-.04.063a1.456,1.456,0,0,0-.257.833c.015.845.02,1.69.025,2.535,0,.748.009,1.5.02,2.244.03,1.971.026,3.973.023,5.909q0,1.239,0,2.477v.066a1.041,1.041,0,0,1-.23.836.674.674,0,0,1-.089.074.89.89,0,0,1,.294.36l1.362,2.976a1.028,1.028,0,0,1,.054.118.664.664,0,0,1-.151.852l-.035.027a.954.954,0,0,1,.878.609c.111.258.231.511.35.765.059.126.119.254.178.381a.424.424,0,0,0,.441.277c.1,0,.2,0,.3,0Zm-5.991-1.393h.042a.943.943,0,0,1,.774.252l.006-.072c.041-.418.175-.651.462-.753a.744.744,0,0,1-.452-.744,1.029,1.029,0,0,1-.809.27h-.015a3.116,3.116,0,0,0-.016,1Zm25.111-.549a.728.728,0,0,1,.37.2.792.792,0,0,1,.208.525,1.148,1.148,0,0,1,.529-.109h.207a9.619,9.619,0,0,0,.005-1.068h-.011c-.014,0-.031,0-.047.005l-.093.009a.868.868,0,0,1-.658-.154A.684.684,0,0,1,1828.064,2326.82Zm-1.044-.32a.667.667,0,0,1-.338.292h.673A.763.763,0,0,1,1827.021,2326.5Zm-21.939.235h.7a.81.81,0,0,1-.284-.283.77.77,0,0,1-.07-.158.227.227,0,0,0-.047.066.864.864,0,0,1-.314.374Zm24.334-.36Zm-26.537-.048Zm3.908-.463,0,.005Zm-1.9-1.494v.536c0,.139,0,.279,0,.418a1.344,1.344,0,0,1,.364-.16Zm22.076.752a.992.992,0,0,1,.541.14q0-.09.01-.178c.019-.332.036-.645.024-.939v-.39l-.638,1.369Zm-17.36-10.8a2.8,2.8,0,0,0,.364.015l3.248,0q4.685,0,9.369.013a.647.647,0,0,0,.238-.024,1.039,1.039,0,0,0,.05-.267.726.726,0,0,0,0-.109l0-.065c0-.066-.007-.133-.011-.2-.008-.142-.016-.283-.017-.425l0-.531q-.009-2.92-.01-5.841a.69.69,0,0,0-.113-.428c-.082-.116-.156-.239-.229-.361l-.389-.638q-.684-1.12-1.365-2.241c-.249.009-.492.007-.7,0a1.224,1.224,0,0,1-1.2-.767,4.574,4.574,0,0,1-.8-.021c-.111-.01-.222-.02-.333-.025h-.041a8.639,8.639,0,0,0-1.724.037,1.342,1.342,0,0,1-.535-.011,3.969,3.969,0,0,0-1.263-.028c-.126.01-.251.02-.377.028l-.053,0a.936.936,0,0,1-.183.448,1.13,1.13,0,0,1-.916.4h-.052c-.272.008-.552.018-.838.006l-.01.017c-.249.448-.52.885-.781,1.307a1.324,1.324,0,0,1-.81.645l-.044.065c-.093.137-.187.274-.287.406-.055.073-.052.106-.039.152a1.054,1.054,0,0,1-.057.761.809.809,0,0,0-.021.229c-.008.585-.006,1.169,0,1.753,0,.973.008,1.979-.038,2.976-.027.587-.023,1.193-.019,1.779,0,.259,0,.518,0,.777v.033C1809.6,2314.238,1809.6,2314.282,1809.6,2314.321Zm-.925-8.117Zm1.368-.931h0Zm2.649-3.111Z" transform="translate(-1801.808 -2300.707)" fill="#707b9b"/>
    </g>
    <path id="Path_2239" data-name="Path 2239" d="M1832.9,2301.333l13.635-.025-1.295,1.144-12.34-.572Z" transform="translate(-23.61 -0.456)" fill="#707b9b"/>
  </g>
</svg>
