<svg xmlns="http://www.w3.org/2000/svg" xmlns:xlink="http://www.w3.org/1999/xlink" width="25" height="25" viewBox="0 0 25 25">
  <defs>
    <clipPath id="clip-path">
      <rect id="Rectangle_698" data-name="Rectangle 698" width="25" height="25" transform="translate(-14080 -16903)" fill="#707b9b" stroke="#707070" stroke-width="1"/>
    </clipPath>
  </defs>
  <g id="Mask_Group_136" data-name="Mask Group 136" transform="translate(14080 16903)" clip-path="url(#clip-path)">
    <g id="Server_Workstations" data-name="Server &amp; Workstations" transform="translate(-14080.382 -16903.377)">
      <path id="Path_935" data-name="Path 935" d="M25.382,10.61V7.832a5.321,5.321,0,0,0-.817-1.7l-.181-.287c-.232-.378-.469-.751-.706-1.129-.6-.968-1.225-1.966-1.83-2.954A2.677,2.677,0,0,0,19.385.383h-.02c-4.3.01-8.674.01-12.983,0a2.706,2.706,0,0,0-2.46,1.366C3.039,3.2,2.082,4.743.912,6.6A3.2,3.2,0,0,0,.388,8.437c.02.469.02.943,0,1.406a2.73,2.73,0,0,0,1.069,2.48l.086.066-.091.055c-.03.02-.06.035-.086.05a.421.421,0,0,0-.086.055,2.528,2.528,0,0,0-.887,1.956v1.94A2.51,2.51,0,0,0,1.326,18.5a.75.75,0,0,1,.086.091l.066.071-.06.05a2.44,2.44,0,0,0-.892,1.27,4.061,4.061,0,0,0-.126.827c-.01.3-.005.6-.005.9.005.323.005.66-.005.988A2.59,2.59,0,0,0,2.52,25.337a.133.133,0,0,1,.081.035H23.19l.161-.045c.091-.025.176-.05.262-.081a2.575,2.575,0,0,0,1.719-1.92.471.471,0,0,1,.035-.111.347.347,0,0,1,.015-.04V20.4c-.02-.066-.035-.131-.055-.2a1.592,1.592,0,0,0-.161-.459c-.151-.252-.328-.5-.494-.736-.086-.116-.171-.237-.252-.358l-.03-.045.035-.045c.05-.06.106-.121.166-.186a2.754,2.754,0,0,0,.383-.479,4.792,4.792,0,0,0,.3-.7c.035-.1.076-.2.111-.3V14.123c-.025-.076-.045-.151-.066-.227a1.871,1.871,0,0,0-.151-.438c-.151-.252-.323-.494-.494-.731-.086-.116-.171-.237-.252-.358l-.03-.045.035-.045c.05-.06.106-.121.166-.186a2.753,2.753,0,0,0,.383-.479,4.792,4.792,0,0,0,.3-.7C25.307,10.811,25.347,10.71,25.382,10.61ZM2.661,5.5c.247-.4.489-.786.726-1.174l.363-.58c.146-.232.287-.469.433-.7.186-.3.383-.615.575-.922A1.7,1.7,0,0,1,6.29,1.275H19.5a1.556,1.556,0,0,1,1.406.675c.514.791,1.018,1.608,1.512,2.394.237.383.479.771.721,1.159l.071.116H2.591ZM24.415,20.317a1.254,1.254,0,0,1,.05.307c0,.227,0,.454.005.675.005.59.01,1.2-.025,1.8a1.591,1.591,0,0,1-1.658,1.386H3.12a1.665,1.665,0,0,1-1.658-.937,1.6,1.6,0,0,1-.166-.665v-.176c-.01-.7-.02-1.421.02-2.137a1.578,1.578,0,0,1,1.472-1.467c.116-.01.237-.01.348-.01H22.716A1.646,1.646,0,0,1,24.415,20.317Zm.005-6.28a1.254,1.254,0,0,1,.05.307c0,.252,0,.514.005.761.005.564.01,1.144-.03,1.719a1.6,1.6,0,0,1-1.638,1.381H3.14A1.669,1.669,0,0,1,1.3,16.6v-.176c-.01-.7-.02-1.421.02-2.137a1.574,1.574,0,0,1,1.426-1.457,3.64,3.64,0,0,1,.4-.015H22.731A1.657,1.657,0,0,1,24.42,14.037Zm.03-3.5a1.6,1.6,0,0,1-1.663,1.381H3.125a1.665,1.665,0,0,1-1.658-.937,1.6,1.6,0,0,1-.166-.665v-.176c-.01-.7-.02-1.421.02-2.132A1.578,1.578,0,0,1,2.792,6.537c.116-.01.237-.01.348-.01h9.743c3.226,0,6.557,0,9.848.005a1.638,1.638,0,0,1,1.688,1.22,1.254,1.254,0,0,1,.05.307v.756C24.485,9.375,24.485,9.959,24.45,10.534Z" fill="#707b9b"/>
      <path id="Path_936" data-name="Path 936" d="M21.572,7.717H13.624c-.438,0-.66.151-.66.454s.227.449.665.449h7.948a.76.76,0,0,0,.554-.166.388.388,0,0,0,.106-.287C22.237,7.868,22.01,7.717,21.572,7.717Z" fill="#707b9b"/>
      <path id="Path_937" data-name="Path 937" d="M21.6,9.818h-8.12a.536.536,0,0,0-.393.151.427.427,0,0,0-.116.3.457.457,0,0,0,.5.438h8.14c.277,0,.615-.076.62-.438a.409.409,0,0,0-.106-.292A.73.73,0,0,0,21.6,9.818Z" fill="#707b9b"/>
      <path id="Path_938" data-name="Path 938" d="M3.982,7.722a1.489,1.489,0,1,0,1.5,1.5A1.471,1.471,0,0,0,5.045,8.17,1.5,1.5,0,0,0,3.982,7.722ZM4.4,9.642a.6.6,0,0,1-.4.171h-.02a.6.6,0,0,1-.408-.186.587.587,0,0,1-.171-.418.6.6,0,0,1,.595-.585.58.58,0,0,1,.59.585A.615.615,0,0,1,4.4,9.642Z" fill="#707b9b"/>
      <path id="Path_939" data-name="Path 939" d="M13.619,14.909h7.969c.423,0,.64-.151.645-.444a.4.4,0,0,0-.1-.3A.754.754,0,0,0,21.582,14H13.614c-.418,0-.635.151-.645.444a.4.4,0,0,0,.1.3A.786.786,0,0,0,13.619,14.909Z" fill="#707b9b"/>
      <path id="Path_940" data-name="Path 940" d="M21.794,16.108c-.277-.01-.565-.01-.837-.005H13.568c-.217,0-.59.055-.6.438a.362.362,0,0,0,.1.282.688.688,0,0,0,.5.166H21.6a1.394,1.394,0,0,0,.328-.025.438.438,0,0,0-.136-.857Z" fill="#707b9b"/>
      <path id="Path_941" data-name="Path 941" d="M5.479,15.5A1.511,1.511,0,0,0,5.02,14.44a1.488,1.488,0,1,0-1.043,2.55h.01A1.494,1.494,0,0,0,5.479,15.5ZM4,16.1h-.02a.611.611,0,0,1-.595-.6.6.6,0,0,1,.595-.585.589.589,0,0,1,.59.585A.583.583,0,0,1,4,16.1Z" fill="#707b9b"/>
      <path id="Path_942" data-name="Path 942" d="M13.619,21.194h7.969a.786.786,0,0,0,.549-.166.385.385,0,0,0,.1-.292c-.01-.3-.227-.444-.65-.444H13.619a.754.754,0,0,0-.549.166.39.39,0,0,0-.1.3C12.978,21.048,13.19,21.194,13.619,21.194Z" fill="#707b9b"/>
      <path id="Path_943" data-name="Path 943" d="M22.237,22.887a.439.439,0,0,1-.459.388c-.3.005-.615.005-.917.005H13.629a1.736,1.736,0,0,1-.282-.015.441.441,0,0,1-.378-.413.448.448,0,0,1,.323-.438.788.788,0,0,1,.222-.025h8.175a.581.581,0,0,1,.459.176A.4.4,0,0,1,22.237,22.887Z" fill="#707b9b"/>
      <path id="Path_944" data-name="Path 944" d="M3.992,20.3H3.977a1.446,1.446,0,0,0-1.033.433,1.49,1.49,0,0,0,1.038,2.55,1.52,1.52,0,0,0,1.074-.454,1.432,1.432,0,0,0,.428-1.038A1.522,1.522,0,0,0,3.992,20.3Zm.4,1.915a.577.577,0,0,1-.408.171h-.01a.616.616,0,0,1-.59-.595.6.6,0,0,1,.59-.59h0a.585.585,0,0,1,.595.575A.609.609,0,0,1,4.4,22.212Z" fill="#707b9b"/>
    </g>
  </g>
</svg>
