<svg xmlns="http://www.w3.org/2000/svg" width="29.224" height="32.353" viewBox="0 0 29.224 32.353">
  <g id="Group_775" data-name="Group 775" transform="translate(-1654.674 -2299.259)">
    <path id="Path_2228" data-name="Path 2228" d="M1659.371,2303.956c0-1.368,0-2.683,0-4,0-.532.168-.7.7-.7h4.859c.532,0,.7.168.7.7,0,1.314,0,2.629,0,3.994.365,0,.719-.005,1.073,0a3.625,3.625,0,0,1,3.514,2.811,4.192,4.192,0,0,1,.106.967q.009,10.564,0,21.129a2.611,2.611,0,0,1-2.742,2.746q-5.087,0-10.175,0a2.611,2.611,0,0,1-2.738-2.751q0-10.548,0-21.1a3.657,3.657,0,0,1,3.824-3.807Zm9.916,14.316q0-5.265,0-10.53a2.61,2.61,0,0,0-2.745-2.742q-4.026,0-8.053,0a2.615,2.615,0,0,0-2.769,2.783q0,10.514,0,21.027a1.584,1.584,0,0,0,1.751,1.757h10.042a1.588,1.588,0,0,0,1.775-1.766Q1669.287,2323.536,1669.287,2318.271Zm-4.712-17.95h-4.138v3.61h4.138Z" fill="#707b9b"/>
    <path id="Path_2229" data-name="Path 2229" d="M1727.549,2398.216a2.637,2.637,0,0,1-4.52.585,2.688,2.688,0,0,1-2.061.455,2.6,2.6,0,0,1-1.842-3.708,2.658,2.658,0,0,1,2.843-1.423,2.638,2.638,0,0,1,4.673-1.68,3.133,3.133,0,0,1,4.5,3.884C1730.582,2397.691,1729.515,2398.251,1727.549,2398.216Zm2.79-3.22a2.086,2.086,0,0,0-3.374-1.489c-.46.354-.711.315-1-.167a1.556,1.556,0,0,0-2.084-.632,1.533,1.533,0,0,0-.682,2.059.541.541,0,0,1-.1.709.525.525,0,0,1-.714-.021,1.157,1.157,0,0,0-.135-.091,1.512,1.512,0,0,0-1.692.059,1.478,1.478,0,0,0-.651,1.56A1.458,1.458,0,0,0,1721,2398.2a1.526,1.526,0,0,0,1.693-.531c.253-.295.564-.359.788-.149a1.311,1.311,0,0,1,.236.381,1.551,1.551,0,0,0,2.908-.3c.153-.605.344-.711.927-.509A2.1,2.1,0,0,0,1730.338,2395Z" transform="translate(-47.485 -68.221)" fill="#707b9b"/>
    <path id="Path_2230" data-name="Path 2230" d="M1737.567,2366.73a2.565,2.565,0,0,1-2.448-3.385,15.428,15.428,0,0,1,2.015-3.671.5.5,0,0,1,.836-.04,12.811,12.811,0,0,1,2.136,4.035A2.553,2.553,0,0,1,1737.567,2366.73Zm.1-5.816-.15.023c-.319.564-.65,1.121-.953,1.694a7.786,7.786,0,0,0-.472,1.067,1.48,1.48,0,0,0,.564,1.694,1.561,1.561,0,0,0,1.826,0,1.417,1.417,0,0,0,.554-1.691C1738.626,2362.753,1738.132,2361.841,1737.672,2360.913Z" transform="translate(-59.414 -44.512)" fill="#707b9b"/>
    <path id="Path_2231" data-name="Path 2231" d="M1662.7,2347.262q0-3.814,0-7.628a2.1,2.1,0,0,1,2.278-2.268h6.944a2.093,2.093,0,0,1,2.259,2.255q0,7.66,0,15.321a2.1,2.1,0,0,1-2.262,2.252q-3.488,0-6.977,0a2.094,2.094,0,0,1-2.242-2.239Q1662.7,2351.108,1662.7,2347.262Zm1.044.026q0,3.832,0,7.663a1.068,1.068,0,0,0,1.207,1.2h6.979a1.065,1.065,0,0,0,1.207-1.2q0-7.663,0-15.326a1.074,1.074,0,0,0-1.224-1.215h-6.947a1.069,1.069,0,0,0-1.222,1.215Q1663.742,2343.456,1663.742,2347.288Z" transform="translate(-5.937 -28.193)" fill="#707b9b"/>
    <path id="Path_2232" data-name="Path 2232" d="M1678.876,2351.138a2.048,2.048,0,0,1-1.957-2.7,11.317,11.317,0,0,1,1.523-2.788.513.513,0,0,1,.88.006,11.27,11.27,0,0,1,1.52,2.789A2.047,2.047,0,0,1,1678.876,2351.138Zm.078-4.223-.149-.007c-.3.62-.616,1.235-.9,1.864a.9.9,0,0,0-.029.537,1.022,1.022,0,0,0,1.284.743.983.983,0,0,0,.677-1.332C1679.581,2348.1,1679.252,2347.515,1678.953,2346.915Z" transform="translate(-16.378 -34.139)" fill="#707b9b"/>
    <path id="Path_2233" data-name="Path 2233" d="M1675.969,2382.595h-5.177v-1h5.177Z" transform="translate(-11.925 -60.912)" fill="#707b9b"/>
    <path id="Path_2234" data-name="Path 2234" d="M1670.778,2390.584v-1h4.667v1Z" transform="translate(-11.914 -66.823)" fill="#707b9b"/>
    <path id="Path_2235" data-name="Path 2235" d="M1674.436,2373.555v1h-3.612v-1Z" transform="translate(-11.948 -54.967)" fill="#707b9b"/>
    <path id="Path_2236" data-name="Path 2236" d="M1694.909,2389.608v1h-2.058v-1Z" transform="translate(-28.245 -66.843)" fill="#707b9b"/>
    <path id="Path_2237" data-name="Path 2237" d="M1696.4,2381.557v1h-1.531v-1Z" transform="translate(-29.74 -60.887)" fill="#707b9b"/>
  </g>
</svg>
