<svg xmlns="http://www.w3.org/2000/svg" width="14.608" height="30" viewBox="0 0 14.608 30">
  <path id="Path_2048" data-name="Path 2048" d="M2181.579,1311.942a.7.7,0,0,0-.663-.778q-2.774-.4-5.548-.8l-2.27-.329a.427.427,0,0,1-.082-.03h-.24l-4.132,2.308c-.427.239-.851.484-1.282.715a.6.6,0,0,0-.344.579q.025,12.221.047,24.442a.708.708,0,0,0,.682.792q2.765.4,5.532.8c.766.111,1.531.222,2.3.351-.034,0-.068.01-.1.01h.407l1.273-.714q2.066-1.157,4.134-2.312a.605.605,0,0,0,.338-.583Q2181.6,1324.166,2181.579,1311.942Zm-5.724,11.341-7.363-1.066v-.635l1.729.25,4.657.676c.287.042.573.085.861.122.086.011.121.044.117.133C2175.85,1322.93,2175.854,1323.1,2175.854,1323.283Zm-.008.375v.634l-7.352-1.064v-.636Zm0-2.395-7.356-1.064v-.635l1.165.168,4.684.679c.465.067.928.139,1.394.2.091.012.117.047.115.132C2175.844,1320.908,2175.847,1321.072,2175.847,1321.262Zm0-1.01-7.358-1.066v-.633l1.5.217,4.669.677c.356.052.711.1,1.068.152.083.011.123.039.119.131C2175.842,1319.9,2175.846,1320.068,2175.846,1320.253Zm-7.485,8.893-.935-.134v-.436c.294.042.579.081.862.127a.121.121,0,0,1,.07.09C2168.367,1328.9,2168.361,1329.012,2168.361,1329.146Zm0,2.033c-.3-.043-.585-.082-.868-.127a.107.107,0,0,1-.068-.076c-.008-.118,0-.236,0-.367.3.043.581.081.861.126a.119.119,0,0,1,.075.085C2168.371,1330.934,2168.365,1331.048,2168.365,1331.179Zm-.936-3.183v-.434l.923.133v.433Zm.925-3.921-.934-.132v-.435c.289.041.569.077.848.123a.133.133,0,0,1,.082.094C2168.362,1323.833,2168.355,1323.943,2168.355,1324.075Zm-.944-3.617.927.132v.434l-.927-.131Zm0-.581v-.435l.925.133v.434Zm.927,1.73v.435l-.921-.131v-.434Zm-.922.885.927.132v.434l-.927-.13Zm.924-5.531c-.3-.043-.586-.082-.869-.126a.107.107,0,0,1-.069-.074c-.008-.118,0-.236,0-.369.3.042.57.077.839.123a.156.156,0,0,1,.1.107A2.758,2.758,0,0,1,2168.339,1316.961Zm-.942-2.6.931.134v.433l-.931-.132Zm0,1.016c.295.042.567.077.838.123a.157.157,0,0,1,.1.107,2.719,2.719,0,0,1,0,.339c-.3-.044-.59-.083-.875-.129a.108.108,0,0,1-.064-.079C2167.393,1315.624,2167.4,1315.51,2167.4,1315.375Zm0,2.032c.3.043.578.08.852.125a.13.13,0,0,1,.086.088c.011.113,0,.227,0,.358-.3-.042-.583-.08-.866-.126a.12.12,0,0,1-.073-.086C2167.392,1317.653,2167.4,1317.539,2167.4,1317.407Zm.012,1.018.921.131v.435l-.921-.132Zm0,6.1c.3.044.586.082.866.128a.12.12,0,0,1,.073.086c.009.113,0,.227,0,.355-.3-.043-.59-.081-.875-.127a.106.106,0,0,1-.064-.078C2167.407,1324.773,2167.412,1324.659,2167.412,1324.522Zm0,1.02c.3.041.58.078.861.122a.12.12,0,0,1,.077.083c.009.114,0,.228,0,.363-.3-.043-.577-.08-.852-.125-.033-.005-.082-.047-.085-.076C2167.408,1325.792,2167.413,1325.672,2167.413,1325.542Zm.006,1.006.927.128v.435l-.927-.131Zm0,3.047c.3.042.579.077.854.121a.12.12,0,0,1,.081.08c.009.117,0,.236,0,.368-.3-.043-.589-.083-.874-.129a.107.107,0,0,1-.062-.08C2167.418,1329.841,2167.422,1329.727,2167.422,1329.595Zm.007,3.048.93.135v.433c-.287-.04-.564-.077-.839-.122a.133.133,0,0,1-.087-.089C2167.422,1332.887,2167.429,1332.773,2167.429,1332.642Zm.931,1.584-.922-.132v-.437l.922.134Zm.006-2.031c-.3-.042-.568-.077-.837-.124a.159.159,0,0,1-.1-.11,2.594,2.594,0,0,1,0-.333c.3.042.592.08.879.125.024,0,.056.053.058.083C2168.37,1331.951,2168.366,1332.065,2168.366,1332.2Zm.106-17.682,7.358,1.067v.629l-.906-.128-5.336-.772c-.336-.049-.672-.1-1.007-.15-.04-.007-.1-.055-.1-.087C2168.467,1314.894,2168.472,1314.715,2168.472,1314.514Zm0,1.01,7.363,1.067v.631l-.876-.125-5.472-.792c-.3-.043-.593-.087-.89-.126-.088-.012-.131-.043-.127-.141C2168.479,1315.872,2168.474,1315.708,2168.474,1315.523Zm7.362,2.077v.632l-7.346-1.063v-.635Zm-7.357-.057,7.359,1.067v.63l-.921-.131-5.1-.739c-.405-.059-.81-.12-1.216-.175-.086-.011-.123-.038-.12-.129C2168.484,1317.9,2168.479,1317.729,2168.479,1317.542Zm.006,3.029,7.356,1.067v.632l-1.133-.162-4.878-.706c-.415-.06-.831-.119-1.245-.183-.037-.006-.094-.05-.1-.079C2168.48,1320.956,2168.484,1320.772,2168.484,1320.571Zm0,3.036c.272.038.528.072.783.109q3.2.462,6.408.922c.14.02.2.06.185.212a4.165,4.165,0,0,0,0,.451l-.931-.132-4.879-.707c-.484-.07-.969-.139-1.453-.214-.04-.006-.1-.055-.1-.086C2168.482,1323.984,2168.488,1323.8,2168.488,1323.607Zm.012,7.132,7.362,1.063v.634l-1.312-.188-5.086-.737c-.281-.041-.563-.084-.845-.12-.085-.011-.123-.038-.12-.13C2168.5,1331.093,2168.5,1330.925,2168.5,1330.739Zm0-.377v-.631l7.356,1.061v.635Zm0-1.01v-.63c.3.043.6.083.893.126l4.908.709c.485.07.969.139,1.453.214.04.006.1.055.105.086.01.178.005.357.005.56Zm7.36-3.04-7.363-1.065v-.632l1.313.19,4.865.7c.356.051.712.1,1.068.152.086.011.122.041.119.131C2175.857,1325.958,2175.861,1326.127,2175.861,1326.312Zm-7.363-.688,7.355,1.062v.635l-7.355-1.065Zm0,1.078,7.359,1.062v.634l-7.359-1.065Zm-.005,1.008,7.362,1.063v.633l-.9-.128-4.892-.708c-.485-.07-.969-.142-1.453-.209-.088-.012-.119-.046-.116-.134C2168.5,1328.063,2168.493,1327.9,2168.493,1327.71Zm1.734,9.376a.482.482,0,0,1-.707.338.729.729,0,0,1-.407-.637.54.54,0,0,1,.3-.527.5.5,0,0,1,.579.112A.708.708,0,0,1,2170.227,1337.086Zm1.909,1.1a.905.905,0,0,1-1-.174,1.245,1.245,0,0,1-.459-.8,1.377,1.377,0,0,1,0-.415.877.877,0,0,1,1.427-.6,1.324,1.324,0,0,1,.569,1.085A.941.941,0,0,1,2172.136,1338.184Zm2.05-.563a.488.488,0,0,1-.737.365.719.719,0,0,1-.382-.635.532.532,0,0,1,.3-.52.5.5,0,0,1,.57.1A.718.718,0,0,1,2174.186,1337.62Zm1.68-2.155-.888-.126-5.514-.8c-.282-.041-.564-.078-.844-.126a.157.157,0,0,1-.107-.1c-.011-.173,0-.348,0-.545l7.358,1.067Zm-7.35-2.072v-.634l7.348,1.061v.636Zm7.355.048c-.122-.015-.233-.026-.344-.042l-5.918-.859c-.311-.045-.622-.1-.935-.129-.142-.015-.187-.068-.176-.205s0-.3,0-.457l1.546.222,4.88.7c.281.041.563.084.846.12.077.01.1.041.1.115C2175.869,1333.081,2175.872,1333.25,2175.872,1333.441Z" transform="translate(-2167.019 -1310)" fill="#707b9b"/>
</svg>
