<svg xmlns="http://www.w3.org/2000/svg" width="18.69" height="23.363" viewBox="0 0 18.69 23.363">
  <g id="Group_643" data-name="Group 643" transform="translate(-527.983 -174)">
    <g id="Page-1" transform="translate(527.983 174)">
      <g id="_011---SSD" data-name="011---SSD" transform="translate(0)">
        <path id="Shape" d="M530.709,174a2.729,2.729,0,0,0-2.726,2.726v17.912a2.729,2.729,0,0,0,2.726,2.726h13.239a2.729,2.729,0,0,0,2.726-2.726V176.726A2.729,2.729,0,0,0,543.948,174Zm15.186,17.133h-12.85a4.288,4.288,0,0,1-4.283-4.283v-6.62h12.85a4.288,4.288,0,0,1,4.283,4.283Zm-10.513,3.894v1.558H534.6v-1.558Zm1.558,0v1.558h-.779v-1.558Zm1.557,0v1.558h-.779v-1.558Zm1.558,0v1.558h-.779v-1.558Zm-6.23,1.558h-.779v-1.168a.39.39,0,0,1,.389-.389h.389v1.558Zm7.009,0v-1.558h.389a.389.389,0,0,1,.389.389v1.168Zm3.115,0h-1.557v-1.168a1.168,1.168,0,0,0-1.168-1.168h-7.788a1.168,1.168,0,0,0-1.168,1.168v1.168h-1.558a1.949,1.949,0,0,1-1.947-1.947v-5.1a5.057,5.057,0,0,0,4.283,2.375H545.9v2.726A1.949,1.949,0,0,1,543.948,196.585Zm1.947-19.859v5.1a5.058,5.058,0,0,0-4.283-2.375h-12.85v-2.726a1.949,1.949,0,0,1,1.947-1.947h13.239a1.949,1.949,0,0,1,1.947,1.947Z" transform="translate(-527.983 -174)" fill="#fff"/>
        <path id="Shape-2" data-name="Shape" d="M537.9,182.751a1.168,1.168,0,1,0,1.168,1.168A1.168,1.168,0,0,0,537.9,182.751Zm0,1.558a.389.389,0,1,1,.389-.389A.39.39,0,0,1,537.9,184.309Z" transform="translate(-535.177 -181.194)" fill="#fff"/>
        <path id="Shape-3" data-name="Shape" d="M611.122,183.919a1.168,1.168,0,1,0,1.168-1.168A1.168,1.168,0,0,0,611.122,183.919Zm1.557,0a.389.389,0,1,1-.389-.389A.389.389,0,0,1,612.68,183.919Z" transform="translate(-596.325 -181.194)" fill="#fff"/>
        <path id="Shape-4" data-name="Shape" d="M537.9,283.393a1.168,1.168,0,1,0,1.168,1.168A1.168,1.168,0,0,0,537.9,283.393Zm0,1.557a.389.389,0,1,1,.389-.389A.389.389,0,0,1,537.9,284.951Z" transform="translate(-535.177 -263.923)" fill="#fff"/>
        <path id="Shape-5" data-name="Shape" d="M612.29,283.393a1.168,1.168,0,1,0,1.168,1.168A1.168,1.168,0,0,0,612.29,283.393Zm0,1.557a.389.389,0,1,1,.389-.389A.389.389,0,0,1,612.29,284.951Z" transform="translate(-596.325 -263.923)" fill="#fff"/>
        <path id="Shape-6" data-name="Shape" d="M545.245,225.1c.633,0,1.168.357,1.168.779a.389.389,0,1,0,.779,0,2,2,0,1,0-1.947,1.558c.633,0,1.168.357,1.168.779s-.535.779-1.168.779-1.168-.357-1.168-.779a.389.389,0,0,0-.779,0,2,2,0,1,0,1.947-1.557c-.633,0-1.168-.357-1.168-.779s.535-.779,1.168-.779Z" transform="translate(-540.572 -215.365)" fill="#fff"/>
        <path id="Shape-7" data-name="Shape" d="M571.5,225.1c.633,0,1.168.357,1.168.779a.389.389,0,1,0,.779,0,2,2,0,1,0-1.947,1.558c.633,0,1.168.357,1.168.779s-.535.779-1.168.779-1.168-.357-1.168-.779a.389.389,0,0,0-.779,0,2,2,0,1,0,1.947-1.557c-.633,0-1.168-.357-1.168-.779s.535-.779,1.168-.779Z" transform="translate(-562.154 -215.365)" fill="#fff"/>
        <path id="Shape-8" data-name="Shape" d="M596.975,224.321H596.2a.389.389,0,0,0-.389.389v4.673a.389.389,0,0,0,.389.389h.779a2.726,2.726,0,0,0,0-5.451Zm0,4.673h-.389V225.1h.389a1.947,1.947,0,1,1,0,3.894Z" transform="translate(-583.736 -215.365)" fill="#fff"/>
      </g>
    </g>
  </g>
</svg>
