<svg xmlns="http://www.w3.org/2000/svg" width="25.17" height="17.732" viewBox="0 0 25.17 17.732">
  <g id="Group_710" data-name="Group 710" transform="translate(-1796 -686.787)">
    <path id="Path_1912" data-name="Path 1912" d="M1821.17,700.151a5.066,5.066,0,0,1-.628,2.749,3.393,3.393,0,0,1-2.088,1.564,1.184,1.184,0,0,1-1.232-.311,8.67,8.67,0,0,1-.641-.77c-.729-.931-1.45-1.87-2.183-2.8a2.266,2.266,0,0,0-1.865-.824q-2.615-.029-5.229-.04c-.867,0-1.734.024-2.6.036a2.36,2.36,0,0,0-1.936.845q-.979,1.226-1.948,2.461c-.254.324-.476.674-.746.983a1.283,1.283,0,0,1-1.492.38,3.576,3.576,0,0,1-2.468-2.962,8.113,8.113,0,0,1,.3-3.842c.679-2.3,1.406-4.589,2.117-6.881.068-.221.173-.43.247-.649a1.94,1.94,0,0,1,.759-1.009.727.727,0,0,0,.233-.32,1.854,1.854,0,0,1,.875-1.007,7.926,7.926,0,0,1,3.126-.954,1.8,1.8,0,0,1,1.086.229,1.3,1.3,0,0,0,.627.163c2.1.011,4.207.008,6.31,0a.624.624,0,0,0,.344-.066,2.381,2.381,0,0,1,1.98-.241,8.492,8.492,0,0,1,2.367.841,1.926,1.926,0,0,1,.91,1.01.8.8,0,0,0,.249.338,2.108,2.108,0,0,1,.751.985c.788,2.024,1.4,4.1,2,6.189a17.611,17.611,0,0,1,.739,3.309C1821.155,699.792,1821.163,700.024,1821.17,700.151Zm-12.559-1.224v.005c1.331,0,2.662-.014,3.992,0a2.96,2.96,0,0,1,2.334,1.015q.856,1.011,1.678,2.051c.339.431.632.9.965,1.335.3.395.427.419.885.256a2.611,2.611,0,0,0,1.662-1.769,5.9,5.9,0,0,0,.023-3.206c-.292-1.234-.625-2.46-1-3.67-.5-1.586-1.054-3.153-1.59-4.727a.632.632,0,0,0-.172-.279,6.678,6.678,0,0,0-2.957-1.484,1.426,1.426,0,0,0-1.467.513c-.4.467-.827.92-1.26,1.361a1.917,1.917,0,0,1-1.416.575c-1.1,0-2.2-.005-3.3,0a2.115,2.115,0,0,1-1.664-.729c-.4-.446-.812-.886-1.219-1.329a1.294,1.294,0,0,0-1.26-.408,6.635,6.635,0,0,0-2.719,1.229,1.655,1.655,0,0,0-.614.795c-.919,2.424-1.639,4.911-2.316,7.411a7.532,7.532,0,0,0-.255,3.512,2.739,2.739,0,0,0,1.91,2.252.514.514,0,0,0,.621-.161c.219-.275.421-.563.635-.842.617-.8,1.228-1.61,1.857-2.4a3.353,3.353,0,0,1,2.782-1.311C1806.035,698.932,1807.323,698.927,1808.611,698.927Zm4.774-11.242-.04-.107a2.915,2.915,0,0,0-.612.188,1.93,1.93,0,0,1-1,.273q-3-.023-6,0a2.254,2.254,0,0,1-1.4-.322,1.4,1.4,0,0,0-.518-.109l-.026.079a2.936,2.936,0,0,1,1.26.979c.3.338.616.67.924,1.005a1.233,1.233,0,0,0,.961.414q1.649-.008,3.3,0a1.238,1.238,0,0,0,.963-.408c.309-.334.62-.666.925-1A2.983,2.983,0,0,1,1813.385,687.685Z" transform="translate(0)" fill="#707b9b"/>
    <path id="Path_1913" data-name="Path 1913" d="M1838.834,727.646c0,.224,0,.411,0,.6-.006.3-.139.453-.433.459q-.644.013-1.288,0a.4.4,0,0,1-.43-.44c-.009-.195,0-.39,0-.618-.219,0-.405,0-.592,0-.327-.01-.468-.148-.474-.478q-.01-.593,0-1.186c.005-.346.146-.482.488-.487.179,0,.358,0,.578,0,0-.212-.005-.406,0-.6a.425.425,0,0,1,.481-.475c.4-.005.808-.007,1.211,0a.415.415,0,0,1,.46.465c0,.188,0,.377,0,.609.206,0,.4,0,.593,0a.422.422,0,0,1,.479.474q.01.605,0,1.211a.419.419,0,0,1-.465.465C1839.252,727.651,1839.064,727.646,1838.834,727.646Zm-.827-2.382h-.494c0,.2,0,.375,0,.554.01.334-.137.5-.468.5-.2,0-.39,0-.58,0-.074.5-.072.5.373.5l.18,0a.427.427,0,0,1,.494.5c-.006.177,0,.355,0,.548h.465c.013-.029.025-.044.025-.06,0-.171,0-.343.006-.514.005-.334.161-.481.5-.476.186,0,.371,0,.558,0v-.5c-.225,0-.43,0-.635,0a.391.391,0,0,1-.417-.418C1838,725.695,1838.007,725.489,1838.007,725.263Z" transform="translate(-32.409 -30.787)" fill="#707b9b"/>
    <path id="Path_1914" data-name="Path 1914" d="M1823.392,704.457a2.172,2.172,0,1,1-4.343-.067,2.172,2.172,0,0,1,4.343.067Zm-.827,0a1.332,1.332,0,0,0-1.3-1.353,1.344,1.344,0,1,0-.072,2.687A1.328,1.328,0,0,0,1822.565,704.452Z" transform="translate(-18.859 -12.669)" fill="#707b9b"/>
    <path id="Path_1915" data-name="Path 1915" d="M1873.31,724.839a2.162,2.162,0,1,1-2.14-2.153A2.161,2.161,0,0,1,1873.31,724.839Zm-.827,0a1.334,1.334,0,0,0-2.669.011,1.334,1.334,0,1,0,2.669-.011Z" transform="translate(-59.718 -29.372)" fill="#707b9b"/>
    <path id="Path_1916" data-name="Path 1916" d="M1889.4,711.32a.822.822,0,0,1-.816-.824.822.822,0,1,1,1.644.019A.814.814,0,0,1,1889.4,711.32Z" transform="translate(-75.757 -18.724)" fill="#707b9b"/>
    <path id="Path_1917" data-name="Path 1917" d="M1898.133,701.344a.821.821,0,1,1,.011,1.642.821.821,0,0,1-.011-1.642Z" transform="translate(-82.902 -11.91)" fill="#707b9b"/>
    <path id="Path_1918" data-name="Path 1918" d="M1906.618,711.685a.815.815,0,0,1-.83-.805.825.825,0,1,1,1.65-.012A.819.819,0,0,1,1906.618,711.685Z" transform="translate(-89.831 -19.028)" fill="#707b9b"/>
    <path id="Path_1919" data-name="Path 1919" d="M1898.957,718.877a.816.816,0,0,1-.811.824.82.82,0,1,1-.033-1.64A.816.816,0,0,1,1898.957,718.877Z" transform="translate(-82.893 -25.588)" fill="#707b9b"/>
    <path id="Path_1920" data-name="Path 1920" d="M1863.3,697.107c.265,0,.531,0,.8,0a.411.411,0,1,1,.032.82q-.808.021-1.617,0a.406.406,0,0,1-.431-.439c.01-.239.171-.38.451-.383.257,0,.513,0,.77,0Z" transform="translate(-54.071 -8.443)" fill="#707b9b"/>
    <path id="Path_1921" data-name="Path 1921" d="M1855.891,697.5a.541.541,0,0,1-.538-.512.535.535,0,0,1,.525-.549.543.543,0,0,1,.54.513A.535.535,0,0,1,1855.891,697.5Z" transform="translate(-48.563 -7.897)" fill="#707b9b"/>
  </g>
</svg>
