<svg xmlns="http://www.w3.org/2000/svg" width="27.563" height="20.979" viewBox="0 0 27.563 20.979">
  <g id="Group_744" data-name="Group 744" transform="translate(-1975.719 -1310.025)">
    <path id="Path_2031" data-name="Path 2031" d="M1981.641,1323.579c-.085-.008-.17-.021-.255-.022-.235,0-.47,0-.705,0a1.258,1.258,0,0,1-1.315-1.367q0-5.191,0-10.383c0-.15,0-.3,0-.451a1.26,1.26,0,0,1,1.277-1.322c.112-.006.226,0,.338,0q8.618,0,17.236,0a1.345,1.345,0,0,1,1.438,1.43c-.026,3.564-.01,7.129-.011,10.693a1.274,1.274,0,0,1-1.417,1.407c-.286,0-.571,0-.856,0l-.007.1c.089.011.178.026.268.032.467.032.936.045,1.4.1a.954.954,0,0,1,.718.528c1.122,1.913,2.259,3.817,3.391,5.724.272.459.15.767-.371.9a2.3,2.3,0,0,1-.558.064q-12.708,0-25.416,0a2.181,2.181,0,0,1-.663-.1c-.429-.141-.521-.422-.287-.809q.861-1.423,1.729-2.843c.581-.956,1.176-1.9,1.733-2.873a1.212,1.212,0,0,1,.993-.64c.354-.036.712-.033,1.069-.046.09,0,.181,0,.271,0Zm-.906-12.181v10.79h17.538V1311.4Zm12.433,18.443-.33-2.094h-6.314a.451.451,0,0,0-.167,0c-.065.028-.159.077-.169.131-.119.645-.225,1.293-.338,1.961Zm-7.426.753h3.532v-.53h-3.006C1985.782,1330.064,1985.782,1330.064,1985.742,1330.594Zm3.985-.006h3.558l-.093-.5h-3.465Zm-5.394-3.253c.5,0,1,.005,1.508,0,.641-.008.483.1.6-.521,0-.015-.014-.033-.033-.074h-1.5c-.519,0-.519,0-.6.521A.38.38,0,0,0,1984.334,1327.335Zm11-.595a2.342,2.342,0,0,0,.108.4c.038.078.123.187.19.188.633.015,1.267.009,1.939.009a3.667,3.667,0,0,0-.165-.421c-.038-.07-.119-.164-.182-.165C1996.606,1326.735,1995.989,1326.74,1995.333,1326.74Zm-.56.595-.149-.575h-1.994c.019.575.019.575.548.575h1.6Zm-11.044-.6c-.662,0-1.272,0-1.881,0a.23.23,0,0,0-.168.107c-.075.146-.127.3-.2.484.668,0,1.3,0,1.924-.005a.246.246,0,0,0,.181-.12A3.7,3.7,0,0,0,1983.729,1326.739Zm-2.718,0h-1.6c-.453,0-.579.107-.673.6.629,0,1.253,0,1.877,0a.24.24,0,0,0,.177-.1C1980.87,1327.09,1980.927,1326.933,1981.011,1326.739Zm8.145,0c-.634,0-1.242,0-1.849.005a.2.2,0,0,0-.156.11,4.105,4.105,0,0,0-.064.481h2.068Zm8.9,0a2.547,2.547,0,0,0,.147.366c.052.086.135.215.208.217.635.017,1.272.01,1.907.01l.062-.075c-.145-.173-.277-.479-.437-.494C1999.334,1326.706,1998.713,1326.741,1998.058,1326.741Zm-8.153.594h2.051a2.916,2.916,0,0,0-.039-.431c-.015-.063-.092-.157-.142-.158-.617-.011-1.235-.007-1.87-.007Zm5.129-3.673v-.066h-11.059v.066Zm-11.066,2.168h-1.459c-.482,0-.515.028-.588.539h1.545C1983.9,1326.369,1983.945,1326.323,1983.968,1325.83Zm3.267.526h1.943l.024-.526c-.53,0-1.024,0-1.518,0s-.391-.065-.458.41A.729.729,0,0,0,1987.235,1326.356Zm7.156-.51h-1.918l.077.5h1.969Zm5.41.522.055-.074c-.121-.153-.232-.429-.365-.44-.594-.048-1.193-.021-1.79-.021l-.062.074c.122.153.233.429.366.44C1998.6,1326.395,1999.2,1326.367,1999.8,1326.367Zm-2.634,0c-.128-.483-.153-.534-.327-.536-.579-.006-1.157,0-1.781,0,.115.2-.008.513.291.529C1995.945,1326.391,1996.543,1326.369,1997.167,1326.369Zm-10.565-.538h-1.484c-.49,0-.49,0-.542.52h1.943Zm-7.363.539h1.547c.451,0,.5-.043.584-.539h-1.433C1979.441,1325.83,1979.441,1325.83,1979.239,1326.369Zm10.651-.034h1.958l-.052-.489h-1.907Zm1.8-1.305h-1.812v.436h1.879Zm.678-.018c.007.475.007.475.435.475h1.5l-.13-.475Zm-3.162-.009h-1.419c-.456,0-.456,0-.432.463h1.851Zm-2.463,0h-1.5c-.4,0-.434.04-.418.469h1.832Zm-4.479.473h1.852l.145-.474h-1.446C1982.388,1325,1982.388,1325,1982.269,1325.477Zm15.053-.472c.145.483.145.483.592.483h1.443l.036-.088c-.127-.132-.246-.366-.383-.377C1998.46,1324.979,1997.9,1325,1997.322,1325Zm-.432.483c-.133-.194-.221-.452-.328-.459-.567-.041-1.137-.019-1.751-.019.115.2-.006.481.328.479C1995.682,1325.485,1996.228,1325.487,1996.889,1325.487Zm-15.118-.484h-1.428c-.45,0-.479.023-.609.483h1.4C1981.594,1325.487,1981.594,1325.487,1981.771,1325Zm8.1-.325h1.791l-.05-.417h-1.741Zm2.425,0h1.862c-.111-.176-.185-.408-.273-.413-.541-.034-1.085-.017-1.65-.017Zm-5.429-.419h-1.752l-.113.423h1.795Zm12.145.433c-.152-.188-.248-.417-.359-.425-.544-.038-1.093-.017-1.639-.017l-.048.072c.1.124.2.346.308.354C1997.814,1324.71,1998.364,1324.691,1999.006,1324.691Zm-14.505-.445h-1.429c-.384,0-.386,0-.471.433h1.759Zm10.1,0,.115.427h1.871c-.149-.18-.244-.4-.354-.411C1995.7,1324.225,1995.169,1324.246,1994.6,1324.246Zm-14.443.446h1.438c.382,0,.418-.032.474-.447-.432,0-.864.023-1.292-.007A.5.5,0,0,0,1980.162,1324.692Zm7.265-.024h1.787v-.408h-1.727Z" transform="translate(0)" fill="#707b9b"/>
  </g>
</svg>
