<svg xmlns="http://www.w3.org/2000/svg" xmlns:xlink="http://www.w3.org/1999/xlink" width="25" height="25" viewBox="0 0 25 25">
  <defs>
    <clipPath id="clip-path">
      <rect id="Rectangle_691" data-name="Rectangle 691" width="25" height="25" transform="translate(6146 452)" fill="#707b9b"/>
    </clipPath>
  </defs>
  <g id="Mask_Group_131" data-name="Mask Group 131" transform="translate(-6146 -452)" clip-path="url(#clip-path)">
    <g id="gaming" transform="translate(6146 453.071)">
      <path id="Path_912" data-name="Path 912" d="M15.728,5.229a2.884,2.884,0,0,0-2.648,1.42.4.4,0,0,0,.147.528.355.355,0,0,0,.5-.157,2.2,2.2,0,0,1,2-1.012,2.2,2.2,0,0,1,2,1.012.363.363,0,0,0,.322.2.348.348,0,0,0,.174-.047.4.4,0,0,0,.147-.529,2.884,2.884,0,0,0-2.649-1.42Zm0,0" transform="translate(-3.16 -1.038)" fill="#707b9b"/>
      <path id="Path_913" data-name="Path 913" d="M18.91,5.184a.363.363,0,0,0,.322.2.348.348,0,0,0,.174-.047.4.4,0,0,0,.147-.528,4.764,4.764,0,0,0-4.38-2.325,4.764,4.764,0,0,0-4.38,2.325.4.4,0,0,0,.147.528.355.355,0,0,0,.5-.157,4.053,4.053,0,0,1,3.736-1.917A4.052,4.052,0,0,1,18.91,5.184Zm0,0" transform="translate(-2.606 -0.508)" fill="#707b9b"/>
      <path id="Path_914" data-name="Path 914" d="M8.519,3.843a.355.355,0,0,0,.5-.157c.9-1.773,3.038-2.875,5.572-2.875s4.668,1.1,5.572,2.875a.363.363,0,0,0,.322.2.347.347,0,0,0,.174-.047.4.4,0,0,0,.147-.528A6.759,6.759,0,0,0,14.587.032,6.76,6.76,0,0,0,8.371,3.315a.4.4,0,0,0,.147.528Zm0,0" transform="translate(-2.019 -0.032)" fill="#707b9b"/>
      <path id="Path_915" data-name="Path 915" d="M25.566,14.286a1.016,1.016,0,1,0-.953-1.014A.986.986,0,0,0,25.566,14.286Zm0-1.249a.228.228,0,0,1,.219.235.22.22,0,1,1-.219-.235Zm0,0" transform="translate(-5.967 -2.398)" fill="#707b9b"/>
      <path id="Path_916" data-name="Path 916" d="M25.566,16.233a1.017,1.017,0,1,0,.952,1.015.986.986,0,0,0-.952-1.015Zm0,1.25a.236.236,0,1,1,.219-.235A.228.228,0,0,1,25.566,17.483Zm0,0" transform="translate(-5.967 -3.168)" fill="#707b9b"/>
      <path id="Path_917" data-name="Path 917" d="M24.529,15.26a.955.955,0,1,0-.953,1.015A.986.986,0,0,0,24.529,15.26Zm-.953.235a.235.235,0,1,1,.221-.235A.228.228,0,0,1,23.576,15.495Zm0,0" transform="translate(-5.484 -2.783)" fill="#707b9b"/>
      <path id="Path_918" data-name="Path 918" d="M27.553,14.245a1.016,1.016,0,1,0,.953,1.014.986.986,0,0,0-.953-1.014Zm0,1.25a.235.235,0,1,1,.221-.235A.229.229,0,0,1,27.553,15.495Zm0,0" transform="translate(-6.449 -2.783)" fill="#707b9b"/>
      <path id="Path_919" data-name="Path 919" d="M11.438,17.353a1.85,1.85,0,0,0,0,3.694,1.85,1.85,0,0,0,0-3.694Zm0,2.914a1.07,1.07,0,1,1,1-1.068A1.038,1.038,0,0,1,11.438,20.268Zm0,0" transform="translate(-2.352 -3.385)" fill="#707b9b"/>
      <path id="Path_920" data-name="Path 920" d="M24.832,19.99l-1.763-7.749a4.219,4.219,0,0,0-1.5-2.525,3.379,3.379,0,0,0-.484-.306v-.16A1.43,1.43,0,0,0,19.707,7.78h-.821A1.43,1.43,0,0,0,17.5,9.251v.225a1.86,1.86,0,0,0-.669.611H13.3a.39.39,0,0,0,0,.779h3.4v.8a.775.775,0,0,1-.748.8H9.047a.776.776,0,0,1-.749-.8v-.8h3.316a.391.391,0,0,0,0-.779H8.163A1.857,1.857,0,0,0,7.5,9.476V9.251A1.43,1.43,0,0,0,6.114,7.779H5.295A1.43,1.43,0,0,0,3.913,9.251V9.41a3.41,3.41,0,0,0-.483.305,4.218,4.218,0,0,0-1.5,2.526L.168,19.99a4.527,4.527,0,0,0,.124,2.867,2.5,2.5,0,0,0,1.534,1.391A3.05,3.05,0,0,0,5.571,22.5l.847-2.4c.109-.309.2-.348.2-.349s.076.007.2.1a3.214,3.214,0,0,0,4.408-.091h2.551a3.424,3.424,0,0,0,2.134.921,2.985,2.985,0,0,0,2.274-.83c.142-.11.2-.105.2-.1s.087.039.2.348l.846,2.4a3.018,3.018,0,0,0,2.841,1.89,2.907,2.907,0,0,0,.907-.143,2.5,2.5,0,0,0,1.533-1.391,4.525,4.525,0,0,0,.124-2.866ZM18.886,8.559h.821a.662.662,0,0,1,.638.568,3.857,3.857,0,0,0-.953-.121h-.015a4.089,4.089,0,0,0-1.135.16.667.667,0,0,1,.644-.607Zm-13.591,0h.819a.666.666,0,0,1,.644.607,4.088,4.088,0,0,0-1.135-.161H5.611a3.856,3.856,0,0,0-.955.121.663.663,0,0,1,.639-.568ZM22.96,23.5a2.34,2.34,0,0,1-2.847-1.276l-.846-2.4A1.17,1.17,0,0,0,18.589,19a.923.923,0,0,0-.859.241l-.028.025a2.516,2.516,0,0,1-3.533-.175.354.354,0,0,0-.252-.107H11.083a.354.354,0,0,0-.252.107,2.515,2.515,0,0,1-3.533.175l-.028-.025a.923.923,0,0,0-.86-.24,1.168,1.168,0,0,0-.677.823l-.847,2.4A2.338,2.338,0,0,1,2.041,23.5C.905,23.131.482,21.918.879,20.174l1.763-7.749a3.151,3.151,0,0,1,1.73-2.385A.346.346,0,0,0,4.456,10a3.123,3.123,0,0,1,1.156-.218,3.261,3.261,0,0,1,1.362.284l.018.009a1.162,1.162,0,0,1,.572.46v1.125A1.533,1.533,0,0,0,9.047,13.24h6.907a1.533,1.533,0,0,0,1.48-1.577V10.538a1.15,1.15,0,0,1,.56-.455.358.358,0,0,0,.052-.024,3.252,3.252,0,0,1,1.331-.274h.013A3.121,3.121,0,0,1,20.544,10a.352.352,0,0,0,.083.035,3.15,3.15,0,0,1,1.73,2.385l1.763,7.749c.4,1.744-.026,2.957-1.16,3.328Zm0,0" transform="translate(0 -1.532)" fill="#707b9b"/>
      <path id="Path_921" data-name="Path 921" d="M20.83,17.353A1.85,1.85,0,1,0,22.565,19.2,1.8,1.8,0,0,0,20.83,17.353Zm0,2.914a1.07,1.07,0,1,1,1-1.068A1.038,1.038,0,0,1,20.83,20.268Zm0,0" transform="translate(-4.629 -3.385)" fill="#707b9b"/>
      <path id="Path_922" data-name="Path 922" d="M7.5,13.928H7.392V13.81a1.163,1.163,0,0,0-1.123-1.2,1.163,1.163,0,0,0-1.123,1.2v.119H5.034a1.2,1.2,0,0,0,0,2.391h.111v.119a1.163,1.163,0,0,0,1.123,1.2,1.163,1.163,0,0,0,1.123-1.2V16.32H7.5a1.2,1.2,0,0,0,0-2.391Zm0,1.612H7.026a.378.378,0,0,0-.366.39v.508a.392.392,0,1,1-.782,0V15.93a.378.378,0,0,0-.366-.39H5.035a.417.417,0,0,1,0-.832h.477a.379.379,0,0,0,.366-.39V13.81a.392.392,0,1,1,.782,0v.508a.379.379,0,0,0,.366.39H7.5a.417.417,0,0,1,0,.832Zm0,0" transform="translate(-0.948 -2.467)" fill="#707b9b"/>
      <path id="Path_923" data-name="Path 923" d="M14.945,16.032h-.532a.391.391,0,0,0,0,.779h.532a.391.391,0,0,0,0-.779Zm0,0" transform="translate(-3.405 -3.129)" fill="#707b9b"/>
      <path id="Path_924" data-name="Path 924" d="M18.182,16.032h-.533a.39.39,0,0,0,0,.779h.533a.391.391,0,0,0,0-.779Zm0,0" transform="translate(-4.19 -3.129)" fill="#707b9b"/>
      <path id="Path_925" data-name="Path 925" d="M16.75,18.565h-.531a.39.39,0,0,0,0,.779h.531a.39.39,0,0,0,0-.779Zm0,0" transform="translate(-3.843 -3.619)" fill="#707b9b"/>
    </g>
  </g>
</svg>
