<svg id="Group_760" data-name="Group 760" xmlns="http://www.w3.org/2000/svg" width="25.367" height="25.367" viewBox="0 0 25.367 25.367">
  <g id="Group_753" data-name="Group 753" transform="translate(0 0)">
    <path id="Path_2072" data-name="Path 2072" d="M1966.585,2006.819v8.522a.219.219,0,0,0-.038.06,2.52,2.52,0,0,1-2.637,2.123h-2.547c-.076,0-.151.008-.264.014.505.674.983,1.314,1.464,1.951a.85.85,0,0,1,.124.948.838.838,0,0,1-.831.469c-.693,0-1.385,0-2.078,0h-.3a.814.814,0,0,1-.051.9,2.6,2.6,0,0,1-.474.372h-10.107a1.081,1.081,0,0,0-.1-.061.845.845,0,0,1-.492-1.037c.013-.051.023-.1.038-.174-.789,0-1.555,0-2.321,0a.858.858,0,0,1-.718-1.437c.43-.563.852-1.133,1.277-1.7.052-.069.1-.142.171-.246h-.285c-.9,0-1.8.007-2.7,0a2.515,2.515,0,0,1-2.371-1.737c-.049-.146-.088-.3-.131-.444v-8.522c.228-.259.453-.52.685-.776.982-1.082,1.969-2.16,2.946-3.246a2.651,2.651,0,0,1,2.081-.917c.537,0,1.073,0,1.61,0h.291v-.325c0-1.23.014-2.46-.007-3.69a.966.966,0,0,1,.667-1.055h8.819a.967.967,0,0,1,.667,1.055c-.02,1.23-.007,2.46-.007,3.69v.324h.291c.528,0,1.057,0,1.585,0a2.662,2.662,0,0,1,2.123.936c.585.662,1.189,1.307,1.781,1.962Q1965.672,2005.8,1966.585,2006.819Zm-19.869,9.861c0-1.136,0-2.234,0-3.331a3.8,3.8,0,0,1,3.866-3.854q3.32,0,6.639,0a3.8,3.8,0,0,1,3.866,3.854c0,1.016,0,2.031,0,3.047v.284h2.823a1.7,1.7,0,0,0,1.83-1.819q0-3.6,0-7.208c0-.087-.007-.174-.011-.26h-23.667v.285q0,3.58,0,7.159a1.7,1.7,0,0,0,1.855,1.843h2.8Zm2.973-12.273h8.416v-6.737h-8.416Zm9.283-1.679c0,.409,0,.771,0,1.134a1.088,1.088,0,0,0,.037.505c.048.08.286.043.437.064a.387.387,0,0,1,.363.374.4.4,0,0,1-.313.441,1.156,1.156,0,0,1-.27.023h-10.651a1.151,1.151,0,0,1-.27-.023.394.394,0,0,1-.314-.44.384.384,0,0,1,.363-.373c.106-.013.216.005.32-.014.056-.011.146-.071.147-.11.01-.517.007-1.034.007-1.561-.077-.009-.125-.019-.172-.019-.611,0-1.222,0-1.833,0a1.717,1.717,0,0,0-1.31.6q-1.372,1.514-2.749,3.024a1.9,1.9,0,0,0-.116.158h22.527c-.086-.1-.143-.166-.2-.232-.75-.825-1.542-1.615-2.238-2.483a2.559,2.559,0,0,0-2.425-1.073A12.96,12.96,0,0,1,1958.972,2002.728Zm1.225,13.607.047-.023c0-.991,0-1.981,0-2.971a2.961,2.961,0,0,0-3-3q-3.344-.007-6.687,0a2.962,2.962,0,0,0-3,3c0,.916,0,1.833,0,2.749v.3c.127-.165.2-.28.3-.381a1.94,1.94,0,0,0,.568-1.507,1.181,1.181,0,0,1,1.2-1.194q4.272-.011,8.545,0a1.2,1.2,0,0,1,1.181.976,6.236,6.236,0,0,1,.047.812.477.477,0,0,0,.047.234C1959.691,2015.67,1959.946,2016,1960.2,2016.336Zm1.694,3.723a.416.416,0,0,0-.026-.088q-1.506-2.011-3.018-4.016a.378.378,0,0,0-.27-.114q-4.68-.009-9.359,0a.4.4,0,0,0-.279.141q-1.481,1.952-2.944,3.917a1.326,1.326,0,0,0-.085.159c.875,0,1.716-.005,2.557,0a.319.319,0,0,0,.351-.222c.413-.935.847-1.86,1.263-2.793a.559.559,0,0,1,.574-.372q3.244.008,6.487,0a.573.573,0,0,1,.592.382c.417.942.847,1.878,1.279,2.812.035.076.125.179.191.18C1960.09,2020.063,1960.981,2020.059,1961.89,2020.059Zm-12.81,1.262h9.637c-.021-.062-.032-.109-.051-.151-.528-1.163-1.06-2.323-1.581-3.489-.066-.147-.158-.158-.288-.157-1.931,0-3.862,0-5.793,0a.288.288,0,0,0-.307.208c-.5,1.12-1.013,2.237-1.52,3.355C1949.144,2021.154,1949.117,2021.229,1949.08,2021.321Zm.168-6.349h9.294c.051-.557.028-.844-.729-.832-1.625.025-3.252.008-4.877.008-1.065,0-2.129,0-3.194,0a.433.433,0,0,0-.493.483C1949.246,2014.739,1949.248,2014.846,1949.248,2014.972Z" transform="translate(-1941.218 -1996.811)" fill="#707b9b"/>
    <path id="Path_2073" data-name="Path 2073" d="M2052.656,2061.041a1.265,1.265,0,0,1,.024-2.531,1.265,1.265,0,1,1-.024,2.531Zm.435-1.258a.432.432,0,0,0-.422-.428.42.42,0,0,0-.014.841A.43.43,0,0,0,2053.091,2059.783Z" transform="translate(-2030.26 -2046.67)" fill="#707b9b"/>
    <path id="Path_2074" data-name="Path 2074" d="M1950.855,2069.027c0,.4,0,.791,0,1.187,0,.3-.159.474-.417.475a.418.418,0,0,1-.425-.471q-.006-1.211,0-2.423a.435.435,0,0,1,.422-.48.427.427,0,0,1,.42.477C1950.858,2068.2,1950.855,2068.615,1950.855,2069.027Z" transform="translate(-1948.322 -2053.784)" fill="#707b9b"/>
    <path id="Path_2075" data-name="Path 2075" d="M1950.848,2056.945c0,.066,0,.132,0,.2a.42.42,0,0,1-.417.429.428.428,0,0,1-.423-.428,3.578,3.578,0,0,1,0-.371.431.431,0,0,1,.435-.466.425.425,0,0,1,.408.464c0,.058,0,.115,0,.173Z" transform="translate(-1948.316 -2044.891)" fill="#707b9b"/>
    <path id="Path_2076" data-name="Path 2076" d="M2056.657,2076.546a.422.422,0,0,1-.431.414.406.406,0,0,1-.407-.431.421.421,0,0,1,.412-.408A.435.435,0,0,1,2056.657,2076.546Z" transform="translate(-2033.826 -2060.902)" fill="#707b9b"/>
    <path id="Path_2077" data-name="Path 2077" d="M2056.245,2082.763a.424.424,0,0,1,.412.435.436.436,0,0,1-.421.405.421.421,0,0,1-.417-.428A.407.407,0,0,1,2056.245,2082.763Z" transform="translate(-2033.827 -2066.269)" fill="#707b9b"/>
    <path id="Path_2078" data-name="Path 2078" d="M2056.657,2089.785a.42.42,0,0,1-.441.4.406.406,0,0,1-.4-.44.418.418,0,0,1,.422-.4A.432.432,0,0,1,2056.657,2089.785Z" transform="translate(-2033.827 -2071.593)" fill="#707b9b"/>
    <path id="Path_2079" data-name="Path 2079" d="M1994.875,2115.8q1.2,0,2.4,0c.335,0,.531.156.534.415s-.2.429-.525.429q-2.436,0-4.872,0c-.325,0-.527-.172-.522-.432s.2-.41.513-.411C1993.226,2115.8,1994.05,2115.8,1994.875,2115.8Z" transform="translate(-1982.165 -2092.966)" fill="#707b9b"/>
    <path id="Path_2080" data-name="Path 2080" d="M1998.4,2109.994c-.528,0-1.056,0-1.584,0-.317,0-.507-.158-.512-.412s.193-.431.522-.432q1.6,0,3.192,0c.313,0,.507.165.513.417s-.193.425-.523.426C1999.467,2110,1998.931,2109.994,1998.4,2109.994Z" transform="translate(-1985.729 -2087.591)" fill="#707b9b"/>
  </g>
</svg>
