<svg id="Capa_1" enable-background="new 0 0 512 512" height="512" viewBox="0 0 512 512" width="512" xmlns="http://www.w3.org/2000/svg"><g><g id="Page-1_10_"><g id="_x30_11---SSD"><path id="Shape_82_" d="m110.933 0c-32.974.038-59.695 26.759-59.733 59.733v392.533c.038 32.974 26.759 59.696 59.733 59.733h290.133c32.974-.038 59.696-26.759 59.733-59.733v-392.533c-.037-32.974-26.758-59.695-59.732-59.733zm332.8 375.467h-281.6c-51.816-.061-93.806-42.051-93.867-93.867v-145.067h281.6c51.816.061 93.806 42.051 93.867 93.867zm-230.4 85.333v34.133h-17.067v-34.133zm34.134 0v34.133h-17.067v-34.133zm34.133 0v34.133h-17.067v-34.133zm34.133 0v34.133h-17.067v-34.133zm-136.533 34.133h-17.067v-25.6c0-4.713 3.821-8.533 8.533-8.533h8.533v34.133zm153.6 0v-34.133h8.533c4.713 0 8.533 3.821 8.533 8.533v25.6zm68.267 0h-34.133v-25.6c0-14.138-11.462-25.6-25.6-25.6h-170.667c-14.138 0-25.6 11.462-25.6 25.6v25.6h-34.133c-23.552-.028-42.638-19.114-42.667-42.667v-111.786c20.241 32.354 55.703 52.019 93.867 52.053h281.6v59.733c-.029 23.553-19.115 42.639-42.667 42.667zm42.666-435.2v111.787c-20.241-32.354-55.703-52.019-93.867-52.053h-281.6v-59.734c.028-23.552 19.114-42.638 42.667-42.667h290.133c23.553.029 42.639 19.115 42.667 42.667z"/><path id="Shape_81_" d="m110.933 34.133c-14.138 0-25.6 11.462-25.6 25.6s11.462 25.6 25.6 25.6 25.6-11.462 25.6-25.6-11.461-25.6-25.6-25.6zm0 34.134c-4.713 0-8.533-3.821-8.533-8.533s3.821-8.533 8.533-8.533 8.533 3.821 8.533 8.533-3.82 8.533-8.533 8.533z"/><path id="Shape_80_" d="m375.467 59.733c0 14.138 11.462 25.6 25.6 25.6s25.6-11.462 25.6-25.6-11.462-25.6-25.6-25.6c-14.139 0-25.6 11.462-25.6 25.6zm34.133 0c0 4.713-3.821 8.533-8.533 8.533s-8.533-3.821-8.533-8.533 3.82-8.533 8.533-8.533 8.533 3.821 8.533 8.533z"/><path id="Shape_79_" d="m110.933 426.667c-14.138 0-25.6 11.462-25.6 25.6s11.462 25.6 25.6 25.6 25.6-11.462 25.6-25.6-11.461-25.6-25.6-25.6zm0 34.133c-4.713 0-8.533-3.82-8.533-8.533s3.821-8.533 8.533-8.533 8.533 3.82 8.533 8.533-3.82 8.533-8.533 8.533z"/><path id="Shape_78_" d="m401.067 426.667c-10.354 0-19.689 6.237-23.651 15.803s-1.772 20.577 5.549 27.899c7.322 7.322 18.333 9.512 27.899 5.549 9.566-3.962 15.803-13.297 15.803-23.651 0-14.139-11.462-25.6-25.6-25.6zm0 34.133c-4.713 0-8.533-3.82-8.533-8.533s3.82-8.533 8.533-8.533 8.533 3.82 8.533 8.533-3.82 8.533-8.533 8.533z"/><path id="Shape_77_" d="m153.6 213.333c13.875 0 25.6 7.817 25.6 17.067 0 4.713 3.821 8.533 8.533 8.533 4.713 0 8.533-3.821 8.533-8.533 0-18.825-19.14-34.133-42.667-34.133s-42.667 15.309-42.667 34.133 19.14 34.133 42.667 34.133c13.875 0 25.6 7.817 25.6 17.067s-11.725 17.067-25.6 17.067-25.6-7.817-25.6-17.067c0-4.713-3.82-8.533-8.533-8.533s-8.533 3.82-8.533 8.533c0 18.825 19.14 34.133 42.667 34.133s42.667-15.309 42.667-34.133c0-18.825-19.14-34.133-42.667-34.133-13.875 0-25.6-7.817-25.6-17.067s11.725-17.067 25.6-17.067z"/><path id="Shape_76_" d="m256 213.333c13.875 0 25.6 7.817 25.6 17.067 0 4.713 3.821 8.533 8.533 8.533 4.713 0 8.533-3.821 8.533-8.533 0-18.825-19.14-34.133-42.667-34.133-23.526 0-42.667 15.309-42.667 34.133s19.14 34.133 42.667 34.133c13.875 0 25.6 7.817 25.6 17.067s-11.725 17.067-25.6 17.067-25.6-7.817-25.6-17.067c0-4.713-3.821-8.533-8.533-8.533-4.713 0-8.533 3.82-8.533 8.533 0 18.825 19.14 34.133 42.667 34.133 23.526 0 42.667-15.309 42.667-34.133 0-18.825-19.14-34.133-42.667-34.133-13.875 0-25.6-7.817-25.6-17.067s11.725-17.067 25.6-17.067z"/><path id="Shape_75_" d="m341.333 196.267h-17.067c-4.713 0-8.533 3.821-8.533 8.533v102.4c0 4.713 3.821 8.533 8.533 8.533h17.067c32.99 0 59.733-26.743 59.733-59.733s-26.743-59.733-59.733-59.733zm0 102.4h-8.533v-85.333h8.533c23.565-.001 42.667 19.102 42.667 42.666s-19.102 42.667-42.667 42.667z"/></g></g></g></svg>