<svg xmlns="http://www.w3.org/2000/svg" width="20.016" height="25" viewBox="0 0 20.016 25">
  <g id="Group_773" data-name="Group 773" transform="translate(-2245.866 -2323.506)">
    <path id="Path_2199" data-name="Path 2199" d="M2263.5,2348.506h-15.235a1.606,1.606,0,0,1-.308-.328q-1-1.977-1.986-3.966a.921.921,0,0,1-.1-.395q-.008-5.3-.007-10.592a.683.683,0,0,1,.231-.539c.147-.135.292-.274.457-.429-.155-.147-.266-.267-.392-.368a.81.81,0,0,1-.3-.7c.01-2.1.005-4.2.007-6.3a1.921,1.921,0,0,1,.03-.388,1.3,1.3,0,0,1,.994-1h17.97a1.32,1.32,0,0,1,1.01,1.35q0,3.22,0,6.441a.651.651,0,0,1-.22.518c-.153.139-.293.291-.46.458.136.124.238.229.352.32a.914.914,0,0,1,.331.793c-.009,3.44,0,6.88-.011,10.321a1.378,1.378,0,0,1-.136.581q-.938,1.915-1.906,3.813A2.417,2.417,0,0,1,2263.5,2348.506Zm-7.624-24.168h-8.59c-.451,0-.581.13-.581.579,0,1.912.014,3.824-.01,5.735a1.147,1.147,0,0,0,.434,1.03.614.614,0,0,0,.406.165q8.334-.007,16.668,0a.648.648,0,0,0,.428-.174,1.127,1.127,0,0,0,.421-1.014c-.023-1.887-.01-3.774-.01-5.661,0-.557-.1-.66-.648-.66Zm-7.068,23.315h14.133v-9.97h-.814v.3q0,3.308,0,6.615a.857.857,0,0,1-.984.986H2255.6c-.673,0-.982-.311-.982-.987q0-3.308,0-6.616v-.3h-5.812Zm7.065-14.976c-2.7,0-5.4.007-8.1-.008a.946.946,0,0,0-.824.345.267.267,0,0,0-.057.352q.82,1.608,1.613,3.228a.378.378,0,0,0,.4.25q6.969-.011,13.938-.005a.306.306,0,0,0,.121,0c.078-.038.186-.071.219-.137.571-1.123,1.132-2.25,1.693-3.377.026-.053.056-.154.033-.174-.215-.188-.335-.479-.71-.477C2261.421,2332.683,2258.646,2332.677,2255.872,2332.677Zm-.407,12.061h5.811v-7.048h-5.811Zm-8.715-9.791-.04.014c0,.024-.005.048-.005.073q0,4.317,0,8.634a.764.764,0,0,0,.086.321c.336.685.679,1.366,1.021,2.049.03.06.066.117.1.175l.046-.01v-.258c0-2.724,0-5.447,0-8.171a1.635,1.635,0,0,0-.188-.79C2247.424,2336.31,2247.09,2335.626,2246.75,2334.946Zm17.041,11.261.054,0c.385-.769.773-1.537,1.152-2.309a.665.665,0,0,0,.042-.285q0-4.22,0-8.44c0-.067-.01-.135-.015-.2-.4.718-.772,1.44-1.126,2.169a1.039,1.039,0,0,0-.1.439q-.009,4.2,0,8.392Z" fill="#707b9b"/>
    <path id="Path_2200" data-name="Path 2200" d="M2314.5,2333.836c0-.537,0-1.074,0-1.611a.831.831,0,0,1,.9-.9q.977-.005,1.953,0a.826.826,0,0,1,.891.881q.011,1.623,0,3.246a.816.816,0,0,1-.873.873q-1,.015-2,0a.818.818,0,0,1-.865-.879C2314.494,2334.91,2314.5,2334.373,2314.5,2333.836Zm2.889,1.643v-3.307h-2.042v3.307Z" transform="translate(-54.038 -6.155)" fill="#707b9b"/>
    <path id="Path_2201" data-name="Path 2201" d="M2282.121,2334.426c-.562,0-1.123,0-1.684,0a1.164,1.164,0,0,1-1.232-.985,1.151,1.151,0,0,1,.863-1.271c.539-.18,1.079-.357,1.615-.543a1.248,1.248,0,0,1,.836-.008c.562.19,1.126.373,1.687.566a1.132,1.132,0,0,1,.8,1.309,1.146,1.146,0,0,1-1.175.932C2283.26,2334.428,2282.69,2334.426,2282.121,2334.426Zm0-.832h1.684c.188,0,.345-.054.376-.266s-.092-.308-.276-.368c-.54-.175-1.077-.363-1.619-.532a.624.624,0,0,0-.35,0c-.535.167-1.063.353-1.6.525-.188.061-.34.153-.3.373s.2.27.4.269C2281,2333.591,2281.56,2333.593,2282.121,2333.593Z" transform="translate(-26.239 -6.334)" fill="#707b9b"/>
    <path id="Path_2202" data-name="Path 2202" d="M2257.053,2333a1.665,1.665,0,1,1-3.33-.015,1.665,1.665,0,0,1,3.33.015Zm-1.671.826a.816.816,0,0,0,.836-.826.831.831,0,0,0-.832-.837.846.846,0,0,0-.831.82A.831.831,0,0,0,2255.383,2333.831Z" transform="translate(-6.187 -6.164)" fill="#707b9b"/>
    <path id="Path_2203" data-name="Path 2203" d="M2268.708,2399.341a1.207,1.207,0,0,1-1.176-1.59,9.889,9.889,0,0,1,.842-1.558.4.4,0,0,1,.68.016,10.255,10.255,0,0,1,.819,1.516A1.211,1.211,0,0,1,2268.708,2399.341Zm.047-2.115-.1,0a6.13,6.13,0,0,0-.339.818.511.511,0,0,0,.163.386.313.313,0,0,0,.46-.01.515.515,0,0,0,.144-.392A5.938,5.938,0,0,0,2268.755,2397.227Z" transform="translate(-17.001 -57.086)" fill="#707b9b"/>
    <path id="Path_2204" data-name="Path 2204" d="M2268.714,2418.935a1.205,1.205,0,0,1-1.156-1.636,10.292,10.292,0,0,1,.814-1.491.4.4,0,0,1,.694,0,10.243,10.243,0,0,1,.811,1.493A1.2,1.2,0,0,1,2268.714,2418.935Zm.046-2.119-.085,0a6.313,6.313,0,0,0-.347.837.433.433,0,0,0,.176.374.509.509,0,0,0,.44-.01.435.435,0,0,0,.157-.38A6.245,6.245,0,0,0,2268.761,2416.815Z" transform="translate(-17.012 -72.517)" fill="#707b9b"/>
    <path id="Path_2205" data-name="Path 2205" d="M2273.942,2370.549h5.832a1.618,1.618,0,0,1,.244.006.409.409,0,0,1,.088.789.973.973,0,0,1-.311.036q-5.869,0-11.737,0a1.133,1.133,0,0,1-.29-.024.4.4,0,0,1-.3-.445.388.388,0,0,1,.37-.357,2.192,2.192,0,0,1,.244,0Z" transform="translate(-17.008 -37.04)" fill="#707b9b"/>
    <path id="Path_2206" data-name="Path 2206" d="M2278.565,2378.376h4.588a2.023,2.023,0,0,1,.244,0,.413.413,0,0,1,.034.816.99.99,0,0,1-.194.01h-9.347a.985.985,0,0,1-.219-.014.4.4,0,0,1-.314-.434.391.391,0,0,1,.352-.377,1.445,1.445,0,0,1,.244-.006Z" transform="translate(-21.644 -43.201)" fill="#707b9b"/>
    <path id="Path_2207" data-name="Path 2207" d="M2264.177,2379.2a2.125,2.125,0,0,1-.243,0,.407.407,0,0,1-.375-.43.4.4,0,0,1,.387-.393,3.768,3.768,0,0,1,.414,0,.415.415,0,1,1,.013.829c-.065,0-.13,0-.195,0Z" transform="translate(-13.931 -43.197)" fill="#707b9b"/>
    <path id="Path_2208" data-name="Path 2208" d="M2258.291,2370.554c.4,0,.6.129.607.4s-.2.431-.607.431a2.373,2.373,0,0,1-.243,0,.426.426,0,0,1-.4-.415.419.419,0,0,1,.425-.412C2258.145,2370.551,2258.218,2370.554,2258.291,2370.554Z" transform="translate(-9.276 -37.043)" fill="#707b9b"/>
    <path id="Path_2209" data-name="Path 2209" d="M2296.913,2399.437c-.406,0-.813,0-1.22,0a.82.82,0,0,1-.862-.834c-.014-.553-.029-1.108.01-1.658a2.086,2.086,0,0,1,.275-.625.944.944,0,0,0,.128-.31c.016-.373,0-.748.007-1.122a.827.827,0,0,1,.858-.865q.8-.012,1.61,0a.828.828,0,0,1,.857.865c0,.269,0,.537,0,.805s-.036.546.239.766a.8.8,0,0,1,.176.535c.022.519.014,1.041.006,1.561a.832.832,0,0,1-.891.882C2297.71,2399.439,2297.312,2399.437,2296.913,2399.437Zm-.431-.845c.046-.326-.092-.788.412-.8.545-.017.4.473.455.8h.8v-1.627h-2.465v1.632Zm1.247-2.492v-1.23H2296.1v1.23Z" transform="translate(-38.542 -55.518)" fill="#707b9b"/>
  </g>
</svg>
