<svg id="Group_758" data-name="Group 758" xmlns="http://www.w3.org/2000/svg" width="23.553" height="23.588" viewBox="0 0 23.553 23.588">
  <g id="Group_757" data-name="Group 757" transform="translate(0 0)">
    <path id="Path_2089" data-name="Path 2089" d="M1656.94,2021.227v.3q0,1.474,0,2.947c0,.451-.109.563-.547.563h-18.662c-.431,0-.546-.112-.546-.538q0-1.486,0-2.972v-.3c-.146,0-.268-.009-.388,0a1.377,1.377,0,0,1-1.516-1.5c.023-5.225.011-10.451.011-15.677,0-.429,0-.859,0-1.288a1.284,1.284,0,0,1,1.314-1.316q10.456,0,20.911,0a1.278,1.278,0,0,1,1.313,1.316q0,8.569,0,17.138a1.279,1.279,0,0,1-1.306,1.323C1657.345,2021.229,1657.165,2021.227,1656.94,2021.227Zm-9.876-.754H1657.3c.615,0,.782-.165.782-.771q0-8.371,0-16.742c0-.579-.177-.758-.749-.758h-20.54c-.562,0-.745.181-.745.737q0,8.4,0,16.791c0,.562.18.743.736.743Zm-9.1,3.792h18.188v-3.021h-18.188Z" transform="translate(-1635.28 -2001.448)" fill="#707b9b"/>
    <path id="Path_2090" data-name="Path 2090" d="M1655.08,2010.991h9.3c.481,0,.583.1.583.577v14.962c0,.475-.1.579-.582.579h-18.592c-.48,0-.582-.1-.582-.579q0-7.481,0-14.962c0-.477.1-.577.582-.577Zm-9.083.769v14.056c.677-.644,1.316-1.265,1.974-1.864a.831.831,0,0,1,.5-.2c.931-.019,1.862-.009,2.793-.01.087,0,.173-.007.269-.012,0-1.08.007-2.128,0-3.177a.609.609,0,0,1,.374-.626c.965-.481,1.924-.976,2.879-1.477a.59.59,0,0,1,.6,0c.963.5,1.928,1,2.9,1.489a.578.578,0,0,1,.349.59c-.009.974,0,1.949,0,2.923v.29h.3c.98,0,1.961,0,2.942,0a.689.689,0,0,1,.547.226c.518.544,1.045,1.077,1.57,1.614.054.055.114.1.186.169v-13.985h-.482c0,.557,0,1.1,0,1.642a1.469,1.469,0,0,1-1.5,1.508c-.376.005-.428.055-.444.422a1.4,1.4,0,1,1-2.8-.05c0-.188-.049-.356-.25-.361-.623-.016-1.246-.006-1.887-.006v.516c0,.589-.039.632-.613.676-.013,0-.025.017-.058.039,0,.341,0,.695,0,1.048,0,.371-.122.491-.486.493s-.709,0-1.063,0c-.472,0-.567-.094-.568-.56,0-.335,0-.671,0-1.005-.072-.009-.1-.015-.136-.016-.442-.018-.534-.112-.535-.547q0-.719,0-1.437v-.4h-.311c-1.2,0-2.406,0-3.61,0a1.392,1.392,0,0,1-1.489-1.482c0-.162,0-.323,0-.486Zm17.681,14.579c-.6-.615-1.17-1.2-1.746-1.773a.4.4,0,0,0-.252-.055c-1.071,0-2.141-.005-3.212,0a.872.872,0,0,0-.374.091q-1.355.684-2.7,1.388a.608.608,0,0,1-.625,0c-.888-.468-1.783-.923-2.678-1.375a.873.873,0,0,0-.371-.1q-1.532-.012-3.064,0a.527.527,0,0,0-.322.129c-.408.372-.807.754-1.2,1.141-.179.176-.34.37-.508.554Zm-2.022-14.5H1648.7c0,.189-.011.362,0,.533.031.38.323.6.8.6h11.415a1.251,1.251,0,0,0,.173-.007.631.631,0,0,0,.563-.568C1661.668,2012.221,1661.655,2012.04,1661.655,2011.842Zm-9.355,9.134c0,.954,0,1.861.006,2.768a.287.287,0,0,0,.146.19c.383.208.773.4,1.162.6l1.081.555c0-.95,0-1.856,0-2.762a.207.207,0,0,0-.089-.154C1653.854,2021.78,1653.1,2021.392,1652.3,2020.976Zm3.165,4.117c.8-.41,1.555-.792,2.3-1.189.059-.031.09-.164.09-.25.007-.809,0-1.618,0-2.427,0-.069-.01-.139-.017-.239-.778.4-1.53.791-2.278,1.185a.207.207,0,0,0-.1.148C1655.463,2023.228,1655.465,2024.136,1655.465,2025.093Zm1.357-10.948c.092,0,.172.01.252.011.51,0,1.021,0,1.531,0a1.041,1.041,0,0,1,1.115,1.086.625.625,0,0,0,.639.664.634.634,0,0,0,.625-.657,1.464,1.464,0,0,1,.107-.5,1.021,1.021,0,0,1,1.021-.6c.439,0,.761-.206.787-.588.041-.6.011-1.2.011-1.807-.084,0-.156-.012-.229-.011s-.158.008-.263.014c0,.174,0,.329,0,.484a1.4,1.4,0,0,1-1.5,1.476q-1.913,0-3.827,0h-.275Zm-4.05,6.193a1.014,1.014,0,0,0,.1.073c.694.359,1.386.721,2.086,1.069a.372.372,0,0,0,.288-.021c.67-.334,1.334-.678,2-1.021a1.142,1.142,0,0,0,.139-.1c-.742-.381-1.458-.75-2.177-1.113a.264.264,0,0,0-.2-.021C1654.265,2019.571,1653.53,2019.95,1652.772,2020.338Zm3.259-5.008v-1.589h-1.9v1.589Zm-1.24,1.585h.568v-.8h-.568Z" transform="translate(-1643.298 -2009.16)" fill="#707b9b"/>
    <path id="Path_2091" data-name="Path 2091" d="M1684.771,2111.235c-.263,0-.526,0-.789,0-.3,0-.469-.145-.465-.389s.163-.374.452-.376q.813-.007,1.626,0c.279,0,.448.158.445.388s-.173.372-.456.377S1685.042,2111.235,1684.771,2111.235Z" transform="translate(-1674.26 -2089.545)" fill="#707b9b"/>
    <path id="Path_2092" data-name="Path 2092" d="M1667.777,2111.235c-.272,0-.544,0-.816,0s-.443-.164-.438-.4.166-.364.44-.366q.816-.008,1.632,0c.285,0,.451.151.451.383s-.167.377-.453.382S1668.049,2111.235,1667.777,2111.235Z" transform="translate(-1660.527 -2089.545)" fill="#707b9b"/>
    <path id="Path_2093" data-name="Path 2093" d="M1656.335,2111.254a.378.378,0,0,1-.381-.373.384.384,0,0,1,.368-.388.381.381,0,0,1,.013.761Z" transform="translate(-1651.987 -2089.568)" fill="#707b9b"/>
  </g>
</svg>
