<svg xmlns="http://www.w3.org/2000/svg" width="25.709" height="22.953" viewBox="0 0 25.709 22.953">
  <g id="Group_704" data-name="Group 704" transform="translate(-1370 -636.619)">
    <path id="Path_1880" data-name="Path 1880" d="M1382.177,641.319c-.044-.281-.1-.544-.124-.81a1.961,1.961,0,0,1,.5-1.628.852.852,0,0,0,.168-.843,4.23,4.23,0,0,0-.263-.713.47.47,0,0,1,.162-.649.452.452,0,0,1,.632.216,2.746,2.746,0,0,1,.357,1.851,1.369,1.369,0,0,1-.368.723,1.066,1.066,0,0,0-.294.931c.028.257.1.508.145.763.023.12.082.162.21.161.945-.006,1.891,0,2.837-.006a1.993,1.993,0,0,1,1.477.571c.377.364.777.7,1.159,1.063a.963.963,0,0,0,.7.274c1.617-.006,3.233,0,4.85,0a1.3,1.3,0,0,1,1.372,1.375c0,3.787-.009,7.574.008,11.361a1.374,1.374,0,0,1-1.42,1.418c-4.287-.009-8.573,0-12.86-.011a1.542,1.542,0,0,0-1.278.555c-.292.343-.613.661-.922.988a2.009,2.009,0,0,1-1.516.661c-2.116,0-4.233-.006-6.349,0a1.353,1.353,0,0,1-1.364-1.378c.012-4.537.006-9.073.006-13.61a1.3,1.3,0,0,1,1.355-1.362c1.612,0,3.224,0,4.835,0a1.022,1.022,0,0,0,.754-.293c.387-.367.794-.714,1.181-1.082a1.9,1.9,0,0,1,1.373-.532c.838,0,1.676,0,2.513,0Zm.521,15.151h11.581c.378,0,.522-.146.522-.526q0-5.651,0-11.3c0-.378-.144-.522-.523-.522h-22.854c-.377,0-.521.144-.521.524q0,5.8,0,11.6c0,.24-.038.23.227.23Zm-3.3.943-.022-.032h-8.459a.21.21,0,0,0-.016.049c0,.255,0,.51,0,.765a.419.419,0,0,0,.467.476q3.168,0,6.335,0a.969.969,0,0,0,.695-.233C1378.747,658.108,1379.071,657.756,1379.4,657.413Zm-1.427-14.205h9.747c-.287-.261-.549-.495-.806-.733a.927.927,0,0,0-.654-.254h-6.817a.8.8,0,0,0-.538.161C1378.6,642.641,1378.309,642.913,1377.977,643.208Z" fill="#707b9b"/>
    <path id="Path_1881" data-name="Path 1881" d="M1417.043,718.1h-3.278a.91.91,0,0,1-.963-.956c0-.343,0-.686,0-1.029a.91.91,0,0,1,.95-.94h6.57a.91.91,0,0,1,.961.958q0,.515,0,1.029a.9.9,0,0,1-.934.938Q1418.7,718.1,1417.043,718.1Zm3.343-.9c0-.342,0-.664,0-.986,0-.111-.035-.141-.143-.141q-3.2,0-6.4,0c-.114,0-.141.04-.139.146.006.269.01.539,0,.808-.006.144.042.178.181.178q3.173-.005,6.346,0Z" transform="translate(-34.205 -62.775)" fill="#707b9b"/>
    <path id="Path_1882" data-name="Path 1882" d="M1452.629,690.658c0,.45,0,.9,0,1.351a.855.855,0,0,1-.9.909q-1.19.008-2.38,0a.845.845,0,0,1-.89-.9c0-.313,0-.627,0-.94a.849.849,0,0,1,.852-.865c.152,0,.3-.009.455,0,.127.008.173-.029.168-.162-.01-.254,0-.509,0-.764a.857.857,0,0,1,.9-.9q.448,0,.9,0a.868.868,0,0,1,.9.91c0,.225,0,.451,0,.676Zm-.9,1.354v-.69c0-.627,0-1.254,0-1.881,0-.048-.046-.137-.073-.139-.267-.01-.535-.006-.819-.006v.179q0,.507,0,1.014a.555.555,0,0,1-.62.627h-.859c0,.257.007.5,0,.744-.005.13.036.167.165.165.681-.006,1.362,0,2.042,0C1451.608,692.022,1451.656,692.017,1451.728,692.012Z" transform="translate(-62.7 -41.377)" fill="#707b9b"/>
    <path id="Path_1883" data-name="Path 1883" d="M1415.7,698.879c0,.191.005.382,0,.573a.9.9,0,0,1-.907.891q-.544.008-1.087,0a.906.906,0,0,1-.909-.906c-.007-.372-.008-.745,0-1.117a.9.9,0,0,1,.91-.9q.544-.006,1.087,0a.892.892,0,0,1,.906.888C1415.706,698.5,1415.7,698.688,1415.7,698.879Zm-.9-.548h-1.1c0,.349,0,.686,0,1.022,0,.029.046.082.072.083.317.006.635.007.952,0a.1.1,0,0,0,.072-.067C1414.8,699.027,1414.8,698.682,1414.8,698.331Z" transform="translate(-34.196 -48.585)" fill="#707b9b"/>
    <path id="Path_1884" data-name="Path 1884" d="M1378.527,716.62c0-.191,0-.382,0-.573a.9.9,0,0,1,.883-.883c.377-.005.754,0,1.131,0a.9.9,0,0,1,.885.866c.01.4.009.794,0,1.19a.9.9,0,0,1-.884.866c-.377,0-.754.005-1.131,0a.9.9,0,0,1-.885-.88C1378.523,717.012,1378.527,716.816,1378.527,716.62Zm.907.557h1.1c0-.35,0-.687-.005-1.024,0-.031-.072-.083-.112-.085-.2-.01-.391-.005-.588-.006h-.392Z" transform="translate(-6.813 -62.766)" fill="#707b9b"/>
    <path id="Path_1885" data-name="Path 1885" d="M1477.893,716.631c0,.191,0,.382,0,.573a.9.9,0,0,1-.894.886q-.558.006-1.117,0a.9.9,0,0,1-.89-.875c-.008-.387-.007-.774,0-1.161a.9.9,0,0,1,.9-.887q.558-.006,1.116,0a.9.9,0,0,1,.889.891C1477.9,716.249,1477.893,716.44,1477.893,716.631Zm-1.992-.559v1.109h1.081v-1.109Z" transform="translate(-83.9 -62.768)" fill="#707b9b"/>
    <path id="Path_1886" data-name="Path 1886" d="M1398.573,716.622c0,.191,0,.382,0,.573a.9.9,0,0,1-.894.887q-.558.006-1.116,0a.9.9,0,0,1-.892-.9q0-.559,0-1.117a.9.9,0,0,1,.88-.9c.382-.008.764-.007,1.146,0a.9.9,0,0,1,.876.875C1398.577,716.23,1398.573,716.426,1398.573,716.622Zm-2,.55h1.089v-1.115c-.346,0-.678,0-1.01,0a.111.111,0,0,0-.076.077C1396.568,716.479,1396.57,716.82,1396.57,717.172Z" transform="translate(-20.513 -62.76)" fill="#707b9b"/>
    <path id="Path_1887" data-name="Path 1887" d="M1460.753,716.621c0,.191,0,.382,0,.573a.9.9,0,0,1-.9.9q-.551,0-1.1,0a.9.9,0,0,1-.9-.9q-.007-.565,0-1.131a.9.9,0,0,1,.9-.9c.367,0,.735,0,1.1,0a.9.9,0,0,1,.9.912C1460.753,716.258,1460.752,716.44,1460.753,716.621Zm-2,.559h1.1c0-.352,0-.694,0-1.035,0-.027-.068-.073-.106-.076-.141-.009-.284,0-.425,0h-.559Z" transform="translate(-70.202 -62.767)" fill="#707b9b"/>
    <path id="Path_1888" data-name="Path 1888" d="M1398.575,698.879c0,.186,0,.372,0,.558a.9.9,0,0,1-.893.9q-.558.014-1.116,0a.9.9,0,0,1-.893-.921c0-.362,0-.725,0-1.087a.9.9,0,0,1,.909-.916q.544-.006,1.087,0a.9.9,0,0,1,.907.9C1398.578,698.507,1398.575,698.693,1398.575,698.879Zm-.909-.55h-1.088v1.1h1.088Z" transform="translate(-20.515 -48.585)" fill="#707b9b"/>
    <path id="Path_1889" data-name="Path 1889" d="M1477.9,698.89c0,.181,0,.363,0,.544a.9.9,0,0,1-.889.908c-.372.009-.745.009-1.117,0a.9.9,0,0,1-.9-.917c0-.362,0-.725,0-1.087a.9.9,0,0,1,.92-.92c.358,0,.715,0,1.073,0a.9.9,0,0,1,.91.914C1477.9,698.518,1477.9,698.7,1477.9,698.89Zm-.906-.563h-1.09v1.1H1477Z" transform="translate(-83.909 -48.584)" fill="#707b9b"/>
    <path id="Path_1890" data-name="Path 1890" d="M1378.526,698.871c0-.191,0-.382,0-.573a.89.89,0,0,1,.864-.883q.587-.014,1.175,0a.887.887,0,0,1,.86.858q.016.6,0,1.2a.9.9,0,0,1-.894.859c-.367.008-.735.007-1.1,0a.9.9,0,0,1-.9-.922C1378.525,699.233,1378.526,699.052,1378.526,698.871Zm.9-.55c0,.348,0,.681,0,1.013,0,.092.051.1.121.1h.66c.326,0,.326,0,.326-.321v-.8Z" transform="translate(-6.813 -48.578)" fill="#707b9b"/>
    <path id="Path_1891" data-name="Path 1891" d="M1431.4,700.348c-.171,0-.343,0-.514,0a.911.911,0,0,1-.944-.917q-.012-.543,0-1.087a.9.9,0,0,1,.937-.921c.338,0,.676,0,1.014,0a.885.885,0,0,1,.951.87,9.9,9.9,0,0,1-.006,1.233.882.882,0,0,1-.894.822C1431.76,700.352,1431.579,700.348,1431.4,700.348Zm-.56-1.465c0,.142,0,.284,0,.425,0,.1.028.142.132.14.284,0,.568,0,.851,0,.092,0,.133-.026.132-.125,0-.293,0-.587,0-.88,0-.084-.025-.122-.117-.121q-.44.006-.881,0c-.092,0-.119.036-.116.122C1430.841,698.589,1430.838,698.736,1430.838,698.883Z" transform="translate(-47.895 -48.589)" fill="#707b9b"/>
    <path id="Path_1892" data-name="Path 1892" d="M1398.571,681.1c0,.2,0,.392,0,.588a.885.885,0,0,1-.853.878q-.595.02-1.19,0a.888.888,0,0,1-.859-.887q-.005-.565,0-1.131a.882.882,0,0,1,.839-.891c.406-.018.813-.018,1.219,0a.882.882,0,0,1,.844.886C1398.574,680.723,1398.571,680.909,1398.571,681.1Zm-2-.542v1.1h1.083v-1.1Z" transform="translate(-20.511 -34.378)" fill="#707b9b"/>
    <path id="Path_1893" data-name="Path 1893" d="M1378.526,681.109c0-.2,0-.392,0-.587a.876.876,0,0,1,.82-.862c.42-.019.843-.019,1.263,0a.879.879,0,0,1,.818.866q.009.587,0,1.175a.883.883,0,0,1-.836.864c-.406.014-.813.014-1.219,0a.881.881,0,0,1-.845-.869C1378.521,681.5,1378.525,681.305,1378.526,681.109Zm.907-.551v1.1h1.088v-1.1Z" transform="translate(-6.812 -34.384)" fill="#707b9b"/>
    <path id="Path_1894" data-name="Path 1894" d="M1476.447,682.57c-.206,0-.412.009-.617,0a.889.889,0,0,1-.838-.864c-.007-.4-.008-.793,0-1.19a.876.876,0,0,1,.815-.853c.425-.019.852-.019,1.277,0a.869.869,0,0,1,.806.844q.013.6,0,1.2a.883.883,0,0,1-.842.858c-.2.01-.4,0-.6,0Zm-.55-.907h1.085v-1.1H1475.9Z" transform="translate(-83.9 -34.385)" fill="#707b9b"/>
    <path id="Path_1895" data-name="Path 1895" d="M1414.24,682.57c-.186,0-.372,0-.558,0a.9.9,0,0,1-.886-.879q-.015-.58,0-1.161a.886.886,0,0,1,.857-.876c.4-.014.794-.014,1.19,0a.879.879,0,0,1,.854.875q.012.573,0,1.146a.888.888,0,0,1-.9.894C1414.613,682.574,1414.426,682.57,1414.24,682.57Zm.551-2.011h-1.1c0,.353,0,.694.005,1.035,0,.025.071.069.11.071.185.008.371.005.556.006h.425Z" transform="translate(-34.194 -34.382)" fill="#707b9b"/>
    <path id="Path_1896" data-name="Path 1896" d="M1431.384,682.579c-.171,0-.343,0-.514,0a.9.9,0,0,1-.928-.915c-.007-.362-.006-.725,0-1.087a.9.9,0,0,1,.925-.918c.357-.005.715-.005,1.072,0a.871.871,0,0,1,.9.828,10.665,10.665,0,0,1,0,1.306.86.86,0,0,1-.819.782c-.21.011-.421,0-.632,0Zm.567-2.023c-.351,0-.687,0-1.022,0-.03,0-.083.065-.084.1-.007.3,0,.606,0,.909,0,.073.024.106.1.106.3,0,.606,0,.909,0,.034,0,.1-.047.1-.073C1431.953,681.26,1431.951,680.92,1431.951,680.556Z" transform="translate(-47.898 -34.391)" fill="#707b9b"/>
    <path id="Path_1897" data-name="Path 1897" d="M1453.235,680.235c-.465,0-.93,0-1.395,0a.429.429,0,0,1-.42-.361.439.439,0,0,1,.273-.5.737.737,0,0,1,.244-.038q1.321,0,2.642,0a.465.465,0,0,1,.5.326.442.442,0,0,1-.435.572c-.47.006-.94,0-1.409,0Z" transform="translate(-65.061 -34.136)" fill="#707b9b"/>
  </g>
</svg>
