<svg xmlns="http://www.w3.org/2000/svg" width="25.367" height="25.428" viewBox="0 0 25.367 25.428">
  <g id="Group_761" data-name="Group 761" transform="translate(-2094.123 -2004)">
    <path id="Path_2104" data-name="Path 2104" d="M2115.5,2004a3.967,3.967,0,0,1,.51.331.94.94,0,0,1,.3.736c0,.422,0,.844,0,1.266,0,.28-.159.453-.387.446s-.368-.179-.371-.466c0-.364,0-.728,0-1.092,0-.379-.084-.463-.468-.463h-9.136c-.562,0-1.125,0-1.688,0-.287,0-.393.094-.393.36q0,2.817,0,5.635a.559.559,0,0,0,.017.088h11.668v-.257q0-1.13,0-2.259a.953.953,0,0,1,.007-.2.358.358,0,0,1,.381-.319.339.339,0,0,1,.363.333c.019.221-.057.5.054.647.091.118.4.052.6.1a1.089,1.089,0,0,1,.818,1.059c.008.3,0,.592,0,.884.187.035.351.052.508.1a1.624,1.624,0,0,1,1.191,1.537c.014.7.006,1.407.006,2.11q0,5.6,0,11.2a1.651,1.651,0,0,1-1.4,1.746,2.458,2.458,0,0,1-.42.022h-15.248a4.724,4.724,0,0,1-.094.467,1.931,1.931,0,0,1-1.364,1.353c-.069.021-.139.045-.208.067h-3.179c-.053-.018-.105-.04-.159-.055a1.935,1.935,0,0,1-1.409-1.369,4.569,4.569,0,0,1-.091-.45,1.758,1.758,0,0,1-1.791-1.935c.041-2.772.013-5.545.013-8.318,0-1.581,0-3.162,0-4.743a1.645,1.645,0,0,1,1.469-1.687c.1-.015.21-.019.312-.027a1.983,1.983,0,0,1,2.167-1.874c.621,0,1.242.012,1.862,0a2.4,2.4,0,0,1,1.8.5,1.243,1.243,0,0,1,1.348-.615v-.3c0-1.068.02-2.136-.007-3.2a1.236,1.236,0,0,1,.841-1.353Zm-13.153,22.783h15.319a.934.934,0,0,0,1.063-1.067q0-6.518,0-13.036a.929.929,0,0,0-1.068-1.06H2102.4c0,.118,0,.208,0,.3-.051.95-.089,1.9-.159,2.848-.043.584-.184,1.165-.192,1.748-.026,1.788-.01,3.576-.008,5.363a3.24,3.24,0,0,0,.037.394c.091.722.221,1.441.265,2.165C2102.385,2025.2,2102.35,2025.972,2102.35,2026.783Zm-5.659-.84v.745c0,.248,0,.5,0,.745a1.182,1.182,0,0,0,1.188,1.233q1.291.024,2.582,0a1.181,1.181,0,0,0,1.182-1.239c0-.414.02-.828,0-1.241-.055-1.031-.068-2.07-.214-3.09a18.005,18.005,0,0,1-.157-2.593c0-1.3,0-2.6,0-3.9a4.85,4.85,0,0,1,.06-.74,26.83,26.83,0,0,0,.311-4.946,1.148,1.148,0,0,0-1.114-1.171q-1.364-.043-2.729,0a1.11,1.11,0,0,0-1.1,1.128c.01,1.165.014,2.335.126,3.493a31.046,31.046,0,0,1,.246,3.732c-.029,1.249,0,2.5-.008,3.748a2.555,2.555,0,0,1-.043.493A18.568,18.568,0,0,0,2096.69,2025.943Zm-.719-14.294a.9.9,0,0,0-1.079.962q0,6.59,0,13.179c0,.058,0,.116,0,.174a.864.864,0,0,0,1.037.776c0-.1,0-.207,0-.313.049-1.023.085-2.048.156-3.07.035-.5.188-1,.2-1.5.025-1.779.011-3.557.008-5.336a4.856,4.856,0,0,0-.04-.518c-.093-.83-.214-1.657-.274-2.489C2095.936,2012.9,2095.972,2012.279,2095.972,2011.649Zm20.357-.807h.683c0-.318.009-.621,0-.924a.3.3,0,0,0-.3-.3c-.121-.012-.243,0-.377,0Zm-13.24-1.231c-.129,0-.235,0-.341,0a.323.323,0,0,0-.343.319c-.017.3,0,.6,0,.909h.688Z" transform="translate(0)" fill="#fff"/>
    <path id="Path_2105" data-name="Path 2105" d="M2155.924,2027.339q1.712,0,3.423,0a1.158,1.158,0,0,1,.294.027.313.313,0,0,1,.263.364.742.742,0,0,1-.263.344c-.057.048-.174.032-.264.032q-3.46,0-6.921,0a1.023,1.023,0,0,1-.27-.026.342.342,0,0,1-.269-.368.336.336,0,0,1,.264-.346,1.159,1.159,0,0,1,.294-.028Q2154.2,2027.337,2155.924,2027.339Z" transform="translate(-46.204 -18.658)" fill="#fff"/>
    <path id="Path_2106" data-name="Path 2106" d="M2155.911,2019.287q-1.761,0-3.522,0c-.3,0-.462-.13-.469-.362a.346.346,0,0,1,.306-.386,1.173,1.173,0,0,1,.222-.01h6.945a1.485,1.485,0,0,1,.2.007.372.372,0,0,1,.061.724.988.988,0,0,1-.293.027Q2157.635,2019.288,2155.911,2019.287Z" transform="translate(-46.206 -11.613)" fill="#fff"/>
    <path id="Path_2107" data-name="Path 2107" d="M2147.9,2050.508h4.99a.887.887,0,0,1,1.009,1q0,1.092,0,2.185a.875.875,0,0,1-.951.963q-3.253.007-6.5,0c-.305,0-.481-.146-.48-.381s.181-.38.483-.38c2.127,0,4.254,0,6.38,0,.253,0,.328-.075.323-.324-.015-.678-.012-1.357,0-2.035,0-.22-.074-.284-.289-.284q-4.953.008-9.906,0c-.232,0-.3.071-.3.3.012.695.01,1.39,0,2.085,0,.193.058.263.256.259.538-.01,1.076,0,1.614,0,.194,0,.362.084.385.278a.644.644,0,0,1-.125.393c-.042.063-.177.085-.271.086-.571.007-1.142.012-1.713,0a.862.862,0,0,1-.9-.911q-.016-1.167,0-2.334a.862.862,0,0,1,.933-.9Q2145.366,2050.5,2147.9,2050.508Z" transform="translate(-38.189 -37.18)" fill="#fff"/>
    <path id="Path_2108" data-name="Path 2108" d="M2191.834,2078.586c0,.156,0,.313,0,.47a.716.716,0,0,1-.685.739,8.466,8.466,0,0,1-1.113,0,.721.721,0,0,1-.679-.724c-.013-.321-.011-.644,0-.965a.738.738,0,0,1,.739-.745c.33-.014.661-.013.991,0a.736.736,0,0,1,.749.781C2191.837,2078.289,2191.834,2078.438,2191.834,2078.586Zm-1.7-.45v.886h.922v-.886Z" transform="translate(-76.127 -58.639)" fill="#fff"/>
    <path id="Path_2109" data-name="Path 2109" d="M2144.375,2078.6c0,.157.007.315,0,.471a.726.726,0,0,1-.718.739,10.311,10.311,0,0,1-1.042,0,.719.719,0,0,1-.711-.719c-.015-.322-.013-.646,0-.968a.733.733,0,0,1,.756-.754c.314-.011.629-.009.943,0a.742.742,0,0,1,.777.785c0,.149,0,.3,0,.447Zm-.774-.447h-.926v.88h.926Z" transform="translate(-38.188 -58.646)" fill="#fff"/>
    <path id="Path_2110" data-name="Path 2110" d="M2160.182,2078.586c0,.157,0,.314,0,.472a.723.723,0,0,1-.71.745,10.032,10.032,0,0,1-1.042,0,.728.728,0,0,1-.723-.737c-.014-.322-.015-.646,0-.968a.735.735,0,0,1,.75-.736c.322-.011.646-.011.968,0a.735.735,0,0,1,.757.777C2160.186,2078.288,2160.183,2078.438,2160.182,2078.586Zm-1.7.439h.934v-.875h-.934Z" transform="translate(-50.823 -58.643)" fill="#fff"/>
    <path id="Path_2111" data-name="Path 2111" d="M2176.007,2078.574c0,.157,0,.315,0,.472a.727.727,0,0,1-.718.764,10.1,10.1,0,0,1-1.042,0,.732.732,0,0,1-.717-.744c-.012-.314-.012-.629,0-.943a.742.742,0,0,1,.76-.754c.306-.01.613-.007.919,0a.744.744,0,0,1,.8.81C2176.009,2078.309,2176.007,2078.441,2176.007,2078.574Zm-1.7.453h.928v-.877h-.928Z" transform="translate(-63.474 -58.648)" fill="#fff"/>
    <path id="Path_2112" data-name="Path 2112" d="M2191.831,2096.644c0,.157,0,.314,0,.47a.709.709,0,0,1-.678.718,11.067,11.067,0,0,1-1.113,0,.716.716,0,0,1-.685-.715c-.014-.33-.014-.661,0-.99a.737.737,0,0,1,.732-.728c.338-.015.677-.015,1.015,0a.736.736,0,0,1,.731.774c0,.157,0,.314,0,.471Zm-.767.424v-.883h-.928v.883Z" transform="translate(-76.124 -73.06)" fill="#fff"/>
    <path id="Path_2113" data-name="Path 2113" d="M2176,2096.634c0,.166.006.331,0,.5a.711.711,0,0,1-.693.706c-.355.017-.712.016-1.067,0a.722.722,0,0,1-.714-.717c-.016-.33-.016-.663,0-.993a.737.737,0,0,1,.735-.728c.33-.013.662-.012.993,0a.736.736,0,0,1,.747.762c0,.157,0,.314,0,.472Zm-.769.438v-.889h-.921v.889Z" transform="translate(-63.468 -73.062)" fill="#fff"/>
    <path id="Path_2114" data-name="Path 2114" d="M2158.924,2097.841c-.157,0-.315.005-.472,0a.725.725,0,0,1-.745-.711,9.183,9.183,0,0,1,0-1.017.726.726,0,0,1,.723-.711c.338-.015.679-.014,1.017,0a.729.729,0,0,1,.732.751q.013.472,0,.943a.723.723,0,0,1-.734.746C2159.271,2097.847,2159.1,2097.84,2158.924,2097.841Zm.478-.773v-.883h-.919v.883Z" transform="translate(-50.821 -73.061)" fill="#fff"/>
    <path id="Path_2115" data-name="Path 2115" d="M2143.124,2097.842c-.174,0-.348.009-.521,0a.708.708,0,0,1-.7-.677,9.484,9.484,0,0,1,0-1.067.722.722,0,0,1,.736-.695c.331-.012.662-.012.993,0a.73.73,0,0,1,.739.745c.012.314.011.629,0,.943a.73.73,0,0,1-.778.753c-.157,0-.315,0-.472,0Zm.477-.769v-.891h-.923v.891Z" transform="translate(-38.188 -73.063)" fill="#fff"/>
  </g>
</svg>
