<svg xmlns="http://www.w3.org/2000/svg" width="25" height="18.758" viewBox="0 0 25 18.758">
  <g id="Group_698" data-name="Group 698" transform="translate(-87.765 -504.842)">
    <path id="Path_1848" data-name="Path 1848" d="M87.765,504.845c.862,0,1.725,0,2.588,0a.562.562,0,0,1,.547.29.234.234,0,0,0,.028.04,2.976,2.976,0,0,1,.752,2.445,12.6,12.6,0,0,0-.009,1.416l1.563-1.144c0-.187-.006-.439,0-.69a.782.782,0,0,1,.79-.79c.065,0,.13,0,.2,0h16.771c.717,0,.991.272.991.983,0,.187,0,.373,0,.555.611.161.781.383.781,1.006V519.5c0,.7-.278.973-.977.973h-2.119a.358.358,0,0,0-.027.082c-.008.673-.067.72.676.7.283-.008.567,0,.867,0v.776c-.53,0-1.057.016-1.582-.006-.291-.012-.739-.551-.744-.844,0-.226,0-.453,0-.693H107.3c0,.208,0,.424,0,.64a.8.8,0,0,1-.894.908q-3.015,0-6.03,0a.8.8,0,0,1-.888-.89c0-.211,0-.423,0-.653H98.7c0,.228,0,.461,0,.694a.79.79,0,0,1-.855.849c-.236,0-.472.006-.708,0a.777.777,0,0,1-.778-.777c-.008-.251,0-.5,0-.768H94.8c0,.346,0,.686,0,1.026,0,.383-.134.519-.509.521-.34,0-.681,0-1.037,0v-.774H94v-.788a5.435,5.435,0,0,1-.648-.007.959.959,0,0,1-.443-.155c-.4-.3-.792-.624-1.217-.964-.007.1-.017.161-.017.227,0,.773.007,1.547-.007,2.319a1.011,1.011,0,0,1-.144.474c-.194.329-.421.638-.628.959a.538.538,0,0,1-.507.274c-.179-.008-.358,0-.537,0-.382,0-.517-.135-.52-.511,0-.34,0-.681,0-1.048h-.769v-.777h.755v-.79c-.167,0-.343-.013-.516,0a.923.923,0,0,1-1.032-.589v-2.735a.923.923,0,0,1,1.032-.588c.173.015.349,0,.517,0v-.789h-.755V515h.752v-.785h-.748v-.785h.753v-.768c-.587-.027-1.253.158-1.55-.59v-2.735a.922.922,0,0,1,1.03-.588c.173.015.349,0,.519,0v-.787h-.749v-.784h.747v-1.555H87.765Zm17.981,14.838h6.226V516.97a.929.929,0,0,0-.1-.013q-2.917,0-5.834,0a.4.4,0,0,0-.249.111c-.295.28-.566.586-.872.853a.81.81,0,0,1-.471.194c-.74.02-1.481.009-2.221.009h-.376v-.781c.8,0,1.581.005,2.361-.006a.516.516,0,0,0,.314-.128c.276-.253.541-.518.8-.792a.757.757,0,0,1,.6-.251c1.92.007,3.84,0,5.761,0h.282v-.788h-3.872V514.6h3.878v-.776H108.1v-.785h3.871v-.773h-.282c-1.8,0-3.6.005-5.394-.008a1.027,1.027,0,0,1-.532-.179c-.391-.263-.753-.568-1.14-.838a.8.8,0,0,0-.417-.141c-.707-.014-1.416-.006-2.123-.007-.079,0-.157-.007-.233-.011v-.769c.913,0,1.807,0,2.7.006a.632.632,0,0,1,.328.136c.409.3.8.609,1.216.9a.7.7,0,0,0,.374.124c1.757.008,3.515.006,5.273,0,.078,0,.156-.007.226-.01V508.76c-.044,0-.069-.007-.093-.007q-9.178,0-18.356,0a.521.521,0,0,0-.285.1c-.473.345-.943.694-1.4,1.057a.431.431,0,0,0-.149.3q-.012,3.967,0,7.935a.444.444,0,0,0,.145.3c.442.371.9.722,1.346,1.091a.67.67,0,0,0,.463.161q5.517-.007,11.033,0h.274v.788h-4.654v.76H106.5v-.772h-.752Zm5.445-12.477H94.034v.753H111.19Zm-21.069-1.642v17.313a1.2,1.2,0,0,0,.246-.184c.158-.217.308-.44.447-.669a.55.55,0,0,0,.073-.272q.005-7.53,0-15.06a.551.551,0,0,0-.072-.273c-.139-.229-.289-.452-.447-.669A1.23,1.23,0,0,0,90.121,505.564Zm-.806,6.3v-2.319h-.753v2.319Zm-.76,7.812h.758v-2.316h-.758Zm9.36.814h-.76v.742h.76Z" fill="#707b9b"/>
    <path id="Path_1849" data-name="Path 1849" d="M121.517,533.938a4.687,4.687,0,1,1-4.677-4.7A4.692,4.692,0,0,1,121.517,533.938Zm-4.695,1.161a1.17,1.17,0,1,0-1.162-1.172A1.183,1.183,0,0,0,116.822,535.1Zm-.4-3.1V530.05a3.785,3.785,0,0,0-2.057.866c.443.441.868.867,1.3,1.286a.216.216,0,0,0,.186.039C116.046,532.17,116.236,532.08,116.423,532Zm-3.471,2.33a3.8,3.8,0,0,0,.866,2.063c.437-.438.858-.856,1.271-1.282a.24.24,0,0,0,.053-.2c-.068-.2-.161-.385-.246-.579Zm5.811-.8h1.943a3.786,3.786,0,0,0-.86-2.063c-.442.443-.873.871-1.3,1.307a.216.216,0,0,0-.028.187C118.591,533.147,118.678,533.33,118.763,533.526Zm0,.8c-.1.223-.287.458-.251.648s.295.363.458.54c.066.072.14.136.206.208.212.23.422.462.645.705a3.834,3.834,0,0,0,.881-2.1Zm-2.333,1.537c-.2-.085-.385-.174-.58-.249a.194.194,0,0,0-.168.022c-.439.43-.871.867-1.317,1.314a3.844,3.844,0,0,0,2.065.852Zm2.86,1.081c-.442-.442-.87-.874-1.3-1.3a.192.192,0,0,0-.166-.035c-.2.077-.4.169-.587.253v1.931A3.659,3.659,0,0,0,119.291,536.944ZM117.233,532c.2.085.379.172.569.241a.217.217,0,0,0,.187-.027c.435-.424.862-.856,1.307-1.3a3.828,3.828,0,0,0-2.063-.855Zm-3.419-.53a3.8,3.8,0,0,0-.857,2.062H114.9c.085-.2.172-.381.241-.57a.217.217,0,0,0-.028-.187C114.687,532.335,114.256,531.907,113.813,531.465Z" transform="translate(-19.691 -19.707)" fill="#707b9b"/>
    <path id="Path_1850" data-name="Path 1850" d="M160.944,542.137v-.781c.432,0,.863.031,1.287-.008a1.753,1.753,0,0,1,1.42.474,2.919,2.919,0,0,0,.944.673,3.9,3.9,0,0,0,1.162.032c.2,0,.405,0,.627,0v.781c-.424,0-.854-.031-1.278.008a1.753,1.753,0,0,1-1.42-.474,2.917,2.917,0,0,0-.944-.673,3.9,3.9,0,0,0-1.162-.032Z" transform="translate(-59.107 -29.478)" fill="#707b9b"/>
    <path id="Path_1851" data-name="Path 1851" d="M166.42,555.636v.781c-.494,0-.98.011-1.464,0a.872.872,0,0,0-.622.2c-.352.287-.718.56-1.093.818a.874.874,0,0,1-.445.149c-.6.017-1.2.007-1.818.007v-.781c.487,0,.973-.011,1.457,0a.872.872,0,0,0,.622-.2c.352-.287.718-.56,1.093-.817a.871.871,0,0,1,.445-.149C165.2,555.626,165.8,555.636,166.42,555.636Z" transform="translate(-59.134 -41.024)" fill="#707b9b"/>
    <path id="Path_1852" data-name="Path 1852" d="M164.981,552.43v-.749h1.541v.749Z" transform="translate(-62.367 -37.832)" fill="#707b9b"/>
    <path id="Path_1853" data-name="Path 1853" d="M206.395,530.084h-.753v-.751h.753Z" transform="translate(-95.209 -19.782)" fill="#707b9b"/>
    <path id="Path_1854" data-name="Path 1854" d="M206.4,574.753h-.749v-.76h.749Z" transform="translate(-95.216 -55.853)" fill="#707b9b"/>
  </g>
</svg>
