<svg xmlns="http://www.w3.org/2000/svg" width="24.001" height="24" viewBox="0 0 24.001 24">
  <g id="Group_764" data-name="Group 764" transform="translate(-1761.15 -2159.51)">
    <path id="Path_2127" data-name="Path 2127" d="M1785.151,2177.883v3.656a.62.62,0,0,0-.034.107,2.2,2.2,0,0,1-2.258,1.864c-.742-.01-1.484,0-2.226,0q-8.563,0-17.127,0a2.33,2.33,0,0,1-1.454-.428,2.176,2.176,0,0,1-.9-1.841c0-.937.06-1.875.011-2.808a2.6,2.6,0,0,1,.547-1.691c1.281-1.828,2.547-3.667,3.825-5.5a4.559,4.559,0,0,1,1.116-1.337c-.241-.276-.494-.521-.694-.8-.75-1.057-1.484-2.125-2.222-3.189-.765-1.1-1.549-2.194-2.284-3.317a1.924,1.924,0,0,1,.48-2.577,2.925,2.925,0,0,1,1.188-.508h20.06a.6.6,0,0,0,.105.038,2.185,2.185,0,0,1,1.863,1.837v.469a3.9,3.9,0,0,1-.746,1.414c-.36.51-.713,1.024-1.069,1.537-.6.859-1.178,1.728-1.793,2.573a13.827,13.827,0,0,1-1.862,2.464c.292.365.6.707.858,1.08,1.289,1.84,2.566,3.688,3.849,5.532A4.12,4.12,0,0,1,1785.151,2177.883Zm-11.987-17.286h-9.537a3,3,0,0,0-.351.014.972.972,0,0,0-.75,1.643c1.424,2.052,2.86,4.1,4.268,6.16a1.946,1.946,0,0,0,1.753.916c1.656-.013,3.312,0,4.967,0,1.437,0,2.874,0,4.312,0a1.847,1.847,0,0,0,1.641-.856c1.423-2.072,2.863-4.132,4.3-6.2.053-.077.11-.153.155-.234a.879.879,0,0,0-.28-1.212,1.468,1.468,0,0,0-.891-.231Zm-.014,18.549h9.443c.117,0,.235,0,.351,0a1.136,1.136,0,0,0,1.02-.6.974.974,0,0,0-.191-1.063q-2.169-3.112-4.326-6.233a1.779,1.779,0,0,0-1.56-.826h-9.466a1.777,1.777,0,0,0-1.561.823c-1.229,1.789-2.472,3.567-3.71,5.35-.24.346-.49.687-.719,1.04a.885.885,0,0,0,.409,1.372,1.939,1.939,0,0,0,.727.134Q1768.359,2179.153,1773.151,2179.146Zm10.906.776a2.929,2.929,0,0,1-1.625.312q-8.984,0-17.968,0a4.107,4.107,0,0,1-2.2-.287c0,.543-.03,1.058.009,1.567a1,1,0,0,0,.872.882,2.531,2.531,0,0,0,.4.028h19.209c.086,0,.172,0,.258-.006a1.063,1.063,0,0,0,1.04-1.038C1784.082,2180.911,1784.057,2180.442,1784.057,2179.922Z" fill="#707b9b"/>
    <path id="Path_2128" data-name="Path 2128" d="M1782.929,2219.744h-8.385a1.816,1.816,0,0,1-.326-.02.529.529,0,0,1-.38-.8,1.986,1.986,0,0,1,.115-.177c1.2-1.725,2.4-3.446,3.587-5.176a.806.806,0,0,1,.739-.387q4.661.018,9.323.012a.743.743,0,0,1,.666.348q1.834,2.617,3.681,5.225a.609.609,0,0,1,.119.672.623.623,0,0,1-.634.308Q1787.18,2219.743,1782.929,2219.744Zm7.576-1.11c-.06-.093-.1-.164-.15-.231q-1.382-1.963-2.762-3.927a.407.407,0,0,0-.381-.2q-4.3,0-8.6-.008a.38.38,0,0,0-.361.186c-.911,1.325-1.831,2.644-2.748,3.965-.042.062-.079.127-.132.213Z" transform="translate(-9.795 -41.687)" fill="#707b9b"/>
    <path id="Path_2129" data-name="Path 2129" d="M1849.665,2255.887a.554.554,0,0,1-.54-.535.54.54,0,1,1,.54.535Z" transform="translate(-68.332 -74.021)" fill="#707b9b"/>
    <path id="Path_2130" data-name="Path 2130" d="M1840.438,2255.351a.54.54,0,1,1-.531-.542A.551.551,0,0,1,1840.438,2255.351Z" transform="translate(-60.745 -74.021)" fill="#707b9b"/>
  </g>
</svg>
