<svg xmlns="http://www.w3.org/2000/svg" width="30.667" height="17.792" viewBox="0 0 30.667 17.792">
  <g id="Group_778" data-name="Group 778" transform="translate(-1942.487 -2339.608)">
    <path id="Path_2240" data-name="Path 2240" d="M1982.314,2343.215c-.224-.211-.5-.111-.752-.111-5.488-.006-10.975-.013-16.463.009-.535,0-.7-.109-.682-.667.041-1.476.011-1.476,1.5-1.476h17.316c1.041,0,1.326.282,1.326,1.309q0,6.034,0,12.067c0,1.076-.277,1.351-1.357,1.351l-24.334,0c-.416,0-.843.03-1.083-.421a.971.971,0,0,0,.218-1.12c-.067-.163-.2-.386-.079-.6q11.913,0,23.826,0c.192,0,.4.051.562-.105.112-.1.083-.241.083-.368q0-4.749,0-9.5C1982.392,2343.458,1982.419,2343.322,1982.314,2343.215Z" transform="translate(-11.403 -1.014)" fill="#707b9b"/>
    <path id="Path_2241" data-name="Path 2241" d="M1966.883,2343.383c0-1.093.012-2.185-.007-3.277-.006-.37.118-.5.489-.5q1.507.025,3.015,0c.358-.005.5.1.5.485q-.023,3.278,0,6.555c0,.348-.117.454-.454.448-1.027-.015-2.055-.02-3.081,0-.4.01-.471-.159-.466-.507C1966.894,2345.524,1966.884,2344.453,1966.883,2343.383Z" transform="translate(-18.182)" fill="#707b9b"/>
    <path id="Path_2242" data-name="Path 2242" d="M1970.051,2402.325c-1.116,0-2.232-.012-3.347.007-.426.008-.6-.144-.566-.573.05-.581-.24-1.331.12-1.7.333-.342,1.078-.094,1.641-.1,1.859-.011,3.719.011,5.578-.014.458-.007.582.119.579.578-.012,1.8.005,1.8-1.774,1.8Z" transform="translate(-17.585 -44.932)" fill="#707b9b"/>
    <path id="Path_2243" data-name="Path 2243" d="M1943.736,2362.223a4.306,4.306,0,0,1-.058-1.556,25.091,25.091,0,0,0-.911-7.645c-.077-.318-.122-.645-.211-.959-.1-.366-.16-.619.362-.735.541-.12.61.134.693.541.328,1.6.7,3.2,1.016,4.807a20.453,20.453,0,0,1,.095,3.861c0,.54.082.845.7.725.4-.076.561.054.563.511,0,.481-.157.615-.6.556-.548-.072-1.115.122-1.654-.11a7.109,7.109,0,0,0,.074-1.879c.024-.929.005-1.859,0-2.788,0,1.344,0,2.689-.006,4.034C1943.807,2361.8,1943.877,2362.025,1943.736,2362.223Z" transform="translate(0 -8.715)" fill="#707b9b"/>
    <path id="Path_2244" data-name="Path 2244" d="M1957.515,2353.3c.322.338.22.821.4,1.22.1.21-.234.458-.54.5a.225.225,0,0,1-.125-.251c-.026-3.981-.006-7.963-.013-11.945q0-.718.012-1.436a1.875,1.875,0,0,1,2.008-.662.348.348,0,0,1,.1.221,1.912,1.912,0,0,1,0,.326c-.011.5.152,1.12-.087,1.458s-.893.1-1.362.1c-.37,0-.423.148-.422.463Q1957.511,2348.293,1957.515,2353.3Z" transform="translate(-10.997 -0.757)" fill="#707b9b"/>
    <path id="Path_2245" data-name="Path 2245" d="M1957.042,2343.627c.186.179.115.411.115.621q.006,6.069,0,12.138c0,.21.07.442-.114.622a1.1,1.1,0,0,1-.084-.574q0-6.116,0-12.233A1.033,1.033,0,0,1,1957.042,2343.627Z" transform="translate(-10.788 -2.996)" fill="#707b9b"/>
    <path id="Path_2246" data-name="Path 2246" d="M2054.169,2349.795c.213.164.139.4.139.607q.006,4.514,0,9.028c0,.207.08.444-.144.6Z" transform="translate(-83.258 -7.595)" fill="#707b9b"/>
    <path id="Path_2247" data-name="Path 2247" d="M2008.848,2353.946a4.063,4.063,0,1,0,3.965,4.113A4.043,4.043,0,0,0,2008.848,2353.946Zm1.229,6.444a2.152,2.152,0,0,1-2.56,0,1.724,1.724,0,0,1-.444-2.241c.53-.969,1.134-1.9,1.723-2.874.58.964,1.183,1.9,1.713,2.866A1.73,1.73,0,0,1,2010.077,2360.389Z" transform="translate(-46.43 -10.689)" fill="#707b9b"/>
    <path id="Path_2248" data-name="Path 2248" d="M1947.392,2380.072c.009-.806.022-1.612.027-2.418a17.732,17.732,0,0,1,.116-2.414c0,1.32.008,2.64-.006,3.959,0,.291.121.615-.138.87Z" transform="translate(-3.656 -26.565)" fill="#707b9b"/>
  </g>
</svg>
