<svg xmlns="http://www.w3.org/2000/svg" xmlns:xlink="http://www.w3.org/1999/xlink" width="25" height="25" viewBox="0 0 25 25">
  <defs>
    <clipPath id="clip-path">
      <rect id="Rectangle_695" data-name="Rectangle 695" width="25" height="25" transform="translate(6148 403)" fill="#707b9b"/>
    </clipPath>
  </defs>
  <g id="Mask_Group_135" data-name="Mask Group 135" transform="translate(-6148 -403)" clip-path="url(#clip-path)">
    <g id="_013-computer_monitor" data-name="013-computer monitor" transform="translate(6148 403)">
      <g id="Page-1_12_">
        <g id="_x30_13---Ultra-Wide-Monitor">
          <path id="Shape_90_" d="M23.75,2.121H1.25A1.25,1.25,0,0,0,0,3.371V15.038a1.25,1.25,0,0,0,1.25,1.25h9.583V18.53L6.271,20.811a1.092,1.092,0,0,0,.855,2L12.5,20.9l5.375,1.919a1.092,1.092,0,0,0,.855-2L14.167,18.53V16.288H23.75A1.25,1.25,0,0,0,25,15.038V3.371a1.25,1.25,0,0,0-1.25-1.25Zm-22.5.833h22.5a.417.417,0,0,1,.417.417V13.788H.833V3.371a.417.417,0,0,1,.417-.417ZM18.5,21.772a.252.252,0,0,1-.114.231.257.257,0,0,1-.23.028L12.64,20.062a.419.419,0,0,0-.28,0L6.846,22.031a.258.258,0,0,1-.2-.474l4.7-2.352h2.3l4.7,2.352A.253.253,0,0,1,18.5,21.772Zm-5.167-3.4H11.667V16.288h1.667ZM23.75,15.454H1.25a.417.417,0,0,1-.417-.417v-.417H24.167v.417A.417.417,0,0,1,23.75,15.454Z" fill="#707b9b"/>
          <path id="Shape_89_" d="M2.083,7.538a.416.416,0,0,0,.275-.1L5.691,4.518a.417.417,0,1,0-.549-.625L1.809,6.809a.417.417,0,0,0,.275.728Z" fill="#707b9b"/>
          <path id="Shape_88_" d="M2.083,5.454a.416.416,0,0,0,.275-.1l.833-.729A.417.417,0,1,0,2.642,4l-.833.729a.417.417,0,0,0,.275.728Z" fill="#707b9b"/>
          <path id="Shape_87_" d="M3.75,8.371a.814.814,0,0,0,.308.645l2.9,2.49a.829.829,0,0,0,.539.2.839.839,0,0,0,.354-.079.824.824,0,0,0,.483-.755v-.833h8.333v.833a.833.833,0,0,0,1.375.633L20.925,9.03a.828.828,0,0,0,.325-.659.814.814,0,0,0-.308-.645l-2.9-2.49a.833.833,0,0,0-1.375.635V6.7H8.333V5.871a.833.833,0,0,0-1.375-.633L4.075,7.711a.828.828,0,0,0-.325.66Zm3.75-2.5v1.25a.417.417,0,0,0,.417.417h9.167a.417.417,0,0,0,.417-.417V5.871l2.9,2.514-2.9,2.486V9.621a.417.417,0,0,0-.417-.417H7.917a.417.417,0,0,0-.417.417v1.25L4.6,8.357Z" fill="#707b9b"/>
        </g>
      </g>
    </g>
  </g>
</svg>
