<svg xmlns="http://www.w3.org/2000/svg" width="24.412" height="24.489" viewBox="0 0 24.412 24.489">
  <path id="Path_1689" data-name="Path 1689" d="M967.667,188.119v1.143a1.162,1.162,0,0,0-.039.16,7.7,7.7,0,0,1-6.093,6.808,7.842,7.842,0,0,1-1.059.149,9.778,9.778,0,0,1-1.049.011c-.232-.007-.463-.05-.714-.079,0,.176,0,.318,0,.46a1.218,1.218,0,0,1-1.312,1.3H944.577a1.225,1.225,0,0,1-1.321-1.322q0-10.92,0-21.84a1.742,1.742,0,0,1,.029-.354,1.272,1.272,0,0,1,.971-.972H957.75a1.4,1.4,0,0,1,.972,1.545c-.03,1.857-.01,3.715-.01,5.572v.285c.107-.009.177-.013.248-.02a7.505,7.505,0,0,1,3.252.314,7.7,7.7,0,0,1,5.163,5.324A14.951,14.951,0,0,1,967.667,188.119Zm-9.768-2.287q0-5.43,0-10.859c0-.457-.118-.573-.58-.573H944.664c-.477,0-.6.117-.6.585q0,10.847,0,21.695c0,.468.12.585.6.586h12.631c.494,0,.6-.109.6-.6Zm.825-.632a3.718,3.718,0,0,1,4.639,2.108l3.1-.866a6.837,6.837,0,0,0-7.742-4.532Zm-.011,6.946c0,1.075,0,2.13.008,3.185,0,.057.105.154.17.161a6.789,6.789,0,0,0,7.281-3.842c.118-.229.2-.475.309-.734l-3.131-.869C962.249,192.04,961.086,192.565,958.713,192.146Zm0-1.845c0,.257.017.47,0,.679s.074.31.265.372a2.751,2.751,0,0,0,2.88-.583,2.7,2.7,0,0,0,.831-2.814,2.822,2.822,0,0,0-3.766-1.924c-.078.032-.191.105-.2.167-.021.27-.009.543-.009.833a2.09,2.09,0,0,1,2.773.332,2.035,2.035,0,0,1,.105,2.493,1.964,1.964,0,0,1-1.085.771A2.064,2.064,0,0,1,958.712,190.3Zm7.979-3.077-3.11.865v1.178l3.109.863A6.671,6.671,0,0,0,966.692,187.225Zm-6.759,2.667a1.217,1.217,0,0,0,.007-2.434,1.233,1.233,0,0,0-1.225,1.229A1.218,1.218,0,0,0,959.932,189.892Z" transform="translate(-943.255 -173.588)" fill="#707b9b"/>
</svg>
