<svg xmlns="http://www.w3.org/2000/svg" width="26.242" height="24.601" viewBox="0 0 26.242 24.601">
  <g id="Group_767" data-name="Group 767" transform="translate(-1472.242 -2317.681)">
    <path id="Path_2155" data-name="Path 2155" d="M1474.848,2326.926a5.184,5.184,0,0,1-.583-.049,1.664,1.664,0,0,1-1.212-2.346c.957-2.134,1.936-4.259,2.9-6.391a.707.707,0,0,1,.731-.454q5.972.009,11.944,0c1.789,0,3.578.012,5.366-.008a.831.831,0,0,1,.873.566c.932,2.083,1.883,4.156,2.826,6.234a1.681,1.681,0,0,1-1.522,2.427c-.08,0-.159.009-.273.014.225.933.445,1.848.668,2.762.629,2.586,1.267,5.17,1.879,7.76a4.88,4.88,0,0,1,.027,1.07q0,.692,0,1.385a2.068,2.068,0,0,1-1.7,2.229,4.419,4.419,0,0,1-1.092.149q-10.282.013-20.565.006a3.41,3.41,0,0,1-1.911-.514,1.772,1.772,0,0,1-.907-1.641.205.205,0,0,0,0-.035,18.53,18.53,0,0,1,.925-6.357q.81-3.325,1.61-6.653C1474.836,2327.039,1474.839,2326.993,1474.848,2326.926Zm-.414-2.734h21.895c-.8-1.768-1.583-3.5-2.378-5.224a.386.386,0,0,0-.29-.16c-.426-.017-.853-.006-1.28-.006q-7.6,0-15.19-.005a.405.405,0,0,0-.444.27c-.578,1.306-1.173,2.6-1.762,3.905C1474.8,2323.368,1474.626,2323.765,1474.434,2324.191Zm7.21,14.03H1473.4c0,.637.016,1.249-.006,1.858a.708.708,0,0,0,.433.755,3.873,3.873,0,0,0,1.286.319c3.092.027,6.184.016,9.276.016q5.625,0,11.249,0a2.15,2.15,0,0,0,1.315-.345c.166-.121.371-.321.383-.5.044-.7.018-1.4.018-2.112h-8.276c-.005.119-.01.22-.014.321a1.661,1.661,0,0,1-1.658,1.651c-1.35.014-2.7.016-4.05,0a1.6,1.6,0,0,1-1.547-1.075A4.579,4.579,0,0,1,1481.644,2338.222Zm-8.095-1.135h.594q3.963,0,7.926,0c.54,0,.732.193.738.726,0,.219-.006.438,0,.657a.555.555,0,0,0,.6.608q1.973.011,3.946,0a.555.555,0,0,0,.6-.609c.007-.2,0-.392,0-.588,0-.628.166-.795.8-.795q4.015,0,8.03,0h.42c-.213-.882-.413-1.709-.614-2.537-.6-2.451-1.194-4.9-1.782-7.355-.053-.22-.139-.32-.367-.291a2.939,2.939,0,0,1-.348,0,2.767,2.767,0,0,0,.027.28q.833,3.974,1.671,7.948c.163.772,0,.984-.8.984l-19.381,0c-.58,0-.8-.257-.68-.832.211-1.027.432-2.052.65-3.077q.559-2.636,1.119-5.273c-.664-.1-.667-.1-.819.525q-.524,2.149-1.041,4.3C1474.415,2333.519,1473.988,2335.275,1473.549,2337.087Zm18.5-10.162c.149.749.291,1.471.438,2.193a.741.741,0,0,1-.192.757c-1.511,1.475-3.01,2.963-4.523,4.437a.723.723,0,0,1-.448.2q-4.744.017-9.487.006a.555.555,0,0,1-.595-.725q.455-2.676.912-5.352c.086-.5.161-1.008.244-1.526h-.562l-1.712,8.076h18.5l-1.7-8.07Zm-1.14-.01h-11.369l-1.106,6.48h8.316c.007-.094.019-.172.019-.249,0-1.188,0-2.377-.007-3.565,0-.531.186-.74.709-.74q1.748,0,3.5,0c.1,0,.2-.013.322-.023Zm5.814-1.559h-22.7c.122.386.393.44.715.44q6.491,0,12.983,0,4.154,0,8.309,0A.61.61,0,0,0,1496.728,2325.357Zm-6.276,4.622h-2.536v2.648Z" transform="translate(0 0)" fill="#707b9b"/>
    <path id="Path_2156" data-name="Path 2156" d="M1559.547,2408.494c-.345,0-.69.009-1.035,0a.577.577,0,0,1-.613-.564.553.553,0,0,1,.594-.54q1.069-.019,2.138,0a.541.541,0,0,1,.589.542.551.551,0,0,1-.605.561c-.356.012-.713,0-1.069,0Z" transform="translate(-65.177 -68.251)" fill="#707b9b"/>
    <path id="Path_2157" data-name="Path 2157" d="M1552.544,2407.446a.708.708,0,1,1-.672-.736A.726.726,0,0,1,1552.544,2407.446Z" transform="translate(-60.025 -67.742)" fill="#707b9b"/>
    <path id="Path_2158" data-name="Path 2158" d="M1511.439,2359.217c-1.394,0-2.789,0-4.183,0-.426,0-.668-.236-.642-.591a.556.556,0,0,1,.625-.51c.668-.011,1.337-.008,2.005-.008q3.077,0,6.154,0a3.2,3.2,0,0,1,.516.029.494.494,0,0,1,.436.539.488.488,0,0,1-.453.523,8.94,8.94,0,0,1-.9.024q-1.781,0-3.561,0Z" transform="translate(-26.152 -30.759)" fill="#707b9b"/>
    <path id="Path_2159" data-name="Path 2159" d="M1504.769,2374.707c1.025,0,2.05,0,3.076,0,.409,0,.658.21.667.542a.584.584,0,0,1-.65.566q-3.11.009-6.22,0a.555.555,0,0,1-.622-.584c.011-.329.234-.521.639-.522,1.037,0,2.073,0,3.11,0Z" transform="translate(-21.897 -43.391)" fill="#707b9b"/>
    <path id="Path_2160" data-name="Path 2160" d="M1507.131,2367.489c-.831,0-1.661,0-2.492,0-.447,0-.687-.192-.693-.544s.234-.562.673-.562q2.544,0,5.088,0c.442,0,.692.2.7.546s-.25.564-.713.566c-.854,0-1.707,0-2.561,0Z" transform="translate(-24.124 -37.055)" fill="#707b9b"/>
  </g>
</svg>
