<svg xmlns="http://www.w3.org/2000/svg" xmlns:xlink="http://www.w3.org/1999/xlink" width="25" height="25" viewBox="0 0 25 25">
  <defs>
    <clipPath id="clip-path">
      <rect id="Rectangle_693" data-name="Rectangle 693" width="25" height="25" transform="translate(6146 608)" fill="#707b9b"/>
    </clipPath>
  </defs>
  <g id="Mask_Group_133" data-name="Mask Group 133" transform="translate(-6146 -608)" clip-path="url(#clip-path)">
    <path id="Networking" d="M25,17.056v3.992a2.156,2.156,0,0,1-2.083,2.218H2.083A2.156,2.156,0,0,1,0,21.047V17.056a2.156,2.156,0,0,1,2.083-2.218h.833V3.389A1.59,1.59,0,0,1,4.453,1.753,1.59,1.59,0,0,1,5.99,3.389V13.618a.417.417,0,1,1-.833,0V3.389a.728.728,0,0,0-.7-.748.728.728,0,0,0-.7.748V14.838H16.441a.444.444,0,0,1,0,.887H2.083a1.294,1.294,0,0,0-1.25,1.331v3.992a1.294,1.294,0,0,0,1.25,1.331H22.917a1.294,1.294,0,0,0,1.25-1.331V17.056a1.294,1.294,0,0,0-1.25-1.331h-3.49a.431.431,0,0,1-.417-.444V3.389a1.539,1.539,0,1,1,3.073,0V13.618a.417.417,0,1,1-.833,0V3.389a.7.7,0,1,0-1.406,0V14.838h3.073A2.156,2.156,0,0,1,25,17.056ZM3.854,18.608a.444.444,0,0,0,0,.887H4.965a.444.444,0,0,0,0-.887Zm2.934,0a.444.444,0,0,0,0,.887H9.74a.444.444,0,0,0,0-.887Zm-.642,6.043H3.229a.444.444,0,0,0,0,.887H6.146a.444.444,0,0,0,0-.887Zm15.625,0H18.854a.444.444,0,0,0,0,.887h2.917a.444.444,0,0,0,0-.887Zm-8.7-14.578a.817.817,0,1,1-1.1,0,.748.748,0,0,1,1.1,0Zm1.363-.823a.464.464,0,0,0,0-.627,2.592,2.592,0,0,0-3.83,0,.464.464,0,0,0,0,.627.4.4,0,0,0,.589,0,1.8,1.8,0,0,1,2.652,0A.4.4,0,0,0,14.433,9.25ZM9.645,7.6a3.889,3.889,0,0,1,5.745,0,.4.4,0,0,0,.295.13.448.448,0,0,0,.295-.757,4.686,4.686,0,0,0-6.924,0,.464.464,0,0,0,0,.627.4.4,0,0,0,.589,0Z" transform="translate(6146 606.854)" fill="#707b9b"/>
  </g>
</svg>
