<svg xmlns="http://www.w3.org/2000/svg" width="17.108" height="30" viewBox="0 0 17.108 30">
  <g id="Group_707" data-name="Group 707" transform="translate(-756 -485)">
    <path id="Path_1903" data-name="Path 1903" d="M771.925,513.527c0,.292.007.56,0,.828-.015.457-.219.638-.746.641q-1.616.009-3.232,0c-.549,0-.733-.165-.743-.632-.006-.268,0-.537,0-.832h-5.292c0,.272.006.538,0,.8-.013.484-.21.658-.769.66q-1.616.008-3.232,0c-.536,0-.727-.175-.737-.638-.006-.268,0-.536,0-.784-.066-.032-.09-.054-.116-.055-1.012-.064-1.052-.1-1.052-.969v-26.6c0-.1,0-.206,0-.309.013-.47.193-.63.738-.634.9-.006,1.79,0,2.686,0h12.7c.836,0,.983.123.983.828q0,13.321,0,26.641C773.109,513.411,773.061,513.455,771.925,513.527Zm-.036-1.05v-26.43h-9.125c1.218,1.029,2.377,1.993,3.507,2.98a.97.97,0,0,1,.329.636c.031,1.222.033,2.445,0,3.667a1.072,1.072,0,0,1-.35.67c-.527.5-1.093.965-1.668,1.423a.813.813,0,0,0-.338.708c.01,4.182,0,8.364.013,12.547a1.1,1.1,0,0,1-.448.92c-1.045.861-2.066,1.742-3.094,2.617-.088.075-.164.16-.269.264Zm-8.833-15.641-.142-.055a6.02,6.02,0,0,1-.608.563.887.887,0,0,0-.406.841c.031.732.016,1.466.006,2.2a.592.592,0,0,1-.6.615.566.566,0,0,1-.589-.6c-.005-.154,0-.309,0-.463V498.81l-.141-.047c-1.03.889-2.053,1.783-3.094,2.662a.764.764,0,0,0-.318.637c.01,3.332.006,6.663.008,9.995,0,.136.014.272.023.439.343,0,.645-.018.944,0a1.108,1.108,0,0,0,.913-.31c.437-.409.939-.769,1.376-1.178a.863.863,0,0,0,.277-.559c.02-1.878.012-3.756.013-5.634,0-.141-.041-.308.032-.417a.806.806,0,0,1,.448-.364.787.787,0,0,1,.566.2.749.749,0,0,1,.136.506c.01,1.5.006,3.01.006,4.515v.525a7.036,7.036,0,0,1,.656-.574,1.094,1.094,0,0,0,.5-1.042c-.02-3.627-.011-7.255-.011-10.882Zm-5.88,3.392a2.121,2.121,0,0,0,.188-.114q3.933-3.324,7.857-6.655a.631.631,0,0,0,.193-.44c.017-1,.022-2.008,0-3.011a.8.8,0,0,0-.267-.528q-1.894-1.641-3.83-3.247a1.118,1.118,0,0,0-.625-.214c-.879-.024-1.759-.01-2.639-.01h-.618c1.409,1.194,2.71,2.309,4.029,3.408a1.078,1.078,0,0,1,.457.916q-.039,1.389,0,2.779a1.147,1.147,0,0,1-.475.989c-1.348,1.112-2.674,2.245-4,3.375-.111.094-.25.225-.253.341C757.165,498.6,757.176,499.38,757.176,500.228Zm.034-13V496.3c.969-.836,1.814-1.628,2.743-2.342a1.661,1.661,0,0,0,.783-1.6c-.073-.7.207-1.5-.091-2.1s-1.122-1.052-1.718-1.564C758.377,488.224,757.824,487.755,757.21,487.231Zm3.49,26.3h-2.345c.011.166.019.3.028.428H760.7Zm7.692.429h2.316v-.431h-2.316Z" transform="translate(0)" fill="#707b9b"/>
    <path id="Path_1904" data-name="Path 1904" d="M766.585,562.737c0-.231-.008-.462,0-.693a.505.505,0,0,1,.552-.505c.343-.018.582.153.6.418a11.586,11.586,0,0,1,0,1.652c-.019.271-.268.43-.607.409s-.526-.189-.542-.472,0-.539,0-.808Z" transform="translate(-8.23 -59.529)" fill="#707b9b"/>
    <path id="Path_1905" data-name="Path 1905" d="M767.206,587.259c-.314-.025-.536-.167-.57-.468a.533.533,0,0,1,.576-.525.546.546,0,0,1,.584.487C767.826,587,767.538,587.248,767.206,587.259Z" transform="translate(-8.27 -78.763)" fill="#707b9b"/>
    <path id="Path_1906" data-name="Path 1906" d="M766.611,595.785a.536.536,0,0,1,.556-.506c.3-.03.64.24.611.5a.528.528,0,0,1-.579.486A.535.535,0,0,1,766.611,595.785Z" transform="translate(-8.253 -85.771)" fill="#707b9b"/>
    <path id="Path_1907" data-name="Path 1907" d="M767.226,578.257c-.343-.025-.559-.172-.588-.473a.532.532,0,0,1,.582-.518c.343.024.57.2.571.492S767.58,578.222,767.226,578.257Z" transform="translate(-8.272 -71.762)" fill="#707b9b"/>
    <path id="Path_1908" data-name="Path 1908" d="M777.235,562.042a.511.511,0,0,1,.557-.489.52.52,0,0,1,.6.459c.04.262-.264.542-.575.523A.541.541,0,0,1,777.235,562.042Z" transform="translate(-16.516 -59.541)" fill="#707b9b"/>
  </g>
</svg>
