<svg xmlns="http://www.w3.org/2000/svg" width="23.907" height="25.146" viewBox="0 0 23.907 25.146">
  <g id="Group_697" data-name="Group 697" transform="translate(-305.147 -488.439)">
    <path id="Path_1827" data-name="Path 1827" d="M328.147,488.44c.047.024.093.052.142.07a1.16,1.16,0,0,1,.76,1.05,2.4,2.4,0,0,1,.005.261q0,11.207,0,22.415a1.765,1.765,0,0,1-.11.668,1.035,1.035,0,0,1-.98.672c-2.109.013-4.219.008-6.328.006a.353.353,0,0,1-.385-.361.359.359,0,0,1,.4-.347c1.09,0,2.18,0,3.271,0q1.434,0,2.868,0c.4,0,.558-.157.558-.561q0-11.279,0-22.557c0-.391-.159-.553-.542-.553q-2.655,0-5.309,0c-.061,0-.123.007-.21.013v.264q0,1.352,0,2.7c0,.071,0,.143,0,.213a.349.349,0,0,1-.694.023,4.493,4.493,0,0,1-.012-.544q0-1.2,0-2.4v-.266h-.69V501h.69v-.3q0-3.321,0-6.641a1.342,1.342,0,0,1,.016-.283.349.349,0,0,1,.688.032,1.553,1.553,0,0,1,.006.189q0,3.427,0,6.855c0,.485-.18.816-.555.877a3.579,3.579,0,0,1-1.009,0c-.329-.042-.47-.318-.539-.617a1.693,1.693,0,0,1-.025-.377q0-5.6,0-11.2v-.325h-.777v.284q0,5.669,0,11.338a.8.8,0,0,1-.439.846,1.794,1.794,0,0,1-1.25.006.74.74,0,0,1-.438-.678,1.832,1.832,0,0,1,0-.261V489.2h-9.584c-.472,0-.612.138-.612.6q0,1.637,0,3.273v.244c.069,0,.114.008.16.009.5.011.565.078.565.587q0,.795,0,1.589c0,.421-.12.542-.543.554-.053,0-.106.009-.17.015v1c.1,0,.195,0,.287,0,.3,0,.421.117.424.413.006.64,0,1.281,0,1.921s0,1.281,0,1.921c0,.408-.093.5-.5.511-.055,0-.11,0-.165.008-.014,0-.028.014-.051.026v1.033c.119,0,.227,0,.335,0a.34.34,0,0,1,.375.365q.009.972,0,1.945a.4.4,0,0,1-.426.428c-.086,0-.173,0-.3,0v1.012h1.04c.5,0,.578.078.578.575,0,.577,0,1.154,0,1.731,0,.3-.128.435-.431.438-.385,0-.771,0-1.174,0,0,.1-.012.171-.012.248q0,1.293,0,2.585c0,.51.129.636.65.636h12.277a1.537,1.537,0,0,1,.237,0,.353.353,0,0,1,0,.7,1.375,1.375,0,0,1-.213,0H307.648a1.178,1.178,0,0,1-1.312-1.319c0-.94,0-1.88,0-2.862h-.686c-.387,0-.5-.11-.5-.488,0-.6,0-1.2,0-1.8,0-.342.117-.452.457-.455.235,0,.469,0,.714,0v-1.012c-.248,0-.483,0-.718,0a.408.408,0,0,1-.451-.428q-.009-.972,0-1.945a.338.338,0,0,1,.374-.365c.259-.006.518,0,.793,0v-1.067c-.24,0-.483,0-.725,0-.328-.005-.444-.119-.444-.442q0-1.921,0-3.842c0-.377.106-.479.477-.48h.694v-1.016c-.253,0-.5,0-.737,0a.406.406,0,0,1-.432-.423q-.009-.96,0-1.921a.349.349,0,0,1,.385-.382c.258-.007.517,0,.8,0v-.282c0-1.036.019-2.072-.007-3.107a1.35,1.35,0,0,1,.913-1.5ZM318.645,501V489.212h-.674V501Zm-11.6.063v-3.218h-1.168v3.218Zm-1.175,7.611h2.068v-1.244h-2.068Zm1.18-14.621h-1.174v1.228h1.174Zm0,9.578h-1.171v1.234h1.171Z" fill="#707b9b"/>
    <path id="Path_1828" data-name="Path 1828" d="M331.559,524.757h-5.027v.265q0,1.743,0,3.486a1.74,1.74,0,0,1-.011.26.348.348,0,0,1-.69,0,1.507,1.507,0,0,1-.009-.213q0-1.838,0-3.676c0-.613.284-.894.9-.895q2.334,0,4.668,0a.784.784,0,0,1,.9.9q.005,3.284,0,6.569a.778.778,0,0,1-.856.852c-.355,0-.71,0-1.1,0,0,.484,0,.955,0,1.426a.257.257,0,0,0,.082.137c.318.349.633.7.962,1.041a.643.643,0,0,1,.194.486c-.006.759,0,1.518,0,2.277v.277h4.551c.605,0,.776.166.788.767,0,.039,0,.078.007.133.268.059.677-.055.654.407-.02.407-.384.306-.662.341,0,.122,0,.231,0,.339a.582.582,0,0,1-.572.579c-.079.005-.158,0-.237,0h-8.294c-.668,0-.819-.146-.847-.812,0-.031-.009-.061-.017-.113-.273-.025-.657.056-.642-.382.014-.4.375-.32.649-.353.006-.116,0-.225.018-.333a.576.576,0,0,1,.644-.575c.987,0,1.975,0,2.962,0h.274c0-.109.012-.193.012-.277,0-.672-.005-1.344,0-2.016a.565.565,0,0,0-.174-.439c-.324-.332-.642-.672-.942-1.026a.669.669,0,0,1-.124-.389c-.014-.488-.006-.977-.006-1.5h-.271q-1.327,0-2.654,0a.786.786,0,0,1-.878-.877c0-.4,0-.806,0-1.209,0-.262.134-.418.345-.423s.361.157.363.43c0,.442,0,.884,0,1.347h5.027Zm4.637,13.968H327.69v1.062H336.2Z" transform="translate(-16.683 -28.685)" fill="#707b9b"/>
    <path id="Path_1829" data-name="Path 1829" d="M382.99,564.792v-.415c-.233-.037-.449-.1-.438-.393a.348.348,0,0,1,.368-.348,3.768,3.768,0,0,1,.259-.927c.185-.318.572-.175.886-.213.067-.214.064-.5.391-.5.311,0,.317.274.373.5h.4c.092-.387.188-.507.4-.5s.292.121.373.5h.4c.055-.227.063-.507.39-.5.309.008.311.282.369.492,1.011.094,1.011.094,1.082,1.127.223.043.454.1.435.407-.017.262-.215.32-.436.349v.4c.309.094.444.231.437.445-.009.266-.2.334-.43.362v.4c.376.135.452.215.43.469s-.212.323-.423.343c-.149,1.081-.149,1.081-1.09,1.138-.047.222-.109.461-.405.445-.251-.014-.334-.2-.346-.442h-.424c-.029.228-.1.456-.395.441-.251-.013-.339-.2-.346-.442h-.428c-.025.233-.1.442-.368.443s-.359-.192-.37-.439c-.317-.056-.715.1-.9-.224a3.789,3.789,0,0,1-.258-.917c-.291-.078-.381-.167-.372-.41s.1-.324.435-.386c0-.065.01-.134.012-.2s0-.125,0-.2c-.238-.052-.475-.11-.445-.418A.4.4,0,0,1,382.99,564.792Zm4.513,2.363v-3.921h-3.775v3.921Z" transform="translate(-62.468 -59.363)" fill="#707b9b"/>
    <path id="Path_1830" data-name="Path 1830" d="M332.278,534.37c0-.569,0-1.137,0-1.705a1,1,0,0,1,1.128-1.117c.592,0,1.184,0,1.775,0a.954.954,0,0,1,.945.508,1.034,1.034,0,0,1-.112,1.156,6.528,6.528,0,0,0-.61.9,2.727,2.727,0,0,0-.291.883,9.656,9.656,0,0,0-.02,1.159.715.715,0,0,1-.793.791c-.418,0-.836,0-1.255,0a.706.706,0,0,1-.766-.769C332.272,535.57,332.278,534.97,332.278,534.37Zm2.1,1.8c0-.325.006-.639,0-.953a2.55,2.55,0,0,1,.471-1.58c.191-.269.384-.538.557-.818.063-.1.135-.28.089-.351a.482.482,0,0,0-.354-.153c-.576-.015-1.152-.007-1.727-.007-.365,0-.428.062-.428.426q0,1.6,0,3.2c0,.077.007.154.011.239Z" transform="translate(-21.894 -34.789)" fill="#707b9b"/>
    <path id="Path_1831" data-name="Path 1831" d="M401.019,500.791c-.5,0-.995,0-1.492,0a.6.6,0,0,1-.677-.668c0-.261.015-.523,0-.782a.719.719,0,0,1,.7-.7c.994.025,1.989.007,2.984.009a.637.637,0,0,1,.681.67c.005.284.006.569,0,.853a.573.573,0,0,1-.626.616C402.061,500.8,401.54,500.791,401.019,500.791Zm-1.445-.774h2.906v-.592h-2.906Z" transform="translate(-75.618 -8.232)" fill="#707b9b"/>
    <path id="Path_1832" data-name="Path 1832" d="M401.437,514.9a1.688,1.688,0,1,1,1.67,1.757A1.689,1.689,0,0,1,401.437,514.9Zm2.668.016a.98.98,0,1,0-1.957.017.978.978,0,0,0,1.957-.017Z" transform="translate(-77.711 -19.941)" fill="#707b9b"/>
    <path id="Path_1833" data-name="Path 1833" d="M363.383,577.114a1.218,1.218,0,0,1-1.218,1.268,1.239,1.239,0,0,1-1.213-1.279,1.31,1.31,0,0,1,1.225-1.255A1.28,1.28,0,0,1,363.383,577.114Zm-1.208-.5a.5.5,0,0,0-.508.487.54.54,0,0,0,.511.568.531.531,0,0,0,.493-.559A.49.49,0,0,0,362.175,576.615Z" transform="translate(-45.037 -70.543)" fill="#707b9b"/>
    <path id="Path_1834" data-name="Path 1834" d="M330.7,577.11a1.217,1.217,0,0,1-1.213,1.272,1.239,1.239,0,0,1-1.217-1.274,1.311,1.311,0,0,1,1.22-1.259A1.279,1.279,0,0,1,330.7,577.11Zm-1.211-.5a.5.5,0,0,0-.5.491.539.539,0,0,0,.514.564.53.53,0,0,0,.489-.562A.49.49,0,0,0,329.489,576.615Z" transform="translate(-18.661 -70.543)" fill="#707b9b"/>
    <path id="Path_1835" data-name="Path 1835" d="M396.84,606.2c.434,0,.867,0,1.3,0,.275,0,.432.137.428.361s-.16.348-.419.349q-1.324,0-2.649,0c-.261,0-.413-.135-.415-.352s.152-.357.43-.358C395.957,606.2,396.4,606.2,396.84,606.2Z" transform="translate(-72.585 -95.041)" fill="#707b9b"/>
    <path id="Path_1836" data-name="Path 1836" d="M328.821,502.394h.094c.266.006.4.105.424.31a.4.4,0,0,1-.344.435,1.179,1.179,0,0,1-.491-.073.313.313,0,0,1-.21-.4.345.345,0,0,1,.385-.275C328.726,502.395,328.774,502.394,328.821,502.394Z" transform="translate(-18.671 -11.261)" fill="#707b9b"/>
    <path id="Path_1837" data-name="Path 1837" d="M351.931,502.394h.094c.26.007.4.112.419.317a.413.413,0,0,1-.375.433,1.207,1.207,0,0,1-.468-.08.314.314,0,0,1-.2-.4.34.34,0,0,1,.367-.268h.165Z" transform="translate(-37.316 -11.261)" fill="#707b9b"/>
    <path id="Path_1838" data-name="Path 1838" d="M340.453,502.379c.371-.006.517.1.536.341a.481.481,0,0,1-.55.41.735.735,0,0,1-.357-.128.455.455,0,0,1-.129-.362c.028-.105.18-.188.292-.256C340.3,502.353,340.383,502.379,340.453,502.379Z" transform="translate(-28.085 -11.241)" fill="#707b9b"/>
    <path id="Path_1839" data-name="Path 1839" d="M335.5,514.475a1.508,1.508,0,0,1-.189,0,.335.335,0,0,1-.319-.324.319.319,0,0,1,.267-.365,1.331,1.331,0,0,1,.468,0,.32.32,0,0,1,.274.36.334.334,0,0,1-.313.33A1.42,1.42,0,0,1,335.5,514.475Z" transform="translate(-24.087 -20.438)" fill="#707b9b"/>
    <path id="Path_1840" data-name="Path 1840" d="M345.44,514.482a1.545,1.545,0,0,1-.377-.135.333.333,0,0,1-.023-.5.732.732,0,0,1,.812,0,.332.332,0,0,1-.019.5A1.574,1.574,0,0,1,345.44,514.482Z" transform="translate(-32.113 -20.404)" fill="#707b9b"/>
    <path id="Path_1841" data-name="Path 1841" d="M404.527,547.963c-.3,0-.46-.133-.455-.384s.157-.375.465-.375.461.115.464.373S404.857,547.964,404.527,547.963Z" transform="translate(-79.837 -47.426)" fill="#707b9b"/>
    <path id="Path_1842" data-name="Path 1842" d="M411.953,547.2c.31,0,.453.124.451.386s-.149.377-.486.373c-.291,0-.438-.128-.44-.373C411.476,547.325,411.627,547.2,411.953,547.2Z" transform="translate(-85.814 -47.426)" fill="#707b9b"/>
    <path id="Path_1843" data-name="Path 1843" d="M399.563,538.634a1.623,1.623,0,0,1-.405-.183.325.325,0,0,1,.031-.484.7.7,0,0,1,.735,0,.331.331,0,0,1,.026.485A1.6,1.6,0,0,1,399.563,538.634Z" transform="translate(-75.795 -39.889)" fill="#707b9b"/>
    <path id="Path_1844" data-name="Path 1844" d="M408.211,538.816c-.288,0-.465-.09-.467-.287,0-.121.081-.333.157-.349a1.47,1.47,0,0,1,.651.019c.07.018.132.239.121.36C408.657,538.751,408.5,538.816,408.211,538.816Z" transform="translate(-82.802 -40.12)" fill="#707b9b"/>
    <path id="Path_1845" data-name="Path 1845" d="M416.669,538.638a1.57,1.57,0,0,1-.413-.247.3.3,0,0,1,.071-.441.678.678,0,0,1,.732.018.308.308,0,0,1,.038.447A1.558,1.558,0,0,1,416.669,538.638Z" transform="translate(-89.614 -39.877)" fill="#707b9b"/>
    <path id="Path_1846" data-name="Path 1846" d="M401.942,573.919c0,.229-.008.458,0,.687a.49.49,0,0,1-.289.449c-.123.076-.408-.128-.413-.321-.015-.544-.017-1.09,0-1.634a.314.314,0,0,1,.348-.289.348.348,0,0,1,.347.351c.012.252,0,.505,0,.758Z" transform="translate(-77.544 -68.092)" fill="#707b9b"/>
    <path id="Path_1847" data-name="Path 1847" d="M392.652,573.929c0,.229.007.458,0,.687a.43.43,0,0,1-.078.261c-.08.084-.222.2-.3.173a.407.407,0,0,1-.325-.385c0-.505-.008-1.011,0-1.516a.352.352,0,1,1,.7.022C392.658,573.423,392.652,573.676,392.652,573.929Z" transform="translate(-70.047 -68.085)" fill="#707b9b"/>
  </g>
</svg>
