<svg xmlns="http://www.w3.org/2000/svg" width="30.231" height="30.334" viewBox="0 0 30.231 30.334">
  <g id="Group_696" data-name="Group 696" transform="translate(-518.355 -493.346)">
    <g id="Group_686" data-name="Group 686" transform="translate(518.856 493.918)">
      <g id="Group_683" data-name="Group 683" transform="translate(7.52 7.55)">
        <g id="Group_672" data-name="Group 672" transform="translate(0 10.572)">
          <g id="Group_663" data-name="Group 663" transform="translate(0 7.806)">
            <path id="Path_1800" data-name="Path 1800" d="M551.6,605.065a.206.206,0,0,1-.146-.061l-.8-.8a.207.207,0,0,1,0-.293l.525-.525a.212.212,0,0,1,.293,0l.8.8a.207.207,0,0,1,0,.293l-.525.525A.206.206,0,0,1,551.6,605.065Zm-.759-1.008.759.759.483-.483-.759-.759Z" transform="translate(-550.587 -603.327)" fill="none" stroke="#707070" stroke-width="1"/>
          </g>
          <g id="Group_664" data-name="Group 664" transform="translate(0.976 6.83)">
            <path id="Path_1801" data-name="Path 1801" d="M555.712,600.948a.206.206,0,0,1-.146-.061l-.8-.8a.207.207,0,0,1,0-.293l.525-.525a.212.212,0,0,1,.293,0l.8.8a.207.207,0,0,1,0,.293l-.525.525A.207.207,0,0,1,555.712,600.948Zm-.759-1.008.759.759.483-.483-.759-.759Z" transform="translate(-554.704 -599.209)" fill="none" stroke="#707070" stroke-width="1"/>
          </g>
          <g id="Group_665" data-name="Group 665" transform="translate(1.951 5.852)">
            <path id="Path_1802" data-name="Path 1802" d="M559.829,596.824h0a.206.206,0,0,1-.146-.061l-.8-.8a.207.207,0,0,1,0-.293l.525-.525a.206.206,0,0,1,.147-.061h0a.205.205,0,0,1,.147.061l.8.8a.207.207,0,0,1,0,.293l-.525.525A.206.206,0,0,1,559.829,596.824Zm-.759-1.008.759.759.483-.483-.759-.759Z" transform="translate(-558.821 -595.084)" fill="none" stroke="#707070" stroke-width="1"/>
          </g>
          <g id="Group_666" data-name="Group 666" transform="translate(2.927 4.879)">
            <path id="Path_1803" data-name="Path 1803" d="M563.946,592.714a.206.206,0,0,1-.146-.061l-.8-.8a.207.207,0,0,1,0-.293l.525-.525a.213.213,0,0,1,.293,0l.8.8a.207.207,0,0,1,0,.293l-.525.525A.207.207,0,0,1,563.946,592.714Zm-.759-1.008.759.759.483-.483-.759-.759Z" transform="translate(-562.938 -590.975)" fill="none" stroke="#707070" stroke-width="1"/>
          </g>
          <g id="Group_667" data-name="Group 667" transform="translate(3.903 3.903)">
            <path id="Path_1804" data-name="Path 1804" d="M568.064,588.6a.206.206,0,0,1-.147-.061l-.8-.8a.208.208,0,0,1,0-.293l.525-.525a.213.213,0,0,1,.293,0l.8.8a.208.208,0,0,1,0,.294l-.525.525A.206.206,0,0,1,568.064,588.6Zm-.759-1.008.759.759.483-.483-.759-.759Z" transform="translate(-567.056 -586.858)" fill="none" stroke="#707070" stroke-width="1"/>
          </g>
          <g id="Group_668" data-name="Group 668" transform="translate(4.879 2.927)">
            <path id="Path_1805" data-name="Path 1805" d="M572.182,584.479a.207.207,0,0,1-.147-.061l-.8-.8a.208.208,0,0,1,0-.293l.525-.525a.213.213,0,0,1,.293,0l.8.8a.207.207,0,0,1,0,.293l-.525.525A.206.206,0,0,1,572.182,584.479Zm-.759-1.008.759.759.483-.483-.759-.759Z" transform="translate(-571.174 -582.741)" fill="none" stroke="#707070" stroke-width="1"/>
          </g>
          <g id="Group_669" data-name="Group 669" transform="translate(5.854 1.952)">
            <path id="Path_1806" data-name="Path 1806" d="M576.3,580.362a.206.206,0,0,1-.147-.061l-.8-.8a.207.207,0,0,1,0-.293l.525-.525a.213.213,0,0,1,.293,0l.8.8a.207.207,0,0,1,0,.293l-.525.525A.207.207,0,0,1,576.3,580.362Zm-.759-1.008.759.759.483-.483-.759-.759Z" transform="translate(-575.291 -578.623)" fill="none" stroke="#707070" stroke-width="1"/>
          </g>
          <g id="Group_670" data-name="Group 670" transform="translate(6.83 0.976)">
            <path id="Path_1807" data-name="Path 1807" d="M580.416,576.244a.206.206,0,0,1-.147-.061l-.8-.8a.207.207,0,0,1,0-.293l.525-.525a.213.213,0,0,1,.293,0l.8.8a.207.207,0,0,1,0,.293l-.525.525a.205.205,0,0,1-.146.061Zm-.759-1.008.759.759.483-.483-.759-.759Z" transform="translate(-579.408 -574.505)" fill="none" stroke="#707070" stroke-width="1"/>
          </g>
          <g id="Group_671" data-name="Group 671" transform="translate(7.806)">
            <path id="Path_1808" data-name="Path 1808" d="M584.533,572.127a.206.206,0,0,1-.147-.061l-.8-.8a.207.207,0,0,1,0-.293l.525-.525a.213.213,0,0,1,.293,0l.8.8a.207.207,0,0,1,0,.293l-.525.525A.206.206,0,0,1,584.533,572.127Zm-.759-1.008.759.759.483-.483-.759-.759Z" transform="translate(-583.525 -570.389)" fill="none" stroke="#707070" stroke-width="1"/>
          </g>
        </g>
        <g id="Group_682" data-name="Group 682" transform="translate(10.57)">
          <g id="Group_673" data-name="Group 673" transform="translate(0 7.805)">
            <path id="Path_1809" data-name="Path 1809" d="M596.2,560.452a.206.206,0,0,1-.146-.061l-.8-.8a.207.207,0,0,1,0-.293l.525-.525a.206.206,0,0,1,.147-.061.177.177,0,0,1,.147.061l.8.8a.207.207,0,0,1,0,.293l-.525.525A.207.207,0,0,1,596.2,560.452Zm-.759-1.008.759.759.483-.483-.759-.759Z" transform="translate(-595.19 -558.711)" fill="none" stroke="#707070" stroke-width="1"/>
          </g>
          <g id="Group_674" data-name="Group 674" transform="translate(0.976 6.83)">
            <path id="Path_1810" data-name="Path 1810" d="M600.316,556.338a.206.206,0,0,1-.146-.061l-.8-.8a.208.208,0,0,1,0-.293l.525-.524a.2.2,0,0,1,.146-.061h0a.205.205,0,0,1,.147.061l.8.8a.208.208,0,0,1,0,.293l-.525.525A.206.206,0,0,1,600.316,556.338Zm-.759-1.008.759.759.489-.489-.765-.753Z" transform="translate(-599.308 -554.598)" fill="none" stroke="#707070" stroke-width="1"/>
          </g>
          <g id="Group_675" data-name="Group 675" transform="translate(1.952 5.856)">
            <path id="Path_1811" data-name="Path 1811" d="M604.433,552.227a.207.207,0,0,1-.147-.061l-.8-.8a.208.208,0,0,1,0-.293l.525-.525a.212.212,0,0,1,.293,0l.8.8a.208.208,0,0,1,0,.294l-.525.524A.206.206,0,0,1,604.433,552.227Zm-.759-1.008.759.759.483-.483-.759-.759Z" transform="translate(-603.425 -550.489)" fill="none" stroke="#707070" stroke-width="1"/>
          </g>
          <g id="Group_676" data-name="Group 676" transform="translate(2.927 4.881)">
            <path id="Path_1812" data-name="Path 1812" d="M608.551,548.11a.206.206,0,0,1-.147-.061l-.8-.8a.208.208,0,0,1,0-.293l.525-.525a.213.213,0,0,1,.293,0l.8.8a.207.207,0,0,1,0,.293l-.525.525A.207.207,0,0,1,608.551,548.11Zm-.759-1.008.759.759.483-.483-.759-.759Z" transform="translate(-607.543 -546.372)" fill="none" stroke="#707070" stroke-width="1"/>
          </g>
          <g id="Group_677" data-name="Group 677" transform="translate(3.903 3.905)">
            <path id="Path_1813" data-name="Path 1813" d="M612.668,543.993a.206.206,0,0,1-.147-.061l-.8-.8a.207.207,0,0,1,0-.293l.525-.525a.213.213,0,0,1,.293,0l.8.8a.207.207,0,0,1,0,.293l-.525.525A.206.206,0,0,1,612.668,543.993Zm-.759-1.008.759.759.483-.483-.759-.759Z" transform="translate(-611.66 -542.255)" fill="none" stroke="#707070" stroke-width="1"/>
          </g>
          <g id="Group_678" data-name="Group 678" transform="translate(4.879 2.929)">
            <path id="Path_1814" data-name="Path 1814" d="M616.785,539.874a.206.206,0,0,1-.147-.061l-.8-.8a.207.207,0,0,1,0-.293l.525-.525a.212.212,0,0,1,.293,0l.8.8a.207.207,0,0,1,0,.293l-.525.525a.205.205,0,0,1-.146.061Zm-.759-1.008.759.759.483-.483-.759-.759Z" transform="translate(-615.777 -538.136)" fill="none" stroke="#707070" stroke-width="1"/>
          </g>
          <g id="Group_679" data-name="Group 679" transform="translate(5.854 1.953)">
            <path id="Path_1815" data-name="Path 1815" d="M620.9,535.757h0a.2.2,0,0,1-.146-.061l-.8-.8a.208.208,0,0,1,0-.293l.525-.525a.212.212,0,0,1,.293,0l.8.8a.208.208,0,0,1,0,.293l-.525.525A.206.206,0,0,1,620.9,535.757Zm-.759-1.008.759.759.483-.483-.759-.759Z" transform="translate(-619.894 -534.019)" fill="none" stroke="#707070" stroke-width="1"/>
          </g>
          <g id="Group_680" data-name="Group 680" transform="translate(6.83 0.978)">
            <path id="Path_1816" data-name="Path 1816" d="M625.019,531.64a.206.206,0,0,1-.146-.06l-.8-.8a.207.207,0,0,1,0-.293l.525-.525a.213.213,0,0,1,.293,0l.8.8a.207.207,0,0,1,0,.293l-.525.525A.207.207,0,0,1,625.019,531.64Zm-.759-1.008.759.759.483-.483-.759-.759Z" transform="translate(-624.011 -529.902)" fill="none" stroke="#707070" stroke-width="1"/>
          </g>
          <g id="Group_681" data-name="Group 681" transform="translate(7.806)">
            <path id="Path_1817" data-name="Path 1817" d="M629.136,527.517a.206.206,0,0,1-.146-.061l-.8-.8a.207.207,0,0,1,0-.293l.525-.525a.208.208,0,0,1,.293,0l.8.8a.207.207,0,0,1,0,.293l-.525.525A.206.206,0,0,1,629.136,527.517Zm-.759-1.008.759.759.483-.483-.759-.759Z" transform="translate(-628.128 -525.777)" fill="none" stroke="#707070" stroke-width="1"/>
          </g>
        </g>
      </g>
      <g id="Group_685" data-name="Group 685">
        <g id="Group_684" data-name="Group 684">
          <path id="Path_1818" data-name="Path 1818" d="M527.217,522.972l-.87-.87a.3.3,0,0,0-.2-.088.268.268,0,0,0-.191.075l-.281.281-1.6-1.6.223-.184,1.135-1.134a.28.28,0,0,0-.013-.4l-.268-.268a.3.3,0,0,0-.2-.088.263.263,0,0,0-.191.075l-1.138,1.138-.165.205-.2-.168-1.37-1.37.221-.183,1.137-1.136a.28.28,0,0,0-.013-.4l-.268-.268a.28.28,0,0,0-.4-.013l-1.152,1.157-.166.2-2.189-2.189a.687.687,0,0,1-.2-.476.656.656,0,0,1,.192-.48l20.693-20.693a.677.677,0,0,1,.956.011l2.253,2.253-.224.181-1,1a.26.26,0,0,0-.076.191.3.3,0,0,0,.088.2l.268.268a.3.3,0,0,0,.2.088.236.236,0,0,0,.191-.075l1.02-1.026.166-.2,1.555,1.555-.223.182-1,1a.262.262,0,0,0-.075.191.3.3,0,0,0,.088.2l.268.268a.3.3,0,0,0,.2.088.254.254,0,0,0,.191-.075l1.02-1.025.166-.2,1.535,1.535-.312.312a.262.262,0,0,0-.075.191.3.3,0,0,0,.088.2l.87.87L537.8,512.387l-.842-.842-.478.478.842.842Zm-1.08-1.432a.769.769,0,0,1,.545.227l.535.535,9.437-9.437-.612-.612a.326.326,0,0,1-.1-.226.322.322,0,0,1,.094-.233l.691-.691a.326.326,0,0,1,.46,0l.611.611,9.407-9.407-.535-.535a.767.767,0,0,1-.227-.531.729.729,0,0,1,.191-.511l-.845-.845-.871.871a.754.754,0,0,1-1.065-.013l-.268-.268a.755.755,0,0,1-.013-1.065l.871-.871-.844-.844-.871.871a.742.742,0,0,1-.534.214.768.768,0,0,1-.531-.227l-.268-.268a.767.767,0,0,1-.227-.531.729.729,0,0,1,.214-.534l.871-.871-1.9-1.9a.2.2,0,0,0-.286-.011l-20.693,20.693a.185.185,0,0,0-.054.136.216.216,0,0,0,.065.149l1.833,1.833,1-1a.755.755,0,0,1,1.065.013l.268.268a.754.754,0,0,1,.013,1.065l-1,1,.844.844,1-1a.693.693,0,0,1,.534-.214.766.766,0,0,1,.531.227l.268.268a.754.754,0,0,1,.013,1.065l-1,1,.91.91A.735.735,0,0,1,526.138,521.54Zm10.238-9.412h0Zm.48-.689h0Zm-9.934,5.7a.691.691,0,0,1-.488-.2l-2.927-2.928a.688.688,0,0,1-.2-.476.655.655,0,0,1,.192-.48l14.493-14.493a.642.642,0,0,1,.48-.193.688.688,0,0,1,.476.2l2.927,2.927a.677.677,0,0,1,.011.956L527.39,516.945A.658.658,0,0,1,526.922,517.137Zm11.535-18.3a.184.184,0,0,0-.132.054l-14.493,14.493a.187.187,0,0,0-.054.136.216.216,0,0,0,.065.149l2.927,2.927a.2.2,0,0,0,.286.011l14.493-14.493a.186.186,0,0,0,.054-.136.216.216,0,0,0-.065-.149L538.61,498.9a.216.216,0,0,0-.149-.065Z" transform="translate(-518.856 -493.918)" fill="none" stroke="#707070" stroke-width="1"/>
        </g>
      </g>
    </g>
    <g id="Group_695" data-name="Group 695" transform="translate(525.48 500.775)">
      <g id="Group_687" data-name="Group 687" transform="translate(8.531 1.687)">
        <path id="Path_1819" data-name="Path 1819" d="M582.808,532.05c.16-.161.287-.3.435-.425a.321.321,0,0,1,.231-.029c.582.1,1.163.214,1.787.33l-.6-1.2a1.343,1.343,0,0,0-.087-.161.217.217,0,0,1,.038-.327c.36-.349.355-.355.839-.053l1.557.972a3.387,3.387,0,0,1-.344.331c-.036.027-.145-.008-.205-.045-.389-.243-.773-.5-1.212-.779.174.363.323.674.473.985.043.089.089.177.133.265.172.347.006.579-.366.515-.545-.094-1.089-.188-1.646-.246l1.206.907-.389.389Z" transform="translate(-582.808 -529.971)" fill="none" stroke="#707070" stroke-width="1"/>
      </g>
      <g id="Group_688" data-name="Group 688" transform="translate(5.116 5.822)">
        <path id="Path_1820" data-name="Path 1820" d="M570.967,548.55l.77.2a4.2,4.2,0,0,1-.422.409.327.327,0,0,1-.259-.016.567.567,0,0,0-.791.186,2.48,2.48,0,0,1-.332.339l.417.455-.376.375-.432-.432-.336.336-.357-.358.353-.353-.8-.883a1.248,1.248,0,0,1,.1-.122c.345-.347.687-.7,1.038-1.037a.837.837,0,0,1,1.269.149A.777.777,0,0,1,570.967,548.55Zm-1.384.739c.273-.273.552-.54.816-.822.1-.112.068-.26-.058-.386s-.284-.2-.406-.09c-.284.259-.547.539-.828.82Z" transform="translate(-568.398 -547.42)" fill="none" stroke="#707070" stroke-width="1"/>
      </g>
      <g id="Group_689" data-name="Group 689" transform="translate(0 11.042)">
        <path id="Path_1821" data-name="Path 1821" d="M548.671,569.516l-1.093,1.093c-.261.261-.261.261.025.649l1.129-1.129c.28.314.281.328.06.55l-.771.771c-.251.252-.25.274.035.627l1.4-1.4.05.028c-.056.3.023.633-.245.872-.419.373-.8.788-1.2,1.185l-.168.168-.465-.869-.246.209a2.537,2.537,0,0,0-.121-.225c-.078-.116-.07-.2.03-.27s.123-.172.033-.306a3.064,3.064,0,0,1-.159-.3c-.213-.408-.213-.408.062-.684a9.972,9.972,0,0,0,.778-.791A.7.7,0,0,1,548.671,569.516Z" transform="translate(-546.811 -569.447)" fill="none" stroke="#707070" stroke-width="1"/>
      </g>
      <g id="Group_690" data-name="Group 690" transform="translate(6.919 3.911)">
        <path id="Path_1822" data-name="Path 1822" d="M577.754,541.7l.959-.959c.264-.264.264-.264.6.059l-1.6,1.6-1.712-1.56,1.489-1.489.366.287-1.143,1.143.358.316.923-.923.339.264-.936.936Z" transform="translate(-576.006 -539.354)" fill="none" stroke="#707070" stroke-width="1"/>
      </g>
      <g id="Group_691" data-name="Group 691" transform="translate(10.865 0)">
        <path id="Path_1823" data-name="Path 1823" d="M596.255,524l-.768.768c-.229.229-.455.461-.69.684-.038.036-.131.068-.17.045-.649-.387-1.293-.783-1.968-1.2.063-.071.106-.124.154-.172.378-.379.766-.748,1.13-1.14a.312.312,0,0,1,.484-.043,1.671,1.671,0,0,0,.15.085l-1.121,1.12c.322.3.384.306.61.079l.5-.5c.239-.239.239-.239.595-.011l-.886.886c.166.266.368.322.529.161q.4-.4.8-.8C595.86,523.713,595.9,523.714,596.255,524Z" transform="translate(-592.659 -522.852)" fill="none" stroke="#707070" stroke-width="1"/>
      </g>
      <g id="Group_692" data-name="Group 692" transform="translate(1.631 7.578)">
        <path id="Path_1824" data-name="Path 1824" d="M555.045,559.1l-.189-.061.146-.859-1.307-.152a.657.657,0,0,1,.656-.465c.194.019.388.043.581.052a.567.567,0,0,0,.188-.057l-.169-.193c.061-.535.125-1.11.194-1.683a.222.222,0,0,1,.064-.122c.23-.235.464-.467.733-.735-.01.1-.012.148-.022.2-.117.552-.231,1.105-.355,1.655-.029.13-.011.208.166.212l-.369,1.5.172.074c-.005.04-.008.082-.017.12-.149.649-.293,1.3-.452,1.946a1.374,1.374,0,0,1-.174.32l-.07-.032Z" transform="translate(-553.695 -554.828)" fill="none" stroke="#707070" stroke-width="1"/>
      </g>
      <g id="Group_693" data-name="Group 693" transform="translate(3.755 7.32)">
        <path id="Path_1825" data-name="Path 1825" d="M564.714,556.2l-.388.388-1.164-1.4-.451.451-.051-.031c.093-.31.037-.682.284-.93l.939-.939.337.371c-.2.2-.381.392-.578.574-.1.092-.093.161.012.28C564.01,555.368,564.356,555.782,564.714,556.2Z" transform="translate(-562.658 -553.739)" fill="none" stroke="#707070" stroke-width="1"/>
      </g>
      <g id="Group_694" data-name="Group 694" transform="translate(3.501 10.471)">
        <path id="Path_1826" data-name="Path 1826" d="M563.012,567.141c-.25.681-.84.5-1.427.409.059-.156.109-.305.175-.446a.149.149,0,0,1,.128-.067C562.258,567.066,562.63,567.1,563.012,567.141Z" transform="translate(-561.585 -567.037)" fill="none" stroke="#707070" stroke-width="1"/>
      </g>
    </g>
  </g>
</svg>
