<svg xmlns="http://www.w3.org/2000/svg" width="30.71" height="30.712" viewBox="0 0 30.71 30.712">
  <g id="Group_766" data-name="Group 766" transform="translate(-2221.947 -2155.968)">
    <path id="Path_2143" data-name="Path 2143" d="M2227.728,2156.468a3.427,3.427,0,0,1,1.063.718,4.3,4.3,0,0,0,1.135.665c.769.3,1.564.534,2.41.817.385-.388.833-.84,1.283-1.29a1.491,1.491,0,0,1,2.315-.011q4.256,4.254,8.51,8.51a1.018,1.018,0,0,1-.264,1.8l-.909.493c.263.262.5.52.767.752.053.047.195.016.288-.008a1.517,1.517,0,0,1,1.62.567,1.482,1.482,0,0,1-1.846,2.189,1.46,1.46,0,0,1-.788-1.745.345.345,0,0,0-.1-.424,8.673,8.673,0,0,1-.676-.677.267.267,0,0,0-.395-.052c-.445.253-.9.494-1.35.732a1,1,0,0,1-1.315-.2c-.76-.756-1.515-1.517-2.295-2.3-.05.076-.084.128-.119.18a1.457,1.457,0,0,1-2.243.257c-.268-.248-.509-.526-.778-.808a1.533,1.533,0,0,1-1.542.858.247.247,0,0,0-.187.113,1.473,1.473,0,0,1-2.067.784l-.777.813a2.683,2.683,0,0,1,.375.282,1.479,1.479,0,0,1,0,2.172c-.107.111-.216.222-.329.327a1.458,1.458,0,0,1-2.066-.008q-1.954-1.922-3.876-3.876a1.449,1.449,0,0,1,.014-2.084c.219-.229.462-.435.72-.675a4.113,4.113,0,0,1-.887-1.939,3.174,3.174,0,0,0-.375-.712c-.19-.319-.395-.629-.593-.942v-.58a2.364,2.364,0,0,1,.7-1.039q1.471-1.453,2.924-2.925a2.515,2.515,0,0,1,1.079-.737Zm3.825,2.967c-.3-.1-.569-.212-.843-.289a5.6,5.6,0,0,1-2.953-1.552.447.447,0,0,0-.7.029q-1.738,1.727-3.466,3.467a.464.464,0,0,0-.018.7,4.252,4.252,0,0,1,.974,1.943,2.357,2.357,0,0,0,.535.969c1.084,1.13,2.2,2.225,3.313,3.332a.52.52,0,0,0,.788.065c.2-.213.167-.505-.092-.768-.409-.412-.821-.82-1.23-1.231-.285-.287-.315-.559-.091-.784s.509-.194.785.081q.74.736,1.478,1.476c.185.184.363.376.558.549a.49.49,0,0,0,.693-.692c-.062-.073-.135-.139-.2-.207q-.933-.933-1.866-1.867a.489.489,0,0,1-.093-.657.441.441,0,0,1,.555-.193.887.887,0,0,1,.3.218q1.111,1.1,2.216,2.214c.313.313.6.359.829.137s.2-.51-.117-.825l-1.7-1.7c-.219-.219-.448-.429-.65-.662a.486.486,0,0,1,.589-.754,1.1,1.1,0,0,1,.265.221q1.961,1.957,3.919,3.916a1.345,1.345,0,0,0,.236.213.488.488,0,0,0,.681-.669,1.269,1.269,0,0,0-.21-.238c-1.435-1.437-2.878-2.865-4.3-4.315a2.165,2.165,0,0,1-.486-.8A1.441,1.441,0,0,1,2231.552,2159.435Zm12.306,7.293a.448.448,0,0,0-.041-.071q-4.324-4.328-8.651-8.653a.489.489,0,0,0-.784.01q-1,.99-1.989,1.989a.5.5,0,0,0,0,.827q3.842,3.846,7.684,7.691a.256.256,0,0,0,.369.049c.82-.453,1.646-.892,2.47-1.336Q2243.391,2166.982,2243.859,2166.728Zm-15.348,4.746a5.581,5.581,0,0,0,.482-.374c.445-.43.443-.624.013-1.054l-3.4-3.4c-.578-.577-.717-.575-1.279.023a.493.493,0,0,0-.011.785q1.879,1.89,3.77,3.767A2.216,2.216,0,0,0,2228.511,2171.474Zm16.211-.661a.474.474,0,0,0,.5-.481.49.49,0,0,0-.493-.493.5.5,0,0,0-.484.476A.473.473,0,0,0,2244.722,2170.813Z" transform="translate(0 0)" fill="none" stroke="#707070" stroke-width="1"/>
    <path id="Path_2144" data-name="Path 2144" d="M2261.161,2265.94c-.08-.029-.159-.061-.24-.085a1.942,1.942,0,0,1-1.395-1.8c-.022-.676-.012-1.353-.006-2.029a.493.493,0,0,1,.481-.542.507.507,0,0,1,.5.556c.009.6,0,1.2,0,1.8a1,1,0,0,0,1.105,1.115c.551,0,1.1.006,1.652,0,.273,0,.537.007.658.3s-.043.511-.269.687Z" transform="translate(-28.153 -79.762)" fill="none" stroke="#707070" stroke-width="1"/>
    <path id="Path_2145" data-name="Path 2145" d="M2331.92,2218.254l-.087.11a.494.494,0,0,1-.9-.294c0-.618,0-1.237,0-1.855a1,1,0,0,0-1.1-1.094c-.57,0-1.14,0-1.71,0-.414,0-.652-.178-.658-.488s.234-.5.643-.5q.869,0,1.739,0a1.969,1.969,0,0,1,2.022,1.529.508.508,0,0,0,.054.1Z" transform="translate(-79.763 -43.797)" fill="none" stroke="#707070" stroke-width="1"/>
    <path id="Path_2146" data-name="Path 2146" d="M2327.8,2265.943c-.326-.245-.415-.471-.276-.724a.519.519,0,0,1,.509-.266c.6.005,1.2,0,1.8,0a1.006,1.006,0,0,0,1.1-1.1c0-.571.006-1.141,0-1.712,0-.282.044-.525.348-.627s.487.085.643.308v2.438a6.781,6.781,0,0,1-.419.9,2.027,2.027,0,0,1-1.264.782Z" transform="translate(-79.758 -79.764)" fill="none" stroke="#707070" stroke-width="1"/>
    <path id="Path_2147" data-name="Path 2147" d="M2270.777,2228.3q0,2.624,0,5.249c0,.125.029.286-.036.366a.9.9,0,0,1-.433.322.4.4,0,0,1-.469-.3,1.273,1.273,0,0,1-.048-.4q0-5.234,0-10.468c0-.058,0-.116,0-.174a.51.51,0,0,1,.5-.528.489.489,0,0,1,.483.538c.006.947,0,1.895,0,2.842Z" transform="translate(-35.956 -50.051)" fill="none" stroke="#707070" stroke-width="1"/>
    <path id="Path_2148" data-name="Path 2148" d="M2290.417,2228.311q0-2.595,0-5.19a2.473,2.473,0,0,1,.01-.319.484.484,0,0,1,.945-.073,1.111,1.111,0,0,1,.034.314q0,5.277,0,10.555a1.1,1.1,0,0,1-.037.314.448.448,0,0,1-.48.341.454.454,0,0,1-.459-.405,1.934,1.934,0,0,1-.013-.317Q2290.416,2230.921,2290.417,2228.311Z" transform="translate(-51.626 -50.061)" fill="none" stroke="#707070" stroke-width="1"/>
    <path id="Path_2149" data-name="Path 2149" d="M2302.774,2228.347q0-2.639,0-5.278a.511.511,0,0,1,.552-.611c.154.031.3.208.4.353.057.079.029.224.029.34q0,5.22,0,10.439c0,.049,0,.1,0,.145-.01.355-.214.588-.51.581s-.478-.229-.478-.575Q2302.772,2231.043,2302.774,2228.347Z" transform="translate(-61.011 -50.118)" fill="none" stroke="#707070" stroke-width="1"/>
    <path id="Path_2150" data-name="Path 2150" d="M2333.662,2228.363c0-1.769,0-3.537,0-5.306a.7.7,0,0,1,.129-.451.545.545,0,0,1,.453-.151.914.914,0,0,1,.381.381c.05.075.02.206.02.313q0,5.219,0,10.439c0,.058,0,.116,0,.174a.514.514,0,0,1-.514.546.5.5,0,0,1-.473-.551Q2333.658,2231.06,2333.662,2228.363Z" transform="translate(-84.47 -50.111)" fill="none" stroke="#707070" stroke-width="1"/>
    <path id="Path_2151" data-name="Path 2151" d="M2279.022,2228.32v5.161c0,.1,0,.194-.007.289a.488.488,0,0,1-.974.03,2.005,2.005,0,0,1-.011-.289q0-5.2,0-10.409c0-.495.164-.736.5-.737s.494.235.494.735Q2279.024,2225.71,2279.022,2228.32Z" transform="translate(-42.217 -50.051)" fill="none" stroke="#707070" stroke-width="1"/>
    <path id="Path_2152" data-name="Path 2152" d="M2320.208,2228.3v5.219a2.439,2.439,0,0,1-.007.29.489.489,0,0,1-.967.045,1.419,1.419,0,0,1-.015-.289q0-5.263,0-10.526a1.809,1.809,0,0,1,0-.2.5.5,0,0,1,.5-.469.491.491,0,0,1,.482.481c.01.144,0,.29,0,.435Z" transform="translate(-73.501 -50.05)" fill="none" stroke="#707070" stroke-width="1"/>
    <path id="Path_2153" data-name="Path 2153" d="M2311,2228.309q0-2.625,0-5.249a2.057,2.057,0,0,1,.006-.26.491.491,0,0,1,.969-.034,1.553,1.553,0,0,1,.013.288q0,5.25,0,10.5a1.6,1.6,0,0,1-.011.289.49.49,0,0,1-.969-.022,2.079,2.079,0,0,1-.007-.29Q2311,2230.919,2311,2228.309Z" transform="translate(-67.256 -50.051)" fill="none" stroke="#707070" stroke-width="1"/>
    <path id="Path_2154" data-name="Path 2154" d="M2259.533,2216.969c0-.309-.011-.619,0-.927a1.955,1.955,0,0,1,1.965-1.915c.628-.007,1.256,0,1.884,0,.376,0,.587.178.59.486s-.214.5-.606.5c-.589,0-1.178,0-1.768,0a.986.986,0,0,0-1.077,1.081c0,.57,0,1.14,0,1.71a1.288,1.288,0,0,1-.024.287.476.476,0,0,1-.507.384.455.455,0,0,1-.449-.448c-.015-.386,0-.772,0-1.158Z" transform="translate(-28.165 -43.791)" fill="none" stroke="#707070" stroke-width="1"/>
  </g>
</svg>
