<svg xmlns="http://www.w3.org/2000/svg" width="25.216" height="24.829" viewBox="0 0 25.216 24.829">
  <path id="Path_2016" data-name="Path 2016" d="M1918,1305.966a11.587,11.587,0,0,1,.7-3.969,12.147,12.147,0,0,1,.605-1.457,12.817,12.817,0,0,1,.924-1.466,15.074,15.074,0,0,1,1.042-1.291c.249-.278.553-.505.826-.763a10.352,10.352,0,0,1,1.931-1.372,11.336,11.336,0,0,1,3.417-1.311,14.29,14.29,0,0,1,1.715-.24,11.332,11.332,0,0,1,1.656-.039,16.493,16.493,0,0,1,1.821.243,9.279,9.279,0,0,1,2.11.643c.511.224,1.013.473,1.5.738a9.511,9.511,0,0,1,1.1.684,13.027,13.027,0,0,1,1.032.866c.313.283.616.577.905.884a6.27,6.27,0,0,1,.519.658c.276.386.558.771.8,1.176a11.04,11.04,0,0,1,.507,1.007,10.682,10.682,0,0,1,.437.977,8.181,8.181,0,0,1,.312,1.111,17.218,17.218,0,0,1,.322,1.877,16.635,16.635,0,0,1,.01,1.815,9.573,9.573,0,0,1-.376,2.342c-.118.433-.273.857-.431,1.277a6.711,6.711,0,0,1-.418.949c-.311.552-.63,1.1-.993,1.62a12.091,12.091,0,0,1-1,1.187,9.475,9.475,0,0,1-.857.834,9.59,9.59,0,0,1-1.535,1.1c-.4.223-.788.476-1.2.669-.458.213-.938.38-1.414.553a9.238,9.238,0,0,1-2.335.526,17.973,17.973,0,0,1-2.284.068,11.051,11.051,0,0,1-3.23-.636,11.78,11.78,0,0,1-2.386-1.12,10.093,10.093,0,0,1-1.619-1.19q-.515-.488-1.022-.986a8.859,8.859,0,0,1-1.229-1.564,10.114,10.114,0,0,1-1.094-2.255c-.181-.548-.369-1.1-.5-1.659a14.768,14.768,0,0,1-.221-1.564C1918.021,1306.583,1918.018,1306.274,1918,1305.966Zm21.276.446a.444.444,0,0,1,.016.069c0,.035,0,.07,0,.1a8.385,8.385,0,0,1-1.212,3.889,8.926,8.926,0,0,1-5.6,4.216,9.26,9.26,0,0,1-9.672-3.273,8.594,8.594,0,0,1-1.834-4.692,8.86,8.86,0,0,1,.208-2.887,9.094,9.094,0,0,1,2.024-3.813,9.312,9.312,0,0,1,4.881-2.881,8.571,8.571,0,0,1,2.244-.2c.173,0,.223-.05.21-.216a3.789,3.789,0,0,1,0-.525c.008-.136-.034-.191-.175-.181-.611.042-1.229.03-1.83.125a9.832,9.832,0,0,0-6.009,3.274,9.827,9.827,0,0,0,1.214,14.233,9.9,9.9,0,0,0,8.291,2.061,9.792,9.792,0,0,0,6.281-3.942,9.611,9.611,0,0,0,1.906-6.1c-.005-.224,0-.225-.231-.225h-6.724a.518.518,0,0,0-.139,0c-.031.009-.077.045-.078.07-.005.289,0,.578,0,.887Zm-9.706-.57h0q0,2.53,0,5.06c0,.1-.009.192.147.191,1.027-.005,2.054,0,3.081,0,.1,0,.147-.033.144-.141a5.52,5.52,0,0,1,0-.577c.013-.17-.057-.2-.211-.2-.63.007-1.26,0-1.891,0-.236,0-.236,0-.236-.239q0-3.624,0-7.248c0-.636,0-1.272,0-1.908,0-.14-.045-.183-.181-.177a5.9,5.9,0,0,1-.647,0c-.172-.011-.213.051-.212.217C1929.573,1302.492,1929.57,1304.167,1929.57,1305.842Zm-3.308-5.188a1.479,1.479,0,1,0,1.478,1.485A1.483,1.483,0,0,0,1926.262,1300.654Z" transform="translate(-1917.5 -1293.544)" fill="none" stroke="#707070" stroke-width="1"/>
</svg>
