<svg xmlns="http://www.w3.org/2000/svg" width="26" height="20.466" viewBox="0 0 26 20.466">
  <g id="Group_746" data-name="Group 746" transform="translate(-1980.221 -1410.058)">
    <path id="Path_2039" data-name="Path 2039" d="M2036.075,1424.1q0-4.188,0-8.375c0-.194.051-.289.248-.32a2.821,2.821,0,0,0,.558-.141,7.448,7.448,0,0,1,3.537-.192c1.172.125,2.347.219,3.52.325.385.035.52.175.52.555q0,8.037,0,16.074c0,.377-.115.519-.491.554-1.831.173-3.661.349-5.494.5a5.038,5.038,0,0,1-1.019-.111c-.373-.048-.744-.113-1.118-.149-.2-.019-.265-.088-.263-.292.008-1.622,0-3.243.005-4.865V1424.1Zm5.188-2.67v.045c.619,0,1.237.007,1.855-.006.12,0,.324-.065.342-.136a1.721,1.721,0,0,0,.039-.7c-.035-.195-.251-.215-.434-.219-1.212-.028-2.423-.059-3.635-.086-.37-.008-.487.114-.492.5-.007.457.1.6.469.6C2040.026,1421.431,2040.645,1421.427,2041.263,1421.427Zm-.041-2.861h0c-.6-.028-1.2-.058-1.8-.084-.33-.014-.46.1-.483.4-.037.479.076.685.426.7q1.9.079,3.8.13c.1,0,.282-.066.295-.129a1.913,1.913,0,0,0,.039-.7c-.033-.194-.245-.22-.429-.228C2042.456,1418.625,2041.839,1418.6,2041.222,1418.566Zm-1.65-1.917-.021-.06c-.179.062-.462.077-.514.2a1.27,1.27,0,0,0-.042.719c.041.213.271.239.472.25.5.026,1,.057,1.5.086.717.041,1.434.09,2.152.113a.5.5,0,0,0,.377-.167.566.566,0,0,0-.449-.888Q2041.309,1416.769,2039.572,1416.649Zm1.671,6.625v-.045c.618,0,1.235,0,1.853,0,.352,0,.456-.129.456-.53s-.1-.524-.459-.527q-1.84-.01-3.681-.01c-.372,0-.478.134-.476.57,0,.406.12.542.479.542C2040.025,1423.276,2040.634,1423.275,2041.243,1423.275Z" transform="translate(-38.732 -3.074)" fill="none" stroke="#707070" stroke-width="1"/>
    <path id="Path_2040" data-name="Path 2040" d="M1989.063,1424.019q0,4.188,0,8.376c0,.214-.048.3-.277.329-.59.064-1.174.2-1.764.227a14.947,14.947,0,0,1-1.822-.1c-1.291-.11-2.581-.235-3.871-.352-.529-.048-.612-.136-.612-.668v-15.9c0-.506.074-.6.581-.641q2.646-.243,5.294-.475a1.175,1.175,0,0,1,.371.031c.626.15,1.248.317,1.875.459.19.043.224.135.224.31Q1989.059,1419.818,1989.063,1424.019Zm-5.2-2.643v-.045c.635,0,1.271,0,1.906,0,.362,0,.466-.15.457-.615-.007-.374-.119-.5-.474-.489q-1.856.041-3.711.093c-.368.01-.467.154-.455.617.008.322.132.439.471.44C1982.654,1421.377,1983.256,1421.376,1983.858,1421.376Zm-.025-1.755v-.132c.65,0,1.3.009,1.951,0,.3-.006.417-.141.434-.437a1.97,1.97,0,0,0,0-.3c-.024-.25-.14-.371-.389-.361q-1.926.081-3.852.18c-.325.018-.425.21-.394.676.018.271.146.379.45.379Zm-.316-1.839v0c.741-.042,1.483-.081,2.225-.128.394-.025.511-.207.476-.711-.022-.324-.139-.416-.527-.391-1.008.067-2.016.139-3.023.21-.241.017-.484.026-.724.059-.3.041-.395.237-.36.683.02.262.144.374.434.362C1982.518,1417.842,1983.017,1417.809,1983.517,1417.782Zm.393,5.352v.045c.609,0,1.218,0,1.827,0,.368,0,.481-.128.484-.535,0-.444-.1-.575-.467-.575q-1.852,0-3.7.007c-.369,0-.471.128-.469.545,0,.385.114.51.478.512C1982.676,1423.137,1983.293,1423.134,1983.911,1423.134Z" transform="translate(0 -2.979)" fill="none" stroke="#707070" stroke-width="1"/>
    <path id="Path_2041" data-name="Path 2041" d="M2017.578,1420.3q0,4.577,0,9.154c0,.439-.129.57-.567.57l-5.994,0c-.482,0-.6-.111-.6-.589q0-9.153,0-18.307c0-.445.124-.568.565-.567l5.919,0c.585,0,.673.086.673.662v9.078Zm-4.993,4.746a1.4,1.4,0,0,0,1.412,1.419,1.4,1.4,0,0,0,.025-2.81A1.4,1.4,0,0,0,2012.585,1425.046Zm1.4-11.459c.685,0,1.369,0,2.054,0,.429,0,.542-.121.547-.557,0-.083,0-.167,0-.25a.391.391,0,0,0-.421-.4q-2.166-.007-4.332,0a.406.406,0,0,0-.436.443c0,.075,0,.15,0,.225,0,.411.127.539.539.541C2012.612,1413.589,2013.3,1413.587,2013.981,1413.587Zm-.006,6.067c.7,0,1.4.008,2.106-.007a.563.563,0,0,0,.4-.151.856.856,0,0,0,.051-.815c-.078-.223-.3-.231-.51-.231h-3.962c-.569,0-.673.106-.668.674,0,.388.14.528.53.529C2012.6,1419.656,2013.289,1419.654,2013.975,1419.654Zm.018-4.047c.694,0,1.388.008,2.081-.006a.578.578,0,0,0,.4-.144.858.858,0,0,0,.061-.814c-.073-.237-.306-.25-.523-.25q-1.968,0-3.936,0c-.592,0-.693.1-.687.68,0,.4.133.533.548.534C2012.622,1415.608,2013.308,1415.607,2013.993,1415.607Zm.01.822c-.7,0-1.4-.009-2.1.007-.143,0-.382.075-.406.161a1.831,1.831,0,0,0-.048.794c.046.238.306.241.521.241q1.978,0,3.956,0c.566,0,.672-.109.661-.678-.007-.394-.136-.525-.528-.527C2015.372,1416.427,2014.687,1416.429,2014,1416.429Z" transform="translate(-20.784)" fill="none" stroke="#707070" stroke-width="1"/>
  </g>
</svg>
