<svg xmlns="http://www.w3.org/2000/svg" width="28.342" height="28" viewBox="0 0 28.342 28">
  <g id="Group_772" data-name="Group 772" transform="translate(-2057.804 -2298.753)">
    <path id="Path_2190" data-name="Path 2190" d="M2085.572,2318.414c-.16-.357-.316-.725-.466-1.081q-.1-.248-.21-.494l-.293-.686c-.381-.891-.775-1.811-1.169-2.714a.705.705,0,0,0-.367-.375c-.183-.062-.37.153-.465.288a9.763,9.763,0,0,0-.573.877c-.083.148-.118.173-.309.11a5.57,5.57,0,0,0-6.76,2.585,5.177,5.177,0,0,0-.7,2.559.674.674,0,0,0,.142.361c.023.036.047.072.065.108l.142.282a.5.5,0,0,0-.439.168.578.578,0,0,0,.041.536l.366.864h-5.042v-9.591c0-.51,0-1.02,0-1.529a.922.922,0,0,0-.99-1.011c-.865-.008-1.727-.008-2.562,0a.912.912,0,0,0-.961.956c-.006.226,0,.453,0,.693,0,.058,0,.117,0,.178h-.178c-.236,0-.452,0-.666,0a1.1,1.1,0,0,0-1.227,1.1.812.812,0,0,1-.871.8c-.043,0-.085,0-.128,0a1.516,1.516,0,0,0-.229.005c-.133.016-.166-.007-.171-.012s-.034-.036-.03-.188c.015-.581.012-1.171.01-1.741,0-.3,0-.6,0-.9a2.4,2.4,0,0,1,2.425-2.46c.313-.006.633,0,.942,0,.194,0,.388,0,.582,0l4.272,0c3.318,0,6.748-.005,10.122,0a2.378,2.378,0,0,1,2.431,2.446c0,.242,0,.484,0,.727,0,.388,0,.79.009,1.186a.622.622,0,0,0,.172.354,1.211,1.211,0,0,1,.075.1l.16.255.14-.266a1.1,1.1,0,0,1,.061-.1.656.656,0,0,0,.14-.338c.017-.63.012-1.269.007-1.887v-.066a3.116,3.116,0,0,0-2.987-3.155,9.8,9.8,0,0,0-1.088-.008c-.125.006-.153-.018-.156-.02s-.03-.036-.029-.179c.006-.605.005-1.21,0-1.815,0-.629,0-1.259,0-1.888a1.021,1.021,0,0,0-.335-.792c-1-.99-2.04-2.024-3.075-3.076a1.031,1.031,0,0,0-.788-.334h0q-3.327.011-6.655.007h-2.28c-.573,0-.66.088-.66.67q0,2.762,0,5.524v1.9h-.224c-.271,0-.528,0-.785,0a3.136,3.136,0,0,0-3.246,3.3c0,.213,0,.426,0,.639,0,.618-.006,1.256.009,1.886,0,.152-.025.191-.033.2s-.051.033-.2.023c-.249-.018-.5-.013-.741-.009l-.265,0a1.116,1.116,0,0,0-1.228,1.235q0,4.449,0,8.9a1.148,1.148,0,0,0,1.3,1.285q4.315,0,8.63,0a1.15,1.15,0,0,0,1.3-1.287c0-.245,0-.491,0-.741v-.187h1.2c1.355,0,2.634,0,3.937-.008a.323.323,0,0,1,.368.253c.436,1.063.895,2.124,1.286,3.022.017.037.166.365.4.382h.02c.206,0,.385-.232.436-.305.19-.271.372-.552.547-.824l.127-.2.021.008c.084.03.155.055.226.079a5.664,5.664,0,0,0,6.431-2.17,5.349,5.349,0,0,0,.973-3.07.548.548,0,0,0-.147-.322.858.858,0,0,1-.06-.084l-.137-.226-.153.216a1.025,1.025,0,0,1-.065.08.655.655,0,0,0-.17.289,3.2,3.2,0,0,0-.048.414,3.036,3.036,0,0,1-.037.346,4.86,4.86,0,0,1-6.591,3.707.611.611,0,0,0-.865.286c-.107.193-.232.374-.377.585l-.031.045-1.745-4.084h4.422l-.034.053c-.148.227-.285.438-.417.652a.553.553,0,0,0-.116.489c.07.164.263.219.439.258a2.735,2.735,0,0,0,2.255-.548,2.794,2.794,0,0,0,1.114-2.094.6.6,0,0,0-.135-.35,1.154,1.154,0,0,1-.061-.1l-.128-.252-.166.229c-.023.031-.047.06-.072.09a1.018,1.018,0,0,0-.18.275c-.057.15-.1.305-.148.455a2.976,2.976,0,0,1-.277.714,1.844,1.844,0,0,1-1.617.837l.065-.1c.154-.233.313-.474.461-.715a.517.517,0,0,0,.079-.5.452.452,0,0,0-.43-.189c-1.867-.008-3.718-.008-5.5,0h-.021l.161-.272c.019-.033.042-.064.064-.1a.845.845,0,0,0,.156-.308,3.923,3.923,0,0,0,.059-.438,3.721,3.721,0,0,1,.052-.393,4.845,4.845,0,0,1,6.63-3.566.538.538,0,0,0,.747-.238c.127-.21.264-.412.421-.646l.042-.062,1.744,4.07h-4.426l.04-.061c.139-.21.267-.406.394-.6a.576.576,0,0,0,.133-.522c-.077-.177-.291-.229-.486-.264a2.762,2.762,0,0,0-2.109.477,2.939,2.939,0,0,0-1.191,1.968c0,.026-.009.054-.015.083a.621.621,0,0,0,.042.5.394.394,0,0,0,.293.15.376.376,0,0,0,.3-.084.54.54,0,0,0,.125-.429.961.961,0,0,1,0-.109,2.061,2.061,0,0,1,.834-1.41,1.921,1.921,0,0,1,1.185-.4l-.18.271-.116.17c-.077.113-.155.226-.227.343a.534.534,0,0,0-.084.509.5.5,0,0,0,.452.193c1.863.008,3.737.007,5.5,0a.48.48,0,0,0,.434-.181A.49.49,0,0,0,2085.572,2318.414Zm-19.766-7.806a.371.371,0,0,1,.173-.159c.873-.027,1.752-.028,2.6,0a.365.365,0,0,1,.167.171,4.453,4.453,0,0,1,.019.708c0,.05,0,.1,0,.151h-2.976q0-.073,0-.144A4.767,4.767,0,0,1,2065.806,2310.608Zm2.962,1.651v11.185c0,.555-.051.606-.608.606q-4.257,0-8.513,0c-.509,0-.573-.064-.574-.566q0-4.391,0-8.781c0-.474.082-.558.547-.56h1.1c.446,0,.893,0,1.34,0a1.5,1.5,0,0,0,1.623-1.447c.046-.36.192-.435.4-.435,1.349,0,2.7,0,4.047,0Zm6.537-9.493v-2.022l1.988,2.022Zm-.776-1.683c0,.611,0,1.242,0,1.863a.517.517,0,0,0,.6.6c.691-.011,1.395-.009,2.076-.006l.555,0c.095,0,.19.006.29.013v3.766h-12.23v-7.29h8.71v.323C2074.527,2300.6,2074.528,2300.84,2074.529,2301.083Z" fill="none" stroke="#707070" stroke-width="1"/>
    <path id="Path_2191" data-name="Path 2191" d="M2173.268,2361.467a.386.386,0,0,0-.322.25c-.065.158-.134.316-.2.473a10.122,10.122,0,0,0-.608,1.67,1.041,1.041,0,0,0,.187.882,1.224,1.224,0,0,0,.916.472h.056a1.084,1.084,0,0,0,.767-.3,1.509,1.509,0,0,0,.409-1.12v-.022a5.911,5.911,0,0,0-.854-2.1A.371.371,0,0,0,2173.268,2361.467Zm.026,1.156c.028.083.058.166.087.249a7.44,7.44,0,0,1,.311,1.044.479.479,0,0,1-.081.41.412.412,0,0,1-.334.131.421.421,0,0,1-.326-.161.489.489,0,0,1-.072-.414,8.286,8.286,0,0,1,.327-1.018C2173.235,2362.784,2173.265,2362.7,2173.293,2362.623Z" transform="translate(-94.074 -51.428)" fill="none" stroke="#707070" stroke-width="1"/>
    <path id="Path_2192" data-name="Path 2192" d="M2155.371,2361.909c-.166,0-.27.043-.318.128l-.062.11a4.719,4.719,0,0,0-.792,2.152,1.266,1.266,0,0,0,.334.943,1.141,1.141,0,0,0,.83.339h.008c.723,0,1.172-.556,1.17-1.439v-.018a5.633,5.633,0,0,0-.858-2.093A.324.324,0,0,0,2155.371,2361.909Zm.076,1.306c.116.324.237.66.328.994.018.067.1.406-.167.52a.705.705,0,0,1-.423.032.805.805,0,0,1-.211-.577,5.889,5.889,0,0,1,.315-.98c.027-.07.054-.14.08-.21Z" transform="translate(-79.27 -51.794)" fill="none" stroke="#707070" stroke-width="1"/>
    <path id="Path_2193" data-name="Path 2193" d="M2137.382,2361.946c-.248,0-.3.1-.321.13l-.042.073a4.759,4.759,0,0,0-.81,2.187,1.252,1.252,0,0,0,.333.936,1.141,1.141,0,0,0,.827.334h.019c.732-.01,1.168-.545,1.165-1.431v-.02a5.7,5.7,0,0,0-.865-2.09C2137.637,2361.983,2137.539,2361.943,2137.382,2361.946Zm.339,2.745a.432.432,0,0,1-.327.161.438.438,0,0,1-.348-.149.407.407,0,0,1-.083-.35,8.243,8.243,0,0,1,.32-1.074c.032-.093.064-.186.1-.278q.047.138.095.276a8.658,8.658,0,0,1,.32,1.073A.4.4,0,0,1,2137.721,2364.691Z" transform="translate(-64.399 -51.825)" fill="none" stroke="#707070" stroke-width="1"/>
    <path id="Path_2194" data-name="Path 2194" d="M2120.549,2315.544a.619.619,0,0,0-.358-.167c-1.149-.015-2.321-.014-3.584,0a.613.613,0,0,0-.34.148,1.089,1.089,0,0,1-.1.064l-.263.147.258.154a1.112,1.112,0,0,1,.1.071.644.644,0,0,0,.352.163c.443.017.893.014,1.327.012h.933l.463,0c.276,0,.555,0,.831-.013a.733.733,0,0,0,.358-.142c.037-.023.073-.046.11-.064l.282-.141-.27-.163A1.2,1.2,0,0,1,2120.549,2315.544Z" transform="translate(-47.616 -13.32)" fill="none" stroke="#707070" stroke-width="1"/>
    <path id="Path_2195" data-name="Path 2195" d="M2116.714,2324.424c.573.006,1.156.01,1.744.01.647,0,1.3,0,1.955-.012a.546.546,0,0,0,.325-.153,1.062,1.062,0,0,1,.086-.063l.236-.145-.233-.149a1.052,1.052,0,0,1-.091-.068.577.577,0,0,0-.334-.164c-.45-.016-.906-.014-1.347-.011h-.448c-.161,0-.321,0-.481,0-.455,0-.926,0-1.391.01a.557.557,0,0,0-.319.15c-.028.021-.056.044-.085.061l-.218.133.2.153a.867.867,0,0,1,.078.07A.5.5,0,0,0,2116.714,2324.424Z" transform="translate(-47.787 -20.181)" fill="none" stroke="#707070" stroke-width="1"/>
    <path id="Path_2196" data-name="Path 2196" d="M2120.558,2331.8a.622.622,0,0,0-.339-.153c-.444-.015-.894-.013-1.329-.011h-.295l-.173,0h-.471c-.434,0-.884-.005-1.327.012a.651.651,0,0,0-.354.162,1.246,1.246,0,0,1-.1.071l-.256.15.257.149c.032.019.063.042.095.066a.6.6,0,0,0,.34.153c.6.007,1.2.011,1.8.011.615,0,1.226,0,1.828-.011a.566.566,0,0,0,.339-.164,1.037,1.037,0,0,1,.092-.069l.241-.153-.247-.144A1.053,1.053,0,0,1,2120.558,2331.8Z" transform="translate(-47.621 -26.768)" fill="none" stroke="#707070" stroke-width="1"/>
    <path id="Path_2197" data-name="Path 2197" d="M2073.037,2385.076c-.661.684-1.344,1.391-2,2.1a1.541,1.541,0,0,0-.362.93c-.033.769-.025,1.551-.017,2.306l0,.449a1.214,1.214,0,0,0,1.318,1.305c.723,0,1.444,0,2.158,0,.831,0,1.654,0,2.46,0a1.218,1.218,0,0,0,1.322-1.341c0-.744,0-1.488,0-2.231v-.784q0-.49,0-.979c0-.717,0-1.459,0-2.19a1.167,1.167,0,0,0-1.188-1.223c-.28-.011-.564-.009-.838-.008-.2,0-.41,0-.614,0a1.366,1.366,0,0,0-1.076.458Q2073.622,2384.474,2073.037,2385.076Zm4.119,3.587q0,1.044,0,2.087c0,.548-.1.652-.639.653q-2.23,0-4.461,0c-.509,0-.626-.118-.627-.625q0-.3,0-.606c0-.662-.008-1.347.014-2.018a.887.887,0,0,1,.211-.523c1.154-1.238,2.127-2.248,3.062-3.181a1.2,1.2,0,0,1,.663-.276,3.971,3.971,0,0,1,.506-.028c.15,0,.3.005.451.01l.274.008c.4.009.544.156.546.564q0,1.082,0,2.164v.886Z" transform="translate(-10.207 -69.566)" fill="none" stroke="#707070" stroke-width="1"/>
    <path id="Path_2198" data-name="Path 2198" d="M2089.049,2400.4a.408.408,0,0,0-.372-.233.382.382,0,0,0-.324.253c-.059.14-.12.281-.181.421a10.715,10.715,0,0,0-.622,1.683,1.061,1.061,0,0,0,.182.911,1.217,1.217,0,0,0,.927.468h.048a1.093,1.093,0,0,0,.781-.3,1.5,1.5,0,0,0,.391-1.111v-.019A5.869,5.869,0,0,0,2089.049,2400.4Zm-.37.933.027.054a2.852,2.852,0,0,1,.406,1.322.405.405,0,0,1-.406.445h-.007a.453.453,0,0,1-.338-.154.312.312,0,0,1-.068-.261,9.625,9.625,0,0,1,.306-1.149Z" transform="translate(-24.149 -83.419)" fill="none" stroke="#707070" stroke-width="1"/>
  </g>
</svg>
