<svg width="164" height="164" viewBox="0 0 164 164" fill="none" xmlns="http://www.w3.org/2000/svg">
              <path d="M82 164C127.287 164 164 127.287 164 82C164 36.7127 127.287 0 82 0C36.7127 0 0 36.7127 0 82C0 127.287 36.7127 164 82 164Z" fill="#F16051"></path>
              <path d="M153.238 45.869C152.712 45.8283 152.184 45.9161 151.7 46.125C151.148 45.1885 150.361 44.4123 149.418 43.873C148.474 43.3337 147.406 43.05 146.319 43.05C145.55 43.05 144.781 43.306 144.269 43.306C143.929 41.9482 143.132 40.7487 142.012 39.9087C140.892 39.0688 139.518 38.6395 138.119 38.693C137.275 38.6847 136.439 38.8447 135.658 39.1637C134.877 39.4827 134.167 39.9543 133.571 40.5508C132.974 41.1473 132.503 41.8568 132.184 42.6377C131.865 43.4187 131.705 44.2554 131.713 45.099V46.124H131.2C129.501 46.124 127.871 46.799 126.67 48.0004C125.468 49.2019 124.793 50.8314 124.793 52.5305C124.793 54.2296 125.468 55.8591 126.67 57.0606C127.871 58.262 129.501 58.937 131.2 58.937H153.494C154.338 58.9453 155.174 58.7852 155.955 58.4662C156.736 58.1472 157.446 57.6757 158.042 57.0792C158.639 56.4827 159.11 55.7732 159.429 54.9922C159.748 54.2113 159.908 53.3745 159.9 52.531C159.388 48.688 156.569 45.869 153.238 45.869Z" fill="white"></path>
              <path d="M153.238 60.988H130.944C128.574 60.9595 126.309 60.0053 124.633 58.3295C122.958 56.6536 122.003 54.3889 121.975 52.019C121.958 49.9943 122.635 48.0249 123.894 46.4393C125.153 44.8536 126.918 43.7477 128.894 43.306C129.266 41.2523 130.337 39.3904 131.925 38.0361C133.513 36.6817 135.52 35.9182 137.607 35.875C139.15 35.904 140.661 36.3175 142.003 37.0782C143.346 37.8388 144.477 38.9225 145.295 40.231C146.622 40.1707 147.946 40.3906 149.183 40.8763C150.419 41.362 151.539 42.1027 152.47 43.05C153.688 42.9896 154.906 43.1765 156.049 43.5993C157.193 44.0221 158.24 44.6721 159.125 45.5102C160.011 46.3482 160.718 47.357 161.204 48.4756C161.69 49.5942 161.944 50.7995 161.951 52.019C161.987 53.185 161.788 54.3464 161.366 55.4341C160.944 56.5217 160.308 57.5134 159.495 58.3501C158.682 59.1869 157.71 59.8516 156.635 60.3048C155.56 60.758 154.405 60.9903 153.238 60.988V60.988ZM130.944 48.431C129.935 48.4473 128.974 48.8594 128.266 49.5784C127.558 50.2974 127.162 51.2657 127.162 52.2745C127.162 53.2833 127.558 54.2516 128.266 54.9706C128.974 55.6896 129.935 56.1017 130.944 56.118H153.238C154.25 56.0934 155.213 55.6805 155.929 54.9649C156.644 54.2492 157.057 53.2857 157.082 52.274C157.086 51.709 156.96 51.1506 156.713 50.6422C156.467 50.1338 156.107 49.6889 155.661 49.342C155.215 48.9951 154.695 48.7555 154.141 48.6417C153.588 48.528 153.016 48.5431 152.469 48.686C151.924 48.8069 151.354 48.7474 150.845 48.5163C150.337 48.2853 149.917 47.8952 149.65 47.405C149.197 46.6347 148.48 46.0545 147.632 45.7718C146.784 45.4891 145.862 45.5229 145.037 45.867C144.706 46.0225 144.338 46.081 143.975 46.0357C143.612 45.9903 143.269 45.8431 142.987 45.611C142.429 45.2233 141.986 44.6918 141.706 44.073C141.453 43.3012 140.978 42.6216 140.339 42.1198C139.701 41.6181 138.928 41.3168 138.118 41.254C137.106 41.2786 136.143 41.6915 135.427 42.4071C134.711 43.1228 134.299 44.0863 134.274 45.098V45.611C134.3 45.9878 134.244 46.3658 134.112 46.7195C133.979 47.0732 133.772 47.3944 133.505 47.6614C133.238 47.9285 132.917 48.1353 132.563 48.2679C132.21 48.4004 131.832 48.4557 131.455 48.43L130.944 48.431Z" fill="#193651"></path>
              <path d="M80.206 43.563C79.6801 43.5223 79.1523 43.6102 78.668 43.819C78.1161 42.8826 77.3295 42.1063 76.3858 41.567C75.442 41.0277 74.3739 40.7441 73.287 40.744C72.518 40.744 71.749 41 71.237 41C70.8968 39.6422 70.0999 38.4427 68.9801 37.6028C67.8603 36.7628 66.4857 36.3336 65.087 36.387C64.2434 36.3787 63.4067 36.5388 62.6257 36.8578C61.8448 37.1768 61.1353 37.6483 60.5388 38.2448C59.9423 38.8413 59.4707 39.5508 59.1517 40.3318C58.8327 41.1127 58.6727 41.9495 58.681 42.793V43.818H58.168C56.4689 43.818 54.8393 44.493 53.6379 45.6944C52.4364 46.8959 51.7615 48.5254 51.7615 50.2245C51.7615 51.9236 52.4364 53.5531 53.6379 54.7546C54.8393 55.9561 56.4689 56.631 58.168 56.631H80.462C81.3055 56.6393 82.1423 56.4793 82.9232 56.1603C83.7042 55.8413 84.4137 55.3697 85.0102 54.7732C85.6067 54.1767 86.0782 53.4672 86.3972 52.6863C86.7162 51.9053 86.8763 51.0686 86.868 50.225C86.356 46.381 83.538 43.563 80.206 43.563Z" fill="white"></path>
              <path d="M80.206 58.681H57.913C55.5433 58.6522 53.2787 57.698 51.6028 56.0222C49.927 54.3464 48.9728 52.0818 48.944 49.712C48.9268 47.6876 49.6041 45.7185 50.8631 44.1331C52.122 42.5477 53.8864 41.4418 55.862 41C56.234 38.9463 57.3048 37.0844 58.8928 35.73C60.4808 34.3757 62.4884 33.6122 64.575 33.569C66.1178 33.5979 67.6289 34.0115 68.9714 34.7721C70.3139 35.5328 71.4453 36.6165 72.263 37.925C73.5924 37.8411 74.924 38.0501 76.1638 38.5372C77.4036 39.0243 78.5213 39.7776 79.438 40.744C80.656 40.6836 81.8736 40.8705 83.0174 41.2933C84.1613 41.7161 85.2077 42.3661 86.0936 43.2041C86.9794 44.0422 87.6865 45.0509 88.1721 46.1695C88.6577 47.2882 88.9118 48.4935 88.919 49.713C88.9479 52.0562 88.0473 54.3154 86.4144 55.9961C84.7814 57.6769 82.5491 58.6423 80.206 58.681V58.681ZM57.913 46.125C56.9044 46.1412 55.9426 46.5533 55.2351 47.2724C54.5276 47.9914 54.131 48.9597 54.131 49.9685C54.131 50.9772 54.5276 51.9456 55.2351 52.6646C55.9426 53.3836 56.9044 53.7957 57.913 53.812H80.206C81.2178 53.7874 82.1813 53.3745 82.8969 52.6588C83.6125 51.9432 84.0254 50.9797 84.05 49.968C84.0598 49.3762 83.9279 48.7906 83.6653 48.2602C83.4027 47.7297 83.0171 47.2697 82.5406 46.9186C82.0641 46.5675 81.5106 46.3354 80.9262 46.2417C80.3418 46.148 79.7434 46.1954 79.181 46.38C78.6361 46.5007 78.0666 46.4412 77.5584 46.2104C77.0502 45.9795 76.6307 45.5898 76.363 45.1C75.9096 44.3296 75.1927 43.7495 74.3447 43.4668C73.4967 43.184 72.575 43.2179 71.75 43.562C71.4191 43.7175 71.0508 43.7759 70.688 43.7306C70.3252 43.6853 69.9826 43.5381 69.7 43.306C69.1421 42.9182 68.6995 42.3868 68.419 41.768C68.1664 40.9962 67.6908 40.3165 67.0522 39.8148C66.4136 39.3131 65.6407 39.0118 64.831 38.949C63.8193 38.9736 62.8558 39.3865 62.1402 40.1021C61.4245 40.8177 61.0117 41.7812 60.987 42.793V43.306C61.0128 43.6828 60.9575 44.0608 60.8249 44.4145C60.6923 44.7681 60.4856 45.0893 60.2185 45.3564C59.9514 45.6235 59.6302 45.8303 59.2765 45.9628C58.9229 46.0954 58.5449 46.1507 58.168 46.125H57.912H57.913Z" fill="#193651"></path>
              <path d="M104.038 78.925L111.982 89.431L121.976 75.337L104.038 40.487L86.356 75.338L96.35 89.431L104.038 78.925Z" fill="#FDBF5E"></path>
              <path d="M111.981 91.994C111.58 92.0142 111.181 91.9305 110.821 91.7509C110.462 91.5713 110.155 91.302 109.931 90.969L104.293 83.281L98.655 90.969C98.4305 91.302 98.1239 91.5713 97.7647 91.7509C97.4055 91.9305 97.0061 92.0142 96.605 91.994C95.8176 91.9206 95.0862 91.5549 94.555 90.969L84.306 76.875C84.0778 76.4928 83.9366 76.065 83.8923 75.622C83.8481 75.1791 83.9019 74.7318 84.05 74.312L101.731 39.462C102.5 37.668 105.319 37.668 106.344 39.462L124.282 74.312C124.493 74.718 124.581 75.1765 124.535 75.6316C124.49 76.0867 124.313 76.5187 124.026 76.875L114.032 90.969C113.501 91.555 112.769 91.9207 111.982 91.994H111.981ZM89.431 75.081L96.35 85.075L101.988 77.387C102.238 77.0863 102.552 76.8443 102.906 76.6782C103.26 76.5121 103.647 76.426 104.038 76.426C104.429 76.426 104.816 76.5121 105.17 76.6782C105.524 76.8443 105.838 77.0863 106.088 77.387L111.726 85.075L118.645 75.081L104.037 46.125L89.431 75.081Z" fill="#193651"></path>
              <path d="M159.131 159.131L121.975 75.338L111.981 89.432L104.037 78.926L96.3499 89.431L86.356 75.338L49.2 159.131H159.131Z" fill="white"></path>
              <path d="M159.131 161.694H48.944C48.5166 161.694 48.0979 161.574 47.7355 161.347C47.3731 161.121 47.0815 160.797 46.894 160.413C46.6594 160.033 46.5145 159.605 46.4701 159.161C46.4258 158.717 46.4832 158.269 46.638 157.85L84.05 74.313C84.2252 73.8983 84.5072 73.5374 84.8673 73.2672C85.2275 72.997 85.6528 72.8272 86.1 72.775C86.5407 72.7259 86.9865 72.795 87.3918 72.9752C87.797 73.1553 88.147 73.4399 88.406 73.8L96.35 85.075L101.988 77.387C102.238 77.0862 102.552 76.8442 102.906 76.6781C103.26 76.512 103.647 76.426 104.038 76.426C104.429 76.426 104.816 76.512 105.17 76.6781C105.524 76.8442 105.838 77.0862 106.088 77.387L111.726 85.075L119.669 73.8C119.928 73.4399 120.278 73.1553 120.683 72.9752C121.088 72.795 121.534 72.7259 121.975 72.775C122.433 72.7897 122.876 72.9452 123.243 73.2204C123.609 73.4956 123.883 73.8771 124.025 74.313L161.438 158.107C161.586 158.527 161.64 158.974 161.596 159.417C161.551 159.86 161.41 160.288 161.182 160.67C160.925 161.438 160.157 161.694 159.131 161.694ZM53.044 156.569H155.288L121.463 80.463L114.032 90.713C113.793 91.0313 113.484 91.2897 113.128 91.4677C112.772 91.6456 112.38 91.7383 111.982 91.7383C111.584 91.7383 111.192 91.6456 110.836 91.4677C110.48 91.2897 110.171 91.0313 109.932 90.713L104.294 83.025L98.656 90.713C98.4315 91.0459 98.1248 91.3152 97.7656 91.4948C97.4065 91.6744 97.007 91.7582 96.606 91.738C95.8185 91.6645 95.0872 91.2988 94.556 90.713L87.125 80.463L53.044 156.569Z" fill="#193651"></path>
              <path d="M64.319 149.138L88.406 95.325L96.094 106.344L104.038 95.582L112.238 106.344L119.926 95.325L143.757 149.138H64.319Z" fill="#E1E6E9"></path>
              <path d="M46.894 107.113L33.825 94.044L4.86902 159.131H89.175L60.219 94.044L46.894 107.113Z" fill="white"></path>
              <path d="M89.175 161.694H4.86901C4.44166 161.694 4.02296 161.574 3.66055 161.347C3.29814 161.121 3.00657 160.797 2.81901 160.413C2.58447 160.033 2.43952 159.605 2.39516 159.161C2.35081 158.717 2.40821 158.269 2.56301 157.85L31.519 92.763C31.6825 92.3878 31.9288 92.0545 32.2395 91.7882C32.5502 91.5218 32.9173 91.3293 33.313 91.225C33.7293 91.0932 34.1767 91.0965 34.591 91.2347C35.0053 91.3728 35.3651 91.6387 35.619 91.994L46.894 103.269L58.169 91.994C58.8243 91.4763 59.6401 91.2043 60.475 91.225C60.8708 91.3292 61.2378 91.5217 61.5485 91.7881C61.8593 92.0545 62.1056 92.3878 62.269 92.763L90.969 157.594C91.2534 158.062 91.4287 158.587 91.482 159.132C91.5544 159.461 91.5472 159.803 91.4611 160.129C91.375 160.455 91.2124 160.755 90.9869 161.006C90.7613 161.256 90.4793 161.449 90.1642 161.569C89.8491 161.689 89.51 161.732 89.175 161.694V161.694ZM8.71301 156.569H85.075L59.194 98.4L48.688 108.906C48.4566 109.149 48.1783 109.342 47.8699 109.475C47.5616 109.607 47.2295 109.675 46.894 109.675C46.5585 109.675 46.2264 109.607 45.9181 109.475C45.6097 109.342 45.3314 109.149 45.1 108.906L34.594 98.4L8.71301 156.569Z" fill="#193651"></path>
              <path d="M20.244 149.138L37.157 111.213L46.895 121.207L56.889 111.213L73.8 149.138H20.244Z" fill="#E1E6E9"></path>
              <path d="M60.219 94.044L46.894 64.575L33.825 94.044L46.894 107.113L60.219 94.044Z" fill="#FDBF5E"></path>
              <path d="M46.894 109.675C46.5571 109.684 46.2222 109.621 45.9124 109.488C45.6027 109.355 45.3255 109.156 45.1 108.906L32.031 95.838C31.645 95.4915 31.3852 95.0265 31.2923 94.5162C31.1994 94.0059 31.2788 93.4792 31.518 93.019L44.588 63.55C44.7736 63.0918 45.0928 62.7001 45.5041 62.4258C45.9154 62.1515 46.3997 62.0073 46.894 62.012C47.3952 61.9725 47.8951 62.1027 48.3133 62.3817C48.7315 62.6606 49.0438 63.0721 49.2 63.55L62.269 93.019C62.5083 93.4792 62.5878 94.0059 62.4949 94.5163C62.4021 95.0266 62.1421 95.4916 61.756 95.838L48.688 108.906C48.4625 109.156 48.1853 109.355 47.8756 109.488C47.5658 109.621 47.2309 109.684 46.894 109.675V109.675ZM36.9 93.532L46.894 103.526L56.888 93.532L46.894 70.982L36.9 93.532Z" fill="#193651"></path>
              <path d="M104.038 43.05C103.696 43.0707 103.354 43.0186 103.033 42.8971C102.713 42.7757 102.422 42.5876 102.18 42.3453C101.937 42.1031 101.749 41.8122 101.628 41.4918C101.506 41.1715 101.454 40.829 101.475 40.487V4.86899C101.468 4.52822 101.53 4.18953 101.655 3.87274C101.781 3.55595 101.969 3.26742 102.207 3.02404C102.446 2.78067 102.731 2.58733 103.045 2.45534C103.359 2.32335 103.697 2.25537 104.038 2.25537C104.378 2.25537 104.716 2.32335 105.03 2.45534C105.344 2.58733 105.629 2.78067 105.868 3.02404C106.106 3.26742 106.294 3.55595 106.42 3.87274C106.545 4.18953 106.607 4.52822 106.6 4.86899V40.487C106.621 40.8289 106.569 41.1713 106.447 41.4916C106.326 41.8118 106.138 42.1027 105.896 42.3449C105.654 42.5872 105.363 42.7753 105.043 42.8968C104.722 43.0184 104.38 43.0706 104.038 43.05Z" fill="#193651"></path>
              <path d="M104.038 4.86902V33.825L142.732 19.219L104.038 4.86902Z" fill="#2EA2DB"></path>
              <path d="M104.038 36.388C103.493 36.3347 102.968 36.1594 102.5 35.875C102.167 35.6505 101.898 35.3439 101.718 34.9847C101.539 34.6255 101.455 34.2261 101.475 33.825V4.86901C101.548 4.08159 101.914 3.35023 102.5 2.81901C102.835 2.59236 103.22 2.45061 103.621 2.40601C104.023 2.36141 104.43 2.41529 104.806 2.56301L143.5 16.913C143.978 17.0692 144.389 17.3815 144.668 17.7997C144.947 18.2179 145.077 18.7178 145.038 19.219C145.025 19.7093 144.874 20.186 144.602 20.5941C144.33 21.0021 143.948 21.3248 143.5 21.525L105.062 36.131C104.806 36.131 104.55 36.388 104.038 36.388ZM106.6 8.45601V29.981L135.3 19.218L106.6 8.45601Z" fill="#193651"></path>
              <path d="M44.844 14.863C44.0665 14.8212 43.2874 14.9076 42.538 15.119C41.7439 13.7889 40.6178 12.688 39.27 11.9243C37.9222 11.1607 36.3991 10.7605 34.85 10.763C33.808 10.8086 32.7754 10.9809 31.775 11.276C31.3063 9.38361 30.2206 7.7013 28.6893 6.49472C27.1581 5.28813 25.2685 4.62603 23.319 4.61297C22.1391 4.60553 20.9694 4.83245 19.8779 5.28055C18.7864 5.72865 17.7947 6.38902 16.9604 7.22335C16.126 8.05768 15.4657 9.04938 15.0176 10.1409C14.5695 11.2324 14.3425 12.4021 14.35 13.582V14.863H13.581C12.4011 14.8555 11.2314 15.0824 10.1399 15.5305C9.04839 15.9786 8.0567 16.639 7.22236 17.4734C6.38803 18.3077 5.72766 19.2994 5.27956 20.3909C4.83146 21.4824 4.60454 22.6521 4.61198 23.832C4.58305 25.0177 4.79527 26.1969 5.23578 27.298C5.67628 28.3992 6.33589 29.3995 7.17459 30.2381C8.01328 31.0767 9.01359 31.7362 10.1148 32.1766C11.2161 32.6169 12.3953 32.829 13.581 32.8H44.588C45.7679 32.8074 46.9375 32.5805 48.029 32.1324C49.1206 31.6843 50.1123 31.0239 50.9466 30.1896C51.7809 29.3553 52.4413 28.3636 52.8894 27.272C53.3375 26.1805 53.5644 25.0109 53.557 23.831C53.5929 22.665 53.394 21.5038 52.9721 20.4162C52.5502 19.3287 51.9139 18.3371 51.101 17.5005C50.2882 16.6638 49.3153 15.9992 48.2404 15.5461C47.1655 15.093 46.0105 14.8607 44.844 14.863V14.863Z" fill="white"></path>
              <path d="M44.844 35.106H13.581C12.0649 35.1124 10.5626 34.8185 9.16073 34.2412C7.75886 33.664 6.48517 32.8149 5.41315 31.7428C4.34113 30.6708 3.49201 29.3971 2.91477 27.9953C2.33753 26.5934 2.04361 25.0911 2.04996 23.575C2.03566 20.836 3.01431 18.1845 4.8047 16.1115C6.59509 14.0385 9.07596 12.6845 11.788 12.3C12.0704 9.50116 13.3782 6.90569 15.4596 5.01332C17.541 3.12094 20.2489 2.06545 23.062 2.05003C25.1431 2.00381 27.1934 2.55959 28.9663 3.65058C30.7392 4.74157 32.1593 6.32134 33.056 8.20003C34.972 7.95789 36.9181 8.20717 38.7112 8.92442C40.5043 9.64166 42.0855 10.8033 43.306 12.3C44.8874 12.136 46.4856 12.3051 47.9977 12.7965C49.5097 13.2878 50.9021 14.0904 52.0851 15.1526C53.2681 16.2148 54.2154 17.513 54.8661 18.9637C55.5168 20.4143 55.8564 21.9852 55.863 23.575C55.9265 25.0632 55.6888 26.5488 55.1641 27.9429C54.6394 29.3369 53.8385 30.6106 52.8094 31.6874C51.7804 32.7643 50.5444 33.6222 49.1756 34.2097C47.8068 34.7971 46.3335 35.102 44.844 35.106V35.106ZM13.581 17.425C11.8818 17.425 10.2523 18.1 9.05088 19.3014C7.84943 20.5029 7.17446 22.1324 7.17446 23.8315C7.17446 25.5306 7.84943 27.1602 9.05088 28.3616C10.2523 29.5631 11.8818 30.238 13.581 30.238H44.588C45.4933 30.2424 46.3891 30.0538 47.2159 29.685C48.0427 29.3162 48.7814 28.7756 49.383 28.0991C49.9846 27.4225 50.4353 26.6257 50.705 25.7614C50.9746 24.8972 51.0572 23.9855 50.9471 23.0869C50.8371 22.1883 50.5369 21.3234 50.0666 20.5499C49.5963 19.7763 48.9666 19.1117 48.2195 18.6004C47.4724 18.0891 46.625 17.7427 45.7337 17.5844C44.8423 17.426 43.9275 17.4593 43.05 17.682C42.5048 17.8026 41.9351 17.7428 41.4269 17.5116C40.9186 17.2804 40.4993 16.8903 40.232 16.4C39.5135 15.14 38.3787 14.1695 37.0225 13.6552C35.6662 13.141 34.1732 13.1151 32.8 13.582C32.469 13.7375 32.1008 13.796 31.7379 13.7507C31.3751 13.7054 31.0325 13.5581 30.75 13.326C30.192 12.9383 29.7494 12.4069 29.469 11.788C29.0373 10.3075 28.0861 9.0323 26.7899 8.1967C25.4937 7.3611 23.9396 7.02116 22.4129 7.23929C20.8862 7.45742 19.4894 8.21899 18.4791 9.38415C17.4688 10.5493 16.9127 12.0398 16.913 13.582V14.607C16.9333 15.3644 16.6574 16.0999 16.144 16.657C15.9355 16.9278 15.6612 17.1406 15.3471 17.2752C15.0331 17.4099 14.6898 17.4618 14.35 17.426L13.581 17.425Z" fill="#193651"></path>
              <path d="M36.131 136.582H31.006V141.451H36.131V136.582Z" fill="#193651"></path>
              <path d="M49.4559 136.582H44.3309V141.451H49.4559V136.582Z" fill="#193651"></path>
              <path d="M63.038 136.582H57.913V141.451H63.038V136.582Z" fill="#193651"></path>
              <path d="M93.2749 136.582H88.1499V141.451H93.2749V136.582Z" fill="#193651"></path>
              <path d="M106.6 136.582H101.475V141.451H106.6V136.582Z" fill="#193651"></path>
              <path d="M120.181 136.582H115.056V141.451H120.181V136.582Z" fill="#193651"></path>
            </svg>