<svg width="164" height="164" viewBox="0 0 164 164" fill="none" xmlns="http://www.w3.org/2000/svg">
              <path d="M95.34 95.633C67.051 95.633 41.25 83.602 21.413 63.765C40.3062 49.1876 63.467 41.2239 87.33 41.1C113.415 41.2811 138.579 50.7689 158.291 67.855C139.001 44.647 111.904 30.194 81.877 30.194C50.452 30.194 22.231 46.009 2.80396 71.094C22.231 96.179 50.452 111.994 81.877 111.994C112.995 111.994 140.943 96.486 160.371 71.81C142.108 87.0444 119.122 95.4652 95.34 95.634V95.633Z" fill="#2EA2DB"></path>
              <path d="M122.777 71.093C122.788 64.1185 121.016 57.257 117.628 51.1606C114.24 45.0642 109.35 39.9353 103.422 36.2614C97.4932 32.5876 90.7238 30.4907 83.7567 30.1702C76.7896 29.8497 69.8562 31.3162 63.6156 34.4302C57.3749 37.5442 52.0342 42.2024 48.1011 47.9621C44.1679 53.7217 41.773 60.3915 41.1438 67.3375C40.5147 74.2835 41.6722 81.2751 44.5064 87.6477C47.3407 94.0203 51.7574 99.5623 57.337 103.747V111.995H106.417V103.747C111.494 99.9498 115.616 95.0216 118.456 89.3533C121.296 83.685 122.775 77.4328 122.777 71.093V71.093Z" fill="#F9E109"></path>
              <path d="M54.611 111.993H109.144C110.589 111.997 111.973 112.573 112.995 113.595C114.017 114.617 114.593 116.001 114.597 117.446C114.593 118.891 114.017 120.275 112.995 121.297C111.973 122.319 110.589 122.895 109.144 122.899H54.611C53.166 122.895 51.7815 122.319 50.7598 121.297C49.738 120.275 49.1622 118.891 49.158 117.446V117.446C49.1622 116.001 49.738 114.617 50.7598 113.595C51.7815 112.573 53.166 111.997 54.611 111.993Z" fill="#D0D8DA"></path>
              <path d="M54.611 122.9H109.144C110.589 122.904 111.973 123.48 112.995 124.502C114.017 125.523 114.593 126.908 114.597 128.353C114.593 129.798 114.017 131.182 112.995 132.204C111.973 133.226 110.589 133.802 109.144 133.806H54.611C53.166 133.802 51.7815 133.226 50.7598 132.204C49.738 131.182 49.1622 129.798 49.158 128.353C49.1622 126.908 49.738 125.523 50.7598 124.502C51.7815 123.48 53.166 122.904 54.611 122.9V122.9Z" fill="#D0D8DA"></path>
              <path d="M57.3369 133.807H106.417V136.534C106.417 143.042 103.831 149.284 99.2293 153.886C94.6272 158.489 88.3853 161.074 81.8769 161.074C75.3685 161.074 69.1267 158.489 64.5245 153.886C59.9224 149.284 57.3369 143.042 57.3369 136.534V133.807V133.807Z" fill="#93999A"></path>
              <path d="M111.87 98.36C104.708 98.3619 97.6159 96.9527 90.9987 94.2129C84.3816 91.4731 78.3691 87.4563 73.3049 82.392C68.2406 77.3278 64.2238 71.3153 61.484 64.6982C58.7441 58.081 57.335 50.9889 57.3369 43.827C57.3369 41.952 57.4369 40.078 57.6099 38.203C52.4735 41.9747 48.2923 46.8976 45.4018 52.5769C42.5113 58.2561 40.9919 64.5337 40.9653 70.9062C40.9388 77.2787 42.4059 83.5687 45.249 89.2719C48.0921 94.975 52.2321 99.9326 57.3369 103.747V111.995H106.417V103.747C108.528 102.13 110.479 100.316 112.245 98.328C112.109 98.326 112.007 98.36 111.87 98.36Z" fill="#FDBF5E"></path>
              <path d="M81.878 90.181C92.4195 90.181 100.965 81.6354 100.965 71.094C100.965 60.5525 92.4195 52.007 81.878 52.007C71.3366 52.007 62.791 60.5525 62.791 71.094C62.791 81.6354 71.3366 90.181 81.878 90.181Z" fill="#57B7EB"></path>
              <path d="M92.784 68.367C97.3017 68.367 100.964 64.7047 100.964 60.187C100.964 55.6693 97.3017 52.007 92.784 52.007C88.2663 52.007 84.604 55.6693 84.604 60.187C84.604 64.7047 88.2663 68.367 92.784 68.367Z" fill="#AAE1F9"></path>
              <path d="M63.063 68.026C62.2306 72.9875 63.3991 78.0766 66.3123 82.1782C69.2256 86.2797 73.6461 89.059 78.605 89.907C79.6869 90.0825 80.7809 90.1737 81.877 90.18C82.286 90.18 82.729 90.146 83.138 90.112C74.5235 84.759 67.5717 77.1108 63.063 68.026V68.026Z" fill="#4891D3"></path>
              <path d="M57.337 111.993H54.611C53.1646 111.993 51.7775 112.568 50.7548 113.59C49.732 114.613 49.1575 116 49.1575 117.446C49.1575 118.893 49.732 120.28 50.7548 121.303C51.7775 122.325 53.1646 122.9 54.611 122.9H109.144C110.589 122.896 111.973 122.32 112.995 121.298C114.017 120.276 114.593 118.892 114.597 117.447H62.791C61.3457 117.443 59.9607 116.867 58.9388 115.845C57.9168 114.823 57.3409 113.438 57.337 111.993V111.993Z" fill="#93999A"></path>
              <path d="M57.337 122.9H54.611C53.1646 122.9 51.7775 123.475 50.7548 124.497C49.732 125.52 49.1575 126.907 49.1575 128.353C49.1575 129.8 49.732 131.187 50.7548 132.21C51.7775 133.232 53.1646 133.807 54.611 133.807H109.144C110.589 133.803 111.973 133.227 112.995 132.205C114.017 131.183 114.593 129.799 114.597 128.354H62.791C61.3457 128.35 59.9607 127.774 58.9388 126.752C57.9168 125.73 57.3409 124.345 57.337 122.9V122.9Z" fill="#93999A"></path>
              <path d="M90.0569 144.713H104.985C105.936 142.091 106.421 139.322 106.417 136.533V133.807H57.3369V136.534C57.3346 141.619 58.9149 146.58 61.8586 150.726C64.8022 154.873 68.9634 158.001 73.7649 159.677C74.114 155.596 75.9814 151.794 78.998 149.024C82.0146 146.253 85.9609 144.715 90.0569 144.713Z" fill="#656B76"></path>
              <path d="M97.862 17.787C98.1176 17.8559 98.3813 17.8895 98.646 17.887C99.2327 17.8825 99.8029 17.692 100.274 17.3428C100.746 16.9936 101.095 16.5039 101.27 15.944L104.44 5.37797C104.543 5.03332 104.577 4.67176 104.54 4.31394C104.503 3.95612 104.397 3.60905 104.226 3.29254C104.055 2.97603 103.823 2.69629 103.544 2.46927C103.265 2.24226 102.944 2.07243 102.6 1.96947C102.255 1.86652 101.893 1.83245 101.535 1.86923C101.178 1.906 100.831 2.01289 100.514 2.1838C100.198 2.3547 99.9178 2.58628 99.6908 2.8653C99.4638 3.14432 99.294 3.46532 99.191 3.80997L96.024 14.379C95.8206 15.0749 95.8997 15.8229 96.2441 16.4609C96.5885 17.0988 97.1706 17.5753 97.864 17.787H97.862Z" fill="#193651"></path>
              <path d="M115.824 22.147C116.137 22.319 116.481 22.4273 116.836 22.4655C117.191 22.5038 117.55 22.4712 117.892 22.3698C118.234 22.2683 118.553 22.0999 118.83 21.8744C119.107 21.6489 119.336 21.3707 119.505 21.056L124.824 11.347C125.169 10.709 125.247 9.96069 125.043 9.26493C124.839 8.56918 124.368 7.98228 123.733 7.63198C123.418 7.45729 123.071 7.3469 122.713 7.30724C122.355 7.26757 121.993 7.29941 121.647 7.40091C121.302 7.50241 120.98 7.67154 120.7 7.89849C120.42 8.12544 120.188 8.4057 120.018 8.72298L114.735 18.437C114.395 19.0749 114.318 19.8207 114.522 20.5143C114.726 21.2079 115.193 21.7941 115.824 22.147V22.147Z" fill="#193651"></path>
              <path d="M136.24 31.047C136.636 31.0517 137.027 30.9686 137.387 30.8036C137.746 30.6386 138.065 30.3959 138.319 30.093L145.476 21.572C145.711 21.3012 145.89 20.9868 146.004 20.6467C146.117 20.3066 146.163 19.9474 146.137 19.5898C146.112 19.2321 146.017 18.883 145.856 18.5622C145.696 18.2415 145.474 17.9555 145.203 17.7205C144.933 17.4855 144.618 17.3061 144.278 17.1926C143.938 17.0791 143.579 17.0338 143.221 17.0591C142.864 17.0844 142.515 17.1799 142.194 17.3401C141.873 17.5003 141.587 17.7222 141.352 17.993C141.352 18.027 141.318 18.027 141.318 18.061L134.161 26.582C133.699 27.1394 133.476 27.8565 133.54 28.5776C133.604 29.2986 133.949 29.9654 134.502 30.433C134.992 30.8346 135.607 31.0518 136.24 31.047V31.047Z" fill="#193651"></path>
              <path d="M152.873 44.611C153.511 44.6094 154.128 44.3795 154.611 43.963L163.064 36.874C163.6 36.4068 163.931 35.7488 163.989 35.0403C164.046 34.3319 163.824 33.6292 163.37 33.0821C162.916 32.5351 162.267 32.187 161.56 32.1123C160.853 32.0375 160.145 32.242 159.587 32.682L151.134 39.771C150.581 40.2381 150.234 40.905 150.17 41.6263C150.107 42.3476 150.33 43.0649 150.793 43.622C151.05 43.924 151.368 44.1681 151.727 44.3384C152.085 44.5086 152.475 44.6012 152.872 44.61L152.873 44.611Z" fill="#193651"></path>
              <path d="M25.4009 30.091C25.8634 30.6491 26.5278 31.0017 27.2492 31.0719C27.9706 31.1422 28.6905 30.9244 29.2519 30.466C29.5314 30.2391 29.7631 29.9589 29.9333 29.6417C30.1036 29.3245 30.2091 28.9767 30.2437 28.6183C30.2784 28.26 30.2414 27.8983 30.135 27.5544C30.0286 27.2105 29.8549 26.8912 29.6239 26.615C29.6239 26.581 29.5899 26.581 29.5899 26.547L22.4329 18.026C21.9567 17.4819 21.2848 17.148 20.5636 17.0969C19.8424 17.0457 19.1301 17.2815 18.5819 17.753C18.0417 18.2153 17.7062 18.8725 17.6487 19.5812C17.5912 20.2899 17.8163 20.9926 18.2749 21.536L25.4009 30.091Z" fill="#193651"></path>
              <path d="M44.215 21.059C44.5636 21.6822 45.1437 22.1429 45.8296 22.3414C46.5155 22.54 47.252 22.4603 47.8796 22.1197C48.5071 21.7791 48.9753 21.2049 49.1825 20.5216C49.3898 19.8383 49.3196 19.1009 48.987 18.469L43.704 8.75498C43.534 8.43532 43.3022 8.15255 43.0222 7.92305C42.7421 7.69356 42.4194 7.52188 42.0725 7.41797C41.7257 7.31405 41.3617 7.27996 41.0016 7.31767C40.6415 7.35537 40.2924 7.46413 39.9746 7.63764C39.6568 7.81115 39.3766 8.04596 39.1502 8.32849C38.9238 8.61102 38.7556 8.93566 38.6555 9.28361C38.5554 9.63156 38.5252 9.99592 38.5669 10.3556C38.6085 10.7153 38.721 11.0631 38.898 11.379V11.379L44.215 21.059Z" fill="#193651"></path>
              <path d="M9.21196 44.031C9.77293 44.4866 10.4914 44.7018 11.2105 44.6296C11.9296 44.5573 12.5909 44.2035 13.05 43.6453C13.5091 43.0872 13.7287 42.37 13.6609 41.6505C13.5931 40.931 13.2433 40.2675 12.688 39.805C12.654 39.771 12.588 39.737 12.552 39.705L4.47396 33.466C3.91298 33.0103 3.1945 32.7951 2.47541 32.8674C1.75631 32.9396 1.09501 33.2935 0.635908 33.8516C0.176804 34.4098 -0.042808 35.1269 0.0250252 35.8465C0.0928585 36.566 0.442626 37.2294 0.997955 37.692C1.03196 37.726 1.09796 37.76 1.13396 37.792L9.21196 44.031Z" fill="#193651"></path>
              <path d="M62.484 15.981C62.6507 16.5461 62.997 17.0414 63.4705 17.392C63.944 17.7426 64.5189 17.9294 65.108 17.924C65.3727 17.9265 65.6364 17.8929 65.892 17.824C66.5832 17.609 67.1627 17.1319 67.5066 16.495C67.8505 15.8581 67.9314 15.1118 67.732 14.416L64.563 3.84698C64.348 3.15581 63.8709 2.57627 63.234 2.23238C62.5971 1.8885 61.8508 1.80759 61.155 2.00698C60.8096 2.10871 60.4878 2.27779 60.2081 2.50448C59.9284 2.73117 59.6963 3.01099 59.5253 3.3278C59.3542 3.64461 59.2476 3.99215 59.2115 4.35037C59.1754 4.7086 59.2106 5.07042 59.315 5.41498L62.484 15.981Z" fill="#193651"></path>
              <path d="M81.877 16.56C82.5996 16.5579 83.292 16.2699 83.8029 15.7589C84.3139 15.248 84.6019 14.5556 84.604 13.833V2.92698C84.5903 2.21291 84.2971 1.5327 83.7872 1.03254C83.2774 0.532384 82.5917 0.252197 81.8775 0.252197C81.1633 0.252197 80.4776 0.532384 79.9678 1.03254C79.4579 1.5327 79.1647 2.21291 79.151 2.92698V13.834C79.1534 14.5562 79.4413 15.2482 79.952 15.7589C80.4628 16.2696 81.1547 16.5576 81.877 16.56V16.56Z" fill="#193651"></path>
              <path d="M44.824 101.257C29.7705 94.3933 16.5606 84.0554 6.27998 71.093C11.5208 64.5513 17.49 58.6281 24.072 53.438C24.6414 52.9951 25.0115 52.3441 25.101 51.6283C25.1905 50.9124 24.9919 50.1904 24.549 49.621C24.1061 49.0516 23.4551 48.6814 22.7393 48.592C22.0234 48.5025 21.3014 48.7011 20.732 49.144C13.2375 55.0475 6.5056 61.8593 0.690976 69.423C0.326163 69.9033 0.128662 70.4898 0.128662 71.093C0.128662 71.6961 0.326163 72.2827 0.690976 72.763C11.6863 87.197 26.0746 98.6937 42.579 106.233C42.908 106.379 43.2627 106.459 43.6226 106.468C43.9826 106.476 44.3407 106.414 44.6765 106.284C45.0122 106.154 45.3189 105.959 45.579 105.71C45.8391 105.461 46.0474 105.163 46.192 104.833C46.338 104.508 46.4183 104.158 46.4286 103.803C46.4388 103.447 46.3786 103.093 46.2514 102.761C46.1243 102.428 45.9327 102.124 45.6878 101.866C45.4428 101.608 45.1492 101.401 44.824 101.257Z" fill="#193651"></path>
              <path d="M163.098 72.764C163.463 72.2837 163.66 71.6971 163.66 71.094C163.66 70.4908 163.463 69.9043 163.098 69.424C142.478 42.771 112.859 27.468 81.878 27.468C63.181 27.5509 44.8976 32.9786 29.184 43.111C28.5783 43.4997 28.1519 44.113 27.9985 44.8161C27.9226 45.1642 27.9159 45.5239 27.979 45.8746C28.042 46.2253 28.1735 46.5601 28.366 46.86C28.5584 47.1599 28.8081 47.4189 29.1006 47.6223C29.3932 47.8257 29.7229 47.9695 30.0711 48.0454C30.7741 48.1988 31.5093 48.0667 32.115 47.678C39.0262 43.2593 46.4854 39.763 54.303 37.278C49.8672 40.881 46.1846 45.3225 43.4654 50.3488C40.7463 55.3751 39.0437 60.8878 38.4551 66.5721C37.8665 72.2564 38.4032 78.0009 40.0348 83.4778C41.6663 88.9546 44.3607 94.0565 47.964 98.492C49.933 100.899 52.1491 103.092 54.576 105.036V109.262C52.4065 109.262 50.3259 110.124 48.7918 111.658C47.2578 113.192 46.396 115.273 46.396 117.442C46.396 119.611 47.2578 121.692 48.7918 123.226C50.3259 124.76 52.4065 125.622 54.576 125.622H109.109C109.471 125.615 109.832 125.68 110.168 125.814C110.505 125.948 110.812 126.148 111.071 126.402C111.33 126.656 111.535 126.959 111.676 127.293C111.816 127.627 111.888 127.986 111.888 128.348C111.888 128.711 111.816 129.07 111.676 129.404C111.535 129.738 111.33 130.041 111.071 130.295C110.812 130.549 110.505 130.749 110.168 130.883C109.832 131.017 109.471 131.082 109.109 131.075H54.609C54.2465 131.068 53.8863 131.133 53.5495 131.267C53.2126 131.401 52.9058 131.601 52.647 131.855C52.3882 132.109 52.1827 132.412 52.0424 132.746C51.902 133.08 51.8297 133.439 51.8297 133.801C51.8297 134.164 51.902 134.523 52.0424 134.857C52.1827 135.191 52.3882 135.494 52.647 135.748C52.9058 136.002 53.2126 136.202 53.5495 136.336C53.8863 136.47 54.2465 136.535 54.609 136.528C54.6526 143.731 57.5445 150.624 62.6533 155.702C67.762 160.78 74.6724 163.63 81.8755 163.63C89.0785 163.63 95.989 160.78 101.098 155.702C106.206 150.624 109.098 143.731 109.142 136.528C110.723 136.533 112.271 136.078 113.598 135.218C114.925 134.359 115.974 133.133 116.617 131.688C117.26 130.244 117.469 128.644 117.219 127.082C116.969 125.521 116.271 124.066 115.209 122.895C115.931 122.103 116.489 121.177 116.853 120.169C117.216 119.162 117.377 118.092 117.326 117.022C117.276 115.952 117.015 114.902 116.558 113.933C116.101 112.964 115.457 112.095 114.664 111.375C113.158 109.996 111.185 109.24 109.143 109.262V105.104C114.263 101.039 118.394 95.8659 121.228 89.9746C124.061 84.0832 125.523 77.6263 125.503 71.089C125.505 67.9608 125.162 64.8419 124.48 61.789C124.329 61.081 123.904 60.4617 123.297 60.0668C122.69 59.672 121.952 59.5339 121.243 59.6829C120.535 59.8318 119.915 60.2556 119.518 60.8613C119.122 61.467 118.982 62.2052 119.129 62.914V62.982C119.712 65.6583 120.009 68.389 120.015 71.128C120.033 77.0476 118.661 82.8887 116.009 88.1811C113.356 93.4734 109.499 98.069 104.746 101.598C104.408 101.853 104.134 102.182 103.945 102.561C103.756 102.939 103.656 103.356 103.655 103.779V109.266H92.75V89.976C97.219 87.4073 100.629 83.3333 102.371 78.4819C104.113 73.6305 104.073 68.3178 102.259 63.493C102.084 63.0121 101.776 62.5906 101.371 62.2771C100.966 61.9636 100.482 61.7707 99.9721 61.7209C99.4626 61.671 98.9494 61.7662 98.4917 61.9953C98.034 62.2244 97.6503 62.5783 97.385 63.016C96.9058 63.8173 96.2266 64.4804 95.4142 64.9404C94.6017 65.4003 93.6836 65.6414 92.75 65.64C91.305 65.6358 89.9205 65.0599 88.8988 64.0382C87.8771 63.0165 87.3012 61.6319 87.297 60.187C87.295 59.2522 87.5361 58.3329 87.9967 57.5195C88.4572 56.706 89.1214 56.0263 89.924 55.547C90.2313 55.3619 90.499 55.118 90.7117 54.8291C90.9245 54.5402 91.078 54.2122 91.1635 53.8638C91.249 53.5154 91.2648 53.1535 91.2099 52.799C91.1551 52.4445 91.0307 52.1043 90.844 51.798C90.5256 51.2834 90.0466 50.888 89.481 50.673C86.8061 49.6676 83.9594 49.1991 81.1035 49.2942C78.2475 49.3893 75.4383 50.0461 72.8362 51.2271C70.2342 52.4082 67.8903 54.0903 65.9385 56.1774C63.9867 58.2645 62.4652 60.7157 61.461 63.391C59.6406 68.2306 59.5972 73.5593 61.3387 78.4278C63.0801 83.2964 66.4931 87.3888 70.97 89.976V109.267H60.064V103.747C60.0625 103.324 59.9633 102.907 59.7741 102.529C59.5848 102.15 59.3106 101.821 58.973 101.566C54.4026 98.1262 50.6644 93.7026 48.0351 88.6225C45.4058 83.5424 43.9528 77.9361 43.7835 72.2184C43.6143 66.5007 44.7332 60.8182 47.0575 55.5915C49.3817 50.3649 52.8517 45.7279 57.2107 42.0238C61.5696 38.3198 66.7058 35.6436 72.2391 34.1933C77.7723 32.743 83.5609 32.5558 89.1763 33.6455C94.7917 34.7352 100.09 37.074 104.679 40.4887C109.268 43.9033 113.031 48.3064 115.688 53.372C116.035 53.9907 116.61 54.4498 117.29 54.6521C117.97 54.8543 118.702 54.7838 119.331 54.4554C119.96 54.1271 120.436 53.5667 120.659 52.893C120.882 52.2194 120.833 51.4855 120.524 50.847V50.847C117.793 45.6569 114.049 41.0666 109.515 37.347C128.461 43.6753 145.135 55.4201 157.474 71.128C147.191 84.0908 133.98 94.4284 118.924 101.291C118.261 101.587 117.742 102.132 117.48 102.809C117.218 103.486 117.234 104.239 117.524 104.904C117.667 105.235 117.875 105.534 118.135 105.783C118.395 106.033 118.702 106.229 119.038 106.359C119.374 106.489 119.733 106.552 120.093 106.542C120.453 106.533 120.808 106.452 121.137 106.304C137.658 98.7299 152.066 87.2131 163.094 72.766L163.098 72.764ZM81.877 158.347C76.0933 158.342 70.548 156.042 66.4583 151.952C62.3687 147.862 60.069 142.317 60.064 136.533H103.691C103.686 142.317 101.386 147.862 97.2962 151.952C93.2064 156.042 87.6609 158.342 81.877 158.347V158.347ZM111.87 117.447C111.868 118.17 111.58 118.862 111.069 119.373C110.558 119.884 109.866 120.172 109.143 120.174H54.611C53.8969 120.16 53.2167 119.867 52.7165 119.357C52.2164 118.847 51.9362 118.162 51.9362 117.447C51.9362 116.733 52.2164 116.048 52.7165 115.538C53.2167 115.028 53.8969 114.735 54.611 114.721H109.144C109.866 114.723 110.558 115.011 111.069 115.522C111.58 116.033 111.868 116.725 111.87 117.447V117.447ZM74.856 85.847C71.5115 84.2481 68.8093 81.5607 67.192 78.2251C65.5747 74.8895 65.1383 71.1035 65.9541 67.4875C66.77 63.8714 68.7899 60.6396 71.6827 58.3216C74.5756 56.0037 78.17 54.7369 81.877 54.729C82.354 54.729 82.831 54.763 83.308 54.797C82.1303 56.8718 81.6658 59.2757 81.9859 61.6399C82.306 64.0041 83.3929 66.198 85.0799 67.885C86.7669 69.572 88.9608 70.6589 91.325 70.979C93.6892 71.2991 96.0931 70.8347 98.168 69.657C98.202 70.134 98.236 70.611 98.236 71.088C98.223 74.1768 97.3401 77.1996 95.6886 79.8098C94.0371 82.4201 91.6837 84.5124 88.898 85.847C88.4294 86.0634 88.0327 86.4095 87.7548 86.8445C87.4769 87.2794 87.3294 87.7849 87.33 88.301V109.267H76.424V88.306C76.4204 87.7901 76.2714 87.2857 75.994 86.8507C75.7166 86.4158 75.3222 86.0679 74.856 85.847V85.847Z" fill="#193651"></path>
              <path d="M138.353 108.21C137.883 107.659 137.213 107.317 136.491 107.259C135.768 107.202 135.053 107.433 134.502 107.903C133.95 108.374 133.608 109.043 133.551 109.766C133.493 110.488 133.725 111.204 134.195 111.755L141.352 120.276C141.583 120.551 141.865 120.778 142.183 120.944C142.502 121.111 142.85 121.212 143.207 121.244C143.565 121.276 143.925 121.236 144.268 121.129C144.61 121.021 144.928 120.847 145.204 120.616C145.479 120.386 145.706 120.103 145.872 119.785C146.038 119.467 146.14 119.119 146.171 118.761C146.203 118.404 146.164 118.043 146.056 117.701C145.949 117.358 145.775 117.04 145.544 116.765V116.765L138.353 108.21Z" fill="#193651"></path>
              <path d="M154.645 94.338C154.107 93.8544 153.399 93.6042 152.677 93.6426C151.955 93.6809 151.277 94.0046 150.793 94.5425C150.31 95.0803 150.06 95.7883 150.098 96.5106C150.136 97.2329 150.46 97.9104 150.998 98.394C151.032 98.428 151.098 98.462 151.134 98.53L159.587 105.619C160.14 106.069 160.847 106.283 161.557 106.215C162.266 106.147 162.92 105.803 163.377 105.256C163.835 104.709 164.058 104.004 163.999 103.294C163.94 102.584 163.604 101.925 163.063 101.461L154.645 94.338Z" fill="#193651"></path>
              <path d="M25.401 108.21L18.244 116.731C17.7784 117.287 17.5527 118.005 17.6166 118.727C17.6804 119.45 18.0286 120.117 18.5845 120.582C19.1404 121.048 19.8585 121.274 20.5808 121.21C21.3031 121.146 21.9704 120.798 22.436 120.242L29.593 111.721C29.828 111.45 30.0074 111.136 30.1209 110.796C30.2343 110.456 30.2797 110.096 30.2544 109.739C30.2291 109.381 30.1336 109.032 29.9734 108.711C29.8131 108.39 29.5913 108.104 29.3205 107.869C29.0497 107.634 28.7353 107.455 28.3952 107.342C28.0551 107.228 27.696 107.183 27.3383 107.208C26.9807 107.233 26.6315 107.329 26.3108 107.489C25.99 107.649 25.704 107.871 25.469 108.142L25.401 108.21Z" fill="#193651"></path>
              <path d="M9.21197 94.27L1.13397 100.507C0.831386 100.712 0.573085 100.976 0.374364 101.283C0.175643 101.59 0.0405403 101.934 -0.0229456 102.294C-0.0864314 102.655 -0.0770099 103.024 0.00476105 103.38C0.086532 103.737 0.23899 104.073 0.453111 104.37C0.667231 104.666 0.93866 104.917 1.25133 105.106C1.564 105.296 1.91155 105.421 2.27342 105.474C2.63528 105.527 3.0041 105.507 3.35804 105.415C3.71197 105.323 4.04383 105.161 4.33397 104.938C4.36797 104.904 4.43397 104.87 4.46997 104.838L12.548 98.601C12.8506 98.3956 13.1089 98.1315 13.3076 97.8245C13.5063 97.5175 13.6414 97.1737 13.7049 96.8135C13.7684 96.4534 13.759 96.0841 13.6772 95.7277C13.5954 95.3712 13.443 95.0348 13.2288 94.7383C13.0147 94.4418 12.7433 94.1913 12.4306 94.0016C12.1179 93.8118 11.7704 93.6868 11.4085 93.6338C11.0467 93.5808 10.6778 93.601 10.3239 93.6931C9.96998 93.7852 9.63811 93.9473 9.34797 94.17C9.27997 94.168 9.24597 94.202 9.21197 94.27Z" fill="#193651"></path>
            </svg>