<svg width="164" height="164" viewBox="0 0 164 164" fill="none" xmlns="http://www.w3.org/2000/svg">
              <path d="M134.6 37.124H94.1399L106.953 24.344L94.1399 11.563H134.627V37.124H134.6Z" fill="#FF6680"></path>
              <path d="M134.6 59.162C134.305 59.1639 134.013 59.1071 133.74 58.9951C133.467 58.8831 133.219 58.718 133.01 58.5095C132.802 58.3009 132.637 58.053 132.525 57.7802C132.413 57.5073 132.356 57.2149 132.358 56.92V56.92V2.242C132.358 1.64738 132.594 1.07712 133.015 0.656667C133.435 0.23621 134.005 0 134.6 0C135.195 0 135.765 0.23621 136.185 0.656667C136.606 1.07712 136.842 1.64738 136.842 2.242V56.92C136.84 57.5141 136.604 58.0835 136.184 58.5036C135.763 58.9237 135.194 59.1604 134.6 59.162V59.162Z" fill="#4D5680"></path>
              <path d="M7.36695 148.241H156.633C157.991 148.245 159.292 148.786 160.253 149.746C161.213 150.707 161.754 152.008 161.758 153.366V161.758H2.24195V153.366C2.24116 152.693 2.37318 152.026 2.63046 151.404C2.88773 150.782 3.26521 150.216 3.74126 149.74C4.21732 149.264 4.78261 148.887 5.40476 148.63C6.02691 148.372 6.6937 148.24 7.36695 148.241V148.241Z" fill="#4D5680"></path>
              <path d="M14.2539 108.2H44.5239V148.239H14.2539V108.2Z" fill="#80ECC6"></path>
              <path d="M149.746 148.209H119.476V56.92H149.746V148.209Z" fill="#FFD830"></path>
              <path d="M66.849 82.545H97.119V148.209H66.849V82.545Z" fill="#80A3FF"></path>
              <path d="M156.633 146H151.988V56.92C151.99 56.6251 151.933 56.3327 151.821 56.0598C151.709 55.787 151.544 55.5391 151.336 55.3305C151.127 55.122 150.879 54.9569 150.606 54.8449C150.333 54.7329 150.041 54.6761 149.746 54.678H136.838V2.242C136.838 1.64738 136.602 1.07712 136.181 0.656667C135.761 0.23621 135.191 0 134.596 0C134.001 0 133.431 0.23621 133.011 0.656667C132.59 1.07712 132.354 1.64738 132.354 2.242V9.289H94.14C93.8453 9.28741 93.5531 9.34432 93.2805 9.45646C93.0079 9.56859 92.7602 9.7337 92.5519 9.94224C92.3435 10.1508 92.1786 10.3986 92.0667 10.6713C91.9548 10.944 91.8982 11.2362 91.9 11.531C91.8979 11.8294 91.9564 12.1251 92.0721 12.4002C92.1878 12.6752 92.3582 12.9239 92.573 13.131L103.816 24.342L92.57 35.555C92.2577 35.8715 92.0458 36.2732 91.9608 36.7098C91.8759 37.1463 91.9217 37.5981 92.0926 38.0087C92.2635 38.4193 92.5518 38.7702 92.9214 39.0175C93.291 39.2649 93.7253 39.3976 94.17 39.399H132.415V54.709H119.477C119.182 54.7071 118.89 54.7639 118.617 54.8759C118.344 54.9879 118.096 55.153 117.888 55.3615C117.679 55.5701 117.514 55.818 117.402 56.0908C117.29 56.3637 117.233 56.6561 117.235 56.951V93.211C117.235 93.8056 117.471 94.3759 117.892 94.7963C118.312 95.2168 118.882 95.453 119.477 95.453C120.072 95.453 120.642 95.2168 121.062 94.7963C121.483 94.3759 121.719 93.8056 121.719 93.211V59.162H147.5V146H121.719V134.787C121.719 134.192 121.483 133.622 121.062 133.202C120.642 132.781 120.072 132.545 119.477 132.545C118.882 132.545 118.312 132.781 117.892 133.202C117.471 133.622 117.235 134.192 117.235 134.787V146H99.361V82.577C99.3629 82.2821 99.3062 81.9897 99.1942 81.7168C99.0822 81.444 98.9171 81.1961 98.7085 80.9875C98.5 80.779 98.2521 80.6139 97.9792 80.5019C97.7064 80.3899 97.414 80.3331 97.119 80.335H66.849C66.5541 80.3331 66.2617 80.3899 65.9889 80.5019C65.716 80.6139 65.4681 80.779 65.2596 80.9875C65.051 81.1961 64.8859 81.444 64.7739 81.7168C64.6619 81.9897 64.6052 82.2821 64.607 82.577V146H46.766V108.2C46.7679 107.905 46.7112 107.613 46.5992 107.34C46.4872 107.067 46.3221 106.819 46.1135 106.611C45.905 106.402 45.6571 106.237 45.3842 106.125C45.1114 106.013 44.819 105.956 44.524 105.958H14.254C13.9591 105.956 13.6667 106.013 13.3939 106.125C13.121 106.237 12.8731 106.402 12.6646 106.611C12.456 106.819 12.2909 107.067 12.1789 107.34C12.0669 107.613 12.0102 107.905 12.012 108.2V146H7.36704C5.41345 146 3.53993 146.776 2.15843 148.158C0.776941 149.539 0.000574542 151.412 4.42685e-05 153.366V161.758C-0.00181495 162.053 0.0549068 162.345 0.166919 162.618C0.278932 162.891 0.444006 163.139 0.652566 163.347C0.861126 163.556 1.10902 163.721 1.38187 163.833C1.65472 163.945 1.9471 164.002 2.24204 164H33.216C33.8107 164 34.3809 163.764 34.8014 163.343C35.2218 162.923 35.458 162.353 35.458 161.758C35.458 161.163 35.2218 160.593 34.8014 160.173C34.3809 159.752 33.8107 159.516 33.216 159.516H4.48404V153.366C4.48246 152.987 4.55594 152.611 4.70027 152.261C4.84459 151.91 5.05689 151.592 5.32492 151.324C5.59294 151.056 5.91139 150.844 6.26189 150.699C6.61239 150.555 6.988 150.481 7.36704 150.483H156.633C157.012 150.481 157.388 150.555 157.738 150.699C158.089 150.844 158.407 151.056 158.675 151.324C158.943 151.592 159.155 151.91 159.3 152.261C159.444 152.611 159.518 152.987 159.516 153.366V159.516H52.435C51.8404 159.516 51.2702 159.752 50.8497 160.173C50.4293 160.593 50.193 161.163 50.193 161.758C50.193 162.353 50.4293 162.923 50.8497 163.343C51.2702 163.764 51.8404 164 52.435 164H161.758C162.053 164.002 162.345 163.945 162.618 163.833C162.891 163.721 163.139 163.556 163.348 163.347C163.556 163.139 163.721 162.891 163.833 162.618C163.945 162.345 164.002 162.053 164 161.758V153.366C164 151.412 163.223 149.539 161.842 148.158C160.46 146.776 158.587 146 156.633 146ZM99.553 34.882L108.522 25.913C108.938 25.49 109.171 24.9206 109.171 24.3275C109.171 23.7344 108.938 23.165 108.522 22.742V22.742L99.553 13.773H132.353V34.882H99.553ZM16.5 146V110.444H42.281V146H16.5ZM69.1 146V84.819H94.877V146H69.1Z" fill="#193651"></path>
              <path d="M119.477 120.021C119.772 120.023 120.064 119.966 120.337 119.854C120.61 119.742 120.858 119.577 121.067 119.368C121.275 119.16 121.44 118.912 121.552 118.639C121.664 118.366 121.721 118.074 121.719 117.779V110.22C121.719 109.625 121.483 109.055 121.062 108.635C120.642 108.214 120.072 107.978 119.477 107.978C118.882 107.978 118.312 108.214 117.892 108.635C117.471 109.055 117.235 109.625 117.235 110.22V117.779C117.233 118.074 117.29 118.366 117.402 118.639C117.514 118.912 117.679 119.16 117.888 119.368C118.096 119.577 118.344 119.742 118.617 119.854C118.89 119.966 119.182 120.023 119.477 120.021V120.021Z" fill="black"></path>
            </svg>