<svg xmlns="http://www.w3.org/2000/svg" xmlns:xlink="http://www.w3.org/1999/xlink" width="25" height="25" viewBox="0 0 25 25">
                    <defs>
                      <clipPath id="whatsapp_clip">
                        <rect width="25" height="25" transform="translate(-0.177 -0.208)" fill="#fff" stroke="#707070" stroke-width="1"></rect>
                      </clipPath>
                    </defs>
                    <g transform="translate(0.177 0.208)" clip-path="url(#whatsapp_clip)">
                      <path d="M15.775,14.182a7.312,7.312,0,0,1,1.562.7,6.938,6.938,0,0,1,1.434.848.679.679,0,0,1,.032.24,3.373,3.373,0,0,1-.273,1.217,2.149,2.149,0,0,1-1.137,1.049,3.787,3.787,0,0,1-1.634.425,8.652,8.652,0,0,1-3.043-.993,9.131,9.131,0,0,1-2.723-1.89,21.121,21.121,0,0,1-2.37-2.963A5.6,5.6,0,0,1,6.487,9.714V9.586a3.542,3.542,0,0,1,1.185-2.53A1.212,1.212,0,0,1,8.5,6.7a2.53,2.53,0,0,1,.288.024,2.575,2.575,0,0,0,.3.024.658.658,0,0,1,.424.1,1.155,1.155,0,0,1,.248.441q.128.32.528,1.409a9.517,9.517,0,0,1,.4,1.2,1.627,1.627,0,0,1-.552.921q-.552.585-.553.744a.457.457,0,0,0,.08.24,7.221,7.221,0,0,0,1.634,2.194,10.221,10.221,0,0,0,2.418,1.617.709.709,0,0,0,.352.112q.24,0,.865-.777t.833-.777Zm-3.251,8.488a9.79,9.79,0,0,0,3.9-.8,9.9,9.9,0,0,0,5.357-5.357,9.9,9.9,0,0,0,0-7.8,9.9,9.9,0,0,0-5.357-5.357,9.9,9.9,0,0,0-7.8,0A9.9,9.9,0,0,0,3.267,8.713a9.959,9.959,0,0,0,1.121,9.794L3.123,22.238,7,21.005a9.847,9.847,0,0,0,5.525,1.666Zm0-22.133a11.734,11.734,0,0,1,4.684.961,11.937,11.937,0,0,1,6.43,6.43,11.9,11.9,0,0,1,0,9.369,11.937,11.937,0,0,1-6.43,6.43,11.727,11.727,0,0,1-4.684.961,11.891,11.891,0,0,1-5.846-1.505L0,25.329l2.178-6.486A12.006,12.006,0,0,1,1.409,7.929,11.937,11.937,0,0,1,7.84,1.5,11.715,11.715,0,0,1,12.524.537Z" transform="translate(0.428 -0.538)" fill="#fff"></path>
                    </g>
                  </svg>