<svg xmlns="http://www.w3.org/2000/svg" xmlns:xlink="http://www.w3.org/1999/xlink" width="141" height="140" viewBox="0 0 141 140">
  <defs>
    <clipPath id="clip-path">
      <rect id="Rectangle_221" data-name="Rectangle 221" width="141" height="140" transform="translate(-0.226 0.011)" fill="#fff" stroke="#707070" stroke-width="1"/>
    </clipPath>
  </defs>
  <g id="Mask_Group_27" data-name="Mask Group 27" transform="translate(0.226 -0.011)" clip-path="url(#clip-path)">
    <g id="Dell" transform="translate(0.208 -0.363)">
      <path id="Path_94" data-name="Path 94" d="M70.369,140.831c-1.381-.056-2.734-.028-4.116-.141-1.776-.141-3.552-.366-5.328-.592a73.22,73.22,0,0,1-8.851-1.72A68.094,68.094,0,0,1,41.193,134.6a66.314,66.314,0,0,1-17.111-10.965A73.477,73.477,0,0,1,10.89,108.5a68.569,68.569,0,0,1-8.428-18.83A76.5,76.5,0,0,1,.489,80.253c-.254-1.72-.451-3.411-.536-5.13-.141-2.2-.226-4.4-.169-6.6.028-1.832.282-3.636.451-5.469A72.007,72.007,0,0,1,2.067,52.684,67.057,67.057,0,0,1,14.048,27.85a72.938,72.938,0,0,1,16.8-15.842A67.47,67.47,0,0,1,49,3.41a71.816,71.816,0,0,1,9.443-2.227C60.193.9,61.969.7,63.716.478A55.494,55.494,0,0,1,72.089.112c1.325.028,2.65.169,3.975.282,1.494.141,3.016.31,4.482.536,2.171.366,4.313.733,6.455,1.24a67.316,67.316,0,0,1,29.457,15A73.907,73.907,0,0,1,129.65,32.247,67.44,67.44,0,0,1,138.7,52.994a75.342,75.342,0,0,1,1.579,8.288c.2,1.55.395,3.1.479,4.651.113,2.452.169,4.933.141,7.386-.028,1.635-.254,3.27-.423,4.877a67.723,67.723,0,0,1-1.691,9.5,66.834,66.834,0,0,1-11.078,23.735,73.211,73.211,0,0,1-7.385,8.767c-1.691,1.691-3.58,3.242-5.44,4.792a69.16,69.16,0,0,1-11.7,7.78A64.261,64.261,0,0,1,86.014,139c-2.368.507-4.792.874-7.188,1.212-1.579.226-3.214.338-4.792.451C72.793,140.775,71.581,140.775,70.369,140.831ZM70.792,7.977c-1.269.056-2.537.113-3.805.2-2,.169-4,.31-5.976.564a52.614,52.614,0,0,0-8.062,1.72,63.679,63.679,0,0,0-14.376,6.2,62.691,62.691,0,0,0-12.544,9.584,57.476,57.476,0,0,0-8.372,10.486,62.969,62.969,0,0,0-9.3,24.3,60.35,60.35,0,0,0-.648,7.808c-.028,1.579.056,3.157.141,4.708.085,1.381.169,2.791.338,4.172.2,1.607.451,3.214.733,4.82a56.123,56.123,0,0,0,3.27,11.276,63.88,63.88,0,0,0,6.6,12.121,60.792,60.792,0,0,0,10.543,11.783,64.362,64.362,0,0,0,31.769,14.517,59.762,59.762,0,0,0,8.062.648,56.576,56.576,0,0,0,7.865-.423c2-.254,4-.507,5.976-.874a56.962,56.962,0,0,0,15.9-5.525,68.972,68.972,0,0,0,12.8-8.654,58.594,58.594,0,0,0,13.841-17.364,64.668,64.668,0,0,0,6.934-21.565,45.476,45.476,0,0,0,.451-6.173c0-.9.028-1.776,0-2.678-.085-1.776-.113-3.58-.338-5.356-.282-2.311-.62-4.623-1.043-6.906a57.274,57.274,0,0,0-4.961-14.6A63.94,63.94,0,0,0,111.609,23.48,59.847,59.847,0,0,0,92.582,12.036,63.367,63.367,0,0,0,70.792,7.977Z" transform="translate(0.234 -0.085)" fill="#fff"/>
      <path id="Path_95" data-name="Path 95" d="M90.7,98.519c-.564.338-1.015.592-1.466.9-4.257,2.706-8.485,5.44-12.741,8.175-1.1.7-2.2,1.409-3.3,2.142a.514.514,0,0,1-.677,0q-7.526-5.074-15.053-10.12c-.846-.564-1.663-1.1-2.509-1.663-.085-.056-.2-.113-.338-.2-.085.2-.169.366-.226.536a14.853,14.853,0,0,1-4.567,6.765,13.675,13.675,0,0,1-6.427,2.847,41.085,41.085,0,0,1-7.893.254q-3.636-.085-7.273-.085c-.817,0-.817.028-.817-.817V79.379c0-.564,0-.564.564-.564,1.353.028,2.706.056,4.031.056,2.283-.028,4.538-.2,6.822-.169a22.136,22.136,0,0,1,6.371.733,13.288,13.288,0,0,1,8.231,6.991c.338.62.564,1.3.846,1.945.056.113.085.226.169.395.338-.226.648-.395.958-.592,5.666-3.636,11.3-7.245,16.97-10.881a.592.592,0,0,1,.733,0c1.973,1.353,3.975,2.706,5.948,4.059.056.028.085.085.169.141-4.708,3.044-9.415,6.061-14.179,9.105.282.2.451.338.677.479.451.31.9.592,1.325.9a.557.557,0,0,0,.733.028c2.988-1.917,5.948-3.806,8.936-5.694,1.579-1.015,3.157-2.03,4.764-3.016a.437.437,0,0,1,.451-.028c1.889,1.24,3.777,2.509,5.666,3.777.056.028.085.085.169.169C83.091,90.288,78.44,93.36,73.7,96.461c.254.2.451.338.648.479.479.31.987.592,1.466.9a.55.55,0,0,0,.677,0c2.283-1.438,4.595-2.875,6.878-4.341,2.312-1.466,4.623-2.96,6.934-4.426a.734.734,0,0,0,.366-.677c0-3.016,0-6.061-.028-9.077,0-.395.113-.507.507-.507,3.157,0,6.343.028,9.5,0,.395,0,.479.113.479.507V98.209c0,.62,0,.62.648.62,2,.028,4,.028,6.032.056h2.368c.31,0,.366.141.366.423v8.428c0,.31-.085.423-.395.423H91.069c-.338,0-.395-.141-.395-.423V99.167A4.775,4.775,0,0,0,90.7,98.519Zm-51.952.31v.056c.817-.056,1.635-.085,2.424-.2a4.344,4.344,0,0,0,3.073-1.776,6.185,6.185,0,0,0,1.071-4.144,4.738,4.738,0,0,0-3.749-4.651,12.052,12.052,0,0,0-3.636-.226c-.592.056-.62.028-.62.62v9.951c0,.282.113.395.395.395C38.074,98.829,38.412,98.829,38.75,98.829Z" transform="translate(-8.655 -24.862)" fill="#fff"/>
      <path id="Path_96" data-name="Path 96" d="M154.165,94.185V80.118c0-.564,0-.564.564-.564h9.415c.536,0,.536,0,.536.536v19.2c0,.226.085.338.31.338h8.569c.366,0,.507.085.507.479-.028,2.763-.028,5.553,0,8.316,0,.366-.085.479-.479.479H154.673c-.395,0-.507-.113-.507-.507Z" transform="translate(-49.398 -25.63)" fill="#fff"/>
    </g>
  </g>
</svg>
