<svg xmlns="http://www.w3.org/2000/svg" viewBox="0 0 200.86 138.48"><defs><style>.cls-1{fill:#234a9b;}.cls-2{fill:#2a9c7b;}.cls-3{fill:#fff;}</style></defs><g id="Layer_2" data-name="Layer 2"><g id="Layer_2-2" data-name="Layer 2"><path class="cls-1" d="M68.26,0h69.81s25.74,2.74,15.48,43.42c-11.69.24-90.78-.24-108.68,30.18,5.37-9.18,14.2-22.19,34.6-32.68a114.43,114.43,0,0,1,50.34-11.46c1.55-.35,3-1.9,2.74-5.36l-1.19-3.46H88.3Z"/><path class="cls-2" d="M154.74,50.34s-66.68-4.29-88.63,9.31h54.75s10.86-.24,8.83,13.95H72.07L47,97.34h90.54S161.66,97.7,154.74,50.34Z"/><path class="cls-3" d="M0,121.67c0-5.56,0-11.08.09-16.65H24.91c.13,2.33.13,4.67.13,7.9s-1.34,5.94-3.8,6.85c2.82,1.14,4.79,3.47,4.88,8.13.27,7.37-4.7,10.42-10.44,10.42H.09C0,132.75,0,127.24,0,121.67Zm8-9.8v8.94h.18c.68-2.13,1.8-2.71,3.41-2.71h3.31c2,0,2.42-1.18,2.42-3.13v-3.1Zm7,19.12c2.51,0,3.18-1.23,3.18-3.52,0-2-.76-3.09-2.91-3.09H8V131Z"/><path class="cls-3" d="M30.1,121.05c0-5.75,0-11.51.09-17.26h7.66c.09,5.75.09,11.51.09,17.26s0,11.51-.09,17.27H30.19C30.1,132.56,30.1,126.81,30.1,121.05Z"/><path class="cls-3" d="M42,138.13c-.13-6.85-.13-14.7.05-23.59h7.75v18H54c1.52,0,2.15-1,2.15-2.75V114.54h7.75c.09,3.94.09,7.94.09,11.89s0,7.94-.09,11.89H57.34l-.85-4.09h-.14a5,5,0,0,1-4.56,4.23C51,138.51,47.62,138.46,42,138.13Z"/><path class="cls-3" d="M67.69,126.43c0-4,0-8,.09-11.89h6.58l1,4.09h.13c1-3.19,2.87-4.09,4.75-4.19a18.91,18.91,0,0,1,2.69,0c2.82.24,4.25,1.76,5.11,4.47a5.51,5.51,0,0,1,5.19-4.47c1,0,3.14,0,8.78.15.18,7,.14,14.88,0,23.78H94.25v-18H90.8c-1.61,0-2.1,1.24-2.1,2.76v15.22H81V123.1c0-1.52-.5-2.76-2.2-2.76H77.63c-1.61,0-2.1,1.14-2.1,2.76v15.22H67.78C67.69,134.37,67.69,130.38,67.69,126.43Z"/><path class="cls-3" d="M105.81,131.09c-.14-2.57-.09-6.66,0-9.32.09-3.52,2.15-7.28,7.39-7.28h14v5.71c0,5-.76,8.51-7.79,8.51h-5.78v.86c0,1.71.54,2.85,2.24,2.85h11.29v5.76c-2.15.14-4.21.14-6.54.14h-6.41C108.14,138.32,106,135,105.81,131.09ZM116.6,120c-1.88,0-2.95.76-2.95,2.75v3.1h.13c.41-1.43,1-2,2.15-2h2.6a1.56,1.56,0,0,0,1.75-1.57V120Z"/><path class="cls-3" d="M130.76,126.43c0-4,0-8,.09-11.89h6.63l.9,4.09h.17c.9-2.67,1.93-4,4.4-4.19.89-.09,4.12,0,9.76.1.18,7,.14,14.88,0,23.78H145v-18h-4.25c-1.62,0-2.11,1.14-2.11,2.76v15.22h-7.75C130.76,134.37,130.76,130.38,130.76,126.43Z"/><path class="cls-3" d="M163,121.11c0-5.67,0-11.29.09-17h7.84c.1,5.66.1,11.28.1,17s0,11.28-.1,17H163.1C163,132.39,163,126.77,163,121.11Z"/><path class="cls-3" d="M183.85,121.11c0-3.93,0-5.67.05-9.54-3.56,0-5.79,0-9-.15v-7.26h26v7.26c-3.51.15-5.42.15-8.21.15H189v.24a3.86,3.86,0,0,1,3,4.16v5.14c0,5.66,0,11.28-.23,17H184C183.85,132.39,183.85,126.77,183.85,121.11Z"/></g></g></svg>