<svg xmlns="http://www.w3.org/2000/svg" xmlns:xlink="http://www.w3.org/1999/xlink" width="49" height="49" viewBox="0 0 49 49">
              <defs>
                <clipPath id="support-clip-path">
                  <rect width="49" height="49" transform="translate(0.44 -0.322)" fill="#fff" stroke="#707070" stroke-width="1"></rect>
                </clipPath>
              </defs>
              <g transform="translate(-0.44 0.322)" clip-path="url(#support-clip-path)">
                <g transform="translate(0 0.243)">
                  <g transform="translate(12.056 0)">
                    <path d="M28.21.248a20.975,20.975,0,0,0-15.9,7.268A5.8,5.8,0,0,1,13.8,8.6l2.71,2.717a15.344,15.344,0,1,1,21.6,21.651l2.177,2.183a5.789,5.789,0,0,1,1.384,2.222A20.994,20.994,0,0,0,28.21.248Z" transform="translate(-12.309 -0.248)" fill="#b2f0fb"></path>
                  </g>
                  <g transform="translate(0 5.691)">
                    <path d="M40.709,34.593,37.584,31.46a6.524,6.524,0,0,0-9.248,0l-2.823,2.832L14.524,23.278l2.826-2.836a6.571,6.571,0,0,0,0-9.265L14.226,8.043a6.742,6.742,0,0,0-9.556,0,.952.952,0,0,0-.074.083l-1.53,1.941A14.326,14.326,0,0,0,.211,16.438,13.967,13.967,0,0,0,.757,23.4a9.6,9.6,0,0,0,2.078,3.667L21.753,46.03a8.58,8.58,0,0,0,2.722,1.729,13.674,13.674,0,0,0,5.377,1.1,14.11,14.11,0,0,0,8.587-2.931l2.176-1.672a.951.951,0,0,0,.095-.083,6.791,6.791,0,0,0,0-9.575ZM39.4,42.774l-2.124,1.632A12.048,12.048,0,0,1,25.226,46a6.726,6.726,0,0,1-2.119-1.32L4.19,25.716a7.781,7.781,0,0,1-1.624-2.941,12.141,12.141,0,0,1,2-11.523L6.062,9.357a4.829,4.829,0,0,1,6.809.038L16,12.528a4.655,4.655,0,0,1,0,6.564L12.5,22.6a.957.957,0,0,0,0,1.351L24.837,36.322a.956.956,0,0,0,1.355,0l3.5-3.511a4.611,4.611,0,0,1,6.539,0l3.125,3.134A4.875,4.875,0,0,1,39.4,42.774Z" transform="translate(0 -6.058)" fill="#020288"></path>
                    <g transform="translate(21.475 9.349)">
                      <path d="M35.125,21.527h-.107c.012-2.013.018-4.164-.007-4.463a1.553,1.553,0,0,0-1.033-1.4,1.494,1.494,0,0,0-1.609.588c-.476.587-2.674,4.567-3.337,5.772a.957.957,0,0,0,.838,1.417h3.222c0,.537-.008,1.051-.012,1.515a.956.956,0,0,0,.948.965h.008a.956.956,0,0,0,.956-.948c0-.287.007-.842.012-1.532h.12a.957.957,0,0,0,0-1.913Zm-2.021,0H31.492c.6-1.074,1.181-2.1,1.623-2.864C33.114,19.447,33.11,20.468,33.1,21.527Z" transform="translate(-22.07 -15.603)" fill="#020288"></path>
                      <path d="M27.467,24.276c-.841.011-1.734.018-2.474.019.465-.624,1.111-1.511,1.985-2.765a6.4,6.4,0,0,0,1.037-2.156,3.356,3.356,0,0,0,.066-.54,3.1,3.1,0,0,0-6.137-.6.956.956,0,1,0,1.877.367,1.184,1.184,0,0,1,2.346.181l-.026.2a4.661,4.661,0,0,1-.732,1.45c-1.325,1.9-2.116,2.942-2.541,3.5-.525.69-.765,1.005-.6,1.534a1,1,0,0,0,.646.655,6.95,6.95,0,0,0,1.877.084c.639,0,1.509-.006,2.7-.021a.957.957,0,0,0-.024-1.913Z" transform="translate(-21.926 -15.606)" fill="#020288"></path>
                    </g>
                  </g>
                </g>
              </g>
            </svg>