<svg xmlns="http://www.w3.org/2000/svg" xmlns:xlink="http://www.w3.org/1999/xlink" width="49" height="49" viewBox="0 0 49 49">
              <defs>
                <clipPath id="gift-clip-path">
                  <rect width="49" height="49" transform="translate(-0.208 -0.322)" fill="#fff" stroke="#707070" stroke-width="1"></rect>
                </clipPath>
              </defs>
              <g transform="translate(0.208 0.322)" clip-path="url(#gift-clip-path)">
                <g transform="translate(4.324 0)">
                  <g transform="translate(15.542 19.293)">
                    <path d="M20.282,19.7h9.239V48.419H20.282V19.7Z" transform="translate(-20.282 -19.697)" fill="#e2c4ff"></path>
                  </g>
                  <g transform="translate(0 0)">
                    <path d="M43.782,10.244H40.558A16.921,16.921,0,0,0,40.2,4.161,5.375,5.375,0,0,0,36.656.191C36.446.124,31.338-1.3,26.68,4.734A.955.955,0,1,0,28.191,5.9c3.8-4.916,7.7-3.941,7.919-3.883a3.625,3.625,0,0,1,2.248,2.649,15.85,15.85,0,0,1,.191,6.207c-.163,1.119-.689,3.07-2.449,3.6-.038.01-4.046,1.129-7.91-3.883a.547.547,0,0,0-.067-.077L30.917,11.7a1.04,1.04,0,0,0,.373.077.956.956,0,0,0,.373-1.836L28.631,8.646l3.032-1.291a.956.956,0,1,0-.746-1.76L27.206,7.173A.951.951,0,0,0,26.7,8.426a1.041,1.041,0,0,0,.134.22,1.222,1.222,0,0,0-.134.22.948.948,0,0,0,.507,1.253l.22.1a.957.957,0,0,0-.756,1.54,14.274,14.274,0,0,0,2.573,2.621v3.95H19.889v-3.95a14.274,14.274,0,0,0,2.573-2.621.957.957,0,0,0-.756-1.54l.22-.1a.951.951,0,0,0,.507-1.253,1.041,1.041,0,0,0-.134-.22,1.222,1.222,0,0,0,.134-.22.948.948,0,0,0-.507-1.253L18.216,5.6a.956.956,0,0,0-.746,1.76L20.5,8.646l-3.022,1.3a.956.956,0,0,0,.373,1.836,1.04,1.04,0,0,0,.373-.077l2.793-1.186c-.019.029-.048.048-.067.077-3.8,4.916-7.7,3.941-7.919,3.883-1.75-.536-2.286-2.487-2.439-3.6a15.842,15.842,0,0,1,.191-6.207,3.646,3.646,0,0,1,2.248-2.649c.038-.01,4.046-1.129,7.91,3.883a.955.955,0,0,0,1.511-1.167C17.814-1.3,12.706.124,12.486.191A5.376,5.376,0,0,0,8.938,4.161a16.921,16.921,0,0,0-.354,6.083H5.37a.959.959,0,0,0-.956.956v8.092a.959.959,0,0,0,.956.956H6.575V48.014a.959.959,0,0,0,.956.956H41.62a.959.959,0,0,0,.956-.956V20.248h1.205a.959.959,0,0,0,.956-.956V11.2a.959.959,0,0,0-.956-.956ZM6.327,12.156H8.9a5.488,5.488,0,0,0,3.6,4.161,6.2,6.2,0,0,0,1.626.191,8.807,8.807,0,0,0,3.864-.918v2.755H6.327Zm34.337,34.9H8.488V20.248H40.663Zm2.162-28.722H31.166V15.581a8.807,8.807,0,0,0,3.864.918,6.2,6.2,0,0,0,1.626-.191,5.478,5.478,0,0,0,3.587-4.161h2.573Z" transform="translate(-4.414 0.002)" fill="#020288"></path>
                    <g transform="translate(15.992 4.239)">
                      <path d="M25.916,12.513H23.859A3.125,3.125,0,0,1,20.741,9.4V7.444a3.131,3.131,0,0,1,3.118-3.118h2.056a3.125,3.125,0,0,1,3.118,3.118V9.4A3.119,3.119,0,0,1,25.916,12.513Z" transform="translate(-20.741 -4.326)" fill="#ffbdbc"></path>
                    </g>
                  </g>
                </g>
              </g>
            </svg>