<svg xmlns="http://www.w3.org/2000/svg" xmlns:xlink="http://www.w3.org/1999/xlink" width="49" height="49" viewBox="0 0 49 49">
              <defs>
                <clipPath id="return-clip-path">
                  <rect width="49" height="49" transform="translate(-0.065 -0.322)" fill="#fff" stroke="#707070" stroke-width="1"></rect>
                </clipPath>
              </defs>
              <g transform="translate(0.065 0.322)" clip-path="url(#return-clip-path)">
                <g transform="translate(0 1.543)">
                  <g transform="translate(9.279 7.737)">
                    <circle cx="15.206" cy="15.206" r="15.206" fill="#a4fcc4"></circle>
                  </g>
                  <path d="M46.249,28.265a.957.957,0,0,0-1.119.756,21.035,21.035,0,0,1-41.171.622l.249.249a.939.939,0,0,0,.679.277.98.98,0,0,0,.679-.277.952.952,0,0,0,0-1.348L3.6,26.572a.947.947,0,0,0-.679-.277.988.988,0,0,0-.679.277L.277,28.542a.953.953,0,0,0,1.348,1.348l.354-.354A22.948,22.948,0,0,0,47,29.394.96.96,0,0,0,46.249,28.265Z" transform="translate(0.002 -2.08)" fill="#020288"></path>
                  <path d="M48.728,19.637a.952.952,0,0,0-1.348,0l-.354.354A22.949,22.949,0,0,0,2,20.144a.955.955,0,0,0,1.874.363A21.036,21.036,0,0,1,45.046,19.9l-.249-.249A.953.953,0,1,0,43.449,21l1.97,1.97a.947.947,0,0,0,.679.277.988.988,0,0,0,.679-.277L48.748,21a.982.982,0,0,0-.019-1.358Z" transform="translate(-0.038 -1.572)" fill="#020288"></path>
                  <path d="M10.974,29.1h.765a.956.956,0,0,0,0-1.913h-.765a.956.956,0,0,0,0,1.913Z" transform="translate(-0.204 -2.099)" fill="#020288"></path>
                  <path d="M21.466,29.1a.956.956,0,1,0,0-1.913H15.661a.956.956,0,1,0,0,1.913Z" transform="translate(-0.3 -2.099)" fill="#020288"></path>
                  <path d="M26.572,19.956H22.919l1.7-1.7a.953.953,0,0,0-1.348-1.348l-3.338,3.338a.952.952,0,0,0,0,1.348l3.338,3.338a.939.939,0,0,0,.679.277.98.98,0,0,0,.679-.277.952.952,0,0,0,0-1.348l-1.712-1.712h3.653a4.2,4.2,0,1,1,0,8.4H17.946a.956.956,0,0,0,0,1.913h8.626a6.111,6.111,0,1,0,0-12.222Z" transform="translate(-0.347 -1.881)" fill="#020288"></path>
                </g>
              </g>
            </svg>