<svg xmlns="http://www.w3.org/2000/svg" xmlns:xlink="http://www.w3.org/1999/xlink" width="49" height="49" viewBox="0 0 49 49">
              <defs>
                <clipPath id="secure-clip-path">
                  <rect width="49" height="49" transform="translate(-0.364 -0.322)" fill="#fff" stroke="#707070" stroke-width="1"></rect>
                </clipPath>
              </defs>
              <g transform="translate(0.364 0.322)" clip-path="url(#secure-clip-path)">
                <g transform="translate(0 0.808)">
                  <rect width="46.103" height="4.687" transform="translate(0.956 19.943)" fill="#e2c4ff"></rect>
                  <g transform="translate(0 0)">
                    <g transform="translate(0 11.239)">
                      <path d="M7.011,32.334a.959.959,0,0,0-.956.956v8.159a.959.959,0,0,0,.956.956H17.8a.959.959,0,0,0,.956-.956V33.29a.959.959,0,0,0-.956-.956H7.011Zm9.842,8.159H7.968V34.247h8.876v6.246Z" transform="translate(-0.124 -12.716)" fill="#020288"></path>
                      <path d="M48.972,16.638A4.325,4.325,0,0,0,44.658,12.3h-10.3l-.784.6c0,.172.784,1.148.765,1.31H44.649a2.406,2.406,0,0,1,2.4,2.42v2.879H31.832a13.334,13.334,0,0,1-2.458,1.913H47.059v3.74H1.913V21.43h18.91a13.023,13.023,0,0,1-2.458-1.913H1.913V16.638a2.419,2.419,0,0,1,2.4-2.42H15.859c-.01-.163,1.062-.88,1.062-1.052L15.849,12.3H4.314A4.325,4.325,0,0,0,0,16.638V44.089a4.325,4.325,0,0,0,4.314,4.333H44.649a4.325,4.325,0,0,0,4.314-4.333v-8.6l.01-18.852ZM47.059,35.6v8.484a2.419,2.419,0,0,1-2.4,2.42H4.314a2.406,2.406,0,0,1-2.4-2.42V27.073H47.059V35.6Z" transform="translate(0 -12.305)" fill="#020288"></path>
                      <path d="M38.3,31.934a5.433,5.433,0,1,0,5.414,5.423A5.431,5.431,0,0,0,38.3,31.934Zm0,8.943a3.52,3.52,0,1,1,3.5-3.52A3.513,3.513,0,0,1,38.3,40.877Z" transform="translate(-0.676 -12.708)" fill="#020288"></path>
                    </g>
                    <g transform="translate(15.839)">
                      <path d="M32.212,4.216A5.961,5.961,0,0,1,26.827.83H24.034a5.961,5.961,0,0,1-5.385,3.386,5.936,5.936,0,0,1-2.477-.536v9.794c0,7.164,9.259,9.6,9.259,9.6s9.259-2.449,9.259-9.6V3.68a5.968,5.968,0,0,1-2.477.536Z" transform="translate(-16.172 -0.83)" fill="#b2f0fb"></path>
                      <path d="M25.256,15.06a.963.963,0,0,1-.679-.277l-1.712-1.7a.954.954,0,1,1,1.349-1.349l.976.966,2.745-3.262A.957.957,0,0,1,29.4,10.67l-3.405,4.056a.954.954,0,0,1-.689.335Z" transform="translate(-16.304 -1)" fill="#020288"></path>
                    </g>
                  </g>
                </g>
              </g>
            </svg>