<svg width="217" height="48" viewBox="0 0 217 48" fill="none" xmlns="http://www.w3.org/2000/svg">
<path d="M190.778 38.537L186.885 30.752L182.992 38.537H190.778ZM103.627 19.937L95.842 23.83L103.627 27.723V19.937ZM33.387 28.717L37.28 36.502L41.173 28.717H33.387ZM211.236 12.15C210.903 12.1454 210.573 12.2068 210.264 12.3307C209.955 12.4546 209.674 12.6386 209.436 12.8719C209.199 13.1053 209.01 13.3834 208.881 13.6901C208.752 13.9969 208.685 14.3262 208.684 14.659C208.719 15.32 209.005 15.9427 209.484 16.4001C209.962 16.8575 210.597 17.1152 211.259 17.1207C211.921 17.1262 212.56 16.879 213.046 16.4296C213.532 15.9802 213.828 15.3623 213.874 14.702C213.861 14.0142 213.577 13.3594 213.082 12.8811C212.588 12.4027 211.924 12.1399 211.236 12.15V12.15ZM200.51 20.108V17.08H206.957C206.567 16.6991 206.261 16.2404 206.06 15.7338C205.859 15.2271 205.767 14.6837 205.789 14.139C205.789 13.4506 205.931 12.7695 206.205 12.138C206.479 11.5065 206.88 10.938 207.383 10.4677C207.885 9.99741 208.479 9.63531 209.128 9.40384C209.776 9.17237 210.465 9.07645 211.152 9.12202C211.858 9.06554 212.569 9.15724 213.238 9.39127C213.907 9.62529 214.519 9.99648 215.036 10.481C215.554 10.9656 215.964 11.5528 216.241 12.2051C216.518 12.8574 216.655 13.5604 216.645 14.269C216.673 14.8396 216.557 15.4079 216.307 15.9218C216.058 16.4358 215.683 16.8787 215.218 17.21H216.299V20.11H200.51V20.108ZM211.323 30.272C211.656 30.2764 211.986 30.2148 212.295 30.0908C212.604 29.9668 212.885 29.7828 213.122 29.5495C213.359 29.3162 213.548 29.0382 213.677 28.7316C213.806 28.425 213.874 28.0958 213.875 27.763C213.893 27.3417 213.798 26.9234 213.6 26.551C213.402 26.1785 213.109 25.8655 212.75 25.644C212.361 25.3913 211.913 25.2423 211.45 25.211C210.987 25.1667 210.522 25.257 210.109 25.471C209.586 25.7248 209.167 26.151 208.921 26.6779C208.676 27.2048 208.619 27.8001 208.762 28.3637C208.904 28.9273 209.236 29.4246 209.702 29.772C210.168 30.1194 210.739 30.2957 211.32 30.271L211.323 30.272ZM216.34 22.184V25.212H215.257C215.737 25.5417 216.125 25.9893 216.382 26.5118C216.64 27.0343 216.759 27.6143 216.728 28.196C216.728 31.44 214.219 33.296 211.278 33.296C210.583 33.3365 209.888 33.2346 209.234 32.9966C208.58 32.7586 207.981 32.3895 207.475 31.9119C206.969 31.4344 206.566 30.8584 206.29 30.2195C206.014 29.5805 205.872 28.8919 205.872 28.196C205.84 27.6188 205.954 27.0429 206.204 26.5214C206.453 25.9999 206.83 25.5496 207.299 25.212H206.218V22.184H216.339H216.34ZM200.51 38.537V35.509H216.34V38.537H200.51Z" fill="white"/>
<path d="M134.768 42.642L137.017 47.573C147.787 39.355 149.776 30.143 142.769 20.281C137.233 12.453 143.331 5.53201 145.148 3.71601L141.039 0.429016C138.357 3.37002 131.264 12.629 137.449 21.929C143.461 30.921 142.812 35.808 134.768 42.642ZM51.077 42.642L53.326 47.573C64.096 39.355 66.0849 30.143 59.0779 20.281C53.5419 12.453 59.6399 5.53201 61.4569 3.71601L57.3479 0.429016C54.666 3.37002 47.5729 12.629 53.7579 21.929C59.7699 30.921 59.1209 35.808 51.077 42.642V42.642ZM193.72 9.12202L186.886 20.93L180.052 9.12202H174.512L186.882 30.575L199.252 9.12202H193.72ZM82.477 10.766C80.1791 9.54347 77.5951 8.96083 74.9949 9.07902H68.031V38.533H73.5669V14.659H74.951C78.8 14.659 81.4389 15.611 81.4389 19.071C81.4389 22.315 78.282 23.699 74.562 23.829H73.74L77.4119 29.105C79.1274 28.8377 80.7733 28.2353 82.256 27.332C82.3656 27.2745 82.4666 27.2018 82.5559 27.116C83.9162 26.2519 85.0347 25.0565 85.8064 23.6418C86.5781 22.227 86.9778 20.6395 86.9679 19.028C87.0473 17.3717 86.6705 15.7254 85.8786 14.2686C85.0867 12.8117 83.9101 11.6002 82.477 10.766V10.766ZM126.464 27.158C127.819 26.2915 128.931 25.0943 129.695 23.6793C130.459 22.2643 130.85 20.6781 130.832 19.07C130.898 17.405 130.51 15.7534 129.71 14.2916C128.91 12.8297 127.729 11.6126 126.291 10.77C123.993 9.54747 121.409 8.96483 118.809 9.08302H111.846V38.537H117.382V14.659H118.766C122.615 14.659 125.254 15.611 125.254 19.071C125.254 22.315 122.097 23.699 118.377 23.829H117.555L127.849 38.534H134.337L126.464 27.158ZM164.006 23.828L174.3 9.12302H167.812L157.518 23.828L167.812 38.533H174.3L164.006 23.828ZM157.259 9.12302H151.722V38.577H157.258L157.259 9.12302ZM12.2799 23.828L22.5739 9.12202H16.0859L5.79295 23.828L16.0869 38.533H22.5749L12.2799 23.828ZM5.53295 9.12202H-0.00305176V38.577H5.53295V9.12202ZM107.563 14.658V9.12202H90.046V38.577H107.563V33.041H95.6259V14.702H107.563V14.658ZM51.5119 38.533H45.9729L37.2789 19.892L28.5849 38.533H23.0069L37.2799 7.95502L51.5119 38.533Z" fill="white"/>
</svg>
