<svg id="XMLID_1_" xmlns="http://www.w3.org/2000/svg" width="160.14" height="28.374" viewBox="0 0 160.14 28.374">
  <path id="XMLID_3_" d="M98.63,268.724H81.787s-.965-1.184,1.754-3.9a22.348,22.348,0,0,1,8.027-4.869c2.281-.789,7.062-1.974,9.43.132,2.149,1.93.614,4.825-.132,5.965A9.552,9.552,0,0,1,98.63,268.724Z" transform="translate(-75.428 -240.789)" fill="#8e969b"/>
  <path id="XMLID_4_" d="M95.943,232.695c5.614.263,8.553,4.956,6.886,8.2a15.883,15.883,0,0,1-3.421,4.605h6.93c1.316,0,1.842-1.1,1.316-1.93L92.7,218.4a1.442,1.442,0,0,0-2.588.044L81.6,232.826s8.158-6.36,14.782-5.263C100.724,228.352,95.943,232.695,95.943,232.695Z" transform="translate(-75.416 -217.611)" fill="#8e969b"/>
  <path id="XMLID_5_" d="M87.766,247.339s2.281-2.676.921-3.421c-1.009-.57-3.991-.088-8.071,2.062-4.43,2.281-15.045,10.264-12.808,14.3,0,0,.044-2.369,3.158-5.176,3.6-3.246,6.93-5.965,13.992-7.413A9.287,9.287,0,0,1,87.766,247.339Z" transform="translate(-67.502 -232.255)" fill="#8e969b"/>
  <path id="XMLID_9_" d="M160.618,243.921a1.742,1.742,0,0,1,.307,3.2,5.314,5.314,0,0,1-2.369.439h-5.483v-3.948h4.913A13.569,13.569,0,0,1,160.618,243.921Zm.219,6.886a1.914,1.914,0,0,1,1.447,1.93,2.191,2.191,0,0,1-1.491,2.237,6.342,6.342,0,0,1-2.281.307H153.03v-4.737h5.527A7.525,7.525,0,0,1,160.838,250.808ZM148.6,240.544v17.808h10.088a17.684,17.684,0,0,0,3.158-.263,7.589,7.589,0,0,0,2.544-.877,5.425,5.425,0,0,0,1.579-1.4,4.527,4.527,0,0,0,1.009-2.851,4.225,4.225,0,0,0-.877-2.632,5.219,5.219,0,0,0-2.588-1.579,6.058,6.058,0,0,0,1.711-1.009,3.407,3.407,0,0,0,1.009-2.632,4.01,4.01,0,0,0-1.009-2.719c-1.14-1.228-3.07-1.886-5.79-1.886l-10.834.044Z" transform="translate(-113.029 -230.46)" fill="#8e969b"/>
  <rect id="XMLID_10_" width="4.606" height="17.808" transform="translate(56.099 10.084)" fill="#8e969b"/>
  <path id="XMLID_11_" d="M256.9,252.252h4.43a3.433,3.433,0,0,0,.833,1.842c.746.746,2.061,1.1,3.86,1.1a9.152,9.152,0,0,0,2.676-.307c1.316-.351,1.93-1.053,1.93-2.062a1.468,1.468,0,0,0-.965-1.36,14.048,14.048,0,0,0-3.026-.833l-2.369-.439a19.1,19.1,0,0,1-4.825-1.36,4.115,4.115,0,0,1-2.237-3.86,4.822,4.822,0,0,1,2.193-3.991c1.447-1.053,3.6-1.579,6.4-1.579a11.314,11.314,0,0,1,6.009,1.491,4.966,4.966,0,0,1,2.588,4.342h-4.474a2.569,2.569,0,0,0-1.754-2.281,7.068,7.068,0,0,0-2.719-.439,5.881,5.881,0,0,0-2.851.57,1.789,1.789,0,0,0-1.053,1.623,1.562,1.562,0,0,0,1.053,1.447,15.658,15.658,0,0,0,2.895.746l3.816.746a11.682,11.682,0,0,1,3.816,1.272,4.064,4.064,0,0,1,1.974,3.641,4.772,4.772,0,0,1-2.325,4.035,11.312,11.312,0,0,1-6.579,1.623,12.742,12.742,0,0,1-6.842-1.579A5.064,5.064,0,0,1,256.9,252.252Z" transform="translate(-173.826 -229.843)" fill="#8e969b"/>
  <path id="XMLID_12_" d="M306.311,258.408v-14.65H299.6V240.6h18.071v3.158H311v14.65Z" transform="translate(-197.797 -230.516)" fill="#8e969b"/>
  <path id="XMLID_15_" d="M348.69,251.7h-5.658l2.851-7.018Zm-8.422,6.711,1.535-3.684h8.2l1.447,3.684H356.5L348.6,240.6h-5.263L335.4,258.408Z" transform="translate(-217.894 -230.516)" fill="#8e969b"/>
  <path id="XMLID_18_" d="M402.338,244.021a2.159,2.159,0,0,1,1.36,2.193,1.991,1.991,0,0,1-1.4,2.018,7.724,7.724,0,0,1-2.369.307h-5.263v-4.781h5.395A5.491,5.491,0,0,1,402.338,244.021ZM390.1,240.6v17.808h4.562v-6.974h4.562l4.123,6.974h5.4l-4.606-7.544c1.491-.044,2.939-1.623,3.465-2.456a5.31,5.31,0,0,0,.746-2.719,3.86,3.86,0,0,0-.439-1.886,5.2,5.2,0,0,0-1.14-1.491,5.751,5.751,0,0,0-2.149-1.228,12.469,12.469,0,0,0-3.6-.439L390.1,240.6Z" transform="translate(-248.601 -230.516)" fill="#8e969b"/>
  <path id="XMLID_21_" d="M220.043,239.4a9.343,9.343,0,1,0,9.343,9.343A9.322,9.322,0,0,0,220.043,239.4Zm2.149,10a1.476,1.476,0,0,0-1.316,1.316l-.833,7.369-.921-7.325c0-.746-.439-1.14-1.316-1.316l-6.974-.79,6.974-.877c.746-.175,1.316-.658,1.316-1.272l.877-6.93.79,6.974c0,.526.482,1.053,1.316,1.228l7.281.965-7.193.658Z" transform="translate(-147.89 -229.843)" fill="#8e969b"/>
</svg>
