<svg id="_x00B9_Ã_x00BC_h_x005F_2" xmlns="http://www.w3.org/2000/svg" width="95.106" height="18.613" viewBox="0 0 95.106 18.613">
  <g id="Group_292" data-name="Group 292" transform="translate(0 0)">
    <g id="Group_291" data-name="Group 291">
      <g id="Group_289" data-name="Group 289">
        <path id="Path_411" data-name="Path 411" d="M781.268,234.789a1.94,1.94,0,0,1,1.933-1.933,1.908,1.908,0,0,1,1.357.564,1.956,1.956,0,0,1,.564,1.369,1.84,1.84,0,0,1-.564,1.357,1.908,1.908,0,0,1-1.357.564A1.93,1.93,0,0,1,781.268,234.789Zm-.168,0a2.1,2.1,0,0,0,2.1,2.1,2.091,2.091,0,0,0,2.089-2.089,2.109,2.109,0,0,0-.612-1.489,2.061,2.061,0,0,0-1.477-.612A2.086,2.086,0,0,0,781.1,234.789Z" transform="translate(-690.185 -232.423)" fill="#8e969b"/>
        <path id="Path_412" data-name="Path 412" d="M792.1,243.758h.288v-.973h.66a.777.777,0,0,1,.264.036.356.356,0,0,1,.156.3l.024.384v.18a.479.479,0,0,1,.024.072h.372v-.048c-.048-.012-.072-.06-.1-.132a.8.8,0,0,1-.012-.192l-.012-.3a.559.559,0,0,0-.072-.288.523.523,0,0,0-.2-.144.661.661,0,0,0,.24-.2.694.694,0,0,0,.084-.336.537.537,0,0,0-.3-.54,1.035,1.035,0,0,0-.408-.072h-1v2.258Zm.288-1.225v-.781h.709a.5.5,0,0,1,.252.048.366.366,0,0,1,.168.324.407.407,0,0,1-.12.324.5.5,0,0,1-.324.084Z" transform="translate(-699.864 -240.167)" fill="#8e969b"/>
        <path id="Path_413" data-name="Path 413" d="M32.61,274.1,24,287.441h5.884l8.286-12.753Z" transform="translate(-24 -268.852)" fill="#8e969b"/>
        <path id="Path_414" data-name="Path 414" d="M97.4,235.435s2.029-3.314,2.534-3.963a2.138,2.138,0,0,1,1.789-.937h8.886v4.515a7.182,7.182,0,0,1,1.249-2.558,5.435,5.435,0,0,1,4.023-1.993h16.74v4.947H97.4Z" transform="translate(-88.586 -230.488)" fill="#8e969b"/>
        <path id="Path_415" data-name="Path 415" d="M599.988,235.347V230.4H582.072a5.484,5.484,0,0,0-4.023,1.993,7.09,7.09,0,0,0-1.249,2.558v.4Z" transform="translate(-510.418 -230.4)" fill="#8e969b"/>
        <rect id="Rectangle_507" data-name="Rectangle 507" width="5.007" height="4.923" transform="translate(44.911 0.024)" fill="#8e969b"/>
        <rect id="Rectangle_508" data-name="Rectangle 508" width="4.995" height="4.923" transform="translate(61.35 0.024)" fill="#8e969b"/>
        <path id="Path_416" data-name="Path 416" d="M419.787,275.929l-4.911-.288v5.7a1.614,1.614,0,0,1-1.621,1.645H404.8a1.577,1.577,0,0,1-1.429-1.633v-6.5l-4.971-.36v8.754a5.4,5.4,0,0,0,4.635,4.527s.384.024.456.036h11.42s4.887-.384,4.887-5.032S419.787,275.929,419.787,275.929Z" transform="translate(-353.441 -269.204)" fill="#8e969b"/>
        <path id="Path_417" data-name="Path 417" d="M165.2,293.6h23.416a5.433,5.433,0,0,0,4.5-4.467,7.388,7.388,0,0,0,.084-1.969c-.12-.733-1.537-3.975-4.587-4.251-1.825-.168-18.06-1.441-18.06-1.441a5.068,5.068,0,0,0,1.537,2.894,6.458,6.458,0,0,0,2.918,1.381l12.513,1.033c.384.024,1.117.12,1.1,1.057a.984.984,0,0,1-1.033.949H170.087v-7.337l-4.863-.348v12.5Z" transform="translate(-148.244 -275.012)" fill="#8e969b"/>
        <path id="Path_418" data-name="Path 418" d="M576.812,293.3H594.2a2.029,2.029,0,0,0,.829-.24,1.048,1.048,0,0,0,.324-.745c0-.937-.781-.985-1.177-1.009,0,0-12.224-1.009-12.645-1.045a5.845,5.845,0,0,1-2.822-1.333,4.752,4.752,0,0,1-1.621-2.63s16.331.949,18.144,1.117a5.558,5.558,0,0,1,4.623,4.287,7.815,7.815,0,0,1-.024,2.005,5.43,5.43,0,0,1-5.128,4.479H576.8Z" transform="translate(-510.418 -279.587)" fill="#8e969b"/>
      </g>
      <g id="Group_290" data-name="Group 290">
        <path id="Path_419" data-name="Path 419" d="M781.268,234.789a1.94,1.94,0,0,1,1.933-1.933,1.908,1.908,0,0,1,1.357.564,1.956,1.956,0,0,1,.564,1.369,1.84,1.84,0,0,1-.564,1.357,1.908,1.908,0,0,1-1.357.564A1.93,1.93,0,0,1,781.268,234.789Zm-.168,0a2.1,2.1,0,0,0,2.1,2.1,2.091,2.091,0,0,0,2.089-2.089,2.109,2.109,0,0,0-.612-1.489,2.061,2.061,0,0,0-1.477-.612A2.086,2.086,0,0,0,781.1,234.789Z" transform="translate(-690.185 -232.423)" fill="#8e969b"/>
        <path id="Path_420" data-name="Path 420" d="M792.1,243.758h.288v-.973h.66a.777.777,0,0,1,.264.036.356.356,0,0,1,.156.3l.024.384v.18a.479.479,0,0,1,.024.072h.372v-.048c-.048-.012-.072-.06-.1-.132a.8.8,0,0,1-.012-.192l-.012-.3a.559.559,0,0,0-.072-.288.523.523,0,0,0-.2-.144.661.661,0,0,0,.24-.2.694.694,0,0,0,.084-.336.537.537,0,0,0-.3-.54,1.035,1.035,0,0,0-.408-.072h-1v2.258Zm.288-1.225v-.781h.709a.5.5,0,0,1,.252.048.366.366,0,0,1,.168.324.407.407,0,0,1-.12.324.5.5,0,0,1-.324.084Z" transform="translate(-699.864 -240.167)" fill="#8e969b"/>
        <path id="Path_421" data-name="Path 421" d="M32.61,274.1,24,287.441h5.884l8.286-12.753Z" transform="translate(-24 -268.852)" fill="#8e969b"/>
        <path id="Path_422" data-name="Path 422" d="M97.4,235.435s2.029-3.314,2.534-3.963a2.138,2.138,0,0,1,1.789-.937h8.886v4.515a7.182,7.182,0,0,1,1.249-2.558,5.435,5.435,0,0,1,4.023-1.993h16.74v4.947H97.4Z" transform="translate(-88.586 -230.488)" fill="#8e969b"/>
        <path id="Path_423" data-name="Path 423" d="M599.988,235.347V230.4H582.072a5.484,5.484,0,0,0-4.023,1.993,7.09,7.09,0,0,0-1.249,2.558v.4Z" transform="translate(-510.418 -230.4)" fill="#8e969b"/>
        <rect id="Rectangle_509" data-name="Rectangle 509" width="5.007" height="4.923" transform="translate(44.911 0.024)" fill="#8e969b"/>
        <rect id="Rectangle_510" data-name="Rectangle 510" width="4.995" height="4.923" transform="translate(61.35 0.024)" fill="#8e969b"/>
        <path id="Path_424" data-name="Path 424" d="M419.787,275.929l-4.911-.288v5.7a1.614,1.614,0,0,1-1.621,1.645H404.8a1.577,1.577,0,0,1-1.429-1.633v-6.5l-4.971-.36v8.754a5.4,5.4,0,0,0,4.635,4.527s.384.024.456.036h11.42s4.887-.384,4.887-5.032S419.787,275.929,419.787,275.929Z" transform="translate(-353.441 -269.204)" fill="#8e969b"/>
        <path id="Path_425" data-name="Path 425" d="M165.2,293.6h23.416a5.433,5.433,0,0,0,4.5-4.467,7.388,7.388,0,0,0,.084-1.969c-.12-.733-1.537-3.975-4.587-4.251-1.825-.168-18.06-1.441-18.06-1.441a5.068,5.068,0,0,0,1.537,2.894,6.458,6.458,0,0,0,2.918,1.381l12.513,1.033c.384.024,1.117.12,1.1,1.057a.984.984,0,0,1-1.033.949H170.087v-7.337l-4.863-.348v12.5Z" transform="translate(-148.244 -275.012)" fill="#8e969b"/>
        <path id="Path_426" data-name="Path 426" d="M576.812,293.3H594.2a2.029,2.029,0,0,0,.829-.24,1.048,1.048,0,0,0,.324-.745c0-.937-.781-.985-1.177-1.009,0,0-12.224-1.009-12.645-1.045a5.845,5.845,0,0,1-2.822-1.333,4.752,4.752,0,0,1-1.621-2.63s16.331.949,18.144,1.117a5.558,5.558,0,0,1,4.623,4.287,7.815,7.815,0,0,1-.024,2.005,5.43,5.43,0,0,1-5.128,4.479H576.8Z" transform="translate(-510.418 -279.587)" fill="#8e969b"/>
      </g>
    </g>
  </g>
</svg>
