<svg xmlns="http://www.w3.org/2000/svg" width="110.667" height="26.341" viewBox="0 0 110.667 26.341">
  <g id="amd" transform="translate(-286.5 -167.5)">
    <path id="Path_441" data-name="Path 441" d="M312.521,201.357h-6.143l-1.885-4.528H294.259l-1.717,4.528H286.5l9.224-22.857h6.6l10.2,22.857Zm-13.381-17.4-3.349,8.887h7.036l-3.686-8.887Z" transform="translate(0 -9.149)" fill="#8e969b" fill-rule="evenodd"/>
    <path id="Path_442" data-name="Path 442" d="M476.442,178.5h4.965v22.857H475.7V187.084l-6.16,7.17h-.875l-6.177-7.17v14.273H456.8V178.5h4.965l7.339,8.483Z" transform="translate(-141.636 -9.149)" fill="#8e969b" fill-rule="evenodd"/>
    <path id="Path_443" data-name="Path 443" d="M638.9,178.5c8.348,0,12.64,5.2,12.64,11.462,0,6.564-4.157,11.395-13.28,11.395H628.8V178.5Zm-4.393,18.666h3.72c5.74,0,7.44-3.888,7.44-7.238,0-3.922-2.121-7.238-7.507-7.238h-3.652v14.475Z" transform="translate(-284.686 -9.149)" fill="#8e969b" fill-rule="evenodd"/>
    <path id="Path_444" data-name="Path 444" d="M807.635,174.687H795.92l-7.12-7.153,26.122-.034v26.156l-7.288-7.322Z" transform="translate(-417.756 0)" fill="#8e969b" fill-rule="evenodd"/>
    <path id="Path_445" data-name="Path 445" d="M794.589,228.57l.034-10.57-7.423,7.406v10.436h10.739l7.288-7.271Z" transform="translate(-416.425 -42)" fill="#8e969b" fill-rule="evenodd"/>
  </g>
</svg>
