<svg id="msi-Logo" xmlns="http://www.w3.org/2000/svg" width="104.207" height="33.662" viewBox="0 0 104.207 33.662">
  <path id="Path_427" data-name="Path 427" d="M428.013,226.95l4.943-13.621a42.874,42.874,0,0,0-7.381.738L420.9,226.95Zm-.828-17.312-.939,2.617a43.05,43.05,0,0,1,7.381-.738l.939-2.617a42.875,42.875,0,0,0-7.381.738Z" transform="translate(-330.359 -201.273)" fill="#8e969b" fill-rule="evenodd"/>
  <path id="Path_428" data-name="Path 428" d="M330.595,223.707a38.371,38.371,0,0,0,6.844.626c1.543,0,4.116-.179,4.339-2.17.089-.783-.76-1.3-2.1-2.058-1.543-.85-2.729-1.3-4.048-2.192a3.233,3.233,0,0,1-1.454-3.78c1.342-4.473,7.873-5.234,11.743-5.234a40.238,40.238,0,0,1,7.761.738l-.895,2.483c-2.326-.425-10.8-1.856-11.183,1.543-.089.783.693,1.275,2.035,2.013,1.543.85,2.773,1.32,4.115,2.214a3.281,3.281,0,0,1,1.454,3.8c-1.342,4.473-7.873,5.234-11.743,5.234a41.1,41.1,0,0,1-7.761-.738l.895-2.483Z" transform="translate(-259.558 -201.273)" fill="#8e969b" fill-rule="evenodd"/>
  <path id="Path_429" data-name="Path 429" d="M187.516,226.95l4.115-11.362c1.61-4.473-6.061-2.684-7.9,2.349l-3.266,9.036h-7.113l4.115-11.362c1.61-4.473-6.061-2.684-7.9,2.348l-3.266,8.991H159.2l6.553-18.05c2.259,0,3.489.514,4.518,1.543a2.915,2.915,0,0,1,.738,1.364,25.5,25.5,0,0,1,3.31-1.722,14.852,14.852,0,0,1,5.592-1.163c2.259,0,3.489.514,4.518,1.543a2.915,2.915,0,0,1,.738,1.364,25.494,25.494,0,0,1,3.31-1.722,14.852,14.852,0,0,1,5.592-1.163c2.259,0,3.489.514,4.518,1.543a3.937,3.937,0,0,1,.626,3.869l-4.585,12.637h-7.113Z" transform="translate(-127.193 -201.273)" fill="#8e969b" fill-rule="evenodd"/>
  <g id="Group_293" data-name="Group 293" transform="translate(0 0)">
    <path id="Path_430" data-name="Path 430" d="M44.191,180.571l-.4-.246a39.156,39.156,0,0,0-13.51-5.5l-.134-.022-.134.022a38.3,38.3,0,0,0-13.51,5.5l-.4.246v.47c-.022,6.017.939,12.436,3.713,17.849,2.17,4.227,5.48,7.9,10.065,9.484l.291.089.268-.089c4.585-1.588,7.918-5.256,10.065-9.484,2.773-5.413,3.735-11.832,3.713-17.849Zm-14.046,27h0c-7.9-2.729-13.263-12.593-13.2-26.5a37.989,37.989,0,0,1,13.2-5.368h0a38.163,38.163,0,0,1,13.2,5.368C43.408,194.975,38.018,204.839,30.145,207.567Z" transform="translate(-16.098 -174.8)" fill="#8e969b" fill-rule="evenodd"/>
    <path id="Path_431" data-name="Path 431" d="M44.4,200.349c-1.745,2.013-4.5,2.3-6.4,2.371-.224.022-.649.045-.76.2-.067.089,0,.246.089.313,2.147,1.521,4.965.4,6.442-.313-1.7,1.521-4.585,1.789-7.023.895-.313-.112-.514-.134-.626-.022a.324.324,0,0,0-.022.38c.693,1.275,1.185,2.281,2.93,2.841a4.391,4.391,0,0,1-3.6-3.087c-.022,1.722,1.476,2.93,2.1,3.6-.805.022-1.588.089-1.946.693-.246.38-.246.939-.582,1.454-.939-1.767-1.678-4.2-.984-6.352a6.3,6.3,0,0,1,3.691-4.093,17.952,17.952,0,0,0-1.521,1.924c-.38.716.089.962.6.045.738,1.767,5.972.716,7.336-.984l.492-.2-.224.336ZM41.086,215.6a.267.267,0,0,1,.313-.089.314.314,0,0,1,.179.492,7.407,7.407,0,0,1-.6.582.826.826,0,0,0-.157.313h0a1.5,1.5,0,0,1,.268-1.3Zm-2.46-.783a.4.4,0,0,1,.47,0,.457.457,0,0,1,.089.47,1.865,1.865,0,0,1-.47.358,1.6,1.6,0,0,0-.649.626,2.267,2.267,0,0,1,.179-.939,1.614,1.614,0,0,1,.38-.514Zm5.815-.291a.24.24,0,0,1,.246.022.457.457,0,0,1,.157.224,3.133,3.133,0,0,0,.134.626c.045.089.089.157.134.246a1.285,1.285,0,0,1-.492-.336,1.311,1.311,0,0,1-.313-.492.269.269,0,0,1,.134-.291Zm-7.6-1.163a.379.379,0,0,1,.4.089c.112.112.067.268.045.38,0,.089-.089.157-.179.2-.246.112-.537.224-.783.358a1.2,1.2,0,0,0-.4.336,1.725,1.725,0,0,1,.224-.649,1.434,1.434,0,0,1,.693-.716Zm10.333-1.722c-.022-.112.089-.2.2-.246a1.385,1.385,0,0,1,.537.179.715.715,0,0,0,.313.067,1.256,1.256,0,0,1-.693.2c-.157,0-.335-.067-.358-.2Zm-11.854-.939a.261.261,0,0,1,.224,0,.35.35,0,0,1,.268.335c-.022.157.022.336-.179.447a7.446,7.446,0,0,0-1.029.537,1.521,1.521,0,0,0-.268.268,2.47,2.47,0,0,1,.514-1.23,1.993,1.993,0,0,1,.47-.358Zm4.294-1.678a2.2,2.2,0,0,1,.76-.157,1.01,1.01,0,0,0-.582.335c-.045.067-.089.179-.022.246a1.487,1.487,0,0,0,.335.067c.112.067.067.179.045.268a2.814,2.814,0,0,1-.38.783.3.3,0,0,0-.067.179.333.333,0,0,0,.2-.089,3.646,3.646,0,0,0,.649-.514c.067-.089.2-.179.2-.291.022-.089-.157-.112-.157-.2a.763.763,0,0,1,.425-.291,1.038,1.038,0,0,1,1.141.179,4.078,4.078,0,0,0-.559-.157c-.112,0-.224.045-.246.112a1.726,1.726,0,0,1-.045.335,1.406,1.406,0,0,1-.783.939,2.479,2.479,0,0,0-.425.2.39.39,0,0,0-.134.268,1.308,1.308,0,0,0,.291.045,1.7,1.7,0,0,0,.671-.045c.2-.067.268-.268.47-.336a1.279,1.279,0,0,1,1.409.425c-.157-.067-.291-.179-.47-.246a.567.567,0,0,0-.537.067,1.157,1.157,0,0,0-.336.4.176.176,0,0,1-.157.112c-.134,0-.268-.09-.4-.045-.2.045-.358.134-.559.179a1.218,1.218,0,0,1-.4,0,3.681,3.681,0,0,0-.716-.112c-.112,0-.246,0-.313.089a.569.569,0,0,0-.089.38,6.732,6.732,0,0,1-.2-.917,5.068,5.068,0,0,1-.045-1.163,1.178,1.178,0,0,1,.179.537.238.238,0,0,0,.179.2.459.459,0,0,0,.335-.224,1.008,1.008,0,0,0,.246-.626c0-.112-.157-.112-.224-.179a.371.371,0,0,1-.045-.425c.022-.157.179-.268.358-.335Zm8.947-.514c0-.089.112-.112.2-.089a3.3,3.3,0,0,0,.47,0,.773.773,0,0,1-.47.268c-.112.022-.246-.067-.2-.179Zm.112-1.991a1.542,1.542,0,0,0,.336-.157.535.535,0,0,1-.291.335c-.112.045-.157-.134-.045-.179Zm-5.748-2.035a1.7,1.7,0,0,0,1.1,1.409,7.028,7.028,0,0,0,2.371,0,2.553,2.553,0,0,1,1.61.179,1.292,1.292,0,0,1,.425.559,5.7,5.7,0,0,1,.291.649.734.734,0,0,1-.089.6,1.565,1.565,0,0,0-.313.805c-.022.268-.089.537-.134.805a2.019,2.019,0,0,1-.268.805,7.515,7.515,0,0,1-.537.649,4.785,4.785,0,0,0-.559,1.185c-.112.313-.157.649-.246.962a1.089,1.089,0,0,1-.537.693,11.326,11.326,0,0,1-1.476.47,4.089,4.089,0,0,0-1.074.716,2.094,2.094,0,0,1-.895.514c-.738.112-.917-.47-2.237,0a.543.543,0,0,1-.492-.022c-.313-.157-.358-.582-.693-.76A4.151,4.151,0,0,0,38,214.463a.531.531,0,0,1-.4-.268c-.112-.224-.112-.492-.224-.716-.246-.514-1.1-.693-1.342-1.163-.246-.492.089-.76.089-1.163-.022-.537-.38-.805-1.1-.828a4.089,4.089,0,0,0,.671-1.633,1.04,1.04,0,0,1,.38-.6,2.331,2.331,0,0,1,.76-.246,1.521,1.521,0,0,1,.895.045c.671.358.514,1.342.157,1.745-.492.537-1.7.447-1.476-.425.246.2.492.537.828.157a.318.318,0,0,0,.045-.134.5.5,0,0,0-.336-.336.378.378,0,0,0-.313-.022,1.185,1.185,0,0,0-.716.582c-.268.537.313.962.984.85a2.7,2.7,0,0,0,1.32-.716,10.965,10.965,0,0,0,.067,1.9,5.436,5.436,0,0,0,.47,1.521,2.126,2.126,0,0,0,1.1.962,4.686,4.686,0,0,0,1.678.224,8.563,8.563,0,0,0,3.221-.828,4.41,4.41,0,0,0,2.08-2.259,11.415,11.415,0,0,0,.716-1.61,4.292,4.292,0,0,0,.335-1.655,1.408,1.408,0,0,0-.313-.962c-.559-.693-1.745-.4-2.841-.447-.089.179-.157.358,0,.537.268.291.917.246,1.364.268-1.879.76-3.556-.067-4-1.543.38.492,1.029,1.476,1.968,1.185.358-.112.179-.358.067-.537-.022-.067-.157-.067-.224-.089a1.542,1.542,0,0,1-.984-1.767Zm-5.994-.336c.134.112.179.268.335.358,1.32,1.007,2.505,1.007,4.183,1.051a5.138,5.138,0,0,1-4.473-.872,1.48,1.48,0,0,1-.336-.425c-.089-.2.112-.224.291-.112Zm6.263-.268a2.978,2.978,0,0,1,3.176,1.745,1.814,1.814,0,0,0-1.185-.291c-.067.022-.157.067-.157.134-.022.112.045.2.089.313a1.58,1.58,0,0,1-1.61-.649,3.568,3.568,0,0,0,.514.224,1.064,1.064,0,0,0,.939-.313c.134-.134.045-.336-.112-.447a6.292,6.292,0,0,0-1.655-.716Zm1.387-2.438c.179-.134.336-.291.492-.425a6.688,6.688,0,0,1-4.048,2.326,5.911,5.911,0,0,1-3-.022c-.067-.045-.157-.134-.089-.2a.689.689,0,0,1,.425-.067c.291.022.582,0,.872,0a12.187,12.187,0,0,0,2.214-.224,7.813,7.813,0,0,0,3.131-1.387Zm-13.711-4.183a1,1,0,0,1,.626.067,1.418,1.418,0,0,1,.492.47c.045.089.112.2.067.291-.067.022-.134.022-.2.045a.3.3,0,0,0-.045.2,2.96,2.96,0,0,0,.335.939.27.27,0,0,0,.112.112c.067-.358-.045-.693.112-1.051a.2.2,0,0,1,.134-.134c.134,0,.224.112.335.089.112-.045.089-.157.089-.246-.022-.2-.246-.358-.38-.537a1.694,1.694,0,0,1,.716.716.417.417,0,0,1-.134.514.447.447,0,0,1-.291.045.782.782,0,0,0-.134.76c.022.067.022.179.157.157a2.1,2.1,0,0,0,.582-.313,7.072,7.072,0,0,0-1.141,1.543,1.354,1.354,0,0,0,0-.425c-.022-.089-.112-.134-.2-.179-.224-.112-.492-.179-.716-.268-.246-.112-.358-.336-.514-.514-.089-.112-.268-.045-.38-.134a1.726,1.726,0,0,1-.045-.335c-.045-.179-.045-.4-.246-.537a1.464,1.464,0,0,0-.693-.112h0a1.194,1.194,0,0,1,.559-.112,1.079,1.079,0,0,1,.738.425c.134.134.089.336.224.47a1.179,1.179,0,0,0,.336.246,1.483,1.483,0,0,0,.425.2.506.506,0,0,0-.112-.492,1.458,1.458,0,0,1-.358-.805.811.811,0,0,1,.089-.559c.045-.089.134-.2.067-.291-.112-.179-.38-.2-.6-.246Zm8.388-3.243a23.588,23.588,0,0,0,2.058,1.208c-.157.112-.313.291-.514.291a4.7,4.7,0,0,1-1.543-1.5Zm.895-1.32h0a8.881,8.881,0,0,0,3.2,2.617,2.718,2.718,0,0,0,1.141.335c.246.022.47-.134.693-.134a1.324,1.324,0,0,1,.738.246c.067.045.112.089.112.157a1.242,1.242,0,0,0,.38.76.711.711,0,0,0,.6.089.464.464,0,0,0,.313.358c.179.045.335-.157.537-.089.089.112.134.2.224.313.067.067.2.09.291.157a2.036,2.036,0,0,1,.716.805,2.135,2.135,0,0,0-.738-.582c.022.47-.022,1.1-.335,1.342a1.623,1.623,0,0,0-.179-.85,2.282,2.282,0,0,1-.895.537c.134-.157.4-.358.313-.559a.687.687,0,0,0-.559-.067,1.9,1.9,0,0,0-.783.425c-.067-.157-.112-.313-.179-.447-.157.022-.76.224-.6.492.268.313.671.2.917.246a.718.718,0,0,1,.358.313c.022-.112.022-.246.045-.358a7.14,7.14,0,0,1,.693.984c.291-.134.358-.268.4-.649a1.033,1.033,0,0,1,.134.559.505.505,0,0,0,.179-.246A1.259,1.259,0,0,1,47.125,201c.134-.358.179-.649-.291-.649a9.329,9.329,0,0,0-1.141.179c.134-.067.783-.425.671-.649a.3.3,0,0,0-.224-.134,3.644,3.644,0,0,0-.693-.246c-.112-.022-.224.067-.335.112-.6-.291-.828.067-1.253.134a1.17,1.17,0,0,1-1.1-.514c-.492-.76.246-1.23.872-1.409-.805-.089-1.141.179-1.342,1.007a6.458,6.458,0,0,0-1.074-.224,6.852,6.852,0,0,0-6.106,1.722,7.4,7.4,0,0,0-1.924,4.854A7.218,7.218,0,0,0,34.6,209.5a8.068,8.068,0,0,1-2.281-3.333c-.157.2-.112.425-.157.649-.76-1.029.291-3.646.805-4.809a3.471,3.471,0,0,0-.917.783c-.045-1.476,1.253-2.975,2.595-4.183a4.97,4.97,0,0,0-1.1.4,8.828,8.828,0,0,1,5.726-2.214,12.768,12.768,0,0,0-1.61-.291c1.655-.336,2.773-.358,3.892-1.1.514.336,1.118.671,1.431.582-.895-.649-2.527-2.125-2.841-3.288Zm4.876,3.512c.089.134.224.246.335.38a.6.6,0,0,0,.582.179,1.731,1.731,0,0,0-.157-.358c-.022-.045-.089-.067-.157-.089a2.625,2.625,0,0,1-.6-.112Z" transform="translate(-26.502 -188.696)" fill="#8e969b" fill-rule="evenodd"/>
  </g>
</svg>
