<svg width="195" height="130" viewBox="0 0 195 130" fill="none" xmlns="http://www.w3.org/2000/svg">
<path fill-rule="evenodd" clip-rule="evenodd" d="M0.151978 76.153V81.406C0.314065 89.6365 2.89039 97.6381 7.56098 104.417C11.752 110.729 17.4 114.452 23.829 118.529C28.929 121.704 39.156 125.271 46.095 126.643C55.1186 128.549 64.3124 129.534 73.535 129.583H78.635C110.235 129.583 142.257 120.41 162.916 109.512V94.656C157.35 97.596 150.45 101.516 144.021 103.515C142.649 103.946 140.493 104.848 139.082 105.397C137.318 106.063 135.593 106.497 133.829 107.161C130.308 108.42 126.707 109.442 123.049 110.219C119.325 111.003 115.719 112.061 111.799 112.806C107.722 113.59 104.116 114.06 99.921 114.766C96.001 115.432 91.415 115.707 87.221 115.981C82.909 116.255 78.362 116.491 73.658 116.491H72.678C55.939 116.491 39.946 113.865 28.778 108.259C18.027 102.888 7.99198 92.929 7.99198 76.976V75.529C7.99198 68.003 10.305 62.24 12.5 56.791C13.6527 54.1809 15.0299 51.6758 16.616 49.304C17.439 48.01 18.184 47.07 19.046 45.854C19.83 44.754 21.084 43.58 21.746 42.679V37.463C19.159 39.227 16.415 42.637 14.18 44.95C11.781 47.6245 9.62954 50.5109 7.75198 53.574C4.50298 58.082 0.151978 68.705 0.151978 76.153Z" fill="white"/>
<path fill-rule="evenodd" clip-rule="evenodd" d="M196.153 47.928V43.185C196.114 43.107 195.408 37.893 195.291 37.227C194.969 35.4014 194.457 33.6146 193.762 31.896C192.573 28.6818 190.922 25.6578 188.862 22.919C184.826 17.6736 179.687 13.3782 173.809 10.336C162.637 4.182 145.663 0.417999 128.376 0.417999H126.926C109.051 0.417999 94.233 3.397 80.278 7.356C76.593 8.414 73.614 9.512 70.164 10.649C66.8971 11.7082 63.7021 12.9775 60.599 14.449C57.541 15.978 54.523 17.271 51.544 18.722C49.937 19.506 43.9 23.23 42.881 23.465V27.385C44.214 27.111 49.192 24.327 51.113 23.504C53.9296 22.1381 56.8216 20.9335 59.775 19.896C60.99 19.504 62.95 18.759 64.165 18.25C65.615 17.623 67.144 17.231 68.712 16.721C71.652 15.702 74.984 14.604 78.081 13.821C84.781 12.135 90.703 10.763 98.073 9.47C105.385 8.14378 112.791 7.3968 120.221 7.236H127.551C141.859 7.236 157.382 10.529 166.516 15.625C172.082 18.725 175.846 21.348 179.648 26.17C182.548 29.816 186.155 37.107 186.155 43.497V46.28C186.155 53.101 182.627 60.353 179.687 64.312C177.999 66.6768 176.068 68.8577 173.925 70.819C172.867 71.799 167.888 75.719 166.712 75.993V86.773C169.025 86.573 175.963 82.108 177.727 80.815C181.003 78.407 183.943 75.5727 186.469 72.387C189.071 69.1099 191.245 65.5142 192.937 61.687C193.802 59.6229 194.522 57.5011 195.093 55.337C195.211 54.437 196.151 47.928 196.151 47.928H196.153Z" fill="white"/>
<path fill-rule="evenodd" clip-rule="evenodd" d="M108.109 66.04V68C108.109 79.211 115.009 87.443 126.259 87.443H128.415C131.272 87.428 134.093 86.7999 136.686 85.601C139.312 84.464 140.686 82.543 142.644 81.211L136.215 75.211C134.961 77.093 131.472 78.935 128.179 78.935H126.379C122.145 78.935 118.225 75.329 118.225 71.252V70.115H143.705V65.725C143.728 61.0147 142.29 56.4131 139.589 52.554C137.433 49.692 133.082 46.478 128.221 46.478H125.121C119.986 46.478 115.321 49.692 112.812 52.478C110.264 55.3 108.112 60.671 108.112 66.041L108.109 66.04ZM118.262 62.12V63.257H133.629V62.477C133.629 58.4 130.729 54.794 126.455 54.794H125.593C123.685 54.9037 121.883 55.7112 120.532 57.0628C119.18 58.4144 118.373 60.2157 118.263 62.124L118.262 62.12Z" fill="white"/>
<path fill-rule="evenodd" clip-rule="evenodd" d="M47.859 86.776H57.816V55.22H66.793C67.7278 55.2025 68.6315 55.5554 69.3071 56.2018C69.9826 56.8481 70.3751 57.7354 70.399 58.67V86.777H80.513V58.865C80.513 52.24 76.005 47.105 69.419 47.105H47.859V86.776Z" fill="white"/>
<path fill-rule="evenodd" clip-rule="evenodd" d="M87.881 75.013C87.881 81.713 92.232 86.773 98.857 86.773H105.717V78.313H100.617C99.088 78.313 98.03 76.588 98.03 75.02V55.22H105.713V47.067H98.03V36.091H87.921V75.013H87.881Z" fill="white"/>
<path fill-rule="evenodd" clip-rule="evenodd" d="M149.623 77.173C149.767 79.6775 150.861 82.0329 152.681 83.759C153.577 84.5472 154.615 85.158 155.739 85.559C157.041 85.9923 158.38 86.3072 159.739 86.5V30.6H149.623V77.17V77.173Z" fill="white"/>
<path fill-rule="evenodd" clip-rule="evenodd" d="M28.533 56.438L28.572 76.238C28.572 82.902 32.492 87.214 38.842 87.332V47.105H28.808L28.534 56.435L28.533 56.438Z" fill="white"/>
<path fill-rule="evenodd" clip-rule="evenodd" d="M28.7679 41.539H38.8819V31.895H28.7679V41.539Z" fill="white"/>
<path fill-rule="evenodd" clip-rule="evenodd" d="M170.673 30.563C171.359 30.5601 172.035 30.7358 172.633 31.073C173.28 31.4242 173.812 31.9548 174.165 32.601C174.532 33.203 174.722 33.8961 174.714 34.601C174.727 35.3066 174.537 36.0011 174.165 36.601C173.813 37.2472 173.282 37.7782 172.636 38.13C172.031 38.4895 171.34 38.6793 170.636 38.6793C169.932 38.6793 169.241 38.4895 168.636 38.13C167.99 37.7782 167.459 37.2472 167.107 36.601C166.747 35.9958 166.558 35.3049 166.558 34.601C166.558 33.8971 166.747 33.2062 167.107 32.601C167.47 31.9633 167.998 31.4352 168.636 31.072C169.264 30.7384 169.963 30.5634 170.674 30.562L170.673 30.563ZM170.673 31.229C170.082 31.2181 169.5 31.367 168.987 31.66C168.443 31.9297 168.003 32.3701 167.733 32.914C167.446 33.4313 167.285 34.0089 167.263 34.6C167.266 35.1939 167.428 35.7761 167.733 36.286C168.014 36.8217 168.451 37.2591 168.987 37.54C169.504 37.8269 170.082 37.988 170.673 38.01C171.267 38.0068 171.849 37.8445 172.359 37.54C172.903 37.2704 173.343 36.8299 173.613 36.286C173.9 35.7687 174.061 35.1911 174.083 34.6C174.08 34.0061 173.917 33.4239 173.613 32.914C173.332 32.3784 172.895 31.941 172.359 31.66C171.837 31.3893 171.261 31.2418 170.673 31.229V31.229ZM168.909 36.835V32.484H170.438C170.821 32.4712 171.203 32.5109 171.575 32.602C171.805 32.6731 172 32.8266 172.124 33.033C172.238 33.2238 172.307 33.4384 172.324 33.66C172.328 33.8146 172.299 33.9682 172.238 34.1103C172.177 34.2524 172.086 34.3796 171.971 34.483C171.849 34.6084 171.702 34.7077 171.541 34.7751C171.379 34.8425 171.205 34.8764 171.03 34.875C171.174 34.9296 171.306 35.0091 171.422 35.11C171.662 35.3739 171.872 35.6629 172.049 35.972L172.598 36.795H171.775L171.383 36.129C171.208 35.7411 170.955 35.394 170.638 35.11C170.471 35.0117 170.282 34.9576 170.089 34.953H169.658V36.795L168.913 36.834L168.909 36.835ZM169.575 34.405H170.398C170.682 34.44 170.97 34.3851 171.221 34.248C171.295 34.1872 171.353 34.1084 171.388 34.0191C171.423 33.9298 171.434 33.833 171.421 33.738C171.418 33.6112 171.377 33.4882 171.303 33.385C171.241 33.2854 171.143 33.2138 171.029 33.185C170.798 33.1277 170.561 33.1015 170.323 33.107H169.539V34.401L169.575 34.405Z" fill="white"/>
</svg>
