<svg width="197" height="52" viewBox="0 0 197 52" fill="none" xmlns="http://www.w3.org/2000/svg">
<path fill-rule="evenodd" clip-rule="evenodd" d="M1.83398 0.0599759C1.66809 0.0569934 1.5033 0.0874688 1.34944 0.149583C1.19559 0.211697 1.05583 0.304172 0.938505 0.421495C0.821183 0.538817 0.728704 0.678583 0.66659 0.832437C0.604476 0.986291 0.573999 1.15108 0.576982 1.31697V50.017C0.573999 50.1829 0.604476 50.3477 0.66659 50.5015C0.728704 50.6554 0.821183 50.7951 0.938505 50.9125C1.05583 51.0298 1.19559 51.1223 1.34944 51.1844C1.5033 51.2465 1.66809 51.277 1.83398 51.274H23.668C23.8339 51.277 23.9987 51.2465 24.1525 51.1844C24.3064 51.1223 24.4461 51.0298 24.5635 50.9125C24.6808 50.7951 24.7733 50.6554 24.8354 50.5015C24.8975 50.3477 24.928 50.1829 24.925 50.017V43.773C24.928 43.6071 24.8975 43.4423 24.8354 43.2884C24.7733 43.1346 24.6808 42.9948 24.5635 42.8775C24.4461 42.7602 24.3064 42.6677 24.1525 42.6056C23.9987 42.5435 23.8339 42.513 23.668 42.516H9.33598V1.31597C9.33896 1.15008 9.30849 0.985291 9.24637 0.831437C9.18426 0.677583 9.09178 0.537818 8.97446 0.420495C8.85714 0.303173 8.71737 0.210698 8.56352 0.148584C8.40967 0.0864694 8.24487 0.055994 8.07898 0.0589764H1.83398V0.0599759Z" fill="white"/>
<path fill-rule="evenodd" clip-rule="evenodd" d="M110.375 14.601C110.375 15.6951 110.051 16.7647 109.443 17.6744C108.835 18.5841 107.971 19.2932 106.96 19.7119C105.949 20.1306 104.837 20.2401 103.764 20.0267C102.691 19.8132 101.705 19.2864 100.931 18.5127C100.158 17.739 99.6308 16.7533 99.4173 15.6802C99.2039 14.6071 99.3134 13.4948 99.7321 12.484C100.151 11.4731 100.86 10.6091 101.77 10.0013C102.679 9.39342 103.749 9.06897 104.843 9.06897C105.57 9.06831 106.289 9.21096 106.961 9.48873C107.632 9.76651 108.242 10.174 108.756 10.6878C109.27 11.2016 109.678 11.8117 109.955 12.4832C110.233 13.1547 110.376 13.8743 110.375 14.601V14.601Z" fill="white"/>
<path fill-rule="evenodd" clip-rule="evenodd" d="M101.449 23.863C101.449 24.7913 101.174 25.6989 100.658 26.4708C100.142 27.2427 99.4091 27.8444 98.5513 28.1996C97.6936 28.5549 96.7498 28.6479 95.8393 28.4668C94.9287 28.2856 94.0923 27.8386 93.4359 27.1821C92.7794 26.5256 92.3324 25.6893 92.1512 24.7787C91.9701 23.8682 92.0631 22.9244 92.4183 22.0666C92.7736 21.2089 93.3753 20.4758 94.1472 19.96C94.9191 19.4443 95.8267 19.169 96.755 19.169C97.3718 19.1679 97.9826 19.2886 98.5526 19.5241C99.1226 19.7596 99.6405 20.1054 100.077 20.5414C100.513 20.9775 100.858 21.4954 101.094 22.0654C101.329 22.6354 101.45 23.2462 101.449 23.863V23.863Z" fill="white"/>
<path fill-rule="evenodd" clip-rule="evenodd" d="M111.213 50.2669C111.8 50.9379 111.548 51.5239 110.668 51.5239H99.1409C98.1032 51.4786 97.1248 51.0272 96.4169 50.2669L65.995 15.7749C65.408 15.1039 65.6599 14.5179 66.5399 14.5179H78.064C79.1017 14.5633 80.0801 15.0147 80.788 15.7749L111.213 50.2649V50.2669ZM88.6249 29.062C87.8376 29.062 87.0679 29.2954 86.4132 29.7329C85.7586 30.1703 85.2483 30.7921 84.947 31.5195C84.6457 32.2469 84.5668 33.0474 84.7204 33.8196C84.8741 34.5918 85.2532 35.3012 85.81 35.8579C86.3667 36.4147 87.0761 36.7938 87.8483 36.9475C88.6205 37.1011 89.421 37.0222 90.1484 36.7209C90.8758 36.4196 91.4976 35.9093 91.935 35.2547C92.3725 34.6 92.606 33.8303 92.606 33.0429C92.5991 31.9892 92.1775 30.9806 91.4324 30.2355C90.6873 29.4904 89.6787 29.0688 88.6249 29.062V29.062Z" fill="white"/>
<path fill-rule="evenodd" clip-rule="evenodd" d="M84.476 41.465C84.476 42.1115 84.2843 42.7436 83.9251 43.2811C83.5659 43.8187 83.0553 44.2377 82.458 44.4851C81.8606 44.7326 81.2034 44.7973 80.5692 44.6712C79.9351 44.545 79.3526 44.2337 78.8955 43.7765C78.4383 43.3193 78.1269 42.7369 78.0008 42.1027C77.8747 41.4686 77.9394 40.8113 78.1868 40.214C78.4342 39.6167 78.8532 39.1061 79.3908 38.7469C79.9284 38.3877 80.5604 38.196 81.207 38.196C82.0737 38.197 82.9045 38.5418 83.5174 39.1546C84.1302 39.7674 84.4749 40.5983 84.476 41.465V41.465Z" fill="white"/>
<path fill-rule="evenodd" clip-rule="evenodd" d="M77.0999 49.217C77.0999 49.7391 76.9451 50.2495 76.655 50.6837C76.3649 51.1178 75.9526 51.4562 75.4702 51.656C74.9878 51.8558 74.457 51.9081 73.9449 51.8062C73.4328 51.7044 72.9624 51.4529 72.5932 51.0837C72.224 50.7145 71.9725 50.2441 71.8707 49.732C71.7688 49.2199 71.8211 48.6891 72.0209 48.2067C72.2207 47.7243 72.5591 47.312 72.9932 47.0219C73.4274 46.7318 73.9378 46.577 74.4599 46.577C75.1588 46.5812 75.8279 46.8606 76.3221 47.3548C76.8163 47.849 77.0957 48.5181 77.0999 49.217V49.217Z" fill="white"/>
<path fill-rule="evenodd" clip-rule="evenodd" d="M111.799 33.088C111.807 38.0871 113.796 42.8792 117.331 46.4141C120.866 49.949 125.658 51.9383 130.657 51.946C134.634 51.9514 138.508 50.6874 141.717 48.338V50.056C141.714 50.2219 141.744 50.3867 141.807 50.5405C141.869 50.6944 141.961 50.8341 142.078 50.9515C142.196 51.0688 142.336 51.1613 142.489 51.2234C142.643 51.2855 142.808 51.316 142.974 51.313H148.59C148.756 51.316 148.921 51.2855 149.074 51.2234C149.228 51.1613 149.368 51.0688 149.485 50.9515C149.603 50.8341 149.695 50.6944 149.757 50.5405C149.819 50.3867 149.85 50.2219 149.847 50.056V16.195C149.85 16.0291 149.819 15.8643 149.757 15.7104C149.695 15.5566 149.603 15.4168 149.485 15.2995C149.368 15.1822 149.228 15.0897 149.074 15.0276C148.921 14.9655 148.756 14.935 148.59 14.938H142.974C142.808 14.935 142.643 14.9655 142.489 15.0276C142.336 15.0897 142.196 15.1822 142.078 15.2995C141.961 15.4168 141.869 15.5566 141.807 15.7104C141.744 15.8643 141.714 16.0291 141.717 16.195V17.788C138.506 15.4405 134.63 14.1793 130.653 14.188C125.648 14.1991 120.851 16.1953 117.316 19.7385C113.78 23.2817 111.795 28.0826 111.795 33.088H111.799ZM119.929 33.004C119.929 26.718 124.79 21.604 130.741 21.604C136.692 21.604 141.553 26.717 141.553 33.004C141.553 39.291 136.692 44.404 130.741 44.404C124.748 44.404 119.929 39.291 119.929 33.004Z" fill="white"/>
<path fill-rule="evenodd" clip-rule="evenodd" d="M46.592 14.188C43.4208 14.1886 40.3009 14.989 37.521 16.515C34.7411 18.0411 32.3909 20.2435 30.6879 22.9187C28.9848 25.5938 27.9839 28.6552 27.7777 31.8197C27.5715 34.9842 28.1666 38.1497 29.5081 41.0232C30.8496 43.8967 32.8941 46.3855 35.4524 48.2594C38.0107 50.1333 41.0004 51.3318 44.1447 51.744C47.289 52.1562 50.4865 51.7688 53.4414 50.6176C56.3963 49.4664 59.0132 47.5887 61.05 45.158C61.1814 44.9741 61.2545 44.755 61.26 44.529C61.2658 44.3125 61.2044 44.0996 61.0842 43.9194C60.9641 43.7393 60.7911 43.6008 60.589 43.523L55.099 41.223C54.9786 41.1752 54.8513 41.1468 54.722 41.139C54.4443 41.1464 54.1778 41.25 53.968 41.432C52.0188 43.3426 49.4053 44.4239 46.676 44.449C44.1842 44.3938 41.7853 43.4926 39.8736 41.8933C37.9619 40.294 36.6512 38.0919 36.157 35.649H65.324C65.4425 34.8022 65.4986 33.948 65.492 33.093C65.492 28.0804 63.5007 23.2731 59.9563 19.7287C56.4119 16.1842 51.6046 14.193 46.592 14.193V14.188ZM36.664 28.767C37.3853 26.6849 38.7375 24.8793 40.5326 23.6014C42.3277 22.3235 44.4765 21.6368 46.68 21.6368C48.8835 21.6368 51.0322 22.3235 52.8273 23.6014C54.6224 24.8793 55.9747 26.6849 56.696 28.767H36.664Z" fill="white"/>
<path fill-rule="evenodd" clip-rule="evenodd" d="M168.039 17.0319V16.1519C168.042 15.986 168.012 15.8213 167.949 15.6674C167.887 15.5136 167.795 15.3738 167.677 15.2565C167.56 15.1391 167.42 15.0467 167.267 14.9846C167.113 14.9224 166.948 14.892 166.782 14.8949H161.166C161 14.892 160.835 14.9224 160.681 14.9846C160.528 15.0467 160.388 15.1391 160.271 15.2565C160.153 15.3738 160.061 15.5136 159.999 15.6674C159.937 15.8213 159.906 15.986 159.909 16.1519V50.0519C159.91 50.385 160.043 50.7041 160.278 50.9396C160.514 51.1751 160.833 51.3079 161.166 51.3089H166.782C167.113 51.3008 167.428 51.1658 167.662 50.9318C167.896 50.6978 168.031 50.3828 168.039 50.0519V32.2449C168.039 28.9339 168.332 26.5039 169.422 24.7449C169.997 23.8182 170.79 23.0468 171.733 22.4987C172.675 21.9507 173.738 21.6427 174.828 21.6019C175.729 21.5881 176.625 21.7445 177.468 22.0629C178.136 22.3736 178.735 22.8157 179.228 23.3629L184.215 17.7049C183.419 16.9191 182.533 16.23 181.575 15.6519C179.959 14.667 178.103 14.1451 176.211 14.1429C174.158 14.1849 170.763 14.3109 168.039 17.0349V17.0319Z" fill="white"/>
<path fill-rule="evenodd" clip-rule="evenodd" d="M190.625 15.444H188.991V19.76H188.404V15.444H186.812V14.899H190.625V15.444Z" fill="white"/>
<path fill-rule="evenodd" clip-rule="evenodd" d="M191.549 14.895H192.429L194.063 18.709L195.739 14.895H196.577V19.756H195.99V15.692L194.23 19.757H193.895L192.135 15.692V19.757H191.548L191.549 14.895Z" fill="white"/>
</svg>
