<svg width="195" height="42" viewBox="0 0 195 42" fill="none" xmlns="http://www.w3.org/2000/svg">
<path fill-rule="evenodd" clip-rule="evenodd" d="M98.847 11.701C93.5969 11.6982 88.4689 13.284 84.137 16.25C84.537 14.771 84.937 13.305 85.337 11.701H72.358L68.752 26.549C67.535 31.636 66.332 36.586 65.129 41.673H77.972L81.456 27.489C83.196 20.135 86.267 16.389 92.293 16.249C97.643 16.249 99.648 19.456 97.906 26.41L94.16 41.673H107.142L111.564 23.466C112.49 19.457 111.287 16.789 109.284 14.766C107.281 12.743 103.794 11.697 98.847 11.697V11.701ZM190.455 8.73098C189.601 8.73078 188.766 8.98383 188.056 9.45814C187.346 9.93244 186.792 10.6067 186.465 11.3956C186.138 12.1846 186.052 13.0527 186.219 13.8904C186.385 14.728 186.796 15.4975 187.4 16.1016C188.004 16.7056 188.773 17.117 189.611 17.2838C190.448 17.4506 191.316 17.3653 192.105 17.0387C192.895 16.712 193.569 16.1587 194.044 15.4488C194.518 14.7388 194.772 13.904 194.772 13.05C194.767 11.9066 194.31 10.8115 193.502 10.0029C192.693 9.19424 191.598 8.7375 190.455 8.73198V8.73098ZM190.455 16.902C189.693 16.902 188.948 16.676 188.314 16.2526C187.681 15.8293 187.187 15.2275 186.895 14.5235C186.604 13.8194 186.527 13.0447 186.676 12.2973C186.825 11.5499 187.192 10.8633 187.73 10.3245C188.269 9.78564 188.956 9.41868 189.703 9.27001C190.451 9.12134 191.225 9.19765 191.929 9.48927C192.634 9.7809 193.235 10.2747 193.659 10.9084C194.082 11.542 194.308 12.2869 194.308 13.049C194.307 14.0705 193.9 15.0499 193.178 15.7724C192.456 16.4948 191.477 16.9014 190.455 16.903V16.902ZM192.476 12.09C192.495 11.8476 192.459 11.604 192.371 11.3774C192.283 11.1507 192.145 10.9469 191.967 10.781C191.539 10.4517 191.005 10.2912 190.467 10.33H188.897V15.782H189.683V13.252L191.5 15.782H192.474L190.948 13.674C191.361 13.6668 191.755 13.5001 192.048 13.209C192.188 13.0592 192.298 12.8831 192.37 12.6909C192.442 12.4987 192.476 12.2942 192.469 12.089L192.476 12.09ZM191.313 12.89C190.938 13.0896 190.515 13.1804 190.092 13.152H189.685V11.073H190.285C190.664 11.0359 191.045 11.1173 191.376 11.306C191.49 11.406 191.581 11.5302 191.641 11.6696C191.701 11.809 191.73 11.96 191.724 12.1118C191.718 12.2635 191.679 12.4121 191.609 12.5467C191.539 12.6814 191.439 12.7986 191.318 12.89H191.313ZM178.722 12.366C174.793 11.5663 170.743 11.5663 166.814 12.366C165.111 12.7281 163.449 13.2643 161.856 13.966C158.526 15.449 158.105 17.049 156.913 19.317C157.989 19.055 160.534 17.717 163.47 16.917C164.57 16.6254 165.687 16.402 166.814 16.248C171.365 15.448 176.046 15.986 174.709 21.337C172.075 21.291 169.44 21.3785 166.814 21.599C165.476 21.744 164.27 21.861 163.077 22.006C155.444 23.46 150.893 28.432 150.5 32.984V34.176C150.893 38.334 154.774 41.795 163.339 41.795L166.814 41.679H170.289L179.521 41.534L184.927 20.185C185.263 18.988 185.267 17.7223 184.94 16.523C184.214 14.117 182.299 12.995 178.723 12.366H178.722ZM170.972 37.389L167.072 37.52H166.81C156.91 37.389 157.301 27.75 165.342 25.612C165.88 25.481 166.273 25.35 166.81 25.205C169.253 24.94 171.709 24.8088 174.167 24.812L170.972 37.389ZM47.472 9.55898H-0.163027L-1.22803 14.646H15.098L8.27197 41.937H21.251L28.066 14.647L47.472 9.55898ZM145.949 0.065979L142.605 12.905H136.164C134.564 12.905 133.096 13.036 131.628 13.167C127.508 13.3937 123.489 14.536 119.866 16.511C117.932 17.6352 116.277 19.1812 115.023 21.0337C113.769 22.8863 112.95 24.9978 112.625 27.211C112.482 27.9204 112.394 28.6399 112.363 29.363V30.556C112.406 32.0034 112.764 33.4241 113.412 34.7192C114.06 36.0144 114.982 37.153 116.114 38.056C118.237 39.786 121.857 40.193 123.471 40.193C126.233 40.0712 128.971 39.6221 131.628 38.855C133.315 38.4538 134.939 37.8229 136.455 36.98C134.827 36.849 133.227 36.98 131.628 36.98C128.676 36.98 125.87 36.587 123.733 34.58C121.989 32.98 121.465 30.553 122.133 27.209C122.293 25.7873 122.743 24.4136 123.456 23.1731C124.169 21.9325 125.129 20.8515 126.276 19.997C127.893 18.9204 129.715 18.1879 131.627 17.845C134.871 17.4669 138.144 17.423 141.397 17.714L136.454 36.979C135.966 38.5225 135.563 40.0915 135.247 41.679C139.521 41.679 145.947 42.072 146.878 38.727L156.781 0.065979H145.949ZM64.472 30.701C63.5075 30.7617 62.5777 31.0835 61.782 31.632C57.668 34.1512 53.1388 35.9187 48.406 36.852C46.7281 37.1205 45.0312 37.2519 43.332 37.245C41.3752 37.2816 39.4405 36.8267 37.705 35.922C37.0818 35.5733 36.5582 35.0709 36.1841 34.4627C35.8101 33.8544 35.5979 33.1604 35.568 32.447C35.568 30.164 36.499 28.957 38.243 28.957H41.326C43.7035 28.9892 46.0775 28.7649 48.407 28.288C50.8708 27.837 53.2892 27.1656 55.633 26.282C58.7478 25.1619 61.6783 23.5839 64.328 21.6C66.611 19.739 67.818 17.994 67.934 16.395V15.988C67.8663 15.3698 67.633 14.7814 67.2589 14.2848C66.8847 13.7881 66.3834 13.4016 65.808 13.166C63.8181 12.1706 61.6037 11.7096 59.382 11.828C55.6543 11.836 51.9506 12.4244 48.404 13.572C47.2212 13.895 46.0605 14.2938 44.929 14.766C40.2026 16.5219 35.8766 19.2082 32.207 22.666C28.064 26.693 25.94 30.561 25.94 34.312C25.94 36.595 27.132 38.339 29.401 39.677C32.3083 41.1243 35.534 41.8143 38.779 41.683C41.9749 41.6845 45.1603 41.317 48.272 40.588H48.403C51.455 39.871 54.4522 38.938 57.372 37.796C59.3495 36.8654 61.2295 35.7402 62.984 34.437C64.728 33.099 65.659 32.037 65.659 31.354C65.659 30.962 65.265 30.7 64.466 30.7L64.472 30.701ZM39.985 22.66C41.098 21.5371 42.3043 20.5108 43.591 19.592C45.0741 18.4985 46.6913 17.5995 48.403 16.917C50.153 16.0502 52.0771 15.5927 54.03 15.579C55.1468 15.5884 56.2447 15.868 57.23 16.394C57.5631 16.5765 57.8406 16.846 58.0327 17.1737C58.2248 17.5014 58.3245 17.8751 58.321 18.255C58.321 19.2 57.637 20.392 56.169 21.599C54.6151 22.7722 52.9014 23.7171 51.08 24.405C50.149 24.681 49.35 24.812 48.405 25.089C45.9321 25.5198 43.4271 25.7389 40.917 25.744C39.187 25.744 38.387 25.482 38.387 25.089C38.387 24.55 38.912 23.882 39.987 22.66H39.985Z" fill="white"/>
</svg>
