<svg xmlns="http://www.w3.org/2000/svg" width="104.687" height="16.649" viewBox="0 0 104.687 16.649">
  <g id="galax" transform="translate(-72.996 -436.28)">
    <path id="Path_451" data-name="Path 451" d="M85.563,452.922a43.132,43.132,0,0,1-5.769-.2c-5.414-.857-7.2-4.544-6.724-9.321.38-3.883,2.535-6.026,6.406-6.724a15.711,15.711,0,0,1,2.511-.245c3.038-.037,6.075.012,9.125-.037,1.017-.012,1.225.429,1.213,1.323-.012.857-.135,1.384-1.188,1.36-2.744-.049-5.5-.025-8.243-.012a13.139,13.139,0,0,0-3.381.38,5.468,5.468,0,0,0-.122,10.436,9.251,9.251,0,0,0,2.376.38c2.229.012,4.471-.012,6.7.012.845.012,1.2-.343,1.188-1.188-.024-1.543.037-3.074-.024-4.618-.037-1.041.563-1.09,1.335-1.09s1.347.061,1.335,1.09c-.049,2.45-.037,4.912,0,7.361.012.808-.294,1.115-1.1,1.09C89.446,452.9,87.695,452.922,85.563,452.922Z" transform="translate(0 -0.104)" fill="#8e969b"/>
    <path id="Path_452" data-name="Path 452" d="M776.1,452.659c.661-.71,1.2-1.286,1.752-1.862,1.825-1.9,3.638-3.822,5.5-5.7.551-.551.5-.882-.024-1.409-2.107-2.082-4.189-4.213-6.259-6.333-.245-.245-.588-.441-.661-.931,1.482-.184,2.817-.269,3.956,1.078,1.372,1.617,2.952,3.05,4.385,4.618.551.6.882.649,1.458.024,1.384-1.519,2.927-2.891,4.226-4.471a3.846,3.846,0,0,1,4.1-1.274c.073.441-.282.588-.49.808-2.131,2.168-4.25,4.348-6.418,6.492-.527.527-.588.845-.037,1.409,2.217,2.242,4.385,4.52,6.565,6.8.208.22.637.429.478.772s-.588.135-.906.171a2.686,2.686,0,0,1-2.425-.992c-1.678-1.788-3.454-3.491-5.144-5.267-.527-.551-.845-.576-1.384,0-1.58,1.678-3.295,3.246-4.814,4.973A3.61,3.61,0,0,1,776.1,452.659Z" transform="translate(-616.984 0)" fill="#8e969b"/>
    <path id="Path_453" data-name="Path 453" d="M431.083,452.9c-2.339,0-4.691.049-7.031-.012-2.119-.061-3.442-1-3.871-2.633a6.339,6.339,0,0,1-.159-1.519c-.012-3.662.025-7.325-.025-10.987-.012-1.115.453-1.323,1.445-1.347,1.09-.012,1.262.49,1.249,1.409-.037,3.038-.012,6.075-.012,9.125,0,2.339.943,3.307,3.344,3.332,3.7.037,7.4.012,11.1.012.367,0,.735.025,1.1,0,.98-.086,1.164.453,1.151,1.286s-.073,1.421-1.151,1.4c-2.376-.049-4.765-.012-7.141-.012Z" transform="translate(-304.5 -0.104)" fill="#8e969b"/>
    <path id="Path_454" data-name="Path 454" d="M600.3,453.53c-1.4-.012-1.445-.086-.919-1.139q3.215-6.43,6.443-12.849a11.072,11.072,0,0,1,.7-1.237c1.127-1.678,2.829-1.69,3.846.061.906,1.543,1.666,3.172,2.474,4.765q2.388,4.63,4.752,9.26c.5.98.416,1.066-.674,1.139a2.037,2.037,0,0,1-2.229-1.335c-1.752-3.662-3.6-7.276-5.414-10.9-.2-.38-.318-.931-.8-.955-.515-.025-.637.539-.833.919-1.874,3.687-3.748,7.361-5.6,11.06C601.639,453.175,601.137,453.738,600.3,453.53Z" transform="translate(-461.643 -0.675)" fill="#8e969b"/>
    <path id="Path_455" data-name="Path 455" d="M253.371,453.606c-1.47.012-1.543-.086-.968-1.249q3.142-6.283,6.3-12.567a11.1,11.1,0,0,1,.821-1.433c1.115-1.641,2.744-1.629,3.8.049a26.941,26.941,0,0,1,1.3,2.413c1.886,3.76,3.773,7.521,5.622,11.305.208.416.87.894.245,1.409a2.5,2.5,0,0,1-2.339-.429,7.466,7.466,0,0,1-.478-.87c-1.752-3.5-3.491-7.018-5.255-10.509-.257-.5-.355-1.311-1.029-1.286-.576.012-.71.759-.955,1.237q-2.738,5.383-5.451,10.791C254.6,453.227,254.142,453.766,253.371,453.606Z" transform="translate(-157.139 -0.752)" fill="#8e969b"/>
  </g>
</svg>
