<svg id="gigabyte" xmlns="http://www.w3.org/2000/svg" width="151.887" height="19.345" viewBox="0 0 151.887 19.345">
  <path id="Path_395" data-name="Path 395" d="M447.7,235.5h13.97v3.188h-9.657v4.75h8.469v3h-8.469v5.25h9.657v3.157H447.7Z" transform="translate(-309.783 -235.5)" fill="#8e969b" fill-rule="evenodd"/>
  <path id="Path_396" data-name="Path 396" d="M383.8,235.5h16.6v3.188H394.27v16.158h-4.282V238.688H383.8Z" transform="translate(-265.853 -235.5)" fill="#8e969b" fill-rule="evenodd"/>
  <path id="Path_397" data-name="Path 397" d="M317.6,235.5h4.688l4.594,8.188,4.344-8.188h4.75l-7.282,11.782v7.563h-4.344v-8.188Z" transform="translate(-220.342 -235.5)" fill="#8e969b" fill-rule="evenodd"/>
  <path id="Path_398" data-name="Path 398" d="M263.488,252.1h4.032a4.088,4.088,0,0,0,1.438-.219,3.193,3.193,0,0,0,1.094-.656,2.732,2.732,0,0,0,.875-1.969,2.489,2.489,0,0,0-.375-1.344,3.189,3.189,0,0,0-1.156-1.063,3.828,3.828,0,0,0-1.844-.438h-4.032V252.1Zm0-8.657h3.594a3.365,3.365,0,0,0,2.313-.813,2.458,2.458,0,0,0,.875-1.844,2.317,2.317,0,0,0-.813-1.75,2.608,2.608,0,0,0-1-.563,4.744,4.744,0,0,0-1.406-.219h-3.594v5.188ZM259.3,235.5h8.876a7.612,7.612,0,0,1,3.407.719,5.537,5.537,0,0,1,2.156,1.875,4.587,4.587,0,0,1,.719,2.407,4.308,4.308,0,0,1-3.532,4.282,4.579,4.579,0,0,1,2.281.906,5.869,5.869,0,0,1,1.531,1.875,5.414,5.414,0,0,1,.531,2.281,4.6,4.6,0,0,1-.688,2.469,5.009,5.009,0,0,1-2.094,1.813,7.907,7.907,0,0,1-3.532.688h-9.594V235.5Z" transform="translate(-180.262 -235.5)" fill="#8e969b" fill-rule="evenodd"/>
  <path id="Path_399" data-name="Path 399" d="M187.063,235.5h5.032l6.094,14.814,1.906,4.532H195.5l-1.469-4.532h-9.594l-1.719,4.532H178l6.813-14.751,2.25-4.594Zm5.563,11.564-3.094-8.657-3.563,8.657Z" transform="translate(-124.371 -235.5)" fill="#8e969b" fill-rule="evenodd"/>
  <path id="Path_400" data-name="Path 400" d="M83.5,235.5h4.532v19.345H83.5Z" transform="translate(-59.404 -235.5)" fill="#8e969b" fill-rule="evenodd"/>
  <path id="Path_401" data-name="Path 401" d="M25.12,236.1v3.313H16.651c-3.313,0-5.563,4.032-5.688,6.032s1.781,6.344,4.157,6.376l5.469.031v-7.5h4.563v10.47l-9.282.406c-6.313.281-9.47-4.907-9.47-9.5s3.594-9.595,11.095-9.595H25.12Z" transform="translate(-6.4 -235.912)" fill="#8e969b" fill-rule="evenodd"/>
  <path id="Path_402" data-name="Path 402" d="M128.92,236.1v3.313h-8.469c-3.313,0-5.563,4.032-5.688,6.032s1.781,6.344,4.157,6.376l5.469.031v-7.5h4.563v10.47l-9.282.406c-6.313.281-9.47-4.907-9.47-9.5s3.594-9.595,11.095-9.595h7.626Z" transform="translate(-77.76 -235.912)" fill="#8e969b" fill-rule="evenodd"/>
</svg>
