<svg xmlns="http://www.w3.org/2000/svg" width="80.36" height="53" viewBox="0 0 80.36 53">
  <g id="intel" transform="translate(-79.6 -135)">
    <path id="Path_432" data-name="Path 432" d="M79.6,214.567v2.151a17.435,17.435,0,0,0,3.035,9.439c1.72,2.581,4.038,4.134,6.667,5.783a32.236,32.236,0,0,0,9.128,3.321,55.8,55.8,0,0,0,11.255,1.219h2.079c12.951,0,26.094-3.752,34.553-8.244v-6.093a47.225,47.225,0,0,1-7.766,3.632c-.573.167-1.458.55-2.031.765-.717.263-1.434.454-2.151.717a35.6,35.6,0,0,1-4.445,1.266c-1.529.335-3.011.741-4.612,1.075-1.673.335-3.154.5-4.875.812a51.511,51.511,0,0,1-5.185.5c-1.792.119-3.632.191-5.568.191h-.406c-6.858,0-13.405-1.075-17.993-3.369-4.4-2.2-8.531-6.284-8.531-12.832v-.6a19.689,19.689,0,0,1,1.84-7.67,17.27,17.27,0,0,1,1.7-3.059c.358-.526.645-.908,1-1.41.335-.454.836-.932,1.1-1.314V198.7a23.46,23.46,0,0,0-3.106,3.059,25.381,25.381,0,0,0-2.628,3.513,20.1,20.1,0,0,0-3.059,9.3Z" transform="translate(0 -48.479)" fill="#8e969b" fill-rule="evenodd"/>
    <path id="Path_433" data-name="Path 433" d="M215.593,154.5v-1.936c-.024-.024-.311-2.174-.358-2.461a12.361,12.361,0,0,0-.621-2.2,14.357,14.357,0,0,0-2.007-3.68,18.8,18.8,0,0,0-6.165-5.161C201.877,136.529,194.9,135,187.8,135h-.6a67.6,67.6,0,0,0-19.116,2.844c-1.505.43-2.748.86-4.158,1.338a35.566,35.566,0,0,0-3.943,1.553c-1.243.621-2.509,1.147-3.728,1.768-.645.311-3.154,1.84-3.56,1.936v1.6c.55-.119,2.581-1.243,3.369-1.577,1.075-.454,2.437-1.147,3.537-1.482a18.57,18.57,0,0,0,1.816-.669c.6-.263,1.219-.406,1.864-.621,1.219-.406,2.557-.86,3.847-1.195,2.748-.693,5.185-1.243,8.2-1.792a57.286,57.286,0,0,1,9.08-.908h3.011c5.878,0,12.211,1.338,15.986,3.441a16.022,16.022,0,0,1,5.4,4.325,12.838,12.838,0,0,1,2.676,7.121v1.147a13.534,13.534,0,0,1-2.652,7.384,18.059,18.059,0,0,1-2.366,2.676,18.4,18.4,0,0,1-2.963,2.127v4.421c.956-.072,3.775-1.912,4.516-2.461a18.944,18.944,0,0,0,3.584-3.465,20.107,20.107,0,0,0,2.652-4.4,19.578,19.578,0,0,0,.884-2.6c.072-.335.454-3.011.454-3.011Z" transform="translate(-55.632)" fill="#8e969b" fill-rule="evenodd"/>
    <path id="Path_434" data-name="Path 434" d="M264.8,222.129v.812c0,4.612,2.82,7.981,7.431,7.981h.86a8.073,8.073,0,0,0,3.393-.765,13.342,13.342,0,0,0,2.461-1.792l-2.629-2.461a4.406,4.406,0,0,1-3.274,1.529H272.3a3.371,3.371,0,0,1-3.345-3.154V223.8H279.4v-1.816a9.363,9.363,0,0,0-1.7-5.4,6.267,6.267,0,0,0-4.66-2.485h-1.266a7.241,7.241,0,0,0-5.042,2.461,8.849,8.849,0,0,0-1.935,5.568Zm4.158-1.625v.478h6.284v-.335a3.017,3.017,0,0,0-2.939-3.154h-.335a3.219,3.219,0,0,0-3.011,3.011Z" transform="translate(-140.946 -60.199)" fill="#8e969b" fill-rule="evenodd"/>
    <path id="Path_435" data-name="Path 435" d="M161.4,231.473h4.086V218.545h3.68a1.444,1.444,0,0,1,1.482,1.41v11.518h4.158V220.027a4.541,4.541,0,0,0-4.564-4.827H161.4v16.273Z" transform="translate(-62.254 -61.036)" fill="#8e969b" fill-rule="evenodd"/>
    <path id="Path_436" data-name="Path 436" d="M230.1,212.338c0,2.748,1.792,4.827,4.492,4.827h2.82v-3.489h-2.079c-.621,0-1.075-.717-1.075-1.338v-8.1h3.154v-3.345h-3.154V196.4H230.1v15.938Z" transform="translate(-114.537 -46.728)" fill="#8e969b" fill-rule="evenodd"/>
    <path id="Path_437" data-name="Path 437" d="M336,205.969a3.961,3.961,0,0,0,1.266,2.7,3.692,3.692,0,0,0,1.266.741,10,10,0,0,0,1.625.382V186.9H336v19.069Z" transform="translate(-195.132 -39.498)" fill="#8e969b" fill-rule="evenodd"/>
    <path id="Path_438" data-name="Path 438" d="M128.3,219l.024,8.1c0,2.748,1.6,4.492,4.229,4.564V215.2h-4.134L128.3,219Z" transform="translate(-37.063 -61.036)" fill="#8e969b" fill-rule="evenodd"/>
    <path id="Path_439" data-name="Path 439" d="M128.6,193.043h4.158V189.1H128.6Z" transform="translate(-37.291 -41.173)" fill="#8e969b" fill-rule="evenodd"/>
    <path id="Path_440" data-name="Path 440" d="M366.7,186.8a1.654,1.654,0,0,1,.812.215,1.555,1.555,0,0,1,.621.621,1.734,1.734,0,0,1,0,1.673,1.555,1.555,0,0,1-.621.621,1.734,1.734,0,0,1-1.673,0,1.554,1.554,0,0,1-.621-.621,1.734,1.734,0,0,1,0-1.673,1.554,1.554,0,0,1,.621-.621,2.07,2.07,0,0,1,.86-.215Zm0,.263a1.481,1.481,0,0,0-1.219.693,1.352,1.352,0,0,0,0,1.386,1.189,1.189,0,0,0,.526.5,1.352,1.352,0,0,0,1.386,0,1.268,1.268,0,0,0,.5-.5,1.352,1.352,0,0,0,0-1.386,1.189,1.189,0,0,0-.526-.5,1.284,1.284,0,0,0-.669-.191Zm-.717,2.318v-1.792h.621a1.853,1.853,0,0,1,.454.048.381.381,0,0,1,.215.167.482.482,0,0,1,.072.263.472.472,0,0,1-.143.335.63.63,0,0,1-.382.167.219.219,0,0,1,.143.1,1.732,1.732,0,0,1,.263.358l.215.358h-.358l-.167-.287a1.022,1.022,0,0,0-.311-.406.317.317,0,0,0-.239-.072h-.167v.765Zm.287-1h.358a.529.529,0,0,0,.335-.072.217.217,0,0,0,.1-.191.339.339,0,0,0-.048-.143.238.238,0,0,0-.119-.1.824.824,0,0,0-.287-.024h-.335v.526Z" transform="translate(-217.203 -39.422)" fill="#8e969b" fill-rule="evenodd"/>
  </g>
</svg>
