<svg xmlns="http://www.w3.org/2000/svg" width="122.56" height="25.127" viewBox="0 0 122.56 25.127">
  <g id="kingston-technology" transform="translate(-46.2 -18.3)">
    <g id="Group_302" data-name="Group 302" transform="translate(68.08 18.3)">
      <g id="Group_301" data-name="Group 301" transform="translate(0 5.157)">
        <path id="Path_463" data-name="Path 463" d="M129.5,45.887v6.239c0,2.336.256,3.419,2.65,3.419v.228H123v-.228c2.706,0,2.393-2.906,2.393-5.242V43.636c0-2.336.484-6.98-2.222-6.98v-.228h8.746v.228c-2.251,0-2.422,1.367-2.422,3.7v4.9l.4.028c3.647-3.647,4.074-4.3,4.33-4.7,1.823-2.963.114-3.846-.912-3.846V36.4h7.436v.342c-1.282,0-3.675,1.966-5.071,3.134l-5.5,5.527c7.493.342,7.322,4.273,8.176,7.179.484,1.652.769,2.649,2.564,3.02v.2h-6.666C133.228,50.1,132.743,45.4,129.5,45.887Z" transform="translate(-123 -36.4)" fill="#8e969b"/>
      </g>
      <path id="Path_464" data-name="Path 464" d="M192.64,46.685c0,2.678.427,3.419,1.994,3.419v.2h-7.778v-.2c1.6,0,1.709-1.852,1.709-3.419V39.619c0-1.852-.4-2.877-1.966-2.877V36.4h6.04Z" transform="translate(-168.481 -31.243)" fill="#8e969b"/>
      <path id="Path_465" data-name="Path 465" d="M194.965,18.3a2.165,2.165,0,1,1-2.165,2.165A2.183,2.183,0,0,1,194.965,18.3Z" transform="translate(-172.915 -18.3)" fill="#8e969b"/>
      <path id="Path_466" data-name="Path 466" d="M220.925,37.494c1.367-1.966,2.279-1.994,3.846-1.994,3.7,0,4.017,2.849,4.017,5.242v5.27c0,2.593.256,3.419,1.709,3.419v.2H223.09v-.2c1.31,0,1.31-1.14,1.31-3.419V40.657c0-1.937.2-4.359-1.282-4.359-1.709,0-1.766,1.367-2.222,2.137v7.607c0,2.279.142,3.419,1.424,3.419v.2h-7.265v-.2c1.453,0,1.681-1.2,1.681-3.419V38.976c0-1.937-.342-2.877-1.937-2.877v-.342h6.1v1.738Z" transform="translate(-188.647 -30.6)" fill="#8e969b"/>
      <path id="Path_467" data-name="Path 467" d="M355,25.773h2.849l-.484.969H355v8.347c0,4.188,2.422,3.846,3.447,2.934l.057.256a5.123,5.123,0,0,1-4.216,1.367,3.274,3.274,0,0,1-3.419-3.476v-9.43H348.5v-.114a16.062,16.062,0,0,0,6.239-5.128H355Z" transform="translate(-284.257 -20.588)" fill="#8e969b"/>
      <path id="Path_468" data-name="Path 468" d="M378.3,42.779c0-3.333,2.991-7.379,6.667-7.379,3.362,0,6.552,3.561,6.552,7.122,0,4.188-3.618,7.293-6.552,7.293A6.909,6.909,0,0,1,378.3,42.779Zm9-.37c0-4.216-.142-6.695-2.336-6.695-2.422,0-2.251,3.219-2.251,6.695,0,4.216,0,7.151,2.251,7.151C387.474,49.588,387.3,46.625,387.3,42.408Z" transform="translate(-305.567 -30.528)" fill="#8e969b"/>
      <path id="Path_469" data-name="Path 469" d="M427.425,37.494c1.367-1.966,2.279-1.994,3.846-1.994,3.7,0,4.017,2.849,4.017,5.242v5.27c0,2.593.256,3.419,1.709,3.419v.2H429.59v-.2c1.311,0,1.311-1.14,1.311-3.419V40.657c0-1.937.2-4.359-1.282-4.359-1.709,0-1.766,1.367-2.222,2.137v7.607c0,2.279.143,3.419,1.424,3.419v.2h-7.265v-.2c1.453,0,1.681-1.2,1.681-3.419V38.976c0-1.937-.342-2.877-1.937-2.877v-.342h6.068v1.738Z" transform="translate(-336.317 -30.6)" fill="#8e969b"/>
      <path id="Path_470" data-name="Path 470" d="M275.234,47.665c-.427.541-1.026,2.365-3.276,2.365-2.592,0-4.558-2.365-4.558-7.094,0-3.846,2.479-7.236,5.3-7.236a3.132,3.132,0,0,1,2.792,1.795V36.042H281.7v.313s-2.051-.4-2.051,2.507V49.546c-.2,2.906-1.453,4.9-6.5,6.325l.029-.342C276.118,53.392,275.491,50.372,275.234,47.665Zm.37-5.384c0-3.134-.228-6.211-2.251-6.211-1.4,0-1.766,2.479-1.766,6.923,0,3.761.313,6.268,1.738,6.268,1.254,0,2.279-2.849,2.279-5.869Z" transform="translate(-226.262 -30.743)" fill="#8e969b"/>
      <path id="Path_471" data-name="Path 471" d="M313,45.286h1.994c-.256,4.33,2.763,4.359,3.476,4.359a2.446,2.446,0,0,0,2.507-2.194c0-3.533-7.35-2.023-7.35-7.379a4.427,4.427,0,0,1,4.615-4.473c4.5,0,5.014,2.706,5.014,3.647h-1.681a2.944,2.944,0,0,0-2.991-3.447c-2.336,0-2.251,1.909-2.251,2.051,0,3.419,7.948,2.194,7.948,7.236a5.072,5.072,0,0,1-5.043,4.843C314.311,50.186,313,46.568,313,45.286Z" transform="translate(-258.871 -30.671)" fill="#8e969b"/>
      <path id="Path_472" data-name="Path 472" d="M465.5,28.824a1.439,1.439,0,1,1,1.453,1.453A1.459,1.459,0,0,1,465.5,28.824Zm2.621,0a1.212,1.212,0,1,0-1.2,1.254A1.217,1.217,0,0,0,468.121,28.824Zm-.484.8h-.228l-.456-.741h-.37v.741h-.2v-1.6h.712c.427,0,.57.171.57.427,0,.313-.228.427-.513.427Zm-.741-.912c.228,0,.57.028.57-.285,0-.256-.2-.285-.4-.285h-.456v.57Z" transform="translate(-367.925 -24.807)" fill="#8e969b"/>
      <path id="Path_473" data-name="Path 473" d="M189.2,89.1h3.5v.513h-1.453V93.43h-.6V89.613H189.2Z" transform="translate(-170.34 -68.93)" fill="#8e969b"/>
      <path id="Path_474" data-name="Path 474" d="M217.1,93.4V89.1h3.162v.541H217.67v1.311h2.393v.513H217.67v1.453h2.621v.513H217.1Z" transform="translate(-190.292 -68.93)" fill="#8e969b"/>
      <path id="Path_475" data-name="Path 475" d="M245.851,88.6a1.834,1.834,0,0,1,1.282.427,1.486,1.486,0,0,1,.513,1h-.57a1.037,1.037,0,0,0-.4-.655,1.2,1.2,0,0,0-.826-.256,1.246,1.246,0,0,0-1.026.456,2.114,2.114,0,0,0-.4,1.367,2.014,2.014,0,0,0,.342,1.225,1.249,1.249,0,0,0,1.054.484,1.134,1.134,0,0,0,1-.513,1.907,1.907,0,0,0,.256-.684h.57a2,2,0,0,1-.513,1.14,1.8,1.8,0,0,1-1.4.57,1.745,1.745,0,0,1-1.254-.456,2.756,2.756,0,0,1-.171-3.419A1.911,1.911,0,0,1,245.851,88.6Z" transform="translate(-209.385 -68.572)" fill="#8e969b"/>
      <path id="Path_476" data-name="Path 476" d="M273.5,93.4V89.1h.6v1.795h2.251V89.1h.6v4.33h-.6V91.408H274.1V93.43h-.6Z" transform="translate(-230.624 -68.93)" fill="#8e969b"/>
      <path id="Path_477" data-name="Path 477" d="M311.2,93.4V89.1h.684l2.194,3.5V89.1h.57v4.33h-.655l-2.251-3.5v3.5H311.2Z" transform="translate(-257.583 -68.93)" fill="#8e969b"/>
      <path id="Path_478" data-name="Path 478" d="M341.94,92.09a2.15,2.15,0,0,1-.37-1.225A1.967,1.967,0,0,1,342,89.5a1.4,1.4,0,0,1,1.083-.456,1.323,1.323,0,0,1,1.083.456,1.861,1.861,0,0,1,.4,1.225A2.4,2.4,0,0,1,344.219,92a1.2,1.2,0,0,1-1.111.541A1.274,1.274,0,0,1,341.94,92.09Zm-.513-2.735a2.615,2.615,0,0,0-.427,1.51,2.385,2.385,0,0,0,.513,1.6,2,2,0,0,0,1.567.655,1.965,1.965,0,0,0,1.652-.769,2.5,2.5,0,0,0,.484-1.624,2.463,2.463,0,0,0-.427-1.481,2.023,2.023,0,0,0-1.709-.741A1.959,1.959,0,0,0,341.427,89.355Z" transform="translate(-278.894 -68.501)" fill="#8e969b"/>
      <path id="Path_479" data-name="Path 479" d="M373.4,93.4V89.1h.6v3.818h2.194v.513H373.4Z" transform="translate(-302.063 -68.93)" fill="#8e969b"/>
      <path id="Path_480" data-name="Path 480" d="M400.24,92.09A2.308,2.308,0,0,1,400.3,89.5a1.4,1.4,0,0,1,1.083-.456,1.323,1.323,0,0,1,1.083.456,1.861,1.861,0,0,1,.4,1.225A2.4,2.4,0,0,1,402.519,92a1.2,1.2,0,0,1-1.111.541A1.274,1.274,0,0,1,400.24,92.09Zm-.513-2.735a2.616,2.616,0,0,0-.427,1.51,2.385,2.385,0,0,0,.513,1.6,2,2,0,0,0,1.567.655,1.965,1.965,0,0,0,1.652-.769,2.679,2.679,0,0,0,.484-1.624,2.463,2.463,0,0,0-.427-1.481,2.023,2.023,0,0,0-1.709-.741A1.959,1.959,0,0,0,399.727,89.355Z" transform="translate(-320.585 -68.501)" fill="#8e969b"/>
      <path id="Path_481" data-name="Path 481" d="M433.437,88.7a2.4,2.4,0,0,1,1.054.228,1.61,1.61,0,0,1,.8,1.2h-.57a1.061,1.061,0,0,0-.427-.684,1.557,1.557,0,0,0-.826-.228,1.228,1.228,0,0,0-1,.456,1.885,1.885,0,0,0-.4,1.339,2.106,2.106,0,0,0,.342,1.254,1.288,1.288,0,0,0,1.111.484,1.387,1.387,0,0,0,.969-.342,1.423,1.423,0,0,0,.4-1.111h-1.367v-.484h1.909v2.308h-.37l-.142-.57a1.833,1.833,0,0,1-.541.456,2.027,2.027,0,0,1-.969.228,1.805,1.805,0,0,1-1.311-.513,2.4,2.4,0,0,1-.6-1.709,2.478,2.478,0,0,1,.6-1.738A1.566,1.566,0,0,1,433.437,88.7Z" transform="translate(-343.611 -68.644)" fill="#8e969b"/>
      <path id="Path_482" data-name="Path 482" d="M463.524,91.593,461.9,89h.684l1.254,2.08L465.091,89h.684l-1.624,2.593V93.33h-.6V91.593Z" transform="translate(-365.35 -68.858)" fill="#8e969b"/>
    </g>
    <g id="Group_303" data-name="Group 303" transform="translate(46.2 18.459)">
      <path id="Path_483" data-name="Path 483" d="M72.046,25.265a6.591,6.591,0,0,1,2.308.313,15.351,15.351,0,0,1,1.738.513c.114.028.114.313.029.313a20.949,20.949,0,0,0-3.846-.741A14.227,14.227,0,0,0,68.8,27.943a1.327,1.327,0,0,1-.6,0A14.783,14.783,0,0,1,72.046,25.265Z" transform="translate(-61.932 -23.43)" fill="#8e969b"/>
      <path id="Path_484" data-name="Path 484" d="M75.9,31.755a16.46,16.46,0,0,1,2.279-.969,4.629,4.629,0,0,1,1.738-.171c.342.085.712,1,.741,1.168a4.828,4.828,0,0,1-2.222.427A7.913,7.913,0,0,1,75.9,31.755Z" transform="translate(-67.439 -27.242)" fill="#8e969b"/>
      <path id="Path_485" data-name="Path 485" d="M63.949,22.887a6.981,6.981,0,0,0-.114-1.6,6.858,6.858,0,0,0-.2-1c-.085-.285-.114-.456-.313-.513A21.824,21.824,0,0,0,55.8,18.87a21.238,21.238,0,0,0-8.632,1.738s-.342.171-.171.855c0,0,.114.826.2,1.168l.028.142a2.788,2.788,0,0,0-.684.484c-.37.456-.028,2.507-.028,2.507a6.362,6.362,0,0,0,.712,2.564,6.19,6.19,0,0,0,1.2,1.083.523.523,0,0,1,.256.513L46.2,43.257H62.866l-3.419-7.664a2.453,2.453,0,0,0,2.963-1.88,28.82,28.82,0,0,0,1.225-6.382c.085-.969-.114-2.963-.057-3.476A4.605,4.605,0,0,0,63.949,22.887ZM46.827,42.773l2.422-12.82,1.538,1.054,2.564,11.766Zm7.891.028-1.709-7.094a25.341,25.341,0,0,1,3.675,2.706l.342,4.387Zm6.1,0H57.71l.712-3.077A12,12,0,0,1,60.815,42.8Zm.655-10.285a4.853,4.853,0,0,1-4.33,1.311s.627-2.735,4.843-2.365C62.011,31.462,62.3,31.719,61.47,32.516Zm-4.387-2.593a11.531,11.531,0,0,1,4.587.2s.513.427.456.769C62.1,30.893,58.507,31.092,57.083,29.924Zm5.185-2.849c-.2,0-2.536.057-2.536.057s-.484-.057-.484-.342c.028-.2.085-.6.2-.6H59.9s.94,0,.6-.114l-1.054-.256s-.285,0-.342.142a8.022,8.022,0,0,0-.285.969.284.284,0,0,0,.028.114c.057.057,2.621,1.909,2.621,1.909a14.521,14.521,0,0,0-2.82-.028,30.383,30.383,0,0,1-2.877,1c-.855.142-4.045.484-4.245.513l-1.254-5.47a1.514,1.514,0,0,0-1.567-1.311c-1.054.028-1.2.313-1.254.427a.478.478,0,0,0,0,.427L50.9,30.38a11.465,11.465,0,0,1-3.248-2.365c-.513-.684-.969-3.931-.627-4.473.313-.484,2.194-.883,2.991-.8a2.06,2.06,0,0,1,.969.712c.085.085.114.028.171.114,0,0-.2-1.254-1-1.311a6.875,6.875,0,0,0-2.393.342s-.085,0-.142-.142c-.057-.2-.171-1.282-.171-1.282a.528.528,0,0,1,.228-.313,20.625,20.625,0,0,1,8.176-1.51c.57,0,5.185-.085,7.379.883.2.142.057.883-.028,1.311a.591.591,0,0,1-.37.4.782.782,0,0,0-.484.37s.456,4.359.513,4.558C62.866,27.018,62.724,27.047,62.268,27.075Zm.541-4.359s.313-.6.484-.57a.386.386,0,0,1,.313.171.346.346,0,0,1,0,.456C63.55,22.859,63.464,22.688,62.809,22.716Z" transform="translate(-46.2 -18.858)" fill="#8e969b"/>
    </g>
  </g>
</svg>
