<svg xmlns="http://www.w3.org/2000/svg" width="80.23" height="16.774" viewBox="0 0 80.23 16.774">
  <g id="pny" transform="translate(-3.2 -3.2)">
    <path id="Path_486" data-name="Path 486" d="M87.4,17.6v.444h.8v2.13h.533v-2.13h.8V17.6Zm4.7,0-.621,1.775L90.861,17.6h-.8v2.574H90.6V18.133h0l.71,2.041h.355l.71-2.041h0v2.041H92.9V17.6Z" transform="translate(-9.472 -1.62)" fill="#8e969b"/>
    <path id="Path_487" data-name="Path 487" d="M34,3.2V18.731h3.2V8.348L59.56,19.974,59.471,4.443h-3.2v10.3Z" transform="translate(-3.465)" fill="#8e969b"/>
    <g id="Group_304" data-name="Group 304" transform="translate(3.2 4.354)">
      <path id="Path_488" data-name="Path 488" d="M28.671,12.588a3.114,3.114,0,0,1-.444.71,1.932,1.932,0,0,1-.71.444,2.591,2.591,0,0,1-.8.178H12.608l-6.035-3.2v8.165H3.2L3.289,6.73a2.591,2.591,0,0,1,.178-.8A1.862,1.862,0,0,1,4.62,4.778a2.591,2.591,0,0,1,.8-.178H26.63a2.12,2.12,0,0,1,.8.178,3.114,3.114,0,0,1,.71.444,1.932,1.932,0,0,1,.444.71,1.319,1.319,0,0,1,.178.8v5.059a2.457,2.457,0,0,1-.089.8M25.654,7.8H6.484v2.929H25.565V7.8Z" transform="translate(-3.2 -4.511)" fill="#8e969b"/>
      <path id="Path_489" data-name="Path 489" d="M78.578,12.488v6.3H75.116v-6.3L64.2,4.589h5.5l7.1,5.148L84.08,4.5h5.414Z" transform="translate(-10.062 -4.5)" fill="#8e969b"/>
    </g>
  </g>
</svg>
