<svg id="_2209239283696" xmlns="http://www.w3.org/2000/svg" width="89.166" height="22.771" viewBox="0 0 89.166 22.771">
  <path id="Path_447" data-name="Path 447" d="M45.71,22.852c9.934-6.542,14.538-8.541,26.168-9.813,6.3-.666,18.536-.727,25.2-.787l12.66-.182.424-.969L72.3,11.342C60.794,11.4,52.555,13.584,42.5,19.4l3.21,3.453Z" transform="translate(-20.996 -11.1)" fill="#8e969b" fill-rule="evenodd"/>
  <path id="Path_448" data-name="Path 448" d="M71.241,34.526c1.636,1.272,13.993.727,17.021.727.606-.242,4.483-8.359,4.846-9.207H87.96l-2.786,5.391c-1.333.121-2.908,0-4.24,0-1.09,0-2.908.242-3.089-.969-.182-1.09,2.12-4.664,2.665-5.573,1.636-2.665,1.878-2.484,6.118-2.484h8.3a27.232,27.232,0,0,0,1.938-3.756H84.325c-5.088,0-6.663,1.212-7.572,2.3-1.938,2.181-7.814,11.812-5.512,13.569Zm-14.72-8.783H62.7a4.028,4.028,0,0,0,2.484-.727c2.908-2.786-.363-2.665-2.484-2.665l-4.361.061ZM66.7,18.656l-13.024.061L45.315,35.193H52.1L54.947,29.5c3.453-.182,9.571.545,12.3-.969a10.349,10.349,0,0,0,4.664-6.724c.787-3.574-2.6-3.21-5.209-3.15ZM34.533,35.193l8,.061L24.175,14.9H16.3L34.533,35.193Z" transform="translate(-10.667 -12.598)" fill="#8e969b" fill-rule="evenodd"/>
  <path id="Path_449" data-name="Path 449" d="M25.6,36.1l-3.634-4c-2.3.969-14.9,9.813-14.962,9.934h9.026c1.272,0,1.7-.424,3.15-1.575,1.514-1.151,4.967-3.877,6.421-4.361Z" transform="translate(-7 -19.379)" fill="#8e969b" fill-rule="evenodd"/>
</svg>
