<svg xmlns="http://www.w3.org/2000/svg" width="44.816" height="20.616" viewBox="0 0 44.816 20.616">
  <g id="mm" transform="translate(0 0)">
    <path id="Path_501" data-name="Path 501" d="M31.3,83.038V97.516h-8.2V83.267c0-.219,0-.219-.219-.219H15.11c-.067,0-.143-.01-.21-.01V76.91c.057,0,.124-.01.181-.01h7.863a.465.465,0,0,1,.315.1c1.735,1.306,3.469,2.6,5.195,3.908.953.705,1.906,1.42,2.85,2.125Z" transform="translate(-14.9 -76.9)" fill="#8e969b"/>
    <path id="Path_502" data-name="Path 502" d="M455.725,80.878a1.751,1.751,0,0,1-.419.839,1.6,1.6,0,0,1-2.116.114,1.473,1.473,0,0,1-.276-2.021,1.489,1.489,0,0,1,1.639-.591,1.42,1.42,0,0,1,1.144,1.153l.029.086Zm-1.554.944a1.154,1.154,0,0,0,0-2.307,1.154,1.154,0,0,0,0,2.307Z" transform="translate(-410.909 -78.953)" fill="#8e969b"/>
    <path id="Path_503" data-name="Path 503" d="M187,83.038V76.9h8.025a.557.557,0,0,1,.362.124c2.021,1.525,4.051,3.041,6.071,4.556l1.944,1.458h0V97.516h-8.2V83.267c0-.238.019-.219-.219-.219H187.21c-.067,0-.143-.01-.21-.01Z" transform="translate(-170.597 -76.9)" fill="#8e969b"/>
    <path id="Path_504" data-name="Path 504" d="M359.1,83.129V77h8.2v6.138h-8.035c-.057,0-.1-.01-.162-.01Z" transform="translate(-326.293 -76.99)" fill="#8e969b"/>
    <path id="Path_505" data-name="Path 505" d="M463.562,89.256H463.2V88.3c0-.334,0-.334.324-.362a2.33,2.33,0,0,1,.448.01c.238.029.353.124.391.3.029.143-.038.238-.267.372.257.143.219.41.314.639a.328.328,0,0,1-.086.01c-.362-.01-.305.057-.391-.286-.048-.181-.124-.219-.381-.191C463.562,88.941,463.562,89.094,463.562,89.256Zm.019-.724c.143.01.276.019.362-.1a.163.163,0,0,0-.01-.162.316.316,0,0,0-.353-.057Z" transform="translate(-420.471 -86.883)" fill="#8e969b"/>
  </g>
</svg>
