<svg xmlns="http://www.w3.org/2000/svg" width="88.551" height="15.414" viewBox="0 0 88.551 15.414">
  <g id="zotac" transform="translate(-3.6 -2)">
    <path id="Path_506" data-name="Path 506" d="M87.569,3.4H72.724L70.5,7.176h6.1V17.727H80.9V7.176h4.448L87.569,3.4" transform="translate(-32.297 -0.676)" fill="#8e969b" fill-rule="evenodd"/>
    <path id="Path_507" data-name="Path 507" d="M107.99,2,99.3,17.052h4.293l4.4-7.6,2.379,4.034H106.9l-2.017,3.569h11.845L107.99,2" transform="translate(-46.201 0)" fill="#8e969b"/>
    <path id="Path_508" data-name="Path 508" d="M5.876,3.4H17.617L10.634,14.262h7.707l-1.965,3.465H3.6L10.686,6.865H3.859L5.876,3.4" transform="translate(0 -0.676)" fill="#8e969b" fill-rule="evenodd"/>
    <path id="Path_509" data-name="Path 509" d="M44.307,14.279A3.664,3.664,0,0,1,40.893,10.4a3.616,3.616,0,0,1,3.414-3.828A3.656,3.656,0,0,1,47.772,10.4a3.7,3.7,0,0,1-3.465,3.879m0-11.379A7.542,7.542,0,0,0,36.6,10.348a7.71,7.71,0,0,0,15.414,0A7.51,7.51,0,0,0,44.307,2.9Z" transform="translate(-15.931 -0.434)" fill="#8e969b" fill-rule="evenodd"/>
    <path id="Path_510" data-name="Path 510" d="M142.7,14.021c-1.914,0-3.155-1.655-3.155-3.672A3.39,3.39,0,0,1,142.7,6.728h5.483L150.355,2.9h-8.172a6.919,6.919,0,0,0-6.1,3.828,7.8,7.8,0,0,0-.879,3.621A7.938,7.938,0,0,0,136.7,15a6.907,6.907,0,0,0,5.483,2.845h6.259l2.172-3.828H142.7" transform="translate(-63.532 -0.434)" fill="#8e969b"/>
    <path id="Path_511" data-name="Path 511" d="M171.748,4.817h0a.47.47,0,0,0-.155-.362.687.687,0,0,0-.517-.155H170.3V6.007h.31V5.386h.362l.414.621h.362l-.465-.672a.505.505,0,0,0,.465-.517m-1.086.31V4.559h.466c.207,0,.362.1.362.31h0a.346.346,0,0,1-.362.31h-.466Z" transform="translate(-80.477 -1.11)" fill="#8e969b"/>
    <path id="Path_512" data-name="Path 512" d="M170.2,2.9a1.612,1.612,0,0,0-1.6,1.6,1.568,1.568,0,0,0,1.6,1.552,1.611,1.611,0,0,0,1.6-1.6A1.568,1.568,0,0,0,170.2,2.9m0,2.9a1.345,1.345,0,1,1,1.345-1.345A1.369,1.369,0,0,1,170.2,5.8Z" transform="translate(-79.656 -0.434)" fill="#8e969b"/>
  </g>
</svg>
