<svg xmlns="http://www.w3.org/2000/svg" width="100.145" height="22.387" viewBox="0 0 100.145 22.387">
  <g id="crucial" transform="translate(-14 -15.3)">
    <g id="crucal" transform="translate(14 16.612)">
      <path id="Path_456" data-name="Path 456" d="M92.171,23.4C91.9,23.4,27,28.549,27,28.549H91.928v-.016a1.226,1.226,0,0,0,.243.016,2.574,2.574,0,1,0,0-5.149" transform="translate(-24.895 -23.4)" fill="#8e969b"/>
      <path id="Path_457" data-name="Path 457" d="M309.529,83.345c-4.874,0-9.229-2.769-9.229-6.622,0-3.87,4.372-6.622,9.262-6.622a12.363,12.363,0,0,1,6.282,1.749l-1.522,1.959a10.889,10.889,0,0,0-4.76-1.085c-2.056,0-4.437,1.15-4.437,4s2.348,4,4.437,4a12.215,12.215,0,0,0,4.825-.955l1.522,2.056a13.5,13.5,0,0,1-6.38,1.522" transform="translate(-253.943 -62.539)" fill="#8e969b"/>
      <path id="Path_458" data-name="Path 458" d="M23.229,83.261c-4.857,0-9.229-2.769-9.229-6.622C14,72.769,18.372,70,23.262,70a12.405,12.405,0,0,1,6.282,1.749l-1.522,1.959a10.783,10.783,0,0,0-4.76-1.085c-2.056,0-4.436,1.166-4.436,4,0,2.85,2.348,4,4.436,4a12.215,12.215,0,0,0,4.825-.955l1.522,2.056a13.275,13.275,0,0,1-6.379,1.538" transform="translate(-14 -62.455)" fill="#8e969b"/>
      <path id="Path_459" data-name="Path 459" d="M208.573,85.148h.178a6.333,6.333,0,0,0,3.352-.955c.016.032.275.874,4.485.874V72.016h-4.582V79.9a2.328,2.328,0,0,1-2.3,2.332,1.9,1.9,0,0,1-2.024-1.619V72H203.1v8.841c0,2.364,2.493,4.307,5.473,4.307" transform="translate(-172.482 -64.131)" fill="#8e969b"/>
    </g>
    <rect id="Rectangle_511" data-name="Rectangle 511" width="4.485" height="12.629" transform="translate(78.475 24.772)" fill="#8e969b"/>
    <rect id="Rectangle_512" data-name="Rectangle 512" width="4.485" height="22.247" transform="translate(103.944 15.3)" fill="#8e969b"/>
    <g id="Group_300" data-name="Group 300" transform="translate(32.896 15.365)">
      <path id="Path_460" data-name="Path 460" d="M138.148,75.644a5.1,5.1,0,0,1,2.04.4h0V72.73a11.052,11.052,0,0,0-1.6-.13,6.875,6.875,0,0,0-3.4.939c-.081-.146-.615-.858-4.485-.858V85.472h4.485V77.814c.016-1.214,1.425-2.17,2.963-2.17" transform="translate(-130.7 -63.387)" fill="#8e969b"/>
      <path id="Path_461" data-name="Path 461" d="M467.673,78.837c0,2.073-2.073,3.206-3.562,3.368-2.947.34-3.206-1.457-3.028-2.315.291-1.328,2.4-1.781,4.048-1.668h2.558v.615ZM465.212,71a23,23,0,0,0-6.347.745v3.578a13.606,13.606,0,0,1,5.052-1.069c1.83,0,3.837.194,3.87,1.83-.664-.049-1.83-.178-2.85-.178-3.643,0-7.837.793-7.837,4.712,0,2.672,2.736,3.74,5.554,3.74,2.073,0,4.161.194,5.408-1.069,0,0-.631,1.117,4.291.874V76.311c.016-4.679-2.963-5.311-7.14-5.311" transform="translate(-404.251 -62.046)" fill="#8e969b"/>
      <path id="Path_462" data-name="Path 462" d="M613.26,17.335h.227c.243,0,.453-.1.453-.324,0-.162-.113-.324-.453-.324a.926.926,0,0,0-.227.016Zm0,1.036h-.292V16.493a4.723,4.723,0,0,1,.534-.032,1.189,1.189,0,0,1,.583.13.449.449,0,0,1,.178.389.472.472,0,0,1-.372.47v.016c.162.032.275.178.308.453a2.248,2.248,0,0,0,.113.453H614a1.115,1.115,0,0,1-.13-.486.346.346,0,0,0-.4-.324h-.21Zm.324-2.4a1.427,1.427,0,0,0,.016,2.85,1.364,1.364,0,0,0,1.36-1.425,1.407,1.407,0,0,0-1.376-1.425Zm0-.275a1.684,1.684,0,0,1-.016,3.368,1.684,1.684,0,0,1,.016-3.368Z" transform="translate(-533.986 -15.7)" fill="#8e969b"/>
    </g>
  </g>
</svg>
