<svg xmlns="http://www.w3.org/2000/svg" width="131.59" height="19.345" viewBox="0 0 131.59 19.345">
  <path id="gskill" d="M67.3,111.934v2.427H54.163c-1.485,0-2.77-.2-3.512.914a2.207,2.207,0,0,0,.714,3.055c.828.457,3.084.257,4.169.257H68.726c1.542,0,2.6-.086,2.827-1.6.171-1.228.2-7.738-.257-8.509-.628-1.057-2.2-.8-3.512-.8-3.027,0-11.222.171-13.163-.029v-2.4c2.427-.2,9.737-.029,13.021-.029,1.6,0,2.884.2,3.626-.885a2.213,2.213,0,0,0-.628-3.055c-.885-.485-2.913-.286-4.055-.286H53.392c-1.485,0-2.627.086-2.913,1.4-.228,1-.171,7.881.171,8.566.543,1.085,1.885.971,3.312.971Zm-25.984-4.2c-1.77-.2-4.454-.029-6.31-.029-1.6,0-4.8-.4-5.8.571a2.139,2.139,0,0,0,1.57,3.684c1.942.114,4.483-.2,6.282.029l.029,2.313c-1.085.314-10.793.086-12.735.086v-9.137H35.774c1.628,0,4.083.371,5.026-.685a2.116,2.116,0,0,0-1.228-3.512l-17.1-.029c-2.484.029-2.37,1.256-2.37,3.541v11.422c0,2.513.828,2.656,3.2,2.656,2.827,0,16.333.228,17.19-.286,1.228-.742.828-3.227.828-4.826.029-1.827.143-4.055,0-5.8Zm38.234,5.854a41.105,41.105,0,0,1,4,1.342l7.967,2.77c1.371.457,2.884,1.314,4.112.286a2.09,2.09,0,0,0-.543-3.427L83.06,110.193c1.057-.343,5.6-2.6,7.824-3.484,1.371-.543,2.627-1.057,4-1.57,2.341-.885,1.742-2.77.971-3.569-1.171-1.171-2.77-.2-4.083.314l-8.081,3.2c-1.171.457-2.941,1.285-4.112,1.6a26.546,26.546,0,0,0-.143-4.34,2.2,2.2,0,0,0-3.027-1.142c-1.313.571-1.114,1.742-1.114,3.455V113.9c0,1.371-.257,3.2.543,4.026a2.318,2.318,0,0,0,3.312-.143c.6-.771.4-2.941.4-4.2Zm51.055-10.28V116.36c0,1.6.685,2.256,2.227,2.256h16.7a2.09,2.09,0,0,0,1.827-3.255c-.742-1.371-2.884-.971-4.826-.971-3.8,0-7.938.143-11.707-.029v-9.823c0-1.6.057-3.055-1.485-3.427a2.074,2.074,0,0,0-2.741,2.2Zm-18.874,11.051v-9.68c0-1.6.228-2.913-1.228-3.484a2.115,2.115,0,0,0-2.97,1.485v14.306c.228,1.713,1.628,1.628,3.312,1.628h14.42c1.77,0,3.055.029,3.284-1.713a2.026,2.026,0,0,0-2.2-2.541c-4.826-.086-9.794.114-14.62,0ZM99.935,103.311v12.65c0,1.542.4,2.513,1.913,2.627a2.008,2.008,0,0,0,2.341-2.2V103.339A2.137,2.137,0,1,0,99.935,103.311ZM45.026,116.16a2.127,2.127,0,0,0,1.285,4.055C49.023,119.473,47.824,115.19,45.026,116.16Z" transform="translate(-20.097 -100.957)" fill="#8e969b" fill-rule="evenodd"/>
</svg>
