<svg xmlns="http://www.w3.org/2000/svg" xmlns:xlink="http://www.w3.org/1999/xlink" width="189" height="69" viewBox="0 0 189 69">
  <defs>
    <clipPath id="clip-path">
      <rect id="Rectangle_456" data-name="Rectangle 456" width="189" height="69" transform="translate(-13937 -15266)" fill="#fff" stroke="#707070" stroke-width="1"/>
    </clipPath>
  </defs>
  <g id="Mask_Group_69" data-name="Mask Group 69" transform="translate(13937 15266)" clip-path="url(#clip-path)">
    <g id="Blueman_Computer_Web_Logo" data-name="Blueman Computer Web Logo" transform="translate(-13939.704 -15270.016)">
      <g id="Group_254" data-name="Group 254">
        <path id="Path_242" data-name="Path 242" d="M90.316,29.276c0-3.684,0-7.329.059-10.993h16.382c.1,1.548.1,3.077.1,5.232,0,2.195-.9,3.919-2.508,4.527,1.862.764,3.155,2.293,3.233,5.389.176,4.86-3.116,6.878-6.878,6.878H90.414C90.316,36.6,90.316,32.96,90.316,29.276Zm5.291-6.486v5.9h.118c.451-1.411,1.2-1.8,2.234-1.8h2.195c1.293,0,1.587-.784,1.587-2.077V22.77H95.587l.02.02Zm4.566,12.659c1.666,0,2.116-.8,2.116-2.332,0-1.352-.49-2.038-1.92-2.038H95.607v4.37h4.566Z"/>
        <path id="Path_243" data-name="Path 243" d="M110.225,28.864c0-3.821,0-7.6.059-11.424h5.075c.059,3.821.059,7.6.059,11.424s0,7.6-.059,11.424h-5.075C110.225,36.467,110.225,32.666,110.225,28.864Z"/>
        <path id="Path_244" data-name="Path 244" d="M118.063,40.151q-.147-6.79.02-15.6H123.2V36.448h2.783c1.019,0,1.411-.686,1.411-1.822V24.573h5.114c.059,2.606.059,5.252.059,7.858,0,2.645,0,5.252-.059,7.858h-4.331l-.568-2.724h-.1a3.324,3.324,0,0,1-3.037,2.8C124.02,40.406,121.806,40.386,118.063,40.151Z"/>
        <path id="Path_245" data-name="Path 245" d="M160.351,35.507c-.1-1.7-.059-4.389,0-6.173a4.6,4.6,0,0,1,4.9-4.8h9.269V28.3c0,3.292-.49,5.624-5.154,5.624h-3.821v.568c0,1.117.353,1.881,1.489,1.881H174.5v3.821c-1.411.1-2.783.1-4.331.1h-4.233C161.86,40.289,160.449,38.074,160.351,35.507Zm7.133-7.329c-1.235,0-1.96.49-1.96,1.822v2.038h.1c.274-.941.647-1.352,1.411-1.352h1.724a1.006,1.006,0,0,0,1.137-1.039V28.159h-2.41Z"/>
        <path id="Path_246" data-name="Path 246" d="M135.053,32.411c0-2.645,0-5.252.059-7.858h4.35l.647,2.724h.1c.647-2.116,1.881-2.724,3.135-2.763a10.7,10.7,0,0,1,1.764-.02c1.862.157,2.8,1.176,3.37,2.959a3.65,3.65,0,0,1,3.429-2.959c.666-.02,2.058,0,5.82.1.118,4.644.1,9.857-.02,15.735H152.61V28.414h-2.293c-1.058,0-1.391.8-1.391,1.822V40.289h-5.075V30.236c0-1.019-.333-1.822-1.45-1.822h-.8c-1.078,0-1.391.764-1.391,1.822V40.289h-5.114C135.053,37.663,135.053,35.037,135.053,32.411Z"/>
        <path id="Path_247" data-name="Path 247" d="M177.124,32.411c0-2.645,0-5.252.059-7.858h4.37l.588,2.724h.118c.588-1.744,1.274-2.665,2.9-2.763.588-.059,2.724-.02,6.467.059.118,4.644.1,9.857-.02,15.735h-5.095V28.414h-2.8c-1.078,0-1.391.764-1.391,1.822V40.289H177.2C177.124,37.663,177.124,35.037,177.124,32.411Z"/>
      </g>
      <path id="Path_248" data-name="Path 248" d="M90.375,54.084c-.078-2.626-.059-4.781.078-9.719,3.606-.1,7.113-.118,7.975-.078,2.763.118,3.919,1.881,4.017,4.389,0,.157,0,.353-.02.549h-2.7V48.7c0-1.43-.509-2.332-2.077-2.332H93.079v7.329c0,1.783.607,2.959,2.763,2.959h1.646c1.7,0,2.234-.843,2.234-2.253v-1.45h2.7V54.73c0,2.449-1.45,3.919-4.507,4.1a16.832,16.832,0,0,1-2.626.02C92.08,58.63,90.473,56.768,90.375,54.084Z"/>
      <path id="Path_249" data-name="Path 249" d="M105.385,55.632c-.059-1.274-.078-4.233,0-7.172,2.665-.078,5.781-.078,7-.02a3.042,3.042,0,0,1,3.233,3.155c.059,1.058.059,2.9,0,4.037a3.046,3.046,0,0,1-3.233,3.155c-1.176.059-2.587.059-3.782,0A3.02,3.02,0,0,1,105.385,55.632Zm5.977,1.391c1.313,0,1.587-.843,1.587-1.92V52.163c0-1.078-.274-1.92-1.587-1.92H108.03v4.821c0,1.078.294,1.92,1.587,1.92l1.744.039Z"/>
      <path id="Path_250" data-name="Path 250" d="M118.2,53.614c0-1.724,0-3.429.059-5.173h2.253l.372,1.509h.078a2.325,2.325,0,0,1,2.234-1.528,9.111,9.111,0,0,1,1.626-.02,2.635,2.635,0,0,1,2.508,1.783,2.5,2.5,0,0,1,2.43-1.783c.705-.02,1.96-.02,4.644.059.078,2.939.059,6.721-.059,10.268h-2.626V50.2h-2.606c-1.176,0-1.45.921-1.45,1.783v6.741H125V52.007c0-.843-.255-1.783-1.607-1.783h-1c-1.156,0-1.45.823-1.45,1.783v6.721h-2.685C118.2,57.062,118.2,55.338,118.2,53.614Z"/>
      <path id="Path_251" data-name="Path 251" d="M137.13,55.4c0-2.312,0-4.644.059-6.937h2.273l.372,1.509h.078c.235-.843.686-1.45,1.548-1.528,1.156-.059,3.155-.059,5.82.02.078,2.939.078,5.663,0,7.172a3.019,3.019,0,0,1-3.292,3.116h-4.154v3.625h-2.685C137.13,60.08,137.13,57.729,137.13,55.4Zm5.9,1.548c1.254,0,1.548-.843,1.548-1.92V50.243h-3.527c-.843,0-1.176.8-1.176,1.822v4.86l3.155.02Z"/>
      <path id="Path_252" data-name="Path 252" d="M149.965,58.708c-.078-2.861-.059-6.662.02-10.229h2.685V57h3.077c1.078,0,1.45-.725,1.45-1.8V48.479h2.665c.059,1.7.059,3.429.059,5.173,0,1.724,0,3.429-.059,5.173h-2.234l-.294-1.509h-.078a2.259,2.259,0,0,1-2.156,1.548C154.609,58.826,152.63,58.826,149.965,58.708Z"/>
      <path id="Path_253" data-name="Path 253" d="M163.7,56.376c-.02-.96-.02-3.664-.02-6.094H162.33v-1.8h1.352a23.843,23.843,0,0,1,.1-2.528h2.587v2.528h3v1.7a22.32,22.32,0,0,1-2.606.1h-1.176v.078c.607.2.8.451.8.98l.02,4.487c0,.549.294,1.176,1.411,1.176H169.4v1.7c-.843.078-2.312.078-2.724.078C164.544,58.728,163.741,57.729,163.7,56.376Z"/>
      <path id="Path_254" data-name="Path 254" d="M171.383,55.632a39.6,39.6,0,0,1,0-4.037,3.081,3.081,0,0,1,3.312-3.155h6.565v2.979c0,1.685-.47,3.057-3.174,3.057h-4.017v.549c0,1.058.294,1.9,1.587,1.9H181.2v1.764c-.98.078-1.9.078-2.881.078h-3.077C172.363,58.767,171.461,57.239,171.383,55.632ZM175.89,50.2c-1.352,0-1.8.725-1.8,1.881v1.332h.078a1.1,1.1,0,0,1,1.078-.686h2.587c.784,0,1.058-.392,1.058-.843V50.243l-3-.039Z"/>
      <path id="Path_255" data-name="Path 255" d="M183.846,53.614c0-1.724,0-3.429.059-5.173h2.253l.372,1.822h.078c.176-1.235.725-1.783,1.881-1.822a21.68,21.68,0,0,1,3.214,0v1.8a22.149,22.149,0,0,1-2.587.1h-1c-1,0-1.528.607-1.528,2.077v6.31H183.9C183.846,57.062,183.846,55.338,183.846,53.614Z"/>
      <path id="Path_256" data-name="Path 256" d="M18.969,4.644h48.6s17.91,1.9,10.778,30.216C70.211,35.017,15.167,34.7,2.7,55.867c3.743-6.388,9.876-15.441,24.083-22.75a79.607,79.607,0,0,1,35.037-7.975c1.078-.255,2.077-1.333,1.9-3.743L62.9,19.008H32.921Z" fill="#2c5daa"/>
      <path id="Path_257" data-name="Path 257" d="M79.166,39.681s-46.422-3-61.687,6.467H55.593s7.564-.157,6.153,9.719H21.634L4.193,72.386H67.213S83.987,72.641,79.166,39.681Z" fill="#1cab8f"/>
    </g>
  </g>
</svg>
