<svg xmlns="http://www.w3.org/2000/svg" xmlns:xlink="http://www.w3.org/1999/xlink" width="245" height="89" viewBox="0 0 245 89">
  <defs>
    <clipPath id="clip-path">
      <rect id="Rectangle_1127" data-name="Rectangle 1127" width="245" height="89" transform="translate(-13937 -15265.778)" fill="#fff" stroke="#707070" stroke-width="1"/>
    </clipPath>
  </defs>
  <g id="Mask_Group_247" data-name="Mask Group 247" transform="translate(13937 15265.778)" clip-path="url(#clip-path)">
    <g id="Blueman_Computer_Web_Logo" data-name="Blueman Computer Web Logo" transform="translate(-13937 -15265.186)">
      <g id="Group_535" data-name="Group 535" transform="translate(113.571 16.587)">
        <path id="Path_1527" data-name="Path 1527" d="M90.316,32.533c0-4.776,0-9.5.076-14.25h21.236c.127,2.007.127,3.988.127,6.782,0,2.845-1.168,5.08-3.251,5.868,2.413.991,4.09,2.972,4.191,6.985.229,6.3-4.039,8.916-8.916,8.916H90.443C90.316,42.033,90.316,37.309,90.316,32.533Zm6.858-8.408v7.646h.152c.584-1.829,1.55-2.337,2.9-2.337h2.845c1.677,0,2.058-1.016,2.058-2.693V24.1H97.149l.025.025Zm5.919,16.409c2.159,0,2.743-1.041,2.743-3.023,0-1.753-.635-2.642-2.489-2.642H97.174v5.665h5.919Z" transform="translate(-90.316 -17.19)"/>
        <path id="Path_1528" data-name="Path 1528" d="M110.225,32.249c0-4.953,0-9.856.076-14.809h6.579c.076,4.953.076,9.856.076,14.809s0,9.856-.076,14.809H110.3C110.225,42.105,110.225,37.177,110.225,32.249Z" transform="translate(-84.417 -17.44)"/>
        <path id="Path_1529" data-name="Path 1529" d="M118.084,44.773q-.19-8.8.025-20.22h6.63V39.972h3.607c1.321,0,1.829-.889,1.829-2.362V24.579h6.63c.076,3.378.076,6.808.076,10.186,0,3.429,0,6.808-.076,10.186h-5.614l-.737-3.531h-.127a4.309,4.309,0,0,1-3.937,3.632C125.807,45.1,122.936,45.078,118.084,44.773Z" transform="translate(-82.116 -15.332)"/>
        <path id="Path_1530" data-name="Path 1530" d="M160.368,38.759c-.127-2.21-.076-5.69,0-8,.076-3.023,1.829-6.223,6.35-6.223h12.015v4.877c0,4.267-.635,7.29-6.681,7.29H167.1v.737c0,1.448.457,2.439,1.931,2.439h9.678V44.83c-1.829.127-3.607.127-5.614.127h-5.487C162.324,44.957,160.5,42.086,160.368,38.759Zm9.246-9.5c-1.6,0-2.54.635-2.54,2.362v2.642h.127c.356-1.219.838-1.753,1.829-1.753h2.235a1.3,1.3,0,0,0,1.473-1.346V29.233h-3.124Z" transform="translate(-69.583 -15.338)"/>
        <path id="Path_1531" data-name="Path 1531" d="M135.053,34.765c0-3.429,0-6.808.076-10.186h5.639l.838,3.531h.127c.838-2.743,2.439-3.531,4.064-3.582a13.872,13.872,0,0,1,2.286-.025c2.413.2,3.632,1.524,4.369,3.836A4.731,4.731,0,0,1,156.9,24.5c.864-.025,2.667,0,7.544.127.152,6.02.127,12.777-.025,20.4h-6.6V29.583h-2.972c-1.372,0-1.8,1.041-1.8,2.362V44.976h-6.579V31.945c0-1.321-.432-2.362-1.88-2.362h-1.041c-1.4,0-1.8.991-1.8,2.362V44.976H135.1C135.053,41.572,135.053,38.169,135.053,34.765Z" transform="translate(-77.061 -15.358)"/>
        <path id="Path_1532" data-name="Path 1532" d="M177.124,34.759c0-3.429,0-6.808.076-10.186h5.665l.762,3.531h.152c.762-2.261,1.651-3.455,3.759-3.582.762-.076,3.531-.025,8.383.076.152,6.02.127,12.777-.025,20.4h-6.6V29.577h-3.632c-1.4,0-1.8.991-1.8,2.362V44.971h-6.63C177.124,41.567,177.124,38.163,177.124,34.759Z" transform="translate(-64.595 -15.352)"/>
      </g>
      <path id="Path_1533" data-name="Path 1533" d="M90.388,56.992c-.1-3.4-.076-6.2.1-12.6,4.674-.127,9.221-.152,10.338-.1,3.582.152,5.08,2.439,5.207,5.69,0,.2,0,.457-.025.711h-3.505v-.686c0-1.854-.66-3.023-2.693-3.023H93.894v9.5c0,2.312.787,3.836,3.582,3.836h2.134c2.21,0,2.9-1.092,2.9-2.921v-1.88h3.505v2.312c0,3.175-1.88,5.08-5.842,5.309a21.819,21.819,0,0,1-3.4.025C92.6,62.886,90.515,60.472,90.388,56.992Z" transform="translate(23.259 7.096)"/>
      <path id="Path_1534" data-name="Path 1534" d="M105.4,57.775c-.076-1.651-.1-5.487,0-9.3,3.455-.1,7.493-.1,9.068-.025a3.944,3.944,0,0,1,4.191,4.09c.076,1.372.076,3.759,0,5.233a3.949,3.949,0,0,1-4.191,4.09c-1.524.076-3.353.076-4.9,0A3.914,3.914,0,0,1,105.4,57.775Zm7.748,1.8c1.7,0,2.058-1.092,2.058-2.489v-3.81c0-1.4-.356-2.489-2.058-2.489H108.83v6.249c0,1.4.381,2.489,2.058,2.489l2.261.051Z" transform="translate(27.704 8.32)"/>
      <path id="Path_1535" data-name="Path 1535" d="M118.2,55.166c0-2.235,0-4.445.076-6.706H121.2l.483,1.956h.1a3.013,3.013,0,0,1,2.9-1.981,11.81,11.81,0,0,1,2.108-.025,3.415,3.415,0,0,1,3.251,2.312,3.241,3.241,0,0,1,3.15-2.312c.914-.025,2.54-.025,6.02.076.1,3.81.076,8.713-.076,13.31h-3.4V50.746h-3.378c-1.524,0-1.88,1.194-1.88,2.312V61.8h-3.455V53.083c0-1.092-.33-2.312-2.083-2.312h-1.3c-1.5,0-1.88,1.067-1.88,2.312V61.8h-3.48C118.2,59.637,118.2,57.4,118.2,55.166Z" transform="translate(31.517 8.313)"/>
      <path id="Path_1536" data-name="Path 1536" d="M137.13,57.47c0-3,0-6.02.076-8.992h2.947l.483,1.956h.1c.3-1.092.889-1.88,2.007-1.981,1.5-.076,4.09-.076,7.544.025.1,3.81.1,7.341,0,9.3a3.913,3.913,0,0,1-4.267,4.039h-5.385v4.7h-3.48C137.13,63.541,137.13,60.493,137.13,57.47Zm7.646,2.007c1.626,0,2.007-1.092,2.007-2.489v-6.2H142.21c-1.092,0-1.524,1.041-1.524,2.362v6.3l4.09.025Z" transform="translate(37.126 8.32)"/>
      <path id="Path_1537" data-name="Path 1537" d="M149.98,61.739c-.1-3.709-.076-8.637.025-13.26h3.48v11.05h3.988c1.4,0,1.88-.94,1.88-2.337V48.479h3.455c.076,2.21.076,4.445.076,6.706,0,2.235,0,4.445-.076,6.706h-2.9l-.381-1.956h-.1a2.928,2.928,0,0,1-2.794,2.007C156,61.892,153.434,61.892,149.98,61.739Z" transform="translate(40.914 8.344)"/>
      <path id="Path_1538" data-name="Path 1538" d="M164.108,59.465c-.025-1.245-.025-4.75-.025-7.9H162.33V49.228h1.753a30.9,30.9,0,0,1,.127-3.277h3.353v3.277h3.886v2.21a28.933,28.933,0,0,1-3.378.127h-1.524v.1c.787.254,1.041.584,1.041,1.27l.025,5.817c0,.711.381,1.524,1.829,1.524H171.5v2.21c-1.092.1-3,.1-3.531.1C165.2,62.514,164.159,61.218,164.108,59.465Z" transform="translate(44.592 7.595)"/>
      <path id="Path_1539" data-name="Path 1539" d="M171.4,57.763a51.34,51.34,0,0,1,0-5.233,3.994,3.994,0,0,1,4.293-4.09h8.51V52.3c0,2.185-.61,3.963-4.115,3.963h-5.207v.711c0,1.372.381,2.464,2.058,2.464h7.189v2.286c-1.27.1-2.464.1-3.734.1H176.4C172.668,61.827,171.5,59.846,171.4,57.763Zm5.842-7.036c-1.753,0-2.337.94-2.337,2.439v1.727h.1A1.431,1.431,0,0,1,176.4,54h3.353c1.016,0,1.372-.508,1.372-1.092V50.777l-3.886-.051Z" transform="translate(47.259 8.332)"/>
      <path id="Path_1540" data-name="Path 1540" d="M183.846,55.164c0-2.235,0-4.445.076-6.706h2.921l.483,2.362h.1c.229-1.6.94-2.312,2.439-2.362a28.1,28.1,0,0,1,4.166,0v2.337a28.712,28.712,0,0,1-3.353.127h-1.3c-1.3,0-1.981.787-1.981,2.693v8.179h-3.48C183.846,59.634,183.846,57.4,183.846,55.164Z" transform="translate(50.967 8.315)"/>
      <path id="Path_1541" data-name="Path 1541" d="M23.788,4.644h63S110,7.108,100.755,43.814c-10.542.2-81.9-.2-98.05,27.231,4.852-8.281,12.8-20.017,31.219-29.491A103.2,103.2,0,0,1,79.341,31.214c1.4-.33,2.693-1.727,2.464-4.852l-1.067-3.1H41.874Z" transform="translate(-2.704 -4.644)" fill="#2c5daa"/>
      <path id="Path_1542" data-name="Path 1542" d="M101.38,39.815S41.2,35.928,21.416,48.2H70.822s9.805-.2,7.976,12.6h-52L4.193,82.21H85.885S107.629,82.54,101.38,39.815Z" transform="translate(-2.263 5.604)" fill="#1cab8f"/>
    </g>
  </g>
</svg>
